<svg width="18" height="18" viewBox="0 0 18 18" fill="none" xmlns="http://www.w3.org/2000/svg">
<path d="M8.52888 0.0415043H8.63779C10.2611 0.0414849 11.554 0.0414693 12.5671 0.201728C13.6214 0.368482 14.458 0.720341 15.1055 1.48211C15.6165 2.08327 15.8987 2.80944 16.0601 3.68863C16.2196 4.5572 16.268 5.61562 16.2839 6.90882C16.2882 7.25397 16.0118 7.53721 15.6667 7.54146C15.3215 7.5457 15.0383 7.26934 15.034 6.92419C15.0182 5.63451 14.9693 4.66932 14.8307 3.91439C14.694 3.17009 14.4772 2.6729 14.1531 2.29167C13.7633 1.83306 13.2465 1.57472 12.3719 1.43638C11.4675 1.29333 10.2736 1.29151 8.58333 1.29151C6.8931 1.29151 5.6992 1.29333 4.79481 1.43638C3.92017 1.57472 3.40337 1.83306 3.01354 2.29167C2.61126 2.76495 2.37426 3.41695 2.25062 4.49884C2.12596 5.58968 2.125 7.02058 2.125 8.99984C2.125 10.9791 2.12596 12.41 2.25063 13.5008C2.37426 14.5827 2.61126 15.2347 3.01354 15.708C3.40337 16.1666 3.92017 16.425 4.79481 16.5633C5.6992 16.7064 6.8931 16.7082 8.58333 16.7082C8.92851 16.7082 9.20833 16.988 9.20833 17.3332C9.20833 17.6784 8.92851 17.9582 8.58333 17.9582H8.52886C6.90556 17.9582 5.61271 17.9582 4.59952 17.798C3.54526 17.6312 2.70863 17.2793 2.06112 16.5176C1.42607 15.7705 1.1444 14.8302 1.00871 13.6428C0.874988 12.4727 0.874994 10.9704 0.875 9.0411V8.95858C0.874993 7.02933 0.874988 5.52703 1.00871 4.35691C1.1444 3.16951 1.42607 2.22922 2.06112 1.48211C2.70862 0.720342 3.54526 0.368483 4.59952 0.201729C5.61271 0.0414695 6.90558 0.041485 8.52888 0.0415043Z" fill="#1B8354"/>
<path d="M5.04167 5.6665C5.04167 5.32133 5.32149 5.0415 5.66667 5.0415H11.5C11.8452 5.0415 12.125 5.32133 12.125 5.6665C12.125 6.01168 11.8452 6.2915 11.5 6.2915H5.66667C5.32149 6.2915 5.04167 6.01168 5.04167 5.6665Z" fill="#1B8354"/>
<path d="M5.04167 9.83317C5.04167 9.488 5.32149 9.20817 5.66667 9.20817H8.16667C8.51184 9.20817 8.79167 9.488 8.79167 9.83317C8.79167 10.1784 8.51184 10.4582 8.16667 10.4582H5.66667C5.32149 10.4582 5.04167 10.1784 5.04167 9.83317Z" fill="#1B8354"/>
<path fill-rule="evenodd" clip-rule="evenodd" d="M13.4792 8.37484C11.5807 8.37484 10.0417 9.91386 10.0417 11.8123C10.0417 12.7896 10.4499 13.6715 11.1035 14.2967L10.7386 15.4456C10.6508 15.7219 10.5769 15.9548 10.5293 16.1407C10.484 16.3174 10.4376 16.5386 10.4684 16.7597C10.5609 17.4229 11.1128 17.9556 11.81 17.9582C12.0423 17.959 12.258 17.8726 12.4179 17.8007C12.5883 17.7242 12.799 17.6137 13.0459 17.4841L13.0635 17.4748C13.3101 17.3454 13.3612 17.3216 13.4055 17.3083C13.5219 17.2731 13.6447 17.2731 13.7612 17.3083C13.8055 17.3216 13.8566 17.3454 14.1032 17.4748L14.1207 17.4841C14.3677 17.6136 14.5783 17.7242 14.7488 17.8007C14.9087 17.8726 15.1244 17.959 15.3566 17.9582C16.0539 17.9556 16.6057 17.4229 16.6982 16.7597C16.7291 16.5386 16.6826 16.3174 16.6374 16.1407C16.5898 15.9548 16.5159 15.722 16.4281 15.4457L16.0632 14.2967C16.7168 13.6715 17.125 12.7896 17.125 11.8123C17.125 9.91386 15.586 8.37484 13.6875 8.37484H13.4792ZM11.9356 15.806L12.1915 15.0004C12.5895 15.1612 13.0243 15.2498 13.4792 15.2498H13.6875C14.1424 15.2498 14.5772 15.1612 14.9751 15.0004L15.231 15.806C15.326 16.1051 15.3888 16.3036 15.4265 16.4507C15.4504 16.5443 15.456 16.5886 15.4576 16.6013C15.4437 16.667 15.4021 16.6964 15.3714 16.7051C15.3533 16.699 15.3181 16.6862 15.2609 16.6605C15.1297 16.6016 14.9534 16.5093 14.684 16.368L14.6454 16.3477C14.459 16.2497 14.2958 16.1639 14.1221 16.1115C13.7703 16.0054 13.3964 16.0054 13.0446 16.1115C12.8709 16.1639 12.7077 16.2497 12.5212 16.3477L12.4827 16.368C12.2133 16.5093 12.0369 16.6016 11.9057 16.6605C11.8486 16.6862 11.8134 16.699 11.7952 16.7051C11.7646 16.6964 11.723 16.6672 11.709 16.6015C11.7106 16.5887 11.7163 16.5443 11.7402 16.4507C11.7779 16.3036 11.8407 16.1051 11.9356 15.806ZM11.2917 11.8123C11.2917 10.6042 12.271 9.62484 13.4792 9.62484H13.6875C14.8956 9.62484 15.875 10.6042 15.875 11.8123C15.875 12.5393 15.521 13.1836 14.9732 13.5824C14.6124 13.845 14.1689 13.9998 13.6875 13.9998H13.4792C12.9977 13.9998 12.5543 13.845 12.1935 13.5824C11.6457 13.1836 11.2917 12.5393 11.2917 11.8123Z" fill="#1B8354"/>
<path d="M8.52888 0.0415043H8.63779C10.2611 0.0414849 11.554 0.0414693 12.5671 0.201728C13.6214 0.368482 14.458 0.720341 15.1055 1.48211C15.6165 2.08327 15.8987 2.80944 16.0601 3.68863C16.2196 4.5572 16.268 5.61562 16.2839 6.90882C16.2882 7.25397 16.0118 7.53721 15.6667 7.54146C15.3215 7.5457 15.0383 7.26934 15.034 6.92419C15.0182 5.63451 14.9693 4.66932 14.8307 3.91439C14.694 3.17009 14.4772 2.6729 14.1531 2.29167C13.7633 1.83306 13.2465 1.57472 12.3719 1.43638C11.4675 1.29333 10.2736 1.29151 8.58333 1.29151C6.8931 1.29151 5.6992 1.29333 4.79481 1.43638C3.92017 1.57472 3.40337 1.83306 3.01354 2.29167C2.61126 2.76495 2.37426 3.41695 2.25062 4.49884C2.12596 5.58968 2.125 7.02058 2.125 8.99984C2.125 10.9791 2.12596 12.41 2.25063 13.5008C2.37426 14.5827 2.61126 15.2347 3.01354 15.708C3.40337 16.1666 3.92017 16.425 4.79481 16.5633C5.6992 16.7064 6.8931 16.7082 8.58333 16.7082C8.92851 16.7082 9.20833 16.988 9.20833 17.3332C9.20833 17.6784 8.92851 17.9582 8.58333 17.9582H8.52886C6.90556 17.9582 5.61271 17.9582 4.59952 17.798C3.54526 17.6312 2.70863 17.2793 2.06112 16.5176C1.42607 15.7705 1.1444 14.8302 1.00871 13.6428C0.874988 12.4727 0.874994 10.9704 0.875 9.0411V8.95858C0.874993 7.02933 0.874988 5.52703 1.00871 4.35691C1.1444 3.16951 1.42607 2.22922 2.06112 1.48211C2.70862 0.720342 3.54526 0.368483 4.59952 0.201729C5.61271 0.0414695 6.90558 0.041485 8.52888 0.0415043Z" stroke="#9DA4AE"/>
<path d="M5.04167 5.6665C5.04167 5.32133 5.32149 5.0415 5.66667 5.0415H11.5C11.8452 5.0415 12.125 5.32133 12.125 5.6665C12.125 6.01168 11.8452 6.2915 11.5 6.2915H5.66667C5.32149 6.2915 5.04167 6.01168 5.04167 5.6665Z" stroke="#9DA4AE"/>
<path d="M5.04167 9.83317C5.04167 9.488 5.32149 9.20817 5.66667 9.20817H8.16667C8.51184 9.20817 8.79167 9.488 8.79167 9.83317C8.79167 10.1784 8.51184 10.4582 8.16667 10.4582H5.66667C5.32149 10.4582 5.04167 10.1784 5.04167 9.83317Z" stroke="#9DA4AE"/>
<path fill-rule="evenodd" clip-rule="evenodd" d="M13.4792 8.37484C11.5807 8.37484 10.0417 9.91386 10.0417 11.8123C10.0417 12.7896 10.4499 13.6715 11.1035 14.2967L10.7386 15.4456C10.6508 15.7219 10.5769 15.9548 10.5293 16.1407C10.484 16.3174 10.4376 16.5386 10.4684 16.7597C10.5609 17.4229 11.1128 17.9556 11.81 17.9582C12.0423 17.959 12.258 17.8726 12.4179 17.8007C12.5883 17.7242 12.799 17.6137 13.0459 17.4841L13.0635 17.4748C13.3101 17.3454 13.3612 17.3216 13.4055 17.3083C13.5219 17.2731 13.6447 17.2731 13.7612 17.3083C13.8055 17.3216 13.8566 17.3454 14.1032 17.4748L14.1207 17.4841C14.3677 17.6136 14.5783 17.7242 14.7488 17.8007C14.9087 17.8726 15.1244 17.959 15.3566 17.9582C16.0539 17.9556 16.6057 17.4229 16.6982 16.7597C16.7291 16.5386 16.6826 16.3174 16.6374 16.1407C16.5898 15.9548 16.5159 15.722 16.4281 15.4457L16.0632 14.2967C16.7168 13.6715 17.125 12.7896 17.125 11.8123C17.125 9.91386 15.586 8.37484 13.6875 8.37484H13.4792ZM11.9356 15.806L12.1915 15.0004C12.5895 15.1612 13.0243 15.2498 13.4792 15.2498H13.6875C14.1424 15.2498 14.5772 15.1612 14.9751 15.0004L15.231 15.806C15.326 16.1051 15.3888 16.3036 15.4265 16.4507C15.4504 16.5443 15.456 16.5886 15.4576 16.6013C15.4437 16.667 15.4021 16.6964 15.3714 16.7051C15.3533 16.699 15.3181 16.6862 15.2609 16.6605C15.1297 16.6016 14.9534 16.5093 14.684 16.368L14.6454 16.3477C14.459 16.2497 14.2958 16.1639 14.1221 16.1115C13.7703 16.0054 13.3964 16.0054 13.0446 16.1115C12.8709 16.1639 12.7077 16.2497 12.5212 16.3477L12.4827 16.368C12.2133 16.5093 12.0369 16.6016 11.9057 16.6605C11.8486 16.6862 11.8134 16.699 11.7952 16.7051C11.7646 16.6964 11.723 16.6672 11.709 16.6015C11.7106 16.5887 11.7163 16.5443 11.7402 16.4507C11.7779 16.3036 11.8407 16.1051 11.9356 15.806ZM11.2917 11.8123C11.2917 10.6042 12.271 9.62484 13.4792 9.62484H13.6875C14.8956 9.62484 15.875 10.6042 15.875 11.8123C15.875 12.5393 15.521 13.1836 14.9732 13.5824C14.6124 13.845 14.1689 13.9998 13.6875 13.9998H13.4792C12.9977 13.9998 12.5543 13.845 12.1935 13.5824C11.6457 13.1836 11.2917 12.5393 11.2917 11.8123Z" stroke="#9DA4AE"/>
</svg>
