<svg width="28" height="26" viewBox="0 0 28 26" fill="none" xmlns="http://www.w3.org/2000/svg">
<path fill-rule="evenodd" clip-rule="evenodd" d="M14.0001 2.68701C9.85719 2.68701 6.66405 5.34009 6.23643 8.52137C6.41605 8.59208 6.59693 8.67486 6.78228 8.75969L6.88733 8.80769L6.96908 8.84481C7.30995 8.99936 7.64386 9.15076 7.9102 9.38239C8.6888 10.0595 8.68805 10.9532 8.68762 11.4701L8.68762 17.0295C8.68805 17.5463 8.6888 18.44 7.9102 19.1171C7.64386 19.3487 7.30995 19.5001 6.96909 19.6547L6.88734 19.6918L6.78227 19.7398C6.32864 19.9474 5.90176 20.1428 5.45463 20.179C4.14828 20.2846 3.41655 19.3935 2.98667 18.87L2.9516 18.8274C2.84264 18.695 2.70849 18.5396 2.56362 18.3717C2.29877 18.0648 1.99812 17.7164 1.75017 17.3919C1.3406 16.8559 0.93019 16.2136 0.726322 15.4674C0.508028 14.6683 0.508027 13.8312 0.726322 13.0321C0.874255 12.4906 1.14191 12.0127 1.49523 11.5112C1.83739 11.0254 2.29834 10.4656 2.86832 9.77329L2.8915 9.74514C2.91486 9.71676 2.93934 9.68664 2.96496 9.6551C3.25365 9.2998 3.68918 8.76377 4.35074 8.48866C4.79531 4.07833 9.0702 0.812008 14.0001 0.812009C18.9301 0.812009 23.205 4.07833 23.6495 8.48867C24.3111 8.76377 24.7466 9.2998 25.0353 9.6551L25.0365 9.6566C25.0617 9.6876 25.0858 9.71721 25.1088 9.74514L25.1319 9.77321C25.7019 10.4655 26.1629 11.0254 26.5051 11.5112C26.8584 12.0127 27.126 12.4906 27.274 13.0321C27.4923 13.8312 27.4923 14.6683 27.274 15.4674C27.0701 16.2136 26.6597 16.8559 26.2501 17.3919C26.0022 17.7163 25.7016 18.0647 25.4368 18.3715C25.2919 18.5394 25.1576 18.695 25.0487 18.8274L25.0136 18.87C24.7296 19.2159 24.3138 19.7222 23.6876 19.9955L23.6876 20.2495C23.6876 23.1608 20.8233 25.187 17.7501 25.187L15.2501 25.187C14.7324 25.187 14.3126 24.7673 14.3126 24.2495C14.3126 23.7317 14.7324 23.312 15.2501 23.312L17.7501 23.312C20.1998 23.312 21.8126 21.7565 21.8126 20.2495L21.8126 19.9971C21.617 19.9224 21.4201 19.8323 21.218 19.7398L21.1129 19.6918L21.0312 19.6547C20.6903 19.5001 20.3564 19.3487 20.0901 19.1171C19.3115 18.44 19.3122 17.5463 19.3127 17.0295L19.3127 11.4701C19.3122 10.9532 19.3115 10.0595 20.0901 9.38239C20.3564 9.15076 20.6903 8.99936 21.0312 8.84481L21.1129 8.80769L21.218 8.75969C21.4034 8.67486 21.5842 8.59208 21.7639 8.52137C21.3362 5.34009 18.1431 2.68701 14.0001 2.68701ZM22.7725 18.3123C22.7651 18.3121 22.7576 18.312 22.7501 18.312C22.7445 18.312 22.7389 18.3121 22.7332 18.3122C22.7215 18.3118 22.7093 18.3111 22.6968 18.3101C22.6223 18.304 22.5192 18.272 21.8901 17.9855C21.4106 17.7671 21.3529 17.7304 21.3205 17.7023C21.2645 17.6536 21.2416 17.6134 21.2229 17.5377C21.1954 17.4262 21.1877 17.278 21.1877 16.9942L21.1877 11.5053C21.1877 11.2215 21.1954 11.0733 21.2229 10.9618C21.2416 10.8861 21.2645 10.8459 21.3205 10.7972C21.3529 10.7691 21.4106 10.7324 21.8901 10.514C22.5192 10.2275 22.6223 10.1955 22.6968 10.1895C22.7157 10.1879 22.7338 10.1871 22.7512 10.187L22.7577 10.187C22.8794 10.1877 22.9675 10.2247 23.0739 10.3043C23.2409 10.4293 23.3977 10.6168 23.6613 10.9369C24.2598 11.6639 24.6754 12.1697 24.9722 12.591C25.2624 13.003 25.3974 13.278 25.4652 13.5263C25.5952 14.0018 25.5952 14.4977 25.4652 14.9732C25.3544 15.3789 25.1104 15.7952 24.7603 16.2535C24.5352 16.548 24.3175 16.799 24.0874 17.0644C23.933 17.2424 23.7729 17.4271 23.6012 17.6356C23.3574 17.9317 23.2055 18.1021 23.0545 18.2095C22.9625 18.2749 22.8824 18.309 22.7725 18.3123ZM5.24906 10.187L5.24257 10.187C5.12091 10.1877 5.03274 10.2247 4.92636 10.3043C4.75934 10.4293 4.6026 10.6168 4.33902 10.9369C3.74048 11.6639 3.32487 12.1697 3.0281 12.591C2.73787 13.003 2.60285 13.278 2.53504 13.5263C2.40512 14.0018 2.40512 14.4977 2.53504 14.9732C2.64585 15.3789 2.88985 15.7952 3.23998 16.2535C3.46509 16.548 3.68273 16.799 3.9129 17.0644C4.0673 17.2424 4.22742 17.4271 4.39913 17.6356C4.64286 17.9317 4.79483 18.1021 4.94579 18.2095C5.05757 18.289 5.15195 18.3223 5.30348 18.3101C5.37798 18.304 5.4811 18.272 6.11014 17.9855C6.58964 17.7671 6.64743 17.7304 6.67978 17.7023C6.73575 17.6536 6.75865 17.6134 6.77733 17.5377C6.80488 17.4262 6.8126 17.278 6.8126 16.9942L6.8126 11.5053C6.8126 11.2215 6.80488 11.0733 6.77733 10.9618C6.75865 10.8861 6.73576 10.8459 6.67978 10.7972C6.64743 10.7691 6.58964 10.7324 6.11013 10.514C5.48109 10.2275 5.37798 10.1955 5.30348 10.1895C5.28455 10.1879 5.26646 10.1871 5.24906 10.187Z" fill="#067647"/>
</svg>
