<svg width="20" height="20" viewBox="0 0 20 20" fill="none" xmlns="http://www.w3.org/2000/svg">
<path d="M10 18.9552C10.2641 18.9552 10.5171 18.9552 10.7597 18.9544C10.7701 18.9549 10.7805 18.9552 10.791 18.9552V18.9568C13.0635 18.9568 14.3152 18.9568 15.2785 18.1902C16.2393 17.4235 16.526 16.1993 17.046 13.976L18.6444 7.14185C18.9511 5.83185 19.1193 5.11015 18.7402 4.46265C18.1766 3.5018 17.0168 3.50637 16.2123 3.52957C16.0608 2.94203 15.8161 2.47138 15.4208 2.07609C14.3842 1.03859 12.8267 1.03857 10 1.03857L7.50002 1.03857C4.67335 1.03857 3.1167 1.03859 2.0792 2.07609C1.0417 3.11276 1.04169 4.67024 1.04169 7.49691L1.04169 12.4969C1.04169 15.3236 1.0417 16.8802 2.0792 17.9177C3.11587 18.9552 4.67335 18.9552 7.50002 18.9552L10 18.9552ZM16.4008 4.77487C16.4584 5.5252 16.4584 6.41865 16.4584 7.49691V10.9975L17.4277 6.85299C17.6451 5.92286 17.7882 5.31044 17.6611 5.09433C17.4812 4.78817 16.9197 4.76436 16.4008 4.77487ZM7.49983 2.28857L10 2.28857C12.5741 2.28857 13.8667 2.28857 14.5375 2.95939C15.2084 3.63104 15.2084 4.92268 15.2084 7.49673L15.2084 12.4969C15.2084 15.071 15.2084 16.3636 14.5375 17.0344C13.8659 17.7052 12.5742 17.7052 10.0002 17.7052L7.50002 17.7052C4.92598 17.7052 3.63332 17.7052 2.9625 17.0344C2.29169 16.3628 2.29169 15.0711 2.29169 12.4971L2.29169 7.49691C2.29169 4.92287 2.29169 3.63021 2.9625 2.95939C3.63415 2.28857 4.92579 2.28857 7.49983 2.28857ZM4.79169 8.33024C4.79169 10.5127 6.56752 12.2886 8.75002 12.2886C10.9325 12.2886 12.7084 10.5127 12.7084 8.33024C12.7084 6.14774 10.9325 4.37191 8.75002 4.37191C6.56752 4.37191 4.79169 6.14774 4.79169 8.33024ZM8.12502 8.33024C8.12502 6.76357 8.53252 5.85439 8.75002 5.64856C8.96752 5.85439 9.37502 6.76357 9.37502 8.33024C9.37502 9.89691 8.96752 10.8061 8.75002 11.0119C8.53252 10.8061 8.12502 9.89691 8.12502 8.33024ZM10.625 8.33024C10.625 7.57857 10.5333 6.80443 10.3442 6.14193C11.0192 6.63526 11.4584 7.43191 11.4584 8.33024C11.4584 9.22857 11.0192 10.0252 10.3442 10.5186C10.5342 9.85605 10.625 9.08191 10.625 8.33024ZM6.04169 8.33024C6.04169 7.43191 6.48086 6.63526 7.15586 6.14193C6.96586 6.80443 6.87502 7.57857 6.87502 8.33024C6.87502 9.08191 6.9667 9.85605 7.15586 10.5186C6.48086 10.0252 6.04169 9.22857 6.04169 8.33024ZM12.2917 14.1636C12.2917 14.5086 12.0117 14.7886 11.6667 14.7886H5.83335C5.48835 14.7886 5.20835 14.5086 5.20835 14.1636C5.20835 13.8186 5.48835 13.5386 5.83335 13.5386H11.6667C12.0117 13.5386 12.2917 13.8186 12.2917 14.1636Z" fill="#1B8354"/>
<path d="M10 18.9552C10.2641 18.9552 10.5171 18.9552 10.7597 18.9544C10.7701 18.9549 10.7805 18.9552 10.791 18.9552V18.9568C13.0635 18.9568 14.3152 18.9568 15.2785 18.1902C16.2393 17.4235 16.526 16.1993 17.046 13.976L18.6444 7.14185C18.9511 5.83185 19.1193 5.11015 18.7402 4.46265C18.1766 3.5018 17.0168 3.50637 16.2123 3.52957C16.0608 2.94203 15.8161 2.47138 15.4208 2.07609C14.3842 1.03859 12.8267 1.03857 10 1.03857L7.50002 1.03857C4.67335 1.03857 3.1167 1.03859 2.0792 2.07609C1.0417 3.11276 1.04169 4.67024 1.04169 7.49691L1.04169 12.4969C1.04169 15.3236 1.0417 16.8802 2.0792 17.9177C3.11587 18.9552 4.67335 18.9552 7.50002 18.9552L10 18.9552ZM16.4008 4.77487C16.4584 5.5252 16.4584 6.41865 16.4584 7.49691V10.9975L17.4277 6.85299C17.6451 5.92286 17.7882 5.31044 17.6611 5.09433C17.4812 4.78817 16.9197 4.76436 16.4008 4.77487ZM7.49983 2.28857L10 2.28857C12.5741 2.28857 13.8667 2.28857 14.5375 2.95939C15.2084 3.63104 15.2084 4.92268 15.2084 7.49673L15.2084 12.4969C15.2084 15.071 15.2084 16.3636 14.5375 17.0344C13.8659 17.7052 12.5742 17.7052 10.0002 17.7052L7.50002 17.7052C4.92598 17.7052 3.63332 17.7052 2.9625 17.0344C2.29169 16.3628 2.29169 15.0711 2.29169 12.4971L2.29169 7.49691C2.29169 4.92287 2.29169 3.63021 2.9625 2.95939C3.63415 2.28857 4.92579 2.28857 7.49983 2.28857ZM4.79169 8.33024C4.79169 10.5127 6.56752 12.2886 8.75002 12.2886C10.9325 12.2886 12.7084 10.5127 12.7084 8.33024C12.7084 6.14774 10.9325 4.37191 8.75002 4.37191C6.56752 4.37191 4.79169 6.14774 4.79169 8.33024ZM8.12502 8.33024C8.12502 6.76357 8.53252 5.85439 8.75002 5.64856C8.96752 5.85439 9.37502 6.76357 9.37502 8.33024C9.37502 9.89691 8.96752 10.8061 8.75002 11.0119C8.53252 10.8061 8.12502 9.89691 8.12502 8.33024ZM10.625 8.33024C10.625 7.57857 10.5333 6.80443 10.3442 6.14193C11.0192 6.63526 11.4584 7.43191 11.4584 8.33024C11.4584 9.22857 11.0192 10.0252 10.3442 10.5186C10.5342 9.85605 10.625 9.08191 10.625 8.33024ZM6.04169 8.33024C6.04169 7.43191 6.48086 6.63526 7.15586 6.14193C6.96586 6.80443 6.87502 7.57857 6.87502 8.33024C6.87502 9.08191 6.9667 9.85605 7.15586 10.5186C6.48086 10.0252 6.04169 9.22857 6.04169 8.33024ZM12.2917 14.1636C12.2917 14.5086 12.0117 14.7886 11.6667 14.7886H5.83335C5.48835 14.7886 5.20835 14.5086 5.20835 14.1636C5.20835 13.8186 5.48835 13.5386 5.83335 13.5386H11.6667C12.0117 13.5386 12.2917 13.8186 12.2917 14.1636Z" stroke="#9DA4AE"/>
</svg>
