<svg width="18" height="18" viewBox="0 0 18 18" fill="none" xmlns="http://www.w3.org/2000/svg">
<path fill-rule="evenodd" clip-rule="evenodd" d="M2.95817 4.83333C2.95817 2.64721 4.73038 0.875 6.9165 0.875C9.10263 0.875 10.8748 2.64721 10.8748 4.83333C10.8748 7.01946 9.10263 8.79167 6.9165 8.79167C4.73038 8.79167 2.95817 7.01946 2.95817 4.83333ZM6.9165 2.125C5.42073 2.125 4.20817 3.33756 4.20817 4.83333C4.20817 6.3291 5.42073 7.54167 6.9165 7.54167C8.41228 7.54167 9.62484 6.3291 9.62484 4.83333C9.62484 3.33756 8.41228 2.125 6.9165 2.125Z" fill="#1B8354"/>
<path fill-rule="evenodd" clip-rule="evenodd" d="M2.91034 11.2122C5.48994 9.65147 8.76 9.65147 11.3396 11.2122C11.4204 11.2612 11.5213 11.319 11.6362 11.3848C12.1468 11.6773 12.9346 12.1287 13.4734 12.6646C13.811 13.0004 14.1391 13.4499 14.1988 14.0052C14.2626 14.5976 14.007 15.1497 13.5066 15.634C12.6593 16.4543 11.629 17.125 10.2889 17.125H3.96101C2.62097 17.125 1.59068 16.4543 0.743325 15.634C0.242989 15.1497 -0.0126089 14.5976 0.0511176 14.0052C0.110859 13.4499 0.438979 13.0004 0.776535 12.6646C1.31535 12.1287 2.10314 11.6774 2.61368 11.3848C2.72849 11.319 2.82958 11.2611 2.91034 11.2122ZM10.6925 12.2817C8.51074 10.9616 5.73921 10.9616 3.55742 12.2817C3.43361 12.3566 3.29917 12.4342 3.15924 12.5149C2.64893 12.8092 2.06557 13.1456 1.65802 13.5509C1.40587 13.8017 1.30905 13.9985 1.29395 14.1389C1.28283 14.2423 1.30246 14.4356 1.61276 14.7359C2.34934 15.449 3.08315 15.875 3.96101 15.875H10.2889C11.1668 15.875 11.9006 15.449 12.6372 14.7359C12.9475 14.4356 12.9671 14.2423 12.956 14.1389C12.9409 13.9985 12.8441 13.8017 12.5919 13.5509C12.1844 13.1456 11.601 12.8092 11.0907 12.5149C10.9509 12.4342 10.8163 12.3566 10.6925 12.2817Z" fill="#1B8354"/>
<path d="M13.1665 2.54167C12.8213 2.54167 12.5415 2.82149 12.5415 3.16667C12.5415 3.51184 12.8213 3.79167 13.1665 3.79167L17.3332 3.79167C17.6783 3.79167 17.9582 3.51185 17.9582 3.16667C17.9582 2.82149 17.6783 2.54167 17.3332 2.54167L13.1665 2.54167Z" fill="#1B8354"/>
<path d="M12.5415 5.66667C12.5415 5.32149 12.8213 5.04167 13.1665 5.04167L17.3332 5.04167C17.6783 5.04167 17.9582 5.32149 17.9582 5.66667C17.9582 6.01185 17.6783 6.29167 17.3332 6.29167L13.1665 6.29167C12.8213 6.29167 12.5415 6.01184 12.5415 5.66667Z" fill="#1B8354"/>
<path d="M15.6665 7.54167C15.3213 7.54167 15.0415 7.82149 15.0415 8.16667C15.0415 8.51184 15.3213 8.79167 15.6665 8.79167H17.3332C17.6783 8.79167 17.9582 8.51185 17.9582 8.16667C17.9582 7.82149 17.6783 7.54167 17.3332 7.54167H15.6665Z" fill="#1B8354"/>
<path fill-rule="evenodd" clip-rule="evenodd" d="M2.95817 4.83333C2.95817 2.64721 4.73038 0.875 6.9165 0.875C9.10263 0.875 10.8748 2.64721 10.8748 4.83333C10.8748 7.01946 9.10263 8.79167 6.9165 8.79167C4.73038 8.79167 2.95817 7.01946 2.95817 4.83333ZM6.9165 2.125C5.42073 2.125 4.20817 3.33756 4.20817 4.83333C4.20817 6.3291 5.42073 7.54167 6.9165 7.54167C8.41228 7.54167 9.62484 6.3291 9.62484 4.83333C9.62484 3.33756 8.41228 2.125 6.9165 2.125Z" stroke="#9DA4AE"/>
<path fill-rule="evenodd" clip-rule="evenodd" d="M2.91034 11.2122C5.48994 9.65147 8.76 9.65147 11.3396 11.2122C11.4204 11.2612 11.5213 11.319 11.6362 11.3848C12.1468 11.6773 12.9346 12.1287 13.4734 12.6646C13.811 13.0004 14.1391 13.4499 14.1988 14.0052C14.2626 14.5976 14.007 15.1497 13.5066 15.634C12.6593 16.4543 11.629 17.125 10.2889 17.125H3.96101C2.62097 17.125 1.59068 16.4543 0.743325 15.634C0.242989 15.1497 -0.0126089 14.5976 0.0511176 14.0052C0.110859 13.4499 0.438979 13.0004 0.776535 12.6646C1.31535 12.1287 2.10314 11.6774 2.61368 11.3848C2.72849 11.319 2.82958 11.2611 2.91034 11.2122ZM10.6925 12.2817C8.51074 10.9616 5.73921 10.9616 3.55742 12.2817C3.43361 12.3566 3.29917 12.4342 3.15924 12.5149C2.64893 12.8092 2.06557 13.1456 1.65802 13.5509C1.40587 13.8017 1.30905 13.9985 1.29395 14.1389C1.28283 14.2423 1.30246 14.4356 1.61276 14.7359C2.34934 15.449 3.08315 15.875 3.96101 15.875H10.2889C11.1668 15.875 11.9006 15.449 12.6372 14.7359C12.9475 14.4356 12.9671 14.2423 12.956 14.1389C12.9409 13.9985 12.8441 13.8017 12.5919 13.5509C12.1844 13.1456 11.601 12.8092 11.0907 12.5149C10.9509 12.4342 10.8163 12.3566 10.6925 12.2817Z" stroke="#9DA4AE"/>
<path d="M13.1665 2.54167C12.8213 2.54167 12.5415 2.82149 12.5415 3.16667C12.5415 3.51184 12.8213 3.79167 13.1665 3.79167L17.3332 3.79167C17.6783 3.79167 17.9582 3.51185 17.9582 3.16667C17.9582 2.82149 17.6783 2.54167 17.3332 2.54167L13.1665 2.54167Z" stroke="#9DA4AE"/>
<path d="M12.5415 5.66667C12.5415 5.32149 12.8213 5.04167 13.1665 5.04167L17.3332 5.04167C17.6783 5.04167 17.9582 5.32149 17.9582 5.66667C17.9582 6.01185 17.6783 6.29167 17.3332 6.29167L13.1665 6.29167C12.8213 6.29167 12.5415 6.01184 12.5415 5.66667Z" stroke="#9DA4AE"/>
<path d="M15.6665 7.54167C15.3213 7.54167 15.0415 7.82149 15.0415 8.16667C15.0415 8.51184 15.3213 8.79167 15.6665 8.79167H17.3332C17.6783 8.79167 17.9582 8.51185 17.9582 8.16667C17.9582 7.82149 17.6783 7.54167 17.3332 7.54167H15.6665Z" stroke="#9DA4AE"/>
</svg>
