<svg width="20" height="16" viewBox="0 0 20 16" fill="none" xmlns="http://www.w3.org/2000/svg">
<path fill-rule="evenodd" clip-rule="evenodd" d="M9.99992 0.708496C8.04391 0.708496 6.45825 2.29415 6.45825 4.25016C6.45825 6.20617 8.04391 7.79183 9.99992 7.79183C11.9559 7.79183 13.5416 6.20617 13.5416 4.25016C13.5416 2.29415 11.9559 0.708496 9.99992 0.708496ZM7.70825 4.25016C7.70825 2.98451 8.73427 1.9585 9.99992 1.9585C11.2656 1.9585 12.2916 2.98451 12.2916 4.25016C12.2916 5.51582 11.2656 6.54183 9.99992 6.54183C8.73427 6.54183 7.70825 5.51582 7.70825 4.25016Z" fill="#1B8354"/>
<path d="M4.58329 2.37516C3.08752 2.37516 1.87495 3.58772 1.87495 5.0835C1.87495 6.57927 3.08752 7.79183 4.58329 7.79183C4.92847 7.79183 5.20829 7.51201 5.20829 7.16683C5.20829 6.82165 4.92847 6.54183 4.58329 6.54183C3.77787 6.54183 3.12496 5.88891 3.12496 5.0835C3.12496 4.27808 3.77787 3.62516 4.58329 3.62516C4.92847 3.62516 5.20829 3.34534 5.20829 3.00016C5.20829 2.65498 4.92847 2.37516 4.58329 2.37516Z" fill="#1B8354"/>
<path d="M4.78908 8.77718C4.75798 8.43341 4.45408 8.17994 4.11031 8.21104C3.3282 8.28179 2.56774 8.58268 1.8975 9.0988C1.85888 9.12854 1.80801 9.16555 1.74824 9.20904C1.46433 9.41558 0.979581 9.76823 0.652905 10.1818C0.44417 10.446 0.248971 10.7918 0.213827 11.2076C0.177021 11.643 0.323001 12.0661 0.635965 12.4517C1.11501 13.0419 1.77234 13.6252 2.68825 13.6252C3.03343 13.6252 3.31325 13.3453 3.31325 13.0002C3.31325 12.655 3.03343 12.3752 2.68825 12.3752C2.35533 12.3752 2.01935 12.1726 1.60652 11.6639C1.46304 11.4871 1.45405 11.376 1.45939 11.3129C1.46639 11.23 1.51045 11.1127 1.63377 10.9566C1.84147 10.6937 2.13263 10.4797 2.41563 10.2717C2.49861 10.2107 2.58089 10.1502 2.66015 10.0892C3.15212 9.71034 3.68934 9.50423 4.22293 9.45595C4.56671 9.42485 4.82018 9.12096 4.78908 8.77718Z" fill="#1B8354"/>
<path d="M14.9999 2.37516C14.6547 2.37516 14.3749 2.65498 14.3749 3.00016C14.3749 3.34534 14.6547 3.62516 14.9999 3.62516C15.8053 3.62516 16.4583 4.27808 16.4583 5.0835C16.4583 5.88891 15.8053 6.54183 14.9999 6.54183C14.6547 6.54183 14.3749 6.82165 14.3749 7.16683C14.3749 7.51201 14.6547 7.79183 14.9999 7.79183C16.4957 7.79183 17.7083 6.57927 17.7083 5.0835C17.7083 3.58772 16.4957 2.37516 14.9999 2.37516Z" fill="#1B8354"/>
<path d="M15.8896 8.21104C15.5458 8.17994 15.2419 8.43341 15.2108 8.77718C15.1797 9.12096 15.4332 9.42485 15.7769 9.45595C16.3105 9.50423 16.8478 9.71034 17.3397 10.0892C17.419 10.1502 17.5012 10.2107 17.5842 10.2717C17.8672 10.4797 18.1584 10.6937 18.3661 10.9566C18.4894 11.1127 18.5335 11.23 18.5405 11.3129C18.5458 11.376 18.5368 11.4871 18.3934 11.6639C17.9805 12.1726 17.6445 12.3752 17.3116 12.3752C16.9664 12.3752 16.6866 12.655 16.6866 13.0002C16.6866 13.3453 16.9664 13.6252 17.3116 13.6252C18.2275 13.6252 18.8849 13.0419 19.3639 12.4517C19.6769 12.0661 19.8229 11.643 19.786 11.2076C19.7509 10.7918 19.5557 10.446 19.347 10.1818C19.0203 9.76823 18.5356 9.41564 18.2517 9.2091C18.192 9.16562 18.141 9.12854 18.1024 9.0988C17.4321 8.58268 16.6717 8.28179 15.8896 8.21104Z" fill="#1B8354"/>
<path fill-rule="evenodd" clip-rule="evenodd" d="M6.40784 10.0612C8.60599 8.70203 11.3941 8.70203 13.5922 10.0612C13.657 10.1013 13.7391 10.1493 13.8334 10.2045C14.2602 10.4543 14.938 10.8509 15.4004 11.3209C15.6909 11.6161 15.9805 12.0186 16.0333 12.5203C16.0898 13.0571 15.862 13.554 15.4274 13.984C14.7093 14.6944 13.8199 15.2918 12.6537 15.2918H7.3464C6.18018 15.2918 5.29074 14.6944 4.57272 13.984C4.13808 13.554 3.91025 13.0571 3.96675 12.5203C4.01956 12.0186 4.30923 11.6161 4.59967 11.3209C5.06209 10.8509 5.73974 10.4543 6.16663 10.2045C6.26095 10.1493 6.34303 10.1013 6.40784 10.0612ZM12.9348 11.1244C11.1396 10.0143 8.86052 10.0143 7.06525 11.1244C6.95748 11.191 6.84193 11.2592 6.7227 11.3295C6.29614 11.581 5.82258 11.8602 5.49074 12.1975C5.28658 12.4051 5.21985 12.5565 5.20988 12.6512C5.20361 12.7108 5.20662 12.8528 5.45186 13.0954C6.06231 13.6993 6.65244 14.0418 7.3464 14.0418H12.6537C13.3476 14.0418 13.9378 13.6993 14.5482 13.0954C14.7935 12.8527 14.7965 12.7108 14.7902 12.6512C14.7802 12.5565 14.7135 12.4051 14.5093 12.1975C14.1775 11.8602 13.704 11.581 13.2774 11.3295C13.1582 11.2592 13.0426 11.191 12.9348 11.1244Z" fill="#1B8354"/>
<path fill-rule="evenodd" clip-rule="evenodd" d="M9.99992 0.708496C8.04391 0.708496 6.45825 2.29415 6.45825 4.25016C6.45825 6.20617 8.04391 7.79183 9.99992 7.79183C11.9559 7.79183 13.5416 6.20617 13.5416 4.25016C13.5416 2.29415 11.9559 0.708496 9.99992 0.708496ZM7.70825 4.25016C7.70825 2.98451 8.73427 1.9585 9.99992 1.9585C11.2656 1.9585 12.2916 2.98451 12.2916 4.25016C12.2916 5.51582 11.2656 6.54183 9.99992 6.54183C8.73427 6.54183 7.70825 5.51582 7.70825 4.25016Z" stroke="#9DA4AE"/>
<path d="M4.58329 2.37516C3.08752 2.37516 1.87495 3.58772 1.87495 5.0835C1.87495 6.57927 3.08752 7.79183 4.58329 7.79183C4.92847 7.79183 5.20829 7.51201 5.20829 7.16683C5.20829 6.82165 4.92847 6.54183 4.58329 6.54183C3.77787 6.54183 3.12496 5.88891 3.12496 5.0835C3.12496 4.27808 3.77787 3.62516 4.58329 3.62516C4.92847 3.62516 5.20829 3.34534 5.20829 3.00016C5.20829 2.65498 4.92847 2.37516 4.58329 2.37516Z" stroke="#9DA4AE"/>
<path d="M4.78908 8.77718C4.75798 8.43341 4.45408 8.17994 4.11031 8.21104C3.3282 8.28179 2.56774 8.58268 1.8975 9.0988C1.85888 9.12854 1.80801 9.16555 1.74824 9.20904C1.46433 9.41558 0.979581 9.76823 0.652905 10.1818C0.44417 10.446 0.248971 10.7918 0.213827 11.2076C0.177021 11.643 0.323001 12.0661 0.635965 12.4517C1.11501 13.0419 1.77234 13.6252 2.68825 13.6252C3.03343 13.6252 3.31325 13.3453 3.31325 13.0002C3.31325 12.655 3.03343 12.3752 2.68825 12.3752C2.35533 12.3752 2.01935 12.1726 1.60652 11.6639C1.46304 11.4871 1.45405 11.376 1.45939 11.3129C1.46639 11.23 1.51045 11.1127 1.63377 10.9566C1.84147 10.6937 2.13263 10.4797 2.41563 10.2717C2.49861 10.2107 2.58089 10.1502 2.66015 10.0892C3.15212 9.71034 3.68934 9.50423 4.22293 9.45595C4.56671 9.42485 4.82018 9.12096 4.78908 8.77718Z" stroke="#9DA4AE"/>
<path d="M14.9999 2.37516C14.6547 2.37516 14.3749 2.65498 14.3749 3.00016C14.3749 3.34534 14.6547 3.62516 14.9999 3.62516C15.8053 3.62516 16.4583 4.27808 16.4583 5.0835C16.4583 5.88891 15.8053 6.54183 14.9999 6.54183C14.6547 6.54183 14.3749 6.82165 14.3749 7.16683C14.3749 7.51201 14.6547 7.79183 14.9999 7.79183C16.4957 7.79183 17.7083 6.57927 17.7083 5.0835C17.7083 3.58772 16.4957 2.37516 14.9999 2.37516Z" stroke="#9DA4AE"/>
<path d="M15.8896 8.21104C15.5458 8.17994 15.2419 8.43341 15.2108 8.77718C15.1797 9.12096 15.4332 9.42485 15.7769 9.45595C16.3105 9.50423 16.8478 9.71034 17.3397 10.0892C17.419 10.1502 17.5012 10.2107 17.5842 10.2717C17.8672 10.4797 18.1584 10.6937 18.3661 10.9566C18.4894 11.1127 18.5335 11.23 18.5405 11.3129C18.5458 11.376 18.5368 11.4871 18.3934 11.6639C17.9805 12.1726 17.6445 12.3752 17.3116 12.3752C16.9664 12.3752 16.6866 12.655 16.6866 13.0002C16.6866 13.3453 16.9664 13.6252 17.3116 13.6252C18.2275 13.6252 18.8849 13.0419 19.3639 12.4517C19.6769 12.0661 19.8229 11.643 19.786 11.2076C19.7509 10.7918 19.5557 10.446 19.347 10.1818C19.0203 9.76823 18.5356 9.41564 18.2517 9.2091C18.192 9.16562 18.141 9.12854 18.1024 9.0988C17.4321 8.58268 16.6717 8.28179 15.8896 8.21104Z" stroke="#9DA4AE"/>
<path fill-rule="evenodd" clip-rule="evenodd" d="M6.40784 10.0612C8.60599 8.70203 11.3941 8.70203 13.5922 10.0612C13.657 10.1013 13.7391 10.1493 13.8334 10.2045C14.2602 10.4543 14.938 10.8509 15.4004 11.3209C15.6909 11.6161 15.9805 12.0186 16.0333 12.5203C16.0898 13.0571 15.862 13.554 15.4274 13.984C14.7093 14.6944 13.8199 15.2918 12.6537 15.2918H7.3464C6.18018 15.2918 5.29074 14.6944 4.57272 13.984C4.13808 13.554 3.91025 13.0571 3.96675 12.5203C4.01956 12.0186 4.30923 11.6161 4.59967 11.3209C5.06209 10.8509 5.73974 10.4543 6.16663 10.2045C6.26095 10.1493 6.34303 10.1013 6.40784 10.0612ZM12.9348 11.1244C11.1396 10.0143 8.86052 10.0143 7.06525 11.1244C6.95748 11.191 6.84193 11.2592 6.7227 11.3295C6.29614 11.581 5.82258 11.8602 5.49074 12.1975C5.28658 12.4051 5.21985 12.5565 5.20988 12.6512C5.20361 12.7108 5.20662 12.8528 5.45186 13.0954C6.06231 13.6993 6.65244 14.0418 7.3464 14.0418H12.6537C13.3476 14.0418 13.9378 13.6993 14.5482 13.0954C14.7935 12.8527 14.7965 12.7108 14.7902 12.6512C14.7802 12.5565 14.7135 12.4051 14.5093 12.1975C14.1775 11.8602 13.704 11.581 13.2774 11.3295C13.1582 11.2592 13.0426 11.191 12.9348 11.1244Z" stroke="#9DA4AE"/>
</svg>
