<svg width="18" height="18" viewBox="0 0 18 18" fill="none" xmlns="http://www.w3.org/2000/svg">
<path d="M16.7084 8.99984C16.7084 4.74264 13.2572 1.2915 9.00002 1.2915C8.87799 1.2915 8.75667 1.29433 8.63612 1.29993C8.56403 1.30328 8.50017 1.30626 8.44256 1.30935C8.48477 1.36984 8.53298 1.43738 8.5887 1.51539L9.5086 2.80323C9.70923 3.08411 9.64418 3.47445 9.3633 3.67509C9.08242 3.87572 8.69207 3.81066 8.49144 3.52978L7.54788 2.20883C7.39746 1.99841 7.24213 1.78115 7.14662 1.58549C7.03489 1.35661 6.93806 1.02226 7.11224 0.663568C7.28037 0.317372 7.58392 0.179993 7.83705 0.122609C8.0434 0.0758294 8.29895 0.0640979 8.53778 0.0531344L8.57817 0.0512735C8.71802 0.044783 8.85866 0.0415039 9.00002 0.0415039C13.9476 0.0415039 17.9584 4.05229 17.9584 8.99984C17.9584 13.9474 13.9476 17.9582 9.00002 17.9582C4.05247 17.9582 0.041687 13.9474 0.041687 8.99984C0.041687 6.06859 1.45018 3.46614 3.62466 1.83283C3.90065 1.62552 4.29244 1.68121 4.49975 1.9572C4.70705 2.23319 4.65137 2.62498 4.37538 2.83229C2.5017 4.23967 1.29169 6.47835 1.29169 8.99984C1.29169 13.257 4.74282 16.7082 9.00002 16.7082C13.2572 16.7082 16.7084 13.257 16.7084 8.99984Z" fill="#1B8354"/>
<path d="M8.09162 6.70817C7.59507 6.70817 7.16756 7.05865 7.07018 7.54555L6.7205 9.29393C6.67873 9.5028 6.7462 9.71855 6.89953 9.8664C7.05285 10.0143 7.27092 10.0738 7.47813 10.0245C7.56939 10.0028 7.65715 9.98137 7.74205 9.96065C8.23391 9.84063 8.63041 9.74389 9.05956 9.74389C9.60198 9.74389 10.0417 10.1836 10.0417 10.726C10.0417 11.2685 9.60198 11.7082 9.05956 11.7082C8.68307 11.7082 8.41725 11.7053 8.21665 11.6401C8.13125 11.6123 8.08555 11.5806 8.05799 11.5522C8.03299 11.5265 7.99529 11.4755 7.96942 11.3615C7.89304 11.0249 7.55823 10.8139 7.22161 10.8903C6.88499 10.9667 6.67403 11.3015 6.75041 11.6381C6.82072 11.948 6.95738 12.2132 7.16137 12.4232C7.36279 12.6305 7.6007 12.7542 7.82998 12.8288C8.23252 12.9597 8.68713 12.9588 9.00025 12.9582L9.05956 12.9582C10.2923 12.9582 11.2917 11.9588 11.2917 10.726C11.2917 9.49325 10.2923 8.49389 9.05956 8.49389C8.73997 8.49389 8.43003 8.53401 8.13609 8.58977L8.26241 7.95817H10.6667C11.0119 7.95817 11.2917 7.67835 11.2917 7.33317C11.2917 6.98799 11.0119 6.70817 10.6667 6.70817H8.09162Z" fill="#1B8354"/>
<path d="M16.7084 8.99984C16.7084 4.74264 13.2572 1.2915 9.00002 1.2915C8.87799 1.2915 8.75667 1.29433 8.63612 1.29993C8.56403 1.30328 8.50017 1.30626 8.44256 1.30935C8.48477 1.36984 8.53298 1.43738 8.5887 1.51539L9.5086 2.80323C9.70923 3.08411 9.64418 3.47445 9.3633 3.67509C9.08242 3.87572 8.69207 3.81066 8.49144 3.52978L7.54788 2.20883C7.39746 1.99841 7.24213 1.78115 7.14662 1.58549C7.03489 1.35661 6.93806 1.02226 7.11224 0.663568C7.28037 0.317372 7.58392 0.179993 7.83705 0.122609C8.0434 0.0758294 8.29895 0.0640979 8.53778 0.0531344L8.57817 0.0512735C8.71802 0.044783 8.85866 0.0415039 9.00002 0.0415039C13.9476 0.0415039 17.9584 4.05229 17.9584 8.99984C17.9584 13.9474 13.9476 17.9582 9.00002 17.9582C4.05247 17.9582 0.041687 13.9474 0.041687 8.99984C0.041687 6.06859 1.45018 3.46614 3.62466 1.83283C3.90065 1.62552 4.29244 1.68121 4.49975 1.9572C4.70705 2.23319 4.65137 2.62498 4.37538 2.83229C2.5017 4.23967 1.29169 6.47835 1.29169 8.99984C1.29169 13.257 4.74282 16.7082 9.00002 16.7082C13.2572 16.7082 16.7084 13.257 16.7084 8.99984Z" stroke="#9DA4AE"/>
<path d="M8.09162 6.70817C7.59507 6.70817 7.16756 7.05865 7.07018 7.54555L6.7205 9.29393C6.67873 9.5028 6.7462 9.71855 6.89953 9.8664C7.05285 10.0143 7.27092 10.0738 7.47813 10.0245C7.56939 10.0028 7.65715 9.98137 7.74205 9.96065C8.23391 9.84063 8.63041 9.74389 9.05956 9.74389C9.60198 9.74389 10.0417 10.1836 10.0417 10.726C10.0417 11.2685 9.60198 11.7082 9.05956 11.7082C8.68307 11.7082 8.41725 11.7053 8.21665 11.6401C8.13125 11.6123 8.08555 11.5806 8.05799 11.5522C8.03299 11.5265 7.99529 11.4755 7.96942 11.3615C7.89304 11.0249 7.55823 10.8139 7.22161 10.8903C6.88499 10.9667 6.67403 11.3015 6.75041 11.6381C6.82072 11.948 6.95738 12.2132 7.16137 12.4232C7.36279 12.6305 7.6007 12.7542 7.82998 12.8288C8.23252 12.9597 8.68713 12.9588 9.00025 12.9582L9.05956 12.9582C10.2923 12.9582 11.2917 11.9588 11.2917 10.726C11.2917 9.49325 10.2923 8.49389 9.05956 8.49389C8.73997 8.49389 8.43003 8.53401 8.13609 8.58977L8.26241 7.95817H10.6667C11.0119 7.95817 11.2917 7.67835 11.2917 7.33317C11.2917 6.98799 11.0119 6.70817 10.6667 6.70817H8.09162Z" stroke="#9DA4AE"/>
</svg>
