<svg width="22" height="22" viewBox="0 0 22 22" fill="none" xmlns="http://www.w3.org/2000/svg">
<path fill-rule="evenodd" clip-rule="evenodd" d="M10.8 6.24988C9.28117 6.24988 8.04996 7.48109 8.04996 8.99988C8.04996 10.5187 9.28117 11.7499 10.8 11.7499C12.3187 11.7499 13.55 10.5187 13.55 8.99988C13.55 7.48109 12.3187 6.24988 10.8 6.24988ZM9.54996 8.99988C9.54996 8.30952 10.1096 7.74988 10.8 7.74988C11.4903 7.74988 12.05 8.30952 12.05 8.99988C12.05 9.69023 11.4903 10.2499 10.8 10.2499C10.1096 10.2499 9.54996 9.69023 9.54996 8.99988Z" fill="#067647"/>
<path d="M7.94913 15.8754C8.51922 14.8899 9.5829 14.2296 10.7999 14.2296C12.017 14.2296 13.0806 14.8899 13.6507 15.8754C13.8581 16.234 14.3169 16.3565 14.6755 16.1491C15.034 15.9417 15.1565 15.4829 14.9491 15.1243C14.122 13.6944 12.5741 12.7296 10.7999 12.7296C9.0258 12.7296 7.4779 13.6944 6.65072 15.1243C6.44332 15.4829 6.56584 15.9417 6.92439 16.1491C7.28293 16.3565 7.74173 16.234 7.94913 15.8754Z" fill="#067647"/>
<path fill-rule="evenodd" clip-rule="evenodd" d="M8.18021 1.12028C7.97265 0.766734 7.51965 0.645369 7.16313 0.84779L3.69903 2.8146C3.52442 2.91374 3.39685 3.07876 3.34489 3.27272C3.29292 3.46667 3.3209 3.67337 3.42256 3.84653C4.56089 5.78545 3.10555 8.28324 0.799805 8.28324C0.385591 8.28324 0.0498047 8.61902 0.0498047 9.03323L0.0498047 12.9669C0.0498047 13.3811 0.385591 13.7169 0.799805 13.7169C3.10497 13.7169 4.55955 16.2141 3.42098 18.1535C3.31932 18.3266 3.29134 18.5333 3.3433 18.7273C3.39527 18.9212 3.52284 19.0863 3.69745 19.1854L7.16155 21.1522C7.51807 21.3546 7.97106 21.2333 8.17863 20.8797C9.35368 18.8782 12.2475 18.8782 13.4226 20.8796C13.6301 21.2332 14.0831 21.3545 14.4396 21.1521L17.9037 19.1853C18.0784 19.0862 18.2059 18.9211 18.2579 18.7272C18.3099 18.5332 18.2819 18.3265 18.1802 18.1534C17.0414 16.2136 18.4952 13.7169 20.7998 13.7169C21.214 13.7169 21.5498 13.3811 21.5498 12.9669V9.03323C21.5498 8.61902 21.214 8.28324 20.7998 8.28324C18.4946 8.28324 17.0401 5.78596 18.1786 3.84662C18.2803 3.67346 18.3083 3.46677 18.2563 3.27281C18.2043 3.07886 18.0768 2.91384 17.9022 2.8147L14.4381 0.847886C14.0815 0.645465 13.6285 0.766829 13.421 1.12038C12.2467 3.12059 9.35456 3.12055 8.18021 1.12028ZM1.5498 9.7219C4.28275 9.26855 6.03428 6.3827 5.04614 3.77467L7.3116 2.48841C9.10596 4.66447 12.4952 4.66458 14.2896 2.4885L16.555 3.77476C15.5669 6.38248 17.3168 9.26855 20.0498 9.72191V12.2782C17.3167 12.7315 15.5685 15.6178 16.5566 18.2252L14.2912 19.5115C12.4961 17.3342 9.10509 17.3343 7.31 19.5116L5.04457 18.2253C6.03271 15.6176 4.28283 12.7315 1.5498 12.2782L1.5498 9.7219Z" fill="#067647"/>
</svg>
