<svg width="18" height="18" viewBox="0 0 18 18" fill="none" xmlns="http://www.w3.org/2000/svg">
<g id="elements">
<g id="Icon">
<path d="M8.33521 5.44722C8.24792 5.21446 8.031 5.05556 7.78276 5.04253C7.53452 5.0295 7.30215 5.16482 7.19098 5.38716L5.69706 8.375H4C3.65482 8.375 3.375 8.65483 3.375 9C3.375 9.34518 3.65482 9.625 4 9.625H6.08333C6.32007 9.625 6.53648 9.49125 6.64235 9.27951L7.66804 7.22812L9.66479 12.5528C9.75208 12.7855 9.969 12.9444 10.2172 12.9575C10.4655 12.9705 10.6978 12.8352 10.809 12.6128L12.3029 9.625H14C14.3452 9.625 14.625 9.34518 14.625 9C14.625 8.65483 14.3452 8.375 14 8.375H11.9167C11.6799 8.375 11.4635 8.50876 11.3576 8.7205L10.332 10.7719L8.33521 5.44722Z" fill="#1B8354"/>
<path fill-rule="evenodd" clip-rule="evenodd" d="M9.04746 0.875H8.95254C7.22501 0.874989 5.86474 0.874979 4.80195 1.01787C3.71147 1.16448 2.84106 1.47175 2.15641 2.15641C1.47175 2.84106 1.16448 3.71147 1.01787 4.80195C0.874979 5.86474 0.874988 7.22501 0.875 8.95255V9.04746C0.874989 10.775 0.874979 12.1353 1.01787 13.198C1.16448 14.2885 1.47175 15.1589 2.15641 15.8436C2.84106 16.5282 3.71147 16.8355 4.80195 16.9821C5.86474 17.125 7.22502 17.125 8.95255 17.125H9.04745C10.775 17.125 12.1353 17.125 13.1981 16.9821C14.2885 16.8355 15.1589 16.5282 15.8436 15.8436C16.5282 15.1589 16.8355 14.2885 16.9821 13.198C17.125 12.1353 17.125 10.775 17.125 9.04745V8.95255C17.125 7.22502 17.125 5.86474 16.9821 4.80195C16.8355 3.71147 16.5282 2.84106 15.8436 2.15641C15.1589 1.47175 14.2885 1.16448 13.198 1.01787C12.1353 0.874979 10.775 0.874988 9.04746 0.875ZM3.04029 3.04029C3.45399 2.6266 4.01664 2.3847 4.96851 2.25672C5.93836 2.12633 7.21456 2.125 9 2.125C10.7854 2.125 12.0616 2.12633 13.0315 2.25672C13.9834 2.3847 14.546 2.6266 14.9597 3.04029C15.3734 3.45399 15.6153 4.01664 15.7433 4.96851C15.8737 5.93836 15.875 7.21456 15.875 9C15.875 10.7854 15.8737 12.0616 15.7433 13.0315C15.6153 13.9834 15.3734 14.546 14.9597 14.9597C14.546 15.3734 13.9834 15.6153 13.0315 15.7433C12.0616 15.8737 10.7854 15.875 9 15.875C7.21457 15.875 5.93836 15.8737 4.96851 15.7433C4.01664 15.6153 3.45399 15.3734 3.04029 14.9597C2.6266 14.546 2.3847 13.9834 2.25672 13.0315C2.12633 12.0616 2.125 10.7854 2.125 9C2.125 7.21457 2.12633 5.93836 2.25672 4.96851C2.3847 4.01664 2.6266 3.45399 3.04029 3.04029Z" fill="#1B8354"/>
<path d="M8.33521 5.44722C8.24792 5.21446 8.031 5.05556 7.78276 5.04253C7.53452 5.0295 7.30215 5.16482 7.19098 5.38716L5.69706 8.375H4C3.65482 8.375 3.375 8.65483 3.375 9C3.375 9.34518 3.65482 9.625 4 9.625H6.08333C6.32007 9.625 6.53648 9.49125 6.64235 9.27951L7.66804 7.22812L9.66479 12.5528C9.75208 12.7855 9.969 12.9444 10.2172 12.9575C10.4655 12.9705 10.6978 12.8352 10.809 12.6128L12.3029 9.625H14C14.3452 9.625 14.625 9.34518 14.625 9C14.625 8.65483 14.3452 8.375 14 8.375H11.9167C11.6799 8.375 11.4635 8.50876 11.3576 8.7205L10.332 10.7719L8.33521 5.44722Z" stroke="#9DA4AE"/>
<path fill-rule="evenodd" clip-rule="evenodd" d="M9.04746 0.875H8.95254C7.22501 0.874989 5.86474 0.874979 4.80195 1.01787C3.71147 1.16448 2.84106 1.47175 2.15641 2.15641C1.47175 2.84106 1.16448 3.71147 1.01787 4.80195C0.874979 5.86474 0.874988 7.22501 0.875 8.95255V9.04746C0.874989 10.775 0.874979 12.1353 1.01787 13.198C1.16448 14.2885 1.47175 15.1589 2.15641 15.8436C2.84106 16.5282 3.71147 16.8355 4.80195 16.9821C5.86474 17.125 7.22502 17.125 8.95255 17.125H9.04745C10.775 17.125 12.1353 17.125 13.1981 16.9821C14.2885 16.8355 15.1589 16.5282 15.8436 15.8436C16.5282 15.1589 16.8355 14.2885 16.9821 13.198C17.125 12.1353 17.125 10.775 17.125 9.04745V8.95255C17.125 7.22502 17.125 5.86474 16.9821 4.80195C16.8355 3.71147 16.5282 2.84106 15.8436 2.15641C15.1589 1.47175 14.2885 1.16448 13.198 1.01787C12.1353 0.874979 10.775 0.874988 9.04746 0.875ZM3.04029 3.04029C3.45399 2.6266 4.01664 2.3847 4.96851 2.25672C5.93836 2.12633 7.21456 2.125 9 2.125C10.7854 2.125 12.0616 2.12633 13.0315 2.25672C13.9834 2.3847 14.546 2.6266 14.9597 3.04029C15.3734 3.45399 15.6153 4.01664 15.7433 4.96851C15.8737 5.93836 15.875 7.21456 15.875 9C15.875 10.7854 15.8737 12.0616 15.7433 13.0315C15.6153 13.9834 15.3734 14.546 14.9597 14.9597C14.546 15.3734 13.9834 15.6153 13.0315 15.7433C12.0616 15.8737 10.7854 15.875 9 15.875C7.21457 15.875 5.93836 15.8737 4.96851 15.7433C4.01664 15.6153 3.45399 15.3734 3.04029 14.9597C2.6266 14.546 2.3847 13.9834 2.25672 13.0315C2.12633 12.0616 2.125 10.7854 2.125 9C2.125 7.21457 2.12633 5.93836 2.25672 4.96851C2.3847 4.01664 2.6266 3.45399 3.04029 3.04029Z" stroke="#9DA4AE"/>
</g>
</g>
</svg>
