<svg width="19" height="18" viewBox="0 0 19 18" fill="none" xmlns="http://www.w3.org/2000/svg">
<path fill-rule="evenodd" clip-rule="evenodd" d="M3.87435 4.83333C3.87435 2.64721 5.64655 0.875 7.83268 0.875C10.0188 0.875 11.791 2.64721 11.791 4.83333C11.791 7.01946 10.0188 8.79167 7.83268 8.79167C5.64655 8.79167 3.87435 7.01946 3.87435 4.83333ZM7.83268 2.125C6.33691 2.125 5.12435 3.33756 5.12435 4.83333C5.12435 6.3291 6.33691 7.54167 7.83268 7.54167C9.32845 7.54167 10.541 6.3291 10.541 4.83333C10.541 3.33756 9.32845 2.125 7.83268 2.125Z" fill="#161616"/>
<path fill-rule="evenodd" clip-rule="evenodd" d="M3.50018 11.2078C6.15284 9.65296 9.51284 9.65296 12.1655 11.2078C12.2495 11.257 12.3541 11.3151 12.4731 11.3812C13.0003 11.6738 13.8103 12.1234 14.3648 12.6577C14.711 12.9913 15.0523 13.4419 15.1146 14.0031C15.1814 14.6044 14.9128 15.1592 14.3992 15.6409C13.5241 16.4615 12.4675 17.125 11.0989 17.125H4.56682C3.1982 17.125 2.1416 16.4615 1.26653 15.6409C0.752931 15.1592 0.484307 14.6044 0.551076 14.0031C0.613386 13.4419 0.954683 12.9913 1.30092 12.6577C1.85541 12.1234 2.66534 11.6738 3.19254 11.3812C3.31143 11.3152 3.41625 11.257 3.50018 11.2078ZM11.5334 12.2862C9.27109 10.9602 6.3946 10.9602 4.13228 12.2862C4.00523 12.3607 3.867 12.4379 3.72293 12.5184C3.19589 12.8128 2.59055 13.1509 2.16823 13.5579C1.90574 13.8108 1.80839 14.0064 1.79344 14.141C1.78295 14.2355 1.79844 14.426 2.12161 14.7291C2.88158 15.4418 3.64599 15.875 4.56682 15.875H11.0989C12.0197 15.875 12.7841 15.4418 13.5441 14.7291C13.8672 14.426 13.8827 14.2355 13.8722 14.141C13.8573 14.0064 13.7599 13.8108 13.4974 13.5579C13.0751 13.1509 12.4699 12.8128 11.9429 12.5184C11.7988 12.4379 11.6605 12.3607 11.5334 12.2862Z" fill="#161616"/>
<path d="M16.3743 2.33333C16.3743 1.98816 16.0945 1.70833 15.7493 1.70833C15.4042 1.70833 15.1243 1.98816 15.1243 2.33333V3.79167H13.666C13.3208 3.79167 13.041 4.07149 13.041 4.41667C13.041 4.76184 13.3208 5.04167 13.666 5.04167H15.1243V6.5C15.1243 6.84518 15.4042 7.125 15.7493 7.125C16.0945 7.125 16.3743 6.84518 16.3743 6.5V5.04167H17.8327C18.1779 5.04167 18.4577 4.76184 18.4577 4.41667C18.4577 4.07149 18.1779 3.79167 17.8327 3.79167H16.3743V2.33333Z" fill="#161616"/>
</svg>
