<svg width="18" height="18" viewBox="0 0 18 18" fill="none" xmlns="http://www.w3.org/2000/svg">
<path d="M9.62435 5.66663C9.62435 5.32145 9.34453 5.04163 8.99935 5.04163C8.65417 5.04163 8.37435 5.32145 8.37435 5.66663V8.37496H5.66602C5.32084 8.37496 5.04102 8.65478 5.04102 8.99996C5.04102 9.34514 5.32084 9.62496 5.66602 9.62496H8.37435V12.3333C8.37435 12.6785 8.65417 12.9583 8.99935 12.9583C9.34453 12.9583 9.62435 12.6785 9.62435 12.3333V9.62496H12.3327C12.6779 9.62496 12.9577 9.34514 12.9577 8.99996C12.9577 8.65478 12.6779 8.37496 12.3327 8.37496H9.62435V5.66663Z" fill="#161616"/>
<path fill-rule="evenodd" clip-rule="evenodd" d="M8.99935 17.9583C4.0518 17.9583 0.0410156 13.9475 0.0410156 8.99996C0.0410156 4.05241 4.0518 0.041626 8.99935 0.041626C13.9469 0.041626 17.9577 4.05241 17.9577 8.99996C17.9577 13.9475 13.9469 17.9583 8.99935 17.9583ZM1.29102 8.99996C1.29102 13.2572 4.74215 16.7083 8.99935 16.7083C13.2565 16.7083 16.7077 13.2572 16.7077 8.99996C16.7077 4.74276 13.2565 1.29163 8.99935 1.29163C4.74215 1.29163 1.29102 4.74276 1.29102 8.99996Z" fill="#161616"/>
</svg>
