<svg width="20" height="20" viewBox="0 0 20 20" fill="none" xmlns="http://www.w3.org/2000/svg">
<path fill-rule="evenodd" clip-rule="evenodd" d="M3.12502 9.99012C3.125 10.0774 3.125 10.1664 3.125 10.2572L3.125 12.4049C3.125 13.7146 3.12598 14.6431 3.20912 15.3585C3.29062 16.0598 3.44418 16.4796 3.6979 16.8025C3.86301 17.0127 4.0596 17.2003 4.28218 17.3591C4.50864 17.5206 4.77905 17.6395 5.1426 17.7247C5.47867 17.8035 5.68727 18.1398 5.60851 18.4758C5.52976 18.8119 5.19347 19.0205 4.8574 18.9417C4.3703 18.8276 3.94163 18.6516 3.55627 18.3767C3.2381 18.1497 2.95462 17.8798 2.71493 17.5747C2.26224 16.9985 2.06259 16.3212 1.96748 15.5028C1.87498 14.7069 1.87499 13.7057 1.875 12.4445V10.2347C1.875 10.1566 1.875 10.0797 1.87501 10.0038C1.875 10.0025 1.875 10.0012 1.875 9.99984C1.875 9.99644 1.87501 9.99305 1.87502 9.98966C1.87523 8.87593 1.87838 7.99744 1.92517 7.27916C1.976 6.49887 2.08019 5.86486 2.30878 5.28086C3.00579 3.50011 4.47485 2.10678 6.32266 1.45004C7.38317 1.07311 8.66565 1.04384 10.7954 1.04171C10.8081 1.04157 10.8207 1.0415 10.8333 1.0415C10.8381 1.0415 10.8429 1.04156 10.8476 1.04166C11.0113 1.04153 11.1799 1.04155 11.3538 1.04156L11.6583 1.04155C13.0199 1.04126 13.8704 1.04108 14.572 1.29045C15.6979 1.69063 16.5976 2.54137 17.0254 3.63425C17.1702 4.00431 17.2325 4.39742 17.2624 4.85635C17.2917 5.3052 17.2917 5.85788 17.2917 6.55385L17.2917 10.8332C17.2917 11.1784 17.0118 11.4582 16.6667 11.4582C16.3215 11.4582 16.0417 11.1784 16.0417 10.8332L16.0417 6.5755C16.0417 5.85305 16.0414 5.34106 16.0151 4.93761C15.9892 4.53961 15.9398 4.29031 15.8614 4.08986C15.5711 3.34842 14.9524 2.75226 14.1534 2.46827C13.6819 2.30069 13.0678 2.29157 11.5152 2.29157C11.2573 2.29157 11.0134 2.29165 10.7822 2.2921C9.61689 2.31925 8.68056 3.27242 8.68056 4.44428C8.68056 4.56689 8.68595 4.69871 8.69282 4.8467L8.69538 4.90155C8.70145 5.03065 8.70805 5.17113 8.71096 5.31125C8.71754 5.628 8.70754 5.99761 8.61193 6.3544C8.42572 7.04938 7.88288 7.59222 7.1879 7.77844C6.83111 7.87404 6.46149 7.88404 6.14475 7.87746C6.00465 7.87456 5.86419 7.86795 5.73511 7.86189L5.6802 7.85932C5.5322 7.85245 5.40039 7.84706 5.27778 7.84706C4.09207 7.84706 3.13026 8.80564 3.12502 9.99012ZM8.14355 2.35981C7.56711 2.40773 7.13125 2.48926 6.74128 2.62786C5.22038 3.16841 4.03224 4.30716 3.47279 5.73647C3.31331 6.14391 3.22247 6.62464 3.17492 7.32442C3.75374 6.86884 4.48402 6.59706 5.27778 6.59706C5.43258 6.59706 5.59058 6.60382 5.73813 6.61066L5.79469 6.6133C5.92525 6.61943 6.04816 6.62519 6.1707 6.62773C6.45457 6.63363 6.68173 6.61997 6.86438 6.57103C7.12799 6.5004 7.33389 6.29449 7.40453 6.03088C7.45347 5.84823 7.46713 5.62107 7.46123 5.3372C7.45869 5.21468 7.45293 5.09179 7.4468 4.96124L7.44416 4.90463C7.43731 4.75709 7.43056 4.59908 7.43056 4.44428C7.43056 3.6589 7.69663 2.93567 8.14355 2.35981Z" fill="#1B8354"/>
<path fill-rule="evenodd" clip-rule="evenodd" d="M13.1818 11.9444C13.3076 12.3518 13.2517 12.822 13.0953 13.3112C12.6777 14.6173 11.9728 15.6896 11.2119 16.531C11.456 16.5434 11.7085 16.512 11.9672 16.4444C12.5516 16.2915 13.1332 15.9596 13.6223 15.5832L13.6442 15.5664C13.787 15.4564 13.9308 15.3457 14.0519 15.2709C14.1166 15.231 14.2102 15.1785 14.3211 15.1453C14.4372 15.1106 14.6203 15.0832 14.8194 15.1631C15.0188 15.2432 15.1299 15.3903 15.1843 15.4782C15.2409 15.5694 15.2783 15.6653 15.3041 15.7398C15.3534 15.882 15.4015 16.0715 15.4525 16.2731L15.4589 16.2982C15.5372 16.6075 15.6507 16.8874 15.7825 17.1044C15.9184 17.328 16.0478 17.4428 16.1383 17.4885C16.2002 17.5198 16.2566 17.5299 16.3574 17.4823C16.4885 17.4203 16.7051 17.2489 16.9769 16.8332C17.1658 16.5443 17.5531 16.4632 17.842 16.6521C18.1309 16.8411 18.212 17.2284 18.0231 17.5173C17.6872 18.031 17.3144 18.4124 16.8918 18.6123C16.4388 18.8265 15.9773 18.8076 15.5747 18.6042C15.2006 18.4153 14.9188 18.09 14.7143 17.7535C14.5162 17.4275 14.3654 17.0499 14.2629 16.6656C13.7106 17.0728 13.0256 17.4596 12.2835 17.6537C11.6059 17.8309 10.8586 17.8515 10.135 17.5572C9.64472 17.9601 9.16858 18.2744 8.76162 18.5001C8.51406 18.6374 8.28562 18.7456 8.08951 18.8213C7.91793 18.8876 7.69933 18.9582 7.5 18.9582C7.15482 18.9582 6.875 18.6784 6.875 18.3332C6.875 17.9943 7.14467 17.7185 7.4811 17.7085L7.47868 17.7083C7.47868 17.7083 7.52681 17.6986 7.63919 17.6552C7.77075 17.6044 7.94658 17.5228 8.1553 17.407C8.41817 17.2612 8.72297 17.067 9.04534 16.8244C8.91552 16.6954 8.79057 16.5531 8.67084 16.3971C7.9579 15.468 7.96056 14.4612 8.3331 13.6046C8.69074 12.7821 9.38172 12.098 10.0809 11.6526C10.4347 11.4271 10.8109 11.2497 11.1762 11.1455C11.5314 11.0441 11.93 10.9969 12.2989 11.0968C12.7048 11.2069 13.0417 11.4906 13.1818 11.9444ZM9.99216 16.0007C9.88182 15.8987 9.77153 15.7782 9.66249 15.6361C9.26432 15.1172 9.26166 14.6038 9.4794 14.103C9.71204 13.5681 10.2016 13.0578 10.7525 12.7068C11.0236 12.5341 11.2898 12.4129 11.5192 12.3475C11.7585 12.2792 11.9068 12.2857 11.9719 12.3033C11.9859 12.3071 11.9891 12.3074 11.9891 12.3074C11.9891 12.3074 11.9859 12.3082 11.9875 12.3132C12.0049 12.3696 12.0261 12.5509 11.9047 12.9305C11.4994 14.1981 10.7681 15.2229 9.99216 16.0007Z" fill="#1B8354"/>
<path fill-rule="evenodd" clip-rule="evenodd" d="M3.12502 9.99012C3.125 10.0774 3.125 10.1664 3.125 10.2572L3.125 12.4049C3.125 13.7146 3.12598 14.6431 3.20912 15.3585C3.29062 16.0598 3.44418 16.4796 3.6979 16.8025C3.86301 17.0127 4.0596 17.2003 4.28218 17.3591C4.50864 17.5206 4.77905 17.6395 5.1426 17.7247C5.47867 17.8035 5.68727 18.1398 5.60851 18.4758C5.52976 18.8119 5.19347 19.0205 4.8574 18.9417C4.3703 18.8276 3.94163 18.6516 3.55627 18.3767C3.2381 18.1497 2.95462 17.8798 2.71493 17.5747C2.26224 16.9985 2.06259 16.3212 1.96748 15.5028C1.87498 14.7069 1.87499 13.7057 1.875 12.4445V10.2347C1.875 10.1566 1.875 10.0797 1.87501 10.0038C1.875 10.0025 1.875 10.0012 1.875 9.99984C1.875 9.99644 1.87501 9.99305 1.87502 9.98966C1.87523 8.87593 1.87838 7.99744 1.92517 7.27916C1.976 6.49887 2.08019 5.86486 2.30878 5.28086C3.00579 3.50011 4.47485 2.10678 6.32266 1.45004C7.38317 1.07311 8.66565 1.04384 10.7954 1.04171C10.8081 1.04157 10.8207 1.0415 10.8333 1.0415C10.8381 1.0415 10.8429 1.04156 10.8476 1.04166C11.0113 1.04153 11.1799 1.04155 11.3538 1.04156L11.6583 1.04155C13.0199 1.04126 13.8704 1.04108 14.572 1.29045C15.6979 1.69063 16.5976 2.54137 17.0254 3.63425C17.1702 4.00431 17.2325 4.39742 17.2624 4.85635C17.2917 5.3052 17.2917 5.85788 17.2917 6.55385L17.2917 10.8332C17.2917 11.1784 17.0118 11.4582 16.6667 11.4582C16.3215 11.4582 16.0417 11.1784 16.0417 10.8332L16.0417 6.5755C16.0417 5.85305 16.0414 5.34106 16.0151 4.93761C15.9892 4.53961 15.9398 4.29031 15.8614 4.08986C15.5711 3.34842 14.9524 2.75226 14.1534 2.46827C13.6819 2.30069 13.0678 2.29157 11.5152 2.29157C11.2573 2.29157 11.0134 2.29165 10.7822 2.2921C9.61689 2.31925 8.68056 3.27242 8.68056 4.44428C8.68056 4.56689 8.68595 4.69871 8.69282 4.8467L8.69538 4.90155C8.70145 5.03065 8.70805 5.17113 8.71096 5.31125C8.71754 5.628 8.70754 5.99761 8.61193 6.3544C8.42572 7.04938 7.88288 7.59222 7.1879 7.77844C6.83111 7.87404 6.46149 7.88404 6.14475 7.87746C6.00465 7.87456 5.86419 7.86795 5.73511 7.86189L5.6802 7.85932C5.5322 7.85245 5.40039 7.84706 5.27778 7.84706C4.09207 7.84706 3.13026 8.80564 3.12502 9.99012ZM8.14355 2.35981C7.56711 2.40773 7.13125 2.48926 6.74128 2.62786C5.22038 3.16841 4.03224 4.30716 3.47279 5.73647C3.31331 6.14391 3.22247 6.62464 3.17492 7.32442C3.75374 6.86884 4.48402 6.59706 5.27778 6.59706C5.43258 6.59706 5.59058 6.60382 5.73813 6.61066L5.79469 6.6133C5.92525 6.61943 6.04816 6.62519 6.1707 6.62773C6.45457 6.63363 6.68173 6.61997 6.86438 6.57103C7.12799 6.5004 7.33389 6.29449 7.40453 6.03088C7.45347 5.84823 7.46713 5.62107 7.46123 5.3372C7.45869 5.21468 7.45293 5.09179 7.4468 4.96124L7.44416 4.90463C7.43731 4.75709 7.43056 4.59908 7.43056 4.44428C7.43056 3.6589 7.69663 2.93567 8.14355 2.35981Z" stroke="#9DA4AE"/>
<path fill-rule="evenodd" clip-rule="evenodd" d="M13.1818 11.9444C13.3076 12.3518 13.2517 12.822 13.0953 13.3112C12.6777 14.6173 11.9728 15.6896 11.2119 16.531C11.456 16.5434 11.7085 16.512 11.9672 16.4444C12.5516 16.2915 13.1332 15.9596 13.6223 15.5832L13.6442 15.5664C13.787 15.4564 13.9308 15.3457 14.0519 15.2709C14.1166 15.231 14.2102 15.1785 14.3211 15.1453C14.4372 15.1106 14.6203 15.0832 14.8194 15.1631C15.0188 15.2432 15.1299 15.3903 15.1843 15.4782C15.2409 15.5694 15.2783 15.6653 15.3041 15.7398C15.3534 15.882 15.4015 16.0715 15.4525 16.2731L15.4589 16.2982C15.5372 16.6075 15.6507 16.8874 15.7825 17.1044C15.9184 17.328 16.0478 17.4428 16.1383 17.4885C16.2002 17.5198 16.2566 17.5299 16.3574 17.4823C16.4885 17.4203 16.7051 17.2489 16.9769 16.8332C17.1658 16.5443 17.5531 16.4632 17.842 16.6521C18.1309 16.8411 18.212 17.2284 18.0231 17.5173C17.6872 18.031 17.3144 18.4124 16.8918 18.6123C16.4388 18.8265 15.9773 18.8076 15.5747 18.6042C15.2006 18.4153 14.9188 18.09 14.7143 17.7535C14.5162 17.4275 14.3654 17.0499 14.2629 16.6656C13.7106 17.0728 13.0256 17.4596 12.2835 17.6537C11.6059 17.8309 10.8586 17.8515 10.135 17.5572C9.64472 17.9601 9.16858 18.2744 8.76162 18.5001C8.51406 18.6374 8.28562 18.7456 8.08951 18.8213C7.91793 18.8876 7.69933 18.9582 7.5 18.9582C7.15482 18.9582 6.875 18.6784 6.875 18.3332C6.875 17.9943 7.14467 17.7185 7.4811 17.7085L7.47868 17.7083C7.47868 17.7083 7.52681 17.6986 7.63919 17.6552C7.77075 17.6044 7.94658 17.5228 8.1553 17.407C8.41817 17.2612 8.72297 17.067 9.04534 16.8244C8.91552 16.6954 8.79057 16.5531 8.67084 16.3971C7.9579 15.468 7.96056 14.4612 8.3331 13.6046C8.69074 12.7821 9.38172 12.098 10.0809 11.6526C10.4347 11.4271 10.8109 11.2497 11.1762 11.1455C11.5314 11.0441 11.93 10.9969 12.2989 11.0968C12.7048 11.2069 13.0417 11.4906 13.1818 11.9444ZM9.99216 16.0007C9.88182 15.8987 9.77153 15.7782 9.66249 15.6361C9.26432 15.1172 9.26166 14.6038 9.4794 14.103C9.71204 13.5681 10.2016 13.0578 10.7525 12.7068C11.0236 12.5341 11.2898 12.4129 11.5192 12.3475C11.7585 12.2792 11.9068 12.2857 11.9719 12.3033C11.9859 12.3071 11.9891 12.3074 11.9891 12.3074C11.9891 12.3074 11.9859 12.3082 11.9875 12.3132C12.0049 12.3696 12.0261 12.5509 11.9047 12.9305C11.4994 14.1981 10.7681 15.2229 9.99216 16.0007Z" stroke="#9DA4AE"/>
</svg>
