<svg width="20" height="20" viewBox="0 0 20 20" fill="none" xmlns="http://www.w3.org/2000/svg">
<path d="M17.3687 13.9576H18.3304C18.6754 13.9576 18.9554 13.6776 18.9554 13.3326C18.9554 12.9876 18.6754 12.7076 18.3304 12.7076H17.3654C16.2787 12.7076 15.8246 12.7009 15.4854 12.5217C15.1206 12.3293 14.7899 11.8821 14.1305 10.9905L12.1947 8.37634C11.9539 8.05102 11.3934 7.29402 10.4571 7.59671C10.0371 7.73255 9.68374 8.03256 9.37291 8.29672L9.35025 8.31595C9.25447 8.39722 9.16397 8.47401 9.08207 8.53505C8.84291 8.71421 8.54208 8.67756 8.33374 8.44256C8.05041 8.12339 8.05041 7.58421 8.33374 7.26505L9.55541 5.89005C9.97291 5.42005 10.3329 5.01506 10.8162 4.88173C11.2904 4.75173 11.9154 4.78921 12.4671 4.82338L12.5504 4.82838C12.9496 4.85255 13.3354 5.03423 13.6379 5.34089C14.3129 6.02173 15.0946 6.65173 16.2346 6.65173L18.3321 6.65173C18.6771 6.65173 18.9571 6.37173 18.9571 6.02673C18.9571 5.68173 18.6771 5.40173 18.3321 5.40173L16.2346 5.40173C15.5887 5.40173 15.1021 5.04172 14.5271 4.46172C14.0087 3.93672 13.3346 3.62338 12.6279 3.58005L12.5409 3.57477C11.8936 3.53567 11.1597 3.49133 10.4871 3.6759C10.0727 3.78988 9.73597 3.9904 9.44062 4.23234C9.42936 4.22685 9.41788 4.22165 9.40616 4.21678L8.24532 3.73427C7.16865 3.28677 5.96616 3.6301 5.18199 4.6076C4.87199 4.99427 4.47116 5.2076 4.05449 5.2076L1.66699 5.2076C1.32199 5.2076 1.04199 5.4876 1.04199 5.8326C1.04199 6.1776 1.32199 6.4576 1.66699 6.4576L4.05449 6.4576C4.84616 6.4576 5.61199 6.06843 6.15699 5.3901C6.59116 4.84843 7.20782 4.65676 7.76615 4.88843L8.50278 5.19461L7.40207 6.43422C6.6954 7.22922 6.6954 8.47589 7.40207 9.27172C8.0479 9.99839 9.07124 10.1075 9.83541 9.53338C9.95291 9.44505 10.0712 9.34505 10.1846 9.24838C10.4071 9.05922 10.6596 8.84505 10.8446 8.78505C10.8654 8.77838 10.8754 8.77756 10.8754 8.77756C10.9137 8.78923 10.9996 8.85755 11.1937 9.12088L13.1342 11.7411C13.2726 11.928 13.3995 12.0995 13.5184 12.2567L12.4087 13.3301C11.177 14.5209 10.5578 15.1184 9.91033 15.1959C9.88161 15.1992 9.85288 15.2017 9.82415 15.2041L9.82283 15.2043C9.17322 15.2509 8.44372 14.7807 6.98717 13.8418L6.97933 13.8368C6.16009 13.3089 5.70753 13.0173 5.16783 12.8543L5.09282 12.8318C4.55366 12.6801 4.04033 12.6801 3.01783 12.6801H1.66699C1.32199 12.6801 1.04199 12.9601 1.04199 13.3051C1.04199 13.6501 1.32199 13.9301 1.66699 13.9301H3.01783C3.92115 13.9301 4.37616 13.9301 4.74949 14.0334L4.80949 14.0518C5.17785 14.1632 5.55451 14.4057 6.30704 14.8902L6.3148 14.8952C7.8512 15.8857 8.73819 16.4574 9.72577 16.4576C9.78729 16.4576 9.84964 16.4559 9.91199 16.4501H9.92616L9.92625 16.4501C9.97262 16.4459 10.0198 16.4417 10.062 16.4368C11.1237 16.3101 11.8887 15.5709 13.282 14.2243L14.3306 13.21C14.5127 13.3809 14.6974 13.5169 14.9054 13.6267C15.5321 13.9576 16.1846 13.9576 17.3687 13.9576Z" fill="#1B8354"/>
<path d="M17.3687 13.9576H18.3304C18.6754 13.9576 18.9554 13.6776 18.9554 13.3326C18.9554 12.9876 18.6754 12.7076 18.3304 12.7076H17.3654C16.2787 12.7076 15.8246 12.7009 15.4854 12.5217C15.1206 12.3293 14.7899 11.8821 14.1305 10.9905L12.1947 8.37634C11.9539 8.05102 11.3934 7.29402 10.4571 7.59671C10.0371 7.73255 9.68374 8.03256 9.37291 8.29672L9.35025 8.31595C9.25447 8.39722 9.16397 8.47401 9.08207 8.53505C8.84291 8.71421 8.54208 8.67756 8.33374 8.44256C8.05041 8.12339 8.05041 7.58421 8.33374 7.26505L9.55541 5.89005C9.97291 5.42005 10.3329 5.01506 10.8162 4.88173C11.2904 4.75173 11.9154 4.78921 12.4671 4.82338L12.5504 4.82838C12.9496 4.85255 13.3354 5.03423 13.6379 5.34089C14.3129 6.02173 15.0946 6.65173 16.2346 6.65173L18.3321 6.65173C18.6771 6.65173 18.9571 6.37173 18.9571 6.02673C18.9571 5.68173 18.6771 5.40173 18.3321 5.40173L16.2346 5.40173C15.5887 5.40173 15.1021 5.04172 14.5271 4.46172C14.0087 3.93672 13.3346 3.62338 12.6279 3.58005L12.5409 3.57477C11.8936 3.53567 11.1597 3.49133 10.4871 3.6759C10.0727 3.78988 9.73597 3.9904 9.44062 4.23234C9.42936 4.22685 9.41788 4.22165 9.40616 4.21678L8.24532 3.73427C7.16865 3.28677 5.96616 3.6301 5.18199 4.6076C4.87199 4.99427 4.47116 5.2076 4.05449 5.2076L1.66699 5.2076C1.32199 5.2076 1.04199 5.4876 1.04199 5.8326C1.04199 6.1776 1.32199 6.4576 1.66699 6.4576L4.05449 6.4576C4.84616 6.4576 5.61199 6.06843 6.15699 5.3901C6.59116 4.84843 7.20782 4.65676 7.76615 4.88843L8.50278 5.19461L7.40207 6.43422C6.6954 7.22922 6.6954 8.47589 7.40207 9.27172C8.0479 9.99839 9.07124 10.1075 9.83541 9.53338C9.95291 9.44505 10.0712 9.34505 10.1846 9.24838C10.4071 9.05922 10.6596 8.84505 10.8446 8.78505C10.8654 8.77838 10.8754 8.77756 10.8754 8.77756C10.9137 8.78923 10.9996 8.85755 11.1937 9.12088L13.1342 11.7411C13.2726 11.928 13.3995 12.0995 13.5184 12.2567L12.4087 13.3301C11.177 14.5209 10.5578 15.1184 9.91033 15.1959C9.88161 15.1992 9.85288 15.2017 9.82415 15.2041L9.82283 15.2043C9.17322 15.2509 8.44372 14.7807 6.98717 13.8418L6.97933 13.8368C6.16009 13.3089 5.70753 13.0173 5.16783 12.8543L5.09282 12.8318C4.55366 12.6801 4.04033 12.6801 3.01783 12.6801H1.66699C1.32199 12.6801 1.04199 12.9601 1.04199 13.3051C1.04199 13.6501 1.32199 13.9301 1.66699 13.9301H3.01783C3.92115 13.9301 4.37616 13.9301 4.74949 14.0334L4.80949 14.0518C5.17785 14.1632 5.55451 14.4057 6.30704 14.8902L6.3148 14.8952C7.8512 15.8857 8.73819 16.4574 9.72577 16.4576C9.78729 16.4576 9.84964 16.4559 9.91199 16.4501H9.92616L9.92625 16.4501C9.97262 16.4459 10.0198 16.4417 10.062 16.4368C11.1237 16.3101 11.8887 15.5709 13.282 14.2243L14.3306 13.21C14.5127 13.3809 14.6974 13.5169 14.9054 13.6267C15.5321 13.9576 16.1846 13.9576 17.3687 13.9576Z" stroke="#9DA4AE"/>
</svg>
