<svg width="20" height="16" viewBox="0 0 20 16" fill="none" xmlns="http://www.w3.org/2000/svg">
<path fill-rule="evenodd" clip-rule="evenodd" d="M9.99967 0.708496C8.04367 0.708496 6.45801 2.29415 6.45801 4.25016C6.45801 6.20617 8.04367 7.79183 9.99967 7.79183C11.9557 7.79183 13.5413 6.20617 13.5413 4.25016C13.5413 2.29415 11.9557 0.708496 9.99967 0.708496ZM7.70801 4.25016C7.70801 2.98451 8.73402 1.9585 9.99967 1.9585C11.2653 1.9585 12.2913 2.98451 12.2913 4.25016C12.2913 5.51582 11.2653 6.54183 9.99967 6.54183C8.73402 6.54183 7.70801 5.51582 7.70801 4.25016Z" fill="#1B8354"/>
<path d="M4.58304 2.37516C3.08727 2.37516 1.87471 3.58772 1.87471 5.0835C1.87471 6.57927 3.08727 7.79183 4.58304 7.79183C4.92822 7.79183 5.20804 7.51201 5.20804 7.16683C5.20804 6.82165 4.92822 6.54183 4.58304 6.54183C3.77763 6.54183 3.12471 5.88891 3.12471 5.0835C3.12471 4.27808 3.77763 3.62516 4.58304 3.62516C4.92822 3.62516 5.20804 3.34534 5.20804 3.00016C5.20804 2.65498 4.92822 2.37516 4.58304 2.37516Z" fill="#1B8354"/>
<path d="M4.78884 8.77718C4.75773 8.43341 4.45384 8.17994 4.11006 8.21104C3.32796 8.28179 2.5675 8.58268 1.89726 9.0988C1.85864 9.12854 1.80777 9.16555 1.74799 9.20904C1.46409 9.41558 0.979337 9.76823 0.652661 10.1818C0.443926 10.446 0.248726 10.7918 0.213582 11.2076C0.176777 11.643 0.322757 12.0661 0.635721 12.4517C1.11477 13.0419 1.7721 13.6252 2.68801 13.6252C3.03319 13.6252 3.31301 13.3453 3.31301 13.0002C3.31301 12.655 3.03319 12.3752 2.68801 12.3752C2.35508 12.3752 2.0191 12.1726 1.60628 11.6639C1.4628 11.4871 1.4538 11.376 1.45914 11.3129C1.46614 11.23 1.51021 11.1127 1.63352 10.9566C1.84123 10.6937 2.13238 10.4797 2.41539 10.2717C2.49836 10.2107 2.58064 10.1502 2.65991 10.0892C3.15188 9.71034 3.6891 9.50423 4.22269 9.45595C4.56646 9.42485 4.81994 9.12096 4.78884 8.77718Z" fill="#1B8354"/>
<path d="M14.9997 2.37516C14.6545 2.37516 14.3747 2.65498 14.3747 3.00016C14.3747 3.34534 14.6545 3.62516 14.9997 3.62516C15.8051 3.62516 16.458 4.27808 16.458 5.0835C16.458 5.88891 15.8051 6.54183 14.9997 6.54183C14.6545 6.54183 14.3747 6.82165 14.3747 7.16683C14.3747 7.51201 14.6545 7.79183 14.9997 7.79183C16.4954 7.79183 17.708 6.57927 17.708 5.0835C17.708 3.58772 16.4954 2.37516 14.9997 2.37516Z" fill="#1B8354"/>
<path d="M15.8893 8.21104C15.5455 8.17994 15.2417 8.43341 15.2106 8.77718C15.1794 9.12096 15.4329 9.42485 15.7767 9.45595C16.3103 9.50423 16.8475 9.71034 17.3395 10.0892C17.4187 10.1502 17.501 10.2107 17.5839 10.2717C17.8669 10.4797 18.1582 10.6937 18.3659 10.9566C18.4892 11.1127 18.5332 11.23 18.5402 11.3129C18.5456 11.376 18.5366 11.4871 18.3931 11.6639C17.9803 12.1726 17.6443 12.3752 17.3114 12.3752C16.9662 12.3752 16.6864 12.655 16.6864 13.0002C16.6864 13.3453 16.9662 13.6252 17.3114 13.6252C18.2273 13.6252 18.8846 13.0419 19.3637 12.4517C19.6766 12.0661 19.8226 11.643 19.7858 11.2076C19.7507 10.7918 19.5555 10.446 19.3467 10.1818C19.02 9.76823 18.5354 9.41564 18.2515 9.2091C18.1917 9.16562 18.1407 9.12854 18.1021 9.0988C17.4319 8.58268 16.6714 8.28179 15.8893 8.21104Z" fill="#1B8354"/>
<path fill-rule="evenodd" clip-rule="evenodd" d="M6.4076 10.0612C8.60575 8.70203 11.3938 8.70203 13.592 10.0612C13.6568 10.1013 13.7388 10.1493 13.8331 10.2045C14.26 10.4543 14.9378 10.8509 15.4002 11.3209C15.6906 11.6161 15.9803 12.0186 16.0331 12.5203C16.0896 13.0571 15.8618 13.554 15.4271 13.984C14.7091 14.6944 13.8197 15.2918 12.6534 15.2918H7.34615C6.17994 15.2918 5.2905 14.6944 4.57248 13.984C4.13784 13.554 3.91 13.0571 3.96651 12.5203C4.01932 12.0186 4.30898 11.6161 4.59942 11.3209C5.06184 10.8509 5.7395 10.4543 6.16639 10.2045C6.26071 10.1493 6.34279 10.1013 6.4076 10.0612ZM12.9346 11.1244C11.1393 10.0143 8.86028 10.0143 7.065 11.1244C6.95724 11.191 6.84168 11.2592 6.72246 11.3295C6.2959 11.581 5.82234 11.8602 5.49049 12.1975C5.28633 12.4051 5.2196 12.5565 5.20964 12.6512C5.20337 12.7108 5.20637 12.8528 5.45162 13.0954C6.06206 13.6993 6.65219 14.0418 7.34615 14.0418H12.6534C13.3474 14.0418 13.9375 13.6993 14.548 13.0954C14.7932 12.8527 14.7962 12.7108 14.79 12.6512C14.78 12.5565 14.7133 12.4051 14.5091 12.1975C14.1773 11.8602 13.7037 11.581 13.2772 11.3295C13.1579 11.2592 13.0424 11.191 12.9346 11.1244Z" fill="#1B8354"/>
<path fill-rule="evenodd" clip-rule="evenodd" d="M9.99967 0.708496C8.04367 0.708496 6.45801 2.29415 6.45801 4.25016C6.45801 6.20617 8.04367 7.79183 9.99967 7.79183C11.9557 7.79183 13.5413 6.20617 13.5413 4.25016C13.5413 2.29415 11.9557 0.708496 9.99967 0.708496ZM7.70801 4.25016C7.70801 2.98451 8.73402 1.9585 9.99967 1.9585C11.2653 1.9585 12.2913 2.98451 12.2913 4.25016C12.2913 5.51582 11.2653 6.54183 9.99967 6.54183C8.73402 6.54183 7.70801 5.51582 7.70801 4.25016Z" stroke="#9DA4AE"/>
<path d="M4.58304 2.37516C3.08727 2.37516 1.87471 3.58772 1.87471 5.0835C1.87471 6.57927 3.08727 7.79183 4.58304 7.79183C4.92822 7.79183 5.20804 7.51201 5.20804 7.16683C5.20804 6.82165 4.92822 6.54183 4.58304 6.54183C3.77763 6.54183 3.12471 5.88891 3.12471 5.0835C3.12471 4.27808 3.77763 3.62516 4.58304 3.62516C4.92822 3.62516 5.20804 3.34534 5.20804 3.00016C5.20804 2.65498 4.92822 2.37516 4.58304 2.37516Z" stroke="#9DA4AE"/>
<path d="M4.78884 8.77718C4.75773 8.43341 4.45384 8.17994 4.11006 8.21104C3.32796 8.28179 2.5675 8.58268 1.89726 9.0988C1.85864 9.12854 1.80777 9.16555 1.74799 9.20904C1.46409 9.41558 0.979337 9.76823 0.652661 10.1818C0.443926 10.446 0.248726 10.7918 0.213582 11.2076C0.176777 11.643 0.322757 12.0661 0.635721 12.4517C1.11477 13.0419 1.7721 13.6252 2.68801 13.6252C3.03319 13.6252 3.31301 13.3453 3.31301 13.0002C3.31301 12.655 3.03319 12.3752 2.68801 12.3752C2.35508 12.3752 2.0191 12.1726 1.60628 11.6639C1.4628 11.4871 1.4538 11.376 1.45914 11.3129C1.46614 11.23 1.51021 11.1127 1.63352 10.9566C1.84123 10.6937 2.13238 10.4797 2.41539 10.2717C2.49836 10.2107 2.58064 10.1502 2.65991 10.0892C3.15188 9.71034 3.6891 9.50423 4.22269 9.45595C4.56646 9.42485 4.81994 9.12096 4.78884 8.77718Z" stroke="#9DA4AE"/>
<path d="M14.9997 2.37516C14.6545 2.37516 14.3747 2.65498 14.3747 3.00016C14.3747 3.34534 14.6545 3.62516 14.9997 3.62516C15.8051 3.62516 16.458 4.27808 16.458 5.0835C16.458 5.88891 15.8051 6.54183 14.9997 6.54183C14.6545 6.54183 14.3747 6.82165 14.3747 7.16683C14.3747 7.51201 14.6545 7.79183 14.9997 7.79183C16.4954 7.79183 17.708 6.57927 17.708 5.0835C17.708 3.58772 16.4954 2.37516 14.9997 2.37516Z" stroke="#9DA4AE"/>
<path d="M15.8893 8.21104C15.5455 8.17994 15.2417 8.43341 15.2106 8.77718C15.1794 9.12096 15.4329 9.42485 15.7767 9.45595C16.3103 9.50423 16.8475 9.71034 17.3395 10.0892C17.4187 10.1502 17.501 10.2107 17.5839 10.2717C17.8669 10.4797 18.1582 10.6937 18.3659 10.9566C18.4892 11.1127 18.5332 11.23 18.5402 11.3129C18.5456 11.376 18.5366 11.4871 18.3931 11.6639C17.9803 12.1726 17.6443 12.3752 17.3114 12.3752C16.9662 12.3752 16.6864 12.655 16.6864 13.0002C16.6864 13.3453 16.9662 13.6252 17.3114 13.6252C18.2273 13.6252 18.8846 13.0419 19.3637 12.4517C19.6766 12.0661 19.8226 11.643 19.7858 11.2076C19.7507 10.7918 19.5555 10.446 19.3467 10.1818C19.02 9.76823 18.5354 9.41564 18.2515 9.2091C18.1917 9.16562 18.1407 9.12854 18.1021 9.0988C17.4319 8.58268 16.6714 8.28179 15.8893 8.21104Z" stroke="#9DA4AE"/>
<path fill-rule="evenodd" clip-rule="evenodd" d="M6.4076 10.0612C8.60575 8.70203 11.3938 8.70203 13.592 10.0612C13.6568 10.1013 13.7388 10.1493 13.8331 10.2045C14.26 10.4543 14.9378 10.8509 15.4002 11.3209C15.6906 11.6161 15.9803 12.0186 16.0331 12.5203C16.0896 13.0571 15.8618 13.554 15.4271 13.984C14.7091 14.6944 13.8197 15.2918 12.6534 15.2918H7.34615C6.17994 15.2918 5.2905 14.6944 4.57248 13.984C4.13784 13.554 3.91 13.0571 3.96651 12.5203C4.01932 12.0186 4.30898 11.6161 4.59942 11.3209C5.06184 10.8509 5.7395 10.4543 6.16639 10.2045C6.26071 10.1493 6.34279 10.1013 6.4076 10.0612ZM12.9346 11.1244C11.1393 10.0143 8.86028 10.0143 7.065 11.1244C6.95724 11.191 6.84168 11.2592 6.72246 11.3295C6.2959 11.581 5.82234 11.8602 5.49049 12.1975C5.28633 12.4051 5.2196 12.5565 5.20964 12.6512C5.20337 12.7108 5.20637 12.8528 5.45162 13.0954C6.06206 13.6993 6.65219 14.0418 7.34615 14.0418H12.6534C13.3474 14.0418 13.9375 13.6993 14.548 13.0954C14.7932 12.8527 14.7962 12.7108 14.79 12.6512C14.78 12.5565 14.7133 12.4051 14.5091 12.1975C14.1773 11.8602 13.7037 11.581 13.2772 11.3295C13.1579 11.2592 13.0424 11.191 12.9346 11.1244Z" stroke="#9DA4AE"/>
</svg>
