<svg width="49" height="48" viewBox="0 0 49 48" fill="none" xmlns="http://www.w3.org/2000/svg">
<path d="M42.3507 33.4986H44.6587C45.4867 33.4986 46.1587 32.8266 46.1587 31.9986C46.1587 31.1706 45.4867 30.4986 44.6587 30.4986H42.3427C39.7347 30.4986 38.6447 30.4826 37.8307 30.0526C36.9551 29.5908 36.1615 28.5176 34.579 26.3777L29.933 20.1037C29.355 19.3229 28.01 17.5061 25.7627 18.2326C24.7547 18.5586 23.9067 19.2786 23.1607 19.9126C23.1425 19.9281 23.1244 19.9434 23.1063 19.9588C22.8765 20.1538 22.6593 20.3381 22.4627 20.4846C21.8887 20.9146 21.1667 20.8266 20.6667 20.2626C19.9867 19.4966 19.9867 18.2026 20.6667 17.4366L23.5987 14.1366C24.6007 13.0086 25.4647 12.0366 26.6247 11.7166C27.7627 11.4046 29.2627 11.4946 30.5867 11.5766L30.7867 11.5886C31.7447 11.6466 32.6707 12.0826 33.3967 12.8186C35.0167 14.4526 36.8927 15.9646 39.6287 15.9646L44.6627 15.9646C45.4907 15.9646 46.1627 15.2926 46.1627 14.4646C46.1627 13.6366 45.4907 12.9646 44.6627 12.9646L39.6287 12.9646C38.0787 12.9646 36.9107 12.1006 35.5307 10.7086C34.2867 9.44862 32.6687 8.69661 30.9727 8.59261L30.7638 8.57994C29.2105 8.4861 27.4489 8.37967 25.8347 8.82264C24.8402 9.09619 24.032 9.57746 23.3232 10.1581C23.2962 10.1449 23.2686 10.1325 23.2405 10.1208L20.4545 8.96274C17.8705 7.88874 14.9845 8.71274 13.1025 11.0587C12.3585 11.9867 11.3965 12.4987 10.3965 12.4987L4.6665 12.4987C3.8385 12.4987 3.1665 13.1707 3.1665 13.9987C3.1665 14.8267 3.8385 15.4987 4.6665 15.4987L10.3965 15.4987C12.2965 15.4987 14.1345 14.5647 15.4425 12.9367C16.4845 11.6367 17.9645 11.1767 19.3045 11.7327L21.0724 12.4675L18.4307 15.4426C16.7347 17.3506 16.7347 20.3426 18.4307 22.2526C19.9807 23.9966 22.4367 24.2586 24.2707 22.8806C24.5527 22.6686 24.8367 22.4286 25.1087 22.1966C25.6427 21.7426 26.2487 21.2286 26.6927 21.0846C26.7427 21.0686 26.7667 21.0666 26.7667 21.0666C26.8587 21.0946 27.0647 21.2586 27.5307 21.8906L32.1878 28.179C32.52 28.6278 32.8246 29.0392 33.1098 29.4166L30.4465 31.9927C27.4905 34.8507 26.0045 36.2848 24.4505 36.4708C24.3816 36.4786 24.3126 36.4845 24.2437 36.4904L24.2405 36.4907C22.6815 36.6027 20.9307 35.4741 17.4349 33.2209L17.4161 33.2088C15.4499 31.9418 14.3638 31.2419 13.0685 30.8507L12.8885 30.7967C11.5945 30.4327 10.3625 30.4327 7.90851 30.4327H4.6665C3.8385 30.4327 3.1665 31.1047 3.1665 31.9327C3.1665 32.7607 3.8385 33.4327 4.6665 33.4327H7.90851C10.0765 33.4327 11.1685 33.4327 12.0645 33.6807L12.2085 33.7247C13.0926 33.9921 13.9965 34.5742 15.8026 35.7371L15.8212 35.7491C19.5086 38.1261 21.6374 39.4984 24.0076 39.4987C24.1552 39.4987 24.3049 39.4947 24.4545 39.4807H24.4885C24.5999 39.4708 24.7131 39.4607 24.8145 39.4487C27.3625 39.1447 29.1985 37.3707 32.5425 34.1387L35.0593 31.7046C35.4962 32.1146 35.9394 32.4412 36.4387 32.7046C37.9427 33.4986 39.5087 33.4986 42.3507 33.4986Z" fill="#D2D6DB"/>
</svg>
