<svg width="18" height="18" viewBox="0 0 18 18" fill="none" xmlns="http://www.w3.org/2000/svg">
<g id="elements">
<g id="Icon">
<path d="M8.57588 9.62593C8.518 9.62499 8.45108 9.62496 8.36851 9.62496C8.02333 9.62496 7.74351 9.34514 7.74351 8.99996C7.74351 8.65479 8.02333 8.37496 8.36851 8.37496L8.39721 8.37496C8.56814 8.37489 8.75297 8.37482 8.90899 8.39579C9.09176 8.42037 9.32525 8.48356 9.52175 8.68006C9.71825 8.87656 9.78144 9.11005 9.80602 9.29282C9.82699 9.44884 9.82692 9.63366 9.82685 9.80459L9.82684 13.1666C9.82684 13.5118 9.54702 13.7916 9.20184 13.7916C8.85667 13.7916 8.57684 13.5118 8.57684 13.1666V9.8333C8.57684 9.75073 8.57682 9.6838 8.57588 9.62593Z" fill="#B42318"/>
<path d="M8.99351 5.66662C8.53327 5.66662 8.16018 6.03971 8.16018 6.49995C8.16018 6.96019 8.53327 7.33328 8.99351 7.33328H9.00099C9.46123 7.33328 9.83433 6.96019 9.83433 6.49995C9.83433 6.03971 9.46123 5.66662 9.00099 5.66662H8.99351Z" fill="#B42318"/>
<path fill-rule="evenodd" clip-rule="evenodd" d="M7.63501 0.679117C8.52205 0.384671 9.47799 0.384671 10.365 0.679117C11.2484 0.972344 11.942 1.66779 12.6388 2.64491C13.3333 3.61878 14.1007 4.97667 15.0899 6.72703L15.1287 6.79575C16.1181 8.54638 16.8854 9.9042 17.3636 11.0053C17.8442 12.1119 18.0835 13.0672 17.8926 13.9851C17.7003 14.9092 17.2262 15.7495 16.5357 16.3847C15.8469 17.0183 14.909 17.2856 13.728 17.414C12.5537 17.5416 11.0177 17.5416 9.04065 17.5416H8.9594C6.98237 17.5416 5.4463 17.5416 4.27204 17.414C3.09108 17.2856 2.15318 17.0183 1.46437 16.3847C0.773873 15.7495 0.299753 14.9092 0.107481 13.9851C-0.083481 13.0672 0.155854 12.1119 0.6364 11.0053C1.11462 9.9042 1.88198 8.54638 2.87134 6.79574L2.91017 6.72703C3.89936 4.97667 4.66675 3.61878 5.36124 2.64491C6.05804 1.66779 6.75164 0.972344 7.63501 0.679117ZM9.97124 1.86547C9.33987 1.65589 8.66018 1.65589 8.02881 1.86547C7.53215 2.03033 7.03288 2.4537 6.37897 3.37067C5.72732 4.28448 4.99167 5.58448 3.9789 7.37656C2.9662 9.16851 2.23189 10.4695 1.78294 11.5033C1.33321 12.5388 1.22054 13.1982 1.33127 13.7304C1.47095 14.4017 1.81464 15.0085 2.31062 15.4647C2.70015 15.823 3.30712 16.0517 4.40714 16.1713C5.50582 16.2907 6.97386 16.2916 9.00002 16.2916C11.0262 16.2916 12.4942 16.2907 13.5929 16.1713C14.6929 16.0517 15.2999 15.823 15.6894 15.4647C16.1854 15.0085 16.5291 14.4017 16.6688 13.7304C16.7795 13.1982 16.6668 12.5388 16.2171 11.5033C15.7682 10.4695 15.0338 9.16851 14.0211 7.37656C13.0084 5.58448 12.2727 4.28448 11.6211 3.37067C10.9672 2.4537 10.4679 2.03033 9.97124 1.86547Z" fill="#B42318"/>
<path d="M8.57588 9.62593C8.518 9.62499 8.45108 9.62496 8.36851 9.62496C8.02333 9.62496 7.74351 9.34514 7.74351 8.99996C7.74351 8.65479 8.02333 8.37496 8.36851 8.37496L8.39721 8.37496C8.56814 8.37489 8.75297 8.37482 8.90899 8.39579C9.09176 8.42037 9.32525 8.48356 9.52175 8.68006C9.71825 8.87656 9.78144 9.11005 9.80602 9.29282C9.82699 9.44884 9.82692 9.63366 9.82685 9.80459L9.82684 13.1666C9.82684 13.5118 9.54702 13.7916 9.20184 13.7916C8.85667 13.7916 8.57684 13.5118 8.57684 13.1666V9.8333C8.57684 9.75073 8.57682 9.6838 8.57588 9.62593Z" stroke="#9DA4AE"/>
<path d="M8.99351 5.66662C8.53327 5.66662 8.16018 6.03971 8.16018 6.49995C8.16018 6.96019 8.53327 7.33328 8.99351 7.33328H9.00099C9.46123 7.33328 9.83433 6.96019 9.83433 6.49995C9.83433 6.03971 9.46123 5.66662 9.00099 5.66662H8.99351Z" stroke="#9DA4AE"/>
<path fill-rule="evenodd" clip-rule="evenodd" d="M7.63501 0.679117C8.52205 0.384671 9.47799 0.384671 10.365 0.679117C11.2484 0.972344 11.942 1.66779 12.6388 2.64491C13.3333 3.61878 14.1007 4.97667 15.0899 6.72703L15.1287 6.79575C16.1181 8.54638 16.8854 9.9042 17.3636 11.0053C17.8442 12.1119 18.0835 13.0672 17.8926 13.9851C17.7003 14.9092 17.2262 15.7495 16.5357 16.3847C15.8469 17.0183 14.909 17.2856 13.728 17.414C12.5537 17.5416 11.0177 17.5416 9.04065 17.5416H8.9594C6.98237 17.5416 5.4463 17.5416 4.27204 17.414C3.09108 17.2856 2.15318 17.0183 1.46437 16.3847C0.773873 15.7495 0.299753 14.9092 0.107481 13.9851C-0.083481 13.0672 0.155854 12.1119 0.6364 11.0053C1.11462 9.9042 1.88198 8.54638 2.87134 6.79574L2.91017 6.72703C3.89936 4.97667 4.66675 3.61878 5.36124 2.64491C6.05804 1.66779 6.75164 0.972344 7.63501 0.679117ZM9.97124 1.86547C9.33987 1.65589 8.66018 1.65589 8.02881 1.86547C7.53215 2.03033 7.03288 2.4537 6.37897 3.37067C5.72732 4.28448 4.99167 5.58448 3.9789 7.37656C2.9662 9.16851 2.23189 10.4695 1.78294 11.5033C1.33321 12.5388 1.22054 13.1982 1.33127 13.7304C1.47095 14.4017 1.81464 15.0085 2.31062 15.4647C2.70015 15.823 3.30712 16.0517 4.40714 16.1713C5.50582 16.2907 6.97386 16.2916 9.00002 16.2916C11.0262 16.2916 12.4942 16.2907 13.5929 16.1713C14.6929 16.0517 15.2999 15.823 15.6894 15.4647C16.1854 15.0085 16.5291 14.4017 16.6688 13.7304C16.7795 13.1982 16.6668 12.5388 16.2171 11.5033C15.7682 10.4695 15.0338 9.16851 14.0211 7.37656C13.0084 5.58448 12.2727 4.28448 11.6211 3.37067C10.9672 2.4537 10.4679 2.03033 9.97124 1.86547Z" stroke="#9DA4AE"/>
</g>
</g>
</svg>
