<svg width="40" height="40" viewBox="0 0 40 40" fill="none" xmlns="http://www.w3.org/2000/svg">
<path d="M0 20C0 8.95431 8.95431 0 20 0C31.0457 0 40 8.95431 40 20C40 31.0457 31.0457 40 20 40C8.95431 40 0 31.0457 0 20Z" fill="#F9FAFB"/>
<path d="M17.0837 22.707C16.7385 22.707 16.4587 22.4272 16.4587 22.082C16.4587 21.7369 16.7385 21.457 17.0837 21.457H22.917C23.2622 21.457 23.542 21.7369 23.542 22.082C23.542 22.4272 23.2622 22.707 22.917 22.707H17.0837Z" fill="#1B8354"/>
<path d="M17.0837 18.5404C16.7385 18.5404 16.4587 18.2605 16.4587 17.9154C16.4587 17.5702 16.7385 17.2904 17.0837 17.2904H20.0003C20.3455 17.2904 20.6253 17.5702 20.6253 17.9154C20.6253 18.2605 20.3455 18.5404 20.0003 18.5404H17.0837Z" fill="#1B8354"/>
<path fill-rule="evenodd" clip-rule="evenodd" d="M21.8506 11.5176C20.6337 11.4367 19.3644 11.4369 18.15 11.5176C14.3445 11.7706 11.3251 14.8425 11.0768 18.684C11.0304 19.4027 11.0304 20.1461 11.0768 20.8647C11.1693 22.295 11.7932 23.5854 12.4868 24.6324C12.6946 25.0336 12.5864 25.6354 12.1977 26.3719L12.1798 26.4058C12.0493 26.6531 11.9215 26.8951 11.8477 27.1015C11.7696 27.3202 11.6888 27.6674 11.8902 28.0108C12.0753 28.3263 12.371 28.4419 12.6099 28.4881C12.8083 28.5265 13.0516 28.5323 13.2799 28.5378L13.318 28.5387C14.5011 28.5675 15.3348 28.2259 15.9952 27.7389C16.1262 27.6423 16.2162 27.5761 16.284 27.5296C16.3826 27.5657 16.5172 27.621 16.7157 27.7027C17.1668 27.8885 17.6793 27.9998 18.15 28.0311C19.3644 28.1118 20.6337 28.112 21.8506 28.0311C25.6562 27.7781 28.6756 24.7062 28.9238 20.8647C28.9703 20.1461 28.9703 19.4027 28.9238 18.684C28.6756 14.8425 25.6562 11.7706 21.8506 11.5176ZM18.2329 12.7649C19.3922 12.6878 20.6061 12.6877 21.7677 12.7649C24.9339 12.9753 27.4677 15.5355 27.6764 18.7646C27.7194 19.4296 27.7194 20.1191 27.6764 20.7841C27.4677 24.0132 24.9339 26.5734 21.7677 26.7838C20.6061 26.8611 19.3922 26.8609 18.2329 26.7838C17.8863 26.7608 17.5079 26.6771 17.1917 26.5469L17.1755 26.5402C16.976 26.458 16.8031 26.3868 16.6672 26.339C16.5609 26.3017 16.348 26.2271 16.1286 26.254C15.919 26.2798 15.7466 26.3874 15.6524 26.4484C15.5438 26.5186 15.4127 26.6153 15.268 26.722L15.2533 26.7329C14.8037 27.0644 14.239 27.3107 13.3484 27.289C13.2665 27.287 13.1957 27.2853 13.1328 27.2831C13.1791 27.1905 13.2351 27.0844 13.3033 26.9552C13.7192 26.167 14.1276 25.0171 13.5707 24.0087C13.5623 23.9936 13.5534 23.9788 13.5438 23.9644C12.9032 23.0025 12.3975 21.9176 12.3242 20.7841C12.2812 20.1191 12.2812 19.4296 12.3242 18.7646C12.5329 15.5355 15.0668 12.9753 18.2329 12.7649Z" fill="#1B8354"/>
<path d="M17.0837 22.707C16.7385 22.707 16.4587 22.4272 16.4587 22.082C16.4587 21.7369 16.7385 21.457 17.0837 21.457H22.917C23.2622 21.457 23.542 21.7369 23.542 22.082C23.542 22.4272 23.2622 22.707 22.917 22.707H17.0837Z" stroke="#9DA4AE"/>
<path d="M17.0837 18.5404C16.7385 18.5404 16.4587 18.2605 16.4587 17.9154C16.4587 17.5702 16.7385 17.2904 17.0837 17.2904H20.0003C20.3455 17.2904 20.6253 17.5702 20.6253 17.9154C20.6253 18.2605 20.3455 18.5404 20.0003 18.5404H17.0837Z" stroke="#9DA4AE"/>
<path fill-rule="evenodd" clip-rule="evenodd" d="M21.8506 11.5176C20.6337 11.4367 19.3644 11.4369 18.15 11.5176C14.3445 11.7706 11.3251 14.8425 11.0768 18.684C11.0304 19.4027 11.0304 20.1461 11.0768 20.8647C11.1693 22.295 11.7932 23.5854 12.4868 24.6324C12.6946 25.0336 12.5864 25.6354 12.1977 26.3719L12.1798 26.4058C12.0493 26.6531 11.9215 26.8951 11.8477 27.1015C11.7696 27.3202 11.6888 27.6674 11.8902 28.0108C12.0753 28.3263 12.371 28.4419 12.6099 28.4881C12.8083 28.5265 13.0516 28.5323 13.2799 28.5378L13.318 28.5387C14.5011 28.5675 15.3348 28.2259 15.9952 27.7389C16.1262 27.6423 16.2162 27.5761 16.284 27.5296C16.3826 27.5657 16.5172 27.621 16.7157 27.7027C17.1668 27.8885 17.6793 27.9998 18.15 28.0311C19.3644 28.1118 20.6337 28.112 21.8506 28.0311C25.6562 27.7781 28.6756 24.7062 28.9238 20.8647C28.9703 20.1461 28.9703 19.4027 28.9238 18.684C28.6756 14.8425 25.6562 11.7706 21.8506 11.5176ZM18.2329 12.7649C19.3922 12.6878 20.6061 12.6877 21.7677 12.7649C24.9339 12.9753 27.4677 15.5355 27.6764 18.7646C27.7194 19.4296 27.7194 20.1191 27.6764 20.7841C27.4677 24.0132 24.9339 26.5734 21.7677 26.7838C20.6061 26.8611 19.3922 26.8609 18.2329 26.7838C17.8863 26.7608 17.5079 26.6771 17.1917 26.5469L17.1755 26.5402C16.976 26.458 16.8031 26.3868 16.6672 26.339C16.5609 26.3017 16.348 26.2271 16.1286 26.254C15.919 26.2798 15.7466 26.3874 15.6524 26.4484C15.5438 26.5186 15.4127 26.6153 15.268 26.722L15.2533 26.7329C14.8037 27.0644 14.239 27.3107 13.3484 27.289C13.2665 27.287 13.1957 27.2853 13.1328 27.2831C13.1791 27.1905 13.2351 27.0844 13.3033 26.9552C13.7192 26.167 14.1276 25.0171 13.5707 24.0087C13.5623 23.9936 13.5534 23.9788 13.5438 23.9644C12.9032 23.0025 12.3975 21.9176 12.3242 20.7841C12.2812 20.1191 12.2812 19.4296 12.3242 18.7646C12.5329 15.5355 15.0668 12.9753 18.2329 12.7649Z" stroke="#9DA4AE"/>
</svg>
