<svg width="20" height="22" viewBox="0 0 20 22" fill="none" xmlns="http://www.w3.org/2000/svg">
<g id="elements">
<path id="Icon" fill-rule="evenodd" clip-rule="evenodd" d="M15.4879 16.752C14.6559 16.752 13.81 16.346 12.602 15.766L7.17046 13.158C7.72086 15.0901 8.65585 15.9488 9.60542 16.571C10.2784 17.012 10.7054 17.736 10.7474 18.508C10.7864 19.222 10.4904 19.894 9.93637 20.351L8.44536 21.58C8.30736 21.694 8.13741 21.751 7.96841 21.751C7.80341 21.751 7.63939 21.697 7.50239 21.589C4.20745 18.976 4.22235 17.366 4.25835 13.4752L4.26 13.287C4.26208 13.0526 4.2642 12.813 4.26562 12.564C4.18583 12.579 4.11631 12.5899 4.048 12.598C3.065 12.71 2.144 12.432 1.452 11.815C0.688002 11.134 0.25 10.091 0.25 8.95597V8.04497C0.25 6.90897 0.688002 5.86697 1.452 5.18597C2.143 4.56897 3.06402 4.29097 4.04702 4.40297C4.23402 4.42397 4.42995 4.46797 4.82095 4.55597C5.21295 4.64397 5.59195 4.60097 5.94995 4.42897L12.6062 1.23397C14.2037 0.467161 15.168 0.00429989 16.307 0.386967C17.461 0.773967 17.864 1.61997 18.473 2.89997C20.17 6.45897 20.17 10.542 18.473 14.101C17.8632 15.3806 17.4598 16.227 16.306 16.614C16.026 16.708 15.757 16.751 15.486 16.751L15.4879 16.752ZM6.25098 11.0767C6.36901 11.1174 6.48546 11.1652 6.59995 11.22L13.252 14.414C14.75 15.133 15.295 15.373 15.831 15.193C16.358 15.016 16.5469 14.661 17.1209 13.457C18.6219 10.308 18.6219 6.69497 17.1209 3.54597C16.5469 2.34097 16.358 1.98597 15.832 1.80897C15.296 1.62897 14.751 1.86897 13.253 2.58797L6.60103 5.78097C6.48626 5.83609 6.36944 5.8841 6.25098 5.92497V11.0767ZM4.75098 10.9349C4.66593 10.9471 4.58088 10.9628 4.49595 10.982L4.4284 10.997C4.1428 11.0606 3.98037 11.0968 3.88003 11.108C3.31103 11.173 2.83198 11.034 2.45298 10.696C2.00798 10.299 1.75298 9.66497 1.75298 8.95597V8.04497C1.75298 7.33597 2.00798 6.70197 2.45298 6.30497C2.83098 5.96697 3.31095 5.82797 3.87895 5.89297C3.98205 5.90442 4.15169 5.94231 4.45135 6.00923L4.49497 6.01897C4.58021 6.03808 4.66559 6.05377 4.75098 6.06605V10.9349ZM7.96538 20.031C5.75706 18.1686 5.72541 17.1436 5.75637 13.6842C6.30352 15.5425 7.25425 16.8246 8.78237 17.825C9.05837 18.006 9.23336 18.291 9.24936 18.589C9.25836 18.757 9.21939 18.997 8.98139 19.193L7.96538 20.031Z" fill="#0C7945"/>
</g>
</svg>
