<svg width="40" height="40" viewBox="0 0 40 40" fill="none" xmlns="http://www.w3.org/2000/svg">
<path d="M0 20C0 8.95431 8.95431 0 20 0C31.0457 0 40 8.95431 40 20C40 31.0457 31.0457 40 20 40C8.95431 40 0 31.0457 0 20Z" fill="#ECFDF3"/>
<path d="M23.7939 17.9227C24.0271 17.6682 24.0099 17.2729 23.7555 17.0396C23.501 16.8064 23.1057 16.8236 22.8724 17.078L18.7302 21.5968L17.1084 19.9751C16.8644 19.731 16.4686 19.731 16.2246 19.9751C15.9805 20.2191 15.9805 20.6149 16.2246 20.8589L18.3079 22.9423C18.4284 23.0628 18.593 23.1289 18.7634 23.1252C18.9338 23.1215 19.0954 23.0483 19.2106 22.9227L23.7939 17.9227Z" stroke="#9DA4AE"/>
<path fill-rule="evenodd" clip-rule="evenodd" d="M19.9998 28.9587C15.0523 28.9587 11.0415 24.9479 11.0415 20.0003C11.0415 15.0528 15.0523 11.042 19.9998 11.042C24.9474 11.042 28.9582 15.0528 28.9582 20.0003C28.9582 24.9479 24.9474 28.9587 19.9998 28.9587ZM12.2915 20.0003C12.2915 24.2575 15.7426 27.7087 19.9998 27.7087C24.257 27.7087 27.7082 24.2575 27.7082 20.0003C27.7082 15.7431 24.257 12.292 19.9998 12.292C15.7426 12.292 12.2915 15.7431 12.2915 20.0003Z" stroke="#9DA4AE"/>
<path d="M23.7939 17.9227C24.0271 17.6682 24.0099 17.2729 23.7555 17.0396C23.501 16.8064 23.1057 16.8236 22.8724 17.078L18.7302 21.5968L17.1084 19.9751C16.8644 19.731 16.4686 19.731 16.2246 19.9751C15.9805 20.2191 15.9805 20.6149 16.2246 20.8589L18.3079 22.9423C18.4284 23.0628 18.593 23.1289 18.7634 23.1252C18.9338 23.1215 19.0954 23.0483 19.2106 22.9227L23.7939 17.9227Z" fill="#067647"/>
<path fill-rule="evenodd" clip-rule="evenodd" d="M19.9998 28.9587C15.0523 28.9587 11.0415 24.9479 11.0415 20.0003C11.0415 15.0528 15.0523 11.042 19.9998 11.042C24.9474 11.042 28.9582 15.0528 28.9582 20.0003C28.9582 24.9479 24.9474 28.9587 19.9998 28.9587ZM12.2915 20.0003C12.2915 24.2575 15.7426 27.7087 19.9998 27.7087C24.257 27.7087 27.7082 24.2575 27.7082 20.0003C27.7082 15.7431 24.257 12.292 19.9998 12.292C15.7426 12.292 12.2915 15.7431 12.2915 20.0003Z" fill="#067647"/>
</svg>
