<svg width="40" height="40" viewBox="0 0 40 40" fill="none" xmlns="http://www.w3.org/2000/svg">
<path d="M0 20C0 8.95431 8.95431 0 20 0C31.0457 0 40 8.95431 40 20C40 31.0457 31.0457 40 20 40C8.95431 40 0 31.0457 0 20Z" fill="#ECFDF3"/>
<path fill-rule="evenodd" clip-rule="evenodd" d="M20.0004 15.6263C18.0444 15.6263 16.4587 17.212 16.4587 19.168C16.4587 21.124 18.0444 22.7096 20.0004 22.7096C21.9564 22.7096 23.5421 21.124 23.5421 19.168C23.5421 17.212 21.9564 15.6263 20.0004 15.6263ZM17.7087 19.168C17.7087 17.9023 18.7348 16.8763 20.0004 16.8763C21.2661 16.8763 22.2921 17.9023 22.2921 19.168C22.2921 20.4336 21.2661 21.4596 20.0004 21.4596C18.7348 21.4596 17.7087 20.4336 17.7087 19.168Z" fill="#067647"/>
<path fill-rule="evenodd" clip-rule="evenodd" d="M20.0013 11.043C16.8128 11.043 13.7709 12.9288 12.4976 15.9052C11.3126 18.6752 11.9541 21.0324 13.2898 23.0509C14.3848 24.7058 15.982 26.1828 17.4229 27.5153C17.6976 27.7694 17.9667 28.0183 18.2255 28.2621L18.2269 28.2633C18.7061 28.712 19.3426 28.9596 20.0013 28.9596C20.6599 28.9596 21.2964 28.712 21.7756 28.2633C22.0202 28.0343 22.2738 27.8007 22.5325 27.5623C23.9891 26.2203 25.6087 24.728 26.7152 23.052C28.0492 21.0314 28.6884 18.6717 27.505 15.9052C26.2317 12.9288 23.1897 11.043 20.0013 11.043ZM13.6469 16.3968C14.7126 13.9057 17.2851 12.293 20.0013 12.293C22.7174 12.293 25.29 13.9057 26.3557 16.3968C27.3324 18.68 26.8396 20.5949 25.672 22.3633C24.6574 23.9001 23.1711 25.2715 21.7101 26.6195C21.4454 26.8638 21.1814 27.1073 20.9213 27.3509C20.6777 27.579 20.3481 27.7096 20.0013 27.7096C19.6547 27.7096 19.3254 27.5792 19.0818 27.3514C18.8048 27.0904 18.5233 26.8298 18.2412 26.5685C16.7988 25.2328 15.336 23.8782 14.3322 22.3611C13.1636 20.595 12.6689 18.6829 13.6469 16.3968Z" fill="#067647"/>
</svg>
