<svg width="6" height="12" viewBox="0 0 6 12" fill="none" xmlns="http://www.w3.org/2000/svg">
<g id="elements">
<path id="Icon" d="M5.58354 1.95279C5.4625 2.0442 5.1012 2.31713 4.89291 2.47968C4.47576 2.80523 3.92144 3.25007 3.36877 3.72992C2.8133 4.2122 2.27233 4.71884 1.87465 5.16892C1.67524 5.3946 1.52372 5.59286 1.42509 5.75645C1.33234 5.91032 1.31305 6.00121 1.31305 6.00121C1.31305 6.00121 1.33234 6.08943 1.42509 6.24328C1.52371 6.40688 1.67524 6.60513 1.87465 6.83081C2.27233 7.2809 2.81331 7.78753 3.36878 8.26981C3.92145 8.74967 4.47577 9.1945 4.89294 9.52005C5.10122 9.6826 5.46202 9.95515 5.58305 10.0466C5.8332 10.2308 5.88715 10.5833 5.70292 10.8334C5.5187 11.0836 5.16657 11.137 4.91643 10.9528L4.91459 10.9514C4.78771 10.8556 4.41336 10.5728 4.20081 10.4069C3.77422 10.074 3.20354 9.61622 2.63122 9.1193C2.06168 8.62481 1.47766 8.08056 1.03159 7.57572C0.809129 7.32394 0.609092 7.06873 0.461622 6.8241C0.32346 6.59492 0.187497 6.30475 0.1875 5.99986C0.187503 5.69498 0.323465 5.40482 0.461627 5.17563C0.609096 4.93101 0.809133 4.67579 1.0316 4.42402C1.47766 3.91918 2.06168 3.37493 2.6312 2.88044C3.20352 2.38352 3.7742 1.9257 4.20078 1.59279C4.41345 1.42682 4.78774 1.14411 4.91441 1.04844L4.91604 1.04721C5.16618 0.862984 5.51866 0.916155 5.70289 1.1663C5.8871 1.41643 5.83366 1.76856 5.58354 1.95279Z" fill="#1F2A37"/>
</g>
</svg>
