<svg width="52" height="53" viewBox="0 0 52 53" fill="none" xmlns="http://www.w3.org/2000/svg">
<g filter="url(#filter0_d_1308_242491)">
<path d="M2.5 25.5C2.5 12.5213 13.0213 2 26 2C38.9787 2 49.5 12.5213 49.5 25.5C49.5 38.4787 38.9787 49 26 49C13.0213 49 2.5 38.4787 2.5 25.5Z" stroke="#D2D6DB" shape-rendering="crispEdges"/>
<path d="M28.6247 26.6693C28.6247 26.186 29.0164 25.7943 29.4997 25.7943L31.833 25.7943C32.3163 25.7943 32.708 26.186 32.708 26.6693C32.708 27.1525 32.3163 27.5443 31.833 27.5443L29.4997 27.5443C29.0164 27.5443 28.6247 27.1525 28.6247 26.6693Z" fill="#161616"/>
<path d="M28.6247 30.1693C28.6247 29.686 29.0164 29.2943 29.4997 29.2943H31.833C32.3163 29.2943 32.708 29.686 32.708 30.1693C32.708 30.6525 32.3163 31.0443 31.833 31.0443H29.4997C29.0164 31.0443 28.6247 30.6525 28.6247 30.1693Z" fill="#161616"/>
<path fill-rule="evenodd" clip-rule="evenodd" d="M14.333 36.2943C13.8498 36.2943 13.458 36.686 13.458 37.1693C13.458 37.6525 13.8498 38.0443 14.333 38.0443L37.6663 38.0443C38.1496 38.0443 38.5413 37.6525 38.5413 37.1693C38.5413 36.686 38.1496 36.2943 37.6663 36.2943H37.3747L37.3747 25.5026C37.3747 24.7598 37.3371 24.1038 37.2146 23.5464C37.09 22.9791 36.8659 22.4596 36.4543 22.048C36.0427 21.6364 35.5232 21.4123 34.9559 21.2877C34.3985 21.1652 33.7425 21.1276 32.9997 21.1276L30.3747 21.1276L30.3747 17.3359C30.3747 16.5931 30.3371 15.9371 30.2146 15.3797C30.09 14.8124 29.8659 14.2929 29.4543 13.8813C29.0427 13.4697 28.5232 13.2456 27.9559 13.121C27.3985 12.9985 26.7425 12.9609 25.9997 12.9609L18.9997 12.9609C18.2568 12.9609 17.6008 12.9985 17.0434 13.121C16.4762 13.2456 15.9567 13.4697 15.5451 13.8813C15.1335 14.2929 14.9093 14.8124 14.7847 15.3797C14.6623 15.9371 14.6247 16.5931 14.6247 17.3359L14.6247 36.2943H14.333ZM29.7913 36.2943L29.7913 33.6693C29.7913 33.186 30.1831 32.7943 30.6663 32.7943C31.1496 32.7943 31.5413 33.186 31.5413 33.6693L31.5413 36.2943L35.6247 36.2943L35.6247 25.5026C35.6247 24.7976 35.5867 24.2922 35.5054 23.9219C35.4262 23.5614 35.3183 23.3869 35.2168 23.2854C35.1154 23.184 34.9408 23.0761 34.5804 22.9969C34.2101 22.9155 33.7047 22.8776 32.9997 22.8776L28.333 22.8776C27.628 22.8776 27.1226 22.9155 26.7523 22.9969C26.3918 23.0761 26.2173 23.184 26.1159 23.2854C26.0144 23.3869 25.9065 23.5614 25.8273 23.9219C25.7459 24.2922 25.708 24.7976 25.708 25.5026L25.708 36.2943H29.7913ZM16.3747 26.9609H18.9997C19.4829 26.9609 19.8747 27.3527 19.8747 27.8359C19.8747 28.3192 19.4829 28.7109 18.9997 28.7109H16.3747L16.3747 36.2943H23.958L23.958 25.5026C23.958 24.7597 23.9956 24.1038 24.1181 23.5464C24.2427 22.9791 24.4668 22.4596 24.8784 22.048C25.29 21.6364 25.8095 21.4123 26.3768 21.2877C26.9342 21.1652 27.5902 21.1276 28.333 21.1276H28.6247V17.3359C28.6247 16.631 28.5867 16.1255 28.5054 15.7552C28.4262 15.3948 28.3183 15.2202 28.2168 15.1188C28.1154 15.0173 27.9408 14.9094 27.5804 14.8302C27.2101 14.7489 26.7047 14.7109 25.9997 14.7109L18.9997 14.7109C18.2947 14.7109 17.7893 14.7489 17.4189 14.8302C17.0585 14.9094 16.884 15.0173 16.7825 15.1188C16.6811 15.2202 16.5731 15.3948 16.494 15.7552C16.4126 16.1255 16.3747 16.631 16.3747 17.3359V17.6276H18.9997C19.4829 17.6276 19.8747 18.0194 19.8747 18.5026C19.8747 18.9859 19.4829 19.3776 18.9997 19.3776H16.3747L16.3747 22.2943H18.9997C19.4829 22.2943 19.8747 22.686 19.8747 23.1693C19.8747 23.6525 19.4829 24.0443 18.9997 24.0443H16.3747V26.9609Z" fill="#161616"/>
</g>
<defs>
<filter id="filter0_d_1308_242491" x="0" y="0.5" width="52" height="52" filterUnits="userSpaceOnUse" color-interpolation-filters="sRGB">
<feFlood flood-opacity="0" result="BackgroundImageFix"/>
<feColorMatrix in="SourceAlpha" type="matrix" values="0 0 0 0 0 0 0 0 0 0 0 0 0 0 0 0 0 0 127 0" result="hardAlpha"/>
<feOffset dy="1"/>
<feGaussianBlur stdDeviation="1"/>
<feComposite in2="hardAlpha" operator="out"/>
<feColorMatrix type="matrix" values="0 0 0 0 0.0627451 0 0 0 0 0.0941176 0 0 0 0 0.156863 0 0 0 0.05 0"/>
<feBlend mode="normal" in2="BackgroundImageFix" result="effect1_dropShadow_1308_242491"/>
<feBlend mode="normal" in="SourceGraphic" in2="effect1_dropShadow_1308_242491" result="shape"/>
</filter>
</defs>
</svg>
