<svg width="18" height="20" viewBox="0 0 18 20" fill="none" xmlns="http://www.w3.org/2000/svg">
<g id="elements">
<path id="Icon" fill-rule="evenodd" clip-rule="evenodd" d="M6.5 1.75C4.15279 1.75 2.25 3.65279 2.25 6L2.25 11.5001C2.25 15.228 5.27208 18.2501 9 18.2501C12.7279 18.2501 15.75 15.228 15.75 11.5001L15.75 10.0001C15.75 9.58585 16.0858 9.25006 16.5 9.25006C16.9142 9.25006 17.25 9.58585 17.25 10.0001V11.5001C17.25 16.0564 13.5563 19.7501 9 19.7501C4.44365 19.7501 0.75 16.0564 0.75 11.5001L0.75 6C0.75 2.82436 3.32436 0.25 6.5 0.25C9.67564 0.25 12.25 2.82436 12.25 6L12.25 11.5C12.25 13.2949 10.7949 14.75 9 14.75C7.20507 14.75 5.75 13.2949 5.75 11.5L5.75 7.5C5.75 7.08579 6.08579 6.75 6.5 6.75C6.91421 6.75 7.25 7.08579 7.25 7.5L7.25 11.5C7.25 12.4665 8.0335 13.25 9 13.25C9.9665 13.25 10.75 12.4665 10.75 11.5L10.75 6C10.75 3.65279 8.84721 1.75 6.5 1.75Z" fill="#161616"/>
</g>
</svg>
