<svg width="22" height="22" viewBox="0 0 22 22" fill="none" xmlns="http://www.w3.org/2000/svg">
<path d="M9.99176 6C9.99176 5.44772 10.4395 5 10.9918 5H11.0007C11.553 5 12.0007 5.44772 12.0007 6C12.0007 6.55228 11.553 7 11.0007 7H10.9918C10.4395 7 9.99176 6.55228 9.99176 6Z" fill="#1B8354"/>
<path fill-rule="evenodd" clip-rule="evenodd" d="M8.85547 0.762065C9.59686 0.438228 10.2669 0.25 10.9959 0.25C11.7249 0.25 12.3949 0.438228 13.1363 0.762065C13.8553 1.07612 14.6891 1.54014 15.7378 2.12379L19.88 4.42893C20.4564 4.74971 20.9388 5.15261 21.2702 5.69585C21.6032 6.24181 21.7459 6.86731 21.7459 7.56907L21.746 7.63515C21.7464 7.89061 21.7469 8.14972 21.6853 8.38151C21.5304 8.9648 21.1611 9.34075 20.7088 9.54224C20.3858 9.68617 20.0406 9.73247 19.7459 9.74548V17.1825C20.9354 17.8113 21.7459 19.061 21.7459 20.5C21.7459 21.1904 21.1863 21.75 20.4959 21.75H1.49591C0.805553 21.75 0.245911 21.1904 0.245911 20.5C0.245911 19.061 1.05646 17.8113 2.24591 17.1825V9.74548C1.95117 9.73248 1.60598 9.68617 1.28293 9.54224C0.830674 9.34076 0.461411 8.9648 0.306452 8.38151C0.244873 8.14972 0.245344 7.89061 0.245808 7.63515L0.245888 7.56907C0.245888 6.86731 0.38854 6.24181 0.721593 5.69585C1.05299 5.15261 1.5354 4.74971 2.11181 4.42893L6.25396 2.12378C7.30268 1.54014 8.13647 1.07612 8.85547 0.762065ZM9.45589 2.13666C8.81071 2.41847 8.03948 2.84675 6.95047 3.45279L2.84123 5.73963C2.41939 5.97439 2.16148 6.2158 2.00213 6.47702C1.84443 6.73553 1.74589 7.07465 1.74589 7.56907C1.74589 7.738 1.74607 7.83986 1.74955 7.91671C1.75206 7.97226 1.75568 7.99351 1.75642 7.99734C1.77612 8.071 1.79975 8.10321 1.81211 8.11734C1.82534 8.13246 1.84767 8.15171 1.89337 8.17208C2.00311 8.22097 2.1844 8.25 2.46517 8.25H19.5266C19.8074 8.25 19.9887 8.22097 20.0984 8.17208C20.1441 8.15172 20.1664 8.13246 20.1797 8.11734C20.192 8.10321 20.2157 8.071 20.2354 7.99734C20.2361 7.9935 20.2397 7.97224 20.2422 7.91671C20.2457 7.83985 20.2459 7.738 20.2459 7.56907C20.2459 7.07465 20.1473 6.73553 19.9896 6.47702C19.8303 6.2158 19.5724 5.97439 19.1505 5.73963L15.0413 3.45279C13.9523 2.84675 13.1811 2.41847 12.5359 2.13666C11.9056 1.86135 11.4472 1.75 10.9959 1.75C10.5446 1.75 10.0862 1.86135 9.45589 2.13666ZM3.74591 16.7582C3.82854 16.7528 3.9119 16.75 3.99591 16.75H6.24591V9.75H3.74591V16.7582ZM7.74591 16.75H14.2459V9.75H7.74591V16.75ZM15.7459 16.75H17.9959C18.0799 16.75 18.1633 16.7528 18.2459 16.7582V9.75H15.7459V16.75ZM20.2322 20.25H1.75964C1.884 19.125 2.83777 18.25 3.99591 18.25H17.9959C19.154 18.25 20.1078 19.125 20.2322 20.25Z" fill="#1B8354"/>
</svg>
