<svg width="40" height="40" viewBox="0 0 40 40" fill="none" xmlns="http://www.w3.org/2000/svg">
<path d="M0 20C0 8.95431 8.95431 0 20 0C31.0457 0 40 8.95431 40 20C40 31.0457 31.0457 40 20 40C8.95431 40 0 31.0457 0 20Z" fill="#F9FAFB"/>
<path fill-rule="evenodd" clip-rule="evenodd" d="M15.6243 15.418C15.6243 13.0017 17.5831 11.043 19.9993 11.043C22.4156 11.043 24.3743 13.0017 24.3743 15.418C24.3743 17.8342 22.4156 19.793 19.9993 19.793C17.5831 19.793 15.6243 17.8342 15.6243 15.418ZM19.9993 12.293C18.2735 12.293 16.8743 13.6921 16.8743 15.418C16.8743 17.1439 18.2735 18.543 19.9993 18.543C21.7252 18.543 23.1243 17.1439 23.1243 15.418C23.1243 13.6921 21.7252 12.293 19.9993 12.293Z" fill="#1B8354"/>
<path d="M21.1037 22.5217C19.043 22.0272 16.8226 22.3349 14.9672 23.4396C14.8273 23.5229 14.674 23.6099 14.5134 23.701C13.9196 24.0379 13.2262 24.4313 12.7428 24.9044C12.4427 25.1982 12.3148 25.4405 12.2943 25.6277C12.2781 25.7764 12.3156 26.0215 12.6912 26.3792C13.5544 27.2016 14.4315 27.7096 15.4919 27.7096H20.8328C21.178 27.7096 21.4578 27.9894 21.4578 28.3346C21.4578 28.6798 21.178 28.9596 20.8328 28.9596H15.4919C13.9766 28.9596 12.8051 28.2143 11.8289 27.2843C11.2631 26.7452 10.981 26.1385 11.0517 25.4919C11.1182 24.884 11.4837 24.3877 11.8684 24.0111C12.4836 23.409 13.3815 22.9025 13.9755 22.5673C14.1111 22.4909 14.2308 22.4233 14.3277 22.3656C16.4711 21.0893 19.0268 20.7379 21.3953 21.3062C21.731 21.3867 21.9378 21.7241 21.8572 22.0598C21.7767 22.3954 21.4393 22.6022 21.1037 22.5217Z" fill="#1B8354"/>
<path fill-rule="evenodd" clip-rule="evenodd" d="M25.416 21.8763C23.46 21.8763 21.8743 23.462 21.8743 25.418C21.8743 27.374 23.46 28.9596 25.416 28.9596C27.372 28.9596 28.9577 27.374 28.9577 25.418C28.9577 23.462 27.372 21.8763 25.416 21.8763ZM23.1243 25.418C23.1243 25.0122 23.2298 24.6312 23.4147 24.3006L26.5334 27.4192C26.2028 27.6042 25.8217 27.7096 25.416 27.7096C24.1504 27.7096 23.1243 26.6836 23.1243 25.418ZM27.4173 26.5354L24.2986 23.4167C24.6292 23.2317 25.0103 23.1263 25.416 23.1263C26.6817 23.1263 27.7077 24.1523 27.7077 25.418C27.7077 25.8237 27.6022 26.2048 27.4173 26.5354Z" fill="#1B8354"/>
<path fill-rule="evenodd" clip-rule="evenodd" d="M15.6243 15.418C15.6243 13.0017 17.5831 11.043 19.9993 11.043C22.4156 11.043 24.3743 13.0017 24.3743 15.418C24.3743 17.8342 22.4156 19.793 19.9993 19.793C17.5831 19.793 15.6243 17.8342 15.6243 15.418ZM19.9993 12.293C18.2735 12.293 16.8743 13.6921 16.8743 15.418C16.8743 17.1439 18.2735 18.543 19.9993 18.543C21.7252 18.543 23.1243 17.1439 23.1243 15.418C23.1243 13.6921 21.7252 12.293 19.9993 12.293Z" stroke="#9DA4AE"/>
<path d="M21.1037 22.5217C19.043 22.0272 16.8226 22.3349 14.9672 23.4396C14.8273 23.5229 14.674 23.6099 14.5134 23.701C13.9196 24.0379 13.2262 24.4313 12.7428 24.9044C12.4427 25.1982 12.3148 25.4405 12.2943 25.6277C12.2781 25.7764 12.3156 26.0215 12.6912 26.3792C13.5544 27.2016 14.4315 27.7096 15.4919 27.7096H20.8328C21.178 27.7096 21.4578 27.9894 21.4578 28.3346C21.4578 28.6798 21.178 28.9596 20.8328 28.9596H15.4919C13.9766 28.9596 12.8051 28.2143 11.8289 27.2843C11.2631 26.7452 10.981 26.1385 11.0517 25.4919C11.1182 24.884 11.4837 24.3877 11.8684 24.0111C12.4836 23.409 13.3815 22.9025 13.9755 22.5673C14.1111 22.4909 14.2308 22.4233 14.3277 22.3656C16.4711 21.0893 19.0268 20.7379 21.3953 21.3062C21.731 21.3867 21.9378 21.7241 21.8572 22.0598C21.7767 22.3954 21.4393 22.6022 21.1037 22.5217Z" stroke="#9DA4AE"/>
<path fill-rule="evenodd" clip-rule="evenodd" d="M25.416 21.8763C23.46 21.8763 21.8743 23.462 21.8743 25.418C21.8743 27.374 23.46 28.9596 25.416 28.9596C27.372 28.9596 28.9577 27.374 28.9577 25.418C28.9577 23.462 27.372 21.8763 25.416 21.8763ZM23.1243 25.418C23.1243 25.0122 23.2298 24.6312 23.4147 24.3006L26.5334 27.4192C26.2028 27.6042 25.8217 27.7096 25.416 27.7096C24.1504 27.7096 23.1243 26.6836 23.1243 25.418ZM27.4173 26.5354L24.2986 23.4167C24.6292 23.2317 25.0103 23.1263 25.416 23.1263C26.6817 23.1263 27.7077 24.1523 27.7077 25.418C27.7077 25.8237 27.6022 26.2048 27.4173 26.5354Z" stroke="#9DA4AE"/>
</svg>
