<svg width="18" height="18" viewBox="0 0 18 18" fill="none" xmlns="http://www.w3.org/2000/svg">
<path fill-rule="evenodd" clip-rule="evenodd" d="M4.62435 4.41797C4.62435 2.00172 6.5831 0.0429688 8.99935 0.0429688C11.4156 0.0429688 13.3743 2.00172 13.3743 4.41797C13.3743 6.83421 11.4156 8.79297 8.99935 8.79297C6.5831 8.79297 4.62435 6.83421 4.62435 4.41797ZM8.99935 1.29297C7.27346 1.29297 5.87435 2.69208 5.87435 4.41797C5.87435 6.14386 7.27346 7.54297 8.99935 7.54297C10.7252 7.54297 12.1243 6.14386 12.1243 4.41797C12.1243 2.69208 10.7252 1.29297 8.99935 1.29297Z" fill="#1B8354"/>
<path d="M10.1037 11.5217C8.043 11.0272 5.82256 11.3349 3.96723 12.4396C3.82731 12.5229 3.674 12.6099 3.5134 12.701C2.91956 13.0379 2.22621 13.4313 1.7428 13.9044C1.4427 14.1982 1.31477 14.4405 1.2943 14.6277C1.27806 14.7764 1.31563 15.0215 1.69116 15.3792C2.55437 16.2016 3.43151 16.7096 4.49189 16.7096H9.83283C10.178 16.7096 10.4578 16.9894 10.4578 17.3346C10.4578 17.6798 10.178 17.9596 9.83283 17.9596H4.49189C2.97663 17.9596 1.80514 17.2143 0.828935 16.2843C0.263087 15.7452 -0.0189662 15.1385 0.0517059 14.4919C0.118161 13.884 0.483705 13.3877 0.868429 13.0111C1.48357 12.409 2.38149 11.9025 2.9755 11.5673C3.11106 11.4909 3.23079 11.4233 3.32772 11.3656C5.47108 10.0893 8.02683 9.73787 10.3953 10.3062C10.731 10.3867 10.9378 10.7241 10.8572 11.0598C10.7767 11.3954 10.4393 11.6022 10.1037 11.5217Z" fill="#1B8354"/>
<path fill-rule="evenodd" clip-rule="evenodd" d="M14.416 10.8763C12.46 10.8763 10.8743 12.462 10.8743 14.418C10.8743 16.374 12.46 17.9596 14.416 17.9596C16.372 17.9596 17.9577 16.374 17.9577 14.418C17.9577 12.462 16.372 10.8763 14.416 10.8763ZM12.1243 14.418C12.1243 14.0122 12.2298 13.6312 12.4147 13.3006L15.5334 16.4192C15.2028 16.6042 14.8217 16.7096 14.416 16.7096C13.1504 16.7096 12.1243 15.6836 12.1243 14.418ZM16.4173 15.5354L13.2986 12.4167C13.6292 12.2317 14.0103 12.1263 14.416 12.1263C15.6817 12.1263 16.7077 13.1523 16.7077 14.418C16.7077 14.8237 16.6022 15.2048 16.4173 15.5354Z" fill="#1B8354"/>
<path fill-rule="evenodd" clip-rule="evenodd" d="M4.62435 4.41797C4.62435 2.00172 6.5831 0.0429688 8.99935 0.0429688C11.4156 0.0429688 13.3743 2.00172 13.3743 4.41797C13.3743 6.83421 11.4156 8.79297 8.99935 8.79297C6.5831 8.79297 4.62435 6.83421 4.62435 4.41797ZM8.99935 1.29297C7.27346 1.29297 5.87435 2.69208 5.87435 4.41797C5.87435 6.14386 7.27346 7.54297 8.99935 7.54297C10.7252 7.54297 12.1243 6.14386 12.1243 4.41797C12.1243 2.69208 10.7252 1.29297 8.99935 1.29297Z" stroke="#9DA4AE"/>
<path d="M10.1037 11.5217C8.043 11.0272 5.82256 11.3349 3.96723 12.4396C3.82731 12.5229 3.674 12.6099 3.5134 12.701C2.91956 13.0379 2.22621 13.4313 1.7428 13.9044C1.4427 14.1982 1.31477 14.4405 1.2943 14.6277C1.27806 14.7764 1.31563 15.0215 1.69116 15.3792C2.55437 16.2016 3.43151 16.7096 4.49189 16.7096H9.83283C10.178 16.7096 10.4578 16.9894 10.4578 17.3346C10.4578 17.6798 10.178 17.9596 9.83283 17.9596H4.49189C2.97663 17.9596 1.80514 17.2143 0.828935 16.2843C0.263087 15.7452 -0.0189662 15.1385 0.0517059 14.4919C0.118161 13.884 0.483705 13.3877 0.868429 13.0111C1.48357 12.409 2.38149 11.9025 2.9755 11.5673C3.11106 11.4909 3.23079 11.4233 3.32772 11.3656C5.47108 10.0893 8.02683 9.73787 10.3953 10.3062C10.731 10.3867 10.9378 10.7241 10.8572 11.0598C10.7767 11.3954 10.4393 11.6022 10.1037 11.5217Z" stroke="#9DA4AE"/>
<path fill-rule="evenodd" clip-rule="evenodd" d="M14.416 10.8763C12.46 10.8763 10.8743 12.462 10.8743 14.418C10.8743 16.374 12.46 17.9596 14.416 17.9596C16.372 17.9596 17.9577 16.374 17.9577 14.418C17.9577 12.462 16.372 10.8763 14.416 10.8763ZM12.1243 14.418C12.1243 14.0122 12.2298 13.6312 12.4147 13.3006L15.5334 16.4192C15.2028 16.6042 14.8217 16.7096 14.416 16.7096C13.1504 16.7096 12.1243 15.6836 12.1243 14.418ZM16.4173 15.5354L13.2986 12.4167C13.6292 12.2317 14.0103 12.1263 14.416 12.1263C15.6817 12.1263 16.7077 13.1523 16.7077 14.418C16.7077 14.8237 16.6022 15.2048 16.4173 15.5354Z" stroke="#9DA4AE"/>
</svg>
