<svg width="18" height="18" viewBox="0 0 18 18" fill="none" xmlns="http://www.w3.org/2000/svg">
<path d="M3.37475 17.8332C4.73308 17.9123 6.66476 17.959 8.50642 17.959L8.50557 17.9573C10.1806 17.9573 11.7822 17.919 12.8106 17.8315C13.8356 17.7698 15.8289 17.0448 16.0972 14.734C16.3237 12.7939 16.3082 11.3747 16.3023 10.8332L16.3022 10.8257C16.3006 10.7648 16.3006 10.7157 16.3006 10.679C16.3006 10.334 16.0206 10.054 15.6756 10.054C15.3306 10.054 15.0506 10.334 15.0506 10.679C15.0506 10.6964 15.0509 10.7163 15.0512 10.7388C15.0517 10.7681 15.0522 10.8017 15.0522 10.8399C15.0581 11.354 15.0731 12.719 14.8556 14.5899C14.6389 16.4549 12.7489 16.584 12.7297 16.5848L12.7205 16.586C12.7178 16.5863 12.715 16.5865 12.7122 16.5865C10.6064 16.7673 6.00224 16.734 3.44641 16.5857C1.66391 16.4815 1.29976 14.3507 1.29976 13.7782C1.28642 12.7816 1.29007 10.8422 1.29402 8.7434L1.29475 8.35151C1.29725 7.16568 1.29976 5.939 1.29976 4.804C1.29976 2.1815 2.59558 1.53735 3.68225 1.45901C3.69808 1.45818 3.71392 1.45651 3.72892 1.45401C3.74475 1.45151 5.30974 1.22484 7.30224 1.30817C7.64807 1.32234 7.93891 1.05485 7.95308 0.709846C7.96725 0.364846 7.69973 0.0731746 7.35473 0.0590079C5.34973 -0.0251588 3.78724 0.182349 3.56974 0.213183C2.49224 0.297349 0.0505727 0.918169 0.0505727 4.80317C0.0505727 5.93734 0.0480678 7.16317 0.0455678 8.34817L0.045388 8.44531C0.041285 10.6608 0.0374313 12.7417 0.0505727 13.7857C0.0505727 14.379 0.223917 15.3073 0.708084 16.1373C1.31725 17.1807 2.23975 17.7665 3.37475 17.8332ZM12.2842 6.7215H12.3167V6.72067C12.53 6.72067 12.7292 6.6115 12.8442 6.43067C13.3117 5.69567 14.3175 4.43567 15.0259 4.18484C15.3509 4.06984 15.5209 3.71233 15.4059 3.38733C15.2909 3.06233 14.9333 2.89235 14.6083 3.00735C13.7558 3.30985 12.9067 4.24733 12.3642 4.94983C12.1309 4.61567 11.955 4.43485 11.925 4.40485C11.6809 4.16068 11.285 4.16068 11.0409 4.40485C10.7967 4.64902 10.7967 5.04484 11.0409 5.289C11.045 5.29234 11.3967 5.65401 11.7575 6.37651C11.8575 6.57818 12.0592 6.70983 12.2842 6.7215ZM8.3667 4.8466C8.3667 7.4891 10.5184 9.63826 13.1626 9.63826C15.8067 9.63826 17.9584 7.4891 17.9584 4.8466C17.9584 2.2041 15.8067 0.0549316 13.1626 0.0549316C10.5184 0.0549316 8.3667 2.2041 8.3667 4.8466ZM9.6167 4.8466C9.6167 2.8941 11.2076 1.30493 13.1626 1.30493C15.1176 1.30493 16.7084 2.8941 16.7084 4.8466C16.7084 6.7991 15.1176 8.38826 13.1626 8.38826C11.2076 8.38826 9.6167 6.7991 9.6167 4.8466ZM4.81649 10.4716H8.14982C8.49482 10.4716 8.77482 10.1916 8.77482 9.8466C8.77482 9.5016 8.49482 9.2216 8.14982 9.2216H4.81649C4.47149 9.2216 4.19149 9.5016 4.19149 9.8466C4.19149 10.1916 4.47149 10.4716 4.81649 10.4716ZM4.81649 13.8049H11.4832C11.8282 13.8049 12.1082 13.5249 12.1082 13.1799C12.1082 12.8349 11.8282 12.5549 11.4832 12.5549H4.81649C4.47149 12.5549 4.19149 12.8349 4.19149 13.1799C4.19149 13.5249 4.47149 13.8049 4.81649 13.8049Z" fill="#1B8354"/>
<path d="M3.37475 17.8332C4.73308 17.9123 6.66476 17.959 8.50642 17.959L8.50557 17.9573C10.1806 17.9573 11.7822 17.919 12.8106 17.8315C13.8356 17.7698 15.8289 17.0448 16.0972 14.734C16.3237 12.7939 16.3082 11.3747 16.3023 10.8332L16.3022 10.8257C16.3006 10.7648 16.3006 10.7157 16.3006 10.679C16.3006 10.334 16.0206 10.054 15.6756 10.054C15.3306 10.054 15.0506 10.334 15.0506 10.679C15.0506 10.6964 15.0509 10.7163 15.0512 10.7388C15.0517 10.7681 15.0522 10.8017 15.0522 10.8399C15.0581 11.354 15.0731 12.719 14.8556 14.5899C14.6389 16.4549 12.7489 16.584 12.7297 16.5848L12.7205 16.586C12.7178 16.5863 12.715 16.5865 12.7122 16.5865C10.6064 16.7673 6.00224 16.734 3.44641 16.5857C1.66391 16.4815 1.29976 14.3507 1.29976 13.7782C1.28642 12.7816 1.29007 10.8422 1.29402 8.7434L1.29475 8.35151C1.29725 7.16568 1.29976 5.939 1.29976 4.804C1.29976 2.1815 2.59558 1.53735 3.68225 1.45901C3.69808 1.45818 3.71392 1.45651 3.72892 1.45401C3.74475 1.45151 5.30974 1.22484 7.30224 1.30817C7.64807 1.32234 7.93891 1.05485 7.95308 0.709846C7.96725 0.364846 7.69973 0.0731746 7.35473 0.0590079C5.34973 -0.0251588 3.78724 0.182349 3.56974 0.213183C2.49224 0.297349 0.0505727 0.918169 0.0505727 4.80317C0.0505727 5.93734 0.0480678 7.16317 0.0455678 8.34817L0.045388 8.44531C0.041285 10.6608 0.0374313 12.7417 0.0505727 13.7857C0.0505727 14.379 0.223917 15.3073 0.708084 16.1373C1.31725 17.1807 2.23975 17.7665 3.37475 17.8332ZM12.2842 6.7215H12.3167V6.72067C12.53 6.72067 12.7292 6.6115 12.8442 6.43067C13.3117 5.69567 14.3175 4.43567 15.0259 4.18484C15.3509 4.06984 15.5209 3.71233 15.4059 3.38733C15.2909 3.06233 14.9333 2.89235 14.6083 3.00735C13.7558 3.30985 12.9067 4.24733 12.3642 4.94983C12.1309 4.61567 11.955 4.43485 11.925 4.40485C11.6809 4.16068 11.285 4.16068 11.0409 4.40485C10.7967 4.64902 10.7967 5.04484 11.0409 5.289C11.045 5.29234 11.3967 5.65401 11.7575 6.37651C11.8575 6.57818 12.0592 6.70983 12.2842 6.7215ZM8.3667 4.8466C8.3667 7.4891 10.5184 9.63826 13.1626 9.63826C15.8067 9.63826 17.9584 7.4891 17.9584 4.8466C17.9584 2.2041 15.8067 0.0549316 13.1626 0.0549316C10.5184 0.0549316 8.3667 2.2041 8.3667 4.8466ZM9.6167 4.8466C9.6167 2.8941 11.2076 1.30493 13.1626 1.30493C15.1176 1.30493 16.7084 2.8941 16.7084 4.8466C16.7084 6.7991 15.1176 8.38826 13.1626 8.38826C11.2076 8.38826 9.6167 6.7991 9.6167 4.8466ZM4.81649 10.4716H8.14982C8.49482 10.4716 8.77482 10.1916 8.77482 9.8466C8.77482 9.5016 8.49482 9.2216 8.14982 9.2216H4.81649C4.47149 9.2216 4.19149 9.5016 4.19149 9.8466C4.19149 10.1916 4.47149 10.4716 4.81649 10.4716ZM4.81649 13.8049H11.4832C11.8282 13.8049 12.1082 13.5249 12.1082 13.1799C12.1082 12.8349 11.8282 12.5549 11.4832 12.5549H4.81649C4.47149 12.5549 4.19149 12.8349 4.19149 13.1799C4.19149 13.5249 4.47149 13.8049 4.81649 13.8049Z" stroke="#9DA4AE"/>
</svg>
