<svg width="20" height="20" viewBox="0 0 20 20" fill="none" xmlns="http://www.w3.org/2000/svg">
<path fill-rule="evenodd" clip-rule="evenodd" d="M9.86969 1.45801C9.40204 1.45795 8.97476 1.45789 8.61946 1.5197C8.21393 1.59025 7.85421 1.74736 7.54979 2.0817C7.26576 2.39365 7.097 2.7872 6.95967 3.23703C6.83526 3.64455 6.71979 4.15937 6.5813 4.79142L3.65902 4.79138C3.3289 4.79109 3.0535 4.79084 2.81771 4.84978C2.14347 5.01831 1.59144 5.54617 1.47671 6.25071C1.43703 6.49434 1.47518 6.76626 1.51527 7.05196L1.52528 7.12361L1.53848 7.21897C1.65838 8.08565 1.73484 8.63831 1.928 9.10852C2.02794 9.35179 2.1504 9.58304 2.29274 9.80058L2.29273 11.2944C2.29272 12.8278 2.29271 14.0389 2.41297 14.986C2.53624 15.9567 2.79541 16.7444 3.38542 17.3692C3.9802 17.9989 4.73822 18.2802 5.67157 18.4131C6.57288 18.5414 7.72253 18.5414 9.16481 18.5413H10.8373C12.2796 18.5414 13.4293 18.5414 14.3306 18.4131C15.2639 18.2802 16.0219 17.9989 16.6167 17.3692C17.2067 16.7444 17.4659 15.9567 17.5892 14.986C17.7094 14.0389 17.7094 12.8278 17.7094 11.2944V9.80051C17.8517 9.58299 17.9742 9.35177 18.0741 9.10852C18.2673 8.63831 18.3437 8.08564 18.4636 7.21896L18.4768 7.12361L18.4868 7.05197C18.5269 6.76627 18.5651 6.49435 18.5254 6.25071C18.4107 5.54617 17.8586 5.01831 17.1844 4.84978C16.9486 4.79084 16.6732 4.79109 16.3431 4.79138L13.4207 4.79142C13.2823 4.15937 13.1668 3.64455 13.0424 3.23703C12.905 2.7872 12.7363 2.39365 12.4523 2.0817C12.1478 1.74736 11.7881 1.59025 11.3826 1.5197C11.0273 1.45789 10.6 1.45795 10.1324 1.45801H9.86969ZM12.1408 4.79142C12.0289 4.28673 11.9392 3.90461 11.8469 3.60202C11.7283 3.21363 11.6259 3.03077 11.528 2.92325C11.4505 2.83814 11.3656 2.78552 11.1683 2.7512C10.9325 2.71017 10.6153 2.70802 10.0863 2.70802H9.91574C9.3868 2.70802 9.06955 2.71017 8.8337 2.7512C8.63646 2.78552 8.55157 2.83814 8.47407 2.92325C8.37618 3.03077 8.27377 3.21363 8.1552 3.60202C8.06282 3.90461 7.9731 4.28673 7.86127 4.79142H12.1408ZM3.34804 9.12972C3.40452 9.18337 3.45099 9.24745 3.48435 9.31889C3.95183 9.91752 4.66003 10.3637 5.50087 10.5418C5.87648 10.6214 6.33122 10.6248 7.43224 10.6248H7.72667C7.73401 10.567 7.7444 10.5103 7.75908 10.4555C7.89393 9.95224 8.28702 9.55915 8.79028 9.4243C8.97907 9.37372 9.18993 9.37414 9.39208 9.37454L9.4455 9.37461H10.5566L10.61 9.37454C10.8122 9.37414 11.0231 9.37372 11.2118 9.4243C11.7151 9.55915 12.1082 9.95224 12.243 10.4555C12.2577 10.5103 12.2681 10.567 12.2754 10.6248H12.5699C13.6709 10.6248 14.1256 10.6214 14.5012 10.5418C15.3421 10.3637 16.0504 9.91745 16.5178 9.31875C16.5512 9.24742 16.5976 9.18342 16.654 9.12983C16.7583 8.97259 16.8468 8.80656 16.9178 8.63354C17.043 8.32894 17.1009 7.94652 17.2386 6.95207C17.2644 6.76592 17.2804 6.6493 17.2882 6.56039C17.2957 6.47432 17.2916 6.45135 17.2916 6.45163C17.2668 6.29924 17.1321 6.12517 16.8813 6.06247C16.8163 6.04623 16.7127 6.04142 16.2714 6.04142H3.73073C3.28943 6.04142 3.18581 6.04623 3.12083 6.06247C2.86999 6.12517 2.73527 6.29924 2.71045 6.45163C2.7105 6.45135 2.70641 6.47433 2.71393 6.56039C2.7217 6.6493 2.73767 6.76592 2.76346 6.95207C2.90122 7.94652 2.95912 8.32894 3.08424 8.63354C3.1553 8.80652 3.2438 8.97252 3.34804 9.12972ZM3.54274 11.2497V11.0532C4.04647 11.3898 4.6235 11.6337 5.24182 11.7647C5.76217 11.8749 6.35798 11.8749 7.34478 11.8748L7.71875 11.8748C7.82407 13.0427 8.80568 13.9579 10.0011 13.9579C11.1964 13.9579 12.178 13.0427 12.2834 11.8748L12.6573 11.8748C13.6441 11.8749 14.2399 11.8749 14.7603 11.7647C15.3786 11.6337 15.9557 11.3897 16.4594 11.0532V11.2497C16.4594 12.8377 16.4582 13.9694 16.3491 14.8285C16.2419 15.6732 16.04 16.1593 15.7079 16.5109C15.3807 16.8574 14.9356 17.0643 14.1544 17.1755C13.3514 17.2899 12.2908 17.2913 10.7881 17.2913H9.21403C7.7113 17.2913 6.65077 17.2899 5.84774 17.1755C5.06652 17.0643 4.62148 16.8574 4.29419 16.5109C3.96213 16.1593 3.76027 15.6732 3.65302 14.8285C3.54392 13.9694 3.54274 12.8377 3.54274 11.2497ZM8.96704 10.777C8.98663 10.7068 9.04153 10.6518 9.11178 10.6323C9.11582 10.6316 9.13218 10.6292 9.17011 10.6275C9.2304 10.6248 9.31068 10.6246 9.4455 10.6246H10.5566C10.6914 10.6246 10.7717 10.6248 10.832 10.6275C10.8699 10.6292 10.8863 10.6316 10.8903 10.6323C10.9606 10.6518 11.0155 10.7068 11.0351 10.777C11.0357 10.781 11.0381 10.7974 11.0398 10.8353C11.0426 10.8956 11.0427 10.9759 11.0427 11.1107V11.6663C11.0427 12.2416 10.5764 12.7079 10.0011 12.7079C9.42576 12.7079 8.95939 12.2416 8.95939 11.6663V11.1107C8.95939 10.9759 8.95954 10.8956 8.96229 10.8353C8.96402 10.7974 8.96638 10.781 8.96704 10.777Z" fill="#1B8354"/>
</svg>
