<svg width="40" height="40" viewBox="0 0 40 40" fill="none" xmlns="http://www.w3.org/2000/svg">
<path d="M0 20C0 8.95431 8.95431 0 20 0C31.0457 0 40 8.95431 40 20C40 31.0457 31.0457 40 20 40C8.95431 40 0 31.0457 0 20Z" fill="#F3FCF6"/>
<path d="M18.75 14.3763C18.4048 14.3763 18.125 14.6561 18.125 15.0013C18.125 15.3465 18.4048 15.6263 18.75 15.6263L21.25 15.6263C21.5952 15.6263 21.875 15.3465 21.875 15.0013C21.875 14.6561 21.5952 14.3763 21.25 14.3763H18.75Z" fill="#085D3A"/>
<path d="M18.75 17.293C18.4048 17.293 18.125 17.5728 18.125 17.918C18.125 18.2631 18.4048 18.543 18.75 18.543L21.25 18.543C21.5952 18.543 21.875 18.2631 21.875 17.918C21.875 17.5728 21.5952 17.293 21.25 17.293L18.75 17.293Z" fill="#085D3A"/>
<path d="M18.75 20.2096C18.4048 20.2096 18.125 20.4895 18.125 20.8346C18.125 21.1798 18.4048 21.4596 18.75 21.4596H21.25C21.5952 21.4596 21.875 21.1798 21.875 20.8346C21.875 20.4895 21.5952 20.2096 21.25 20.2096H18.75Z" fill="#085D3A"/>
<path fill-rule="evenodd" clip-rule="evenodd" d="M12.5 27.7096C12.1548 27.7096 11.875 27.9895 11.875 28.3346C11.875 28.6798 12.1548 28.9596 12.5 28.9596L27.5 28.9596C27.8452 28.9596 28.125 28.6798 28.125 28.3346C28.125 27.9895 27.8452 27.7096 27.5 27.7096H26.4583L26.4583 15.0013C26.4583 14.2983 26.4225 13.6915 26.3108 13.1829C26.1975 12.6673 25.9979 12.2136 25.6428 11.8585C25.2877 11.5034 24.834 11.3038 24.3184 11.1905C23.8098 11.0788 23.203 11.043 22.5 11.043H17.5C16.797 11.043 16.1902 11.0788 15.6816 11.1905C15.166 11.3038 14.7123 11.5034 14.3572 11.8585C14.0021 12.2136 13.8025 12.6673 13.6892 13.1829C13.5775 13.6915 13.5417 14.2983 13.5417 15.0013L13.5417 27.7096H12.5ZM14.7917 27.7096L14.7917 15.0013C14.7917 14.3254 14.8278 13.8261 14.9101 13.4511C14.991 13.0832 15.1076 12.8759 15.2411 12.7424C15.3746 12.6089 15.5819 12.4923 15.9498 12.4114C16.3248 12.3291 16.8241 12.293 17.5 12.293L22.5 12.293C23.1759 12.293 23.6752 12.3291 24.0502 12.4114C24.4181 12.4923 24.6254 12.6089 24.7589 12.7424C24.8924 12.8759 25.009 13.0832 25.0899 13.4511C25.1722 13.8261 25.2083 14.3254 25.2083 15.0013L25.2083 27.7096H23.125V25.8346C23.125 25.4764 23.1071 25.1461 23.0439 24.8584C22.9792 24.5636 22.8586 24.2752 22.6257 24.0423C22.3928 23.8094 22.1043 23.6888 21.8096 23.624C21.5219 23.5608 21.1916 23.543 20.8333 23.543H19.1667C18.8084 23.543 18.4781 23.5608 18.1904 23.624C17.8957 23.6888 17.6072 23.8094 17.3743 24.0423C17.1414 24.2752 17.0208 24.5636 16.9561 24.8584C16.8929 25.1461 16.875 25.4764 16.875 25.8346V27.7096H14.7917ZM18.125 27.7096L21.875 27.7096V25.8346C21.875 25.5034 21.8569 25.2807 21.823 25.1266C21.7908 24.9796 21.7532 24.9375 21.7418 24.9262C21.7304 24.9148 21.6884 24.8772 21.5414 24.8449C21.3873 24.8111 21.1645 24.793 20.8333 24.793H19.1667C18.8355 24.793 18.6127 24.8111 18.4586 24.8449C18.3116 24.8772 18.2696 24.9148 18.2582 24.9262C18.2468 24.9375 18.2092 24.9796 18.177 25.1266C18.1431 25.2807 18.125 25.5034 18.125 25.8346V27.7096Z" fill="#085D3A"/>
</svg>
