<svg width="49" height="48" viewBox="0 0 49 48" fill="none" xmlns="http://www.w3.org/2000/svg">
<path d="M21.333 10.5C20.5046 10.5 19.833 11.1716 19.833 12C19.833 12.8284 20.5046 13.5 21.333 13.5L27.333 13.5C28.1614 13.5 28.833 12.8284 28.833 12C28.833 11.1716 28.1614 10.5 27.333 10.5L21.333 10.5Z" fill="#D2D6DB"/>
<path d="M21.333 17.5C20.5046 17.5 19.833 18.1716 19.833 19C19.833 19.8284 20.5046 20.5 21.333 20.5L27.333 20.5C28.1614 20.5 28.833 19.8284 28.833 19C28.833 18.1716 28.1614 17.5 27.333 17.5L21.333 17.5Z" fill="#D2D6DB"/>
<path d="M21.333 24.5C20.5046 24.5 19.833 25.1716 19.833 26C19.833 26.8284 20.5046 27.5 21.333 27.5L27.333 27.5C28.1614 27.5 28.833 26.8284 28.833 26C28.833 25.1716 28.1614 24.5 27.333 24.5L21.333 24.5Z" fill="#D2D6DB"/>
<path fill-rule="evenodd" clip-rule="evenodd" d="M6.33301 42.5C5.50458 42.5 4.83301 43.1716 4.83301 44C4.83301 44.8284 5.50458 45.5 6.33301 45.5L42.333 45.5C43.1614 45.5 43.833 44.8284 43.833 44C43.833 43.1716 43.1614 42.5 42.333 42.5H39.833L39.833 12C39.833 10.3129 39.747 8.85647 39.4788 7.6359C39.207 6.39835 38.7279 5.30953 37.8757 4.45734C37.0235 3.60515 35.9347 3.12605 34.6971 2.85419C33.4765 2.58605 32.0201 2.5 30.333 2.5L18.333 2.5C16.6459 2.5 15.1895 2.58605 13.9689 2.85419C12.7314 3.12605 11.6425 3.60515 10.7903 4.45734C9.93816 5.30953 9.45906 6.39835 9.18719 7.6359C8.91906 8.85647 8.83301 10.3129 8.83301 12L8.83301 42.5H6.33301ZM11.833 42.5L11.833 12C11.833 10.3778 11.9196 9.17953 12.1173 8.27959C12.3113 7.39665 12.5912 6.89914 12.9117 6.57866C13.2321 6.25818 13.7297 5.97828 14.6126 5.78431C15.5125 5.58662 16.7108 5.5 18.333 5.5L30.333 5.5C31.9552 5.5 33.1535 5.58662 34.0534 5.78431C34.9364 5.97828 35.4339 6.25818 35.7543 6.57866C36.0748 6.89914 36.3547 7.39665 36.5487 8.2796C36.7464 9.17953 36.833 10.3778 36.833 12L36.833 42.5H31.833L31.833 38C31.833 37.1402 31.7901 36.3475 31.6384 35.657C31.483 34.9496 31.1937 34.2574 30.6347 33.6983C30.0756 33.1393 29.3834 32.85 28.676 32.6946C27.9855 32.5429 27.1928 32.5 26.333 32.5H22.333C21.4732 32.5 20.6805 32.5429 19.99 32.6946C19.2826 32.85 18.5904 33.1393 18.0313 33.6983C17.4723 34.2574 17.183 34.9496 17.0276 35.657C16.8759 36.3475 16.833 37.1402 16.833 38L16.833 42.5H11.833ZM19.833 42.5H28.833L28.833 38C28.833 37.2051 28.7896 36.6705 28.7083 36.3007C28.6308 35.9479 28.5407 35.847 28.5133 35.8197C28.486 35.7924 28.3851 35.7022 28.0323 35.6247C27.6625 35.5434 27.1279 35.5 26.333 35.5H22.333C21.5381 35.5 21.0035 35.5434 20.6337 35.6247C20.2809 35.7022 20.18 35.7924 20.1527 35.8197C20.1254 35.847 20.0352 35.9479 19.9577 36.3007C19.8765 36.6705 19.833 37.2051 19.833 38L19.833 42.5Z" fill="#D2D6DB"/>
</svg>
