<svg width="22" height="22" viewBox="0 0 22 22" fill="none" xmlns="http://www.w3.org/2000/svg">
<path d="M13.25 12C13.25 11.5858 13.5858 11.25 14 11.25H16C16.4142 11.25 16.75 11.5858 16.75 12C16.75 12.4142 16.4142 12.75 16 12.75H14C13.5858 12.75 13.25 12.4142 13.25 12Z" fill="#1B8354"/>
<path d="M13.25 15C13.25 14.5858 13.5858 14.25 14 14.25H16C16.4142 14.25 16.75 14.5858 16.75 15C16.75 15.4142 16.4142 15.75 16 15.75H14C13.5858 15.75 13.25 15.4142 13.25 15Z" fill="#1B8354"/>
<path fill-rule="evenodd" clip-rule="evenodd" d="M1 20.25C0.585786 20.25 0.25 20.5858 0.25 21C0.25 21.4142 0.585786 21.75 1 21.75L21 21.75C21.4142 21.75 21.75 21.4142 21.75 21C21.75 20.5858 21.4142 20.25 21 20.25H20.75V11C20.75 10.3633 20.7178 9.80098 20.6128 9.32323C20.506 8.83699 20.3139 8.39172 19.9611 8.03892C19.6083 7.68612 19.163 7.49401 18.6768 7.38719C18.199 7.28223 17.6367 7.25 17 7.25L14.75 7.25V4C14.75 3.36327 14.7178 2.80099 14.6128 2.32323C14.506 1.83699 14.3139 1.39172 13.9611 1.03892C13.6083 0.686117 13.163 0.494005 12.6768 0.387186C12.199 0.282234 11.6367 0.25 11 0.25L5 0.25C4.36327 0.25 3.80098 0.282234 3.32323 0.387186C2.83699 0.494005 2.39172 0.686115 2.03892 1.03892C1.68612 1.39172 1.49401 1.83699 1.38719 2.32323C1.28223 2.80098 1.25 3.36327 1.25 4L1.25 20.25H1ZM14.25 20.25L14.25 18C14.25 17.5858 14.5858 17.25 15 17.25C15.4142 17.25 15.75 17.5858 15.75 18L15.75 20.25H19.25V11C19.25 10.3957 19.2175 9.96252 19.1477 9.64508C19.0799 9.33614 18.9874 9.18653 18.9004 9.09958C18.8135 9.01263 18.6639 8.92012 18.3549 8.85225C18.0375 8.78252 17.6043 8.75 17 8.75H13C12.3957 8.75 11.9625 8.78252 11.6451 8.85225C11.3361 8.92012 11.1865 9.01263 11.0996 9.09958C11.0126 9.18653 10.9201 9.33614 10.8523 9.64508C10.7825 9.96251 10.75 10.3957 10.75 11L10.75 20.25H14.25ZM2.75 12.25L5 12.25C5.41421 12.25 5.75 12.5858 5.75 13C5.75 13.4142 5.41421 13.75 5 13.75L2.75 13.75L2.75 20.25L9.25 20.25L9.25 11C9.25 10.3633 9.28223 9.80098 9.38719 9.32323C9.49401 8.83699 9.68612 8.39172 10.0389 8.03892C10.3917 7.68612 10.837 7.49401 11.3232 7.38719C11.801 7.28223 12.3633 7.25 13 7.25H13.25V4C13.25 3.39573 13.2175 2.96251 13.1477 2.64508C13.0799 2.33614 12.9874 2.18653 12.9004 2.09958C12.8135 2.01263 12.6639 1.92012 12.3549 1.85225C12.0375 1.78252 11.6043 1.75 11 1.75L5 1.75C4.39573 1.75 3.96252 1.78252 3.64508 1.85225C3.33614 1.92012 3.18653 2.01263 3.09958 2.09958C3.01263 2.18653 2.92012 2.33614 2.85225 2.64508C2.78252 2.96251 2.75 3.39573 2.75 4V4.25H5C5.41421 4.25 5.75 4.58579 5.75 5C5.75 5.41421 5.41421 5.75 5 5.75H2.75L2.75 8.25L5 8.25C5.41421 8.25 5.75 8.58579 5.75 9C5.75 9.41421 5.41421 9.75 5 9.75L2.75 9.75L2.75 12.25Z" fill="#1B8354"/>
</svg>
