<svg width="26" height="27" viewBox="0 0 26 27" fill="none" xmlns="http://www.w3.org/2000/svg">
  <g id="elements">
  <g id="Icon">
  <path d="M15.6247 14.6666C15.6247 14.1833 16.0164 13.7916 16.4997 13.7916L18.833 13.7916C19.3163 13.7916 19.708 14.1833 19.708 14.6666C19.708 15.1498 19.3163 15.5416 18.833 15.5416L16.4997 15.5416C16.0164 15.5416 15.6247 15.1498 15.6247 14.6666Z" fill="#161616"/>
  <path d="M15.6247 18.1666C15.6247 17.6833 16.0164 17.2916 16.4997 17.2916H18.833C19.3163 17.2916 19.708 17.6833 19.708 18.1666C19.708 18.6498 19.3163 19.0416 18.833 19.0416H16.4997C16.0164 19.0416 15.6247 18.6498 15.6247 18.1666Z" fill="#161616"/>
  <path fill-rule="evenodd" clip-rule="evenodd" d="M1.33301 24.2916C0.849759 24.2916 0.458008 24.6833 0.458008 25.1666C0.458008 25.6498 0.849759 26.0416 1.33301 26.0416L24.6663 26.0416C25.1496 26.0416 25.5413 25.6498 25.5413 25.1666C25.5413 24.6833 25.1496 24.2916 24.6663 24.2916H24.3747L24.3747 13.4999C24.3747 12.7571 24.3371 12.1011 24.2146 11.5437C24.09 10.9764 23.8659 10.4569 23.4543 10.0453C23.0427 9.63372 22.5232 9.40959 21.9559 9.28497C21.3985 9.16252 20.7425 9.12492 19.9997 9.12492L17.3747 9.12492L17.3747 5.33325C17.3747 4.5904 17.3371 3.9344 17.2146 3.37702C17.09 2.80974 16.8659 2.29026 16.4543 1.87866C16.0427 1.46706 15.5232 1.24292 14.9559 1.1183C14.3985 0.995859 13.7425 0.958252 12.9997 0.958252L5.99967 0.958252C5.25682 0.958252 4.60082 0.995859 4.04345 1.1183C3.47616 1.24292 2.95669 1.46705 2.54508 1.87866C2.13348 2.29026 1.90935 2.80974 1.78473 3.37702C1.66228 3.9344 1.62467 4.5904 1.62467 5.33325L1.62467 24.2916H1.33301ZM16.7913 24.2916L16.7913 21.6666C16.7913 21.1833 17.1831 20.7916 17.6663 20.7916C18.1496 20.7916 18.5413 21.1833 18.5413 21.6666L18.5413 24.2916L22.6247 24.2916L22.6247 13.4999C22.6247 12.7949 22.5867 12.2895 22.5054 11.9192C22.4262 11.5587 22.3183 11.3842 22.2168 11.2828C22.1154 11.1813 21.9408 11.0734 21.5804 10.9942C21.2101 10.9129 20.7047 10.8749 19.9997 10.8749L15.333 10.8749C14.628 10.8749 14.1226 10.9129 13.7523 10.9942C13.3918 11.0734 13.2173 11.1813 13.1159 11.2828C13.0144 11.3842 12.9065 11.5587 12.8273 11.9192C12.7459 12.2895 12.708 12.7949 12.708 13.4999L12.708 24.2916H16.7913ZM3.37467 14.9583L5.99967 14.9583C6.48292 14.9583 6.87467 15.35 6.87467 15.8333C6.87467 16.3165 6.48292 16.7083 5.99967 16.7083H3.37467L3.37467 24.2916L10.958 24.2916L10.958 13.4999C10.958 12.7571 10.9956 12.1011 11.1181 11.5437C11.2427 10.9764 11.4668 10.4569 11.8784 10.0453C12.29 9.63372 12.8095 9.40959 13.3768 9.28497C13.9342 9.16252 14.5902 9.12492 15.333 9.12492H15.6247V5.33325C15.6247 4.62827 15.5867 4.12285 15.5054 3.75251C15.4262 3.39208 15.3183 3.21753 15.2168 3.1161C15.1154 3.01466 14.9408 2.90673 14.5804 2.82754C14.2101 2.74619 13.7047 2.70825 12.9997 2.70825L5.99967 2.70825C5.29469 2.70825 4.78928 2.74619 4.41893 2.82754C4.0585 2.90673 3.88396 3.01466 3.78252 3.1161C3.68108 3.21753 3.57315 3.39208 3.49397 3.75251C3.41261 4.12285 3.37467 4.62827 3.37467 5.33325L3.37467 5.62492L5.99967 5.62492C6.48292 5.62492 6.87467 6.01667 6.87467 6.49992C6.87467 6.98317 6.48292 7.37492 5.99967 7.37492L3.37467 7.37492L3.37467 10.2916L5.99967 10.2916C6.48292 10.2916 6.87467 10.6833 6.87467 11.1666C6.87467 11.6498 6.48292 12.0416 5.99967 12.0416L3.37467 12.0416L3.37467 14.9583Z" fill="#161616"/>
  </g>
  </g>
  </svg>
