<svg width="44" height="44" viewBox="0 0 44 44" fill="none" xmlns="http://www.w3.org/2000/svg">
<g filter="url(#filter0_d_3106_81823)">
<path d="M2.5 21C2.5 10.2304 11.2304 1.5 22 1.5C32.7696 1.5 41.5 10.2304 41.5 21C41.5 31.7696 32.7696 40.5 22 40.5C11.2304 40.5 2.5 31.7696 2.5 21Z" stroke="#D2D6DB" shape-rendering="crispEdges"/>
<path d="M23.8753 21.8334C23.8753 21.4882 24.1551 21.2084 24.5003 21.2084H26.167C26.5122 21.2084 26.792 21.4882 26.792 21.8334C26.792 22.1786 26.5122 22.4584 26.167 22.4584H24.5003C24.1551 22.4584 23.8753 22.1786 23.8753 21.8334Z" fill="#384250"/>
<path d="M23.8753 24.3334C23.8753 23.9882 24.1551 23.7084 24.5003 23.7084H26.167C26.5122 23.7084 26.792 23.9882 26.792 24.3334C26.792 24.6786 26.5122 24.9584 26.167 24.9584H24.5003C24.1551 24.9584 23.8753 24.6786 23.8753 24.3334Z" fill="#384250"/>
<path fill-rule="evenodd" clip-rule="evenodd" d="M13.667 28.7084C13.3218 28.7084 13.042 28.9882 13.042 29.3334C13.042 29.6786 13.3218 29.9584 13.667 29.9584L30.3337 29.9584C30.6788 29.9584 30.9587 29.6786 30.9587 29.3334C30.9587 28.9882 30.6788 28.7084 30.3337 28.7084H30.1253V21.0001C30.1253 20.4695 30.0985 20.0009 30.011 19.6028C29.922 19.1976 29.7619 18.8265 29.4679 18.5325C29.1739 18.2385 28.8028 18.0784 28.3976 17.9894C27.9995 17.9019 27.5309 17.8751 27.0003 17.8751H25.1253V15.1667C25.1253 14.6361 25.0985 14.1676 25.011 13.7694C24.922 13.3642 24.7619 12.9932 24.4679 12.6992C24.1739 12.4052 23.8028 12.2451 23.3976 12.1561C22.9995 12.0686 22.5309 12.0417 22.0003 12.0417H17.0003C16.4697 12.0417 16.0011 12.0686 15.603 12.1561C15.1978 12.2451 14.8268 12.4052 14.5328 12.6992C14.2388 12.9932 14.0787 13.3642 13.9896 13.7694C13.9022 14.1676 13.8753 14.6361 13.8753 15.1667L13.8753 28.7084H13.667ZM24.7087 28.7084V26.8334C24.7087 26.4882 24.9885 26.2084 25.3337 26.2084C25.6788 26.2084 25.9587 26.4882 25.9587 26.8334V28.7084H28.8753L28.8753 21.0001C28.8753 20.4965 28.8482 20.1355 28.7901 19.871C28.7336 19.6135 28.6565 19.4889 28.584 19.4164C28.5116 19.3439 28.3869 19.2668 28.1294 19.2103C27.8649 19.1522 27.5039 19.1251 27.0003 19.1251H23.667C23.1634 19.1251 22.8024 19.1522 22.5379 19.2103C22.2804 19.2668 22.1558 19.3439 22.0833 19.4164C22.0109 19.4889 21.9338 19.6135 21.8772 19.871C21.8191 20.1355 21.792 20.4965 21.792 21.0001L21.792 28.7084H24.7087ZM15.1253 22.0417H17.0003C17.3455 22.0417 17.6253 22.3216 17.6253 22.6667C17.6253 23.0119 17.3455 23.2917 17.0003 23.2917H15.1253V28.7084L20.542 28.7084L20.542 21.0001C20.542 20.4695 20.5689 20.0009 20.6563 19.6028C20.7453 19.1976 20.9054 18.8265 21.1994 18.5325C21.4934 18.2385 21.8645 18.0784 22.2697 17.9894C22.6678 17.9019 23.1364 17.8751 23.667 17.8751H23.8753V15.1667C23.8753 14.6632 23.8482 14.3022 23.7901 14.0376C23.7336 13.7802 23.6565 13.6555 23.584 13.5831C23.5116 13.5106 23.3869 13.4335 23.1294 13.377C22.8649 13.3188 22.5039 13.2917 22.0003 13.2917L17.0003 13.2917C16.4968 13.2917 16.1358 13.3188 15.8712 13.377C15.6138 13.4335 15.4891 13.5106 15.4166 13.5831C15.3442 13.6555 15.2671 13.7802 15.2105 14.0376C15.1524 14.3022 15.1253 14.6632 15.1253 15.1667V15.3751H17.0003C17.3455 15.3751 17.6253 15.6549 17.6253 16.0001C17.6253 16.3453 17.3455 16.6251 17.0003 16.6251H15.1253V18.7084H17.0003C17.3455 18.7084 17.6253 18.9882 17.6253 19.3334C17.6253 19.6786 17.3455 19.9584 17.0003 19.9584H15.1253L15.1253 22.0417Z" fill="#384250"/>
</g>
<defs>
<filter id="filter0_d_3106_81823" x="0" y="0" width="44" height="44" filterUnits="userSpaceOnUse" color-interpolation-filters="sRGB">
<feFlood flood-opacity="0" result="BackgroundImageFix"/>
<feColorMatrix in="SourceAlpha" type="matrix" values="0 0 0 0 0 0 0 0 0 0 0 0 0 0 0 0 0 0 127 0" result="hardAlpha"/>
<feOffset dy="1"/>
<feGaussianBlur stdDeviation="1"/>
<feComposite in2="hardAlpha" operator="out"/>
<feColorMatrix type="matrix" values="0 0 0 0 0.0627451 0 0 0 0 0.0941176 0 0 0 0 0.156863 0 0 0 0.05 0"/>
<feBlend mode="normal" in2="BackgroundImageFix" result="effect1_dropShadow_3106_81823"/>
<feBlend mode="normal" in="SourceGraphic" in2="effect1_dropShadow_3106_81823" result="shape"/>
</filter>
</defs>
</svg>
