<svg width="48" height="48" viewBox="0 0 48 48" fill="none" xmlns="http://www.w3.org/2000/svg">
<path d="M28.5 26C28.5 25.1716 29.1716 24.5 30 24.5H34C34.8284 24.5 35.5 25.1716 35.5 26C35.5 26.8284 34.8284 27.5 34 27.5H30C29.1716 27.5 28.5 26.8284 28.5 26Z" fill="#D2D6DB"/>
<path d="M28.5 32C28.5 31.1716 29.1716 30.5 30 30.5H34C34.8284 30.5 35.5 31.1716 35.5 32C35.5 32.8284 34.8284 33.5 34 33.5H30C29.1716 33.5 28.5 32.8284 28.5 32Z" fill="#D2D6DB"/>
<path fill-rule="evenodd" clip-rule="evenodd" d="M4 42.5C3.17157 42.5 2.5 43.1716 2.5 44C2.5 44.8284 3.17157 45.5 4 45.5L44 45.5C44.8284 45.5 45.5 44.8284 45.5 44C45.5 43.1716 44.8284 42.5 44 42.5H43.5V24C43.5 22.7265 43.4355 21.602 43.2256 20.6465C43.012 19.674 42.6278 18.7834 41.9222 18.0778C41.2166 17.3722 40.326 16.988 39.3535 16.7744C38.398 16.5645 37.2735 16.5 36 16.5H31.5V10C31.5 8.72654 31.4355 7.60197 31.2256 6.64647C31.012 5.67398 30.6278 4.78345 29.9222 4.07784C29.2166 3.37223 28.326 2.98801 27.3535 2.77437C26.398 2.56447 25.2735 2.5 24 2.5L12 2.5C10.7265 2.5 9.60197 2.56447 8.64647 2.77437C7.67398 2.98801 6.78345 3.37223 6.07784 4.07784C5.37223 4.78345 4.98801 5.67398 4.77437 6.64647C4.56447 7.60197 4.5 8.72654 4.5 10L4.5 42.5H4ZM30.5 42.5L30.5 38C30.5 37.1716 31.1716 36.5 32 36.5C32.8284 36.5 33.5 37.1716 33.5 38L33.5 42.5H40.5V24C40.5 22.7915 40.435 21.925 40.2955 21.2902C40.1598 20.6723 39.9747 20.3731 39.8008 20.1992C39.6269 20.0253 39.3277 19.8402 38.7098 19.7045C38.075 19.565 37.2085 19.5 36 19.5H28C26.7915 19.5 25.925 19.565 25.2902 19.7045C24.6723 19.8402 24.3731 20.0253 24.1992 20.1992C24.0253 20.3731 23.8402 20.6723 23.7045 21.2902C23.565 21.925 23.5 22.7915 23.5 24L23.5 42.5H30.5ZM7.5 26.5L12 26.5C12.8284 26.5 13.5 27.1716 13.5 28C13.5 28.8284 12.8284 29.5 12 29.5L7.5 29.5L7.5 42.5L20.5 42.5L20.5 24C20.5 22.7265 20.5645 21.602 20.7744 20.6465C20.988 19.674 21.3722 18.7834 22.0778 18.0778C22.7834 17.3722 23.674 16.988 24.6465 16.7744C25.602 16.5645 26.7265 16.5 28 16.5H28.5V10C28.5 8.79146 28.435 7.92503 28.2955 7.29016C28.1598 6.67228 27.9747 6.37305 27.8008 6.19916C27.6269 6.02527 27.3277 5.84024 26.7098 5.7045C26.075 5.56503 25.2085 5.5 24 5.5L12 5.5C10.7915 5.5 9.92503 5.56503 9.29016 5.7045C8.67227 5.84024 8.37305 6.02527 8.19916 6.19916C8.02527 6.37305 7.84024 6.67227 7.7045 7.29016C7.56503 7.92503 7.5 8.79146 7.5 10V10.5H12C12.8284 10.5 13.5 11.1716 13.5 12C13.5 12.8284 12.8284 13.5 12 13.5H7.5L7.5 18.5L12 18.5C12.8284 18.5 13.5 19.1716 13.5 20C13.5 20.8284 12.8284 21.5 12 21.5L7.5 21.5L7.5 26.5Z" fill="#D2D6DB"/>
</svg>
