<svg width="22" height="22" viewBox="0 0 22 22" fill="none" xmlns="http://www.w3.org/2000/svg">
<g id="elements">
<g id="Icon">
<path d="M6.25 8C6.25 7.58579 6.58579 7.25 7 7.25L10 7.25C10.4142 7.25 10.75 7.58579 10.75 8C10.75 8.41422 10.4142 8.75 10 8.75H7C6.58579 8.75 6.25 8.41421 6.25 8Z" fill="#0C7945"/>
<path d="M6.25 12C6.25 11.5858 6.58579 11.25 7 11.25H10C10.4142 11.25 10.75 11.5858 10.75 12C10.75 12.4142 10.4142 12.75 10 12.75H7C6.58579 12.75 6.25 12.4142 6.25 12Z" fill="#0C7945"/>
<path fill-rule="evenodd" clip-rule="evenodd" d="M12.329 2.46326L7.22719 0.98239C6.11277 0.658881 5.19426 0.392237 4.45678 0.293505C3.68445 0.190108 2.95216 0.246991 2.32725 0.738959C1.70907 1.22563 1.46614 1.92611 1.35616 2.71069C1.24995 3.4684 1.24997 4.45317 1.25 5.6589L1.25 20.25H1C0.585786 20.25 0.25 20.5858 0.25 21C0.25 21.4142 0.585786 21.75 1 21.75H1.99618C1.99745 21.75 1.99873 21.75 2 21.75C2.00128 21.75 2.00255 21.75 2.00382 21.75L14.9962 21.75C14.9975 21.75 14.9987 21.75 15 21.75C15.0013 21.75 15.0026 21.75 15.0038 21.75H21C21.4142 21.75 21.75 21.4142 21.75 21C21.75 20.5858 21.4142 20.25 21 20.25H20.7502V13.4335C20.7502 12.753 20.7502 12.1786 20.6957 11.7102C20.6378 11.2125 20.5116 10.7565 20.2065 10.3465C19.9014 9.93645 19.501 9.6845 19.0409 9.48603C18.6079 9.29924 18.0577 9.13419 17.4059 8.93868L15.75 8.44191V7.12637C15.75 6.40478 15.75 5.8008 15.6944 5.31003C15.6356 4.79176 15.508 4.31996 15.1988 3.89702C14.8878 3.47159 14.4783 3.21207 14.0044 3.01002C13.56 2.82054 12.9959 2.65682 12.329 2.46326ZM15.75 10.008L16.9341 10.3632C17.6376 10.5742 18.1033 10.7152 18.4467 10.8633C18.7721 11.0037 18.9127 11.1205 19.003 11.2419C19.0934 11.3633 19.1648 11.5315 19.2058 11.8835C19.249 12.255 19.2502 12.7416 19.2502 13.4761V20.25H15.75L15.75 10.008ZM14.25 20.25L14.25 7.16858C14.25 6.39374 14.2489 5.87533 14.2039 5.47902C14.161 5.10067 14.0853 4.91558 13.9879 4.78231C13.8923 4.65152 13.7469 4.5309 13.4161 4.38982C13.0651 4.24017 12.5891 4.10069 11.8685 3.8915L6.86845 2.44018C5.6796 2.0951 4.87003 1.86222 4.25774 1.78024C3.66721 1.70118 3.42139 1.78665 3.25511 1.91755C3.08211 2.05375 2.92946 2.29239 2.84164 2.91891C2.75176 3.5601 2.75 4.43885 2.75 5.71725L2.75 20.25H5.25001L5.25 17.9553C5.24995 17.5224 5.24991 17.1256 5.29331 16.8028C5.3411 16.4473 5.45355 16.0716 5.76257 15.7626C6.07159 15.4535 6.44732 15.3411 6.8028 15.2933C7.12561 15.2499 7.52244 15.25 7.95526 15.25H9.04476C9.47757 15.25 9.8744 15.2499 10.1972 15.2933C10.5527 15.3411 10.9284 15.4535 11.2374 15.7626C11.5465 16.0716 11.6589 16.4473 11.7067 16.8028C11.7501 17.1256 11.7501 17.5224 11.75 17.9552L11.75 20.25H14.25ZM6.75001 18L6.75001 20.25L10.25 20.25L10.25 18C10.25 17.5074 10.2484 17.2134 10.2201 17.0027C10.2071 16.9061 10.1918 16.8578 10.1828 16.836C10.1808 16.8309 10.1792 16.8276 10.1781 16.8257L10.1768 16.8232L10.1743 16.8219C10.1724 16.8209 10.1691 16.8192 10.164 16.8172C10.1423 16.8082 10.0939 16.7929 9.99734 16.7799C9.78662 16.7516 9.49261 16.75 9.00001 16.75H8.00001C7.5074 16.75 7.21339 16.7516 7.00267 16.7799C6.90611 16.7929 6.85775 16.8082 6.83597 16.8172C6.83093 16.8192 6.82761 16.8209 6.82568 16.8219L6.82324 16.8232L6.82187 16.8257C6.82086 16.8276 6.81924 16.8309 6.81717 16.836C6.80821 16.8578 6.79291 16.9061 6.77993 17.0027C6.7516 17.2134 6.75001 17.5074 6.75001 18Z" fill="#0C7945"/>
</g>
</g>
</svg>
