<svg width="16" height="18" viewBox="0 0 16 18" fill="none" xmlns="http://www.w3.org/2000/svg">
  <path d="M7.25 9.1875C6.93934 9.1875 6.6875 9.43934 6.6875 9.75C6.6875 10.0607 6.93934 10.3125 7.25 10.3125H11C11.3107 10.3125 11.5625 10.0607 11.5625 9.75C11.5625 9.43934 11.3107 9.1875 11 9.1875H7.25Z" fill="white"/>
  <path d="M5 9.1875C4.68934 9.1875 4.4375 9.43934 4.4375 9.75C4.4375 10.0607 4.68934 10.3125 5 10.3125H5.00674C5.3174 10.3125 5.56924 10.0607 5.56924 9.75C5.56924 9.43934 5.3174 9.1875 5.00674 9.1875H5Z" fill="white"/>
  <path d="M5 12.1875C4.68934 12.1875 4.4375 12.4393 4.4375 12.75C4.4375 13.0607 4.68934 13.3125 5 13.3125H8.75C9.06066 13.3125 9.3125 13.0607 9.3125 12.75C9.3125 12.4393 9.06066 12.1875 8.75 12.1875H5Z" fill="white"/>
  <path d="M10.9933 12.1875C10.6826 12.1875 10.4308 12.4393 10.4308 12.75C10.4308 13.0607 10.6826 13.3125 10.9933 13.3125H11C11.3107 13.3125 11.5625 13.0607 11.5625 12.75C11.5625 12.4393 11.3107 12.1875 11 12.1875H10.9933Z" fill="white"/>
  <path fill-rule="evenodd" clip-rule="evenodd" d="M4.0625 1.5C4.0625 1.18934 3.81066 0.9375 3.5 0.9375C3.18934 0.9375 2.9375 1.18934 2.9375 1.5V1.97609C2.33393 2.14716 1.82488 2.4252 1.40116 2.88327C0.817725 3.51401 0.558387 4.31094 0.434187 5.30963C0.312485 6.28823 0.312492 7.54235 0.3125 9.14253V9.60747C0.312492 11.2077 0.312485 12.4618 0.434187 13.4404C0.558387 14.4391 0.817725 15.236 1.40116 15.8667C1.99036 16.5037 2.74457 16.7926 3.68846 16.9297C4.60199 17.0625 5.76916 17.0625 7.24193 17.0625H8.75807C10.2308 17.0625 11.398 17.0625 12.3115 16.9297C13.2554 16.7926 14.0096 16.5037 14.5988 15.8667C15.1823 15.236 15.4416 14.4391 15.5658 13.4404C15.6875 12.4618 15.6875 11.2076 15.6875 9.60745V9.14255C15.6875 7.54236 15.6875 6.28823 15.5658 5.30963C15.4416 4.31094 15.1823 3.51401 14.5988 2.88327C14.1751 2.4252 13.6661 2.14716 13.0625 1.97609V1.5C13.0625 1.18934 12.8107 0.9375 12.5 0.9375C12.1893 0.9375 11.9375 1.18934 11.9375 1.5V1.77442C11.0855 1.68748 10.037 1.68749 8.75807 1.6875H7.24193C5.96302 1.68749 4.91455 1.68748 4.0625 1.77442V1.5ZM2.22702 3.64719C2.42152 3.43692 2.65347 3.27593 2.95895 3.15438C3.02605 3.38998 3.24288 3.5625 3.5 3.5625C3.81066 3.5625 4.0625 3.31066 4.0625 3V2.90594C4.85825 2.81367 5.88678 2.8125 7.2875 2.8125H8.7125C10.1132 2.8125 11.1417 2.81367 11.9375 2.90594V3C11.9375 3.31066 12.1893 3.5625 12.5 3.5625C12.7571 3.5625 12.974 3.38998 13.0411 3.15439C13.3465 3.27593 13.5785 3.43692 13.773 3.64719C14.1272 4.0301 14.3371 4.55502 14.448 5.4375H1.55196C1.66289 4.55502 1.87283 4.0301 2.22702 3.64719ZM1.46669 6.5625C1.43791 7.28017 1.4375 8.1381 1.4375 9.18243V9.56757C1.4375 11.2163 1.43853 12.4004 1.55059 13.3015C1.66116 14.1906 1.87136 14.7183 2.22702 15.1028C2.57691 15.4811 3.04796 15.6998 3.85028 15.8164C4.67357 15.9361 5.75891 15.9375 7.2875 15.9375H8.7125C10.2411 15.9375 11.3264 15.9361 12.1497 15.8164C12.952 15.6998 13.4231 15.4811 13.773 15.1028C14.1286 14.7183 14.3388 14.1906 14.4494 13.3015C14.5615 12.4004 14.5625 11.2163 14.5625 9.56757V9.18243C14.5625 8.1381 14.5621 7.28017 14.5333 6.5625H1.46669Z" fill="white"/>
</svg>
