<svg width="18" height="18" viewBox="0 0 18 18" fill="none" xmlns="http://www.w3.org/2000/svg">
<g id="elements">
<g id="Icon">
<path fill-rule="evenodd" clip-rule="evenodd" d="M4.6237 0.666748C4.6237 0.32157 4.34388 0.041748 3.9987 0.041748C3.65352 0.041748 3.3737 0.32157 3.3737 0.666748V1.19574C2.70307 1.38582 2.13745 1.69475 1.66665 2.20372C1.01839 2.90454 0.730239 3.79002 0.592239 4.89967C0.457015 5.987 0.457022 7.38047 0.457031 9.15845V9.67505C0.457022 11.453 0.457015 12.8465 0.592239 13.9338C0.730239 15.0435 1.01839 15.929 1.66665 16.6298C2.32132 17.3375 3.15934 17.6585 4.2081 17.8109C5.22313 17.9584 6.51999 17.9584 8.1564 17.9584H8.20703C8.55221 17.9584 8.83203 17.6786 8.83203 17.3334C8.83203 16.9882 8.55221 16.7084 8.20703 16.7084C6.50859 16.7084 5.30266 16.7069 4.3879 16.5739C3.49643 16.4443 2.97304 16.2013 2.58428 15.781C2.1891 15.3538 1.95554 14.7675 1.83268 13.7796C1.70817 12.7784 1.70703 11.4626 1.70703 9.63071V9.20279C1.70703 8.04242 1.70749 7.08916 1.73947 6.29175H16.2579C16.288 7.04144 16.2902 7.92999 16.2904 9.00015C16.2904 9.34533 16.5702 9.62512 16.9154 9.62508C17.2606 9.62505 17.5404 9.3452 17.5404 9.00002C17.5402 7.26649 17.5364 5.90396 17.3972 4.83714C17.2562 3.75671 16.9668 2.89134 16.3307 2.20372C15.8599 1.69475 15.2943 1.38582 14.6237 1.19574V0.666748C14.6237 0.32157 14.3439 0.041748 13.9987 0.041748C13.6535 0.041748 13.3737 0.32157 13.3737 0.666748V0.97166C12.427 0.875057 11.262 0.875068 9.84099 0.875082H8.1564C6.73538 0.875068 5.57042 0.875057 4.6237 0.97166V0.666748ZM16.1632 5.04175H1.83421C1.95747 4.06121 2.19073 3.47797 2.58428 3.05252C2.80039 2.81888 3.05811 2.64001 3.39753 2.50495C3.47208 2.76673 3.71301 2.95841 3.9987 2.95841C4.34388 2.95841 4.6237 2.67859 4.6237 2.33341V2.2289C5.50787 2.12638 6.65067 2.12508 8.20703 2.12508H9.79037C11.3467 2.12508 12.4895 2.12638 13.3737 2.2289V2.33341C13.3737 2.67859 13.6535 2.95841 13.9987 2.95841C14.2844 2.95841 14.5253 2.76673 14.5999 2.50495C14.9393 2.64001 15.197 2.81888 15.4131 3.05252C15.8009 3.47174 16.0331 4.04417 16.1577 4.99893L16.1632 5.04175Z" fill="#067647"/>
<path d="M11.524 11.0581C11.2799 10.8141 10.8842 10.8141 10.6401 11.0581C10.396 11.3022 10.396 11.6979 10.6401 11.942L13.1148 14.4167L10.6401 16.8915C10.396 17.1356 10.396 17.5313 10.6401 17.7754C10.8842 18.0194 11.2799 18.0194 11.524 17.7754L13.9987 15.3006L16.4734 17.7754C16.7175 18.0194 17.1132 18.0194 17.3573 17.7754C17.6014 17.5313 17.6014 17.1356 17.3573 16.8915L14.8826 14.4167L17.3573 11.942C17.6014 11.6979 17.6014 11.3022 17.3573 11.0581C17.1132 10.8141 16.7175 10.8141 16.4734 11.0581L13.9987 13.5329L11.524 11.0581Z" fill="#067647"/>
</g>
</g>
</svg>
