<svg width="18" height="18" viewBox="0 0 18 18" fill="none" xmlns="http://www.w3.org/2000/svg">
<path fill-rule="evenodd" clip-rule="evenodd" d="M4.62516 0.666016C4.62516 0.320838 4.34534 0.0410156 4.00016 0.0410156C3.65498 0.0410156 3.37516 0.320838 3.37516 0.666016V1.19501C2.70453 1.38508 2.13891 1.69401 1.66812 2.20298C1.01986 2.9038 0.731704 3.78928 0.593703 4.89894C0.45848 5.98627 0.458487 7.37974 0.458496 9.15771V9.67432C0.458487 11.4523 0.45848 12.8458 0.593703 13.9331C0.731704 15.0427 1.01986 15.9282 1.66812 16.629C2.32278 17.3368 3.1608 17.6577 4.20957 17.8102C5.22459 17.9577 6.52145 17.9577 8.15786 17.9577H8.2085C8.55367 17.9577 8.8335 17.6779 8.8335 17.3327C8.8335 16.9875 8.55367 16.7077 8.2085 16.7077C6.51006 16.7077 5.30413 16.7061 4.38936 16.5732C3.4979 16.4436 2.97451 16.2005 2.58574 15.7802C2.19057 15.353 1.95701 14.7667 1.83415 13.7788C1.70964 12.7776 1.7085 11.4619 1.7085 9.62998V9.20205C1.7085 8.04169 1.70895 7.08842 1.74093 6.29102H16.2594C16.2894 7.04071 16.2917 7.92926 16.2918 8.99941C16.2919 9.34459 16.5717 9.62439 16.9169 9.62435C17.2621 9.62431 17.5419 9.34446 17.5418 8.99929C17.5416 7.26576 17.5379 5.90322 17.3987 4.8364C17.2576 3.75598 16.9683 2.89061 16.3322 2.20298C15.8614 1.69401 15.2958 1.38508 14.6252 1.19501V0.666016C14.6252 0.320838 14.3453 0.0410156 14.0002 0.0410156C13.655 0.0410156 13.3752 0.320838 13.3752 0.666016V0.970928C12.4284 0.874325 11.2635 0.874336 9.84246 0.874349H8.15787C6.73685 0.874336 5.57188 0.874325 4.62516 0.970928V0.666016ZM16.1647 5.04102H1.83567C1.95893 4.06048 2.1922 3.47724 2.58574 3.05179C2.80186 2.81815 3.05957 2.63927 3.399 2.50422C3.47355 2.766 3.71447 2.95768 4.00016 2.95768C4.34534 2.95768 4.62516 2.67786 4.62516 2.33268V2.22817C5.50933 2.12565 6.65214 2.12435 8.2085 2.12435H9.79183C11.3482 2.12435 12.491 2.12565 13.3752 2.22817V2.33268C13.3752 2.67786 13.655 2.95768 14.0002 2.95768C14.2859 2.95768 14.5268 2.766 14.6013 2.50422C14.9408 2.63928 15.1985 2.81815 15.4146 3.05179C15.8024 3.47101 16.0345 4.04344 16.1592 4.9982L16.1647 5.04102Z" fill="#067647"/>
<path d="M11.5254 11.0574C11.2814 10.8133 10.8856 10.8133 10.6416 11.0574C10.3975 11.3015 10.3975 11.6972 10.6416 11.9413L13.1163 14.416L10.6416 16.8907C10.3975 17.1348 10.3975 17.5305 10.6416 17.7746C10.8856 18.0187 11.2814 18.0187 11.5254 17.7746L14.0002 15.2999L16.4749 17.7746C16.719 18.0187 17.1147 18.0187 17.3588 17.7746C17.6028 17.5305 17.6028 17.1348 17.3588 16.8907L14.884 14.416L17.3588 11.9413C17.6028 11.6972 17.6028 11.3015 17.3588 11.0574C17.1147 10.8133 16.719 10.8133 16.4749 11.0574L14.0002 13.5321L11.5254 11.0574Z" fill="#067647"/>
</svg>
