<svg width="18" height="18" viewBox="0 0 18 18" fill="none" xmlns="http://www.w3.org/2000/svg">
<g id="elements">
<g id="Icon">
<path d="M8.16665 9.20829C7.82147 9.20829 7.54165 9.48812 7.54165 9.83329C7.54165 10.1785 7.82147 10.4583 8.16665 10.4583H12.3333C12.6785 10.4583 12.9583 10.1785 12.9583 9.83329C12.9583 9.48812 12.6785 9.20829 12.3333 9.20829H8.16665Z" fill="#067647"/>
<path d="M5.66665 9.20829C5.32147 9.20829 5.04165 9.48812 5.04165 9.83329C5.04165 10.1785 5.32147 10.4583 5.66665 10.4583H5.67413C6.01931 10.4583 6.29913 10.1785 6.29913 9.83329C6.29913 9.48812 6.01931 9.20829 5.67413 9.20829H5.66665Z" fill="#067647"/>
<path d="M5.66665 12.5416C5.32147 12.5416 5.04165 12.8214 5.04165 13.1666C5.04165 13.5118 5.32147 13.7916 5.66665 13.7916H9.83331C10.1785 13.7916 10.4583 13.5118 10.4583 13.1666C10.4583 12.8214 10.1785 12.5416 9.83331 12.5416H5.66665Z" fill="#067647"/>
<path d="M12.3258 12.5416C11.9807 12.5416 11.7008 12.8214 11.7008 13.1666C11.7008 13.5118 11.9807 13.7916 12.3258 13.7916H12.3333C12.6785 13.7916 12.9583 13.5118 12.9583 13.1666C12.9583 12.8214 12.6785 12.5416 12.3333 12.5416H12.3258Z" fill="#067647"/>
<path fill-rule="evenodd" clip-rule="evenodd" d="M4.62498 0.666626C4.62498 0.321448 4.34516 0.041626 3.99998 0.041626C3.6548 0.041626 3.37498 0.321448 3.37498 0.666626V1.19562C2.70435 1.38569 2.13873 1.69462 1.66793 2.20359C1.01967 2.90441 0.731521 3.78989 0.59352 4.89955C0.458297 5.98688 0.458304 7.38035 0.458313 9.15832V9.67493C0.458304 11.4529 0.458297 12.8464 0.59352 13.9337C0.731521 15.0434 1.01967 15.9288 1.66793 16.6297C2.3226 17.3374 3.16062 17.6584 4.20938 17.8108C5.22441 17.9583 6.52127 17.9583 8.15768 17.9583H9.84228C11.4787 17.9583 12.7755 17.9583 13.7906 17.8108C14.8393 17.6584 15.6774 17.3374 16.332 16.6297C16.9803 15.9288 17.2684 15.0434 17.4064 13.9337C17.5417 12.8464 17.5417 11.4529 17.5416 9.6749V9.15835C17.5417 7.38036 17.5417 5.98689 17.4064 4.89955C17.2684 3.78989 16.9803 2.90441 16.332 2.20359C15.8612 1.69462 15.2956 1.38569 14.625 1.19562V0.666626C14.625 0.321448 14.3452 0.041626 14 0.041626C13.6548 0.041626 13.375 0.321448 13.375 0.666626V0.971538C12.4283 0.874935 11.2633 0.874946 9.84228 0.87496H8.15768C6.73667 0.874946 5.5717 0.874935 4.62498 0.971538V0.666626ZM2.58556 3.0524C2.80167 2.81876 3.05939 2.63988 3.39881 2.50483C3.47337 2.76661 3.71429 2.95829 3.99998 2.95829C4.34516 2.95829 4.62498 2.67847 4.62498 2.33329V2.22878C5.50915 2.12626 6.65196 2.12496 8.20831 2.12496H9.79165C11.348 2.12496 12.4908 2.12626 13.375 2.22878V2.33329C13.375 2.67847 13.6548 2.95829 14 2.95829C14.2857 2.95829 14.5266 2.76661 14.6011 2.50483C14.9406 2.63989 15.1983 2.81876 15.4144 3.0524C15.8079 3.47785 16.0412 4.06109 16.1645 5.04163H1.83549C1.95875 4.06109 2.19201 3.47785 2.58556 3.0524ZM1.74075 6.29163C1.70877 7.08903 1.70831 8.0423 1.70831 9.20266V9.63059C1.70831 11.4625 1.70945 12.7782 1.83396 13.7794C1.95682 14.7673 2.19038 15.3536 2.58556 15.7809C2.97432 16.2011 3.49771 16.4442 4.38918 16.5738C5.30395 16.7067 6.50988 16.7083 8.20831 16.7083H9.79165C11.4901 16.7083 12.696 16.7067 13.6108 16.5738C14.5022 16.4442 15.0256 16.2011 15.4144 15.7809C15.8096 15.3536 16.0431 14.7673 16.166 13.7794C16.2905 12.7782 16.2916 11.4625 16.2916 9.63059V9.20266C16.2916 8.0423 16.2912 7.08903 16.2592 6.29163H1.74075Z" fill="#067647"/>
</g>
</g>
</svg>
