<svg width="21" height="22" viewBox="0 0 21 22" fill="none" xmlns="http://www.w3.org/2000/svg">
<path d="M7.60059 11.25C7.18637 11.25 6.85059 11.5858 6.85059 12C6.85059 12.4142 7.18637 12.75 7.60059 12.75H7.85058L7.85059 16C7.85059 16.4142 8.18637 16.75 8.60059 16.75C9.0148 16.75 9.35059 16.4142 9.35059 16L9.35057 12.3472C9.35057 11.8346 8.96558 11.25 8.29517 11.25H7.60059Z" fill="#067647"/>
<path d="M11.6006 11.25C11.1864 11.25 10.8506 11.5858 10.8506 12C10.8506 12.4142 11.1864 12.75 11.6006 12.75H12.6361L11.5271 15.7391C11.383 16.1275 11.581 16.5591 11.9694 16.7032C12.3577 16.8472 12.7893 16.6492 12.9334 16.2609L14.2879 12.61C14.5563 11.8867 13.9673 11.25 13.3213 11.25H11.6006Z" fill="#067647"/>
<path d="M4.60059 6.25C4.18637 6.25 3.85059 6.58579 3.85059 7C3.85059 7.41421 4.18637 7.75 4.60059 7.75H16.6006C17.0148 7.75 17.3506 7.41421 17.3506 7C17.3506 6.58579 17.0148 6.25 16.6006 6.25H4.60059Z" fill="#067647"/>
<path fill-rule="evenodd" clip-rule="evenodd" d="M5.35059 1C5.35059 0.585786 5.0148 0.25 4.60059 0.25C4.18637 0.25 3.85059 0.585786 3.85059 1V1.63479C3.04583 1.86288 2.36709 2.2336 1.80213 2.84436C1.02422 3.68535 0.678435 4.74792 0.512835 6.07951C0.350567 7.3843 0.350575 9.05647 0.350586 11.19V11.81C0.350575 13.9435 0.350567 15.6157 0.512835 16.9205C0.678435 18.2521 1.02422 19.3147 1.80213 20.1556C2.58773 21.0049 3.59335 21.3901 4.85187 21.573C6.0699 21.75 7.62613 21.75 9.58983 21.75H11.6113C13.575 21.75 15.1313 21.75 16.3493 21.573C17.6078 21.3901 18.6134 21.0049 19.399 20.1556C20.177 19.3147 20.5227 18.2521 20.6883 16.9205C20.8506 15.6157 20.8506 13.9435 20.8506 11.8099V11.1901C20.8506 9.05648 20.8506 7.38431 20.6883 6.07951C20.5227 4.74792 20.177 3.68535 19.399 2.84436C18.8341 2.2336 18.1553 1.86288 17.3506 1.63479V1C17.3506 0.585786 17.0148 0.25 16.6006 0.25C16.1864 0.25 15.8506 0.585786 15.8506 1V1.36589C14.7145 1.24997 13.3166 1.24998 11.6113 1.25H9.58983C7.88461 1.24998 6.48665 1.24997 5.35059 1.36589V1ZM2.90328 3.86292C3.16262 3.58256 3.47188 3.36791 3.87919 3.20584C3.96865 3.51998 4.25776 3.75 4.60059 3.75C5.0148 3.75 5.35059 3.41421 5.35059 3V2.87459C6.41159 2.75156 7.78296 2.75 9.65059 2.75H11.5506C13.4182 2.75 14.7896 2.75156 15.8506 2.87459V3C15.8506 3.41421 16.1864 3.75 16.6006 3.75C16.9434 3.75 17.2325 3.51998 17.322 3.20585C17.7293 3.36791 18.0386 3.58256 18.2979 3.86292C18.7721 4.37558 19.0524 5.07915 19.1998 6.26463C19.3492 7.46607 19.3506 9.04494 19.3506 11.2432V11.7568C19.3506 13.9551 19.3492 15.5339 19.1998 16.7354C19.0524 17.9208 18.7721 18.6244 18.2979 19.1371C17.8314 19.6414 17.2033 19.9331 16.1335 20.0886C15.0358 20.2481 13.5887 20.25 11.5506 20.25H9.65059C7.61246 20.25 6.16534 20.2481 5.06763 20.0886C3.99786 19.9331 3.3698 19.6414 2.90328 19.1371C2.42907 18.6244 2.1488 17.9208 2.00137 16.7354C1.85195 15.5339 1.85059 13.9551 1.85059 11.7568V11.2432C1.85059 9.04494 1.85195 7.46607 2.00137 6.26463C2.1488 5.07915 2.42907 4.37558 2.90328 3.86292Z" fill="#067647"/>
</svg>
