<svg width="18" height="18" viewBox="0 0 18 18" fill="none" xmlns="http://www.w3.org/2000/svg">
<g id="elements">
<g id="Icon">
<path d="M6.94131 6.05743C6.69725 5.81334 6.30152 5.81332 6.05743 6.05738C5.81334 6.30145 5.81332 6.69718 6.05738 6.94127L8.11551 8.99962L6.05792 11.0574C5.81385 11.3015 5.81387 11.6973 6.05796 11.9413C6.30206 12.1854 6.69778 12.1854 6.94185 11.9413L8.99935 9.88355L11.0568 11.9413C11.3009 12.1854 11.6966 12.1854 11.9407 11.9413C12.1848 11.6973 12.1848 11.3015 11.9408 11.0574L9.88319 8.99962L11.9413 6.94127C12.1854 6.69718 12.1854 6.30145 11.9413 6.05738C11.6972 5.81332 11.3014 5.81334 11.0574 6.05743L8.99935 8.11569L6.94131 6.05743Z" fill="#B42318"/>
<path fill-rule="evenodd" clip-rule="evenodd" d="M8.99935 17.9577C4.0518 17.9577 0.0410156 13.9469 0.0410156 8.99935C0.0410156 4.0518 4.0518 0.0410156 8.99935 0.0410156C13.9469 0.0410156 17.9577 4.0518 17.9577 8.99935C17.9577 13.9469 13.9469 17.9577 8.99935 17.9577ZM1.29102 8.99935C1.29102 13.2565 4.74215 16.7077 8.99935 16.7077C13.2565 16.7077 16.7077 13.2565 16.7077 8.99935C16.7077 4.74215 13.2565 1.29102 8.99935 1.29102C4.74215 1.29102 1.29102 4.74215 1.29102 8.99935Z" fill="#B42318"/>
</g>
</g>
</svg>
