<svg width="23" height="22" viewBox="0 0 23 22" fill="none" xmlns="http://www.w3.org/2000/svg">
<path d="M18.7625 9.52503C19.0554 9.81792 19.0554 10.2928 18.7625 10.5857L16.563 12.7852C16.2701 13.0781 15.7952 13.0781 15.5023 12.7852C15.2094 12.4923 15.2094 12.0174 15.5023 11.7245L17.7018 9.52503C17.9947 9.23214 18.4696 9.23214 18.7625 9.52503Z" fill="#1B8354"/>
<path d="M14.6858 13.5793C14.9787 13.8722 14.9787 14.3471 14.6858 14.64L13.7071 15.6187C13.4142 15.9115 12.9394 15.9115 12.6465 15.6187C12.3536 15.3258 12.3536 14.8509 12.6465 14.558L13.6252 13.5793C13.9181 13.2864 14.3929 13.2864 14.6858 13.5793Z" fill="#1B8354"/>
<path fill-rule="evenodd" clip-rule="evenodd" d="M9.53954 1.64409C11.3987 -0.215024 14.4129 -0.215024 16.272 1.6441L20.9562 6.32834C22.8154 8.18746 22.8154 11.2017 20.9562 13.0608L13.7673 20.2498H19.6006C20.0148 20.2498 20.3506 20.5855 20.3506 20.9998C20.3506 21.414 20.0148 21.7498 19.6006 21.7498H3.60059C3.18637 21.7498 2.85059 21.414 2.85059 20.9998C2.85059 20.5855 3.18637 20.2498 3.60059 20.2498H6.82351L2.24493 15.6712C0.385806 13.8121 0.385806 10.7978 2.24493 8.93871L9.53954 1.64409ZM10.6002 2.70475C11.7313 1.57364 13.4867 1.44731 14.7573 2.32575L2.92655 14.1564C2.04814 12.8858 2.17448 11.1305 3.30559 9.99937L10.6002 2.70475ZM7.98983 19.2948L3.94968 15.2546L15.8555 3.34888L19.8956 7.389C21.1689 8.66233 21.1689 10.7268 19.8956 12.0001L12.601 19.2948C11.3276 20.5681 9.26316 20.5681 7.98983 19.2948Z" fill="#1B8354"/>
</svg>
