<svg width="20" height="20" viewBox="0 0 20 20" fill="none" xmlns="http://www.w3.org/2000/svg">
<g id="certificate-01">
<g id="Icon">
<path d="M9.52888 1.0415H9.63779C11.2611 1.04148 12.554 1.04147 13.5671 1.20173C14.6214 1.36848 15.458 1.72034 16.1055 2.48211C16.6165 3.08327 16.8987 3.80944 17.0601 4.68863C17.2196 5.5572 17.268 6.61562 17.2839 7.90882C17.2882 8.25397 17.0118 8.53721 16.6667 8.54146C16.3215 8.5457 16.0383 8.26934 16.034 7.92419C16.0182 6.63451 15.9693 5.66932 15.8307 4.91439C15.694 4.17009 15.4772 3.6729 15.1531 3.29167C14.7633 2.83306 14.2465 2.57472 13.3719 2.43638C12.4675 2.29333 11.2736 2.29151 9.58333 2.29151C7.8931 2.29151 6.6992 2.29333 5.79481 2.43638C4.92017 2.57472 4.40337 2.83306 4.01354 3.29167C3.61126 3.76495 3.37426 4.41695 3.25062 5.49884C3.12596 6.58968 3.125 8.02058 3.125 9.99984C3.125 11.9791 3.12596 13.41 3.25063 14.5008C3.37426 15.5827 3.61126 16.2347 4.01354 16.708C4.40337 17.1666 4.92017 17.425 5.79481 17.5633C6.6992 17.7064 7.8931 17.7082 9.58333 17.7082C9.92851 17.7082 10.2083 17.988 10.2083 18.3332C10.2083 18.6784 9.92851 18.9582 9.58333 18.9582H9.52886C7.90556 18.9582 6.61271 18.9582 5.59952 18.798C4.54526 18.6312 3.70863 18.2793 3.06112 17.5176C2.42607 16.7705 2.1444 15.8302 2.00871 14.6428C1.87499 13.4727 1.87499 11.9704 1.875 10.0411V9.95858C1.87499 8.02933 1.87499 6.52703 2.00871 5.35691C2.1444 4.16951 2.42607 3.22922 3.06112 2.48211C3.70862 1.72034 4.54526 1.36848 5.59952 1.20173C6.61271 1.04147 7.90558 1.04148 9.52888 1.0415Z" fill="#067647"/>
<path d="M6.04167 6.6665C6.04167 6.32133 6.32149 6.0415 6.66667 6.0415H12.5C12.8452 6.0415 13.125 6.32133 13.125 6.6665C13.125 7.01168 12.8452 7.2915 12.5 7.2915H6.66667C6.32149 7.2915 6.04167 7.01168 6.04167 6.6665Z" fill="#067647"/>
<path d="M6.04167 10.8332C6.04167 10.488 6.32149 10.2082 6.66667 10.2082H9.16667C9.51184 10.2082 9.79167 10.488 9.79167 10.8332C9.79167 11.1784 9.51184 11.4582 9.16667 11.4582H6.66667C6.32149 11.4582 6.04167 11.1784 6.04167 10.8332Z" fill="#067647"/>
<path fill-rule="evenodd" clip-rule="evenodd" d="M14.4792 9.37484C12.5807 9.37484 11.0417 10.9139 11.0417 12.8123C11.0417 13.7896 11.4499 14.6715 12.1035 15.2967L11.7386 16.4456C11.6508 16.7219 11.5769 16.9548 11.5293 17.1407C11.484 17.3174 11.4376 17.5386 11.4684 17.7597C11.5609 18.4229 12.1128 18.9556 12.81 18.9582C13.0423 18.959 13.258 18.8726 13.4179 18.8007C13.5883 18.7242 13.799 18.6137 14.0459 18.4841L14.0635 18.4748C14.3101 18.3454 14.3612 18.3216 14.4055 18.3083C14.5219 18.2731 14.6447 18.2731 14.7612 18.3083C14.8055 18.3216 14.8566 18.3454 15.1032 18.4748L15.1207 18.4841C15.3677 18.6136 15.5783 18.7242 15.7488 18.8007C15.9087 18.8726 16.1244 18.959 16.3566 18.9582C17.0539 18.9556 17.6057 18.4229 17.6982 17.7597C17.7291 17.5386 17.6826 17.3174 17.6374 17.1407C17.5898 16.9548 17.5159 16.722 17.4281 16.4457L17.0632 15.2967C17.7168 14.6715 18.125 13.7896 18.125 12.8123C18.125 10.9139 16.586 9.37484 14.6875 9.37484H14.4792ZM12.9356 16.806L13.1915 16.0004C13.5895 16.1612 14.0243 16.2498 14.4792 16.2498H14.6875C15.1424 16.2498 15.5772 16.1612 15.9751 16.0004L16.231 16.806C16.326 17.1051 16.3888 17.3036 16.4265 17.4507C16.4504 17.5443 16.456 17.5886 16.4576 17.6013C16.4437 17.667 16.4021 17.6964 16.3714 17.7051C16.3533 17.699 16.3181 17.6862 16.2609 17.6605C16.1297 17.6016 15.9534 17.5093 15.684 17.368L15.6454 17.3477C15.459 17.2497 15.2958 17.1639 15.1221 17.1115C14.7703 17.0054 14.3964 17.0054 14.0446 17.1115C13.8709 17.1639 13.7077 17.2497 13.5212 17.3477L13.4827 17.368C13.2133 17.5093 13.0369 17.6016 12.9057 17.6605C12.8486 17.6862 12.8134 17.699 12.7952 17.7051C12.7646 17.6964 12.723 17.6672 12.709 17.6015C12.7106 17.5887 12.7163 17.5443 12.7402 17.4507C12.7779 17.3036 12.8407 17.1051 12.9356 16.806ZM12.2917 12.8123C12.2917 11.6042 13.271 10.6248 14.4792 10.6248H14.6875C15.8956 10.6248 16.875 11.6042 16.875 12.8123C16.875 13.5393 16.521 14.1836 15.9732 14.5824C15.6124 14.845 15.1689 14.9998 14.6875 14.9998H14.4792C13.9977 14.9998 13.5543 14.845 13.1935 14.5824C12.6457 14.1836 12.2917 13.5393 12.2917 12.8123Z" fill="#067647"/>
</g>
</g>
</svg>
