<svg width="48" height="48" viewBox="0 0 48 48" fill="none" xmlns="http://www.w3.org/2000/svg">
<path d="M0 24C0 10.7452 10.7452 0 24 0C37.2548 0 48 10.7452 48 24C48 37.2548 37.2548 48 24 48C10.7452 48 0 37.2548 0 24Z" fill="#ECFDF3"/>
<path fill-rule="evenodd" clip-rule="evenodd" d="M17.25 19C17.25 16.3766 19.3766 14.25 22 14.25C24.6234 14.25 26.75 16.3766 26.75 19C26.75 21.6234 24.6234 23.75 22 23.75C19.3766 23.75 17.25 21.6234 17.25 19ZM22 15.75C20.2051 15.75 18.75 17.2051 18.75 19C18.75 20.7949 20.2051 22.25 22 22.25C23.7949 22.25 25.25 20.7949 25.25 19C25.25 17.2051 23.7949 15.75 22 15.75Z" fill="#067647"/>
<path fill-rule="evenodd" clip-rule="evenodd" d="M16.801 26.6493C19.9842 24.7836 24.0162 24.7836 27.1994 26.6493C27.3002 26.7084 27.4257 26.7781 27.5686 26.8574C28.2012 27.2086 29.1731 27.7481 29.8385 28.3892C30.254 28.7896 30.6635 29.3303 30.7383 30.0037C30.8184 30.7252 30.4961 31.3911 29.8798 31.9691C28.8297 32.9539 27.5618 33.75 25.9194 33.75H18.081C16.4386 33.75 15.1707 32.9539 14.1206 31.9691C13.5043 31.3911 13.1819 30.7252 13.2621 30.0037C13.3368 29.3303 13.7464 28.7896 14.1619 28.3892C14.8273 27.7481 15.7992 27.2086 16.4318 26.8574C16.5745 26.7782 16.7003 26.7084 16.801 26.6493ZM26.4409 27.9434C23.7261 26.3522 20.2743 26.3522 17.5595 27.9434C17.4071 28.0328 17.2412 28.1255 17.0683 28.222C16.4358 28.5753 15.7094 28.9811 15.2027 29.4694C14.8877 29.7729 14.7709 30.0077 14.7529 30.1692C14.7403 30.2826 14.7589 30.5112 15.1467 30.8749C16.0587 31.7302 16.976 32.25 18.081 32.25H25.9194C27.0244 32.25 27.9417 31.7302 28.8537 30.8749C29.2415 30.5112 29.2601 30.2826 29.2475 30.1692C29.2295 30.0077 29.1127 29.7729 28.7977 29.4694C28.2909 28.9811 27.5647 28.5754 26.9322 28.2221C26.7593 28.1255 26.5934 28.0328 26.4409 27.9434Z" fill="#067647"/>
<path fill-rule="evenodd" clip-rule="evenodd" d="M30.9995 14.25C31.6083 14.25 31.9956 14.7051 32.1909 15.1005L32.1914 15.1015L32.6816 16.09L33.5539 16.2361C33.9921 16.3097 34.5168 16.5534 34.6965 17.1169C34.8758 17.6793 34.5904 18.1816 34.2762 18.4967L34.2752 18.4977L33.5953 19.1833L33.7888 20.0266C33.8868 20.4556 33.9171 21.1366 33.3747 21.5353C32.8292 21.9363 32.1871 21.6979 31.8093 21.4729L30.9998 20.9897L30.1906 21.4727C29.8107 21.7 29.1704 21.9345 28.6259 21.5339C28.085 21.136 28.1121 20.4574 28.2111 20.026L28.4044 19.1833L27.7226 18.4959C27.4104 18.1811 27.1262 17.6795 27.3039 17.1183C27.4826 16.5541 28.0072 16.3098 28.4462 16.236L29.3148 16.0905L29.8067 15.0986C30.0034 14.7041 30.3915 14.25 30.9995 14.25ZM30.6229 16.8291L30.9983 16.0719L31.3738 16.8291C31.4764 17.0385 31.6348 17.197 31.7783 17.3038C31.9228 17.4113 32.1204 17.5167 32.3488 17.5551L32.9908 17.6627L32.4681 18.1897C32.2934 18.3659 32.1921 18.5823 32.1393 18.7685C32.0863 18.9553 32.0596 19.1899 32.1125 19.428L32.2398 19.983L31.6812 19.6495C31.4559 19.515 31.2069 19.471 31.001 19.471C30.7942 19.471 30.5473 19.5153 30.3234 19.6466L29.7599 19.983L29.8861 19.4329L29.8872 19.428C29.9401 19.1899 29.9134 18.9553 29.8604 18.7685C29.8075 18.5823 29.7063 18.3659 29.5316 18.1897L29.0089 17.6627L29.6509 17.5551L29.6536 17.5547C29.8813 17.5157 30.0774 17.4094 30.2202 17.3027C30.3623 17.1964 30.5204 17.0382 30.6229 16.8291Z" fill="#067647"/>
</svg>
