<svg width="20" height="20" viewBox="0 0 20 20" fill="none" xmlns="http://www.w3.org/2000/svg">
<path d="M4.18552 13.9584C4.53054 13.948 4.8018 13.6598 4.79139 13.3148C4.78098 12.9698 4.49284 12.6985 4.14782 12.709C3.50982 12.7282 2.88334 12.7913 2.42386 13.2515C2.10548 13.5703 1.98137 13.9633 1.92633 14.3733C1.87495 14.756 1.87497 15.234 1.875 15.7889V15.8712C1.87497 16.4261 1.87495 16.9041 1.92633 17.2868C1.98137 17.6968 2.10548 18.0898 2.42386 18.4086C2.74236 18.7276 3.13515 18.8521 3.54502 18.9073C3.92736 18.9587 4.4048 18.9587 4.95881 18.9587L15.0412 18.9587C15.5952 18.9587 16.0726 18.9587 16.455 18.9073C16.8649 18.8521 17.2576 18.7276 17.5761 18.4086C17.8945 18.0898 18.0186 17.6968 18.0737 17.2868C18.1251 16.9041 18.125 16.4261 18.125 15.8712V15.7889C18.125 15.234 18.1251 14.756 18.0737 14.3733C18.0186 13.9633 17.8945 13.5703 17.5761 13.2515C17.1167 12.7913 16.4902 12.7282 15.8522 12.709C15.5072 12.6985 15.219 12.9698 15.2086 13.3148C15.1982 13.6598 15.4695 13.948 15.8145 13.9584C16.471 13.9782 16.6167 14.0597 16.6916 14.1347C16.7394 14.1825 16.7983 14.2679 16.8348 14.5396C16.8737 14.8293 16.875 15.2223 16.875 15.8301C16.875 16.4378 16.8737 16.8308 16.8348 17.1205C16.7983 17.3922 16.7394 17.4776 16.6916 17.5254C16.644 17.5731 16.5591 17.632 16.2882 17.6684C15.9992 17.7073 15.607 17.7087 15 17.7087L5 17.7087C4.39306 17.7087 4.00081 17.7073 3.71181 17.6684C3.44089 17.632 3.356 17.5731 3.30838 17.5254C3.26064 17.4776 3.20169 17.3922 3.16521 17.1205C3.12633 16.8308 3.125 16.4378 3.125 15.8301C3.125 15.2223 3.12633 14.8293 3.16521 14.5396C3.20169 14.2679 3.26064 14.1825 3.30838 14.1347C3.38332 14.0597 3.52899 13.9782 4.18552 13.9584Z" fill="#1B8354"/>
<path fill-rule="evenodd" clip-rule="evenodd" d="M5.83333 15.2087C5.48816 15.2087 5.20833 15.4885 5.20833 15.8337C5.20833 16.1788 5.48816 16.4587 5.83333 16.4587L14.1667 16.4587C14.5118 16.4587 14.7917 16.1788 14.7917 15.8337C14.7917 15.4885 14.5118 15.2087 14.1667 15.2087H13.1882C13.4143 14.7505 13.5417 14.2355 13.5417 13.6908C13.5417 11.7556 11.9438 10.2087 10 10.2087C8.0562 10.2087 6.45833 11.7556 6.45833 13.6908C6.45833 14.2355 6.58569 14.7505 6.81176 15.2087H5.83333ZM7.70833 13.6908C7.70833 14.275 7.9384 14.8085 8.31973 15.2087H11.6803C12.0616 14.8085 12.2917 14.275 12.2917 13.6908C12.2917 12.4701 11.2779 11.4587 10 11.4587C8.72214 11.4587 7.70833 12.4701 7.70833 13.6908Z" fill="#1B8354"/>
<path d="M16.6665 8.95867C17.0117 8.95867 17.2915 8.67884 17.2915 8.33367C17.2915 7.98849 17.0117 7.70867 16.6665 7.70867H14.6708C14.5194 7.70867 14.3707 7.6745 14.2369 7.60975L12.5353 6.78643C12.2306 6.63901 11.8957 6.56273 11.5569 6.56273L10.6881 6.56273C10.3326 6.56273 10.0405 6.37263 9.8938 6.10717L11.5057 5.66152C11.7399 5.59676 11.9906 5.61966 12.2068 5.72425L14.0259 6.60439C14.3366 6.75473 14.7104 6.62472 14.8607 6.314C15.011 6.00328 14.881 5.62952 14.5703 5.47918L12.7512 4.59903C12.2607 4.3617 11.698 4.31145 11.1726 4.45672L9.05513 5.04215C8.76338 5.12281 8.5415 5.38939 8.5415 5.71534C8.5415 5.73972 8.54192 5.76398 8.54276 5.78814L5.15564 6.8288L5.15328 6.82953C4.73874 6.95868 4.28132 6.80969 4.00894 6.43251C3.91226 6.29863 3.96235 6.1145 4.08014 6.04654L10.3431 2.43291C10.594 2.28817 10.8868 2.25395 11.1594 2.33484L16.4887 3.91622C16.8196 4.01441 17.1675 3.82575 17.2657 3.49484C17.3639 3.16392 17.1752 2.81606 16.8443 2.71786L11.515 1.13648C10.9113 0.957342 10.2642 1.03528 9.71842 1.35021L3.45544 4.96384C2.67779 5.41252 2.47764 6.44713 2.99556 7.16432C3.57297 7.96389 4.58176 8.31627 5.52385 8.02333L5.52511 8.02294L8.96431 6.96629C9.35885 7.48327 9.99025 7.81273 10.6881 7.81273L11.5569 7.81273C11.7084 7.81273 11.857 7.84689 11.9908 7.91164L13.6925 8.73496C13.9972 8.88238 14.332 8.95867 14.6708 8.95867H16.6665Z" fill="#1B8354"/>
<path d="M4.18552 13.9584C4.53054 13.948 4.8018 13.6598 4.79139 13.3148C4.78098 12.9698 4.49284 12.6985 4.14782 12.709C3.50982 12.7282 2.88334 12.7913 2.42386 13.2515C2.10548 13.5703 1.98137 13.9633 1.92633 14.3733C1.87495 14.756 1.87497 15.234 1.875 15.7889V15.8712C1.87497 16.4261 1.87495 16.9041 1.92633 17.2868C1.98137 17.6968 2.10548 18.0898 2.42386 18.4086C2.74236 18.7276 3.13515 18.8521 3.54502 18.9073C3.92736 18.9587 4.4048 18.9587 4.95881 18.9587L15.0412 18.9587C15.5952 18.9587 16.0726 18.9587 16.455 18.9073C16.8649 18.8521 17.2576 18.7276 17.5761 18.4086C17.8945 18.0898 18.0186 17.6968 18.0737 17.2868C18.1251 16.9041 18.125 16.4261 18.125 15.8712V15.7889C18.125 15.234 18.1251 14.756 18.0737 14.3733C18.0186 13.9633 17.8945 13.5703 17.5761 13.2515C17.1167 12.7913 16.4902 12.7282 15.8522 12.709C15.5072 12.6985 15.219 12.9698 15.2086 13.3148C15.1982 13.6598 15.4695 13.948 15.8145 13.9584C16.471 13.9782 16.6167 14.0597 16.6916 14.1347C16.7394 14.1825 16.7983 14.2679 16.8348 14.5396C16.8737 14.8293 16.875 15.2223 16.875 15.8301C16.875 16.4378 16.8737 16.8308 16.8348 17.1205C16.7983 17.3922 16.7394 17.4776 16.6916 17.5254C16.644 17.5731 16.5591 17.632 16.2882 17.6684C15.9992 17.7073 15.607 17.7087 15 17.7087L5 17.7087C4.39306 17.7087 4.00081 17.7073 3.71181 17.6684C3.44089 17.632 3.356 17.5731 3.30838 17.5254C3.26064 17.4776 3.20169 17.3922 3.16521 17.1205C3.12633 16.8308 3.125 16.4378 3.125 15.8301C3.125 15.2223 3.12633 14.8293 3.16521 14.5396C3.20169 14.2679 3.26064 14.1825 3.30838 14.1347C3.38332 14.0597 3.52899 13.9782 4.18552 13.9584Z" stroke="#9DA4AE"/>
<path fill-rule="evenodd" clip-rule="evenodd" d="M5.83333 15.2087C5.48816 15.2087 5.20833 15.4885 5.20833 15.8337C5.20833 16.1788 5.48816 16.4587 5.83333 16.4587L14.1667 16.4587C14.5118 16.4587 14.7917 16.1788 14.7917 15.8337C14.7917 15.4885 14.5118 15.2087 14.1667 15.2087H13.1882C13.4143 14.7505 13.5417 14.2355 13.5417 13.6908C13.5417 11.7556 11.9438 10.2087 10 10.2087C8.0562 10.2087 6.45833 11.7556 6.45833 13.6908C6.45833 14.2355 6.58569 14.7505 6.81176 15.2087H5.83333ZM7.70833 13.6908C7.70833 14.275 7.9384 14.8085 8.31973 15.2087H11.6803C12.0616 14.8085 12.2917 14.275 12.2917 13.6908C12.2917 12.4701 11.2779 11.4587 10 11.4587C8.72214 11.4587 7.70833 12.4701 7.70833 13.6908Z" stroke="#9DA4AE"/>
<path d="M16.6665 8.95867C17.0117 8.95867 17.2915 8.67884 17.2915 8.33367C17.2915 7.98849 17.0117 7.70867 16.6665 7.70867H14.6708C14.5194 7.70867 14.3707 7.6745 14.2369 7.60975L12.5353 6.78643C12.2306 6.63901 11.8957 6.56273 11.5569 6.56273L10.6881 6.56273C10.3326 6.56273 10.0405 6.37263 9.8938 6.10717L11.5057 5.66152C11.7399 5.59676 11.9906 5.61966 12.2068 5.72425L14.0259 6.60439C14.3366 6.75473 14.7104 6.62472 14.8607 6.314C15.011 6.00328 14.881 5.62952 14.5703 5.47918L12.7512 4.59903C12.2607 4.3617 11.698 4.31145 11.1726 4.45672L9.05513 5.04215C8.76338 5.12281 8.5415 5.38939 8.5415 5.71534C8.5415 5.73972 8.54192 5.76398 8.54276 5.78814L5.15564 6.8288L5.15328 6.82953C4.73874 6.95868 4.28132 6.80969 4.00894 6.43251C3.91226 6.29863 3.96235 6.1145 4.08014 6.04654L10.3431 2.43291C10.594 2.28817 10.8868 2.25395 11.1594 2.33484L16.4887 3.91622C16.8196 4.01441 17.1675 3.82575 17.2657 3.49484C17.3639 3.16392 17.1752 2.81606 16.8443 2.71786L11.515 1.13648C10.9113 0.957342 10.2642 1.03528 9.71842 1.35021L3.45544 4.96384C2.67779 5.41252 2.47764 6.44713 2.99556 7.16432C3.57297 7.96389 4.58176 8.31627 5.52385 8.02333L5.52511 8.02294L8.96431 6.96629C9.35885 7.48327 9.99025 7.81273 10.6881 7.81273L11.5569 7.81273C11.7084 7.81273 11.857 7.84689 11.9908 7.91164L13.6925 8.73496C13.9972 8.88238 14.332 8.95867 14.6708 8.95867H16.6665Z" stroke="#9DA4AE"/>
</svg>
