<svg width="18" height="18" viewBox="0 0 18 18" fill="none" xmlns="http://www.w3.org/2000/svg">
<g id="elements">
<g id="Icon">
<path d="M12.7928 6.92249C13.026 6.66804 13.0088 6.27269 12.7544 6.03944C12.4999 5.8062 12.1046 5.82339 11.8713 6.07784L7.72906 10.5966L6.10731 8.97489C5.86323 8.73081 5.4675 8.73081 5.22342 8.97489C4.97934 9.21897 4.97934 9.6147 5.22342 9.85877L7.30676 11.9421C7.4273 12.0626 7.59184 12.1287 7.76227 12.125C7.9327 12.1213 8.09423 12.0482 8.20942 11.9225L12.7928 6.92249Z" fill="#067647"/>
<path fill-rule="evenodd" clip-rule="evenodd" d="M9.04634 0.458496H8.95105C7.12546 0.458485 5.69156 0.458476 4.57205 0.608991C3.42484 0.76323 2.51462 1.08576 1.79946 1.80092C1.08429 2.51609 0.761765 3.4263 0.607526 4.57352C0.457011 5.69303 0.45702 7.12693 0.457031 8.95252V9.04781C0.45702 10.8734 0.457011 12.3073 0.607526 13.4268C0.761765 14.574 1.08429 15.4842 1.79946 16.1994C2.51462 16.9146 3.42484 17.2371 4.57205 17.3913C5.69156 17.5418 7.12545 17.5418 8.95103 17.5418H9.04634C10.8719 17.5418 12.3058 17.5418 13.4253 17.3913C14.5726 17.2371 15.4828 16.9146 16.1979 16.1994C16.9131 15.4842 17.2356 14.574 17.3899 13.4268C17.5404 12.3073 17.5404 10.8734 17.5404 9.04783V8.95252C17.5404 7.12694 17.5404 5.69302 17.3899 4.57352C17.2356 3.4263 16.9131 2.51609 16.1979 1.80092C15.4828 1.08576 14.5726 0.76323 13.4253 0.608991C12.3058 0.458476 10.8719 0.458485 9.04634 0.458496ZM2.68334 2.68481C3.12755 2.2406 3.73001 1.98345 4.73861 1.84784C5.76519 1.70982 7.11505 1.7085 8.9987 1.7085C10.8823 1.7085 12.2322 1.70982 13.2588 1.84784C14.2674 1.98345 14.8698 2.2406 15.3141 2.68481C15.7583 3.12901 16.0154 3.73147 16.151 4.74008C16.289 5.76666 16.2904 7.11652 16.2904 9.00016C16.2904 10.8838 16.289 12.2337 16.151 13.2602C16.0154 14.2689 15.7583 14.8713 15.3141 15.3155C14.8698 15.7597 14.2674 16.0169 13.2588 16.1525C12.2322 16.2905 10.8823 16.2918 8.9987 16.2918C7.11505 16.2918 5.76519 16.2905 4.73861 16.1525C3.73001 16.0169 3.12755 15.7597 2.68334 15.3155C2.23914 14.8713 1.98198 14.2689 1.84638 13.2602C1.70836 12.2337 1.70703 10.8838 1.70703 9.00016C1.70703 7.11652 1.70836 5.76666 1.84638 4.74008C1.98198 3.73147 2.23914 3.12901 2.68334 2.68481Z" fill="#067647"/>
</g>
</g>
</svg>
