<svg width="18" height="18" viewBox="0 0 18 18" fill="none" xmlns="http://www.w3.org/2000/svg">
<g id="elements">
<g id="Icon">
<path d="M12.7954 6.92241C13.0286 6.66796 13.0114 6.27261 12.757 6.03936C12.5025 5.80612 12.1072 5.82331 11.8739 6.07776L7.73167 10.5966L6.10991 8.97481C5.86583 8.73073 5.47011 8.73073 5.22603 8.97481C4.98195 9.21889 4.98195 9.61462 5.22603 9.85869L7.30936 11.942C7.4299 12.0626 7.59445 12.1286 7.76488 12.1249C7.93531 12.1212 8.09683 12.0481 8.21202 11.9224L12.7954 6.92241Z" fill="#161616"/>
<path fill-rule="evenodd" clip-rule="evenodd" d="M9.0013 17.9584C4.05375 17.9584 0.0429688 13.9476 0.0429688 9.00008C0.0429688 4.05253 4.05375 0.041748 9.0013 0.041748C13.9489 0.041748 17.9596 4.05253 17.9596 9.00008C17.9596 13.9476 13.9489 17.9584 9.0013 17.9584ZM1.29297 9.00008C1.29297 13.2573 4.74411 16.7084 9.0013 16.7084C13.2585 16.7084 16.7096 13.2573 16.7096 9.00008C16.7096 4.74289 13.2585 1.29175 9.0013 1.29175C4.74411 1.29175 1.29297 4.74289 1.29297 9.00008Z" fill="#161616"/>
</g>
</g>
</svg>
