<svg width="18" height="18" viewBox="0 0 18 18" fill="none" xmlns="http://www.w3.org/2000/svg">
  <path
      d="M12.794 6.92266C13.0273 6.66821 13.0101 6.27285 12.7557 6.03961C12.5012 5.80636 12.1058 5.82355 11.8726 6.078L7.73036 10.5968L6.1086 8.97505C5.86452 8.73098 5.46879 8.73098 5.22471 8.97505C4.98064 9.21913 4.98064 9.61486 5.22471 9.85894L7.30805 11.9423C7.42859 12.0628 7.59314 12.1289 7.76357 12.1252C7.934 12.1215 8.09552 12.0483 8.21071 11.9227L12.794 6.92266Z"
      fill="white" />
  <path fill-rule="evenodd" clip-rule="evenodd"
      d="M8.99999 17.9587C4.05244 17.9587 0.0416565 13.9479 0.0416565 9.00033C0.0416565 4.05277 4.05244 0.0419922 8.99999 0.0419922C13.9475 0.0419922 17.9583 4.05277 17.9583 9.00033C17.9583 13.9479 13.9475 17.9587 8.99999 17.9587ZM1.29166 9.00033C1.29166 13.2575 4.74279 16.7087 8.99999 16.7087C13.2572 16.7087 16.7083 13.2575 16.7083 9.00033C16.7083 4.74313 13.2572 1.29199 8.99999 1.29199C4.74279 1.29199 1.29166 4.74313 1.29166 9.00033Z"
      fill="white" />
</svg>
