<svg width="18" height="18" viewBox="0 0 18 18" fill="none" xmlns="http://www.w3.org/2000/svg">
<path d="M12.7941 6.92266C13.0274 6.66821 13.0102 6.27285 12.7557 6.03961C12.5013 5.80636 12.1059 5.82355 11.8727 6.078L7.73045 10.5968L6.10869 8.97505C5.86461 8.73098 5.46888 8.73098 5.22481 8.97505C4.98073 9.21913 4.98073 9.61486 5.22481 9.85894L7.30814 11.9423C7.42868 12.0628 7.59323 12.1289 7.76366 12.1252C7.93409 12.1215 8.09561 12.0483 8.2108 11.9227L12.7941 6.92266Z" fill="#54C08A"/>
<path fill-rule="evenodd" clip-rule="evenodd" d="M9.00008 17.9587C4.05253 17.9587 0.041748 13.9479 0.041748 9.00033C0.041748 4.05277 4.05253 0.0419922 9.00008 0.0419922C13.9476 0.0419922 17.9584 4.05277 17.9584 9.00033C17.9584 13.9479 13.9476 17.9587 9.00008 17.9587ZM1.29175 9.00033C1.29175 13.2575 4.74289 16.7087 9.00008 16.7087C13.2573 16.7087 16.7084 13.2575 16.7084 9.00033C16.7084 4.74313 13.2573 1.29199 9.00008 1.29199C4.74289 1.29199 1.29175 4.74313 1.29175 9.00033Z" fill="#54C08A"/>
</svg>
