<svg width="20" height="20" viewBox="0 0 20 20" fill="none" xmlns="http://www.w3.org/2000/svg">
  <path fill-rule="evenodd" clip-rule="evenodd"
        d="M10.0002 19.1663C15.0628 19.1663 19.1668 15.0623 19.1668 9.99967C19.1668 4.93706 15.0628 0.833008 10.0002 0.833008C4.93755 0.833008 0.833496 4.93706 0.833496 9.99967C0.833496 15.0623 4.93755 19.1663 10.0002 19.1663ZM5.87534 9.26744C5.54991 9.59288 5.54991 10.1205 5.87534 10.446L8.23237 12.803C8.5578 13.1284 9.08544 13.1284 9.41088 12.803L14.1249 8.08893C14.4504 7.76349 14.4504 7.23586 14.1249 6.91042C13.7995 6.58498 13.2718 6.58498 12.9464 6.91042L8.82162 11.0352L7.05385 9.26744C6.72842 8.942 6.20078 8.942 5.87534 9.26744Z"
        fill="#067647" />
</svg>
