<svg width="40" height="40" viewBox="0 0 40 40" fill="none" xmlns="http://www.w3.org/2000/svg">
<path d="M0 20C0 8.95431 8.95431 0 20 0C31.0457 0 40 8.95431 40 20C40 31.0457 31.0457 40 20 40C8.95431 40 0 31.0457 0 20Z" fill="#ECFDF3"/>
<path d="M19.375 14.9993C19.375 14.6542 19.6548 14.3743 20 14.3743L21.6667 14.3743C22.0118 14.3743 22.2917 14.6542 22.2917 14.9993C22.2917 15.3445 22.0118 15.6243 21.6667 15.6243L20 15.6243C19.6548 15.6243 19.375 15.3445 19.375 14.9993Z" fill="#067647"/>
<path d="M19.375 17.4993C19.375 17.1542 19.6548 16.8743 20 16.8743L21.6667 16.8743C22.0118 16.8743 22.2917 17.1542 22.2917 17.4993C22.2917 17.8445 22.0118 18.1243 21.6667 18.1243L20 18.1243C19.6548 18.1243 19.375 17.8445 19.375 17.4993Z" fill="#067647"/>
<path fill-rule="evenodd" clip-rule="evenodd" d="M11.6667 28.9577C11.3215 28.9577 11.0417 28.6779 11.0417 28.3327C11.0417 27.9875 11.3215 27.7077 11.6667 27.7077H12.2917V23.8295C11.985 23.6987 11.727 23.4785 11.5328 23.2195C11.2179 22.7997 11.0417 22.2484 11.0417 21.666C11.0417 21.0836 11.2179 20.5323 11.5328 20.1125C11.8478 19.6925 12.3306 19.3743 12.9167 19.3743C13.5027 19.3743 13.9855 19.6925 14.3005 20.1125C14.6154 20.5323 14.7917 21.0836 14.7917 21.666C14.7917 22.2484 14.6154 22.7997 14.3005 23.2195C14.1063 23.4785 13.8483 23.6987 13.5417 23.8295V27.7077H16.0417L16.0417 14.166C16.0417 13.6354 16.0685 13.1668 16.156 12.7687C16.245 12.3635 16.4051 11.9925 16.6991 11.6984C16.9931 11.4044 17.3641 11.2444 17.7694 11.1553C18.1675 11.0679 18.636 11.041 19.1667 11.041L22.5 11.041C23.0306 11.041 23.4992 11.0679 23.8973 11.1553C24.3025 11.2444 24.6736 11.4044 24.9676 11.6984C25.2616 11.9925 25.4217 12.3635 25.5107 12.7687C25.5981 13.1668 25.625 13.6354 25.625 14.166V19.655C25.6716 19.6794 25.718 19.705 25.7644 19.7317C26.1135 19.9327 26.507 20.2251 26.974 20.5722L27.4396 20.9181C27.7384 21.1402 27.9938 21.33 28.1933 21.5068C28.4058 21.6951 28.5876 21.8962 28.7204 22.1555C28.9602 22.6239 28.9595 23.1533 28.9586 23.801L28.9585 25.1925C28.9586 25.9051 28.9586 26.5049 28.8914 26.9823C28.8199 27.4905 28.6616 27.9508 28.2771 28.3182C27.9076 28.6713 27.4536 28.8192 26.953 28.8884C26.8672 28.9327 26.7699 28.9577 26.6667 28.9577L11.6667 28.9577ZM24.0263 20.815C23.7481 20.9751 23.4133 21.2227 22.9098 21.5968L22.4932 21.9065C22.1687 22.1476 21.9572 22.3055 21.8028 22.4423C21.6569 22.5716 21.5961 22.6534 21.5593 22.7251C21.4745 22.8908 21.4585 23.0907 21.4585 23.9188L21.4585 27.7077H23.9583V26.666C23.9583 26.3208 24.2381 26.041 24.5833 26.041C24.9285 26.041 25.2083 26.3208 25.2083 26.666V27.7076C25.8981 27.7071 26.3806 27.7018 26.7493 27.6545C27.1389 27.6044 27.3059 27.5173 27.4136 27.4144C27.5173 27.3153 27.6031 27.1671 27.6536 26.8081C27.7071 26.4281 27.7085 25.917 27.7085 25.1479V23.9188C27.7085 23.0907 27.6925 22.8908 27.6077 22.7251C27.571 22.6534 27.5101 22.5716 27.3642 22.4423C27.2099 22.3055 26.9983 22.1476 26.6739 21.9065L26.2572 21.5968C25.7538 21.2227 25.4189 20.9751 25.1407 20.815C24.8773 20.6633 24.7208 20.6243 24.5835 20.6243C24.4463 20.6243 24.2898 20.6633 24.0263 20.815ZM20.2085 27.7077L17.2917 27.7077L17.2917 14.166C17.2917 13.6625 17.3188 13.3014 17.3769 13.0369C17.4334 12.7795 17.5105 12.6548 17.583 12.5823C17.6554 12.5099 17.7801 12.4328 18.0376 12.3762C18.3021 12.3181 18.6631 12.291 19.1667 12.291L22.5 12.291C23.0035 12.291 23.3646 12.3181 23.6291 12.3762C23.8865 12.4328 24.0112 12.5099 24.0837 12.5823C24.1561 12.6548 24.2332 12.7795 24.2898 13.0369C24.3479 13.3014 24.375 13.6625 24.375 14.166V19.3855C24.0264 19.4232 23.7131 19.5529 23.4027 19.7317C23.0535 19.9327 22.66 20.2251 22.193 20.5722L21.7274 20.9181C21.4286 21.1402 21.1732 21.33 20.9737 21.5068C20.7613 21.6951 20.5794 21.8962 20.4467 22.1555C20.2069 22.6239 20.2076 23.1533 20.2084 23.801L20.2085 27.7077ZM12.2917 21.666C12.2917 21.3279 12.3952 21.0459 12.5328 20.8625C12.6702 20.6793 12.8123 20.6243 12.9167 20.6243C13.021 20.6243 13.1631 20.6793 13.3005 20.8625C13.4381 21.0459 13.5417 21.3279 13.5417 21.666C13.5417 22.0041 13.4381 22.2861 13.3005 22.4695C13.1631 22.6527 13.021 22.7077 12.9167 22.7077C12.8123 22.7077 12.6702 22.6527 12.5328 22.4695C12.3952 22.2861 12.2917 22.0041 12.2917 21.666Z" fill="#067647"/>
</svg>
