<svg width="40" height="40" viewBox="0 0 40 40" fill="none" xmlns="http://www.w3.org/2000/svg">
<path d="M0 20C0 8.95431 8.95431 0 20 0C31.0457 0 40 8.95431 40 20C40 31.0457 31.0457 40 20 40C8.95431 40 0 31.0457 0 20Z" fill="#ECFDF3"/>
<path d="M19.3743 14.9974C19.3743 14.6522 19.6542 14.3724 19.9993 14.3724L21.666 14.3724C22.0112 14.3724 22.291 14.6522 22.291 14.9974C22.291 15.3426 22.0112 15.6224 21.666 15.6224L19.9993 15.6224C19.6542 15.6224 19.3743 15.3426 19.3743 14.9974Z" fill="#067647"/>
<path d="M19.3743 17.4974C19.3743 17.1522 19.6542 16.8724 19.9993 16.8724L21.666 16.8724C22.0112 16.8724 22.291 17.1522 22.291 17.4974C22.291 17.8426 22.0112 18.1224 21.666 18.1224L19.9993 18.1224C19.6542 18.1224 19.3743 17.8426 19.3743 17.4974Z" fill="#067647"/>
<path fill-rule="evenodd" clip-rule="evenodd" d="M11.666 28.9557C11.3208 28.9557 11.041 28.6759 11.041 28.3307C11.041 27.9855 11.3208 27.7057 11.666 27.7057H12.291V23.8276C11.9844 23.6967 11.7263 23.4765 11.5321 23.2176C11.2173 22.7978 11.041 22.2465 11.041 21.6641C11.041 21.0817 11.2173 20.5304 11.5321 20.1106C11.8471 19.6906 12.33 19.3724 12.916 19.3724C13.502 19.3724 13.9849 19.6906 14.2999 20.1106C14.6148 20.5304 14.791 21.0817 14.791 21.6641C14.791 22.2465 14.6148 22.7978 14.2999 23.2176C14.1057 23.4765 13.8477 23.6967 13.541 23.8276V27.7057H16.041L16.041 14.1641C16.041 13.6335 16.0679 13.1649 16.1553 12.7668C16.2444 12.3616 16.4044 11.9905 16.6984 11.6965C16.9925 11.4025 17.3635 11.2424 17.7687 11.1534C18.1668 11.0659 18.6354 11.0391 19.166 11.0391L22.4993 11.0391C23.03 11.0391 23.4985 11.0659 23.8967 11.1534C24.3019 11.2424 24.6729 11.4025 24.9669 11.6965C25.2609 11.9905 25.421 12.3616 25.51 12.7668C25.5975 13.1649 25.6243 13.6335 25.6243 14.1641V19.6531C25.6709 19.6774 25.7174 19.703 25.7637 19.7297C26.1129 19.9307 26.5064 20.2231 26.9734 20.5702L27.439 20.9162C27.7378 21.1382 27.9932 21.328 28.1927 21.5048C28.4051 21.6931 28.587 21.8942 28.7198 22.1536C28.9595 22.622 28.9588 23.1513 28.958 23.799L28.9579 25.1905C28.9579 25.9031 28.9579 26.5029 28.8908 26.9803C28.8192 27.4886 28.661 27.9489 28.2765 28.3162C27.9069 28.6693 27.4529 28.8172 26.9524 28.8864C26.8666 28.9307 26.7692 28.9557 26.666 28.9557L11.666 28.9557ZM24.0257 20.813C23.7475 20.9732 23.4126 21.2208 22.9092 21.5949L22.4925 21.9045C22.1681 22.1456 21.9565 22.3035 21.8022 22.4403C21.6563 22.5696 21.5954 22.6514 21.5587 22.7232C21.4739 22.8888 21.4579 23.0887 21.4579 23.9168L21.4579 27.7057H23.9577V26.6641C23.9577 26.3189 24.2375 26.0391 24.5827 26.0391C24.9279 26.0391 25.2077 26.3189 25.2077 26.6641V27.7057C25.8975 27.7051 26.38 27.6999 26.7487 27.6525C27.1383 27.6025 27.3053 27.5153 27.413 27.4124C27.5166 27.3134 27.6024 27.1651 27.653 26.8061C27.7064 26.4261 27.7079 25.915 27.7079 25.1459V23.9168C27.7079 23.0887 27.6919 22.8888 27.6071 22.7232C27.5703 22.6514 27.5095 22.5696 27.3636 22.4403C27.2092 22.3035 26.9977 22.1456 26.6732 21.9045L26.2566 21.5949C25.7531 21.2208 25.4183 20.9732 25.1401 20.813C24.8766 20.6613 24.7201 20.6224 24.5829 20.6224C24.4456 20.6224 24.2891 20.6613 24.0257 20.813ZM20.2079 27.7057L17.291 27.7057L17.291 14.1641C17.291 13.6605 17.3181 13.2995 17.3762 13.035C17.4328 12.7775 17.5099 12.6528 17.5823 12.5804C17.6548 12.5079 17.7795 12.4308 18.0369 12.3743C18.3014 12.3162 18.6625 12.2891 19.166 12.2891L22.4993 12.2891C23.0029 12.2891 23.3639 12.3162 23.6284 12.3743C23.8859 12.4308 24.0106 12.5079 24.083 12.5804C24.1555 12.6528 24.2326 12.7775 24.2891 13.035C24.3473 13.2995 24.3743 13.6605 24.3743 14.1641V19.3836C24.0258 19.4212 23.7125 19.551 23.402 19.7297C23.0529 19.9307 22.6594 20.2231 22.1924 20.5702L21.7268 20.9162C21.428 21.1382 21.1726 21.328 20.9731 21.5048C20.7606 21.6931 20.5788 21.8942 20.446 22.1536C20.2062 22.622 20.2069 23.1513 20.2078 23.799L20.2079 27.7057ZM12.291 21.6641C12.291 21.326 12.3946 21.044 12.5321 20.8606C12.6695 20.6773 12.8117 20.6224 12.916 20.6224C13.0204 20.6224 13.1625 20.6773 13.2999 20.8606C13.4375 21.044 13.541 21.326 13.541 21.6641C13.541 22.0021 13.4375 22.2842 13.2999 22.4676C13.1625 22.6508 13.0204 22.7057 12.916 22.7057C12.8117 22.7057 12.6695 22.6508 12.5321 22.4676C12.3946 22.2842 12.291 22.0021 12.291 21.6641Z" fill="#067647"/>
</svg>
