<svg width="18" height="18" viewBox="0 0 18 18" fill="none" xmlns="http://www.w3.org/2000/svg">
<path d="M1.98542 5.87435C3.18019 3.17148 5.85835 1.29102 8.9998 1.29102C13.257 1.29102 16.7081 4.74215 16.7081 8.99935C16.7081 13.2565 13.257 16.7077 8.99984 16.7077C8.65466 16.7077 8.37484 16.9875 8.37484 17.3327C8.37484 17.6779 8.65466 17.9577 8.99984 17.9577C13.9474 17.9577 17.9581 13.9469 17.9581 8.99935C17.9581 4.0518 13.9474 0.0410156 8.9998 0.0410156C4.98453 0.0410156 1.62728 2.68119 0.486888 6.31207C0.427263 6.50191 0.461597 6.70879 0.579346 6.8692C0.697095 7.0296 0.884187 7.12435 1.08317 7.12435H3.1665C3.51168 7.12435 3.7915 6.84453 3.7915 6.49935C3.7915 6.15417 3.51168 5.87435 3.1665 5.87435H1.98542Z" fill="#067647"/>
<path d="M8.99984 5.04102C9.34502 5.04102 9.62484 5.32084 9.62484 5.66602V8.74047L11.1084 10.2241C11.3525 10.4682 11.3525 10.8639 11.1084 11.108C10.8644 11.352 10.4686 11.352 10.2246 11.108L8.5579 9.44129C8.44069 9.32408 8.37484 9.16511 8.37484 8.99935V5.66602C8.37484 5.32084 8.65466 5.04102 8.99984 5.04102Z" fill="#067647"/>
<path d="M1.2915 8.99935C1.2915 8.65417 1.01168 8.37435 0.666504 8.37435C0.321326 8.37435 0.0415039 8.65417 0.0415039 8.99935C0.0415039 9.29922 0.0550222 9.59595 0.0814847 9.88891C0.112538 10.2327 0.416399 10.4862 0.760177 10.4551C1.10396 10.4241 1.35747 10.1202 1.32642 9.77646C1.30333 9.52085 1.2915 9.26163 1.2915 8.99935Z" fill="#067647"/>
<path d="M1.83053 11.9842C1.70886 11.6612 1.34836 11.498 1.02534 11.6197C0.702315 11.7413 0.53909 12.1018 0.660765 12.4248C0.794119 12.7789 0.947544 13.1224 1.1196 13.4539C1.2786 13.7603 1.65587 13.8798 1.96224 13.7208C2.26861 13.5617 2.38808 13.1845 2.22907 12.8781C2.07971 12.5903 1.94643 12.2919 1.83053 11.9842Z" fill="#067647"/>
<path d="M3.48394 14.6629C3.24911 14.4099 2.85366 14.3952 2.60067 14.63C2.34767 14.8648 2.33295 15.2603 2.56777 15.5133C2.84098 15.8076 3.13267 16.0834 3.44099 16.3385C3.70691 16.5586 4.10089 16.5214 4.32096 16.2555C4.54103 15.9896 4.50386 15.5956 4.23793 15.3755C3.9721 15.1556 3.72019 14.9174 3.48394 14.6629Z" fill="#067647"/>
<path d="M5.9267 16.4376C5.61286 16.2938 5.24194 16.4318 5.09824 16.7456C4.95454 17.0595 5.09246 17.4304 5.40631 17.5741C5.6978 17.7075 5.9975 17.8253 6.30443 17.9264C6.63231 18.0343 6.98559 17.856 7.09351 17.5281C7.20143 17.2002 7.02312 16.8469 6.69524 16.739C6.43285 16.6526 6.17639 16.5519 5.9267 16.4376Z" fill="#067647"/>
</svg>
