<svg width="40" height="40" viewBox="0 0 40 40" fill="none" xmlns="http://www.w3.org/2000/svg">
<path d="M0 20C0 8.95431 8.95431 0 20 0C31.0457 0 40 8.95431 40 20C40 31.0457 31.0457 40 20 40C8.95431 40 0 31.0457 0 20Z" fill="#ECFDF3"/>
<path d="M23.7727 17.1086C24.0167 16.8645 24.0167 16.4688 23.7727 16.2247C23.5286 15.9807 23.1329 15.9807 22.8888 16.2247L19.9975 19.1161L18.356 17.4747C18.1119 17.2306 17.7162 17.2307 17.4721 17.4747C17.228 17.7188 17.2281 18.1146 17.4721 18.3586L19.1136 19.9999L18.7221 20.3914C18.478 20.6355 18.478 21.0312 18.7221 21.2753C18.9662 21.5194 19.3619 21.5194 19.606 21.2753L19.9975 20.8838L20.3887 21.275C20.6328 21.5191 21.0285 21.519 21.2726 21.275C21.5167 21.0309 21.5166 20.6351 21.2726 20.3911L20.8814 19.9999L23.7727 17.1086Z" fill="#067647"/>
<path fill-rule="evenodd" clip-rule="evenodd" d="M19.9974 11.0417C15.0498 11.0417 11.0391 15.0525 11.0391 20C11.0391 24.9476 15.0498 28.9583 19.9974 28.9583C24.9449 28.9583 28.9557 24.9476 28.9557 20C28.9557 15.0525 24.9449 11.0417 19.9974 11.0417ZM12.2891 20C12.2891 15.7428 15.7402 12.2917 19.9974 12.2917C24.2546 12.2917 27.7057 15.7428 27.7057 20C27.7057 24.2572 24.2546 27.7083 19.9974 27.7083C15.7402 27.7083 12.2891 24.2572 12.2891 20Z" fill="#067647"/>
</svg>
