<svg width="18" height="18" viewBox="0 0 18 18" fill="none" xmlns="http://www.w3.org/2000/svg">
<path fill-rule="evenodd" clip-rule="evenodd" d="M9.63175 4.83197C9.63175 4.48679 9.35193 4.20697 9.00675 4.20697C8.66158 4.20697 8.38175 4.48679 8.38175 4.83197V7.23796C7.65351 7.49536 7.13175 8.18988 7.13175 9.00627C7.13175 10.0418 7.97122 10.8813 9.00675 10.8813C9.29516 10.8813 9.56836 10.8161 9.81246 10.6998L11.0706 11.9579C11.3146 12.202 11.7104 12.202 11.9544 11.9579C12.1985 11.7138 12.1985 11.3181 11.9544 11.074L10.6977 9.81733C10.8157 9.57188 10.8818 9.29679 10.8818 9.00627C10.8818 8.18988 10.36 7.49536 9.63175 7.23796V4.83197ZM9.63175 9.00627C9.63175 9.17948 9.5613 9.33623 9.44748 9.44942C9.33447 9.56181 9.17872 9.63127 9.00675 9.63127C8.66158 9.63127 8.38175 9.35144 8.38175 9.00627C8.38175 8.66109 8.66158 8.38127 9.00675 8.38127C9.35193 8.38127 9.63175 8.66109 9.63175 9.00627Z" fill="#067647"/>
<path fill-rule="evenodd" clip-rule="evenodd" d="M8.99984 0.0410156C4.05229 0.0410156 0.0415039 4.0518 0.0415039 8.99935C0.0415039 13.9469 4.05229 17.9577 8.99984 17.9577C13.9474 17.9577 17.9582 13.9469 17.9582 8.99935C17.9582 4.0518 13.9474 0.0410156 8.99984 0.0410156ZM1.2915 8.99935C1.2915 4.74215 4.74264 1.29102 8.99984 1.29102C13.257 1.29102 16.7082 4.74215 16.7082 8.99935C16.7082 13.2565 13.257 16.7077 8.99984 16.7077C4.74264 16.7077 1.2915 13.2565 1.2915 8.99935Z" fill="#067647"/>
</svg>
