<svg width="18" height="18" viewBox="0 0 18 18" fill="none" xmlns="http://www.w3.org/2000/svg">
<path d="M7.54183 4.83337C7.54183 4.4882 7.82165 4.20837 8.16683 4.20837L13.1668 4.20837C13.512 4.20837 13.7918 4.4882 13.7918 4.83337C13.7918 5.17855 13.512 5.45837 13.1668 5.45837L8.16683 5.45837C7.82165 5.45837 7.54183 5.17855 7.54183 4.83337Z" fill="#1B8354"/>
<path d="M4.8335 4.20837C4.48832 4.20837 4.2085 4.4882 4.2085 4.83337C4.2085 5.17855 4.48832 5.45837 4.8335 5.45837H5.66683C6.01201 5.45837 6.29183 5.17855 6.29183 4.83337C6.29183 4.4882 6.01201 4.20837 5.66683 4.20837H4.8335Z" fill="#1B8354"/>
<path d="M4.2085 9.00004C4.2085 8.65486 4.48832 8.37504 4.8335 8.37504L5.66683 8.37504C6.01201 8.37504 6.29183 8.65486 6.29183 9.00004C6.29183 9.34522 6.01201 9.62504 5.66683 9.62504L4.8335 9.62504C4.48832 9.62504 4.2085 9.34522 4.2085 9.00004Z" fill="#1B8354"/>
<path d="M4.8335 12.5417C4.48832 12.5417 4.2085 12.8215 4.2085 13.1667C4.2085 13.5119 4.48832 13.7917 4.8335 13.7917H5.66683C6.01201 13.7917 6.29183 13.5119 6.29183 13.1667C6.29183 12.8215 6.01201 12.5417 5.66683 12.5417L4.8335 12.5417Z" fill="#1B8354"/>
<path d="M7.54183 9.00004C7.54183 8.65486 7.82165 8.37504 8.16683 8.37504L13.1668 8.37504C13.512 8.37504 13.7918 8.65486 13.7918 9.00004C13.7918 9.34522 13.512 9.62504 13.1668 9.62504L8.16683 9.62504C7.82165 9.62504 7.54183 9.34522 7.54183 9.00004Z" fill="#1B8354"/>
<path d="M8.16683 12.5417C7.82165 12.5417 7.54183 12.8215 7.54183 13.1667C7.54183 13.5119 7.82165 13.7917 8.16683 13.7917L13.1668 13.7917C13.512 13.7917 13.7918 13.5119 13.7918 13.1667C13.7918 12.8215 13.512 12.5417 13.1668 12.5417L8.16683 12.5417Z" fill="#1B8354"/>
<path fill-rule="evenodd" clip-rule="evenodd" d="M8.95252 0.458374H9.04781C10.8734 0.458363 12.3073 0.458354 13.4268 0.608869C14.574 0.763108 15.4842 1.08564 16.1994 1.8008C16.9146 2.51597 17.2371 3.42618 17.3913 4.57339C17.5418 5.6929 17.5418 7.12679 17.5418 8.95237V9.04768C17.5418 10.8733 17.5418 12.3072 17.3913 13.4267C17.2371 14.5739 16.9146 15.4841 16.1994 16.1993C15.4842 16.9144 14.574 17.237 13.4268 17.3912C12.3073 17.5417 10.8734 17.5417 9.04783 17.5417H8.95252C7.12695 17.5417 5.69303 17.5417 4.57352 17.3912C3.4263 17.237 2.51609 16.9144 1.80092 16.1993C1.08576 15.4841 0.76323 14.5739 0.608991 13.4267C0.458476 12.3072 0.458485 10.8733 0.458496 9.04769V8.9524C0.458485 7.12681 0.458476 5.69291 0.608991 4.57339C0.76323 3.42618 1.08576 2.51597 1.80092 1.8008C2.51609 1.08564 3.4263 0.763108 4.57352 0.608869C5.69303 0.458354 7.12693 0.458363 8.95252 0.458374ZM4.74008 1.84772C3.73147 1.98333 3.12901 2.24048 2.68481 2.68469C2.2406 3.12889 1.98345 3.73135 1.84784 4.73995C1.70982 5.76654 1.7085 7.1164 1.7085 9.00004C1.7085 10.8837 1.70982 12.2335 1.84784 13.2601C1.98345 14.2687 2.2406 14.8712 2.68481 15.3154C3.12901 15.7596 3.73147 16.0168 4.74008 16.1524C5.76666 16.2904 7.11652 16.2917 9.00016 16.2917C10.8838 16.2917 12.2337 16.2904 13.2603 16.1524C14.2689 16.0168 14.8713 15.7596 15.3155 15.3154C15.7597 14.8712 16.0169 14.2687 16.1525 13.2601C16.2905 12.2335 16.2918 10.8837 16.2918 9.00004C16.2918 7.1164 16.2905 5.76654 16.1525 4.73995C16.0169 3.73135 15.7597 3.12889 15.3155 2.68469C14.8713 2.24048 14.2689 1.98333 13.2603 1.84772C12.2337 1.7097 10.8838 1.70837 9.00016 1.70837C7.11652 1.70837 5.76666 1.7097 4.74008 1.84772Z" fill="#1B8354"/>
<path d="M7.54183 4.83337C7.54183 4.4882 7.82165 4.20837 8.16683 4.20837L13.1668 4.20837C13.512 4.20837 13.7918 4.4882 13.7918 4.83337C13.7918 5.17855 13.512 5.45837 13.1668 5.45837L8.16683 5.45837C7.82165 5.45837 7.54183 5.17855 7.54183 4.83337Z" stroke="#9DA4AE"/>
<path d="M4.8335 4.20837C4.48832 4.20837 4.2085 4.4882 4.2085 4.83337C4.2085 5.17855 4.48832 5.45837 4.8335 5.45837H5.66683C6.01201 5.45837 6.29183 5.17855 6.29183 4.83337C6.29183 4.4882 6.01201 4.20837 5.66683 4.20837H4.8335Z" stroke="#9DA4AE"/>
<path d="M4.2085 9.00004C4.2085 8.65486 4.48832 8.37504 4.8335 8.37504L5.66683 8.37504C6.01201 8.37504 6.29183 8.65486 6.29183 9.00004C6.29183 9.34522 6.01201 9.62504 5.66683 9.62504L4.8335 9.62504C4.48832 9.62504 4.2085 9.34522 4.2085 9.00004Z" stroke="#9DA4AE"/>
<path d="M4.8335 12.5417C4.48832 12.5417 4.2085 12.8215 4.2085 13.1667C4.2085 13.5119 4.48832 13.7917 4.8335 13.7917H5.66683C6.01201 13.7917 6.29183 13.5119 6.29183 13.1667C6.29183 12.8215 6.01201 12.5417 5.66683 12.5417L4.8335 12.5417Z" stroke="#9DA4AE"/>
<path d="M7.54183 9.00004C7.54183 8.65486 7.82165 8.37504 8.16683 8.37504L13.1668 8.37504C13.512 8.37504 13.7918 8.65486 13.7918 9.00004C13.7918 9.34522 13.512 9.62504 13.1668 9.62504L8.16683 9.62504C7.82165 9.62504 7.54183 9.34522 7.54183 9.00004Z" stroke="#9DA4AE"/>
<path d="M8.16683 12.5417C7.82165 12.5417 7.54183 12.8215 7.54183 13.1667C7.54183 13.5119 7.82165 13.7917 8.16683 13.7917L13.1668 13.7917C13.512 13.7917 13.7918 13.5119 13.7918 13.1667C13.7918 12.8215 13.512 12.5417 13.1668 12.5417L8.16683 12.5417Z" stroke="#9DA4AE"/>
<path fill-rule="evenodd" clip-rule="evenodd" d="M8.95252 0.458374H9.04781C10.8734 0.458363 12.3073 0.458354 13.4268 0.608869C14.574 0.763108 15.4842 1.08564 16.1994 1.8008C16.9146 2.51597 17.2371 3.42618 17.3913 4.57339C17.5418 5.6929 17.5418 7.12679 17.5418 8.95237V9.04768C17.5418 10.8733 17.5418 12.3072 17.3913 13.4267C17.2371 14.5739 16.9146 15.4841 16.1994 16.1993C15.4842 16.9144 14.574 17.237 13.4268 17.3912C12.3073 17.5417 10.8734 17.5417 9.04783 17.5417H8.95252C7.12695 17.5417 5.69303 17.5417 4.57352 17.3912C3.4263 17.237 2.51609 16.9144 1.80092 16.1993C1.08576 15.4841 0.76323 14.5739 0.608991 13.4267C0.458476 12.3072 0.458485 10.8733 0.458496 9.04769V8.9524C0.458485 7.12681 0.458476 5.69291 0.608991 4.57339C0.76323 3.42618 1.08576 2.51597 1.80092 1.8008C2.51609 1.08564 3.4263 0.763108 4.57352 0.608869C5.69303 0.458354 7.12693 0.458363 8.95252 0.458374ZM4.74008 1.84772C3.73147 1.98333 3.12901 2.24048 2.68481 2.68469C2.2406 3.12889 1.98345 3.73135 1.84784 4.73995C1.70982 5.76654 1.7085 7.1164 1.7085 9.00004C1.7085 10.8837 1.70982 12.2335 1.84784 13.2601C1.98345 14.2687 2.2406 14.8712 2.68481 15.3154C3.12901 15.7596 3.73147 16.0168 4.74008 16.1524C5.76666 16.2904 7.11652 16.2917 9.00016 16.2917C10.8838 16.2917 12.2337 16.2904 13.2603 16.1524C14.2689 16.0168 14.8713 15.7596 15.3155 15.3154C15.7597 14.8712 16.0169 14.2687 16.1525 13.2601C16.2905 12.2335 16.2918 10.8837 16.2918 9.00004C16.2918 7.1164 16.2905 5.76654 16.1525 4.73995C16.0169 3.73135 15.7597 3.12889 15.3155 2.68469C14.8713 2.24048 14.2689 1.98333 13.2603 1.84772C12.2337 1.7097 10.8838 1.70837 9.00016 1.70837C7.11652 1.70837 5.76666 1.7097 4.74008 1.84772Z" stroke="#9DA4AE"/>
</svg>
