<svg width="21" height="20" viewBox="0 0 21 20" fill="none" xmlns="http://www.w3.org/2000/svg">
<path d="M16.6348 8.7709C16.8789 9.01498 16.8789 9.4107 16.6348 9.65478L14.8019 11.4877C14.5579 11.7318 14.1621 11.7318 13.918 11.4877C13.674 11.2436 13.674 10.8479 13.918 10.6038L15.751 8.7709C15.995 8.52682 16.3908 8.52682 16.6348 8.7709Z" fill="#1B8354"/>
<path d="M13.2376 12.1495C13.4817 12.3935 13.4817 12.7893 13.2376 13.0333L12.422 13.8489C12.178 14.093 11.7822 14.093 11.5382 13.8489C11.2941 13.6048 11.2941 13.2091 11.5382 12.965L12.3537 12.1495C12.5978 11.9054 12.9935 11.9054 13.2376 12.1495Z" fill="#1B8354"/>
<path fill-rule="evenodd" clip-rule="evenodd" d="M8.94904 2.20345C10.4983 0.654187 13.0102 0.654188 14.5594 2.20345L18.463 6.10699C20.0122 7.65626 20.0122 10.1681 18.463 11.7174L12.4722 17.7082H17.3333C17.6784 17.7082 17.9583 17.988 17.9583 18.3332C17.9583 18.6783 17.6784 18.9582 17.3333 18.9582H3.99992C3.65474 18.9582 3.37492 18.6783 3.37492 18.3332C3.37492 17.988 3.65474 17.7082 3.99992 17.7082H6.68569L2.8702 13.8927C1.32094 12.3434 1.32094 9.83156 2.8702 8.2823L8.94904 2.20345ZM9.83293 3.08734C10.7755 2.14474 12.2384 2.03946 13.2972 2.7715L3.43822 12.6304C2.70621 11.5716 2.8115 10.1088 3.75408 9.16618L9.83293 3.08734ZM7.65762 16.9123L4.29083 13.5455L14.2123 3.62411L17.5791 6.99087C18.6402 8.05198 18.6402 9.77238 17.5791 10.8335L11.5002 16.9123C10.4391 17.9734 8.71873 17.9734 7.65762 16.9123Z" fill="#1B8354"/>
</svg>
