<svg width="28" height="26" viewBox="0 0 28 26" fill="none" xmlns="http://www.w3.org/2000/svg">
<g id="elements">
<path id="Icon" fill-rule="evenodd" clip-rule="evenodd" d="M14.0001 2.68798C9.85713 2.68799 6.66399 5.34107 6.23636 8.52234C6.41599 8.59306 6.59687 8.67584 6.78222 8.76066L6.88727 8.80866L6.96902 8.84578C7.30988 9.00034 7.64379 9.15173 7.91014 9.38337C8.68874 10.0605 8.68799 10.9542 8.68756 11.471L8.68756 17.0304C8.68799 17.5472 8.68874 18.441 7.91014 19.1181C7.6438 19.3497 7.30989 19.5011 6.96902 19.6557L6.88728 19.6928L6.78221 19.7408C6.32858 19.9484 5.90169 20.1438 5.45456 20.1799C4.14822 20.2856 3.41649 19.3945 2.98661 18.871L2.95154 18.8283C2.84258 18.696 2.70843 18.5405 2.56356 18.3727C2.29871 18.0658 1.99806 17.7174 1.75011 17.3929C1.34054 16.8569 0.930129 16.2146 0.726261 15.4683C0.507967 14.6693 0.507966 13.8322 0.726261 13.0331C0.874194 12.4916 1.14185 12.0137 1.49517 11.5121C1.83733 11.0264 2.29828 10.4666 2.86826 9.77427L2.89144 9.74612C2.9148 9.71773 2.93927 9.68762 2.9649 9.65608C3.25359 9.30077 3.68912 8.76474 4.35068 8.48964C4.79525 4.0793 9.07014 0.812985 14.0001 0.812985C18.93 0.812986 23.2049 4.07931 23.6495 8.48964C24.311 8.76475 24.7466 9.30077 25.0353 9.65607L25.0365 9.65758C25.0617 9.68857 25.0857 9.71819 25.1087 9.74612L25.1318 9.77419C25.7018 10.4665 26.1628 11.0264 26.505 11.5121C26.8583 12.0137 27.126 12.4916 27.2739 13.0331C27.4922 13.8322 27.4922 14.6693 27.2739 15.4683C27.07 16.2146 26.6596 16.8569 26.2501 17.3929C26.0021 17.7173 25.7015 18.0656 25.4367 18.3725C25.2919 18.5404 25.1576 18.696 25.0486 18.8283L25.0136 18.871C24.7295 19.2169 24.3138 19.7232 23.6876 19.9965L23.6876 20.2505C23.6876 23.1618 20.8232 25.188 17.7501 25.188L15.2501 25.188C14.7323 25.188 14.3126 24.7683 14.3126 24.2505C14.3126 23.7327 14.7323 23.313 15.2501 23.313L17.7501 23.313C20.1998 23.313 21.8126 21.7575 21.8126 20.2505L21.8126 19.998C21.6169 19.9234 21.4201 19.8333 21.2179 19.7408L21.1129 19.6928L21.0311 19.6557C20.6903 19.5011 20.3564 19.3497 20.09 19.1181C19.3114 18.441 19.3122 17.5472 19.3126 17.0304L19.3126 11.471C19.3122 10.9542 19.3114 10.0605 20.09 9.38337C20.3564 9.15173 20.6903 9.00034 21.0311 8.84578L21.1129 8.80866L21.2179 8.76066C21.4033 8.67584 21.5842 8.59306 21.7638 8.52234C21.3362 5.34107 18.143 2.68798 14.0001 2.68798ZM22.7724 18.3132C22.765 18.3131 22.7576 18.313 22.7501 18.313C22.7444 18.313 22.7388 18.313 22.7332 18.3131C22.7214 18.3127 22.7093 18.312 22.6967 18.311C22.6222 18.305 22.5191 18.273 21.8901 17.9865C21.4106 17.7681 21.3528 17.7314 21.3204 17.7033C21.2645 17.6546 21.2416 17.6144 21.2229 17.5387C21.1953 17.4272 21.1876 17.279 21.1876 16.9952L21.1876 11.5063C21.1876 11.2225 21.1953 11.0743 21.2229 10.9627C21.2416 10.8871 21.2645 10.8469 21.3204 10.7982C21.3528 10.77 21.4106 10.7334 21.8901 10.515C22.5191 10.2285 22.6222 10.1965 22.6967 10.1904C22.7157 10.1889 22.7338 10.1881 22.7512 10.188L22.7577 10.188C22.8793 10.1886 22.9675 10.2257 23.0739 10.3053C23.2409 10.4302 23.3976 10.6177 23.6612 10.9379C24.2597 11.6649 24.6754 12.1706 24.9721 12.5919C25.2623 13.0039 25.3974 13.279 25.4652 13.5272C25.5951 14.0028 25.5951 14.4987 25.4652 14.9742C25.3544 15.3798 25.1104 15.7962 24.7602 16.2544C24.5351 16.549 24.3175 16.8 24.0873 17.0654C23.9329 17.2434 23.7728 17.428 23.6011 17.6366C23.3574 17.9326 23.2054 18.1031 23.0544 18.2105C22.9625 18.2759 22.8823 18.31 22.7724 18.3132ZM5.249 10.188L5.24251 10.188C5.12085 10.1886 5.03267 10.2257 4.9263 10.3053C4.75928 10.4302 4.60253 10.6177 4.33896 10.9379C3.74041 11.6649 3.3248 12.1706 3.02804 12.5919C2.73781 13.0039 2.60279 13.279 2.53498 13.5272C2.40506 14.0028 2.40506 14.4987 2.53498 14.9742C2.64579 15.3798 2.88978 15.7962 3.23992 16.2544C3.46503 16.549 3.68267 16.8 3.91284 17.0654C4.06724 17.2434 4.22736 17.428 4.39907 17.6366C4.6428 17.9326 4.79476 18.1031 4.94572 18.2105C5.05751 18.29 5.15189 18.3233 5.30342 18.311C5.37792 18.305 5.48104 18.273 6.11008 17.9865C6.58958 17.7681 6.64737 17.7314 6.67972 17.7033C6.73569 17.6546 6.75858 17.6144 6.77727 17.5387C6.80482 17.4272 6.81254 17.279 6.81254 16.9952L6.81254 11.5063C6.81254 11.2225 6.80482 11.0743 6.77727 10.9627C6.75859 10.8871 6.73569 10.8469 6.67972 10.7982C6.64737 10.77 6.58958 10.7334 6.11007 10.515C5.48103 10.2285 5.37792 10.1965 5.30342 10.1904C5.28449 10.1889 5.2664 10.1881 5.249 10.188Z" fill="#067647"/>
</g>
</svg>
