<svg width="40" height="40" viewBox="0 0 40 40" fill="none" xmlns="http://www.w3.org/2000/svg">
<path d="M0 20C0 8.95431 8.95431 0 20 0C31.0457 0 40 8.95431 40 20C40 31.0457 31.0457 40 20 40C8.95431 40 0 31.0457 0 20Z" fill="#FEF3F2"/>
<path d="M19.1595 23.333C19.1595 22.8728 19.5326 22.4997 19.9928 22.4997H20.0003C20.4606 22.4997 20.8337 22.8728 20.8337 23.333C20.8337 23.7932 20.4606 24.1663 20.0003 24.1663H19.9928C19.5326 24.1663 19.1595 23.7932 19.1595 23.333Z" fill="#B42318"/>
<path d="M19.3743 20.833C19.3743 21.1782 19.6542 21.458 19.9993 21.458C20.3445 21.458 20.6243 21.1782 20.6243 20.833V17.4997C20.6243 17.1545 20.3445 16.8747 19.9993 16.8747C19.6542 16.8747 19.3743 17.1545 19.3743 17.4997V20.833Z" fill="#B42318"/>
<path fill-rule="evenodd" clip-rule="evenodd" d="M18.6343 11.6788C19.5214 11.3844 20.4773 11.3844 21.3644 11.6788C22.2477 11.9721 22.9413 12.6675 23.6381 13.6446C24.3326 14.6185 25.1 15.9764 26.0892 17.7268L26.128 17.7955C27.1174 19.5461 27.8848 20.9039 28.363 22.0051C28.8435 23.1116 29.0829 24.067 28.8919 24.9848C28.6996 25.9089 28.2255 26.7492 27.535 27.3844C26.8462 28.018 25.9083 28.2853 24.7273 28.4137C23.5531 28.5414 22.017 28.5413 20.04 28.5413H19.9587C17.9817 28.5413 16.4456 28.5414 15.2714 28.4137C14.0904 28.2853 13.1525 28.018 12.4637 27.3844C11.7732 26.7493 11.2991 25.9089 11.1068 24.9848C10.9158 24.067 11.1552 23.1116 11.6357 22.0051C12.1139 20.9039 12.8813 19.5461 13.8707 17.7955L13.9095 17.7268C14.8987 15.9764 15.6661 14.6185 16.3606 13.6446C17.0574 12.6675 17.751 11.9721 18.6343 11.6788ZM20.9706 12.8652C20.3392 12.6556 19.6595 12.6556 19.0281 12.8652C18.5315 13.0301 18.0322 13.4534 17.3783 14.3704C16.7266 15.2842 15.991 16.5842 14.9782 18.3763C13.9655 20.1682 13.2312 21.4692 12.7823 22.503C12.3325 23.5386 12.2199 24.198 12.3306 24.7302C12.4703 25.4015 12.814 26.0082 13.3099 26.4644C13.6995 26.8227 14.3064 27.0514 15.4065 27.171C16.5052 27.2905 17.9732 27.2913 19.9994 27.2913C22.0255 27.2913 23.4936 27.2905 24.5922 27.171C25.6923 27.0514 26.2992 26.8227 26.6888 26.4644C27.1847 26.0082 27.5284 25.4015 27.6681 24.7302C27.7788 24.198 27.6662 23.5386 27.2164 22.503C26.7675 21.4692 26.0332 20.1682 25.0205 18.3763C24.0077 16.5842 23.2721 15.2842 22.6204 14.3704C21.9665 13.4534 21.4672 13.0301 20.9706 12.8652Z" fill="#B42318"/>
</svg>
