<svg width="40" height="40" viewBox="0 0 40 40" fill="none" xmlns="http://www.w3.org/2000/svg">
<rect width="40" height="40" rx="20" fill="#ECFDF3"/>
<path d="M19 20.25C18.5858 20.25 18.25 20.5858 18.25 21C18.25 21.4142 18.5858 21.75 19 21.75H24C24.4142 21.75 24.75 21.4142 24.75 21C24.75 20.5858 24.4142 20.25 24 20.25H19Z" fill="#1B8354"/>
<path d="M16 20.25C15.5858 20.25 15.25 20.5858 15.25 21C15.25 21.4142 15.5858 21.75 16 21.75H16.009C16.4232 21.75 16.759 21.4142 16.759 21C16.759 20.5858 16.4232 20.25 16.009 20.25H16Z" fill="#1B8354"/>
<path d="M16 24.25C15.5858 24.25 15.25 24.5858 15.25 25C15.25 25.4142 15.5858 25.75 16 25.75H21C21.4142 25.75 21.75 25.4142 21.75 25C21.75 24.5858 21.4142 24.25 21 24.25H16Z" fill="#1B8354"/>
<path d="M23.991 24.25C23.5768 24.25 23.241 24.5858 23.241 25C23.241 25.4142 23.5768 25.75 23.991 25.75H24C24.4142 25.75 24.75 25.4142 24.75 25C24.75 24.5858 24.4142 24.25 24 24.25H23.991Z" fill="#1B8354"/>
<path fill-rule="evenodd" clip-rule="evenodd" d="M14.75 10C14.75 9.58579 14.4142 9.25 14 9.25C13.5858 9.25 13.25 9.58579 13.25 10V10.6348C12.4452 10.8629 11.7665 11.2336 11.2015 11.8444C10.4236 12.6853 10.0778 13.7479 9.91225 15.0795C9.74998 16.3843 9.74999 18.0565 9.75 20.19V20.81C9.74999 22.9435 9.74998 24.6157 9.91225 25.9205C10.0778 27.2521 10.4236 28.3147 11.2015 29.1556C11.9871 30.0049 12.9928 30.3901 14.2513 30.573C15.4693 30.75 17.0255 30.75 18.9892 30.75H21.0108C22.9745 30.75 24.5307 30.75 25.7487 30.573C27.0072 30.3901 28.0129 30.0049 28.7985 29.1556C29.5764 28.3147 29.9222 27.2521 30.0878 25.9205C30.25 24.6157 30.25 22.9435 30.25 20.8099V20.1901C30.25 18.0565 30.25 16.3843 30.0878 15.0795C29.9222 13.7479 29.5764 12.6853 28.7985 11.8444C28.2335 11.2336 27.5548 10.8629 26.75 10.6348V10C26.75 9.58579 26.4142 9.25 26 9.25C25.5858 9.25 25.25 9.58579 25.25 10V10.3659C24.1139 10.25 22.716 10.25 21.0108 10.25H18.9892C17.284 10.25 15.8861 10.25 14.75 10.3659V10ZM12.3027 12.8629C12.562 12.5826 12.8713 12.3679 13.2786 12.2058C13.3681 12.52 13.6572 12.75 14 12.75C14.4142 12.75 14.75 12.4142 14.75 12V11.8746C15.811 11.7516 17.1824 11.75 19.05 11.75H20.95C22.8176 11.75 24.189 11.7516 25.25 11.8746V12C25.25 12.4142 25.5858 12.75 26 12.75C26.3428 12.75 26.6319 12.52 26.7214 12.2058C27.1287 12.3679 27.438 12.5826 27.6973 12.8629C28.1696 13.3735 28.4495 14.0734 28.5974 15.25H11.4026C11.5505 14.0734 11.8304 13.3735 12.3027 12.8629ZM11.2889 16.75C11.2505 17.7069 11.25 18.8508 11.25 20.2432V20.7568C11.25 22.9551 11.2514 24.5339 11.4008 25.7354C11.5482 26.9208 11.8285 27.6244 12.3027 28.1371C12.7692 28.6414 13.3973 28.9331 14.467 29.0886C15.5648 29.2481 17.0119 29.25 19.05 29.25H20.95C22.9881 29.25 24.4352 29.2481 25.533 29.0886C26.6027 28.9331 27.2308 28.6414 27.6973 28.1371C28.1715 27.6244 28.4518 26.9208 28.5992 25.7354C28.7486 24.5339 28.75 22.9551 28.75 20.7568V20.2432C28.75 18.8508 28.7495 17.7069 28.7111 16.75H11.2889Z" fill="#1B8354"/>
</svg>
