<svg width="40" height="40" viewBox="0 0 40 40" fill="none" xmlns="http://www.w3.org/2000/svg">
<path d="M0 20C0 8.95431 8.95431 0 20 0C31.0457 0 40 8.95431 40 20C40 31.0457 31.0457 40 20 40C8.95431 40 0 31.0457 0 20Z" fill="#F9FAFB"/>
<path d="M27.7087 20.0013C27.7087 15.7441 24.2575 12.293 20.0003 12.293C19.8783 12.293 19.757 12.2958 19.6364 12.3014C19.5643 12.3047 19.5005 12.3077 19.4429 12.3108C19.4851 12.3713 19.5333 12.4388 19.589 12.5169L20.5089 13.8047C20.7095 14.0856 20.6445 14.4759 20.3636 14.6765C20.0827 14.8772 19.6924 14.8121 19.4917 14.5312L18.5482 13.2103C18.3978 12.9999 18.2424 12.7826 18.1469 12.587C18.0352 12.3581 17.9384 12.0237 18.1125 11.665C18.2807 11.3188 18.5842 11.1815 18.8374 11.1241C19.0437 11.0773 19.2993 11.0656 19.5381 11.0546L19.5785 11.0527C19.7183 11.0462 19.859 11.043 20.0003 11.043C24.9479 11.043 28.9587 15.0538 28.9587 20.0013C28.9587 24.9489 24.9479 28.9596 20.0003 28.9596C15.0528 28.9596 11.042 24.9489 11.042 20.0013C11.042 17.0701 12.4505 14.4676 14.625 12.8343C14.901 12.627 15.2927 12.6827 15.5001 12.9587C15.7074 13.2347 15.6517 13.6264 15.3757 13.8338C13.502 15.2411 12.292 17.4798 12.292 20.0013C12.292 24.2585 15.7431 27.7096 20.0003 27.7096C24.2575 27.7096 27.7087 24.2585 27.7087 20.0013Z" fill="#1B8354"/>
<path d="M19.0919 17.7096C18.5954 17.7096 18.1679 18.0601 18.0705 18.547L17.7208 20.2954C17.679 20.5043 17.7465 20.72 17.8998 20.8679C18.0532 21.0157 18.2712 21.0753 18.4784 21.026C18.5697 21.0042 18.6575 20.9828 18.7424 20.9621C19.2342 20.8421 19.6307 20.7453 20.0599 20.7453C20.6023 20.7453 21.042 21.1851 21.042 21.7275C21.042 22.2699 20.6023 22.7096 20.0599 22.7096C19.6834 22.7096 19.4176 22.7068 19.217 22.6415C19.1316 22.6138 19.0859 22.582 19.0583 22.5537C19.0333 22.5279 18.9956 22.477 18.9697 22.363C18.8933 22.0264 18.5585 21.8154 18.2219 21.8918C17.8853 21.9682 17.6743 22.303 17.7507 22.6396C17.821 22.9495 17.9577 23.2146 18.1617 23.4246C18.3631 23.632 18.601 23.7556 18.8303 23.8302C19.2328 23.9612 19.6874 23.9603 20.0006 23.9597L20.0599 23.9596C21.2926 23.9596 22.292 22.9603 22.292 21.7275C22.292 20.4947 21.2926 19.4953 20.0599 19.4953C19.7403 19.4953 19.4303 19.5355 19.1364 19.5912L19.2627 18.9596H21.667C22.0122 18.9596 22.292 18.6798 22.292 18.3346C22.292 17.9895 22.0122 17.7096 21.667 17.7096H19.0919Z" fill="#1B8354"/>
<path d="M27.7087 20.0013C27.7087 15.7441 24.2575 12.293 20.0003 12.293C19.8783 12.293 19.757 12.2958 19.6364 12.3014C19.5643 12.3047 19.5005 12.3077 19.4429 12.3108C19.4851 12.3713 19.5333 12.4388 19.589 12.5169L20.5089 13.8047C20.7095 14.0856 20.6445 14.4759 20.3636 14.6765C20.0827 14.8772 19.6924 14.8121 19.4917 14.5312L18.5482 13.2103C18.3978 12.9999 18.2424 12.7826 18.1469 12.587C18.0352 12.3581 17.9384 12.0237 18.1125 11.665C18.2807 11.3188 18.5842 11.1815 18.8374 11.1241C19.0437 11.0773 19.2993 11.0656 19.5381 11.0546L19.5785 11.0527C19.7183 11.0462 19.859 11.043 20.0003 11.043C24.9479 11.043 28.9587 15.0538 28.9587 20.0013C28.9587 24.9489 24.9479 28.9596 20.0003 28.9596C15.0528 28.9596 11.042 24.9489 11.042 20.0013C11.042 17.0701 12.4505 14.4676 14.625 12.8343C14.901 12.627 15.2927 12.6827 15.5001 12.9587C15.7074 13.2347 15.6517 13.6264 15.3757 13.8338C13.502 15.2411 12.292 17.4798 12.292 20.0013C12.292 24.2585 15.7431 27.7096 20.0003 27.7096C24.2575 27.7096 27.7087 24.2585 27.7087 20.0013Z" stroke="#9DA4AE"/>
<path d="M19.0919 17.7096C18.5954 17.7096 18.1679 18.0601 18.0705 18.547L17.7208 20.2954C17.679 20.5043 17.7465 20.72 17.8998 20.8679C18.0532 21.0157 18.2712 21.0753 18.4784 21.026C18.5697 21.0042 18.6575 20.9828 18.7424 20.9621C19.2342 20.8421 19.6307 20.7453 20.0599 20.7453C20.6023 20.7453 21.042 21.1851 21.042 21.7275C21.042 22.2699 20.6023 22.7096 20.0599 22.7096C19.6834 22.7096 19.4176 22.7068 19.217 22.6415C19.1316 22.6138 19.0859 22.582 19.0583 22.5537C19.0333 22.5279 18.9956 22.477 18.9697 22.363C18.8933 22.0264 18.5585 21.8154 18.2219 21.8918C17.8853 21.9682 17.6743 22.303 17.7507 22.6396C17.821 22.9495 17.9577 23.2146 18.1617 23.4246C18.3631 23.632 18.601 23.7556 18.8303 23.8302C19.2328 23.9612 19.6874 23.9603 20.0006 23.9597L20.0599 23.9596C21.2926 23.9596 22.292 22.9603 22.292 21.7275C22.292 20.4947 21.2926 19.4953 20.0599 19.4953C19.7403 19.4953 19.4303 19.5355 19.1364 19.5912L19.2627 18.9596H21.667C22.0122 18.9596 22.292 18.6798 22.292 18.3346C22.292 17.9895 22.0122 17.7096 21.667 17.7096H19.0919Z" stroke="#9DA4AE"/>
</svg>
