<svg width="26" height="26" viewBox="0 0 26 26" fill="none" xmlns="http://www.w3.org/2000/svg">
<path d="M8.33398 25.5413C4.911 25.5413 3.02565 25.5413 1.74232 24.2603C0.458984 22.9805 0.458984 21.0928 0.458984 17.6663V8.33301C0.458984 4.90651 0.458984 3.02001 1.74232 1.73901C3.02448 0.458008 4.91098 0.458008 8.33397 0.458008H11.834C15.257 0.458008 17.1423 0.458008 18.4257 1.73901C19.709 3.01884 19.709 4.90651 19.709 8.33301V9.49967C19.709 9.98267 19.317 10.3747 18.834 10.3747C18.351 10.3747 17.959 9.98267 17.959 9.49967V8.33301C17.959 5.27904 17.959 3.74564 17.189 2.97802C16.4179 2.20802 14.886 2.20801 11.834 2.20801H8.33398C5.28198 2.20801 3.74894 2.20802 2.97894 2.97802C2.20898 3.74681 2.20898 5.27966 2.20898 8.33247V17.6663C2.20898 20.7203 2.20898 22.2537 2.97894 23.0213C3.75011 23.7913 5.28198 23.7913 8.33398 23.7913C8.81698 23.7913 9.20898 24.1833 9.20898 24.6663C9.20898 25.1493 8.81698 25.5413 8.33398 25.5413Z" fill="#1B8354"/>
<path fill-rule="evenodd" clip-rule="evenodd" d="M12.9539 25.5413C11.8538 25.5413 10.959 24.6465 10.959 23.5463C10.959 22.081 11.9518 20.835 13.3751 20.5107L15.4798 19.9495L15.3164 19.1398C15.2476 18.7805 15.1088 18.4165 14.9606 18.0315C14.7915 17.5905 14.6177 17.1343 14.5208 16.6292L14.5126 16.5802C14.4881 16.397 14.459 16.1683 14.459 15.9175C14.459 13.8268 16.16 12.1258 18.2507 12.1258C20.3413 12.1258 22.0423 13.8268 22.0423 15.9175C22.0423 16.1858 22.0213 16.4203 21.9793 16.6362C21.8836 17.1355 21.7098 17.5917 21.5407 18.0327L21.534 18.0503C21.3894 18.4288 21.2526 18.787 21.1871 19.1317L21.0215 19.9507L23.1262 20.5119C24.5495 20.8362 25.5423 22.0822 25.5423 23.5475C25.5423 24.6477 24.6475 25.5425 23.5474 25.5425L12.9539 25.5413ZM16.615 21.458L13.773 22.214C13.1465 22.3528 12.709 22.9012 12.709 23.5463C12.709 23.6817 12.8186 23.7913 12.9539 23.7913H23.5474C23.6827 23.7913 23.7923 23.6817 23.7923 23.5463C23.7923 22.9012 23.3548 22.3528 22.7283 22.214L22.6922 22.2047L19.8863 21.4569L16.615 21.458ZM17.2169 19.708H19.2855L19.4698 18.7934C19.5643 18.2989 19.738 17.8453 19.9059 17.4069C20.0541 17.0207 20.1944 16.6548 20.2609 16.3025C20.2819 16.194 20.2923 16.0703 20.2923 15.9175C20.2923 14.7916 19.3765 13.8758 18.2507 13.8758C17.1248 13.8758 16.209 14.7916 16.209 15.9175C16.209 16.0458 16.2276 16.1928 16.2451 16.3247C16.3139 16.67 16.4504 17.0282 16.5951 17.4062L16.598 17.4139C16.7651 17.8513 16.9376 18.3028 17.0339 18.8027L17.2169 19.708Z" fill="#1B8354"/>
<path d="M8.58019 11.5413H8.62565L8.62337 11.5424C8.93021 11.5424 9.21597 11.3803 9.37464 11.1155C10.2123 9.71314 12.0206 7.3063 13.3086 6.81863C13.7613 6.64713 13.9888 6.14197 13.8173 5.69047C13.6458 5.23781 13.1407 5.01032 12.6892 5.18182C11.1212 5.77566 9.54385 7.74728 8.63385 9.05045C7.98402 8.31195 7.38318 8.23612 7.16618 8.23612C6.68318 8.23612 6.29118 8.62812 6.29118 9.11112C6.29118 9.55562 6.62132 9.92311 7.05065 9.97911C7.12182 10.0141 7.44737 10.2113 7.8312 11.0361C7.96887 11.3301 8.25703 11.525 8.58019 11.5413Z" fill="#1B8354"/>
<path d="M10.6673 16.208H6.00065C5.51765 16.208 5.12565 15.816 5.12565 15.333C5.12565 14.85 5.51765 14.458 6.00065 14.458H10.6673C11.1503 14.458 11.5423 14.85 11.5423 15.333C11.5423 15.816 11.1503 16.208 10.6673 16.208Z" fill="#1B8354"/>
<path d="M6.00065 19.708H10.6673C11.1503 19.708 11.5423 19.316 11.5423 18.833C11.5423 18.35 11.1503 17.958 10.6673 17.958H6.00065C5.51765 17.958 5.12565 18.35 5.12565 18.833C5.12565 19.316 5.51765 19.708 6.00065 19.708Z" fill="#1B8354"/>
</svg>
