<svg width="18" height="18" viewBox="0 0 18 18" fill="none" xmlns="http://www.w3.org/2000/svg">
<path d="M6.91667 13.3748C6.57149 13.3748 6.29167 13.095 6.29167 12.7498L6.29167 7.74984C6.29167 7.40466 6.57149 7.12484 6.91667 7.12484C7.26184 7.12484 7.54167 7.40466 7.54167 7.74984L7.54167 12.7498C7.54167 13.095 7.26184 13.3748 6.91667 13.3748Z" fill="#D92D20"/>
<path d="M11.7083 7.74984C11.7083 7.40466 11.4285 7.12484 11.0833 7.12484C10.7382 7.12484 10.4583 7.40466 10.4583 7.74984V12.7498C10.4583 13.095 10.7382 13.3748 11.0833 13.3748C11.4285 13.3748 11.7083 13.095 11.7083 12.7498V7.74984Z" fill="#D92D20"/>
<path fill-rule="evenodd" clip-rule="evenodd" d="M9.05518 0.0415044H9.00181C8.58075 0.0414928 8.22356 0.0414829 7.92715 0.0684668C7.61261 0.0971016 7.31962 0.15912 7.03631 0.309767C6.92449 0.369222 6.8178 0.437844 6.71732 0.514927C6.46273 0.710239 6.28477 0.951114 6.12826 1.22545C5.98076 1.48396 5.83263 1.80896 5.65799 2.19211L5.30879 2.95817H1.5C1.15482 2.95817 0.875 3.23799 0.875 3.58317C0.875 3.92835 1.15482 4.20817 1.5 4.20817H2.16161L2.63194 11.9991C2.6948 13.0405 2.74469 13.8668 2.84847 14.5269C2.95489 15.2039 3.12601 15.7677 3.46926 16.2609C3.78326 16.7121 4.18781 17.093 4.65712 17.3792C5.17013 17.6921 5.74321 17.8289 6.42534 17.8944C7.09048 17.9582 7.91832 17.9582 8.96154 17.9582H9.02628C10.0681 17.9582 10.895 17.9582 11.5593 17.8945C12.2407 17.8292 12.8131 17.6926 13.3258 17.3803C13.7948 17.0946 14.1992 16.7144 14.5133 16.2639C14.8567 15.7715 15.0283 15.2085 15.1355 14.5325C15.2401 13.8734 15.2911 13.0482 15.3554 12.0083L15.8376 4.20817H16.5C16.8452 4.20817 17.125 3.92835 17.125 3.58317C17.125 3.23799 16.8452 2.95817 16.5 2.95817H12.7714L12.3618 2.11326C12.1826 1.74369 12.0306 1.42999 11.8809 1.18057C11.722 0.915815 11.5433 0.683794 11.2918 0.496178C11.1924 0.422037 11.0871 0.356086 10.977 0.298975C10.6985 0.15446 10.4117 0.0949051 10.1042 0.0673967C9.81446 0.0414836 9.46584 0.0414931 9.05518 0.0415044ZM14.5852 4.20817H12.3935C12.3847 4.20836 12.3758 4.20836 12.3669 4.20817H5.72416C5.715 4.20837 5.70582 4.20838 5.69663 4.20817H3.41389L3.87772 11.8915C3.94298 12.9724 3.98992 13.7388 4.0833 14.3328C4.1751 14.9167 4.30366 15.2716 4.49526 15.5469C4.71011 15.8556 4.9869 16.1162 5.30801 16.312C5.59437 16.4867 5.95632 16.5937 6.54471 16.6501C7.14321 16.7075 7.91114 16.7082 8.99397 16.7082C10.0754 16.7082 10.8423 16.7075 11.44 16.6502C12.0277 16.5939 12.3893 16.4871 12.6754 16.3128C12.9963 16.1173 13.2731 15.8572 13.488 15.5489C13.6796 15.274 13.8085 14.9197 13.901 14.3367C13.9951 13.7436 14.043 12.9782 14.1098 11.8989L14.5852 4.20817ZM11.3822 2.95817H6.68253L6.78421 2.73512C6.97304 2.32086 7.098 2.04816 7.21397 1.8449C7.32406 1.65195 7.40305 1.56433 7.47817 1.5067C7.52384 1.47166 7.57234 1.44047 7.62316 1.41344C7.70676 1.36899 7.81925 1.33346 8.04048 1.31332C8.27353 1.2921 8.5735 1.29151 9.02877 1.29151C9.47294 1.29151 9.76535 1.29208 9.99283 1.31243C10.2087 1.33173 10.319 1.3658 10.4014 1.40854C10.4514 1.4345 10.4992 1.46447 10.5444 1.49818C10.6188 1.55366 10.6976 1.63807 10.8091 1.82387C10.9267 2.01969 11.0547 2.28256 11.2485 2.68224L11.3822 2.95817Z" fill="#D92D20"/>
</svg>
