<svg width="18" height="18" viewBox="0 0 18 18" fill="none" xmlns="http://www.w3.org/2000/svg">
<path fill-rule="evenodd" clip-rule="evenodd" d="M3.37435 4.83333C3.37435 2.64721 5.14655 0.875 7.33268 0.875C9.51881 0.875 11.291 2.64721 11.291 4.83333C11.291 7.01946 9.51881 8.79167 7.33268 8.79167C5.14655 8.79167 3.37435 7.01946 3.37435 4.83333ZM7.33268 2.125C5.83691 2.125 4.62435 3.33756 4.62435 4.83333C4.62435 6.3291 5.83691 7.54167 7.33268 7.54167C8.82845 7.54167 10.041 6.3291 10.041 4.83333C10.041 3.33756 8.82845 2.125 7.33268 2.125Z" fill="#B42318"/>
<path fill-rule="evenodd" clip-rule="evenodd" d="M3.00018 11.2078C5.65284 9.65296 9.01284 9.65296 11.6655 11.2078C11.7495 11.257 11.8541 11.3151 11.9731 11.3812C12.5003 11.6738 13.3103 12.1234 13.8648 12.6577C14.211 12.9913 14.5523 13.4419 14.6146 14.0031C14.6814 14.6044 14.4128 15.1592 13.8992 15.6409C13.0241 16.4615 11.9675 17.125 10.5989 17.125H4.06682C2.6982 17.125 1.6416 16.4615 0.766531 15.6409C0.252931 15.1592 -0.0156927 14.6044 0.0510756 14.0031C0.113386 13.4419 0.454683 12.9913 0.80092 12.6577C1.35541 12.1234 2.16534 11.6738 2.69254 11.3812C2.81143 11.3152 2.91625 11.257 3.00018 11.2078ZM11.0334 12.2862C8.77109 10.9602 5.8946 10.9602 3.63228 12.2862C3.50523 12.3607 3.367 12.4379 3.22293 12.5184C2.69589 12.8128 2.09055 13.1509 1.66823 13.5579C1.40574 13.8108 1.30839 14.0064 1.29344 14.141C1.28295 14.2355 1.29844 14.426 1.62161 14.7291C2.38158 15.4418 3.14599 15.875 4.06682 15.875H10.5989C11.5197 15.875 12.2841 15.4418 13.0441 14.7291C13.3672 14.426 13.3827 14.2355 13.3722 14.141C13.3573 14.0064 13.2599 13.8108 12.9974 13.5579C12.5751 13.1509 11.9699 12.8128 11.4429 12.5184C11.2988 12.4379 11.1605 12.3607 11.0334 12.2862Z" fill="#B42318"/>
<path d="M13.608 2.30806C13.3639 2.06398 12.9682 2.06398 12.7241 2.30806C12.48 2.55214 12.48 2.94786 12.7241 3.19194L14.3655 4.83333L12.7241 6.47472C12.48 6.7188 12.48 7.11453 12.7241 7.35861C12.9682 7.60269 13.3639 7.60269 13.608 7.35861L15.2493 5.71722L16.8907 7.35861C17.1348 7.60269 17.5305 7.60269 17.7746 7.35861C18.0187 7.11453 18.0187 6.7188 17.7746 6.47472L16.1332 4.83333L17.7746 3.19194C18.0187 2.94786 18.0187 2.55214 17.7746 2.30806C17.5305 2.06398 17.1348 2.06398 16.8907 2.30806L15.2493 3.94945L13.608 2.30806Z" fill="#B42318"/>
</svg>
