<svg width="18" height="16" viewBox="0 0 18 16" fill="none" xmlns="http://www.w3.org/2000/svg">
<path d="M9.6252 1.3335C9.6252 0.988318 9.34538 0.708496 9.0002 0.708496C8.65503 0.708496 8.3752 0.988318 8.3752 1.3335V8.3851L8.37015 8.37915C8.19458 8.17195 8.02267 7.95297 7.86191 7.7482L7.82465 7.70074C7.66446 7.4968 7.49593 7.28254 7.36505 7.14788C7.12446 6.90036 6.72877 6.89474 6.48125 7.13532C6.23373 7.37591 6.22811 7.77159 6.46869 8.01911C6.54261 8.09516 6.66397 8.24667 6.84163 8.47286L6.88082 8.52279C7.03921 8.72457 7.22504 8.96131 7.41648 9.18724C7.62165 9.42937 7.8513 9.68086 8.08086 9.87638C8.1959 9.97436 8.32556 10.071 8.46506 10.1457C8.59959 10.2176 8.78497 10.2918 9.0002 10.2918C9.21544 10.2918 9.40082 10.2176 9.53535 10.1457C9.67484 10.071 9.80451 9.97436 9.91955 9.87638C10.1491 9.68086 10.3788 9.42937 10.5839 9.18724C10.7754 8.96133 10.9611 8.72463 11.1195 8.52286L11.1588 8.47286C11.3364 8.24667 11.4578 8.09516 11.5317 8.01911C11.7723 7.77159 11.7667 7.37591 11.5192 7.13532C11.2716 6.89473 10.8759 6.90036 10.6354 7.14788C10.5045 7.28254 10.3359 7.4968 10.1758 7.70074L10.1385 7.74821C9.97774 7.95297 9.80581 8.17196 9.63025 8.37915L9.6252 8.3851V1.3335Z" fill="#161616"/>
<path d="M17.0895 9.87486C17.2044 9.54936 17.0337 9.19236 16.7082 9.07748C16.3827 8.9626 16.0257 9.13334 15.9108 9.45884L15.7159 10.011C15.332 11.0989 15.0604 11.8656 14.7816 12.4403C14.5097 13.0007 14.2568 13.3212 13.9413 13.5444C13.6259 13.7676 13.2395 13.8994 12.6205 13.9693C11.9857 14.0409 11.1723 14.0418 10.0187 14.0418H7.98164C6.82799 14.0418 6.0146 14.0409 5.37984 13.9693C4.76086 13.8994 4.37447 13.7676 4.059 13.5444C3.74353 13.3212 3.49069 13.0007 3.21879 12.4403C2.93995 11.8656 2.66837 11.0989 2.28441 10.011L2.08954 9.45884C1.97466 9.13334 1.61766 8.9626 1.29216 9.07748C0.966658 9.19236 0.795919 9.54936 0.910801 9.87486L1.11812 10.4623C1.48678 11.5068 1.78096 12.3404 2.09416 12.9859C2.41781 13.653 2.78722 14.1759 3.33704 14.5649C3.88685 14.9539 4.50283 15.1282 5.23962 15.2114C5.95261 15.2919 6.83652 15.2919 7.94422 15.2918H10.0561C11.1638 15.2919 12.0477 15.2919 12.7607 15.2114C13.4975 15.1282 14.1135 14.9539 14.6633 14.5649C15.2131 14.1759 15.5825 13.653 15.9062 12.9859C16.2194 12.3404 16.5136 11.5068 16.8822 10.4622L17.0895 9.87486Z" fill="#161616"/>
</svg>
