<svg width="18" height="18" viewBox="0 0 18 18" fill="none" xmlns="http://www.w3.org/2000/svg">
<path d="M9.75 11.5C9.75 11.9142 9.41421 12.25 9 12.25C8.58579 12.25 8.25 11.9142 8.25 11.5V3.03807L8.24394 3.04522C8.03326 3.29385 7.82697 3.55662 7.63406 3.80234L7.58933 3.85931C7.39711 4.10404 7.19487 4.36115 7.03781 4.52274C6.74911 4.81977 6.27428 4.82651 5.97726 4.53781C5.68023 4.24911 5.67349 3.77428 5.96219 3.47726C6.05089 3.386 6.19651 3.20419 6.40971 2.93276L6.45677 2.87282C6.64683 2.63069 6.86982 2.34661 7.09954 2.07551C7.34574 1.78495 7.62131 1.48316 7.89679 1.24854C8.03484 1.13096 8.19043 1.01499 8.35782 0.925414C8.51926 0.83902 8.74171 0.75 9 0.75C9.25829 0.75 9.48074 0.83902 9.64218 0.925414C9.80957 1.01499 9.96517 1.13096 10.1032 1.24854C10.3787 1.48316 10.6543 1.78495 10.9005 2.07551C11.1302 2.3466 11.3531 2.63064 11.5432 2.87277L11.5903 2.93276C11.8035 3.20419 11.9491 3.386 12.0378 3.47726C12.3265 3.77428 12.3198 4.24911 12.0227 4.53781C11.7257 4.82651 11.2509 4.81977 10.9622 4.52274C10.8051 4.36115 10.6029 4.10404 10.4107 3.85931L10.366 3.80237C10.1731 3.55665 9.96674 3.29385 9.75606 3.04522L9.75 3.03807V11.5Z" fill="#161616"/>
<path d="M1.75 13.5C1.75 13.0858 1.41421 12.75 1 12.75C0.585786 12.75 0.25 13.0858 0.25 13.5C0.25 14.1367 0.282233 14.699 0.387186 15.1768C0.494005 15.663 0.686116 16.1083 1.03892 16.4611C1.39172 16.8139 1.83699 17.006 2.32323 17.1128C2.80098 17.2178 3.36327 17.25 4 17.25H14C14.6367 17.25 15.199 17.2178 15.6768 17.1128C16.163 17.006 16.6083 16.8139 16.9611 16.4611C17.3139 16.1083 17.506 15.663 17.6128 15.1768C17.7178 14.699 17.75 14.1367 17.75 13.5C17.75 13.0858 17.4142 12.75 17 12.75C16.5858 12.75 16.25 13.0858 16.25 13.5C16.25 14.1043 16.2175 14.5375 16.1477 14.8549C16.0799 15.1639 15.9874 15.3135 15.9004 15.4004C15.8135 15.4874 15.6639 15.5799 15.3549 15.6477C15.0375 15.7175 14.6043 15.75 14 15.75H4C3.39573 15.75 2.96252 15.7175 2.64508 15.6477C2.33614 15.5799 2.18653 15.4874 2.09958 15.4004C2.01263 15.3135 1.92012 15.1639 1.85225 14.8549C1.78252 14.5375 1.75 14.1043 1.75 13.5Z" fill="#161616"/>
</svg>
