<svg width="20" height="21" viewBox="0 0 20 21" fill="none" xmlns="http://www.w3.org/2000/svg">
  <path d="M5.5031 7.30128C5.60467 7.43576 5.90793 7.83721 6.08853 8.06864C6.45026 8.53215 6.94452 9.14805 7.47769 9.76213C8.01356 10.3793 8.57648 10.9804 9.07658 11.4223C9.32734 11.6438 9.54762 11.8122 9.72939 11.9218C9.90035 12.0248 10.0013 12.0463 10.0013 12.0463C10.0013 12.0463 10.0994 12.0248 10.2703 11.9218C10.4521 11.8122 10.6724 11.6438 10.9231 11.4223C11.4232 10.9804 11.9861 10.3793 12.522 9.76212C13.0552 9.14804 13.5494 8.53212 13.9112 8.06861C14.0918 7.83718 14.3946 7.43629 14.4962 7.30182C14.7009 7.02388 15.0925 6.96393 15.3705 7.16863C15.6484 7.37332 15.7078 7.76457 15.5031 8.0425L15.5015 8.0446C15.395 8.18563 15.0809 8.6015 14.8966 8.83764C14.5267 9.31163 14.018 9.94572 13.4659 10.5816C12.9165 11.2144 12.3117 11.8634 11.7508 12.359C11.471 12.6062 11.1875 12.8284 10.9157 12.9923C10.661 13.1458 10.3386 13.2969 9.99985 13.2969C9.66109 13.2969 9.33868 13.1458 9.08404 12.9923C8.81223 12.8284 8.52866 12.6062 8.24891 12.359C7.68798 11.8634 7.08325 11.2145 6.53382 10.5816C5.98169 9.94574 5.473 9.31166 5.1031 8.83768C4.91871 8.6014 4.60464 8.18559 4.4983 8.0448L4.4969 8.04294C4.2922 7.76501 4.35128 7.37336 4.62922 7.16867C4.90714 6.96398 5.2984 7.02337 5.5031 7.30128Z" fill="#161616"/>
  </svg>
