<svg width="18" height="18" viewBox="0 0 18 18" fill="none" xmlns="http://www.w3.org/2000/svg">
<path fill-rule="evenodd" clip-rule="evenodd" d="M11.6693 0.495221C12.6564 -0.0918746 13.8739 -0.110273 14.8779 0.447126C15.2944 0.678342 15.6743 1.06666 16.2392 1.64419L16.3927 1.80091C16.9596 2.37969 17.339 2.76705 17.5643 3.19051C18.1048 4.20643 18.0872 5.43543 17.5175 6.43501C17.2801 6.85167 16.8896 7.22757 16.3063 7.78898L8.29076 15.5093C7.14005 16.618 6.4308 17.3014 5.53336 17.6519C4.63462 18.0029 3.6574 17.9772 2.0764 17.9356L1.6706 17.9249C1.4389 17.9189 1.20466 17.9129 1.01127 17.8806C0.789164 17.8436 0.525357 17.7584 0.316651 17.5215C0.109811 17.2868 0.0567325 17.0159 0.0443127 16.793C0.0333312 16.596 0.0517769 16.3599 0.0703139 16.1227L0.104411 15.685C0.212147 14.2995 0.278007 13.4525 0.612443 12.6828C0.947316 11.912 1.51939 11.2924 2.45278 10.2814L10.3432 1.73254C10.8914 1.13821 11.2598 0.73876 11.6693 0.495221ZM14.2712 1.54C13.6564 1.19868 12.9133 1.20973 12.3082 1.56958C12.0763 1.70753 11.8384 1.9556 11.1866 2.66174L11.1187 2.73538L15.354 6.97069L15.3609 6.96398C16.0514 6.29893 16.2953 6.05516 16.4315 5.81608C16.7888 5.18915 16.8001 4.41535 16.4608 3.77762C16.3314 3.53437 16.0945 3.28325 15.4235 2.5978C14.7516 1.91149 14.5068 1.67083 14.2712 1.54ZM3.44972 11.0443L10.2702 3.65466L14.4535 7.83799L7.52454 14.5117C6.23909 15.7498 5.71508 16.239 5.07858 16.4876C4.44348 16.7356 3.73649 16.7285 1.97006 16.6823L1.73674 16.6762C1.60381 16.6728 1.49852 16.67 1.40812 16.6652C1.36127 16.6628 1.32275 16.66 1.29083 16.6569C1.29116 16.5567 1.30133 16.415 1.3191 16.187L1.3416 15.8982C1.46148 14.3595 1.51804 13.7353 1.75891 13.1809C1.99932 12.6275 2.41297 12.1675 3.44972 11.0443Z" fill="#161616"/>
<path d="M10.666 16.7083C10.3208 16.7083 10.041 16.9881 10.041 17.3333C10.041 17.6785 10.3208 17.9583 10.666 17.9583H17.3327C17.6779 17.9583 17.9577 17.6785 17.9577 17.3333C17.9577 16.9881 17.6779 16.7083 17.3327 16.7083H10.666Z" fill="#161616"/>
</svg>
