<svg width="20" height="20" viewBox="0 0 20 20" fill="none" xmlns="http://www.w3.org/2000/svg">
<path d="M18.2071 9.78012C18.2487 9.78845 18.2912 9.79262 18.3329 9.79262C18.4854 9.79262 18.6354 9.73678 18.7512 9.63178C18.8987 9.49928 18.9746 9.30346 18.9546 9.10596C18.7354 6.90762 17.7087 4.87262 16.0637 3.37762C14.4071 1.87262 12.2604 1.04346 10.0196 1.04346C8.06957 1.04346 6.21539 1.65596 4.65706 2.81512C3.12872 3.95179 2.02039 5.50762 1.45206 7.31429C1.34789 7.64346 1.53124 7.99429 1.86041 8.09763C2.18957 8.20179 2.5404 8.01846 2.64373 7.68929C3.65956 4.46179 6.6229 2.29346 10.0196 2.29346C11.9496 2.29346 13.7971 3.00679 15.2229 4.30262C16.4229 5.39262 17.2404 6.81596 17.5762 8.37512L16.7912 8.21429C16.4537 8.14513 16.1229 8.36262 16.0537 8.70096C15.9846 9.03846 16.2021 9.36929 16.5404 9.43846L18.2071 9.78012ZM3.93598 16.6251C5.59265 18.1301 7.73932 18.9592 9.98015 18.9592C11.9301 18.9592 13.7843 18.3467 15.3427 17.1876C16.871 16.0509 17.9793 14.4951 18.5477 12.6884C18.6518 12.3592 18.4685 12.0084 18.1393 11.9051C17.8101 11.8009 17.4593 11.9842 17.356 12.3134C16.3401 15.5409 13.3768 17.7092 9.98015 17.7092C8.05015 17.7092 6.20265 16.9959 4.77682 15.7001C3.57682 14.6101 2.75932 13.1868 2.42349 11.6276L3.20848 11.7884C3.54598 11.8576 3.87682 11.6401 3.94599 11.3017C4.01516 10.9642 3.79765 10.6334 3.45931 10.5642L1.79265 10.2226C1.59765 10.1834 1.39598 10.2376 1.24848 10.3709C1.10098 10.5034 1.02515 10.6992 1.04515 10.8967C1.26432 13.0951 2.29098 15.1301 3.93598 16.6251ZM9.9915 14.8336C10.0415 14.8353 10.0898 14.8353 10.1382 14.8353L10.139 14.8344C11.054 14.8344 11.659 14.6511 12.4707 14.1394C12.879 13.8886 13.1332 13.4236 13.1332 12.9253V11.2753C13.1332 11.1869 13.1148 11.1028 13.0815 11.0261C13.2457 10.9353 13.4015 10.8419 13.5515 10.7469V11.6928C13.5515 12.0378 13.8315 12.3178 14.1765 12.3178C14.5215 12.3178 14.8015 12.0378 14.8015 11.6928V9.2586C14.8323 8.94777 14.7298 8.64444 14.5173 8.41028C13.7748 7.57778 11.939 6.70861 10.4665 6.17111C10.1757 6.06611 9.85735 6.05694 9.56901 6.14444L9.56687 6.14507L9.56401 6.14611L9.564 6.14611C9.56233 6.14673 9.56067 6.14736 9.559 6.14777C8.0715 6.62694 5.76817 7.80361 5.30984 8.76528L5.30733 8.77111C5.1865 9.03277 5.19651 9.34444 5.33401 9.60611C5.51567 9.96194 5.95067 10.4444 6.93484 11.0128C6.89734 11.0928 6.87651 11.1819 6.87651 11.2761V12.9344C6.87651 13.4361 7.12235 13.8878 7.52901 14.1386C8.38901 14.6786 9.05401 14.7994 9.98067 14.8336H9.9915ZM11.8057 13.0803C11.1657 13.4844 10.7648 13.5994 10.0215 13.5836L10.0207 13.5844C9.17567 13.5528 8.76484 13.4394 8.18817 13.0769C8.14984 13.0528 8.12484 12.9969 8.12484 12.9336V11.6136C8.52401 11.7919 8.97733 11.9769 9.4915 12.1669C9.80733 12.2919 10.1657 12.2936 10.5023 12.1711C10.504 12.1703 10.5059 12.1697 10.5078 12.169L10.5079 12.169L10.5097 12.1684L10.5132 12.1669C11.0365 11.9669 11.4857 11.7853 11.8815 11.6119V12.9253C11.8815 12.9878 11.854 13.0511 11.8148 13.0744L11.8107 13.0774C11.8101 13.0778 11.8095 13.0781 11.8089 13.0785C11.8079 13.0791 11.8068 13.0797 11.8057 13.0803ZM6.53846 9.17163C6.89803 9.60339 8.02683 10.2935 9.934 10.9978L9.94316 11.0015L9.95233 11.0053C9.9815 11.0178 10.0273 11.0144 10.074 10.9986C11.6923 10.3778 12.539 9.96027 13.3057 9.40444C13.419 9.3211 13.4907 9.23944 13.5282 9.18444C13.0015 8.65694 11.5948 7.91444 10.0407 7.34778C10.0057 7.33528 9.96734 7.33194 9.93651 7.3411C8.35189 7.85348 6.94136 8.74068 6.53846 9.17163Z" fill="#1B8354"/>
<path d="M18.2071 9.78012C18.2487 9.78845 18.2912 9.79262 18.3329 9.79262C18.4854 9.79262 18.6354 9.73678 18.7512 9.63178C18.8987 9.49928 18.9746 9.30346 18.9546 9.10596C18.7354 6.90762 17.7087 4.87262 16.0637 3.37762C14.4071 1.87262 12.2604 1.04346 10.0196 1.04346C8.06957 1.04346 6.21539 1.65596 4.65706 2.81512C3.12872 3.95179 2.02039 5.50762 1.45206 7.31429C1.34789 7.64346 1.53124 7.99429 1.86041 8.09763C2.18957 8.20179 2.5404 8.01846 2.64373 7.68929C3.65956 4.46179 6.6229 2.29346 10.0196 2.29346C11.9496 2.29346 13.7971 3.00679 15.2229 4.30262C16.4229 5.39262 17.2404 6.81596 17.5762 8.37512L16.7912 8.21429C16.4537 8.14513 16.1229 8.36262 16.0537 8.70096C15.9846 9.03846 16.2021 9.36929 16.5404 9.43846L18.2071 9.78012ZM3.93598 16.6251C5.59265 18.1301 7.73932 18.9592 9.98015 18.9592C11.9301 18.9592 13.7843 18.3467 15.3427 17.1876C16.871 16.0509 17.9793 14.4951 18.5477 12.6884C18.6518 12.3592 18.4685 12.0084 18.1393 11.9051C17.8101 11.8009 17.4593 11.9842 17.356 12.3134C16.3401 15.5409 13.3768 17.7092 9.98015 17.7092C8.05015 17.7092 6.20265 16.9959 4.77682 15.7001C3.57682 14.6101 2.75932 13.1868 2.42349 11.6276L3.20848 11.7884C3.54598 11.8576 3.87682 11.6401 3.94599 11.3017C4.01516 10.9642 3.79765 10.6334 3.45931 10.5642L1.79265 10.2226C1.59765 10.1834 1.39598 10.2376 1.24848 10.3709C1.10098 10.5034 1.02515 10.6992 1.04515 10.8967C1.26432 13.0951 2.29098 15.1301 3.93598 16.6251ZM9.9915 14.8336C10.0415 14.8353 10.0898 14.8353 10.1382 14.8353L10.139 14.8344C11.054 14.8344 11.659 14.6511 12.4707 14.1394C12.879 13.8886 13.1332 13.4236 13.1332 12.9253V11.2753C13.1332 11.1869 13.1148 11.1028 13.0815 11.0261C13.2457 10.9353 13.4015 10.8419 13.5515 10.7469V11.6928C13.5515 12.0378 13.8315 12.3178 14.1765 12.3178C14.5215 12.3178 14.8015 12.0378 14.8015 11.6928V9.2586C14.8323 8.94777 14.7298 8.64444 14.5173 8.41028C13.7748 7.57778 11.939 6.70861 10.4665 6.17111C10.1757 6.06611 9.85735 6.05694 9.56901 6.14444L9.56687 6.14507L9.56401 6.14611L9.564 6.14611C9.56233 6.14673 9.56067 6.14736 9.559 6.14777C8.0715 6.62694 5.76817 7.80361 5.30984 8.76528L5.30733 8.77111C5.1865 9.03277 5.19651 9.34444 5.33401 9.60611C5.51567 9.96194 5.95067 10.4444 6.93484 11.0128C6.89734 11.0928 6.87651 11.1819 6.87651 11.2761V12.9344C6.87651 13.4361 7.12235 13.8878 7.52901 14.1386C8.38901 14.6786 9.05401 14.7994 9.98067 14.8336H9.9915ZM11.8057 13.0803C11.1657 13.4844 10.7648 13.5994 10.0215 13.5836L10.0207 13.5844C9.17567 13.5528 8.76484 13.4394 8.18817 13.0769C8.14984 13.0528 8.12484 12.9969 8.12484 12.9336V11.6136C8.52401 11.7919 8.97733 11.9769 9.4915 12.1669C9.80733 12.2919 10.1657 12.2936 10.5023 12.1711C10.504 12.1703 10.5059 12.1697 10.5078 12.169L10.5079 12.169L10.5097 12.1684L10.5132 12.1669C11.0365 11.9669 11.4857 11.7853 11.8815 11.6119V12.9253C11.8815 12.9878 11.854 13.0511 11.8148 13.0744L11.8107 13.0774C11.8101 13.0778 11.8095 13.0781 11.8089 13.0785C11.8079 13.0791 11.8068 13.0797 11.8057 13.0803ZM6.53846 9.17163C6.89803 9.60339 8.02683 10.2935 9.934 10.9978L9.94316 11.0015L9.95233 11.0053C9.9815 11.0178 10.0273 11.0144 10.074 10.9986C11.6923 10.3778 12.539 9.96027 13.3057 9.40444C13.419 9.3211 13.4907 9.23944 13.5282 9.18444C13.0015 8.65694 11.5948 7.91444 10.0407 7.34778C10.0057 7.33528 9.96734 7.33194 9.93651 7.3411C8.35189 7.85348 6.94136 8.74068 6.53846 9.17163Z" stroke="#9DA4AE"/>
</svg>
