<svg width="40" height="40" viewBox="0 0 40 40" fill="none" xmlns="http://www.w3.org/2000/svg">
<rect width="40" height="40" rx="20" fill="#ECFDF3"/>
<path fill-rule="evenodd" clip-rule="evenodd" d="M22.92 10.7868C20.967 10.7377 19.033 10.7377 17.08 10.7868L17.0218 10.7883C15.497 10.8265 14.27 10.8574 13.2867 11.0286C12.2572 11.2079 11.4205 11.5518 10.7136 12.2613C10.0097 12.9679 9.66764 13.7926 9.49176 14.8054C9.32429 15.7698 9.29878 16.9668 9.26719 18.4496L9.26593 18.5084C9.24469 19.5047 9.24469 20.4953 9.26594 21.4916L9.26719 21.5504C9.29879 23.0332 9.32429 24.2302 9.49176 25.1946C9.66764 26.2074 10.0097 27.0321 10.7136 27.7387C11.4205 28.4482 12.2572 28.7921 13.2867 28.9714C14.27 29.1426 15.497 29.1735 17.0218 29.2117L17.08 29.2132C19.033 29.2623 20.967 29.2623 22.92 29.2132L22.9782 29.2117C24.503 29.1735 25.73 29.1426 26.7133 28.9714C27.7428 28.7921 28.5795 28.4482 29.2864 27.7387C29.9903 27.0321 30.3324 26.2074 30.5082 25.1946C30.6757 24.2302 30.7012 23.0332 30.7328 21.5503L30.7341 21.4916C30.7553 20.4953 30.7553 19.5047 30.7341 18.5084L30.7328 18.4497C30.7012 16.9668 30.6757 15.7698 30.5082 14.8054C30.3324 13.7926 29.9903 12.9679 29.2864 12.2613C28.5795 11.5518 27.7428 11.2079 26.7133 11.0286C25.73 10.8574 24.503 10.8266 22.9782 10.7883L22.92 10.7868ZM17.1177 12.2863C19.0456 12.2379 20.9544 12.2379 22.8823 12.2863C24.479 12.3264 25.5947 12.3564 26.4559 12.5064C27.2835 12.6505 27.7994 12.8941 28.2237 13.32C28.3977 13.4946 28.5405 13.6825 28.6582 13.8983L22.7173 17.2644C21.4621 17.9757 20.7003 18.25 20.0001 18.25C19.2999 18.25 18.5381 17.9757 17.2829 17.2644L11.3418 13.8982C11.4595 13.6825 11.6024 13.4946 11.7763 13.32C12.2006 12.8941 12.7165 12.6505 13.5441 12.5064C14.4053 12.3564 15.521 12.3264 17.1177 12.2863ZM10.921 15.3838C10.8175 16.1756 10.7947 17.1765 10.7656 18.5404C10.7448 19.5154 10.7448 20.4846 10.7656 21.4596C10.7988 23.0152 10.8239 24.0984 10.9696 24.938C11.1092 25.7418 11.3491 26.2512 11.7763 26.68C12.2006 27.1059 12.7165 27.3495 13.5441 27.4936C14.4053 27.6436 15.521 27.6736 17.1177 27.7137C19.0456 27.7621 20.9544 27.7621 22.8823 27.7137C24.479 27.6736 25.5947 27.6436 26.4559 27.4936C27.2835 27.3495 27.7994 27.1059 28.2237 26.68C28.6509 26.2512 28.8908 25.7418 29.0304 24.938C29.1762 24.0984 29.2012 23.0152 29.2344 21.4596C29.2552 20.4846 29.2552 19.5154 29.2344 18.5404C29.2053 17.1765 29.1825 16.1757 29.079 15.3839L23.4568 18.5695C22.1635 19.3023 21.1126 19.75 20.0001 19.75C18.8876 19.75 17.8367 19.3023 16.5434 18.5695L10.921 15.3838Z" fill="#1B8354"/>
</svg>
