<svg width="18" height="18" viewBox="0 0 18 18" fill="none" xmlns="http://www.w3.org/2000/svg">
<path d="M10.875 9.83464C10.875 9.48946 11.1548 9.20964 11.5 9.20964H13.1667C13.5119 9.20964 13.7917 9.48946 13.7917 9.83464C13.7917 10.1798 13.5119 10.4596 13.1667 10.4596H11.5C11.1548 10.4596 10.875 10.1798 10.875 9.83464Z" fill="#384250"/>
<path d="M10.875 12.3346C10.875 11.9895 11.1548 11.7096 11.5 11.7096H13.1667C13.5119 11.7096 13.7917 11.9895 13.7917 12.3346C13.7917 12.6798 13.5119 12.9596 13.1667 12.9596H11.5C11.1548 12.9596 10.875 12.6798 10.875 12.3346Z" fill="#384250"/>
<path fill-rule="evenodd" clip-rule="evenodd" d="M0.666687 16.7096C0.321509 16.7096 0.041687 16.9895 0.041687 17.3346C0.041687 17.6798 0.321509 17.9596 0.666687 17.9596L17.3334 17.9596C17.6785 17.9596 17.9584 17.6798 17.9584 17.3346C17.9584 16.9895 17.6785 16.7096 17.3334 16.7096H17.125V9.0013C17.125 8.47069 17.0982 8.00212 17.0107 7.604C16.9217 7.19879 16.7616 6.82774 16.4676 6.53374C16.1736 6.23973 15.8025 6.07964 15.3973 5.99062C14.9992 5.90316 14.5306 5.8763 14 5.8763L12.125 5.8763L12.125 3.16797C12.125 2.63736 12.0982 2.16879 12.0107 1.77066C11.9217 1.36546 11.7616 0.994405 11.4676 0.700402C11.1736 0.4064 10.8025 0.246306 10.3973 0.15729C9.9992 0.0698306 9.53063 0.0429688 9.00002 0.0429688L4.00002 0.0429688C3.46941 0.0429688 3.00084 0.0698306 2.60271 0.15729C2.19751 0.246306 1.82646 0.406398 1.53245 0.700402C1.23845 0.994405 1.07836 1.36546 0.989342 1.77066C0.901882 2.16879 0.87502 2.63736 0.87502 3.16797L0.87502 16.7096H0.666687ZM11.7084 16.7096V14.8346C11.7084 14.4895 11.9882 14.2096 12.3334 14.2096C12.6785 14.2096 12.9584 14.4895 12.9584 14.8346V16.7096H15.875L15.875 9.0013C15.875 8.49774 15.8479 8.13673 15.7898 7.8722C15.7333 7.61475 15.6562 7.49007 15.5837 7.41762C15.5112 7.34516 15.3866 7.26807 15.1291 7.21151C14.8646 7.1534 14.5036 7.1263 14 7.1263L10.6667 7.1263C10.1631 7.1263 9.80212 7.1534 9.53759 7.21151C9.28014 7.26807 9.15546 7.34516 9.083 7.41762C9.01055 7.49007 8.93345 7.61475 8.8769 7.8722C8.81878 8.13673 8.79169 8.49774 8.79169 9.0013L8.79169 16.7096H11.7084ZM2.12502 10.043L4.00002 10.043C4.3452 10.043 4.62502 10.3228 4.62502 10.668C4.62502 11.0131 4.3452 11.293 4.00002 11.293L2.12502 11.293L2.12502 16.7096L7.54169 16.7096L7.54169 9.0013C7.54169 8.47069 7.56855 8.00212 7.65601 7.604C7.74503 7.19879 7.90512 6.82774 8.19912 6.53374C8.49312 6.23973 8.86418 6.07964 9.26938 5.99062C9.66751 5.90316 10.1361 5.8763 10.6667 5.8763H10.875L10.875 3.16797C10.875 2.66441 10.8479 2.3034 10.7898 2.03887C10.7333 1.78142 10.6562 1.65674 10.5837 1.58429C10.5112 1.51183 10.3866 1.43474 10.1291 1.37818C9.86459 1.32007 9.50358 1.29297 9.00002 1.29297L4.00002 1.29297C3.49646 1.29297 3.13545 1.32007 2.87092 1.37818C2.61347 1.43474 2.48879 1.51183 2.41634 1.58429C2.34388 1.65674 2.26679 1.78142 2.21023 2.03887C2.15212 2.3034 2.12502 2.66441 2.12502 3.16797V3.3763L4.00002 3.3763C4.3452 3.3763 4.62502 3.65612 4.62502 4.0013C4.62502 4.34648 4.3452 4.6263 4.00002 4.6263H2.12502L2.12502 6.70964H4.00002C4.3452 6.70964 4.62502 6.98946 4.62502 7.33464C4.62502 7.67981 4.3452 7.95964 4.00002 7.95964H2.12502L2.12502 10.043Z" fill="#384250"/>
</svg>
