<svg width="18" height="18" viewBox="0 0 18 18" fill="none" xmlns="http://www.w3.org/2000/svg">
<path fill-rule="evenodd" clip-rule="evenodd" d="M11.5 17.9576H7.94173C5.09673 17.9576 3.6692 17.9576 2.55754 17.1776C2.23254 16.9434 1.95255 16.6801 1.72005 16.3901C0.875052 15.3259 0.875 13.9718 0.875 11.2743V9.14925C0.875 6.60675 0.875039 5.33004 1.31087 4.22754C2.00254 2.47587 3.46583 1.09671 5.32666 0.442546C6.47749 0.0400456 7.8275 0.0400391 10.5175 0.0400391C12.0857 0.0400391 12.8734 0.0400391 13.5725 0.283366C14.7058 0.687533 15.5975 1.53174 16.0234 2.60091C16.2925 3.27924 16.2926 4.02672 16.2926 5.51506V7.33171C16.2926 7.67671 16.0126 7.95671 15.6676 7.95671C15.3226 7.95671 15.0426 7.67671 15.0426 7.33171V5.51506C15.0426 4.18515 15.0426 3.51757 14.8617 3.06258C14.5692 2.32758 13.9476 1.74423 13.1576 1.46257C12.6618 1.29093 11.9453 1.29093 10.5184 1.29093H10.5165C10.287 1.29093 10.0679 1.29093 9.85829 1.29118C9.85001 1.2915 9.84169 1.29167 9.83333 1.29167C8.6475 1.29167 7.68335 2.25582 7.68335 3.44165C7.68335 3.57479 7.68932 3.71838 7.69561 3.86956L7.6967 3.89583C7.7167 4.35167 7.73922 4.86752 7.61255 5.35002C7.43172 6.05002 6.88249 6.59836 6.18083 6.78003C5.69999 6.90586 5.18335 6.88336 4.72835 6.86336L4.69999 6.86218C4.54966 6.85593 4.40748 6.85002 4.27417 6.85002C3.10838 6.85002 2.15685 7.78185 2.12501 8.94006C2.125 9.00876 2.125 9.07848 2.125 9.14925V11.2743C2.125 13.6809 2.12501 14.8893 2.69751 15.6109C2.85751 15.8109 3.05418 15.9959 3.28084 16.1593C4.06332 16.7084 5.3591 16.7084 7.94064 16.7084H11.4992C11.8442 16.7084 12.1242 16.9884 12.1242 17.3334C12.1242 17.6784 11.8442 17.9584 11.4992 17.9584L11.5 17.9576ZM2.17004 6.33074C2.74938 5.87277 3.48083 5.59912 4.27506 5.59912C4.4434 5.59912 4.61587 5.60668 4.78337 5.61418L4.78631 5.6143C5.17039 5.63093 5.56746 5.64812 5.8667 5.56999C6.13003 5.50165 6.33507 5.29666 6.4034 5.03499C6.48232 4.73343 6.46518 4.33741 6.44856 3.95353L6.4484 3.94995C6.44091 3.78328 6.43335 3.60998 6.43335 3.44165C6.43335 2.65727 6.70023 1.93415 7.14796 1.3583C6.57892 1.40554 6.13155 1.48588 5.74007 1.62256C4.22257 2.15589 3.03172 3.2726 2.47339 4.68677C2.30116 5.12229 2.21407 5.63522 2.17004 6.33074Z" fill="#9DA4AE"/>
<path d="M8.51705 14.6235C8.31802 14.6233 8.12244 14.5283 8.00085 14.3509L7.09167 13.0217L6.18249 14.3509C5.98749 14.6359 5.59917 14.7092 5.31417 14.5142C5.02917 14.3192 4.95667 13.9301 5.15084 13.6459L6.33419 11.9151L5.15084 10.1842C4.95584 9.89924 5.02917 9.51008 5.31417 9.31592C5.59917 9.12092 5.98833 9.19425 6.18249 9.47925L7.09167 10.8084L8.00085 9.47925C8.19585 9.19425 8.58501 9.12175 8.86918 9.31592C9.15418 9.51092 9.22668 9.90008 9.03251 10.1842L7.84835 11.9151L9.03251 13.6459C9.22751 13.9309 9.15418 14.3201 8.86918 14.5142C8.7618 14.5883 8.63858 14.6234 8.51705 14.6235Z" fill="#9DA4AE"/>
<path d="M15.4834 14.6235H14.625C14.28 14.6235 14 14.3435 14 13.9985C14 13.6535 14.28 13.3735 14.625 13.3735H15.4834C15.63 13.3735 15.7808 13.3734 15.8466 13.3659C15.875 13.2976 15.875 13.0961 15.875 12.9736V12.9401C15.875 12.8176 15.875 12.6159 15.8466 12.5476C15.7817 12.5401 15.6305 12.5401 15.4841 12.5401C15.1124 12.5401 14.8883 12.5401 14.6508 12.4451C14.6442 12.4426 14.6375 12.4401 14.6308 12.4368C13.8409 12.0893 13.8409 11.3085 13.8409 10.8893V10.856C13.8409 10.4368 13.8409 9.65675 14.6308 9.30843C14.6329 9.30766 14.6349 9.30682 14.637 9.30595L14.6408 9.30428C14.6442 9.30283 14.6475 9.30138 14.6508 9.30013C14.8875 9.20513 15.1117 9.20508 15.4834 9.20508H16.275C16.62 9.20508 16.9 9.48508 16.9 9.83008C16.9 10.1751 16.62 10.4551 16.275 10.4551H15.4834C15.3369 10.4551 15.1849 10.4551 15.12 10.4626C15.0917 10.5309 15.0917 10.7324 15.0917 10.8549V10.8884C15.0917 11.0109 15.0917 11.2126 15.12 11.2809C15.1857 11.2884 15.3362 11.2884 15.4826 11.2884C15.8534 11.2884 16.0783 11.2885 16.315 11.3835C16.3216 11.386 16.3283 11.3884 16.335 11.3918C17.125 11.7392 17.125 12.52 17.125 12.9392V12.9726C17.125 13.3918 17.125 14.1718 16.335 14.5201C16.3317 14.5214 16.3283 14.5228 16.325 14.5243C16.3217 14.5257 16.3183 14.5272 16.315 14.5284C16.0783 14.6234 15.8542 14.6235 15.4834 14.6235Z" fill="#9DA4AE"/>
<path d="M12.8 14.6235H12.0917C11.3058 14.6235 10.8317 14.6234 10.4425 14.2493L10.4333 14.2401C10.0416 13.8484 10.0416 13.3543 10.0416 12.6068V9.83179C10.0416 9.48679 10.3216 9.20679 10.6666 9.20679C11.0116 9.20679 11.2916 9.48679 11.2916 9.83179V12.6068C11.2916 12.8951 11.2917 13.2193 11.3208 13.3434C11.4483 13.3734 11.775 13.3735 12.0917 13.3735H12.8C13.145 13.3735 13.425 13.6535 13.425 13.9985C13.425 14.3435 13.145 14.6235 12.8 14.6235Z" fill="#9DA4AE"/>
</svg>
