<svg width="40" height="40" viewBox="0 0 40 40" fill="none" xmlns="http://www.w3.org/2000/svg">
<path d="M0 20C0 8.95431 8.95431 0 20 0C31.0457 0 40 8.95431 40 20C40 31.0457 31.0457 40 20 40C8.95431 40 0 31.0457 0 20Z" fill="#ECFDF3"/>
<path d="M19.5066 28.96C17.6649 28.96 15.7332 28.9133 14.3749 28.8342C13.2399 28.7675 12.3174 28.1816 11.7082 27.1383C11.2241 26.3083 11.0507 25.38 11.0507 24.7866C11.0376 23.7427 11.0414 21.6618 11.0455 19.4463L11.0457 19.3491C11.0482 18.1641 11.0507 16.9383 11.0507 15.8041C11.0507 11.9191 13.4924 11.2983 14.5699 11.2142C14.7874 11.1833 16.3499 10.9758 18.3549 11.06C18.6999 11.0742 18.9674 11.3658 18.9532 11.7108C18.9391 12.0558 18.6482 12.3233 18.3024 12.3092C16.3099 12.2258 14.7449 12.4525 14.7291 12.455C14.7141 12.4575 14.6982 12.4592 14.6824 12.46C13.5957 12.5383 12.2999 13.1825 12.2999 15.805C12.2999 16.94 12.2974 18.1667 12.2949 19.3525L12.2942 19.7444C12.2902 21.8432 12.2866 23.7826 12.2999 24.7792C12.2999 25.3517 12.6641 27.4825 14.4466 27.5867C17.0024 27.735 21.6066 27.7683 23.7124 27.5875C23.7152 27.5875 23.7179 27.5873 23.7207 27.587L23.7299 27.5858C23.7491 27.585 25.6391 27.4558 25.8557 25.5908C26.0732 23.72 26.0582 22.355 26.0524 21.8408C26.0524 21.8027 26.0519 21.7691 26.0514 21.7398C26.051 21.7173 26.0507 21.6974 26.0507 21.68C26.0507 21.335 26.3307 21.055 26.6757 21.055C27.0207 21.055 27.3007 21.335 27.3007 21.68C27.3007 21.7166 27.3007 21.7658 27.3024 21.8266L27.3025 21.8342C27.3084 22.3757 27.3238 23.7949 27.0974 25.735C26.8291 28.0458 24.8357 28.7708 23.8107 28.8325C22.7824 28.92 21.1807 28.9583 19.5057 28.9583L19.5066 28.96Z" fill="#067647"/>
<path d="M23.3168 17.7225H23.2844C23.0594 17.7108 22.8577 17.5792 22.7577 17.3775C22.3968 16.655 22.0452 16.2933 22.041 16.29C21.7969 16.0458 21.7969 15.65 22.041 15.4058C22.2852 15.1617 22.681 15.1617 22.9252 15.4058C22.9552 15.4358 23.131 15.6166 23.3643 15.9508C23.9068 15.2483 24.756 14.3108 25.6085 14.0083C25.9335 13.8933 26.291 14.0633 26.406 14.3883C26.521 14.7133 26.351 15.0708 26.026 15.1858C25.3177 15.4366 24.3118 16.6966 23.8443 17.4316C23.7293 17.6125 23.5302 17.7216 23.3168 17.7216V17.7225Z" fill="#067647"/>
<path fill-rule="evenodd" clip-rule="evenodd" d="M19.3669 15.8476C19.3669 18.4901 21.5185 20.6392 24.1627 20.6392C26.8069 20.6392 28.9585 18.4901 28.9585 15.8476C28.9585 13.2051 26.8069 11.0559 24.1627 11.0559C21.5185 11.0559 19.3669 13.2051 19.3669 15.8476ZM20.6169 15.8476C20.6169 13.8951 22.2077 12.3059 24.1627 12.3059C26.1177 12.3059 27.7085 13.8951 27.7085 15.8476C27.7085 17.8001 26.1177 19.3892 24.1627 19.3892C22.2077 19.3892 20.6169 17.8001 20.6169 15.8476Z" fill="#067647"/>
<path d="M19.15 21.4726H15.8166C15.4716 21.4726 15.1916 21.1926 15.1916 20.8476C15.1916 20.5026 15.4716 20.2226 15.8166 20.2226H19.15C19.495 20.2226 19.775 20.5026 19.775 20.8476C19.775 21.1926 19.495 21.4726 19.15 21.4726Z" fill="#067647"/>
<path d="M15.8166 24.8059H22.4833C22.8283 24.8059 23.1083 24.5259 23.1083 24.1809C23.1083 23.8359 22.8283 23.5559 22.4833 23.5559H15.8166C15.4716 23.5559 15.1916 23.8359 15.1916 24.1809C15.1916 24.5259 15.4716 24.8059 15.8166 24.8059Z" fill="#067647"/>
</svg>
