<svg width="18" height="14" viewBox="0 0 18 14" fill="none" xmlns="http://www.w3.org/2000/svg">
<path fill-rule="evenodd" clip-rule="evenodd" d="M8.99935 10.125C7.27346 10.125 5.87435 8.72585 5.87435 6.99996C5.87435 5.27407 7.27346 3.87496 8.99935 3.87496C10.7252 3.87496 12.1243 5.27407 12.1243 6.99996C12.1243 8.72585 10.7252 10.125 8.99935 10.125ZM7.12435 6.99996C7.12435 8.03549 7.96382 8.87496 8.99935 8.87496C10.0349 8.87496 10.8743 8.03549 10.8743 6.99996C10.8743 5.96443 10.0349 5.12496 8.99935 5.12496C7.96382 5.12496 7.12435 5.96443 7.12435 6.99996Z" fill="#161616"/>
<path fill-rule="evenodd" clip-rule="evenodd" d="M8.99935 0.541626C6.85722 0.541626 5.02098 1.48447 3.5996 2.59411C2.17696 3.70476 1.1254 5.01641 0.537191 5.84123L0.492842 5.90307C0.281879 6.19647 0.0410156 6.53145 0.0410156 6.99996C0.0410156 7.46846 0.281879 7.80345 0.492842 8.09685L0.537191 8.15869C1.1254 8.98351 2.17696 10.2952 3.59961 11.4058C5.02098 12.5155 6.85722 13.4583 8.99935 13.4583C11.1415 13.4583 12.9777 12.5155 14.3991 11.4058C15.8217 10.2952 16.8733 8.98351 17.4615 8.15869L17.5059 8.09685C17.7168 7.80345 17.9577 7.46846 17.9577 6.99996C17.9577 6.53145 17.7168 6.19647 17.5059 5.90307L17.4615 5.84122C16.8733 5.01641 15.8217 3.70476 14.3991 2.59411C12.9777 1.48447 11.1415 0.541626 8.99935 0.541626ZM1.55491 6.567C2.10508 5.79553 3.07633 4.58844 4.36882 3.57941C5.66258 2.56939 7.2338 1.79163 8.99935 1.79163C10.7649 1.79163 12.3361 2.56939 13.6299 3.57941C14.9224 4.58844 15.8936 5.79553 16.4438 6.567C16.5799 6.75785 16.6447 6.85104 16.6833 6.92523C16.7078 6.97239 16.7078 6.98531 16.7077 6.99797L16.7077 6.99996L16.7077 7.00195C16.7078 7.01461 16.7078 7.02753 16.6833 7.07469C16.6447 7.14888 16.5799 7.24207 16.4438 7.43292C15.8936 8.20439 14.9224 9.41148 13.6299 10.4205C12.3361 11.4305 10.7649 12.2083 8.99935 12.2083C7.2338 12.2083 5.66258 11.4305 4.36882 10.4205C3.07633 9.41148 2.10508 8.20439 1.55491 7.43292C1.41881 7.24207 1.35403 7.14888 1.31542 7.07469C1.29087 7.02753 1.29094 7.01461 1.29101 7.00195L1.29102 6.99996L1.29101 6.99797C1.29094 6.98531 1.29087 6.97238 1.31542 6.92523C1.35403 6.85104 1.41881 6.75785 1.55491 6.567Z" fill="#161616"/>
</svg>
