<svg width="56" height="56" viewBox="0 0 56 56" fill="none" xmlns="http://www.w3.org/2000/svg">
<path d="M0 28C0 12.536 12.536 0 28 0C43.464 0 56 12.536 56 28C56 43.464 43.464 56 28 56C12.536 56 0 43.464 0 28Z" fill="#F9FAFB"/>
<path opacity="0.4" fill-rule="evenodd" clip-rule="evenodd" d="M32.9064 20.7085C32.6815 20.7085 32.4634 20.7306 32.2544 20.772C31.7804 20.866 31.3199 20.558 31.2259 20.084C31.1318 19.61 31.4399 19.1495 31.9139 19.0554C32.2347 18.9918 32.5669 18.9585 32.9064 18.9585C35.4337 18.9585 37.6258 20.8418 37.6258 23.3335C37.6258 25.8252 35.4337 27.7085 32.9064 27.7085C32.5669 27.7085 32.2347 27.6752 31.9139 27.6115C31.4399 27.5175 31.1318 27.057 31.2259 26.583C31.3199 26.109 31.7804 25.801 32.2544 25.895C32.4634 25.9364 32.6815 25.9585 32.9064 25.9585C34.6255 25.9585 35.8758 24.7078 35.8758 23.3335C35.8758 21.9592 34.6255 20.7085 32.9064 20.7085ZM33.5425 31.5002C33.5425 31.0169 33.9342 30.6252 34.4175 30.6252C35.0322 30.6252 35.852 30.7903 36.6618 31.0416C37.4849 31.2969 38.3743 31.6651 39.1324 32.119C39.8577 32.5533 40.6041 33.1488 40.9417 33.9173C41.1228 34.3294 41.1884 34.7987 41.0562 35.2858C40.9273 35.7609 40.6327 36.1707 40.2405 36.5206C39.1976 37.4509 37.9311 38.2085 36.2915 38.2085H35.7196C35.2363 38.2085 34.8446 37.8167 34.8446 37.3335C34.8446 36.8502 35.2363 36.4585 35.7196 36.4585H36.2915C37.3349 36.4585 38.2023 35.9936 39.0755 35.2147C39.2918 35.0218 39.3508 34.888 39.3673 34.8275C39.3804 34.7789 39.3831 34.7204 39.3395 34.6213C39.2279 34.3673 38.8783 34.0066 38.2334 33.6204C37.6212 33.2539 36.8662 32.9373 36.1433 32.713C35.4071 32.4846 34.7793 32.3752 34.4175 32.3752C33.9342 32.3752 33.5425 31.9834 33.5425 31.5002Z" fill="#161616"/>
<path fill-rule="evenodd" clip-rule="evenodd" d="M24.5003 18.9585C22.4063 18.9585 20.7087 20.6561 20.7087 22.7502C20.7087 24.8442 22.4063 26.5418 24.5003 26.5418C26.5944 26.5418 28.292 24.8442 28.292 22.7502C28.292 20.6561 26.5944 18.9585 24.5003 18.9585ZM18.9587 22.7502C18.9587 19.6896 21.4398 17.2085 24.5003 17.2085C27.5609 17.2085 30.042 19.6896 30.042 22.7502C30.042 25.8107 27.5609 28.2918 24.5003 28.2918C21.4398 28.2918 18.9587 25.8107 18.9587 22.7502ZM16.6268 35.6932C16.6232 35.7225 16.6004 35.9044 17.0128 36.2579C17.998 37.1027 18.9976 37.6252 20.2137 37.6252H28.787C30.0031 37.6252 31.0027 37.1027 31.9879 36.2579C32.4002 35.9044 32.3775 35.7225 32.3739 35.6932L32.3737 35.6921C32.3621 35.5965 32.2719 35.3908 31.9259 35.0861C31.3784 34.6037 30.5924 34.2022 29.9012 33.8491C29.7109 33.7519 29.5278 33.6583 29.3588 33.5678C26.3916 31.9776 22.6091 31.9776 19.6418 33.5678C19.4729 33.6583 19.2898 33.7519 19.0995 33.8491C18.4083 34.2022 17.6223 34.6037 17.0748 35.0861C16.7288 35.3908 16.6386 35.5965 16.6269 35.6921L16.6268 35.6932ZM18.8152 32.0253C22.2989 30.1584 26.7018 30.1584 30.1854 32.0253C30.2941 32.0835 30.4299 32.1525 30.585 32.2311C31.2761 32.5818 32.3479 33.1256 33.0827 33.7729C33.5357 34.172 34.0212 34.7418 34.111 35.4811C34.2093 36.2907 33.8073 37.0031 33.127 37.5864C31.9663 38.5817 30.5758 39.3752 28.787 39.3752H20.2137C18.4248 39.3752 17.0344 38.5817 15.8737 37.5864C15.1934 37.0031 14.7914 36.2907 14.8897 35.4811C14.9795 34.7418 15.465 34.172 15.918 33.7729C16.6528 33.1256 17.7246 32.5818 18.4157 32.2311C18.5707 32.1525 18.7066 32.0835 18.8152 32.0253Z" fill="#161616"/>
</svg>
