<svg width="20" height="20" viewBox="0 0 20 20" fill="none" xmlns="http://www.w3.org/2000/svg">
<g id="Feedback Icon">
<path id="bg" fill-rule="evenodd" clip-rule="evenodd" d="M9.99998 19.1667C15.0626 19.1667 19.1666 15.0626 19.1666 10C19.1666 4.93743 15.0626 0.833374 9.99998 0.833374C4.93737 0.833374 0.833313 4.93743 0.833313 10C0.833313 15.0626 4.93737 19.1667 9.99998 19.1667Z" fill="white"/>
<path id="Icon" fill-rule="evenodd" clip-rule="evenodd" d="M19.1666 10C19.1666 15.0626 15.0626 19.1667 9.99998 19.1667C4.93737 19.1667 0.833313 15.0626 0.833313 10C0.833313 4.93743 4.93737 0.833374 9.99998 0.833374C15.0626 0.833374 19.1666 4.93743 19.1666 10ZM9.01407 6.89649C9.3534 6.69706 9.75237 6.62416 10.1403 6.6907C10.5282 6.75724 10.8801 6.95893 11.1336 7.26005C11.3871 7.56116 11.5258 7.94227 11.5252 8.33586L11.5252 8.33711C11.5252 8.72805 11.221 9.13562 10.6463 9.51873C10.3843 9.69338 10.1164 9.82792 9.91072 9.91934C9.80905 9.96453 9.72549 9.9979 9.6693 10.0193C9.64127 10.03 9.62026 10.0376 9.60744 10.0422L9.59458 10.0467C9.15824 10.1924 8.92248 10.6642 9.06797 11.1006C9.21351 11.5372 9.68544 11.7732 10.1221 11.6277L9.85854 10.8371C10.1221 11.6277 10.1231 11.6273 10.1231 11.6273L10.1244 11.6269L10.1276 11.6258L10.1368 11.6227L10.1658 11.6125C10.1896 11.6041 10.2223 11.5921 10.2626 11.5768C10.3432 11.5461 10.4549 11.5013 10.5876 11.4424C10.8507 11.3255 11.2078 11.1475 11.5708 10.9055C12.246 10.4553 13.1915 9.61316 13.1919 8.33786C13.1929 7.55084 12.9155 6.78881 12.4086 6.18671C11.9017 5.58449 11.1979 5.18111 10.4221 5.04803C9.6462 4.91495 8.84827 5.06075 8.1696 5.45961C7.49093 5.85847 6.97532 6.48464 6.71409 7.22724C6.56137 7.66139 6.78951 8.13716 7.22367 8.28988C7.65783 8.44261 8.13359 8.21447 8.28632 7.78031C8.41693 7.40901 8.67474 7.09592 9.01407 6.89649ZM9.92521 13.3371C9.46497 13.3371 9.09187 13.7102 9.09187 14.1704C9.09187 14.6307 9.46497 15.0038 9.92521 15.0038H9.93354C10.3938 15.0038 10.7669 14.6307 10.7669 14.1704C10.7669 13.7102 10.3938 13.3371 9.93354 13.3371H9.92521Z" fill="#384250"/>
</g>
</svg>
