<svg width="32" height="32" viewBox="0 0 32 32" fill="none" xmlns="http://www.w3.org/2000/svg">
  <path
    d="M16.6252 9.33301C16.6252 8.98783 16.3454 8.70801 16.0002 8.70801C15.655 8.70801 15.3752 8.98783 15.3752 9.33301V16.3846L15.3702 16.3787C15.1946 16.1715 15.0227 15.9525 14.8619 15.7477L14.8246 15.7003C14.6645 15.4963 14.4959 15.282 14.365 15.1474C14.1245 14.8999 13.7288 14.8942 13.4813 15.1348C13.2337 15.3754 13.2281 15.7711 13.4687 16.0186C13.5426 16.0947 13.664 16.2462 13.8416 16.4724L13.8808 16.5223C14.0392 16.7241 14.225 16.9608 14.4165 17.1868C14.6217 17.4289 14.8513 17.6804 15.0809 17.8759C15.1959 17.9739 15.3256 18.0705 15.4651 18.1452C15.5996 18.2172 15.785 18.2913 16.0002 18.2913C16.2154 18.2913 16.4008 18.2172 16.5354 18.1452C16.6748 18.0705 16.8045 17.9739 16.9195 17.8759C17.1491 17.6804 17.3788 17.4289 17.5839 17.1868C17.7754 16.9608 17.9611 16.7241 18.1195 16.5224L18.1588 16.4724C18.3364 16.2462 18.4578 16.0947 18.5317 16.0186C18.7723 15.7711 18.7667 15.3754 18.5192 15.1348C18.2716 14.8942 17.8759 14.8999 17.6354 15.1474C17.5045 15.282 17.3359 15.4963 17.1758 15.7003L17.1385 15.7477C16.9777 15.9525 16.8058 16.1715 16.6303 16.3787L16.6252 16.3846V9.33301Z"
    fill="#161616" />
  <path
    d="M24.0895 17.8744C24.2044 17.5489 24.0337 17.1919 23.7082 17.077C23.3827 16.9621 23.0257 17.1328 22.9108 17.4583L22.7159 18.0105C22.332 19.0984 22.0604 19.8651 21.7816 20.4398C21.5097 21.0002 21.2568 21.3207 20.9413 21.5439C20.6259 21.7671 20.2395 21.8989 19.6205 21.9688C18.9857 22.0404 18.1723 22.0414 17.0187 22.0414H14.9816C13.828 22.0414 13.0146 22.0404 12.3798 21.9688C11.7609 21.8989 11.3745 21.7671 11.059 21.5439C10.7435 21.3207 10.4907 21.0002 10.2188 20.4398C9.93995 19.8651 9.66837 19.0984 9.28441 18.0105L9.08954 17.4583C8.97466 17.1328 8.61766 16.9621 8.29216 17.077C7.96666 17.1919 7.79592 17.5489 7.9108 17.8744L8.11812 18.4618C8.48678 19.5063 8.78096 20.3399 9.09416 20.9854C9.41781 21.6525 9.78722 22.1754 10.337 22.5644C10.8868 22.9534 11.5028 23.1277 12.2396 23.2109C12.9526 23.2914 13.8365 23.2914 14.9442 23.2914H17.0561C18.1638 23.2914 19.0477 23.2914 19.7607 23.2109C20.4975 23.1277 21.1135 22.9534 21.6633 22.5644C22.2131 22.1754 22.5825 21.6525 22.9062 20.9854C23.2194 20.3399 23.5136 19.5063 23.8822 18.4618L24.0895 17.8744Z"
    fill="#161616" />
</svg>
