<svg width="20" height="20" viewBox="0 0 20 20" fill="none" xmlns="http://www.w3.org/2000/svg">
  <path fill-rule="evenodd" clip-rule="evenodd"
        d="M10 19.1673C15.0626 19.1673 19.1667 15.0633 19.1667 10.0007C19.1667 4.93804 15.0626 0.833984 10 0.833984C4.93743 0.833984 0.833374 4.93804 0.833374 10.0007C0.833374 15.0633 4.93743 19.1673 10 19.1673ZM5.87522 9.26842C5.54978 9.59385 5.54978 10.1215 5.87522 10.4469L8.23224 12.804C8.55768 13.1294 9.08532 13.1294 9.41076 12.804L14.1248 8.08991C14.4502 7.76447 14.4502 7.23683 14.1248 6.9114C13.7994 6.58596 13.2717 6.58596 12.9463 6.9114L8.8215 11.0362L7.05373 9.26842C6.7283 8.94298 6.20066 8.94298 5.87522 9.26842Z"
        fill="#067647" />
</svg>
