<svg width="19" height="20" viewBox="0 0 19 20" fill="none" xmlns="http://www.w3.org/2000/svg">
  <path fill-rule="evenodd" clip-rule="evenodd" d="M0.583008 6.84578C0.583007 6.87801 0.583008 6.91039 0.583008 6.94292L0.583008 19C0.583008 19.4142 0.918795 19.75 1.33301 19.75C1.74722 19.75 2.08301 19.4142 2.08301 19L2.08301 13.75L13.262 13.75C14.3306 13.75 15.2001 13.75 15.8584 13.6731C16.5119 13.5968 17.1664 13.4265 17.5974 12.9014C17.7927 12.6636 17.9373 12.3885 18.0206 12.092C18.2082 11.4248 17.946 10.7991 17.6145 10.2484C17.2816 9.69555 16.7579 9.02869 16.1191 8.21525L16.086 8.17314C15.7995 7.80831 15.6184 7.57646 15.4978 7.3876C15.3847 7.21053 15.3646 7.1304 15.3588 7.08349C15.352 7.028 15.352 6.972 15.3588 6.91651C15.3646 6.8696 15.3847 6.78947 15.4978 6.6124C15.6184 6.42354 15.7995 6.19169 16.086 5.82686L16.119 5.78487C16.7579 4.97138 17.2816 4.30448 17.6145 3.75161C17.946 3.20093 18.2082 2.57516 18.0206 1.90796C17.9373 1.61154 17.7927 1.33643 17.5974 1.09857C17.1664 0.573535 16.5119 0.403211 15.8584 0.326874C15.2001 0.249966 14.3306 0.249981 13.262 0.250001L7.56267 0.250001C6.12683 0.249982 4.9765 0.249969 4.07326 0.365942C3.14077 0.485672 2.35882 0.740626 1.7351 1.33629C1.10652 1.93659 0.832973 2.69703 0.705342 3.60363C0.61432 4.25018 0.59101 5.02678 0.58505 5.94424C0.583697 5.96265 0.583008 5.98125 0.583008 6L0.583008 6.84578ZM2.17605 12.25L2.08301 6.99336C2.08301 5.56054 2.08492 4.56412 2.1907 3.81274C2.29308 3.08545 2.47958 2.69945 2.77107 2.42107C3.06742 2.13805 3.48593 1.95367 4.26429 1.85373C5.06083 1.75146 6.11456 1.75 7.61567 1.75L13.2115 1.75C14.3428 1.75 15.1237 1.75124 15.6844 1.81674C16.2604 1.88402 16.3975 2.00094 16.4381 2.05038C16.5038 2.13041 16.5503 2.22027 16.5766 2.31399C16.5873 2.35181 16.6152 2.50316 16.3294 2.97795C16.0506 3.44107 15.5863 4.03455 14.9063 4.90041L14.8855 4.92683C14.6258 5.25748 14.3985 5.54698 14.2337 5.8049C14.057 6.08146 13.9137 6.3787 13.8701 6.73328C13.8483 6.91046 13.8483 7.08953 13.8701 7.26671C13.9137 7.6213 14.057 7.91854 14.2337 8.1951C14.3985 8.45302 14.6258 8.74251 14.8855 9.07317L14.9063 9.09959C15.5863 9.96544 16.0506 10.5589 16.3294 11.022C16.6152 11.4968 16.5873 11.6482 16.5766 11.686C16.5503 11.7797 16.5038 11.8696 16.4381 11.9496C16.3975 11.9991 16.2604 12.116 15.6844 12.1833C15.1237 12.2488 14.3428 12.25 13.2115 12.25L2.17605 12.25Z" fill="#1B8354"/>
</svg>
