<svg width="40" height="40" viewBox="0 0 40 40" fill="none" xmlns="http://www.w3.org/2000/svg">
<path d="M0 20C0 8.95431 8.95431 0 20 0C31.0457 0 40 8.95431 40 20C40 31.0457 31.0457 40 20 40C8.95431 40 0 31.0457 0 20Z" fill="#ECFDF3"/>
<path fill-rule="evenodd" clip-rule="evenodd" d="M13.2505 24.7503C13.2503 24.7442 13.2503 24.738 13.2503 24.7318L13.2503 15.4887L13.2501 15.4208C13.2492 15.0978 13.2482 14.7381 13.4284 14.3699C13.6074 14.0041 13.8469 13.8186 14.0635 13.6508L14.0944 13.6269C15.5855 12.4683 18.4963 11.4054 22.0983 13.2403C24.5003 14.4639 26.603 14.3852 28.0201 13.9922L28.057 13.982C28.4871 13.8627 28.862 13.7587 29.1532 13.7072C29.305 13.6803 29.4763 13.6594 29.6469 13.6696C29.8203 13.6799 30.0487 13.7257 30.2569 13.884C30.6267 14.1652 30.695 14.6024 30.7212 14.8416C30.7503 15.1087 30.7503 15.454 30.7503 15.8337L30.7503 23.4008C30.7503 23.4165 30.7504 23.4335 30.7506 23.4518C30.7525 23.6461 30.7559 23.981 30.5754 24.2853C30.3963 24.5874 30.1243 24.7331 29.9671 24.8174L29.9297 24.8375C28.3455 25.7035 25.1323 26.4692 21.4174 24.5769C18.1369 22.9057 15.7025 24.1429 14.7505 25.0356L14.7505 30.9999C14.7505 31.4142 14.4147 31.7499 14.0005 31.7499C13.5863 31.7499 13.2505 31.4142 13.2505 30.9999L13.2505 24.7503ZM15.0147 14.8114C16.1175 13.9544 18.409 13.0444 21.4174 14.5769C24.1849 15.9866 26.6776 15.9211 28.4209 15.4377C28.7833 15.3372 29.046 15.2649 29.2441 15.2194C29.2498 15.3798 29.2503 15.5898 29.2503 15.8738L29.2503 23.4008C29.2503 23.4394 29.2502 23.4715 29.2501 23.4995L29.2102 23.5214C28.0032 24.1811 25.3162 24.8795 22.0983 23.2403C18.9671 21.6453 16.3626 22.2375 14.7505 23.1845L14.7505 16.9999C14.7505 16.9937 14.7504 16.9875 14.7503 16.9813L14.7503 15.4887C14.7503 15.281 14.7512 15.1799 14.759 15.1041C14.7644 15.0523 14.7706 15.0397 14.7752 15.0303L14.7757 15.0293C14.7853 15.0096 14.7913 15.0009 14.7937 14.9975C14.7959 14.9944 14.7999 14.9891 14.81 14.9789C14.8216 14.9672 14.8407 14.9497 14.8755 14.9211C14.9116 14.8916 14.9541 14.8585 15.0147 14.8114Z" fill="#067647"/>
</svg>
