<svg width="16" height="20" viewBox="0 0 16 20" fill="none" xmlns="http://www.w3.org/2000/svg">
<path fill-rule="evenodd" clip-rule="evenodd" d="M2.04462 1.86279C2.01829 1.8918 1.9653 1.96815 1.9359 2.15784C1.80517 3.00119 1.75836 4.54672 1.75108 6.61957C1.74654 7.90967 1.75701 9.37524 1.76837 10.9647C1.77267 11.5665 1.7771 12.1861 1.78089 12.8207L11.7594 8.87855C13.2075 8.19429 13.8739 7.62702 14.1523 7.23027C14.2684 7.06479 14.2582 6.97396 14.2361 6.90013C14.2003 6.78101 14.0869 6.60051 13.829 6.37241C13.3131 5.91605 12.4889 5.50079 11.736 5.1763L9.68655 4.29308C8.84362 3.96717 8.02216 3.62707 7.25208 3.30825C6.97252 3.19251 6.69974 3.07958 6.43516 2.97114C5.42551 2.55735 4.53845 2.21041 3.79188 1.99093C3.01783 1.76338 2.51878 1.71278 2.23358 1.77374C2.1142 1.79926 2.06788 1.83717 2.04462 1.86279ZM1.78856 14.4305L12.3331 10.2647C12.3479 10.2589 12.3625 10.2526 12.377 10.2458C13.919 9.51974 14.8751 8.81154 15.3802 8.0919C15.7403 7.57872 15.8367 7.0153 15.6728 6.46907C15.5225 5.96812 15.1777 5.56273 14.8229 5.24888C14.1134 4.62135 13.0947 4.1285 12.3296 3.79878L10.2671 2.90991C10.2583 2.90613 10.2495 2.90251 10.2406 2.89907C9.411 2.57856 8.60991 2.2469 7.84053 1.92837C7.55733 1.81113 7.27843 1.69566 7.004 1.58319C5.99636 1.17022 5.0443 0.79564 4.21494 0.55183C3.41307 0.3161 2.59938 0.161658 1.92002 0.306883C1.55712 0.384459 1.20821 0.552457 0.933908 0.854668C0.662678 1.1535 0.515783 1.52692 0.4536 1.92806L0.4536 1.92806C0.302338 2.90387 0.258276 4.5677 0.251085 6.6143C0.246528 7.91125 0.257095 9.39169 0.268491 10.9882C0.275222 11.9311 0.282241 12.9144 0.286605 13.9244C0.293653 15.5556 0.293838 17.2616 0.274946 18.9921C0.270424 19.4062 0.602524 19.7457 1.01671 19.7502C1.4309 19.7547 1.77033 19.4226 1.77486 19.0084C1.79189 17.4485 1.79349 15.9099 1.78856 14.4305Z" fill="#1B8354"/>
</svg>
