<svg width="20" height="20" viewBox="0 0 20 20" fill="none" xmlns="http://www.w3.org/2000/svg">
<path d="M9.16634 14.3748C8.82116 14.3748 8.54134 14.6547 8.54134 14.9998C8.54134 15.345 8.82116 15.6248 9.16634 15.6248H10.833C11.1782 15.6248 11.458 15.345 11.458 14.9998C11.458 14.6547 11.1782 14.3748 10.833 14.3748H9.16634Z" fill="#067647"/>
<path fill-rule="evenodd" clip-rule="evenodd" d="M8.20487 5.20806L8.27352 5.20818H11.7259L11.7945 5.20806C12.0545 5.2074 12.3266 5.2067 12.5647 5.29001C12.9836 5.43659 13.313 5.76595 13.4595 6.18485C13.5428 6.42294 13.5422 6.69508 13.5415 6.95501L13.5414 7.02365L13.5414 7.55379C13.5415 7.88853 13.5415 8.12861 13.508 8.34019C13.3245 9.49906 12.4156 10.408 11.2567 10.5915C11.1213 10.6129 10.8758 10.6186 10.6728 10.6216C10.4471 10.6248 10.1941 10.6248 10.0017 10.6248H9.99769C9.80529 10.6248 9.55232 10.6248 9.3266 10.6216C9.12361 10.6186 8.8781 10.6129 8.7427 10.5915C7.58382 10.408 6.67493 9.49906 6.49138 8.34019C6.45787 8.12861 6.45794 7.88854 6.45803 7.55379L6.45804 7.02365L6.45792 6.95501C6.45726 6.69508 6.45657 6.42294 6.53988 6.18485C6.68646 5.76595 7.01581 5.43659 7.43472 5.29001C7.6728 5.2067 7.94494 5.2074 8.20487 5.20806ZM7.8452 6.47071C7.78727 6.49177 7.74163 6.53741 7.72058 6.59533C7.71945 6.60056 7.71564 6.6212 7.71282 6.66943C7.70829 6.74676 7.70804 6.8501 7.70804 7.02365V7.49984C7.70804 7.91081 7.70998 8.04353 7.72599 8.14465C7.82483 8.76865 8.31423 9.25806 8.93824 9.35689L8.93683 9.35666C8.93683 9.35666 8.94579 9.35778 8.96735 9.35939C8.99131 9.36118 9.02274 9.36294 9.06167 9.36457C9.13952 9.36784 9.23667 9.37014 9.34472 9.3717C9.56057 9.37483 9.80527 9.37484 9.99971 9.37484C10.1941 9.37484 10.4388 9.37483 10.6547 9.3717C10.7627 9.37014 10.8599 9.36784 10.9377 9.36457C10.9767 9.36294 11.0081 9.36118 11.0321 9.35939C11.0536 9.35778 11.0626 9.35666 11.0626 9.35666L11.0612 9.35689C11.6852 9.25806 12.1746 8.76865 12.2734 8.14465C12.2894 8.04353 12.2914 7.91081 12.2914 7.49984V7.02365C12.2914 6.8501 12.2911 6.74676 12.2866 6.66943C12.2838 6.6212 12.28 6.60056 12.2788 6.59533C12.2578 6.53741 12.2121 6.49177 12.1542 6.47071C12.149 6.46959 12.1283 6.46578 12.0801 6.46295C12.0028 6.45843 11.8994 6.45818 11.7259 6.45818H8.27352C8.09997 6.45818 7.99662 6.45843 7.9193 6.46295C7.87106 6.46578 7.85042 6.46959 7.8452 6.47071Z" fill="#067647"/>
<path fill-rule="evenodd" clip-rule="evenodd" d="M5.20801 1.6665C5.20801 1.32133 4.92819 1.0415 4.58301 1.0415C4.23783 1.0415 3.95801 1.32133 3.95801 1.6665V3.33317C3.95801 3.33317 3.95801 3.33317 3.95801 3.33317V12.9165C3.95801 16.2532 6.66295 18.9582 9.99968 18.9582C13.3364 18.9582 16.0413 16.2532 16.0413 12.9165L16.0413 6.62318C16.0414 5.87445 16.0414 5.25009 15.9747 4.75444C15.9044 4.23128 15.7497 3.75894 15.3701 3.37939C14.9906 2.99983 14.5182 2.8451 13.9951 2.77477C13.4994 2.70813 12.8751 2.70815 12.1263 2.70817L5.20801 2.70817L5.20801 1.6665ZM12.083 3.95817C12.8864 3.95817 13.426 3.9595 13.8285 4.01362C14.2131 4.06532 14.3776 4.15467 14.4862 4.26327C14.5948 4.37187 14.6842 4.53645 14.7359 4.921C14.79 5.32353 14.7913 5.86316 14.7913 6.66651V12.9165C14.7913 15.5629 12.646 17.7082 9.99968 17.7082C7.35331 17.7082 5.20801 15.5629 5.20801 12.9165V3.95817H12.083Z" fill="#067647"/>
</svg>
