<svg width="20" height="20" viewBox="0 0 20 20" fill="none" xmlns="http://www.w3.org/2000/svg">
    <path
        d="M9.44189 2.3088C9.48409 2.36927 9.5323 2.43682 9.58801 2.51482L10.5079 3.80266C10.7086 4.08354 10.6435 4.47389 10.3626 4.67452C10.0818 4.87516 9.69141 4.8101 9.49077 4.52922L8.54698 3.20798C8.39666 2.99767 8.24143 2.78049 8.14596 2.58495C8.03424 2.35612 7.93734 2.02173 8.11156 1.663C8.35563 1.06384 9.58801 1.02824 9.99935 1.04094C14.9469 1.04094 18.9577 5.05172 18.9577 9.99928C18.9577 14.9468 14.9469 18.9576 9.99935 18.9576C5.05179 18.9576 1.04102 14.9468 1.04102 9.99928C1.04102 7.06803 2.44952 4.46558 4.62399 2.83227C4.89998 2.62497 5.29177 2.68065 5.49908 2.95664C5.70638 3.23263 5.6507 3.62442 5.37471 3.83173C3.50103 5.23911 2.29102 7.47779 2.29102 9.99928C2.29102 14.2564 5.74215 17.7076 9.99935 17.7076C14.2565 17.7076 17.7077 14.2564 17.7077 9.99928C17.7077 5.74208 14.2565 2.29094 9.99935 2.29094C9.76172 2.29094 9.61849 2.29094 9.44189 2.3088Z"
        fill="#1B8354" />
    <path
        d="M7.30185 9.44033C7.22557 9.51208 7.1428 9.58597 7.05593 9.65507C6.78579 9.86995 6.39261 9.82516 6.17773 9.55502C5.96285 9.28488 6.00764 8.8917 6.27778 8.67682C6.39976 8.57978 6.49776 8.48145 6.61217 8.36666C6.68363 8.29496 6.76149 8.21683 6.8556 8.12859C6.95433 8.03601 7.08777 7.91817 7.23772 7.83425C7.37822 7.75561 7.67279 7.62994 8.00305 7.77148C8.20868 7.8596 8.35987 8.01143 8.4507 8.19778C8.53047 8.36143 8.55154 8.52695 8.55925 8.64369C8.56718 8.76384 8.56362 8.89221 8.56013 9.00119L8.55833 9.05594C8.55506 9.15432 8.55185 9.25064 8.55185 9.35594V13.3359C8.55185 13.6811 8.27203 13.9609 7.92685 13.9609C7.58168 13.9609 7.30185 13.6811 7.30185 13.3359V9.44033Z"
        fill="#1B8354" />
    <path
        d="M11.1332 7.70776C10.6367 7.70776 10.2092 8.0582 10.1118 8.54496L10.1088 8.56069L9.80446 10.3124C9.76543 10.5371 9.8518 10.7651 10.0298 10.9075C10.2078 11.0499 10.4493 11.0841 10.6598 10.9967C10.9202 10.8886 11.0788 10.8308 11.2322 10.7956C11.3795 10.7617 11.5454 10.7435 11.814 10.7435C12.1245 10.7435 12.3577 10.8389 12.4987 10.9735C12.6262 11.0953 12.7424 11.3092 12.7121 11.7013C12.7107 11.7197 12.7101 11.7382 12.7103 11.7566C12.7155 12.2099 12.5479 12.4173 12.3933 12.5306C12.2047 12.6688 11.9651 12.7126 11.8354 12.7081C11.7552 12.7054 11.6739 12.7069 11.6064 12.7084L11.5771 12.709C11.5172 12.7103 11.4654 12.7115 11.4128 12.7112C11.2888 12.7105 11.2124 12.7011 11.1621 12.686C11.1238 12.6746 11.116 12.6649 11.1108 12.6584C11.1013 12.6465 11.0591 12.5871 11.0364 12.4168C10.9908 12.0747 10.6764 11.8343 10.3343 11.8799C9.99215 11.9255 9.75176 12.2399 9.79738 12.582C9.84134 12.9117 9.94661 13.2048 10.1356 13.4403C10.3289 13.6812 10.5713 13.8141 10.8042 13.8837C11.0257 13.9499 11.2432 13.9603 11.406 13.9612C11.4773 13.9615 11.5481 13.96 11.607 13.9586L11.6333 13.9581C11.702 13.9566 11.7513 13.956 11.7926 13.9574C12.1492 13.9696 12.6777 13.8718 13.1319 13.5391C13.6147 13.1854 13.9623 12.6019 13.9604 11.7699C14.0075 11.074 13.7946 10.4826 13.3619 10.0694C12.9369 9.6636 12.3669 9.49352 11.814 9.49352C11.5904 9.49352 11.3955 9.50387 11.2091 9.53L11.3086 8.95776H13.3336C13.6787 8.95776 13.9586 8.67794 13.9586 8.33276C13.9586 7.98759 13.6787 7.70776 13.3336 7.70776H11.1332Z"
        fill="#1B8354" />
    <path
        d="M9.44189 2.3088C9.48409 2.36927 9.5323 2.43682 9.58801 2.51482L10.5079 3.80266C10.7086 4.08354 10.6435 4.47389 10.3626 4.67452C10.0818 4.87516 9.69141 4.8101 9.49077 4.52922L8.54698 3.20798C8.39666 2.99767 8.24143 2.78049 8.14596 2.58495C8.03424 2.35612 7.93734 2.02173 8.11156 1.663C8.35563 1.06384 9.58801 1.02824 9.99935 1.04094C14.9469 1.04094 18.9577 5.05172 18.9577 9.99928C18.9577 14.9468 14.9469 18.9576 9.99935 18.9576C5.05179 18.9576 1.04102 14.9468 1.04102 9.99928C1.04102 7.06803 2.44952 4.46558 4.62399 2.83227C4.89998 2.62497 5.29177 2.68065 5.49908 2.95664C5.70638 3.23263 5.6507 3.62442 5.37471 3.83173C3.50103 5.23911 2.29102 7.47779 2.29102 9.99928C2.29102 14.2564 5.74215 17.7076 9.99935 17.7076C14.2565 17.7076 17.7077 14.2564 17.7077 9.99928C17.7077 5.74208 14.2565 2.29094 9.99935 2.29094C9.76172 2.29094 9.61849 2.29094 9.44189 2.3088Z"
        stroke="#9DA4AE" />
    <path
        d="M7.30185 9.44033C7.22557 9.51208 7.1428 9.58597 7.05593 9.65507C6.78579 9.86995 6.39261 9.82516 6.17773 9.55502C5.96285 9.28488 6.00764 8.8917 6.27778 8.67682C6.39976 8.57978 6.49776 8.48145 6.61217 8.36666C6.68363 8.29496 6.76149 8.21683 6.8556 8.12859C6.95433 8.03601 7.08777 7.91817 7.23772 7.83425C7.37822 7.75561 7.67279 7.62994 8.00305 7.77148C8.20868 7.8596 8.35987 8.01143 8.4507 8.19778C8.53047 8.36143 8.55154 8.52695 8.55925 8.64369C8.56718 8.76384 8.56362 8.89221 8.56013 9.00119L8.55833 9.05594C8.55506 9.15432 8.55185 9.25064 8.55185 9.35594V13.3359C8.55185 13.6811 8.27203 13.9609 7.92685 13.9609C7.58168 13.9609 7.30185 13.6811 7.30185 13.3359V9.44033Z"
        stroke="#9DA4AE" />
    <path
        d="M11.1332 7.70776C10.6367 7.70776 10.2092 8.0582 10.1118 8.54496L10.1088 8.56069L9.80446 10.3124C9.76543 10.5371 9.8518 10.7651 10.0298 10.9075C10.2078 11.0499 10.4493 11.0841 10.6598 10.9967C10.9202 10.8886 11.0788 10.8308 11.2322 10.7956C11.3795 10.7617 11.5454 10.7435 11.814 10.7435C12.1245 10.7435 12.3577 10.8389 12.4987 10.9735C12.6262 11.0953 12.7424 11.3092 12.7121 11.7013C12.7107 11.7197 12.7101 11.7382 12.7103 11.7566C12.7155 12.2099 12.5479 12.4173 12.3933 12.5306C12.2047 12.6688 11.9651 12.7126 11.8354 12.7081C11.7552 12.7054 11.6739 12.7069 11.6064 12.7084L11.5771 12.709C11.5172 12.7103 11.4654 12.7115 11.4128 12.7112C11.2888 12.7105 11.2124 12.7011 11.1621 12.686C11.1238 12.6746 11.116 12.6649 11.1108 12.6584C11.1013 12.6465 11.0591 12.5871 11.0364 12.4168C10.9908 12.0747 10.6764 11.8343 10.3343 11.8799C9.99215 11.9255 9.75176 12.2399 9.79738 12.582C9.84134 12.9117 9.94661 13.2048 10.1356 13.4403C10.3289 13.6812 10.5713 13.8141 10.8042 13.8837C11.0257 13.9499 11.2432 13.9603 11.406 13.9612C11.4773 13.9615 11.5481 13.96 11.607 13.9586L11.6333 13.9581C11.702 13.9566 11.7513 13.956 11.7926 13.9574C12.1492 13.9696 12.6777 13.8718 13.1319 13.5391C13.6147 13.1854 13.9623 12.6019 13.9604 11.7699C14.0075 11.074 13.7946 10.4826 13.3619 10.0694C12.9369 9.6636 12.3669 9.49352 11.814 9.49352C11.5904 9.49352 11.3955 9.50387 11.2091 9.53L11.3086 8.95776H13.3336C13.6787 8.95776 13.9586 8.67794 13.9586 8.33276C13.9586 7.98759 13.6787 7.70776 13.3336 7.70776H11.1332Z"
        stroke="#9DA4AE" />
</svg>
    