<svg width="40" height="40" viewBox="0 0 40 40" fill="none" xmlns="http://www.w3.org/2000/svg">
<path d="M0 20C0 8.95431 8.95431 0 20 0C31.0457 0 40 8.95431 40 20C40 31.0457 31.0457 40 20 40C8.95431 40 0 31.0457 0 20Z" fill="#ECFDF3"/>
<path d="M18.5417 20.0002C18.5417 19.655 18.8215 19.3752 19.1667 19.3752H20.8333C21.1785 19.3752 21.4583 19.655 21.4583 20.0002C21.4583 20.3454 21.1785 20.6252 20.8333 20.6252H19.1667C18.8215 20.6252 18.5417 20.3454 18.5417 20.0002Z" fill="#067647"/>
<path d="M18.5417 22.5002C18.5417 22.155 18.8215 21.8752 19.1667 21.8752H20.8333C21.1785 21.8752 21.4583 22.155 21.4583 22.5002C21.4583 22.8454 21.1785 23.1252 20.8333 23.1252H19.1667C18.8215 23.1252 18.5417 22.8454 18.5417 22.5002Z" fill="#067647"/>
<path d="M18.5417 25.0002C18.5417 24.655 18.8215 24.3752 19.1667 24.3752H20.8333C21.1785 24.3752 21.4583 24.655 21.4583 25.0002C21.4583 25.3454 21.1785 25.6252 20.8333 25.6252H19.1667C18.8215 25.6252 18.5417 25.3454 18.5417 25.0002Z" fill="#067647"/>
<path fill-rule="evenodd" clip-rule="evenodd" d="M11.6667 27.7086C11.3215 27.7086 11.0417 27.9884 11.0417 28.3336C11.0417 28.6787 11.3215 28.9586 11.6667 28.9586L28.3333 28.9586C28.6785 28.9586 28.9583 28.6787 28.9583 28.3336C28.9583 27.9884 28.6785 27.7086 28.3333 27.7086H28.125L28.125 16.7912C28.125 16.3053 28.125 15.8946 28.0907 15.5557C28.0543 15.1959 27.9754 14.8646 27.7858 14.5513C27.5957 14.2373 27.3391 14.0152 27.0376 13.8193C26.7548 13.6355 26.3939 13.4513 25.9692 13.2344L22.3236 11.373C22.0692 11.2431 21.8176 11.1329 21.5823 11.079C21.3491 11.0257 21.0282 11.0047 20.7341 11.195C20.4454 11.3819 20.33 11.678 20.2772 11.9043C20.2229 12.1365 20.2083 12.408 20.2083 12.6908V16.0419L18.3333 16.0419C17.8027 16.0419 17.3342 16.0688 16.936 16.1562C16.5308 16.2452 16.1598 16.4053 15.8658 16.6993C15.5718 16.9933 15.4117 17.3644 15.3227 17.7696C15.2352 18.1677 15.2083 18.6363 15.2083 19.1669V19.3752H13.3333C13.1474 19.3752 12.9554 19.3841 12.7782 19.423C12.5938 19.4635 12.388 19.5446 12.2162 19.7164C12.0443 19.8883 11.9633 20.0941 11.9228 20.2784C11.8839 20.4556 11.875 20.6477 11.875 20.8336L11.875 27.7086H11.6667ZM13.125 27.7086L13.125 20.8336C13.125 20.7455 13.1278 20.6802 13.1319 20.6322C13.18 20.628 13.2452 20.6252 13.3333 20.6252H15.2083V27.7086H13.125ZM16.4583 27.7086L16.4583 19.1669C16.4583 18.6633 16.4854 18.3023 16.5435 18.0378C16.6001 17.7803 16.6772 17.6557 16.7497 17.5832C16.8221 17.5108 16.9468 17.4337 17.2042 17.3771C17.4688 17.319 17.8298 17.2919 18.3333 17.2919L21.6667 17.2919C22.1702 17.2919 22.5312 17.319 22.7958 17.3771C23.0532 17.4337 23.1779 17.5108 23.2504 17.5832C23.3228 17.6557 23.3999 17.7803 23.4565 18.0378C23.5146 18.3023 23.5417 18.6633 23.5417 19.1669L23.5417 27.7086L16.4583 27.7086ZM24.7917 27.7086L24.7917 19.1669C24.7917 18.6363 24.7648 18.1677 24.6773 17.7696C24.5883 17.3644 24.4282 16.9933 24.1342 16.6993C23.8402 16.4053 23.4692 16.2452 23.064 16.1562C22.6658 16.0688 22.1973 16.0419 21.6667 16.0419H21.4583V12.6908C21.4583 12.5498 21.4629 12.4393 21.4705 12.3536C21.5451 12.3839 21.6388 12.4269 21.7551 12.4863L25.3732 14.3336C25.8329 14.5684 26.135 14.7235 26.3566 14.8675C26.5655 15.0032 26.6575 15.1013 26.7164 15.1985C26.7757 15.2966 26.8213 15.4268 26.8471 15.6816C26.8743 15.9502 26.875 16.2972 26.875 16.8216L26.875 27.7086H24.7917Z" fill="#067647"/>
</svg>
