<svg width="40" height="40" viewBox="0 0 40 40" fill="none" xmlns="http://www.w3.org/2000/svg">
<path d="M0 20C0 8.95431 8.95431 0 20 0C31.0457 0 40 8.95431 40 20C40 31.0457 31.0457 40 20 40C8.95431 40 0 31.0457 0 20Z" fill="#ECFDF3"/>
<path d="M19.1667 16.042C18.8215 16.042 18.5417 16.3218 18.5417 16.667C18.5417 17.0122 18.8215 17.292 19.1667 17.292L20.8334 17.292C21.1785 17.292 21.4584 17.0122 21.4584 16.667C21.4584 16.3218 21.1785 16.042 20.8334 16.042L19.1667 16.042Z" fill="#067647"/>
<path d="M19.1667 18.9587C18.8215 18.9587 18.5417 19.2385 18.5417 19.5837C18.5417 19.9288 18.8215 20.2087 19.1667 20.2087H20.8334C21.1785 20.2087 21.4584 19.9288 21.4584 19.5837C21.4584 19.2385 21.1785 18.9587 20.8334 18.9587L19.1667 18.9587Z" fill="#067647"/>
<path d="M19.1667 21.8753C18.8215 21.8753 18.5417 22.1551 18.5417 22.5003C18.5417 22.8455 18.8215 23.1253 19.1667 23.1253H20.8334C21.1785 23.1253 21.4584 22.8455 21.4584 22.5003C21.4584 22.1551 21.1785 21.8753 20.8334 21.8753H19.1667Z" fill="#067647"/>
<path fill-rule="evenodd" clip-rule="evenodd" d="M11.0417 28.3337C11.0417 27.9885 11.3215 27.7087 11.6667 27.7087H11.875V22.5003C11.875 22.1421 11.8929 21.8118 11.9561 21.5241C12.0208 21.2293 12.1414 20.9409 12.3743 20.708C12.6073 20.475 12.8957 20.3545 13.1904 20.2897C13.4781 20.2265 13.8084 20.2087 14.1667 20.2087H16.0417L16.0417 15.0003C16.0417 14.6421 16.0596 14.3118 16.1228 14.0241C16.1875 13.7293 16.3081 13.4409 16.541 13.208C16.7739 12.975 17.0624 12.8545 17.3571 12.7897C17.6448 12.7265 17.9751 12.7087 18.3334 12.7087H19.375V11.667C19.375 11.3218 19.6548 11.042 20 11.042C20.3452 11.042 20.625 11.3218 20.625 11.667V12.7087L21.6667 12.7087C22.0249 12.7087 22.3552 12.7265 22.6429 12.7897C22.9377 12.8545 23.2261 12.975 23.459 13.208C23.692 13.4409 23.8125 13.7293 23.8773 14.0241C23.9405 14.3118 23.9584 14.6421 23.9584 15.0003V20.2087H25.8334C26.1916 20.2087 26.5219 20.2265 26.8096 20.2897C27.1044 20.3545 27.3928 20.475 27.6257 20.708C27.8586 20.9409 27.9792 21.2293 28.044 21.5241C28.1072 21.8118 28.125 22.1421 28.125 22.5003V27.7087H28.3334C28.6785 27.7087 28.9584 27.9885 28.9584 28.3337C28.9584 28.6788 28.6785 28.9587 28.3334 28.9587L11.6667 28.9587C11.3215 28.9587 11.0417 28.6788 11.0417 28.3337ZM19.375 26.667V27.7087L17.2917 27.7087L17.2917 15.0003C17.2917 14.6691 17.3098 14.4464 17.3436 14.2923C17.3759 14.1453 17.4135 14.1032 17.4249 14.0919C17.4363 14.0805 17.4783 14.0429 17.6253 14.0106C17.7794 13.9768 18.0022 13.9587 18.3334 13.9587L21.6667 13.9587C21.9979 13.9587 22.2206 13.9768 22.3747 14.0106C22.5217 14.0429 22.5638 14.0805 22.5752 14.0919C22.5865 14.1032 22.6241 14.1453 22.6564 14.2923C22.6903 14.4464 22.7084 14.6691 22.7084 15.0003L22.7084 27.7087H20.625V26.667C20.625 26.3218 20.3452 26.042 20 26.042C19.6548 26.042 19.375 26.3218 19.375 26.667ZM25.8334 21.4587H23.9584L23.9584 27.7087H26.875V22.5003C26.875 22.1691 26.8569 21.9464 26.8231 21.7923C26.7908 21.6453 26.7532 21.6032 26.7418 21.5919C26.7305 21.5805 26.6884 21.5429 26.5414 21.5106C26.3873 21.4768 26.1646 21.4587 25.8334 21.4587ZM16.0417 21.4587V27.7087H13.125V22.5003C13.125 22.1691 13.1431 21.9464 13.177 21.7923C13.2093 21.6453 13.2468 21.6032 13.2582 21.5919C13.2696 21.5805 13.3116 21.5429 13.4587 21.5106C13.6127 21.4768 13.8355 21.4587 14.1667 21.4587H16.0417Z" fill="#067647"/>
</svg>
