<svg width="40" height="40" viewBox="0 0 40 40" fill="none" xmlns="http://www.w3.org/2000/svg">
<path d="M0 20C0 8.95431 8.95431 0 20 0C31.0457 0 40 8.95431 40 20C40 31.0457 31.0457 40 20 40C8.95431 40 0 31.0457 0 20Z" fill="#ECFDF3"/>
<path d="M21.8751 20.8327C21.8751 20.4875 22.1549 20.2077 22.5001 20.2077H24.1667C24.5119 20.2077 24.7917 20.4875 24.7917 20.8327C24.7917 21.1779 24.5119 21.4577 24.1667 21.4577H22.5001C22.1549 21.4577 21.8751 21.1779 21.8751 20.8327Z" fill="#067647"/>
<path d="M21.8751 23.3327C21.8751 22.9875 22.1549 22.7077 22.5001 22.7077H24.1667C24.5119 22.7077 24.7917 22.9875 24.7917 23.3327C24.7917 23.6779 24.5119 23.9577 24.1667 23.9577H22.5001C22.1549 23.9577 21.8751 23.6779 21.8751 23.3327Z" fill="#067647"/>
<path fill-rule="evenodd" clip-rule="evenodd" d="M11.6667 27.7077C11.3216 27.7077 11.0417 27.9875 11.0417 28.3327C11.0417 28.6779 11.3216 28.9577 11.6667 28.9577L28.3334 28.9577C28.6786 28.9577 28.9584 28.6779 28.9584 28.3327C28.9584 27.9875 28.6786 27.7077 28.3334 27.7077H28.1251V19.9993C28.1251 19.4687 28.0982 19.0002 28.0108 18.602C27.9217 18.1968 27.7617 17.8258 27.4676 17.5318C27.1736 17.2378 26.8026 17.0777 26.3974 16.9887C25.9993 16.9012 25.5307 16.8743 25.0001 16.8743H23.1251V14.166C23.1251 13.6354 23.0982 13.1668 23.0108 12.7687C22.9217 12.3635 22.7617 11.9925 22.4676 11.6984C22.1736 11.4044 21.8026 11.2444 21.3974 11.1553C20.9993 11.0679 20.5307 11.041 20.0001 11.041H15.0001C14.4695 11.041 14.0009 11.0679 13.6028 11.1553C13.1976 11.2444 12.8265 11.4044 12.5325 11.6984C12.2385 11.9925 12.0784 12.3635 11.9894 12.7687C11.9019 13.1668 11.8751 13.6354 11.8751 14.166L11.8751 27.7077H11.6667ZM22.7084 27.7077V25.8327C22.7084 25.4875 22.9882 25.2077 23.3334 25.2077C23.6786 25.2077 23.9584 25.4875 23.9584 25.8327V27.7077H26.8751L26.8751 19.9993C26.8751 19.4958 26.848 19.1348 26.7899 18.8702C26.7333 18.6128 26.6562 18.4881 26.5838 18.4157C26.5113 18.3432 26.3866 18.2661 26.1292 18.2096C25.8647 18.1514 25.5036 18.1243 25.0001 18.1243H21.6667C21.1632 18.1243 20.8022 18.1514 20.5376 18.2096C20.2802 18.2661 20.1555 18.3432 20.0831 18.4157C20.0106 18.4881 19.9335 18.6128 19.877 18.8702C19.8188 19.1348 19.7917 19.4958 19.7917 19.9993L19.7917 27.7077H22.7084ZM13.1251 21.041H15.0001C15.3453 21.041 15.6251 21.3208 15.6251 21.666C15.6251 22.0112 15.3453 22.291 15.0001 22.291H13.1251V27.7077L18.5417 27.7077L18.5417 19.9993C18.5417 19.4687 18.5686 19.0002 18.6561 18.602C18.7451 18.1968 18.9052 17.8258 19.1992 17.5318C19.4932 17.2378 19.8642 17.0777 20.2694 16.9887C20.6676 16.9012 21.1361 16.8743 21.6667 16.8743H21.8751V14.166C21.8751 13.6625 21.848 13.3014 21.7899 13.0369C21.7333 12.7795 21.6562 12.6548 21.5838 12.5823C21.5113 12.5099 21.3866 12.4328 21.1292 12.3762C20.8647 12.3181 20.5036 12.291 20.0001 12.291L15.0001 12.291C14.4965 12.291 14.1355 12.3181 13.871 12.3762C13.6135 12.4328 13.4889 12.5099 13.4164 12.5823C13.3439 12.6548 13.2668 12.7795 13.2103 13.0369C13.1522 13.3014 13.1251 13.6625 13.1251 14.166V14.3743H15.0001C15.3453 14.3743 15.6251 14.6542 15.6251 14.9993C15.6251 15.3445 15.3453 15.6243 15.0001 15.6243H13.1251V17.7077H15.0001C15.3453 17.7077 15.6251 17.9875 15.6251 18.3327C15.6251 18.6779 15.3453 18.9577 15.0001 18.9577H13.1251L13.1251 21.041Z" fill="#067647"/>
</svg>
