<svg width="18" height="18" viewBox="0 0 20 20" fill="none" xmlns="http://www.w3.org/2000/svg">
    <path
        d="M9.00033 5.45866C8.42503 5.45866 7.95866 5.92503 7.95866 6.50033C7.95866 6.8455 7.67884 7.12533 7.33366 7.12533C6.98848 7.12533 6.70866 6.8455 6.70866 6.50033C6.70866 5.23467 7.73467 4.20866 9.00033 4.20866C10.266 4.20866 11.292 5.23467 11.292 6.50033C11.292 6.95561 11.1586 7.38164 10.9285 7.73919C10.7844 7.96314 10.6159 8.17694 10.4606 8.37002L10.3768 8.47387C10.2479 8.63338 10.1295 8.77989 10.0202 8.93014C9.75057 9.30074 9.62533 9.57924 9.62533 9.83366V10.2503C9.62533 10.5955 9.3455 10.8753 9.00033 10.8753C8.65515 10.8753 8.37533 10.5955 8.37533 10.2503V9.83366C8.37533 9.1676 8.70234 8.6168 9.00946 8.1947C9.13922 8.01636 9.28142 7.84046 9.41072 7.68052L9.48669 7.5864C9.64102 7.3946 9.77239 7.22587 9.87733 7.06278C9.9815 6.9009 10.042 6.70863 10.042 6.50033C10.042 5.92503 9.57562 5.45866 9.00033 5.45866Z"
        fill="#175CD3" />
    <path
        d="M8.99382 12.3337C8.53358 12.3337 8.16048 12.7068 8.16048 13.167C8.16048 13.6272 8.53358 14.0003 8.99382 14.0003H9.0013C9.46154 14.0003 9.83463 13.6272 9.83463 13.167C9.83463 12.7068 9.46154 12.3337 9.0013 12.3337H8.99382Z"
        fill="#175CD3" />
    <path fill-rule="evenodd" clip-rule="evenodd"
        d="M0.0419922 9.00033C0.0419922 4.05277 4.05277 0.0419922 9.00033 0.0419922C13.9479 0.0419922 17.9587 4.05277 17.9587 9.00033C17.9587 13.9479 13.9479 17.9587 9.00033 17.9587C4.05277 17.9587 0.0419922 13.9479 0.0419922 9.00033ZM9.00033 1.29199C4.74313 1.29199 1.29199 4.74313 1.29199 9.00033C1.29199 13.2575 4.74313 16.7087 9.00033 16.7087C13.2575 16.7087 16.7087 13.2575 16.7087 9.00033C16.7087 4.74313 13.2575 1.29199 9.00033 1.29199Z"
        fill="#175CD3" />
</svg>
    