<svg width="22" height="22" viewBox="0 0 22 22" fill="none" xmlns="http://www.w3.org/2000/svg">
<path d="M8.75 13C8.75 12.5858 8.41421 12.25 8 12.25C7.58579 12.25 7.25 12.5858 7.25 13C7.25 14.5188 8.48122 15.75 10 15.75H12C13.5188 15.75 14.75 14.5188 14.75 13C14.75 12.5858 14.4142 12.25 14 12.25C13.5858 12.25 13.25 12.5858 13.25 13C13.25 13.6904 12.6904 14.25 12 14.25H10C9.30964 14.25 8.75 13.6904 8.75 13Z" fill="#161616"/>
<path fill-rule="evenodd" clip-rule="evenodd" d="M8.948 0.250001H13.052C13.9505 0.249973 14.6997 0.249949 15.2945 0.329915C15.9223 0.414319 16.4891 0.59999 16.9445 1.05546C17.4 1.51093 17.5857 2.07773 17.6701 2.70552C17.7365 3.19926 17.7477 3.79943 17.7496 4.50305C17.826 4.53285 17.9012 4.5664 17.9755 4.60423C18.587 4.91582 19.0842 5.41301 19.3958 6.02453C19.5949 6.41527 19.6756 6.83367 19.7134 7.29693C19.7487 7.72796 19.75 8.25466 19.75 8.89446L19.7611 8.90142C20.3018 9.24112 20.7589 9.69825 21.0986 10.2389C21.4544 10.8052 21.6069 11.442 21.6794 12.1896C21.75 12.9174 21.75 13.8246 21.75 14.9609V15.0391C21.75 16.1754 21.75 17.0826 21.6794 17.8104C21.6069 18.558 21.4544 19.1948 21.0986 19.7611C20.7589 20.3018 20.3018 20.7589 19.7611 21.0986C19.1948 21.4544 18.558 21.6069 17.8104 21.6794C17.0826 21.75 16.1754 21.75 15.0391 21.75H6.96092C5.82461 21.75 4.91736 21.75 4.18963 21.6794C3.44204 21.6069 2.80523 21.4544 2.23886 21.0986C1.69825 20.7589 1.24111 20.3018 0.901423 19.7611C0.545555 19.1948 0.393065 18.558 0.320561 17.8104C0.249984 17.0826 0.249991 16.1754 0.25 15.0391V14.9609C0.249991 13.8246 0.249984 12.9174 0.320561 12.1896C0.393065 11.442 0.545555 10.8052 0.901423 10.2389C1.24111 9.69825 1.69825 9.24112 2.23886 8.90142L2.25 8.89446C2.25004 8.25466 2.25134 7.72796 2.28655 7.29693C2.3244 6.83367 2.40514 6.41527 2.60423 6.02453C2.91582 5.41301 3.413 4.91582 4.02453 4.60423C4.09878 4.5664 4.17402 4.53284 4.25038 4.50304C4.25227 3.79942 4.26353 3.19926 4.32991 2.70552C4.41432 2.07773 4.59999 1.51093 5.05546 1.05546C5.51093 0.59999 6.07773 0.414319 6.70552 0.329915C7.3003 0.249949 8.04954 0.249973 8.948 0.250001ZM16.1835 2.9054C16.2302 3.25326 16.2442 3.68646 16.2483 4.26172C15.896 4.24999 15.4925 4.25 15.0314 4.25H6.96858C6.50755 4.25 6.10402 4.24999 5.75173 4.26172C5.75585 3.68646 5.76977 3.25326 5.81654 2.9054C5.87858 2.44393 5.9858 2.24644 6.11612 2.11612C6.24644 1.9858 6.44393 1.87858 6.90539 1.81654C7.38843 1.7516 8.03599 1.75 9 1.75H13C13.964 1.75 14.6116 1.7516 15.0946 1.81654C15.5561 1.87858 15.7536 1.9858 15.8839 2.11612C16.0142 2.24644 16.1214 2.44393 16.1835 2.9054ZM18.2488 8.3751C18.2464 7.98268 18.2394 7.67571 18.2184 7.41908C18.1882 7.04858 18.1327 6.84956 18.0593 6.70552C17.8915 6.37623 17.6238 6.10852 17.2945 5.94074C17.1504 5.86735 16.9514 5.81184 16.5809 5.78157C16.2017 5.75058 15.7124 5.75 15 5.75H7C6.28756 5.75 5.79833 5.75058 5.41908 5.78157C5.04858 5.81184 4.84956 5.86735 4.70552 5.94074C4.37623 6.10852 4.10852 6.37623 3.94074 6.70552C3.86735 6.84956 3.81184 7.04858 3.78157 7.41908C3.7606 7.67571 3.75356 7.98268 3.75119 8.3751C3.89307 8.353 4.0391 8.33516 4.18963 8.32056C4.91736 8.24998 5.82462 8.24999 6.96094 8.25H15.0391C16.1754 8.24999 17.0826 8.24998 17.8104 8.32056C17.9609 8.33516 18.1069 8.353 18.2488 8.3751ZM3.03691 10.1715C3.32433 9.99091 3.69913 9.87517 4.33443 9.81356C4.98127 9.75082 5.81572 9.75 7 9.75H15C16.1843 9.75 17.0187 9.75082 17.6656 9.81356C18.3009 9.87517 18.6757 9.99091 18.9631 10.1715C19.3129 10.3913 19.6087 10.6871 19.8285 11.0369C20.0091 11.3243 20.1248 11.6991 20.1864 12.3344C20.2492 12.9813 20.25 13.8157 20.25 15C20.25 16.1843 20.2492 17.0187 20.1864 17.6656C20.1248 18.3009 20.0091 18.6757 19.8285 18.9631C19.6087 19.3129 19.3129 19.6087 18.9631 19.8285C18.6757 20.0091 18.3009 20.1248 17.6656 20.1864C17.0187 20.2492 16.1843 20.25 15 20.25H7C5.81572 20.25 4.98127 20.2492 4.33443 20.1864C3.69913 20.1248 3.32433 20.0091 3.03691 19.8285C2.6871 19.6087 2.39131 19.3129 2.17151 18.9631C1.99091 18.6757 1.87517 18.3009 1.81356 17.6656C1.75082 17.0187 1.75 16.1843 1.75 15C1.75 13.8157 1.75082 12.9813 1.81356 12.3344C1.87517 11.6991 1.99091 11.3243 2.17151 11.0369C2.39131 10.6871 2.6871 10.3913 3.03691 10.1715Z" fill="#161616"/>
</svg>
