<svg width="22" height="22" viewBox="0 0 22 22" fill="none" xmlns="http://www.w3.org/2000/svg">
<path d="M9.25 10.9999C9.25 10.5857 9.58579 10.2499 10 10.2499H12C12.4142 10.2499 12.75 10.5857 12.75 10.9999C12.75 11.4141 12.4142 11.7499 12 11.7499H10C9.58579 11.7499 9.25 11.4141 9.25 10.9999Z" fill="#161616"/>
<path d="M9.25 13.9999C9.25 13.5857 9.58579 13.2499 10 13.2499H12C12.4142 13.2499 12.75 13.5857 12.75 13.9999C12.75 14.4141 12.4142 14.7499 12 14.7499H10C9.58579 14.7499 9.25 14.4141 9.25 13.9999Z" fill="#161616"/>
<path d="M9.25 16.9999C9.25 16.5857 9.58579 16.2499 10 16.2499H12C12.4142 16.2499 12.75 16.5857 12.75 16.9999C12.75 17.4141 12.4142 17.7499 12 17.7499H10C9.58579 17.7499 9.25 17.4141 9.25 16.9999Z" fill="#161616"/>
<path fill-rule="evenodd" clip-rule="evenodd" d="M1 20.2499C0.585786 20.2499 0.25 20.5857 0.25 20.9999C0.25 21.4141 0.585786 21.7499 1 21.7499H21C21.4142 21.7499 21.75 21.4141 21.75 20.9999C21.75 20.5857 21.4142 20.2499 21 20.2499H20.75V7.1491C20.75 6.56595 20.75 6.07319 20.7088 5.66641C20.6651 5.23465 20.5704 4.83709 20.3429 4.46118C20.1149 4.08432 19.807 3.81788 19.4451 3.58277C19.1058 3.36227 18.6727 3.14118 18.163 2.88093L13.7883 0.647242C13.483 0.491375 13.1811 0.359034 12.8988 0.29444C12.6189 0.230419 12.2338 0.205271 11.8809 0.433657C11.5344 0.657904 11.396 1.01322 11.3326 1.28475C11.2675 1.5634 11.25 1.88924 11.25 2.22858V6.24988H9C8.36327 6.24988 7.80098 6.28211 7.32323 6.38706C6.83699 6.49388 6.39172 6.68599 6.03892 7.0388C5.68612 7.3916 5.49401 7.83687 5.38719 8.32311C5.28223 8.80086 5.25 9.36315 5.25 9.99988V10.2499H3C2.77694 10.2499 2.54648 10.2605 2.3338 10.3073C2.11261 10.3558 1.86564 10.4531 1.65942 10.6593C1.4532 10.8655 1.35596 11.1125 1.30737 11.3337C1.26065 11.5464 1.25 11.7768 1.25 11.9999V20.2499H1ZM2.75 20.2499V11.9999C2.75 11.8942 2.75336 11.8159 2.75832 11.7582C2.81601 11.7532 2.89428 11.7499 3 11.7499H5.25V20.2499H2.75ZM6.75 20.2499V9.99988C6.75 9.39561 6.78252 8.96239 6.85225 8.64496C6.92012 8.33601 7.01263 8.1864 7.09958 8.09946C7.18653 8.01251 7.33614 7.92 7.64508 7.85213C7.96252 7.78239 8.39573 7.74988 9 7.74988H13C13.6043 7.74988 14.0375 7.78239 14.3549 7.85213C14.6639 7.92 14.8135 8.01251 14.9004 8.09946C14.9874 8.1864 15.0799 8.33601 15.1477 8.64496C15.2175 8.96239 15.25 9.39561 15.25 9.99988V20.2499H6.75ZM16.75 20.2499V9.99988C16.75 9.36315 16.7178 8.80086 16.6128 8.32311C16.506 7.83687 16.3139 7.3916 15.9611 7.0388C15.6083 6.68599 15.163 6.49388 14.6768 6.38706C14.199 6.28211 13.6367 6.24988 13 6.24988H12.75V2.22858C12.75 2.05931 12.7555 1.92677 12.7646 1.82395C12.8541 1.86033 12.9665 1.91187 13.1062 1.98318L17.4478 4.19997C17.9995 4.48168 18.362 4.66779 18.6279 4.84057C18.8786 5.0035 18.989 5.12115 19.0597 5.23784C19.1309 5.35547 19.1855 5.51175 19.2165 5.81751C19.2491 6.13984 19.25 6.55626 19.25 7.18548V20.2499H16.75Z" fill="#161616"/>
</svg>
