<svg width="20" height="22" viewBox="0 0 20 22" fill="none" xmlns="http://www.w3.org/2000/svg">
<path d="M6.5 4C6.5 2.067 8.067 0.5 10 0.5C11.933 0.5 13.5 2.067 13.5 4C13.5 5.933 11.933 7.5 10 7.5C8.067 7.5 6.5 5.933 6.5 4Z" fill="#161616"/>
<path d="M12 19.5C12 20.6046 11.1046 21.5 10 21.5C8.89543 21.5 8 20.6046 8 19.5C8 18.3954 8.89543 17.5 10 17.5C11.1046 17.5 12 18.3954 12 19.5Z" fill="#161616"/>
<path d="M18 21.5C19.1046 21.5 20 20.6046 20 19.5C20 18.3954 19.1046 17.5 18 17.5C16.8954 17.5 16 18.3954 16 19.5C16 20.6046 16.8954 21.5 18 21.5Z" fill="#161616"/>
<path d="M4 19.5C4 20.6046 3.10457 21.5 2 21.5C0.895431 21.5 0 20.6046 0 19.5C0 18.3954 0.895431 17.5 2 17.5C3.10457 17.5 4 18.3954 4 19.5Z" fill="#161616"/>
<path d="M11 10.5C11 9.94771 10.5523 9.5 10 9.5C9.44772 9.5 9 9.94771 9 10.5V11.5H4.5C2.78677 11.5 1 12.6464 1 14.5C1 15.0523 1.44772 15.5 2 15.5C2.55228 15.5 3 15.0523 3 14.5C3 14.1444 3.45181 13.5 4.5 13.5H9V14.5C9 15.0523 9.44772 15.5 10 15.5C10.5523 15.5 11 15.0523 11 14.5V13.5H15.5C16.5482 13.5 17 14.1444 17 14.5C17 15.0523 17.4477 15.5 18 15.5C18.5523 15.5 19 15.0523 19 14.5C19 12.6464 17.2132 11.5 15.5 11.5H11V10.5Z" fill="#161616"/>
</svg>
