<svg width="22" height="20" viewBox="0 0 22 20" fill="none" xmlns="http://www.w3.org/2000/svg">
<path d="M5 14C4.44772 14 4 14.4477 4 15C4 15.5523 4.44772 16 5 16H5.00898C5.56127 16 6.00898 15.5523 6.00898 15C6.00898 14.4477 5.56127 14 5.00898 14H5Z" fill="#161616"/>
<path d="M15.8155 14.9542C15.6725 14.4207 15.9891 13.8724 16.5226 13.7295L16.5312 13.7271C17.0647 13.5842 17.613 13.9008 17.756 14.4342C17.8989 14.9677 17.5823 15.516 17.0489 15.659L17.0402 15.6613C16.5067 15.8043 15.9584 15.4877 15.8155 14.9542Z" fill="#161616"/>
<path fill-rule="evenodd" clip-rule="evenodd" d="M5.03142 0.25H4.96858C4.29521 0.249992 3.74449 0.249985 3.29693 0.286552C2.83367 0.324402 2.41527 0.405137 2.02453 0.60423C1.413 0.915818 0.915818 1.413 0.60423 2.02453C0.405137 2.41527 0.324402 2.83367 0.286552 3.29693C0.249985 3.74449 0.249992 4.2952 0.25 4.96857V15.0314C0.249992 15.7048 0.249985 16.2555 0.286552 16.7031C0.324402 17.1663 0.405137 17.5847 0.60423 17.9755C0.915818 18.587 1.413 19.0842 2.02453 19.3958C2.41527 19.5949 2.83367 19.6756 3.29693 19.7134C3.74449 19.75 4.29519 19.75 4.96856 19.75H5.03144C5.70481 19.75 6.25551 19.75 6.70307 19.7134C7.16633 19.6756 7.58473 19.5949 7.97547 19.3958C8.587 19.0842 9.08418 18.587 9.39577 17.9755C9.59486 17.5847 9.6756 17.1663 9.71345 16.7031C9.75002 16.2555 9.75001 15.7048 9.75 15.0315L9.75 6.55932L12.2668 15.9914C12.4374 16.6308 12.5771 17.1543 12.7253 17.5705C12.8787 18.0015 13.0617 18.38 13.3507 18.7023C13.8024 19.206 14.4017 19.5537 15.063 19.6948C15.4864 19.7852 15.9054 19.755 16.3544 19.6728C16.7877 19.5935 17.3091 19.4532 17.9453 19.282L18.0065 19.2656C18.643 19.0943 19.1646 18.954 19.5794 18.8051C20.0091 18.6508 20.3867 18.4667 20.7079 18.1763C21.2097 17.7226 21.5551 17.1215 21.6952 16.4593C21.7849 16.0357 21.755 15.6164 21.6733 15.1661C21.5944 14.7313 21.4547 14.2078 21.2841 13.5685L18.7332 4.00857C18.5626 3.3692 18.4229 2.84571 18.2747 2.42946C18.1213 1.99851 17.9383 1.61998 17.6493 1.29771C17.1976 0.793972 16.5983 0.446314 15.937 0.30516C15.5135 0.214781 15.0946 0.244987 14.6456 0.327154C14.2122 0.406473 13.6906 0.546819 13.0542 0.718077L12.9935 0.734416C12.357 0.905663 11.8354 1.04599 11.4206 1.1949C10.9908 1.34917 10.6133 1.53327 10.2921 1.82372C10.0214 2.06848 9.79617 2.35616 9.62416 2.67319C9.57389 2.44745 9.50153 2.23209 9.39577 2.02453C9.08418 1.413 8.587 0.915818 7.97547 0.60423C7.58473 0.405137 7.16633 0.324402 6.70307 0.286552C6.25551 0.249985 5.70479 0.249992 5.03142 0.25ZM1.75 15V5.75H8.25V15C8.25 15.7124 8.24942 16.2017 8.21843 16.5809C8.18816 16.9514 8.13265 17.1504 8.05926 17.2945C7.89148 17.6238 7.62377 17.8915 7.29448 18.0593C7.15045 18.1327 6.95142 18.1882 6.58092 18.2184C6.20167 18.2494 5.71244 18.25 5 18.25C4.28756 18.25 3.79833 18.2494 3.41908 18.2184C3.04858 18.1882 2.84956 18.1327 2.70552 18.0593C2.37623 17.8915 2.10852 17.6238 1.94074 17.2945C1.86735 17.1504 1.81184 16.9514 1.78157 16.5809C1.75058 16.2017 1.75 15.7124 1.75 15ZM1.75214 4.25H8.24786C8.24475 3.91648 8.23712 3.64778 8.21843 3.41908C8.18816 3.04858 8.13265 2.84956 8.05926 2.70552C7.89148 2.37623 7.62377 2.10852 7.29448 1.94074C7.15045 1.86735 6.95142 1.81184 6.58092 1.78157C6.20167 1.75058 5.71244 1.75 5 1.75C4.28756 1.75 3.79833 1.75058 3.41908 1.78157C3.04858 1.81184 2.84956 1.86735 2.70552 1.94074C2.37623 2.10852 2.10852 2.37623 1.94074 2.70552C1.86735 2.84956 1.81184 3.04858 1.78157 3.41908C1.76288 3.64778 1.75525 3.91648 1.75214 4.25ZM13.4136 2.17473C14.0878 1.99331 14.5499 1.86958 14.9157 1.80265C15.2727 1.7373 15.4723 1.73977 15.6239 1.77212C15.9741 1.84686 16.2922 2.03112 16.5325 2.29909C16.6369 2.41547 16.7392 2.58878 16.8616 2.93252C16.9074 3.06126 16.9531 3.20503 17.0015 3.36874L10.9517 5.23036C10.8868 4.97233 10.8371 4.75622 10.8026 4.56601C10.7374 4.20693 10.7397 4.00509 10.7722 3.85129C10.8471 3.49772 11.0314 3.17752 11.2981 2.93635C11.4137 2.83183 11.5857 2.72935 11.9274 2.60669C12.2775 2.48102 12.7393 2.35615 13.4136 2.17473ZM11.3352 6.68177L13.708 15.5745C13.8887 16.2514 14.0131 16.7156 14.1384 17.0675C14.2608 17.4112 14.3631 17.5845 14.4675 17.7009C14.7078 17.9689 15.0259 18.1531 15.3761 18.2279C15.5276 18.2602 15.7273 18.2627 16.0843 18.1973C16.45 18.1304 16.9122 18.0067 17.5864 17.8252C18.2607 17.6438 18.7225 17.519 19.0726 17.3933C19.4143 17.2706 19.5863 17.1681 19.7019 17.0636C19.9686 16.8225 20.1529 16.5023 20.2278 16.1487C20.2603 15.9949 20.2626 15.793 20.1974 15.434C20.1307 15.0663 20.0073 14.6019 19.8267 13.9249L17.3963 4.81667L11.3352 6.68177Z" fill="#161616"/>
</svg>
