<svg width="22" height="22" viewBox="0 0 22 22" fill="none" xmlns="http://www.w3.org/2000/svg">
<path d="M9.99213 6C9.99213 5.44772 10.4398 5 10.9921 5H11.0011C11.5534 5 12.0011 5.44772 12.0011 6C12.0011 6.55228 11.5534 7 11.0011 7H10.9921C10.4398 7 9.99213 6.55228 9.99213 6Z" fill="#161616"/>
<path fill-rule="evenodd" clip-rule="evenodd" d="M8.85583 0.762065C9.59723 0.438228 10.2673 0.25 10.9963 0.25C11.7252 0.25 12.3953 0.438228 13.1367 0.762065C13.8557 1.07612 14.6895 1.54014 15.7382 2.12379L19.8803 4.42893C20.4567 4.74971 20.9391 5.15261 21.2705 5.69585C21.6036 6.24181 21.7463 6.86731 21.7463 7.56907L21.7463 7.63515C21.7468 7.89061 21.7473 8.14972 21.6857 8.38151C21.5307 8.9648 21.1615 9.34075 20.7092 9.54224C20.3862 9.68617 20.041 9.73247 19.7463 9.74548V17.1825C20.9357 17.8113 21.7463 19.061 21.7463 20.5C21.7463 21.1904 21.1866 21.75 20.4963 21.75H1.49628C0.80592 21.75 0.246277 21.1904 0.246277 20.5C0.246277 19.061 1.05683 17.8113 2.24628 17.1825V9.74548C1.95153 9.73248 1.60635 9.68617 1.28329 9.54224C0.83104 9.34076 0.461777 8.9648 0.306818 8.38151C0.245239 8.14972 0.24571 7.89061 0.246174 7.63515L0.246254 7.56907C0.246254 6.86731 0.388907 6.24181 0.721959 5.69585C1.05336 5.15261 1.53576 4.74971 2.11217 4.42893L6.25432 2.12378C7.30304 1.54014 8.13684 1.07612 8.85583 0.762065ZM9.45625 2.13666C8.81107 2.41847 8.03985 2.84675 6.95084 3.45279L2.8416 5.73963C2.41976 5.97439 2.16185 6.2158 2.00249 6.47702C1.84479 6.73553 1.74625 7.07465 1.74625 7.56907C1.74625 7.738 1.74643 7.83986 1.74991 7.91671C1.75243 7.97226 1.75605 7.99351 1.75679 7.99734C1.77649 8.071 1.80012 8.10321 1.81247 8.11734C1.8257 8.13246 1.84803 8.15171 1.89373 8.17208C2.00348 8.22097 2.18477 8.25 2.46554 8.25H19.527C19.8077 8.25 19.989 8.22097 20.0988 8.17208C20.1445 8.15172 20.1668 8.13246 20.18 8.11734C20.1924 8.10321 20.216 8.071 20.2357 7.99734C20.2365 7.9935 20.2401 7.97224 20.2426 7.91671C20.2461 7.83985 20.2463 7.738 20.2463 7.56907C20.2463 7.07465 20.1477 6.73553 19.99 6.47702C19.8307 6.2158 19.5727 5.97439 19.1509 5.73963L15.0417 3.45279C13.9527 2.84675 13.1814 2.41847 12.5363 2.13666C11.906 1.86135 11.4475 1.75 10.9963 1.75C10.545 1.75 10.0865 1.86135 9.45625 2.13666ZM3.74628 16.7582C3.82891 16.7528 3.91227 16.75 3.99628 16.75H6.24628V9.75H3.74628V16.7582ZM7.74628 16.75H14.2463V9.75H7.74628V16.75ZM15.7463 16.75H17.9963C18.0803 16.75 18.1636 16.7528 18.2463 16.7582V9.75H15.7463V16.75ZM20.2325 20.25H1.76001C1.88437 19.125 2.83814 18.25 3.99628 18.25H17.9963C19.1544 18.25 20.1082 19.125 20.2325 20.25Z" fill="#161616"/>
</svg>
