<svg width="22" height="22" viewBox="0 0 22 22" fill="none" xmlns="http://www.w3.org/2000/svg">
<path fill-rule="evenodd" clip-rule="evenodd" d="M11 2C6.02944 2 2 6.02944 2 11C2 15.9706 6.02944 20 11 20C15.9706 20 20 15.9706 20 11C20 10.3823 19.9379 9.78005 19.82 9.19893C19.7101 8.65769 20.0598 8.12985 20.601 8.01999C21.1423 7.91012 21.6701 8.25982 21.78 8.80107C21.9244 9.51239 22 10.2479 22 11C22 17.0751 17.0751 22 11 22C4.92487 22 0 17.0751 0 11C0 4.92487 4.92487 0 11 0C11.7521 0 12.4876 0.0756313 13.1989 0.220023C13.7402 0.32989 14.0899 0.857722 13.98 1.39897C13.8701 1.94022 13.3423 2.28992 12.8011 2.18005C12.22 2.06209 11.6177 2 11 2ZM11 7C8.79086 7 7 8.79086 7 11C7 13.2091 8.79086 15 11 15C13.2091 15 15 13.2091 15 11C15 10.4477 15.4477 10 16 10C16.5523 10 17 10.4477 17 11C17 14.3137 14.3137 17 11 17C7.68629 17 5 14.3137 5 11C5 7.68629 7.68629 5 11 5C11.5523 5 12 5.44772 12 6C12 6.55228 11.5523 7 11 7ZM17.9726 0.0190487C18.4963 0.102711 18.9845 0.473607 19.1421 1.07773L19.5105 2.48962L20.9224 2.858C21.5265 3.01562 21.8974 3.50383 21.9811 4.02757C22.0617 4.53232 21.8825 5.04375 21.517 5.40919L20.3677 6.55858C19.0983 7.82798 17.5339 7.93425 15.9051 7.50926L11.7071 11.7072C11.3166 12.0978 10.6834 12.0978 10.2929 11.7072C9.90237 11.3167 9.90237 10.6835 10.2929 10.293L14.4909 6.09504C14.0659 4.46618 14.1721 2.90187 15.4415 1.63246L16.5909 0.483077C16.9564 0.11764 17.4678 -0.0615814 17.9726 0.0190487Z" fill="#161616"/>
</svg>
