<svg width="19" height="22" viewBox="0 0 19 22" fill="none" xmlns="http://www.w3.org/2000/svg">
<path fill-rule="evenodd" clip-rule="evenodd" d="M4.53349 0.250003L4.62384 0.250002C6.21059 0.24996 7.10041 0.249937 7.85873 0.370041C12.0307 1.03081 15.3027 4.30281 15.9635 8.47477C16.0836 9.23308 16.0835 10.1229 16.0835 11.7096V11.9983C16.0835 11.9989 16.0835 11.9994 16.0835 12C16.0835 12.0006 16.0835 12.0011 16.0835 12.0017V15.9981C16.0835 15.9987 16.0835 15.9994 16.0835 16C16.0835 16.0006 16.0835 16.0013 16.0835 16.0019L16.0835 20.25H17.3335C17.7477 20.25 18.0835 20.5858 18.0835 21C18.0835 21.4142 17.7477 21.75 17.3335 21.75H15.3359C15.3351 21.75 15.3343 21.75 15.3335 21.75C15.3327 21.75 15.3319 21.75 15.3311 21.75L3.33591 21.75C3.33511 21.75 3.3343 21.75 3.33349 21.75C3.33269 21.75 3.33188 21.75 3.33108 21.75H1.3335C0.919283 21.75 0.583496 21.4142 0.583496 21C0.583496 20.5858 0.919283 20.25 1.3335 20.25H2.58349L2.58349 2.2C2.58349 1.65805 2.75163 1.14599 3.13742 0.771083C3.51963 0.399658 4.02583 0.250003 4.53349 0.250003ZM4.08349 20.25L4.08349 2.2C4.08349 1.9658 4.15085 1.87786 4.1828 1.84681C4.21834 1.81227 4.31213 1.75 4.53349 1.75C6.23436 1.75 6.99748 1.75233 7.62408 1.85157C10.6508 2.33097 13.1178 4.43468 14.1122 7.25L11.3335 7.25C10.9193 7.25 10.5835 7.58579 10.5835 8C10.5835 8.41421 10.9193 8.75 11.3335 8.75L14.3335 8.75C14.3857 8.75 14.4366 8.74467 14.4858 8.73452C14.5701 9.28412 14.5817 9.94561 14.5833 11.25L11.3335 11.25C10.9193 11.25 10.5835 11.5858 10.5835 12C10.5835 12.4142 10.9193 12.75 11.3335 12.75L14.5835 12.75V15.25L11.3335 15.25C10.9193 15.25 10.5835 15.5858 10.5835 16C10.5835 16.4142 10.9193 16.75 11.3335 16.75H14.5835L14.5835 20.25L4.08349 20.25Z" fill="black"/>
</svg>
