<svg width="22" height="22" viewBox="0 0 22 22" fill="none" xmlns="http://www.w3.org/2000/svg">
<path d="M13.8823 2.28633C11.9544 2.23789 10.0456 2.23789 8.11766 2.28633C6.52099 2.32644 5.40529 2.35637 4.54405 2.50636C3.71652 2.65048 3.20055 2.89409 2.77629 3.31997C2.34906 3.74882 2.10923 4.25823 1.96964 5.06205C1.82385 5.9016 1.79877 6.98485 1.76559 8.54037C1.7448 9.5154 1.7448 10.4846 1.7656 11.4596C1.79877 13.0152 1.82385 14.0984 1.96964 14.938C2.10923 15.7418 2.34907 16.2512 2.77629 16.68C3.20056 17.1059 3.71653 17.3495 4.54406 17.4936C5.4053 17.6436 6.521 17.6736 8.11767 17.7137C9.58067 17.7504 11.0326 17.7593 12.4902 17.7403C12.9044 17.7349 13.2445 18.0662 13.2499 18.4804C13.2553 18.8946 12.924 19.2347 12.5098 19.2401C11.033 19.2594 9.56197 19.2504 8.07999 19.2132L8.02177 19.2117C6.49697 19.1735 5.27001 19.1426 4.2867 18.9714C3.2572 18.7921 2.42048 18.4482 1.71362 17.7387C1.00972 17.0321 0.667644 16.2074 0.491763 15.1946C0.324293 14.2302 0.298786 13.0332 0.267188 11.5504L0.265936 11.4916C0.244688 10.4953 0.244688 9.50473 0.265935 8.50839L0.267187 8.44965C0.298783 6.96681 0.324289 5.76978 0.491759 4.8054C0.66764 3.7926 1.00971 2.9679 1.71362 2.26132C2.42048 1.55177 3.2572 1.20789 4.2867 1.0286C5.27002 0.857352 6.497 0.826545 8.02182 0.788259L8.07999 0.786799C10.033 0.737731 11.967 0.737734 13.92 0.786805L13.9782 0.788266C15.503 0.826555 16.73 0.857365 17.7133 1.02862C18.7428 1.20791 19.5795 1.55179 20.2864 2.26134C20.9903 2.96792 21.3324 3.79261 21.5082 4.80542C21.6757 5.76979 21.7012 6.96683 21.7328 8.44967L21.7341 8.5084C21.7447 9.00655 21.75 9.50326 21.75 10C21.75 10.4142 21.4142 10.75 21 10.75C20.5858 10.75 20.25 10.4142 20.25 10C20.25 9.51397 20.2448 9.02792 20.2344 8.54038C20.2012 6.98486 20.1762 5.90161 20.0304 5.06206C19.8908 4.25824 19.6509 3.74884 19.2237 3.31998C18.7994 2.89411 18.2835 2.65049 17.4559 2.50637C16.5947 2.35638 15.479 2.32645 13.8823 2.28633Z" fill="#161616"/>
<path d="M5.35452 6.11835C5.56533 5.7618 6.02527 5.64365 6.38182 5.85445L9.32384 7.59389C10.1682 8.0931 10.6171 8.25006 11.0001 8.25006C11.3831 8.25006 11.832 8.0931 12.6764 7.59389L15.6184 5.85445C15.975 5.64365 16.4349 5.7618 16.6457 6.11835C16.8565 6.47491 16.7384 6.93485 16.3818 7.14566L13.4398 8.88509C12.569 9.39997 11.8175 9.75006 11.0001 9.75006C10.1827 9.75006 9.43128 9.39997 8.56043 8.88509L5.61841 7.14566C5.26186 6.93485 5.14371 6.47491 5.35452 6.11835Z" fill="#161616"/>
<path d="M15.5378 15.5227C15.6949 15.3612 15.8971 15.104 16.0893 14.8593L16.1341 14.8024C16.327 14.5566 16.5333 14.2938 16.7439 14.0452L16.75 14.0381V20.5C16.75 20.9142 17.0858 21.25 17.5 21.25C17.9142 21.25 18.25 20.9142 18.25 20.5V14.0381L18.2561 14.0452C18.4667 14.2939 18.673 14.5566 18.866 14.8024L18.9107 14.8593C19.1029 15.104 19.3051 15.3612 19.4622 15.5227C19.7509 15.8198 20.2257 15.8265 20.5227 15.5378C20.8198 15.2491 20.8265 14.7743 20.5378 14.4773C20.4491 14.386 20.3035 14.2042 20.0903 13.9328L20.0433 13.8728C19.8532 13.6307 19.6302 13.3466 19.4005 13.0755C19.1543 12.785 18.8787 12.4832 18.6032 12.2485C18.4652 12.131 18.3096 12.015 18.1422 11.9254C17.9807 11.839 17.7583 11.75 17.5 11.75C17.2417 11.75 17.0193 11.839 16.8578 11.9254C16.6904 12.015 16.5348 12.131 16.3968 12.2485C16.1213 12.4832 15.8457 12.785 15.5995 13.0755C15.3698 13.3466 15.1468 13.6307 14.9568 13.8728L14.9097 13.9328C14.6965 14.2042 14.5509 14.386 14.4622 14.4773C14.1735 14.7743 14.1802 15.2491 14.4773 15.5378C14.7743 15.8265 15.2491 15.8198 15.5378 15.5227Z" fill="#161616"/>
</svg>
