<svg width="22" height="18" viewBox="0 0 22 18" fill="none" xmlns="http://www.w3.org/2000/svg">
<path fill-rule="evenodd" clip-rule="evenodd" d="M3.00001 0.250003C3.43282 0.249952 3.8744 0.249902 4.19721 0.293303C4.55269 0.341096 4.92842 0.453543 5.23744 0.762567C5.54647 1.07159 5.65891 1.44732 5.70671 1.8028C5.75011 2.12561 5.75006 2.52245 5.75001 2.95526V5.04476C5.75006 5.47757 5.75011 5.8744 5.70671 6.19721C5.65891 6.55269 5.54647 6.92842 5.23744 7.23744C4.92842 7.54646 4.5527 7.65891 4.19721 7.7067C3.8744 7.7501 3.43283 7.75005 3.00001 7.75C2.56719 7.75005 2.12561 7.7501 1.8028 7.7067C1.44732 7.65891 1.07159 7.54646 0.76257 7.23744C0.453547 6.92842 0.3411 6.55269 0.293307 6.19721C0.249906 5.8744 0.249952 5.47757 0.250003 5.04475V2.95525C0.249952 2.52244 0.249906 2.12561 0.293307 1.8028C0.3411 1.44732 0.453547 1.07159 0.76257 0.762567C1.07159 0.453543 1.44732 0.341096 1.8028 0.293303C2.12561 0.249902 2.56719 0.249952 3.00001 0.250003ZM3 1.75C2.50739 1.75 2.21339 1.75159 2.00266 1.77992C1.93361 1.80093 1.79239 1.8749 1.77992 2.00266C1.75159 2.21338 1.75 2.50739 1.75 3V5C1.75 5.4926 1.75159 5.78661 1.77992 5.99733C1.79598 6.06606 1.86301 6.20682 2.00266 6.22007C2.21339 6.2484 2.50739 6.25 3 6.25C3.49261 6.25 3.78661 6.2484 3.99734 6.22007C4.12327 6.20773 4.1983 6.06644 4.22008 5.99733C4.24841 5.78661 4.25 5.4926 4.25 5V3C4.25 2.50739 4.24841 2.21338 4.22008 2.00266C4.19721 1.83256 4.07921 1.78463 3.99734 1.77992C3.78661 1.75159 3.49261 1.75 3 1.75Z" fill="#161616"/>
<path fill-rule="evenodd" clip-rule="evenodd" d="M15.6972 0.293303C15.3744 0.249902 14.9328 0.249952 14.5 0.250003C14.0672 0.249952 13.6256 0.249902 13.3028 0.293303C12.9473 0.341096 12.5716 0.453543 12.2626 0.762567C11.9535 1.07159 11.8411 1.44732 11.7933 1.8028C11.7499 2.12561 11.75 2.52244 11.75 2.95525V5.04475C11.75 5.47757 11.7499 5.8744 11.7933 6.19721C11.8411 6.55269 11.9535 6.92842 12.2626 7.23744C12.5716 7.54646 12.9473 7.65891 13.3028 7.7067C13.6256 7.7501 14.0672 7.75005 14.5 7.75C14.9328 7.75005 15.3744 7.7501 15.6972 7.7067C16.0527 7.65891 16.4284 7.54646 16.7374 7.23744C17.0465 6.92842 17.1589 6.55269 17.2067 6.19721C17.2501 5.8744 17.2501 5.47757 17.25 5.04476V2.95526C17.2501 2.52245 17.2501 2.12561 17.2067 1.8028C17.1589 1.44732 17.0465 1.07159 16.7374 0.762567C16.4284 0.453543 16.0527 0.341096 15.6972 0.293303ZM13.5027 1.77992C13.7134 1.75159 14.0074 1.75 14.5 1.75C14.9926 1.75 15.2866 1.75159 15.4973 1.77992C15.5792 1.78463 15.6972 1.83256 15.7201 2.00266C15.7484 2.21338 15.75 2.50739 15.75 3V5C15.75 5.4926 15.7484 5.78661 15.7201 5.99733C15.6983 6.06644 15.6233 6.20773 15.4973 6.22007C15.2866 6.2484 14.9926 6.25 14.5 6.25C14.0074 6.25 13.7134 6.2484 13.5027 6.22007C13.363 6.20682 13.296 6.06606 13.2799 5.99733C13.2516 5.78661 13.25 5.4926 13.25 5V3C13.25 2.50739 13.2516 2.21338 13.2799 2.00266C13.2924 1.8749 13.4336 1.80093 13.5027 1.77992Z" fill="#161616"/>
<path fill-rule="evenodd" clip-rule="evenodd" d="M15.6972 10.2933C15.3744 10.2499 14.9328 10.25 14.5 10.25C14.0672 10.25 13.6256 10.2499 13.3028 10.2933C12.9473 10.3411 12.5716 10.4535 12.2626 10.7626C11.9535 11.0716 11.8411 11.4473 11.7933 11.8028C11.7499 12.1256 11.75 12.5224 11.75 12.9553V15.0448C11.75 15.4776 11.7499 15.8744 11.7933 16.1972C11.8411 16.5527 11.9535 16.9284 12.2626 17.2374C12.5716 17.5465 12.9473 17.6589 13.3028 17.7067C13.6256 17.7501 14.0671 17.7501 14.4999 17.75C14.9327 17.7501 15.3744 17.7501 15.6972 17.7067C16.0527 17.6589 16.4284 17.5465 16.7374 17.2374C17.0465 16.9284 17.1589 16.5527 17.2067 16.1972C17.2501 15.8744 17.2501 15.4776 17.25 15.0448V12.9553C17.2501 12.5224 17.2501 12.1256 17.2067 11.8028C17.1589 11.4473 17.0465 11.0716 16.7374 10.7626C16.4284 10.4535 16.0527 10.3411 15.6972 10.2933ZM13.5027 11.7799C13.7134 11.7516 14.0074 11.75 14.5 11.75C14.9926 11.75 15.2866 11.7516 15.4973 11.7799C15.5792 11.7846 15.6972 11.8326 15.7201 12.0027C15.7484 12.2134 15.75 12.5074 15.75 13V15C15.75 15.4926 15.7484 15.7866 15.7201 15.9973C15.6983 16.0664 15.6233 16.2077 15.4973 16.2201C15.2866 16.2484 14.9926 16.25 14.5 16.25C14.0074 16.25 13.7134 16.2484 13.5027 16.2201C13.363 16.2068 13.296 16.0661 13.2799 15.9973C13.2516 15.7866 13.25 15.4926 13.25 15V13C13.25 12.5074 13.2516 12.2134 13.2799 12.0027C13.2924 11.8749 13.4336 11.8009 13.5027 11.7799Z" fill="#161616"/>
<path d="M3.25008 11C3.25008 10.7234 3.09784 10.4693 2.85397 10.3387C2.61011 10.2082 2.3142 10.2225 2.08405 10.376L0.584055 11.376C0.239408 11.6057 0.146278 12.0714 0.376042 12.416C0.605806 12.7607 1.07146 12.8538 1.4161 12.624L1.75008 12.4014V17C1.75008 17.4142 2.08587 17.75 2.50008 17.75C2.91429 17.75 3.25008 17.4142 3.25008 17V11Z" fill="#161616"/>
<g opacity="0.4">
<path d="M10.2501 1C10.2501 0.723405 10.0978 0.46926 9.85397 0.338745C9.61011 0.208231 9.3142 0.222535 9.08405 0.375963L7.58405 1.37596C7.23941 1.60573 7.14628 2.07138 7.37604 2.41603C7.60581 2.76067 8.07146 2.8538 8.41611 2.62404L8.75008 2.40139V7C8.75008 7.41421 9.08587 7.75 9.50008 7.75C9.91429 7.75 10.2501 7.41421 10.2501 7V1Z" fill="#161616"/>
<path fill-rule="evenodd" clip-rule="evenodd" d="M7.50001 10.25C7.93282 10.25 8.3744 10.2499 8.69721 10.2933C9.05269 10.3411 9.42842 10.4535 9.73744 10.7626C10.0465 11.0716 10.1589 11.4473 10.2067 11.8028C10.2501 12.1256 10.2501 12.5224 10.25 12.9553V15.0448C10.2501 15.4776 10.2501 15.8744 10.2067 16.1972C10.1589 16.5527 10.0465 16.9284 9.73744 17.2374C9.42842 17.5465 9.0527 17.6589 8.69721 17.7067C8.37442 17.7501 7.93288 17.7501 7.50009 17.75C7.0673 17.7501 6.62559 17.7501 6.3028 17.7067C5.94732 17.6589 5.57159 17.5465 5.26257 17.2374C4.95355 16.9284 4.8411 16.5527 4.79331 16.1972C4.74991 15.8744 4.74995 15.4776 4.75 15.0448V12.9553C4.74995 12.5224 4.74991 12.1256 4.79331 11.8028C4.8411 11.4473 4.95355 11.0716 5.26257 10.7626C5.57159 10.4535 5.94732 10.3411 6.3028 10.2933C6.62561 10.2499 7.06719 10.25 7.50001 10.25ZM7.5 11.75C7.00739 11.75 6.71339 11.7516 6.50266 11.7799C6.43361 11.8009 6.29239 11.8749 6.27992 12.0027C6.25159 12.2134 6.25 12.5074 6.25 13V15C6.25 15.4926 6.25159 15.7866 6.27992 15.9973C6.29598 16.0661 6.36301 16.2068 6.50266 16.2201C6.71339 16.2484 7.00739 16.25 7.5 16.25C7.99261 16.25 8.28661 16.2484 8.49734 16.2201C8.62327 16.2077 8.6983 16.0664 8.72008 15.9973C8.74841 15.7866 8.75 15.4926 8.75 15V13C8.75 12.5074 8.74841 12.2134 8.72008 12.0027C8.69721 11.8326 8.57921 11.7846 8.49734 11.7799C8.28661 11.7516 7.99261 11.75 7.5 11.75Z" fill="#161616"/>
<path d="M21.354 0.338745C21.5978 0.46926 21.7501 0.723405 21.7501 1V7C21.7501 7.41421 21.4143 7.75 21.0001 7.75C20.5859 7.75 20.2501 7.41421 20.2501 7V2.40139L19.9161 2.62404C19.5715 2.8538 19.1058 2.76067 18.876 2.41603C18.6463 2.07138 18.7394 1.60573 19.0841 1.37596L20.5841 0.375963C20.8142 0.222535 21.1101 0.208231 21.354 0.338745Z" fill="#161616"/>
<path d="M21.7501 11C21.7501 10.7234 21.5978 10.4693 21.354 10.3387C21.1101 10.2082 20.8142 10.2225 20.5841 10.376L19.0841 11.376C18.7394 11.6057 18.6463 12.0714 18.876 12.416C19.1058 12.7607 19.5715 12.8538 19.9161 12.624L20.2501 12.4014V17C20.2501 17.4142 20.5859 17.75 21.0001 17.75C21.4143 17.75 21.7501 17.4142 21.7501 17V11Z" fill="#161616"/>
</g>
</svg>
