<svg width="22" height="22" viewBox="0 0 22 22" fill="none" xmlns="http://www.w3.org/2000/svg">
<path fill-rule="evenodd" clip-rule="evenodd" d="M7.5 5.25C8.47966 5.25 9.31309 5.87611 9.62197 6.75L16 6.75C16.4142 6.75 16.75 7.08579 16.75 7.5C16.75 7.91421 16.4142 8.25 16 8.25L9.62197 8.25C9.31309 9.12389 8.47966 9.75 7.5 9.75C6.25736 9.75 5.25 8.74264 5.25 7.5C5.25 6.25736 6.25736 5.25 7.5 5.25ZM8.25 7.5C8.25 7.08579 7.91421 6.75 7.5 6.75C7.08579 6.75 6.75 7.08579 6.75 7.5C6.75 7.91421 7.08579 8.25 7.5 8.25C7.91421 8.25 8.25 7.91421 8.25 7.5Z" fill="#161616"/>
<path fill-rule="evenodd" clip-rule="evenodd" d="M12.378 15.25C12.6869 16.1239 13.5203 16.75 14.5 16.75C15.7426 16.75 16.75 15.7426 16.75 14.5C16.75 13.2574 15.7426 12.25 14.5 12.25C13.5203 12.25 12.6869 12.8761 12.378 13.75H6C5.58579 13.75 5.25 14.0858 5.25 14.5C5.25 14.9142 5.58579 15.25 6 15.25H12.378ZM14.5 13.75C14.0858 13.75 13.75 14.0858 13.75 14.5C13.75 14.9142 14.0858 15.25 14.5 15.25C14.9142 15.25 15.25 14.9142 15.25 14.5C15.25 14.0858 14.9142 13.75 14.5 13.75Z" fill="#161616"/>
<path fill-rule="evenodd" clip-rule="evenodd" d="M10.9428 0.75H11.0572C13.2479 0.749987 14.9686 0.749976 16.312 0.930594C17.6886 1.11568 18.7809 1.50272 19.6391 2.36091C20.4973 3.21911 20.8843 4.31137 21.0694 5.68802C21.25 7.03144 21.25 8.7521 21.25 10.9428V11.0572C21.25 13.2479 21.25 14.9686 21.0694 16.312C20.8843 17.6886 20.4973 18.7809 19.6391 19.6391C18.7809 20.4973 17.6886 20.8843 16.312 21.0694C14.9686 21.25 13.2479 21.25 11.0572 21.25H10.9428C8.75214 21.25 7.03144 21.25 5.68802 21.0694C4.31137 20.8843 3.21911 20.4973 2.36091 19.6391C1.50272 18.7809 1.11568 17.6886 0.930594 16.312C0.749976 14.9686 0.749987 13.2479 0.75 11.0572V10.9428C0.749987 8.75212 0.749976 7.03144 0.930594 5.68802C1.11568 4.31137 1.50272 3.21911 2.36091 2.36091C3.21911 1.50272 4.31137 1.11568 5.68802 0.930594C7.03144 0.749976 8.75212 0.749987 10.9428 0.75ZM5.8879 2.41722C4.67757 2.57994 3.95462 2.88853 3.42157 3.42157C2.88853 3.95462 2.57994 4.67757 2.41722 5.8879C2.25159 7.11979 2.25 8.73963 2.25 11C2.25 13.2604 2.25159 14.8802 2.41722 16.1121C2.57994 17.3224 2.88853 18.0454 3.42157 18.5784C3.95462 19.1115 4.67757 19.4201 5.8879 19.5828C7.11979 19.7484 8.73963 19.75 11 19.75C13.2604 19.75 14.8802 19.7484 16.1121 19.5828C17.3224 19.4201 18.0454 19.1115 18.5784 18.5784C19.1115 18.0454 19.4201 17.3224 19.5828 16.1121C19.7484 14.8802 19.75 13.2604 19.75 11C19.75 8.73963 19.7484 7.11979 19.5828 5.8879C19.4201 4.67757 19.1115 3.95462 18.5784 3.42157C18.0454 2.88853 17.3224 2.57994 16.1121 2.41722C14.8802 2.25159 13.2604 2.25 11 2.25C8.73963 2.25 7.11979 2.25159 5.8879 2.41722Z" fill="#161616"/>
</svg>
