<svg width="20" height="22" viewBox="0 0 20 22" fill="none" xmlns="http://www.w3.org/2000/svg">
<path d="M9.43465 0.250001H9.56535C11.5133 0.249977 13.0647 0.249959 14.2806 0.442269C15.5457 0.642374 16.5497 1.0646 17.3267 1.97873C17.9398 2.70012 18.2784 3.57152 18.4721 4.62655C18.6635 5.66883 18.7216 6.93893 18.7407 8.49078C18.7458 8.90496 18.4142 9.24485 18 9.24995C17.5858 9.25504 17.2459 8.92341 17.2408 8.50922C17.2218 6.96161 17.1631 5.80338 16.9968 4.89747C16.8328 4.00431 16.5726 3.40767 16.1837 2.9502C15.716 2.39986 15.0958 2.08986 14.0462 1.92385C12.961 1.75219 11.5283 1.75 9.5 1.75C7.47171 1.75 6.03904 1.75219 4.95377 1.92385C3.90421 2.08986 3.28404 2.39987 2.81625 2.9502C2.33351 3.51814 2.04911 4.30054 1.90075 5.5988C1.75116 6.90781 1.75 8.62489 1.75 11C1.75 13.3751 1.75116 15.0922 1.90075 16.4012C2.04911 17.6995 2.33351 18.4819 2.81625 19.0498C3.28404 19.6001 3.90421 19.9101 4.95377 20.0762C6.03904 20.2478 7.47171 20.25 9.5 20.25C9.91421 20.25 10.25 20.5858 10.25 21C10.25 21.4142 9.91421 21.75 9.5 21.75H9.43463C7.48668 21.75 5.93525 21.75 4.71942 21.5577C3.45432 21.3576 2.45035 20.9354 1.67334 20.0213C0.91129 19.1247 0.573285 17.9964 0.41045 16.5715C0.249986 15.1674 0.249992 13.3646 0.25 11.0495V10.9505C0.249992 8.63539 0.249986 6.83262 0.41045 5.42849C0.573284 4.00361 0.911289 2.87526 1.67334 1.97873C2.45035 1.0646 3.45431 0.642375 4.71942 0.44227C5.93525 0.249959 7.48669 0.249977 9.43465 0.250001Z" fill="#161616"/>
<path d="M5.25 7C5.25 6.58579 5.58579 6.25 6 6.25H13C13.4142 6.25 13.75 6.58579 13.75 7C13.75 7.41421 13.4142 7.75 13 7.75H6C5.58579 7.75 5.25 7.41421 5.25 7Z" fill="#161616"/>
<path d="M5.25 12C5.25 11.5858 5.58579 11.25 6 11.25H9C9.41421 11.25 9.75 11.5858 9.75 12C9.75 12.4142 9.41421 12.75 9 12.75H6C5.58579 12.75 5.25 12.4142 5.25 12Z" fill="#161616"/>
<path fill-rule="evenodd" clip-rule="evenodd" d="M15.375 10.25C13.0968 10.25 11.25 12.0968 11.25 14.375C11.25 15.5477 11.7399 16.606 12.5242 17.3563L12.0863 18.7349C11.981 19.0665 11.8922 19.3459 11.8351 19.569C11.7808 19.7811 11.7251 20.0465 11.7621 20.3118C11.8731 21.1077 12.5353 21.7469 13.372 21.75C13.6508 21.751 13.9096 21.6473 14.1015 21.5611C14.306 21.4692 14.5587 21.3366 14.855 21.1811L14.8762 21.17C15.1721 21.0147 15.2334 20.9861 15.2866 20.9701C15.4263 20.928 15.5737 20.928 15.7134 20.9701C15.7666 20.9861 15.8279 21.0147 16.1238 21.17L16.1449 21.1811C16.4412 21.3366 16.694 21.4692 16.8985 21.5611C17.0904 21.6473 17.3492 21.751 17.628 21.75C18.4647 21.7469 19.1269 21.1077 19.2379 20.3118C19.2749 20.0465 19.2192 19.7811 19.1649 19.569C19.1078 19.346 19.019 19.0666 18.9137 18.735L18.4758 17.3563C19.2601 16.606 19.75 15.5477 19.75 14.375C19.75 12.0968 17.9032 10.25 15.625 10.25H15.375ZM13.5228 19.1674L13.8298 18.2006C14.3074 18.3937 14.8292 18.5 15.375 18.5H15.625C16.1708 18.5 16.6926 18.3937 17.1702 18.2006L17.4772 19.1674C17.5912 19.5263 17.6665 19.7645 17.7117 19.9411C17.7405 20.0534 17.7472 20.1065 17.7492 20.1217C17.7324 20.2006 17.6825 20.2358 17.6457 20.2464C17.6239 20.239 17.5817 20.2236 17.5131 20.1928C17.3557 20.1221 17.1441 20.0114 16.8208 19.8418L16.7745 19.8174C16.5508 19.6998 16.3549 19.5968 16.1465 19.534C15.7243 19.4067 15.2757 19.4067 14.8535 19.534C14.6451 19.5968 14.4492 19.6998 14.2255 19.8174L14.1792 19.8418C13.8559 20.0114 13.6443 20.1221 13.4869 20.1928C13.4183 20.2236 13.3761 20.239 13.3543 20.2464C13.3175 20.2358 13.2676 20.2008 13.2508 20.122C13.2527 20.1067 13.2595 20.0534 13.2883 19.9411C13.3335 19.7645 13.4088 19.5263 13.5228 19.1674ZM12.75 14.375C12.75 12.9253 13.9253 11.75 15.375 11.75H15.625C17.0747 11.75 18.25 12.9253 18.25 14.375C18.25 15.2474 17.8252 16.0205 17.1678 16.499C16.7348 16.8142 16.2027 17 15.625 17H15.375C14.7973 17 14.2652 16.8142 13.8322 16.499C13.1748 16.0205 12.75 15.2474 12.75 14.375Z" fill="#161616"/>
</svg>
