<svg width="23" height="22" viewBox="0 0 23 22" fill="none" xmlns="http://www.w3.org/2000/svg">
<path d="M16.5 9.25H18.5V10.75H16.5V9.25Z" fill="#161616"/>
<path d="M16.5 13.25H18.5V14.75H16.5V13.25Z" fill="#161616"/>
<path d="M4.5 5.25H6.5V6.75H4.5V5.25Z" fill="#161616"/>
<path d="M8.5 5.25H10.5V6.75H8.5V5.25Z" fill="#161616"/>
<path d="M4.5 9.25H6.5V10.75H4.5V9.25Z" fill="#161616"/>
<path d="M8.5 9.25H10.5V10.75H8.5V9.25Z" fill="#161616"/>
<path d="M6.5 14.75H4.5V13.25H6.5V14.75Z" fill="#161616"/>
<path d="M10.5 14.75H8.5V13.25H10.5V14.75Z" fill="#161616"/>
<path fill-rule="evenodd" clip-rule="evenodd" d="M1.5 0.25C1.08579 0.25 0.75 0.585786 0.75 1V21C0.75 21.1989 0.829018 21.3897 0.969671 21.5303C1.11032 21.671 1.30109 21.75 1.5 21.75H21.5C21.6989 21.75 21.8897 21.671 22.0303 21.5303C22.171 21.3897 22.25 21.1989 22.25 21V6.99997C22.25 6.58576 21.9142 6.24997 21.5 6.24997H14.25V1C14.25 0.585786 13.9142 0.25 13.5 0.25H1.5ZM14.25 20.25V7.74997H20.75V20.25L14.25 20.25ZM12.75 1.75V20.25L2.25 20.25V1.75H12.75Z" fill="#161616"/>
</svg>
