<svg width="22" height="22" viewBox="0 0 22 22" fill="none" xmlns="http://www.w3.org/2000/svg">
<path fill-rule="evenodd" clip-rule="evenodd" d="M5.03142 0.25H4.96858C4.29521 0.249992 3.74449 0.249985 3.29693 0.286552C2.83367 0.324402 2.41527 0.405137 2.02453 0.60423C1.413 0.915818 0.915818 1.413 0.60423 2.02453C0.405137 2.41527 0.324402 2.83367 0.286552 3.29693C0.249985 3.74449 0.249992 4.2952 0.25 4.96857V5.03142C0.249992 5.70479 0.249985 6.25551 0.286552 6.70307C0.324402 7.16633 0.405137 7.58473 0.60423 7.97547C0.915818 8.587 1.413 9.08418 2.02453 9.39577C2.41527 9.59486 2.83367 9.6756 3.29693 9.71345C3.74448 9.75002 4.29518 9.75001 4.96853 9.75H5.03144C5.70479 9.75001 6.25552 9.75002 6.70307 9.71345C7.16633 9.6756 7.58473 9.59486 7.97547 9.39577C8.587 9.08418 9.08418 8.587 9.39577 7.97547C9.59486 7.58473 9.6756 7.16633 9.71345 6.70307C9.75002 6.25552 9.75001 5.70483 9.75 5.03147V4.96856C9.75001 4.29521 9.75002 3.74448 9.71345 3.29693C9.6756 2.83367 9.59486 2.41527 9.39577 2.02453C9.08418 1.413 8.587 0.915818 7.97547 0.60423C7.58473 0.405137 7.16633 0.324402 6.70307 0.286552C6.25551 0.249985 5.70479 0.249992 5.03142 0.25ZM2.70552 1.94074C2.84956 1.86735 3.04858 1.81184 3.41908 1.78157C3.79833 1.75058 4.28756 1.75 5 1.75C5.71244 1.75 6.20167 1.75058 6.58092 1.78157C6.95142 1.81184 7.15045 1.86735 7.29448 1.94074C7.62377 2.10852 7.89148 2.37623 8.05926 2.70552C8.13265 2.84956 8.18816 3.04858 8.21843 3.41908C8.24942 3.79833 8.25 4.28756 8.25 5C8.25 5.71244 8.24942 6.20167 8.21843 6.58092C8.18816 6.95142 8.13265 7.15045 8.05926 7.29448C7.89148 7.62377 7.62377 7.89148 7.29448 8.05926C7.15045 8.13265 6.95142 8.18816 6.58092 8.21843C6.20167 8.24942 5.71244 8.25 5 8.25C4.28756 8.25 3.79833 8.24942 3.41908 8.21843C3.04858 8.18816 2.84956 8.13265 2.70552 8.05926C2.37623 7.89148 2.10852 7.62377 1.94074 7.29448C1.86735 7.15045 1.81184 6.95142 1.78157 6.58092C1.75058 6.20167 1.75 5.71244 1.75 5C1.75 4.28756 1.75058 3.79833 1.78157 3.41908C1.81184 3.04858 1.86735 2.84956 1.94074 2.70552C2.10852 2.37623 2.37623 2.10852 2.70552 1.94074Z" fill="#161616"/>
<path fill-rule="evenodd" clip-rule="evenodd" d="M17.7501 1.5C17.7501 1.08579 17.4143 0.75 17.0001 0.75C16.5859 0.75 16.2501 1.08579 16.2501 1.5V1.96847C15.5507 2.11159 14.9231 2.45092 14.4309 2.92642L13.9102 2.58634C13.5634 2.35985 13.0986 2.45738 12.8721 2.80418C12.6456 3.15098 12.7432 3.61573 13.09 3.84223L13.5911 4.16952C13.425 4.58124 13.3334 5.03036 13.3334 5.5C13.3334 5.96971 13.425 6.4189 13.5912 6.83068L13.0904 7.15777C12.7435 7.38427 12.646 7.84902 12.8725 8.19582C13.099 8.54262 13.5638 8.64015 13.9106 8.41366L14.4311 8.07373C14.9232 8.54915 15.5507 8.88842 16.2501 9.03153V9.5C16.2501 9.91421 16.5859 10.25 17.0001 10.25C17.4143 10.25 17.7501 9.91421 17.7501 9.5V9.03153C18.4494 8.88842 19.077 8.54915 19.5691 8.07373L20.0896 8.41366C20.4364 8.64015 20.9012 8.54262 21.1277 8.19582C21.3542 7.84902 21.2566 7.38427 20.9098 7.15777L20.409 6.83068C20.5752 6.4189 20.6668 5.96971 20.6668 5.5C20.6668 5.03036 20.5752 4.58124 20.4091 4.16952L20.9102 3.84223C21.257 3.61573 21.3545 3.15098 21.128 2.80418C20.9015 2.45738 20.4368 2.35985 20.09 2.58634L19.5693 2.92642C19.0771 2.45092 18.4495 2.11159 17.7501 1.96847V1.5ZM15.1926 4.33754C15.5795 3.77027 16.242 3.39286 17.0001 3.39286C17.7582 3.39286 18.4207 3.77027 18.8075 4.33754C19.0351 4.6713 19.1668 5.07005 19.1668 5.5C19.1668 5.93 19.0351 6.3288 18.8074 6.66259C18.4206 7.22978 17.7581 7.60714 17.0001 7.60714C16.242 7.60714 15.5796 7.22978 15.1927 6.66259C14.9651 6.3288 14.8334 5.93 14.8334 5.5C14.8334 5.07005 14.9651 4.67129 15.1926 4.33754Z" fill="#161616"/>
<path fill-rule="evenodd" clip-rule="evenodd" d="M5.03142 12.25C5.7048 12.25 6.25551 12.25 6.70307 12.2866C7.16633 12.3244 7.58473 12.4051 7.97547 12.6042C8.587 12.9158 9.08418 13.413 9.39577 14.0245C9.59486 14.4153 9.6756 14.8337 9.71345 15.2969C9.75002 15.7445 9.75001 16.2952 9.75 16.9685V17.0314C9.75001 17.7048 9.75002 18.2555 9.71345 18.7031C9.6756 19.1663 9.59486 19.5847 9.39577 19.9755C9.08418 20.587 8.587 21.0842 7.97547 21.3958C7.58473 21.5949 7.16633 21.6756 6.70307 21.7134C6.25551 21.75 5.70481 21.75 5.03144 21.75H4.96856C4.29519 21.75 3.74449 21.75 3.29693 21.7134C2.83367 21.6756 2.41527 21.5949 2.02453 21.3958C1.413 21.0842 0.915818 20.587 0.60423 19.9755C0.405137 19.5847 0.324402 19.1663 0.286552 18.7031C0.249985 18.2555 0.249992 17.7048 0.25 17.0314V16.9686C0.249992 16.2952 0.249985 15.7445 0.286552 15.2969C0.324402 14.8337 0.405137 14.4153 0.60423 14.0245C0.915818 13.413 1.413 12.9158 2.02453 12.6042C2.41527 12.4051 2.83367 12.3244 3.29693 12.2866C3.7445 12.25 4.2952 12.25 4.96858 12.25H5.03142ZM3.41908 13.7816C3.04858 13.8118 2.84956 13.8673 2.70552 13.9407C2.37623 14.1085 2.10852 14.3762 1.94074 14.7055C1.86735 14.8496 1.81184 15.0486 1.78157 15.4191C1.75058 15.7983 1.75 16.2876 1.75 17C1.75 17.7124 1.75058 18.2017 1.78157 18.5809C1.81184 18.9514 1.86735 19.1504 1.94074 19.2945C2.10852 19.6238 2.37623 19.8915 2.70552 20.0593C2.84956 20.1327 3.04858 20.1882 3.41908 20.2184C3.79833 20.2494 4.28756 20.25 5 20.25C5.71244 20.25 6.20167 20.2494 6.58092 20.2184C6.95142 20.1882 7.15045 20.1327 7.29448 20.0593C7.62377 19.8915 7.89148 19.6238 8.05926 19.2945C8.13265 19.1504 8.18816 18.9514 8.21843 18.5809C8.24942 18.2017 8.25 17.7124 8.25 17C8.25 16.2876 8.24942 15.7983 8.21843 15.4191C8.18816 15.0486 8.13265 14.8496 8.05926 14.7055C7.89148 14.3762 7.62377 14.1085 7.29448 13.9407C7.15045 13.8673 6.95142 13.8118 6.58092 13.7816C6.20167 13.7506 5.71244 13.75 5 13.75C4.28756 13.75 3.79833 13.7506 3.41908 13.7816Z" fill="#161616"/>
<path fill-rule="evenodd" clip-rule="evenodd" d="M17.0314 12.25H16.9686C16.2952 12.25 15.7445 12.25 15.2969 12.2866C14.8337 12.3244 14.4153 12.4051 14.0245 12.6042C13.413 12.9158 12.9158 13.413 12.6042 14.0245C12.4051 14.4153 12.3244 14.8337 12.2866 15.2969C12.25 15.7445 12.25 16.2952 12.25 16.9686V17.0314C12.25 17.7048 12.25 18.2555 12.2866 18.7031C12.3244 19.1663 12.4051 19.5847 12.6042 19.9755C12.9158 20.587 13.413 21.0842 14.0245 21.3958C14.4153 21.5949 14.8337 21.6756 15.2969 21.7134C15.7445 21.75 16.2952 21.75 16.9686 21.75H17.0314C17.7048 21.75 18.2555 21.75 18.7031 21.7134C19.1663 21.6756 19.5847 21.5949 19.9755 21.3958C20.587 21.0842 21.0842 20.587 21.3958 19.9755C21.5949 19.5847 21.6756 19.1663 21.7134 18.7031C21.75 18.2555 21.75 17.7048 21.75 17.0314V16.9686C21.75 16.2952 21.75 15.7445 21.7134 15.2969C21.6756 14.8337 21.5949 14.4153 21.3958 14.0245C21.0842 13.413 20.587 12.9158 19.9755 12.6042C19.5847 12.4051 19.1663 12.3244 18.7031 12.2866C18.2555 12.25 17.7048 12.25 17.0314 12.25ZM14.7055 13.9407C14.8496 13.8673 15.0486 13.8118 15.4191 13.7816C15.7983 13.7506 16.2876 13.75 17 13.75C17.7124 13.75 18.2017 13.7506 18.5809 13.7816C18.9514 13.8118 19.1504 13.8673 19.2945 13.9407C19.6238 14.1085 19.8915 14.3762 20.0593 14.7055C20.1327 14.8496 20.1882 15.0486 20.2184 15.4191C20.2494 15.7983 20.25 16.2876 20.25 17C20.25 17.7124 20.2494 18.2017 20.2184 18.5809C20.1882 18.9514 20.1327 19.1504 20.0593 19.2945C19.8915 19.6238 19.6238 19.8915 19.2945 20.0593C19.1504 20.1327 18.9514 20.1882 18.5809 20.2184C18.2017 20.2494 17.7124 20.25 17 20.25C16.2876 20.25 15.7983 20.2494 15.4191 20.2184C15.0486 20.1882 14.8496 20.1327 14.7055 20.0593C14.3762 19.8915 14.1085 19.6238 13.9407 19.2945C13.8673 19.1504 13.8118 18.9514 13.7816 18.5809C13.7506 18.2017 13.75 17.7124 13.75 17C13.75 16.2876 13.7506 15.7983 13.7816 15.4191C13.8118 15.0486 13.8673 14.8496 13.9407 14.7055C14.1085 14.3762 14.3762 14.1085 14.7055 13.9407Z" fill="#161616"/>
</svg>
