<svg width="18" height="16" viewBox="0 0 18 16" fill="none" xmlns="http://www.w3.org/2000/svg">
<path d="M7.33366 10.7084C6.98848 10.7084 6.70866 10.9882 6.70866 11.3334C6.70866 11.6786 6.98848 11.9584 7.33366 11.9584H8.58366C8.92884 11.9584 9.20866 11.6786 9.20866 11.3334C9.20866 10.9882 8.92884 10.7084 8.58366 10.7084H7.33366Z" fill="#067647"/>
<path d="M10.4587 11.3334C10.4587 10.9882 10.7385 10.7084 11.0837 10.7084H14.0003C14.3455 10.7084 14.6253 10.9882 14.6253 11.3334C14.6253 11.6786 14.3455 11.9584 14.0003 11.9584H11.0837C10.7385 11.9584 10.4587 11.6786 10.4587 11.3334Z" fill="#067647"/>
<path fill-rule="evenodd" clip-rule="evenodd" d="M10.2899 0.708374H7.71071C6.1782 0.708366 4.97463 0.70836 4.02581 0.81554C3.05734 0.924939 2.272 1.15306 1.61918 1.66861C1.42375 1.82295 1.24256 1.99342 1.07781 2.17821C0.522665 2.80088 0.274761 3.55562 0.15668 4.48158C0.0419716 5.3811 0.0419808 6.51942 0.0419924 7.95609V8.04399C0.0419808 9.48066 0.0419716 10.619 0.15668 11.5185C0.274761 12.4445 0.522665 13.1992 1.07781 13.8219C1.24256 14.0067 1.42375 14.1771 1.61918 14.3315C2.272 14.847 3.05734 15.0751 4.02581 15.1845C4.97463 15.2917 6.1782 15.2917 7.71071 15.2917H10.2899C11.8225 15.2917 13.026 15.2917 13.9748 15.1845C14.9433 15.0751 15.7287 14.847 16.3815 14.3315C16.5769 14.1771 16.7581 14.0067 16.9228 13.8219C17.478 13.1992 17.7259 12.4445 17.844 11.5185C17.9587 10.619 17.9587 9.48067 17.9587 8.044V7.95608C17.9587 6.51941 17.9587 5.3811 17.844 4.48158C17.7259 3.55562 17.478 2.80088 16.9228 2.17821C16.7581 1.99342 16.5769 1.82295 16.3815 1.66861C15.7287 1.15306 14.9433 0.924939 13.9748 0.81554C13.026 0.70836 11.8224 0.708366 10.2899 0.708374ZM2.3939 2.64959C2.78665 2.33942 3.30712 2.15467 4.16612 2.05764C5.0366 1.95931 6.16958 1.95837 7.75033 1.95837H10.2503C11.8311 1.95837 12.9641 1.95931 13.8345 2.05764C14.6935 2.15467 15.214 2.33942 15.6068 2.64959C15.7458 2.75939 15.8739 2.88004 15.9898 3.01004C16.312 3.37142 16.5028 3.8457 16.604 4.6397C16.6137 4.71592 16.6225 4.79431 16.6305 4.87504H1.37011C1.3781 4.79431 1.38692 4.71592 1.39664 4.6397C1.49789 3.8457 1.68865 3.37142 2.01084 3.01004C2.12674 2.88004 2.25487 2.75939 2.3939 2.64959ZM1.30414 6.12504C1.29227 6.66347 1.29199 7.28158 1.29199 8.00004C1.29199 9.49051 1.29318 10.5491 1.39664 11.3604C1.49789 12.1544 1.68865 12.6287 2.01084 12.99C2.12674 13.12 2.25487 13.2407 2.3939 13.3505C2.78665 13.6607 3.30712 13.8454 4.16612 13.9424C5.0366 14.0408 6.16958 14.0417 7.75033 14.0417H10.2503C11.8311 14.0417 12.9641 14.0408 13.8345 13.9424C14.6935 13.8454 15.214 13.6607 15.6068 13.3505C15.7458 13.2407 15.8739 13.12 15.9898 12.99C16.312 12.6287 16.5028 12.1544 16.604 11.3604C16.7075 10.5491 16.7087 9.49051 16.7087 8.00004C16.7087 7.28158 16.7084 6.66347 16.6965 6.12504H1.30414Z" fill="#067647"/>
</svg>
