<svg width="40" height="40" viewBox="0 0 40 40" fill="none" xmlns="http://www.w3.org/2000/svg">
<rect width="40" height="40" rx="20" fill="#ECFDF3"/>
<path fill-rule="evenodd" clip-rule="evenodd" d="M17.2962 20C17.2962 18.5003 18.485 17.25 19.9934 17.25C21.5018 17.25 22.6906 18.5003 22.6906 20C22.6906 21.4997 21.5018 22.75 19.9934 22.75C18.485 22.75 17.2962 21.4997 17.2962 20ZM19.9934 18.75C19.351 18.75 18.7962 19.2906 18.7962 20C18.7962 20.7094 19.351 21.25 19.9934 21.25C20.6358 21.25 21.1906 20.7094 21.1906 20C21.1906 19.2906 20.6358 18.75 19.9934 18.75Z" fill="#1B8354"/>
<path d="M22.9414 26.5005C21.4203 24.8029 18.5809 24.8606 17.0497 26.5102C16.7679 26.8138 16.2933 26.8315 15.9898 26.5497C15.6862 26.2679 15.6685 25.7933 15.9503 25.4898C18.0462 23.2319 21.9136 23.1056 24.0586 25.4995C24.335 25.808 24.309 26.2822 24.0005 26.5586C23.692 26.835 23.2178 26.809 22.9414 26.5005Z" fill="#1B8354"/>
<path fill-rule="evenodd" clip-rule="evenodd" d="M20 9.25003C20.3954 9.24977 20.7887 9.24953 21.0768 9.31584C21.74 9.46847 22.3245 9.88208 22.6506 10.4817C22.7742 10.7088 22.8433 10.9678 22.9104 11.2543C24.0412 11.2633 24.9825 11.2964 25.7587 11.4254C26.6447 11.5728 27.3871 11.8557 27.9907 12.4275C28.6728 13.0737 28.9734 13.8949 29.1144 14.8887C29.25 15.8443 29.25 17.0606 29.25 18.5743V23.4273C29.25 24.941 29.25 26.1572 29.1144 27.1129C28.9734 28.1067 28.6728 28.9279 27.9907 29.5741C27.3143 30.2149 26.4644 30.4923 25.4352 30.6234C24.4347 30.7508 23.158 30.7508 21.5532 30.7508H18.4468C16.842 30.7508 15.5653 30.7508 14.5648 30.6234C13.5357 30.4923 12.6857 30.2149 12.0093 29.5741C11.3272 28.9279 11.0266 28.1067 10.8856 27.1129C10.75 26.1573 10.75 24.941 10.75 23.4273V18.5743C10.75 17.0605 10.75 15.8443 10.8856 14.8887C11.0266 13.8949 11.3272 13.0737 12.0093 12.4275C12.6129 11.8557 13.3553 11.5728 14.2413 11.4254C15.0175 11.2964 15.9589 11.2633 17.0896 11.2543C17.1568 10.9678 17.2259 10.7088 17.3494 10.4817C17.6756 9.88208 18.2601 9.46847 18.9233 9.31584C19.2114 9.24953 19.6046 9.24977 20 9.25003ZM16.7698 12.7578C15.8104 12.7709 15.0756 12.8073 14.4874 12.9051C13.776 13.0234 13.3532 13.2206 13.0409 13.5164C12.6979 13.8414 12.486 14.2873 12.3707 15.0994C12.2518 15.9374 12.25 17.0469 12.25 18.6324V23.3692C12.25 24.9546 12.2518 26.0641 12.3707 26.9021C12.486 27.7143 12.6979 28.1602 13.0409 28.4851C13.3897 28.8155 13.8773 29.0237 14.7543 29.1354C15.649 29.2493 16.83 29.2508 18.5 29.2508H21.5C23.17 29.2508 24.351 29.2493 25.2457 29.1354C26.1228 29.0237 26.6103 28.8155 26.9591 28.4851C27.3021 28.1602 27.514 27.7143 27.6293 26.9021C27.7482 26.0641 27.75 24.9546 27.75 23.3692V18.6324C27.75 17.0469 27.7482 15.9374 27.6293 15.0994C27.514 14.2873 27.3021 13.8414 26.9591 13.5164C26.6468 13.2206 26.224 13.0234 25.5126 12.9051C24.9244 12.8073 24.1896 12.7709 23.2303 12.7578C23.2306 12.7602 23.2309 12.7625 23.2311 12.7648C23.2648 13.0438 23.2672 13.3661 23.1211 13.6881C22.9718 14.0172 22.7235 14.2861 22.4203 14.4702C22.1352 14.6434 21.8262 14.7005 21.5374 14.7258C21.2606 14.7501 20.9198 14.7501 20.5294 14.75H19.4706C19.0802 14.7501 18.7394 14.7501 18.4626 14.7258C18.1739 14.7005 17.8649 14.6434 17.5797 14.4702C17.2766 14.2861 17.0283 14.0172 16.879 13.6881C16.7329 13.3661 16.7352 13.0438 16.7689 12.7648C16.7692 12.7625 16.7695 12.7602 16.7698 12.7578ZM20 10.75C19.4903 10.75 19.3591 10.7547 19.2597 10.7776C18.9775 10.8425 18.7702 11.0088 18.6671 11.1984C18.6387 11.3209 18.589 11.5254 18.5337 11.7528C18.4155 12.2388 18.272 12.8289 18.2581 12.9447L18.2581 12.946C18.26 13.0512 18.2628 13.2025 18.5936 13.2315C18.7969 13.2493 19.0711 13.25 19.5019 13.25H20.4981C20.929 13.25 21.2031 13.2493 21.4064 13.2315C21.723 13.2184 21.762 13.0348 21.742 12.9447C21.728 12.829 21.5845 12.2388 21.4663 11.7528C21.411 11.5255 21.3613 11.3209 21.333 11.1984C21.2298 11.0088 21.0225 10.8425 20.7403 10.7776C20.6409 10.7547 20.5097 10.75 20 10.75Z" fill="#1B8354"/>
</svg>
