<svg width="16" height="18" viewBox="0 0 16 18" fill="none" xmlns="http://www.w3.org/2000/svg">
<g id="elements">
<g id="Icon">
<path fill-rule="evenodd" clip-rule="evenodd" d="M5.74679 8.99996C5.74679 7.75017 6.73746 6.70829 7.99447 6.70829C9.25149 6.70829 10.2422 7.75017 10.2422 8.99996C10.2422 10.2497 9.25149 11.2916 7.99447 11.2916C6.73746 11.2916 5.74679 10.2497 5.74679 8.99996ZM7.99447 7.95829C7.45912 7.95829 6.99679 8.4088 6.99679 8.99996C6.99679 9.59112 7.45912 10.0416 7.99447 10.0416C8.52982 10.0416 8.99215 9.59112 8.99215 8.99996C8.99215 8.4088 8.52982 7.95829 7.99447 7.95829Z" fill="#067647"/>
<path d="M10.4512 14.417C9.18357 13.0024 6.81739 13.0505 5.54137 14.4252C5.30653 14.6781 4.91108 14.6929 4.65809 14.458C4.40511 14.2232 4.39039 13.8277 4.62523 13.5748C6.37178 11.6932 9.59463 11.588 11.3821 13.5829C11.6125 13.84 11.5908 14.2351 11.3337 14.4654C11.0766 14.6958 10.6815 14.6741 10.4512 14.417Z" fill="#067647"/>
<path fill-rule="evenodd" clip-rule="evenodd" d="M7.99998 0.041653C8.32947 0.0414359 8.6572 0.0412342 8.89729 0.0964898C9.44994 0.223683 9.93702 0.56836 10.2088 1.06803C10.3118 1.2573 10.3693 1.47315 10.4253 1.71185C11.3676 1.71939 12.1521 1.74694 12.7988 1.85448C13.5372 1.97726 14.1559 2.21301 14.6589 2.68953C15.2273 3.22804 15.4778 3.91237 15.5953 4.7405C15.7083 5.53688 15.7083 6.55042 15.7083 7.81187V11.856C15.7083 13.1175 15.7083 14.131 15.5953 14.9274C15.4778 15.7555 15.2273 16.4398 14.6589 16.9784C14.0952 17.5123 13.3869 17.7435 12.5293 17.8528C11.6956 17.959 10.6316 17.959 9.29431 17.9589H6.70565C5.36833 17.959 4.30436 17.959 3.47062 17.8528C2.613 17.7435 1.90472 17.5123 1.34106 16.9784C0.772632 16.4398 0.522137 15.7555 0.404612 14.9274C0.291594 14.131 0.291609 13.1175 0.291626 11.8561V7.81184C0.291609 6.55042 0.291594 5.53687 0.404612 4.7405C0.522137 3.91237 0.772632 3.22804 1.34106 2.68953C1.84405 2.21301 2.46274 1.97726 3.20108 1.85448C3.84786 1.74693 4.63234 1.71939 5.57465 1.71185C5.63062 1.47315 5.68818 1.2573 5.79113 1.06803C6.06294 0.56836 6.55002 0.223683 7.10267 0.0964898C7.34276 0.0412342 7.67049 0.0414359 7.99998 0.041653ZM5.3081 2.96482C4.50861 2.97569 3.89629 3.00604 3.40612 3.08755C2.81333 3.18612 2.46098 3.35043 2.20074 3.59697C1.91489 3.86777 1.73825 4.23938 1.64221 4.91614C1.5431 5.6145 1.54163 6.53907 1.54163 7.86026V11.8076C1.54163 13.1288 1.5431 14.0534 1.64221 14.7517C1.73825 15.4285 1.91489 15.8001 2.20074 16.0709C2.49135 16.3462 2.89767 16.5197 3.62855 16.6128C4.37411 16.7077 5.35827 16.7089 6.74996 16.7089H9.24996C10.6417 16.7089 11.6258 16.7077 12.3714 16.6128C13.1023 16.5197 13.5086 16.3462 13.7992 16.0709C14.085 15.8001 14.2617 15.4285 14.3577 14.7517C14.4568 14.0534 14.4583 13.1288 14.4583 11.8076V7.86026C14.4583 6.53907 14.4568 5.6145 14.3577 4.91614C14.2617 4.23938 14.085 3.86777 13.7992 3.59697C13.5389 3.35043 13.1866 3.18612 12.5938 3.08755C12.1036 3.00605 11.4913 2.9757 10.6919 2.96482C10.6921 2.9668 10.6923 2.96874 10.6926 2.97065C10.7207 3.2031 10.7226 3.47169 10.6008 3.74005C10.4764 4.01428 10.2695 4.23835 10.0169 4.39177C9.77929 4.53609 9.52176 4.58371 9.28113 4.6048C9.05046 4.62501 8.76648 4.625 8.44115 4.62499H7.55881C7.23348 4.625 6.9495 4.62501 6.71883 4.6048C6.4782 4.58371 6.22067 4.53609 5.98305 4.39177C5.73044 4.23835 5.52352 4.01428 5.39911 3.74005C5.27738 3.47169 5.27929 3.2031 5.30738 2.97065C5.30761 2.96874 5.30785 2.9668 5.3081 2.96482ZM7.99997 1.2916C7.57524 1.2916 7.46588 1.29552 7.38302 1.31459C7.14791 1.3687 6.9751 1.50732 6.88917 1.66528C6.86556 1.76735 6.82412 1.93781 6.77805 2.12729C6.67958 2.53225 6.56 3.02408 6.54834 3.12055L6.54836 3.12162C6.54998 3.20932 6.55231 3.33536 6.82794 3.35952C6.99738 3.37437 7.22584 3.37493 7.58488 3.37493H8.41505C8.77409 3.37493 9.00255 3.37437 9.172 3.35952C9.4358 3.34862 9.46831 3.19566 9.45159 3.12055C9.43994 3.02409 9.32036 2.5323 9.2219 2.12733C9.17583 1.93786 9.13437 1.76735 9.11076 1.66528C9.02483 1.50732 8.85203 1.3687 8.61691 1.31459C8.53405 1.29552 8.4247 1.2916 7.99997 1.2916Z" fill="#067647"/>
</g>
</g>
</svg>
