<svg width="40" height="41" viewBox="0 0 40 41" fill="none" xmlns="http://www.w3.org/2000/svg">
<path d="M0 20.5C0 9.45431 8.95431 0.5 20 0.5C31.0457 0.5 40 9.45431 40 20.5C40 31.5457 31.0457 40.5 20 40.5C8.95431 40.5 0 31.5457 0 20.5Z" fill="#EFF8FF"/>
<path d="M19.5757 20.292C19.5178 20.2911 19.4509 20.291 19.3683 20.291C19.0231 20.291 18.7433 20.0112 18.7433 19.666C18.7433 19.3209 19.0231 19.041 19.3683 19.041L19.397 19.041C19.568 19.041 19.7528 19.0409 19.9088 19.0619C20.0916 19.0864 20.3251 19.1496 20.5216 19.3461C20.7181 19.5426 20.7813 19.7761 20.8058 19.9589C20.8268 20.1149 20.8267 20.2997 20.8267 20.4707L20.8267 24.666C20.8267 25.0112 20.5468 25.291 20.2017 25.291C19.8565 25.291 19.5767 25.0112 19.5767 24.666V20.4994C19.5767 20.4168 19.5766 20.3499 19.5757 20.292Z" fill="#175CD3"/>
<path d="M19.9933 16.3327C19.5331 16.3327 19.16 16.7058 19.16 17.166C19.16 17.6263 19.5331 17.9993 19.9933 17.9993H20.0008C20.4611 17.9993 20.8341 17.6263 20.8341 17.166C20.8341 16.7058 20.4611 16.3327 20.0008 16.3327H19.9933Z" fill="#175CD3"/>
<path fill-rule="evenodd" clip-rule="evenodd" d="M11.0415 20.4993C11.0415 25.4469 15.0523 29.4577 19.9998 29.4577C24.9474 29.4577 28.9582 25.4469 28.9582 20.4993C28.9582 15.5518 24.9474 11.541 19.9998 11.541C15.0523 11.541 11.0415 15.5518 11.0415 20.4993ZM19.9998 28.2077C15.7426 28.2077 12.2915 24.7565 12.2915 20.4993C12.2915 16.2422 15.7426 12.791 19.9998 12.791C24.257 12.791 27.7082 16.2422 27.7082 20.4993C27.7082 24.7565 24.257 28.2077 19.9998 28.2077Z" fill="#175CD3"/>
</svg>
