<svg width="40" height="40" viewBox="0 0 40 40" fill="none" xmlns="http://www.w3.org/2000/svg">
<path d="M0 20C0 8.95431 8.95431 0 20 0C31.0457 0 40 8.95431 40 20C40 31.0457 31.0457 40 20 40C8.95431 40 0 31.0457 0 20Z" fill="#EFF8FF"/>
<path fill-rule="evenodd" clip-rule="evenodd" d="M11.042 20.0013C11.042 24.9489 15.0528 28.9596 20.0003 28.9596C24.9479 28.9596 28.9587 24.9489 28.9587 20.0013C28.9587 15.0538 24.9479 11.043 20.0003 11.043C15.0528 11.043 11.042 15.0538 11.042 20.0013ZM19.7352 19.1907C19.9411 19.2184 20.2259 19.2925 20.4675 19.5341C20.7092 19.7758 20.7833 20.0606 20.811 20.2664C20.8339 20.437 20.8338 20.6353 20.8337 20.8018L20.8337 24.168C20.8337 24.6282 20.4606 25.0013 20.0003 25.0013C19.5401 25.0013 19.167 24.6282 19.167 24.168V20.8347C18.7068 20.8347 18.3337 20.4616 18.3337 20.0013C18.3337 19.5411 18.7068 19.168 19.167 19.168L19.1998 19.168C19.3664 19.1679 19.5647 19.1678 19.7352 19.1907ZM19.9965 15.8346C19.5383 15.8346 19.1669 16.2077 19.1669 16.668C19.1669 17.1282 19.5383 17.5013 19.9965 17.5013H20.004C20.4622 17.5013 20.8336 17.1282 20.8336 16.668C20.8336 16.2077 20.4622 15.8346 20.004 15.8346H19.9965Z" fill="#5899F4"/>
</svg>
