<svg width="18" height="19" viewBox="0 0 18 19" fill="none" xmlns="http://www.w3.org/2000/svg">
<path d="M8.99915 10.9549C8.65415 10.9549 8.37415 10.6749 8.37415 10.3299V10.0133C8.37415 9.2916 8.80412 8.74408 9.18412 8.26074L9.19334 8.24898C9.3166 8.09168 9.43298 7.94316 9.52079 7.80412C9.58663 7.69912 9.62415 7.57078 9.62415 7.44661C9.62415 7.08328 9.34415 6.78825 8.99915 6.78825C8.65415 6.78825 8.37415 7.08328 8.37415 7.44661C8.37415 7.80995 8.09415 8.07161 7.74915 8.07161C7.40415 8.07161 7.12415 7.79161 7.12415 7.44661C7.12415 6.39411 7.96498 5.53825 8.99915 5.53825C10.0333 5.53825 10.8741 6.39411 10.8741 7.44661C10.8741 7.80745 10.7725 8.16072 10.5791 8.46989C10.4525 8.66906 10.3074 8.85406 10.1674 9.03239L10.1647 9.03586C9.89889 9.37478 9.62415 9.72508 9.62415 10.0133V10.3299C9.62415 10.6749 9.34415 10.9549 8.99915 10.9549Z" fill="#1570EF"/>
<path d="M8.37821 11.9966C8.37821 12.3416 8.66236 12.6216 9.00737 12.6216C9.35237 12.6216 9.63237 12.3416 9.63237 11.9966C9.63237 11.6516 9.35237 11.3716 9.00737 11.3716H8.99906C8.65406 11.3716 8.37821 11.6516 8.37821 11.9966Z" fill="#1570EF"/>
<path fill-rule="evenodd" clip-rule="evenodd" d="M2.45328 18.0398C2.40828 18.0398 2.36329 18.0398 2.31745 18.0381L2.25243 18.0365C1.68326 18.019 1.19078 18.0031 0.894113 17.5281L0.879058 17.5023C0.598252 17.0007 0.843229 16.539 1.18234 15.9L1.19742 15.8715C1.47492 15.3506 1.74742 14.6298 1.48908 14.129C0.629917 12.849 0.154901 11.5823 0.0765674 10.3632C0.0332341 9.639 0.0332341 8.90734 0.0765674 8.18567C0.320734 4.35151 3.36156 1.26982 7.14989 1.01648C8.35656 0.939818 9.6349 0.939818 10.8474 1.01648C14.6382 1.27065 17.6799 4.35147 17.9232 8.18397C17.9666 8.90813 17.9666 9.63979 17.9232 10.3615C17.6791 14.1956 14.6383 17.2765 10.8499 17.5306C9.63492 17.6156 8.35405 17.6156 7.14655 17.5306C6.66405 17.5006 6.15245 17.384 5.70995 17.2015L5.60741 17.159L5.55572 17.1378C5.45711 17.0972 5.3604 17.0575 5.28661 17.0298C5.23046 17.068 5.15928 17.1182 5.08656 17.1695L5.04239 17.2006L4.99079 17.2373C4.26413 17.7781 3.43157 18.0415 2.45157 18.0415L2.45328 18.0398ZM2.13158 16.7815C2.16644 16.7831 2.20239 16.7841 2.23798 16.785L2.29157 16.7865L2.35245 16.7881C3.11828 16.8056 3.70739 16.634 4.25072 16.229C4.2528 16.2277 4.25469 16.2263 4.25658 16.2248C4.25847 16.2234 4.26036 16.2219 4.26244 16.2207L4.31908 16.1806L4.32092 16.1793C4.68303 15.9219 4.86536 15.7922 5.11327 15.754C5.38494 15.7131 5.6191 15.8089 6.08576 16.0014L6.18741 16.0431C6.50157 16.1731 6.88074 16.259 7.22907 16.2806C8.38491 16.3615 9.60573 16.3623 10.7641 16.2806H10.7658C13.9308 16.069 16.4708 13.489 16.6758 10.2815C16.7158 9.62146 16.7158 8.92066 16.6758 8.259C16.4716 5.05316 13.9308 2.47394 10.7666 2.26144C9.60742 2.18894 8.38412 2.18894 7.23078 2.26144C4.06828 2.47311 1.5274 5.05229 1.32323 8.26063C1.28323 8.92063 1.28323 9.6215 1.32323 10.2832C1.3874 11.284 1.79822 12.3515 2.54239 13.454C2.55239 13.469 2.56244 13.4848 2.5716 13.5014C3.01244 14.2981 2.92158 15.2923 2.30158 16.4565L2.28661 16.4839C2.23411 16.5823 2.17908 16.6873 2.13158 16.7815Z" fill="#1570EF"/>
</svg>
