<svg width="22" height="22" viewBox="0 0 22 22" fill="none" xmlns="http://www.w3.org/2000/svg">
<path fill-rule="evenodd" clip-rule="evenodd" d="M19.5764 9.17095C19.7534 9.21895 19.9274 9.24292 20.0974 9.24292C20.4364 9.24292 20.7544 9.14696 21.0264 8.95996C21.4224 8.68796 21.6665 8.25194 21.7165 7.73194C21.9265 5.78894 21.1075 3.96492 19.5795 2.96792C18.5375 2.28992 17.5094 1.82995 16.2434 1.47495C12.8624 0.510953 9.13842 0.510953 5.75642 1.47495C4.49142 1.82995 3.46248 2.29095 2.42048 2.96895C0.892479 3.96495 0.0734674 5.78994 0.283467 7.73194C0.333467 8.25194 0.578409 8.68796 0.973409 8.95996C1.38141 9.24096 1.89648 9.31595 2.42448 9.17095C2.94148 9.03695 3.40447 8.90693 3.83347 8.77593C5.59247 8.25493 6.00245 7.43295 6.21345 5.89795L6.6364 2.79092C9.4684 2.07092 12.5314 2.07092 15.3644 2.79092L15.7875 5.89893C15.9995 7.43293 16.4095 8.25393 18.1625 8.77393C18.5975 8.90593 19.0594 9.03595 19.5764 9.17095ZM17.2745 5.69492L16.9465 3.28594V3.28394C17.5885 3.53494 18.1734 3.83893 18.7614 4.22193C19.8144 4.90993 20.3755 6.19295 20.2255 7.57295C20.2245 7.57695 20.2245 7.58096 20.2245 7.58496C20.2165 7.66796 20.1934 7.71095 20.1764 7.72295C20.1484 7.74295 20.0724 7.75095 19.9724 7.72295L19.9604 7.71992C19.4614 7.58992 19.0164 7.46592 18.5944 7.33692C17.5814 7.03692 17.4335 6.85292 17.2745 5.69492ZM3.2404 4.22393C3.8294 3.84093 4.41442 3.53694 5.05642 3.28594L5.05544 3.28692L4.72741 5.69395C4.56841 6.85295 4.42041 7.03692 3.40241 7.33892C2.98541 7.46592 2.54048 7.59095 2.04148 7.72095L2.02946 7.72393C1.92846 7.75093 1.85346 7.74293 1.82546 7.72393C1.80846 7.71193 1.78541 7.66794 1.77741 7.58594C1.77644 7.58203 1.77644 7.57811 1.77644 7.5742C1.62644 6.1952 2.1874 4.91093 3.2404 4.22393Z" fill="#1B8354"/>
<path fill-rule="evenodd" clip-rule="evenodd" d="M11.0015 18.2461C9.48547 18.2461 8.25146 17.0121 8.25146 15.4961C8.25146 13.9801 9.48547 12.7461 11.0015 12.7461C12.5175 12.7461 13.7515 13.9801 13.7515 15.4961C13.7515 17.0121 12.5175 18.2461 11.0015 18.2461ZM11.0015 14.2461C10.3125 14.2461 9.75146 14.8071 9.75146 15.4961C9.75146 16.1851 10.3125 16.7461 11.0015 16.7461C11.6905 16.7461 12.2515 16.1851 12.2515 15.4961C12.2515 14.8071 11.6905 14.2461 11.0015 14.2461Z" fill="#1B8354"/>
<path fill-rule="evenodd" clip-rule="evenodd" d="M5.20645 21.2501C4.08845 21.2501 2.72646 21.1691 1.97646 20.3081C1.25146 19.4761 1.25146 18.3571 1.25146 16.3251C1.25146 15.1903 1.25146 14.565 1.54443 13.9511C1.86243 13.2871 2.40549 12.8981 3.30449 12.2551L5.25547 10.8641C5.87847 10.4221 6.51144 10.1261 7.24844 9.93008C7.61944 9.82808 7.75146 9.74408 7.75146 9.20508C7.75146 8.42208 8.1725 7.74209 8.9375 7.29009C9.5305 6.94009 10.2965 6.74707 11.0965 6.74707C11.8965 6.74707 12.6064 6.93608 13.1534 7.27808C13.8614 7.72108 14.2515 8.4051 14.2515 9.2041C14.2515 9.7431 14.3835 9.8271 14.7595 9.9311C15.4905 10.1261 16.1235 10.4221 16.7455 10.8631L18.6965 12.2541L18.7035 12.2591C19.5993 12.9011 20.1402 13.2888 20.4574 13.9511C20.7514 14.5651 20.7515 15.1901 20.7515 16.3251C20.7515 18.3571 20.7515 19.4761 20.0265 20.3071C19.2088 21.2522 17.543 21.2481 16.3214 21.2451L16.3064 21.2451H5.91045C5.81045 21.2451 5.70551 21.2451 5.59551 21.2471C5.46951 21.2481 5.33949 21.2491 5.20449 21.2491L5.20645 21.2501ZM4.17842 13.4761C3.32542 14.0871 3.03844 14.3081 2.89844 14.6001C2.75744 14.8941 2.75244 15.3161 2.75244 16.3261C2.75244 17.9961 2.7525 18.9151 3.1085 19.3231C3.4955 19.7661 4.80347 19.7561 5.58447 19.7481C5.64263 19.7481 5.69976 19.7476 5.75558 19.7471C5.80903 19.7466 5.86169 19.7461 5.9125 19.7461H16.3135C17.0325 19.7491 18.5234 19.7551 18.8944 19.3251C19.2514 18.9151 19.2515 17.9951 19.2515 16.3261C19.2515 15.3161 19.2455 14.8941 19.1045 14.6001C18.9645 14.3091 18.6775 14.0871 17.8245 13.4761L15.8755 12.0871C15.4055 11.7541 14.9265 11.5291 14.3685 11.3811C13.2785 11.0821 12.7515 10.3711 12.7515 9.2061C12.7515 9.0311 12.7104 8.77207 12.3574 8.55107C12.0504 8.35907 11.5905 8.2481 11.0965 8.2481C10.2095 8.2481 9.25146 8.61408 9.25146 9.20508C9.25146 10.3701 8.72445 11.0811 7.63945 11.3781C7.07545 11.5281 6.59649 11.7521 6.12549 12.0861L4.17842 13.4741V13.4761Z" fill="#1B8354"/>
</svg>
