<svg width="20" height="22" viewBox="0 0 20 22" fill="none" xmlns="http://www.w3.org/2000/svg">
  <path
    d="M6 5.25C5.58579 5.25 5.25 5.58579 5.25 6C5.25 6.41421 5.58579 6.75 6 6.75H14C14.4142 6.75 14.75 6.41421 14.75 6C14.75 5.58579 14.4142 5.25 14 5.25H6Z"
    fill="#1B8354" />
  <path
    d="M5.25 11C5.25 10.5858 5.58579 10.25 6 10.25H14C14.4142 10.25 14.75 10.5858 14.75 11C14.75 11.4142 14.4142 11.75 14 11.75H6C5.58579 11.75 5.25 11.4142 5.25 11Z"
    fill="#1B8354" />
  <path
    d="M6 15.25C5.58579 15.25 5.25 15.5858 5.25 16C5.25 16.4142 5.58579 16.75 6 16.75H10C10.4142 16.75 10.75 16.4142 10.75 16C10.75 15.5858 10.4142 15.25 10 15.25H6Z"
    fill="#1B8354" />
  <path fill-rule="evenodd" clip-rule="evenodd"
        d="M10.5833 0.25H9.41672C7.46585 0.249988 5.92941 0.249977 4.72885 0.402421C3.49987 0.558473 2.50965 0.885751 1.72552 1.62631C0.935345 2.37259 0.580604 3.32468 0.412549 4.50521C0.249968 5.64729 0.249982 7.1054 0.25 8.94067V13.0593C0.249982 14.8946 0.249967 16.3527 0.412548 17.4948C0.580603 18.6753 0.935344 19.6274 1.72552 20.3737C2.50965 21.1142 3.49987 21.4415 4.72885 21.5976C5.92941 21.75 7.46586 21.75 9.41675 21.75H10.5833C12.5342 21.75 14.0706 21.75 15.2712 21.5976C16.5001 21.4415 17.4904 21.1143 18.2745 20.3737C19.0647 19.6274 19.4194 18.6753 19.5875 17.4948C19.75 16.3527 19.75 14.8946 19.75 13.0593V8.94074C19.75 7.10547 19.75 5.64729 19.5875 4.50521C19.4194 3.32468 19.0647 2.37259 18.2745 1.62631C17.4904 0.885752 16.5001 0.558474 15.2712 0.402422C14.0706 0.249978 12.5342 0.249988 10.5833 0.25ZM2.75546 2.71683C3.21182 2.28582 3.84011 2.02731 4.9178 1.89047C6.01287 1.75142 7.454 1.75 9.47059 1.75H10.5294C12.546 1.75 13.9871 1.75142 15.0822 1.89047C16.1599 2.02731 16.7882 2.28582 17.2445 2.71683C17.6949 3.14213 17.9604 3.71864 18.1024 4.71661C18.2482 5.74077 18.25 7.09197 18.25 9V13C18.25 14.908 18.2482 16.2592 18.1024 17.2834C17.9604 18.2814 17.6949 18.8579 17.2445 19.2832C16.7882 19.7142 16.1599 19.9727 15.0822 20.1095C13.9871 20.2486 12.546 20.25 10.5294 20.25H9.47059C7.454 20.25 6.01287 20.2486 4.9178 20.1095C3.84011 19.9727 3.21182 19.7142 2.75546 19.2832C2.30515 18.8579 2.03964 18.2814 1.89758 17.2834C1.75178 16.2592 1.75 14.908 1.75 13L1.75 9C1.75 7.09197 1.75178 5.74077 1.89758 4.71661C2.03964 3.71864 2.30515 3.14213 2.75546 2.71683Z"
        fill="#1B8354" />
</svg>
