<svg width="20" height="20" viewBox="0 0 20 20" fill="none" xmlns="http://www.w3.org/2000/svg">
<path d="M9.10381 1.75C9.51802 1.74925 9.8532 1.41286 9.85246 0.998651C9.85171 0.584438 9.51532 0.249257 9.10111 0.250001C7.28905 0.253264 5.83768 0.275724 4.68183 0.46281C3.50406 0.653445 2.55183 1.02646 1.79138 1.7869C0.9699 2.60835 0.601226 3.65266 0.425319 4.96099C0.253881 6.23609 0.253892 7.86809 0.253907 9.94068V10.0546C0.253892 12.1272 0.253881 13.7592 0.425319 15.0343C0.601224 16.3427 0.969893 17.387 1.79137 18.2084C2.61283 19.0299 3.65717 19.3985 4.96554 19.5744C6.24069 19.7459 7.87275 19.7459 9.94544 19.7459H10.0593C12.132 19.7459 13.764 19.7459 15.0391 19.5744C16.3475 19.3985 17.3918 19.0299 18.2133 18.2084C18.9738 17.448 19.3468 16.4958 19.5374 15.318C19.7245 14.1622 19.747 12.7109 19.7502 10.8989C19.751 10.4847 19.4158 10.1483 19.0016 10.1475C18.5874 10.1468 18.251 10.4819 18.2502 10.8962C18.2469 12.7329 18.2213 14.0613 18.0567 15.0784C17.8956 16.0734 17.6133 16.6871 17.1527 17.1477C16.6563 17.644 15.9813 17.9343 14.8393 18.0878C13.6757 18.2443 12.1445 18.2459 10.0024 18.2459C7.86021 18.2459 6.32903 18.2443 5.16542 18.0878C4.02338 17.9343 3.34832 17.644 2.85201 17.1477C2.35571 16.6514 2.06548 15.9764 1.91194 14.8344C1.7555 13.6709 1.75391 12.1397 1.75391 9.99763C1.75391 7.85555 1.7555 6.32444 1.91194 5.16087C2.06548 4.01888 2.35571 3.34387 2.85202 2.84757C3.31268 2.38693 3.92639 2.10461 4.9215 1.94354C5.93853 1.77892 7.26698 1.75331 9.10381 1.75Z" fill="#161616"/>
<path d="M19.0134 0.985044C18.8236 0.795036 18.5787 0.697113 18.4103 0.641577C18.2199 0.578791 18.005 0.532469 17.789 0.496647C17.3551 0.424712 16.8381 0.382681 16.3363 0.357612C15.3283 0.307252 14.2991 0.321735 13.9471 0.326743C13.5329 0.332634 13.202 0.673163 13.2079 1.08733C13.2138 1.50151 13.5543 1.83248 13.9685 1.82659C14.3199 1.82159 15.3063 1.80802 16.2614 1.85574C16.5287 1.8691 16.7872 1.88697 17.0244 1.91025L12.404 6.51801C12.1107 6.8105 12.11 7.28537 12.4025 7.57867C12.695 7.87196 13.1699 7.87262 13.4632 7.58013L18.0867 2.96931C18.1102 3.20835 18.1283 3.4691 18.1417 3.73878C18.1894 4.69508 18.1758 5.68263 18.1708 6.03446C18.165 6.44863 18.4959 6.78915 18.9101 6.79503C19.3243 6.80091 19.6648 6.46992 19.6707 6.05575C19.6757 5.70333 19.6901 4.67311 19.6398 3.66409C19.6148 3.16179 19.5728 2.64427 19.501 2.21006C19.4652 1.99384 19.419 1.77888 19.3563 1.58841C19.3009 1.41998 19.2032 1.17497 19.0134 0.985044Z" fill="#161616"/>
</svg>
