<svg width="20" height="20" viewBox="0 0 20 20" fill="none" xmlns="http://www.w3.org/2000/svg">
<g id="elements">
<g id="Icon">
<path d="M9.10357 1.75C9.51778 1.74925 9.85296 1.41286 9.85221 0.998651C9.85147 0.584438 9.51508 0.249257 9.10086 0.250001C7.2888 0.253264 5.83743 0.275724 4.68158 0.46281C3.50381 0.653445 2.55159 1.02646 1.79113 1.7869C0.969656 2.60835 0.600981 3.65266 0.425075 4.96099C0.253637 6.23609 0.253648 7.86809 0.253662 9.94068V10.0546C0.253648 12.1272 0.253637 13.7592 0.425075 15.0343C0.600979 16.3427 0.969649 17.387 1.79112 18.2084C2.61259 19.0299 3.65693 19.3985 4.9653 19.5744C6.24044 19.7459 7.8725 19.7459 9.94519 19.7459H10.0591C12.1317 19.7459 13.7638 19.7459 15.0389 19.5744C16.3473 19.3985 17.3916 19.0299 18.2131 18.2084C18.9735 17.448 19.3465 16.4958 19.5372 15.318C19.7243 14.1622 19.7467 12.7109 19.75 10.8989C19.7507 10.4847 19.4156 10.1483 19.0014 10.1475C18.5871 10.1468 18.2508 10.4819 18.25 10.8962C18.2467 12.7329 18.2211 14.0613 18.0564 15.0784C17.8954 16.0734 17.6131 16.6871 17.1524 17.1477C16.6561 17.644 15.9811 17.9343 14.839 18.0878C13.6754 18.2443 12.1443 18.2459 10.0021 18.2459C7.85996 18.2459 6.32878 18.2443 5.16517 18.0878C4.02313 17.9343 3.34808 17.644 2.85177 17.1477C2.35546 16.6514 2.06524 15.9764 1.9117 14.8344C1.75526 13.6709 1.75366 12.1397 1.75366 9.99763C1.75366 7.85555 1.75526 6.32444 1.9117 5.16087C2.06524 4.01888 2.35547 3.34387 2.85178 2.84757C3.31244 2.38693 3.92615 2.10461 4.92126 1.94354C5.93829 1.77892 7.26674 1.75331 9.10357 1.75Z" fill="black"/>
<path d="M19.0132 0.985044C18.8234 0.795036 18.5785 0.697113 18.41 0.641577C18.2197 0.578791 18.0048 0.532469 17.7887 0.496647C17.3549 0.424712 16.8378 0.382681 16.336 0.357612C15.328 0.307252 14.2989 0.321735 13.9469 0.326743C13.5327 0.332634 13.2017 0.673163 13.2076 1.08733C13.2135 1.50151 13.554 1.83248 13.9682 1.82659C14.3196 1.82159 15.306 1.80802 16.2612 1.85574C16.5285 1.8691 16.787 1.88697 17.0242 1.91025L12.4037 6.51801C12.1105 6.8105 12.1098 7.28537 12.4023 7.57867C12.6948 7.87196 13.1697 7.87262 13.463 7.58013L18.0865 2.96931C18.11 3.20835 18.128 3.4691 18.1415 3.73878C18.1891 4.69508 18.1756 5.68263 18.1706 6.03446C18.1647 6.44863 18.4957 6.78915 18.9099 6.79503C19.324 6.80091 19.6646 6.46992 19.6704 6.05575C19.6754 5.70333 19.6899 4.67311 19.6396 3.66409C19.6146 3.16179 19.5726 2.64427 19.5007 2.21006C19.465 1.99384 19.4187 1.77888 19.356 1.58841C19.3006 1.41998 19.2029 1.17497 19.0132 0.985044Z" fill="black"/>
</g>
</g>
</svg>
