<svg width="18" height="18" viewBox="0 0 18 18" fill="none" xmlns="http://www.w3.org/2000/svg">
<g id="elements">
<g id="Icon">
<path fill-rule="evenodd" clip-rule="evenodd" d="M9.00016 4.62496C7.04415 4.62496 5.4585 6.21062 5.4585 8.16663C5.4585 10.1226 7.04415 11.7083 9.00016 11.7083C10.9562 11.7083 12.5418 10.1226 12.5418 8.16663C12.5418 6.21062 10.9562 4.62496 9.00016 4.62496ZM6.7085 8.16663C6.7085 6.90097 7.73451 5.87496 9.00016 5.87496C10.2658 5.87496 11.2918 6.90097 11.2918 8.16663C11.2918 9.43228 10.2658 10.4583 9.00016 10.4583C7.73451 10.4583 6.7085 9.43228 6.7085 8.16663Z" fill="#067647"/>
<path fill-rule="evenodd" clip-rule="evenodd" d="M9.00104 0.041626C5.81257 0.041626 2.77063 1.92748 1.49737 4.90386C0.312406 7.67383 0.953892 10.0311 2.28952 12.0496C3.38457 13.7045 4.98171 15.1815 6.42261 16.514C6.69733 16.768 6.9665 17.0169 7.2253 17.2607L7.22668 17.262C7.70587 17.7107 8.34238 17.9583 9.00104 17.9583C9.65969 17.9583 10.2962 17.7107 10.7754 17.262C11.02 17.033 11.2736 16.7993 11.5322 16.561C12.9888 15.2189 14.6084 13.7267 15.7149 12.0507C17.049 10.0301 17.6882 7.6704 16.5047 4.90386C15.2314 1.92748 12.1895 0.041626 9.00104 0.041626ZM2.64663 5.3955C3.71231 2.90436 6.28488 1.29163 9.00104 1.29163C11.7172 1.29163 14.2898 2.90436 15.3554 5.3955C16.3321 7.67863 15.8393 9.5936 14.6718 11.362C13.6572 12.8988 12.1709 14.2701 10.7099 15.6182C10.4451 15.8624 10.1812 16.1059 9.92106 16.3495C9.67743 16.5776 9.34784 16.7083 9.00104 16.7083C8.6545 16.7083 8.32514 16.5778 8.08156 16.35C7.80452 16.0891 7.52311 15.8285 7.24092 15.5672C5.79853 14.2314 4.33579 12.8768 3.33197 11.3598C2.16333 9.59364 1.66867 7.68158 2.64663 5.3955Z" fill="#067647"/>
</g>
</g>
</svg>
