<svg width="40" height="40" viewBox="0 0 40 40" fill="none" xmlns="http://www.w3.org/2000/svg">
<path d="M0 20C0 8.95431 8.95431 0 20 0C31.0457 0 40 8.95431 40 20C40 31.0457 31.0457 40 20 40C8.95431 40 0 31.0457 0 20Z" fill="#ECFDF3"/>
<path fill-rule="evenodd" clip-rule="evenodd" d="M20.0002 15.6243C18.0442 15.6243 16.4585 17.21 16.4585 19.166C16.4585 21.122 18.0442 22.7077 20.0002 22.7077C21.9562 22.7077 23.5418 21.122 23.5418 19.166C23.5418 17.21 21.9562 15.6243 20.0002 15.6243ZM17.7085 19.166C17.7085 17.9004 18.7345 16.8743 20.0002 16.8743C21.2658 16.8743 22.2918 17.9004 22.2918 19.166C22.2918 20.4317 21.2658 21.4577 20.0002 21.4577C18.7345 21.4577 17.7085 20.4317 17.7085 19.166Z" fill="#067647"/>
<path fill-rule="evenodd" clip-rule="evenodd" d="M20.001 11.041C16.8126 11.041 13.7706 12.9269 12.4974 15.9033C11.3124 18.6732 11.9539 21.0305 13.2895 23.049C14.3846 24.7039 15.9817 26.1809 17.4226 27.5133C17.6973 27.7674 17.9665 28.0163 18.2253 28.2601L18.2267 28.2614C18.7059 28.71 19.3424 28.9577 20.001 28.9577C20.6597 28.9577 21.2962 28.71 21.7754 28.2614C22.02 28.0323 22.2736 27.7987 22.5322 27.5604C23.9888 26.2183 25.6084 24.7261 26.7149 23.0501C28.049 21.0295 28.6882 18.6698 27.5047 15.9033C26.2314 12.9269 23.1895 11.041 20.001 11.041ZM13.6466 16.3949C14.7123 13.9038 17.2849 12.291 20.001 12.291C22.7172 12.291 25.2898 13.9038 26.3554 16.3949C27.3321 18.678 26.8393 20.593 25.6718 22.3614C24.6572 23.8982 23.1709 25.2695 21.7099 26.6175C21.4451 26.8618 21.1812 27.1053 20.9211 27.3489C20.6774 27.577 20.3478 27.7077 20.001 27.7077C19.6545 27.7077 19.3251 27.5772 19.0816 27.3494C18.8045 27.0885 18.5231 26.8279 18.2409 26.5665C16.7985 25.2308 15.3358 23.8762 14.332 22.3592C13.1633 20.593 12.6687 18.681 13.6466 16.3949Z" fill="#067647"/>
</svg>
