<svg width="40" height="40" viewBox="0 0 40 40" fill="none" xmlns="http://www.w3.org/2000/svg">
<rect width="40" height="40" rx="20" fill="#ECFDF3"/>
<path fill-rule="evenodd" clip-rule="evenodd" d="M20.0002 14.75C17.653 14.75 15.7502 16.6528 15.7502 19C15.7502 21.3472 17.653 23.25 20.0002 23.25C22.3475 23.25 24.2502 21.3472 24.2502 19C24.2502 16.6528 22.3475 14.75 20.0002 14.75ZM17.2502 19C17.2502 17.4812 18.4815 16.25 20.0002 16.25C21.519 16.25 22.7502 17.4812 22.7502 19C22.7502 20.5188 21.519 21.75 20.0002 21.75C18.4815 21.75 17.2502 20.5188 17.2502 19Z" fill="#1B8354"/>
<path fill-rule="evenodd" clip-rule="evenodd" d="M20.0013 9.25C16.1751 9.25 12.5248 11.513 10.9969 15.0847C9.57494 18.4086 10.3447 21.2373 11.9475 23.6595C13.2615 25.6454 15.1781 27.4178 16.9072 29.0168C17.2368 29.3217 17.5599 29.6204 17.8704 29.9129L17.8721 29.9145C18.4471 30.4528 19.2109 30.75 20.0013 30.75C20.7917 30.75 21.5555 30.4528 22.1305 29.9145C22.424 29.6396 22.7283 29.3592 23.0387 29.0732C24.7866 27.4628 26.7302 25.672 28.058 23.6609C29.6588 21.2362 30.4259 18.4045 29.0057 15.0847C27.4778 11.513 23.8275 9.25 20.0013 9.25ZM12.376 15.6746C13.6548 12.6853 16.7419 10.75 20.0013 10.75C23.2607 10.75 26.3478 12.6853 27.6266 15.6746C28.7986 18.4144 28.2072 20.7124 26.8062 22.8344C25.5886 24.6786 23.8051 26.3242 22.0519 27.9418C21.7342 28.235 21.4175 28.5272 21.1053 28.8195C20.813 29.0932 20.4175 29.25 20.0013 29.25C19.5854 29.25 19.1902 29.0934 18.8979 28.8201C18.5655 28.5069 18.2278 28.1942 17.8891 27.8806C16.1583 26.2778 14.403 24.6523 13.1984 22.8318C11.796 20.7124 11.2024 18.4179 12.376 15.6746Z" fill="#1B8354"/>
</svg>
