<svg width="18" height="16" viewBox="0 0 18 16" fill="none" xmlns="http://www.w3.org/2000/svg">
<g id="elements">
<path id="Icon" fill-rule="evenodd" clip-rule="evenodd" d="M11.4333 0.322297C9.80577 0.281404 8.19415 0.281402 6.56661 0.322292L6.51815 0.323509C5.24746 0.355414 4.22498 0.381086 3.40554 0.523794C2.54763 0.673203 1.85036 0.959768 1.26131 1.55106C0.674722 2.13988 0.389659 2.82712 0.243092 3.67113C0.103534 4.47477 0.0822787 5.4723 0.0559484 6.708L0.0549051 6.75695C0.0371992 7.58724 0.0371996 8.41268 0.0549062 9.24297L0.0559496 9.29192C0.0822809 10.5276 0.103537 11.5251 0.243095 12.3288C0.389663 13.1728 0.674725 13.86 1.26131 14.4489C1.85036 15.0402 2.54763 15.3267 3.40554 15.4761C4.22497 15.6188 5.24743 15.6445 6.5181 15.6764L6.56662 15.6776C8.19415 15.7185 9.80577 15.7185 11.4333 15.6776L11.4818 15.6764C12.7525 15.6445 13.775 15.6188 14.5944 15.4761C15.4523 15.3267 16.1496 15.0402 16.7386 14.4489C17.3252 13.86 17.6103 13.1728 17.7568 12.3288C17.8964 11.5251 17.9176 10.5276 17.944 9.29191L17.945 9.24297C17.9627 8.41269 17.9627 7.58725 17.945 6.75696L17.944 6.70802C17.9176 5.47231 17.8964 4.47479 17.7568 3.67114C17.6103 2.82714 17.3252 2.13989 16.7386 1.55108C16.1496 0.959782 15.4523 0.673217 14.5944 0.523806C13.7749 0.381097 12.7525 0.355422 11.4818 0.323514L11.4333 0.322297ZM6.59801 1.5719C8.20462 1.53153 9.7953 1.53154 11.4019 1.5719C12.7325 1.60533 13.6622 1.63028 14.3799 1.75527C15.0695 1.87537 15.4995 2.07838 15.8531 2.43328C15.998 2.57878 16.1171 2.73542 16.2152 2.9152L11.2644 5.72033C10.2183 6.31304 9.58354 6.54163 9.00004 6.54163C8.41654 6.54163 7.78175 6.31304 6.73567 5.72033L1.7848 2.91513C1.88288 2.73537 2.00193 2.57875 2.14687 2.43327C2.50042 2.07837 2.9304 1.87536 3.62001 1.75526C4.3377 1.63027 5.26745 1.60533 6.59801 1.5719ZM1.43414 4.15315C1.34791 4.813 1.32886 5.64701 1.30462 6.7836C1.28729 7.59612 1.28729 8.4038 1.30462 9.21632C1.33227 10.5126 1.35317 11.4153 1.47466 12.1149C1.59099 12.7848 1.79085 13.2093 2.14687 13.5667C2.50042 13.9216 2.9304 14.1246 3.62001 14.2447C4.33771 14.3697 5.26746 14.3946 6.59801 14.428C8.20462 14.4684 9.7953 14.4684 11.4019 14.428C12.7325 14.3946 13.6622 14.3697 14.3799 14.2447C15.0695 14.1246 15.4995 13.9216 15.8531 13.5667C16.2091 13.2093 16.4089 12.7848 16.5253 12.1149C16.6468 11.4153 16.6677 10.5126 16.6953 9.21632C16.7126 8.4038 16.7126 7.59613 16.6953 6.78361C16.6711 5.64707 16.652 4.81307 16.5658 4.15324L11.8806 6.80788C10.8029 7.41853 9.92712 7.79163 9.00004 7.79163C8.07297 7.79163 7.19719 7.41853 6.11945 6.80788L1.43414 4.15315Z" fill="#067647"/>
</g>
</svg>
