<svg width="20" height="20" viewBox="0 0 20 20" fill="none" xmlns="http://www.w3.org/2000/svg">
    <path
        d="M6.62301 10.2087L6.66634 10.2087C6.91334 10.2087 7.13716 10.3541 7.23748 10.5798L9.0891 14.746L9.35603 12.6106L8.60733 11.1132C8.51045 10.9194 8.52081 10.6893 8.63469 10.5051C8.74857 10.3208 8.94973 10.2087 9.16634 10.2087H10.833C11.0496 10.2087 11.2508 10.3208 11.3647 10.5051C11.4785 10.6893 11.4889 10.9194 11.392 11.1132L10.6433 12.6106L10.9102 14.746L12.7619 10.5798C12.8622 10.3541 13.086 10.2087 13.333 10.2087L13.3763 10.2087C14.1251 10.2086 14.7494 10.2086 15.2451 10.2753C15.7682 10.3456 16.2406 10.5003 16.6201 10.8799C16.9997 11.2594 17.1544 11.7318 17.2248 12.2549C17.2914 12.7506 17.2914 13.3749 17.2913 14.1237V18.3337C17.2913 18.6788 17.0115 18.9587 16.6663 18.9587C16.3212 18.9587 16.0413 18.6788 16.0413 18.3337V14.167C16.0413 13.3637 16.04 12.824 15.9859 12.4215C15.9342 12.0369 15.8448 11.8724 15.7362 11.7638C15.6277 11.6552 15.4631 11.5658 15.0785 11.5141C14.7479 11.4697 14.3248 11.4608 13.739 11.4591L10.5708 18.5875C10.4705 18.8132 10.2467 18.9587 9.99968 18.9587C9.75268 18.9587 9.52886 18.8132 9.42855 18.5875L6.26036 11.4591C5.67459 11.4608 5.25146 11.4697 4.92084 11.5141C4.53629 11.5658 4.3717 11.6552 4.26311 11.7638C4.15451 11.8724 4.06516 12.0369 4.01346 12.4215C3.95934 12.824 3.95801 13.3637 3.95801 14.167L3.95801 18.3337C3.95801 18.6788 3.67819 18.9587 3.33301 18.9587C2.98783 18.9587 2.70801 18.6788 2.70801 18.3337L2.70801 14.1237C2.70799 13.3749 2.70797 12.7506 2.7746 12.2549C2.84494 11.7318 2.99967 11.2594 3.37922 10.8799C3.75878 10.5003 4.23112 10.3456 4.75428 10.2753C5.24993 10.2086 5.87428 10.2086 6.62301 10.2087Z"
        fill="#1B8354" />
    <path fill-rule="evenodd" clip-rule="evenodd"
        d="M9.99968 1.04199C8.04367 1.04199 6.45801 2.62765 6.45801 4.58366V5.41699C6.45801 7.373 8.04367 8.95866 9.99968 8.95866C11.9557 8.95866 13.5413 7.373 13.5413 5.41699L13.5413 4.58366C13.5413 2.62765 11.9557 1.04199 9.99968 1.04199ZM7.70801 4.58366C7.70801 3.31801 8.73402 2.29199 9.99968 2.29199C11.2653 2.29199 12.2913 3.31801 12.2913 4.58366L12.2913 5.41699C12.2913 6.68264 11.2653 7.70866 9.99968 7.70866C8.73402 7.70866 7.70801 6.68264 7.70801 5.41699V4.58366Z"
        fill="#1B8354" />
    <path
        d="M6.62301 10.2087L6.66634 10.2087C6.91334 10.2087 7.13716 10.3541 7.23748 10.5798L9.0891 14.746L9.35603 12.6106L8.60733 11.1132C8.51045 10.9194 8.52081 10.6893 8.63469 10.5051C8.74857 10.3208 8.94973 10.2087 9.16634 10.2087H10.833C11.0496 10.2087 11.2508 10.3208 11.3647 10.5051C11.4785 10.6893 11.4889 10.9194 11.392 11.1132L10.6433 12.6106L10.9102 14.746L12.7619 10.5798C12.8622 10.3541 13.086 10.2087 13.333 10.2087L13.3763 10.2087C14.1251 10.2086 14.7494 10.2086 15.2451 10.2753C15.7682 10.3456 16.2406 10.5003 16.6201 10.8799C16.9997 11.2594 17.1544 11.7318 17.2248 12.2549C17.2914 12.7506 17.2914 13.3749 17.2913 14.1237V18.3337C17.2913 18.6788 17.0115 18.9587 16.6663 18.9587C16.3212 18.9587 16.0413 18.6788 16.0413 18.3337V14.167C16.0413 13.3637 16.04 12.824 15.9859 12.4215C15.9342 12.0369 15.8448 11.8724 15.7362 11.7638C15.6277 11.6552 15.4631 11.5658 15.0785 11.5141C14.7479 11.4697 14.3248 11.4608 13.739 11.4591L10.5708 18.5875C10.4705 18.8132 10.2467 18.9587 9.99968 18.9587C9.75268 18.9587 9.52886 18.8132 9.42855 18.5875L6.26036 11.4591C5.67459 11.4608 5.25146 11.4697 4.92084 11.5141C4.53629 11.5658 4.3717 11.6552 4.26311 11.7638C4.15451 11.8724 4.06516 12.0369 4.01346 12.4215C3.95934 12.824 3.95801 13.3637 3.95801 14.167L3.95801 18.3337C3.95801 18.6788 3.67819 18.9587 3.33301 18.9587C2.98783 18.9587 2.70801 18.6788 2.70801 18.3337L2.70801 14.1237C2.70799 13.3749 2.70797 12.7506 2.7746 12.2549C2.84494 11.7318 2.99967 11.2594 3.37922 10.8799C3.75878 10.5003 4.23112 10.3456 4.75428 10.2753C5.24993 10.2086 5.87428 10.2086 6.62301 10.2087Z"
        stroke="#9DA4AE" />
    <path fill-rule="evenodd" clip-rule="evenodd"
        d="M9.99968 1.04199C8.04367 1.04199 6.45801 2.62765 6.45801 4.58366V5.41699C6.45801 7.373 8.04367 8.95866 9.99968 8.95866C11.9557 8.95866 13.5413 7.373 13.5413 5.41699L13.5413 4.58366C13.5413 2.62765 11.9557 1.04199 9.99968 1.04199ZM7.70801 4.58366C7.70801 3.31801 8.73402 2.29199 9.99968 2.29199C11.2653 2.29199 12.2913 3.31801 12.2913 4.58366L12.2913 5.41699C12.2913 6.68264 11.2653 7.70866 9.99968 7.70866C8.73402 7.70866 7.70801 6.68264 7.70801 5.41699V4.58366Z"
        stroke="#9DA4AE" />
</svg>