<svg xmlns="http://www.w3.org/2000/svg" width="24" height="24" viewBox="0 0 24 24" fill="none">
  <path fill-rule="evenodd" clip-rule="evenodd" d="M12 23C18.0751 23 23 18.0751 23 12C23 5.92487 18.0751 1 12 1C5.92487 1 1 5.92487 1 12C1 18.0751 5.92487 23 12 23Z" fill="white"/>
  <path fill-rule="evenodd" clip-rule="evenodd" d="M12 23C18.0751 23 23 18.0751 23 12C23 5.92487 18.0751 1 12 1C5.92487 1 1 5.92487 1 12C1 18.0751 5.92487 23 12 23ZM7.05022 11.1213C6.65969 11.5118 6.65969 12.145 7.05022 12.5355L9.87864 15.364C10.2692 15.7545 10.9023 15.7545 11.2929 15.364L16.9497 9.70711C17.3402 9.31658 17.3402 8.68342 16.9497 8.29289C16.5592 7.90237 15.926 7.90237 15.5355 8.29289L10.5858 13.2426L8.46443 11.1213C8.07391 10.7308 7.44074 10.7308 7.05022 11.1213Z" fill="#067647"/>
</svg>
