<svg xmlns="http://www.w3.org/2000/svg" width="24" height="24" viewBox="0 0 24 24" fill="none">
  <path fill-rule="evenodd" clip-rule="evenodd" d="M12.8585 2.95816C12.4701 2.31082 11.5319 2.31082 11.1435 2.95816L0.909677 20.0145C0.509762 20.681 0.989874 21.529 1.76717 21.529H22.2348C23.0121 21.529 23.4922 20.681 23.0923 20.0145L12.8585 2.95816Z" fill="white"/>
  <path fill-rule="evenodd" clip-rule="evenodd" d="M12.8585 2.95816C12.4701 2.31082 11.5319 2.31082 11.1435 2.95816L0.909677 20.0145C0.509762 20.681 0.989874 21.529 1.76717 21.529H22.2348C23.0121 21.529 23.4922 20.681 23.0923 20.0145L12.8585 2.95816ZM12.001 8.52901C11.4487 8.52901 11.001 8.97672 11.001 9.52901V13.529C11.001 14.0813 11.4487 14.529 12.001 14.529C12.5533 14.529 13.001 14.0813 13.001 13.529V9.52901C13.001 8.97672 12.5533 8.52901 12.001 8.52901ZM12.001 16.529C11.4487 16.529 11.001 16.9767 11.001 17.529C11.001 18.0813 11.4487 18.529 12.001 18.529C12.5533 18.529 13.001 18.0813 13.001 17.529C13.001 16.9767 12.5533 16.529 12.001 16.529Z" fill="#B54708"/>
</svg>
