<svg width="40" height="40" viewBox="0 0 40 40" fill="none" xmlns="http://www.w3.org/2000/svg">
<path d="M0 20C0 8.95431 8.95431 0 20 0C31.0457 0 40 8.95431 40 20C40 31.0457 31.0457 40 20 40C8.95431 40 0 31.0457 0 20Z" fill="#ECFDF3"/>
<path d="M19.1654 24.3753C18.8202 24.3753 18.5404 24.6551 18.5404 25.0003C18.5404 25.3455 18.8202 25.6253 19.1654 25.6253H20.832C21.1772 25.6253 21.457 25.3455 21.457 25.0003C21.457 24.6551 21.1772 24.3753 20.832 24.3753H19.1654Z" fill="#067647"/>
<path fill-rule="evenodd" clip-rule="evenodd" d="M18.2039 15.2085L18.2725 15.2087H21.7249L21.7936 15.2085C22.0535 15.2079 22.3256 15.2072 22.5637 15.2905C22.9826 15.4371 23.312 15.7664 23.4586 16.1853C23.5419 16.4234 23.5412 16.6956 23.5405 16.9555L23.5404 17.0241L23.5404 17.5543C23.5405 17.889 23.5406 18.1291 23.5071 18.3407C23.3235 19.4996 22.4146 20.4084 21.2557 20.592C21.1203 20.6134 20.8748 20.6191 20.6718 20.6221C20.4461 20.6253 20.1931 20.6253 20.0007 20.6253H19.9967C19.8043 20.6253 19.5513 20.6253 19.3256 20.6221C19.1226 20.6191 18.8771 20.6134 18.7417 20.592C17.5828 20.4084 16.674 19.4996 16.4904 18.3407C16.4569 18.1291 16.457 17.889 16.4571 17.5543L16.4571 17.0241L16.4569 16.9555C16.4563 16.6956 16.4556 16.4234 16.5389 16.1853C16.6855 15.7664 17.0148 15.4371 17.4337 15.2905C17.6718 15.2072 17.944 15.2079 18.2039 15.2085ZM17.8442 16.4712C17.7863 16.4923 17.7407 16.5379 17.7196 16.5958C17.7185 16.601 17.7147 16.6217 17.7118 16.6699C17.7073 16.7472 17.7071 16.8506 17.7071 17.0241V17.5003C17.7071 17.9113 17.709 18.044 17.725 18.1451C17.8239 18.7691 18.3133 19.2585 18.9373 19.3574L18.9359 19.3572C18.9359 19.3572 18.9448 19.3583 18.9664 19.3599C18.9903 19.3617 19.0218 19.3634 19.0607 19.3651C19.1385 19.3683 19.2357 19.3706 19.3437 19.3722C19.5596 19.3753 19.8043 19.3753 19.9987 19.3753C20.1932 19.3753 20.4379 19.3753 20.6537 19.3722C20.7618 19.3706 20.8589 19.3683 20.9368 19.3651C20.9757 19.3634 21.0071 19.3617 21.0311 19.3599C21.0526 19.3583 21.0616 19.3572 21.0616 19.3572L21.0602 19.3574C21.6842 19.2585 22.1736 18.7691 22.2724 18.1451C22.2885 18.044 22.2904 17.9113 22.2904 17.5003V17.0241C22.2904 16.8506 22.2901 16.7472 22.2856 16.6699C22.2828 16.6217 22.279 16.601 22.2779 16.5958C22.2568 16.5379 22.2112 16.4923 22.1532 16.4712C22.148 16.4701 22.1274 16.4663 22.0791 16.4634C22.0018 16.4589 21.8985 16.4587 21.7249 16.4587H18.2725C18.099 16.4587 17.9956 16.4589 17.9183 16.4634C17.8701 16.4663 17.8494 16.4701 17.8442 16.4712Z" fill="#067647"/>
<path fill-rule="evenodd" clip-rule="evenodd" d="M15.207 11.667C15.207 11.3218 14.9272 11.042 14.582 11.042C14.2369 11.042 13.957 11.3218 13.957 11.667V13.3337C13.957 13.3337 13.957 13.3337 13.957 13.3337V22.917C13.957 26.2537 16.662 28.9587 19.9987 28.9587C23.3354 28.9587 26.0404 26.2537 26.0404 22.917L26.0404 16.6237C26.0404 15.8749 26.0404 15.2506 25.9738 14.7549C25.9034 14.2318 25.7487 13.7594 25.3692 13.3799C24.9896 13.0003 24.5173 12.8456 23.9941 12.7753C23.4984 12.7086 22.8741 12.7086 22.1254 12.7087L15.207 12.7087L15.207 11.667ZM22.082 13.9587C22.8854 13.9587 23.425 13.96 23.8275 14.0141C24.2121 14.0658 24.3767 14.1552 24.4853 14.2638C24.5939 14.3724 24.6832 14.5369 24.7349 14.9215C24.789 15.324 24.7904 15.8637 24.7904 16.667V22.917C24.7904 25.5634 22.6451 27.7087 19.9987 27.7087C17.3523 27.7087 15.207 25.5634 15.207 22.917V13.9587H22.082Z" fill="#067647"/>
</svg>
