<svg width="40" height="40" viewBox="0 0 40 40" fill="none" xmlns="http://www.w3.org/2000/svg">
<rect width="40" height="40" rx="20" fill="#ECFDF3"/>
<path d="M19 25.25C18.5858 25.25 18.25 25.5858 18.25 26C18.25 26.4142 18.5858 26.75 19 26.75H21C21.4142 26.75 21.75 26.4142 21.75 26C21.75 25.5858 21.4142 25.25 21 25.25H19Z" fill="#1B8354"/>
<path fill-rule="evenodd" clip-rule="evenodd" d="M17.8462 14.2499L17.9286 14.25H22.0715L22.1538 14.2499C22.4658 14.2491 22.7923 14.2482 23.078 14.3482C23.5807 14.5241 23.9759 14.9193 24.1518 15.422C24.2518 15.7077 24.251 16.0343 24.2502 16.3462L24.25 16.4286L24.25 17.0647C24.2502 17.4664 24.2502 17.7545 24.21 18.0084C23.9898 19.3991 22.8991 20.4897 21.5085 20.71C21.346 20.7357 21.0513 20.7425 20.8078 20.7461C20.5369 20.75 20.2333 20.75 20.0025 20.75H19.9976C19.7667 20.75 19.4632 20.75 19.1923 20.7461C18.9487 20.7425 18.6541 20.7357 18.4916 20.71C17.101 20.4897 16.0103 19.3991 15.7901 18.0084C15.7498 17.7545 15.7499 17.4664 15.75 17.0647L15.75 16.4286L15.7499 16.3462C15.7491 16.0343 15.7483 15.7077 15.8482 15.422C16.0241 14.9193 16.4194 14.5241 16.922 14.3482C17.2078 14.2482 17.5343 14.2491 17.8462 14.2499ZM17.4146 15.7651C17.3451 15.7903 17.2903 15.8451 17.2651 15.9146C17.2637 15.9209 17.2592 15.9456 17.2558 16.0035C17.2503 16.0963 17.25 16.2203 17.25 16.4286V17C17.25 17.4932 17.2524 17.6524 17.2716 17.7738C17.3902 18.5226 17.9775 19.1099 18.7263 19.2285L18.7246 19.2282C18.7246 19.2282 18.7353 19.2295 18.7612 19.2315C18.79 19.2336 18.8277 19.2357 18.8744 19.2377C18.9678 19.2416 19.0844 19.2444 19.2141 19.2462C19.4731 19.25 19.7667 19.25 20 19.25C20.2334 19.25 20.527 19.25 20.786 19.2462C20.9157 19.2444 21.0323 19.2416 21.1257 19.2377C21.1724 19.2357 21.2101 19.2336 21.2389 19.2315C21.2647 19.2295 21.2755 19.2282 21.2755 19.2282L21.2738 19.2285C22.0226 19.1099 22.6099 18.5226 22.7285 17.7738C22.7477 17.6524 22.75 17.4932 22.75 17V16.4286C22.75 16.2203 22.7497 16.0963 22.7443 16.0035C22.7409 15.9456 22.7363 15.9209 22.735 15.9146C22.7097 15.8451 22.655 15.7903 22.5855 15.7651C22.5792 15.7637 22.5544 15.7591 22.4965 15.7557C22.4037 15.7503 22.2797 15.75 22.0715 15.75H17.9286C17.7203 15.75 17.5963 15.7503 17.5035 15.7557C17.4457 15.7591 17.4209 15.7637 17.4146 15.7651Z" fill="#1B8354"/>
<path fill-rule="evenodd" clip-rule="evenodd" d="M14.25 10C14.25 9.58579 13.9142 9.25 13.5 9.25C13.0858 9.25 12.75 9.58579 12.75 10V12C12.75 12 12.75 12 12.75 12V23.5C12.75 27.5041 15.9959 30.75 20 30.75C24.0041 30.75 27.25 27.5041 27.25 23.5L27.25 15.948C27.25 15.0495 27.2501 14.3003 27.1701 13.7055C27.0857 13.0777 26.9 12.5109 26.4445 12.0555C25.9891 11.6 25.4223 11.4143 24.7945 11.3299C24.1997 11.2499 23.4505 11.25 22.552 11.25L14.25 11.25L14.25 10ZM22.5 12.75C23.464 12.75 24.1116 12.7516 24.5946 12.8165C25.0561 12.8786 25.2536 12.9858 25.3839 13.1161C25.5142 13.2464 25.6214 13.4439 25.6835 13.9054C25.7484 14.3884 25.75 15.036 25.75 16V23.5C25.75 26.6756 23.1756 29.25 20 29.25C16.8244 29.25 14.25 26.6756 14.25 23.5V12.75H22.5Z" fill="#1B8354"/>
</svg>
