<svg width="48" height="48" viewBox="0 0 48 48" fill="none" xmlns="http://www.w3.org/2000/svg">
    <path
        d="M18.4461 30.606C18.4469 30.6058 18.4507 30.6173 18.9999 32L19.5537 30.606C19.1981 30.4647 18.8018 30.4647 18.4461 30.606Z"
        fill="#D2D6DB" />
    <path fill-rule="evenodd" clip-rule="evenodd"
        d="M27.8772 24.5133C28.7968 24.5303 29.6098 24.5693 30.3179 24.6581C30.9234 24.7341 31.5001 24.8514 32.0393 25.0428L33.6856 14.0344C32.9583 12.9339 32.5654 11.8461 32.5074 10.7596C32.433 9.36461 32.9222 8.18919 33.5574 7.23269C34.1766 6.30029 34.9906 5.49504 35.6663 4.83841L35.8069 4.7018C36.4682 4.05975 36.9562 3.58592 37.2746 3.13496C37.5556 2.7368 38.0126 2.50001 38.5 2.5C38.9873 2.49999 39.4443 2.73676 39.7254 3.1349C40.0437 3.58584 40.5317 4.05962 41.1929 4.70157L41.3338 4.8384C42.0094 5.49504 42.8234 6.30029 43.4426 7.23271C44.0778 8.18922 44.567 9.36465 44.4925 10.7597C44.427 11.9876 43.9337 13.2172 43.0131 14.465L45.1687 35.1619C45.3727 37.1199 45.5426 38.7511 45.4902 40.0519C45.4347 41.4278 45.1257 42.6863 44.1581 43.7129C43.2003 44.7291 41.9557 45.1366 40.567 45.3223C39.237 45.5001 37.5408 45.5001 35.4813 45.5H34.0034L34 45.5L8.19883 45.5C7.26332 45.5001 6.42542 45.5002 5.74761 45.4151C5.01576 45.3233 4.24603 45.1099 3.60411 44.5108C2.94751 43.898 2.69899 43.1391 2.59373 42.4084C2.49971 41.7557 2.49983 40.9556 2.49995 40.0938L2.49995 33.8901C2.49988 32.0983 2.49982 30.5936 2.67219 29.397C2.8559 28.1217 3.26133 26.9807 4.23174 26.075C5.18747 25.183 6.36665 24.8232 7.68203 24.6581C7.83867 24.6385 8.00044 24.6213 8.16737 24.6062C7.61424 23.4577 7.40464 22.3138 7.53959 21.175C7.76048 19.311 8.86953 17.8087 10.0713 16.6207C11.1802 15.5245 12.5329 14.5408 13.7077 13.6864L14.0082 13.4677C15.1027 12.6696 15.9511 12.0232 16.4999 11.4471V9.03C15.3081 8.37738 14.4999 7.1115 14.4999 5.65685C14.4999 4.59601 14.9317 3.63317 15.6256 2.93934C16.2114 2.35355 17.1611 2.35355 17.7469 2.93934C18.3327 3.52513 18.3327 4.47487 17.7469 5.06066C17.5927 5.21488 17.4999 5.42361 17.4999 5.65685C17.4999 6.12251 17.8774 6.5 18.3431 6.5C18.5763 6.5 18.7851 6.40727 18.9393 6.25305C19.5251 5.66726 20.4748 5.66726 21.0606 6.25305C21.6464 6.83884 21.6464 7.78858 21.0606 8.37437C20.6303 8.8047 20.0964 9.13424 19.4999 9.32247L19.4999 11.4467C20.0489 12.023 20.8974 12.6694 21.9921 13.4677L22.2926 13.6863C23.4674 14.5407 24.8202 15.5245 25.9292 16.6207C27.131 17.8087 28.2401 19.311 28.461 21.175C28.5923 22.2831 28.3974 23.396 27.8772 24.5133ZM24.3711 24.5L11.6295 24.5C10.6216 23.2099 10.4338 22.2452 10.5187 21.5281C10.6219 20.6577 11.1692 19.7538 12.1803 18.7543C13.1199 17.8255 14.2928 16.9715 15.5091 16.0859L15.7757 15.8917C16.5154 15.3523 17.307 14.7716 18.0001 14.1573C18.6933 14.7716 19.4849 15.3524 20.2247 15.8917L20.4911 16.0858C21.7075 16.9714 22.8806 17.8255 23.8202 18.7543C24.8313 19.7538 25.3787 20.6577 25.4818 21.5281C25.5668 22.2452 25.3789 23.2099 24.3711 24.5ZM34.7468 27.2219C34.7406 27.2635 34.7327 27.3045 34.7232 27.3448C35.0422 27.9714 35.2218 28.6619 35.3277 29.397C35.5001 30.5936 35.5 32.0982 35.5 33.89L35.5 42.5C37.625 42.4998 39.083 42.494 40.1695 42.3487C41.2415 42.2054 41.6925 41.9549 41.975 41.6552C42.2478 41.3658 42.452 40.9389 42.4926 39.9311C42.5352 38.8733 42.3918 37.4602 42.173 35.3594L40.1046 15.5H36.4998L34.7468 27.2219ZM32.5 34L32.5 42.5L29.9999 42.5L29.9965 42.5H25.4998V40.0042C25.5185 36.5329 24.0545 34.1653 22.5717 32.6875C21.8395 31.9579 21.1075 31.448 20.5545 31.1181C20.277 30.9525 20.0411 30.8302 19.8682 30.7468C19.7816 30.705 19.7104 30.6727 19.6572 30.6495C19.6306 30.6379 19.6085 30.6285 19.5911 30.6212L19.5687 30.612L19.5603 30.6086L19.5568 30.6072C19.556 30.6069 19.5537 30.606 18.9999 32L18.4461 30.606L18.4431 30.6072L18.4396 30.6086L18.4311 30.612L18.4087 30.6212C18.3914 30.6285 18.3693 30.6379 18.3427 30.6495C18.2895 30.6727 18.2183 30.705 18.1317 30.7468C17.9587 30.8302 17.7229 30.9525 17.4453 31.1181C16.8924 31.448 16.1604 31.9579 15.4282 32.6875C13.9454 34.1653 12.4814 36.5329 12.5001 40.0042L12.5001 42.5H8.28567C7.23587 42.5 6.58948 42.4972 6.12113 42.4384C5.90297 42.4111 5.78239 42.3775 5.71754 42.3526C5.66675 42.3331 5.6535 42.3201 5.65074 42.3174C5.64968 42.3169 5.64682 42.3153 5.6373 42.2938C5.62111 42.257 5.59003 42.1678 5.56309 41.9807C5.5036 41.5678 5.49996 40.9882 5.49996 40L5.49996 34C5.49996 32.069 5.5036 30.7823 5.64154 29.8248C5.77164 28.9216 5.99384 28.534 6.27869 28.2682C6.57821 27.9886 7.03682 27.7626 8.05555 27.6348C9.10743 27.5028 10.5114 27.5 12.5714 27.5L25.4285 27.5C27.4885 27.5 28.8925 27.5028 29.9444 27.6348C30.9631 27.7626 31.4217 27.9886 31.7212 28.2682C32.0061 28.534 32.2283 28.9216 32.3584 29.8248C32.4963 30.7823 32.5 32.069 32.5 34ZM15.5001 42.5L22.4998 42.5L22.4998 39.9914C22.5144 37.465 21.4791 35.8341 20.454 34.8125C19.9319 34.2921 19.4074 33.927 19.0175 33.6944L18.9999 33.684L18.9824 33.6944C18.5925 33.927 18.068 34.2921 17.5459 34.8125C16.5208 35.8341 15.4855 37.465 15.5001 39.9914L15.5001 40L15.5001 42.5ZM35.5032 10.5998C35.528 11.0654 35.7075 11.6887 36.2691 12.5H40.7308C41.2925 11.6887 41.4719 11.0654 41.4968 10.5997C41.5266 10.0416 41.3459 9.49828 40.9435 8.89229C40.5251 8.26221 39.9338 7.66121 39.2429 6.98972L39.0562 6.80883C38.8769 6.63537 38.6888 6.45333 38.5 6.26471C38.3112 6.45336 38.123 6.63543 37.9437 6.80893L37.7571 6.98972C37.0663 7.66121 36.475 8.26221 36.0565 8.89231C35.6541 9.49831 35.4734 10.0416 35.5032 10.5998Z"
        fill="#D2D6DB" />
</svg>