<svg width="16" height="15" viewBox="0 0 16 15" fill="none" xmlns="http://www.w3.org/2000/svg">
<path fill-rule="evenodd" clip-rule="evenodd" d="M10.1346 0.69625C10.9244 0.226574 11.8984 0.211855 12.7016 0.657774C13.0347 0.842747 13.3386 1.15341 13.7906 1.61542L13.9133 1.7408C14.3669 2.20382 14.6704 2.51371 14.8507 2.85248C15.2831 3.66522 15.269 4.64842 14.8132 5.44808C14.6233 5.78141 14.3109 6.08213 13.8443 6.53126L7.43182 12.7075C6.51126 13.5945 5.94386 14.1412 5.22591 14.4216C4.50691 14.7024 3.72514 14.6818 2.46034 14.6485L2.1357 14.64C1.95034 14.6352 1.76295 14.6304 1.60824 14.6046C1.43055 14.5749 1.2195 14.5068 1.05254 14.3173C0.887067 14.1295 0.844605 13.9128 0.834669 13.7345C0.825884 13.5769 0.84064 13.388 0.85547 13.1982L0.882748 12.8481C0.968936 11.7397 1.02162 11.0621 1.28917 10.4463C1.55707 9.82967 2.01473 9.33397 2.76144 8.52519L9.07375 1.68611C9.5123 1.21064 9.80705 0.891081 10.1346 0.69625ZM12.2162 1.53207C11.7243 1.25901 11.1299 1.26785 10.6458 1.55573C10.4602 1.6661 10.2699 1.86455 9.74851 2.42946L9.69414 2.48838L13.0824 5.87663L13.088 5.87126C13.6403 5.33922 13.8354 5.1442 13.9444 4.95294C14.2303 4.45139 14.2393 3.83236 13.9678 3.32217C13.8643 3.12757 13.6748 2.92667 13.138 2.37832C12.6005 1.82926 12.4047 1.63674 12.2162 1.53207ZM3.55899 9.1355L9.01535 3.2238L12.362 6.57047L6.81885 11.9094C5.79049 12.8999 5.37128 13.2912 4.86209 13.4901C4.354 13.6886 3.78841 13.6829 2.37527 13.6459L2.18861 13.6411C2.08227 13.6383 1.99803 13.636 1.92571 13.6322C1.88823 13.6303 1.85742 13.6281 1.83188 13.6256C1.83214 13.5454 1.84029 13.4321 1.8545 13.2497L1.8725 13.0187C1.9684 11.7876 2.01365 11.2883 2.20635 10.8448C2.39867 10.4021 2.7296 10.0341 3.55899 9.1355Z" fill="#161616"/>
<path d="M9.33203 13.6667C9.05589 13.6667 8.83203 13.8906 8.83203 14.1667C8.83203 14.4429 9.05589 14.6667 9.33203 14.6667H14.6654C14.9415 14.6667 15.1654 14.4429 15.1654 14.1667C15.1654 13.8906 14.9415 13.6667 14.6654 13.6667H9.33203Z" fill="#161616"/>
</svg>
