<svg width="16" height="15" viewBox="0 0 16 15" fill="none" xmlns="http://www.w3.org/2000/svg">
<path d="M6.86729 9.53833C6.95862 9.621 7.0773 9.66568 7.19997 9.66568C7.21197 9.66568 7.22397 9.66504 7.23597 9.66437C7.37131 9.65437 7.49664 9.59036 7.5833 9.48703L10.3833 6.1537C10.5606 5.94236 10.5333 5.62701 10.322 5.44901C10.1106 5.27168 9.79462 5.299 9.61729 5.51034L7.14864 8.44901L6.3333 7.72101C6.1273 7.53701 5.81131 7.55499 5.62731 7.76099C5.44331 7.96699 5.46129 8.28298 5.66729 8.46698L6.86729 9.53833Z" fill="#161616"/>
<path fill-rule="evenodd" clip-rule="evenodd" d="M6.30802 13.6331C6.71334 14.0691 7.26797 14.6657 7.99992 14.6657C8.73186 14.6657 9.28649 14.0691 9.69182 13.6331L9.70228 13.6219C9.77179 13.5473 9.83753 13.4768 9.8966 13.4177C10.2653 13.0497 10.4446 12.975 10.9653 12.975C11.0419 12.975 11.1242 12.9775 11.209 12.9801L11.2179 12.9803C11.7639 12.9963 12.5112 13.0177 13.0126 12.521C13.5179 12.0197 13.4966 11.267 13.4806 10.7177L13.4803 10.7088C13.4777 10.6239 13.4752 10.5417 13.4752 10.465C13.4752 9.94437 13.5552 9.759 13.9532 9.361C14.7352 8.57967 15.1659 8.14834 15.1659 7.49967C15.1659 6.85104 14.7353 6.42039 13.9534 5.63847C13.556 5.24047 13.4752 5.05504 13.4752 4.53438C13.4752 4.45772 13.4777 4.37547 13.4803 4.29062L13.4806 4.28171C13.4966 3.73171 13.5179 2.9797 13.0126 2.4777C12.5112 1.98104 11.7646 2.00236 11.2186 2.01836L11.206 2.01874C11.1219 2.02127 11.0415 2.0237 10.9653 2.0237C10.5093 2.0237 10.2099 1.89437 9.86125 1.5457C9.07991 0.763703 8.64859 0.333008 7.99992 0.333008C7.35129 0.333008 6.92064 0.763658 6.13871 1.54558C5.79005 1.89425 5.49059 2.0237 5.03459 2.0237C4.95781 2.0237 4.87673 2.02124 4.79253 2.01868L4.78192 2.01836C4.23192 2.00236 3.47991 1.98103 2.97791 2.48636C2.48125 2.98769 2.50257 3.73504 2.51857 4.28037L2.51895 4.29306C2.52149 4.37712 2.52391 4.45749 2.52391 4.53366C2.52391 4.98966 2.39458 5.28903 2.04591 5.6377C1.26391 6.41903 0.833252 6.85036 0.833252 7.49902C0.833252 8.14769 1.26391 8.57835 2.04591 9.36035C2.44324 9.75835 2.52391 9.94372 2.52391 10.4644C2.52391 10.541 2.52142 10.6232 2.51884 10.708L2.51857 10.717C2.50257 11.2663 2.48126 12.019 2.98726 12.521C3.48859 13.0177 4.23592 12.9963 4.78192 12.9803L4.79083 12.9801C4.87568 12.9775 4.95794 12.975 5.03459 12.975C5.55525 12.975 5.73524 13.049 6.10324 13.417C6.16524 13.4797 6.23468 13.5538 6.30802 13.6331ZM6.80991 12.7097C6.25258 12.1537 5.82125 11.975 5.03459 11.975L5.03325 11.9743C4.94788 11.9743 4.85693 11.9768 4.76281 11.9794L4.74748 11.9798C4.36225 11.9905 3.88584 12.0036 3.68993 11.8097C3.49259 11.613 3.5059 11.1317 3.51724 10.7443L3.51753 10.7335C3.5201 10.6393 3.52258 10.5484 3.52258 10.463C3.52258 9.67635 3.32459 9.22634 2.75125 8.65234L2.74318 8.64426C2.17467 8.0751 1.83192 7.73195 1.83192 7.49772C1.83192 7.26239 2.17792 6.91637 2.75125 6.34303C3.28459 5.81037 3.52258 5.25169 3.52258 4.53236C3.52258 4.44685 3.52013 4.35644 3.51758 4.26232L3.51724 4.24967C3.5059 3.86501 3.49192 3.3857 3.68726 3.18903C3.88392 2.9917 4.36525 3.00501 4.75259 3.01634L4.76345 3.01664C4.85758 3.0192 4.94852 3.02168 5.0339 3.02168C5.75257 3.02168 6.31125 2.78369 6.84458 2.25036C7.41791 1.67702 7.76393 1.33102 7.99927 1.33102C8.23459 1.33102 8.58055 1.67698 9.15382 2.25026C9.68649 2.78359 10.2453 3.02168 10.9646 3.02168C11.0501 3.02168 11.1404 3.01923 11.2345 3.01669L11.2472 3.01634C11.6319 3.00501 12.1113 2.99103 12.3079 3.18636C12.5053 3.38303 12.4919 3.86436 12.4806 4.25169L12.4803 4.26269C12.4777 4.35677 12.4752 4.44766 12.4752 4.53301C12.4752 5.31967 12.6733 5.76969 13.2466 6.34369L13.2542 6.3513C13.823 6.92074 14.1659 7.26408 14.1659 7.49837C14.1659 7.73371 13.8306 8.06966 13.2466 8.653C12.6626 9.23633 12.4752 9.67634 12.4752 10.4637C12.4752 10.5491 12.4777 10.6401 12.4803 10.7342L12.4806 10.7451C12.4919 11.1317 12.5053 11.613 12.3079 11.8097C12.1113 12.005 11.6312 11.991 11.2459 11.9797L11.2349 11.9794C11.1408 11.9768 11.0499 11.9743 10.9646 11.9743C10.1779 11.9743 9.74658 12.153 9.18924 12.7097C9.11889 12.7801 9.04796 12.8563 8.97308 12.9368L8.95652 12.9546C8.67677 13.255 8.29496 13.665 7.99992 13.665C7.70392 13.665 7.32058 13.253 7.04058 12.9517C7.02933 12.9397 7.01818 12.9278 7.0071 12.9159C6.9394 12.8436 6.87465 12.7744 6.80991 12.7097Z" fill="#161616"/>
</svg>
