<svg width="16" height="15" viewBox="0 0 16 15" fill="none" xmlns="http://www.w3.org/2000/svg">
<path fill-rule="evenodd" clip-rule="evenodd" d="M7.99992 14.6668C4.04188 14.6668 0.833252 11.4582 0.833252 7.50016C0.833252 3.54212 4.04188 0.333496 7.99992 0.333496C11.958 0.333496 15.1666 3.54212 15.1666 7.50016C15.1666 11.4582 11.958 14.6668 7.99992 14.6668ZM1.83325 7.50016C1.83325 10.9059 4.59416 13.6668 7.99992 13.6668C9.5228 13.6668 10.9168 13.1148 11.9926 12.1999L3.30014 3.50749C2.38528 4.58333 1.83325 5.97728 1.83325 7.50016ZM12.6997 11.4928C13.6146 10.417 14.1666 9.02305 14.1666 7.50016C14.1666 4.09441 11.4057 1.3335 7.99992 1.3335C6.47703 1.3335 5.08308 1.88552 4.00725 2.80039L12.6997 11.4928Z" fill="#B42318"/>
</svg>
