<svg width="16" height="11" viewBox="0 0 16 11" fill="none" xmlns="http://www.w3.org/2000/svg">
<path fill-rule="evenodd" clip-rule="evenodd" d="M7.9987 8.00004C6.61799 8.00004 5.4987 6.88075 5.4987 5.50004C5.4987 4.11933 6.61799 3.00004 7.9987 3.00004C9.37941 3.00004 10.4987 4.11933 10.4987 5.50004C10.4987 6.88075 9.37941 8.00004 7.9987 8.00004ZM6.4987 5.50004C6.4987 6.32847 7.17027 7.00004 7.9987 7.00004C8.82713 7.00004 9.4987 6.32847 9.4987 5.50004C9.4987 4.67161 8.82713 4.00004 7.9987 4.00004C7.17027 4.00004 6.4987 4.67161 6.4987 5.50004Z" fill="#161616"/>
<path fill-rule="evenodd" clip-rule="evenodd" d="M7.9987 0.333374C6.28499 0.333374 4.816 1.08765 3.6789 1.97536C2.54078 2.86388 1.69954 3.9132 1.22897 4.57305L1.19349 4.62253C1.02472 4.85725 0.832031 5.12524 0.832031 5.50004C0.832031 5.87485 1.02472 6.14283 1.19349 6.37755L1.22897 6.42703C1.69954 7.08688 2.54078 8.1362 3.6789 9.02472C4.816 9.91244 6.28499 10.6667 7.9987 10.6667C9.71241 10.6667 11.1814 9.91244 12.3185 9.02472C13.4566 8.1362 14.2979 7.08688 14.7684 6.42703L14.8039 6.37755C14.9727 6.14283 15.1654 5.87484 15.1654 5.50004C15.1654 5.12524 14.9727 4.85725 14.8039 4.62253L14.7684 4.57305C14.2979 3.9132 13.4566 2.86388 12.3185 1.97536C11.1814 1.08765 9.71241 0.333374 7.9987 0.333374ZM2.04314 5.15368C2.48328 4.5365 3.26028 3.57083 4.29427 2.7636C5.32928 1.95558 6.58626 1.33337 7.9987 1.33337C9.41114 1.33337 10.6681 1.95558 11.7031 2.7636C12.7371 3.57083 13.5141 4.5365 13.9543 5.15367C14.0631 5.30635 14.115 5.38091 14.1458 5.44026C14.1655 5.47798 14.1654 5.48832 14.1654 5.49845L14.1654 5.50004L14.1654 5.50164C14.1654 5.51176 14.1655 5.5221 14.1458 5.55983C14.115 5.61917 14.0631 5.69373 13.9543 5.84641C13.5141 6.46358 12.7371 7.42926 11.7031 8.23648C10.6681 9.0445 9.41114 9.66671 7.9987 9.66671C6.58626 9.66671 5.32928 9.0445 4.29427 8.23648C3.26028 7.42926 2.48328 6.46358 2.04315 5.84641C1.93426 5.69373 1.88244 5.61917 1.85155 5.55983C1.83192 5.5221 1.83197 5.51176 1.83203 5.50164L1.83203 5.50004L1.83203 5.49845C1.83197 5.48832 1.83192 5.47798 1.85155 5.44026C1.88244 5.38091 1.93426 5.30635 2.04314 5.15368Z" fill="#161616"/>
</svg>
