<svg width="22" height="22" viewBox="0 0 22 22" fill="none" xmlns="http://www.w3.org/2000/svg">
<path d="M9.99219 15C9.99219 14.4477 10.4399 14 10.9922 14H11.0012C11.5535 14 12.0012 14.4477 12.0012 15C12.0012 15.5523 11.5535 16 11.0012 16H10.9922C10.4399 16 9.99219 15.5523 9.99219 15Z" fill="#B54708"/>
<path d="M10.25 12C10.25 12.4142 10.5858 12.75 11 12.75C11.4142 12.75 11.75 12.4142 11.75 12V8C11.75 7.58579 11.4142 7.25 11 7.25C10.5858 7.25 10.25 7.58579 10.25 8V12Z" fill="#B54708"/>
<path fill-rule="evenodd" clip-rule="evenodd" d="M9.36199 1.015C10.4264 0.661666 11.5736 0.661666 12.638 1.015C13.6981 1.36687 14.5304 2.20141 15.3665 3.37395C16.1999 4.5426 17.1208 6.17206 18.3078 8.2725L18.3544 8.35496C19.5417 10.4557 20.4625 12.0851 21.0364 13.4065C21.613 14.7343 21.9002 15.8807 21.6711 16.9821C21.4403 18.0911 20.8714 19.0995 20.0428 19.8617C19.2162 20.622 18.0907 20.9428 16.6736 21.0968C15.2645 21.25 13.4212 21.25 11.0488 21.25H10.9513C8.57882 21.25 6.73554 21.25 5.32642 21.0968C3.90927 20.9428 2.78379 20.622 1.95722 19.8617C1.12862 19.0995 0.55968 18.0911 0.328953 16.9821C0.0997984 15.8807 0.387 14.7343 0.963655 13.4065C1.53752 12.0851 2.45835 10.4557 3.64558 8.35495L3.69218 8.2725C4.87921 6.17207 5.80008 4.5426 6.63347 3.37395C7.46963 2.20141 8.30194 1.36687 9.36199 1.015ZM12.1655 2.43862C11.4078 2.18713 10.5922 2.18713 9.83454 2.43862C9.23856 2.63645 8.63943 3.1445 7.85474 4.24486C7.07275 5.34143 6.18998 6.90144 4.97466 9.05193C3.75941 11.2023 2.87825 12.7635 2.33951 14.004C1.79983 15.2467 1.66463 16.0379 1.7975 16.6766C1.96511 17.4821 2.37754 18.2102 2.97272 18.7577C3.44016 19.1877 4.16852 19.4621 5.48854 19.6056C6.80696 19.7489 8.56861 19.75 11 19.75C13.4314 19.75 15.193 19.7489 16.5115 19.6056C17.8315 19.4621 18.5599 19.1877 19.0273 18.7577C19.6225 18.2102 20.0349 17.4821 20.2025 16.6766C20.3354 16.0379 20.2002 15.2467 19.6605 14.004C19.1218 12.7635 18.2406 11.2023 17.0254 9.05193C15.81 6.90144 14.9273 5.34143 14.1453 4.24486C13.3606 3.1445 12.7615 2.63645 12.1655 2.43862Z" fill="#B54708"/>
</svg>
