<svg width="30" height="30" viewBox="0 0 30 30" fill="none" xmlns="http://www.w3.org/2000/svg">
<path fill-rule="evenodd" clip-rule="evenodd" d="M11.732 0.666504H11.6015C9.46518 0.666488 7.77271 0.666475 6.43375 0.824744C5.05912 0.98723 3.92752 1.32835 2.98226 2.1041C2.66158 2.36728 2.36753 2.66133 2.10435 2.98201C1.32859 3.92728 0.987475 5.05888 0.824989 6.4335C0.66672 7.77246 0.666733 9.46494 0.666748 11.6013V11.7317C0.666732 13.8681 0.666719 15.5605 0.824989 16.8995C0.987474 18.2741 1.32859 19.4057 2.10435 20.351C2.36753 20.6717 2.66158 20.9657 2.98226 21.2289C3.87808 21.9641 4.94127 22.3089 6.22066 22.4813C7.25915 22.6213 8.5092 22.6552 10.0144 22.6636C10.0317 23.4931 10.0702 24.2215 10.1554 24.8555C10.3168 26.0556 10.662 27.0661 11.4645 27.8687C12.2671 28.6713 13.2776 29.0164 14.4777 29.1778C15.6337 29.3332 17.1035 29.3332 18.9269 29.3332H20.4066C22.23 29.3332 23.6998 29.3332 24.8557 29.1778C26.0559 29.0164 27.0664 28.6713 27.8689 27.8687C28.6715 27.0661 29.0167 26.0556 29.1781 24.8555C29.3335 23.6995 29.3334 22.2298 29.3334 20.4063V18.9267C29.3334 17.1032 29.3335 15.6335 29.1781 14.4775C29.0167 13.2774 28.6715 12.2669 27.8689 11.4643C27.0664 10.6617 26.0559 10.3166 24.8558 10.1552C24.2217 10.07 23.4933 10.0315 22.6639 10.0141C22.6555 8.50896 22.6215 7.25891 22.4816 6.22042C22.3092 4.94103 21.9643 3.87784 21.2292 2.98202C20.966 2.66133 20.6719 2.36728 20.3512 2.10411C19.406 1.32835 18.2744 0.987231 16.8998 0.824745C15.5608 0.666476 13.8683 0.666488 11.732 0.666504ZM20.6636 9.99985C20.6548 8.51961 20.6215 7.39296 20.4995 6.48752C20.3544 5.41049 20.0956 4.75335 19.6831 4.2508C19.5031 4.03139 19.3019 3.8302 19.0825 3.65013C18.5526 3.21527 17.8508 2.95108 16.665 2.81092C15.4571 2.66814 13.8829 2.6665 11.6667 2.6665C9.4506 2.6665 7.87641 2.66814 6.66852 2.81092C5.48271 2.95108 4.78092 3.21527 4.25105 3.65013C4.03163 3.83019 3.83044 4.03139 3.65037 4.2508C3.21552 4.78067 2.95133 5.48247 2.81116 6.66828C2.66839 7.87616 2.66675 9.45035 2.66675 11.6665C2.66675 13.8827 2.66839 15.4568 2.81116 16.6647C2.95133 17.8505 3.21552 18.5523 3.65037 19.0822C3.83044 19.3016 4.03163 19.5028 4.25104 19.6829C4.75359 20.0953 5.41073 20.3541 6.48776 20.4993C7.3932 20.6213 8.51985 20.6546 10.0001 20.6634C10.0001 20.5785 10.0001 20.4928 10.0001 20.4063V18.9267C10.0001 17.1032 10 15.6335 10.1554 14.4775C10.3168 13.2774 10.662 12.2669 11.4645 11.4643C12.2671 10.6617 13.2776 10.3166 14.4777 10.1552C15.6337 9.99979 17.1035 9.99981 18.9269 9.99984H20.4066C20.4931 9.99984 20.5788 9.99984 20.6636 9.99985ZM12.8788 12.8785C13.2478 12.5095 13.7659 12.2689 14.7442 12.1374C15.7514 12.002 17.0862 11.9998 19.0001 11.9998H20.3334C22.2473 11.9998 23.5821 12.002 24.5893 12.1374C25.5676 12.2689 26.0857 12.5095 26.4547 12.8785C26.8238 13.2475 27.0644 13.7656 27.1959 14.744C27.3313 15.7511 27.3334 17.0859 27.3334 18.9998V20.3332C27.3334 22.2471 27.3313 23.5819 27.1959 24.589C27.0643 25.5674 26.8238 26.0855 26.4547 26.4545C26.0857 26.8235 25.5676 27.0641 24.5893 27.1956C23.5821 27.331 22.2473 27.3332 20.3334 27.3332H19.0001C17.0862 27.3332 15.7514 27.331 14.7442 27.1956C13.7659 27.0641 13.2478 26.8235 12.8788 26.4545C12.5097 26.0855 12.2691 25.5674 12.1376 24.589C12.0022 23.5819 12.0001 22.2471 12.0001 20.3332V18.9998C12.0001 17.0859 12.0022 15.7511 12.1376 14.744C12.2692 13.7656 12.5097 13.2475 12.8788 12.8785Z" fill="#1B8354"/>
</svg>
