<svg width="18" height="18" viewBox="0 0 18 18" fill="none" xmlns="http://www.w3.org/2000/svg">
<path d="M10.0417 6.5C10.0417 6.15482 10.3215 5.875 10.6667 5.875H14C14.3452 5.875 14.625 6.15482 14.625 6.5C14.625 6.84518 14.3452 7.125 14 7.125H10.6667C10.3215 7.125 10.0417 6.84518 10.0417 6.5Z" fill="#067647"/>
<path d="M10.0417 9.41667C10.0417 9.07149 10.3215 8.79167 10.6667 8.79167H13.1667C13.5118 8.79167 13.7917 9.07149 13.7917 9.41667C13.7917 9.76184 13.5118 10.0417 13.1667 10.0417H10.6667C10.3215 10.0417 10.0417 9.76184 10.0417 9.41667Z" fill="#067647"/>
<path d="M6.06785 11.292C5.03386 11.3073 4.1066 11.7999 3.73285 12.5983C3.5865 12.9109 3.21443 13.0457 2.90182 12.8994C2.5892 12.753 2.45441 12.381 2.60076 12.0683C3.23394 10.7158 4.68675 10.0623 6.0494 10.0421C7.41965 10.0219 8.89724 10.6394 9.56618 12.0683C9.71253 12.381 9.57774 12.753 9.26513 12.8994C8.95251 13.0457 8.58044 12.9109 8.43409 12.5983C8.02986 11.7348 7.09424 11.2769 6.06785 11.292Z" fill="#067647"/>
<path fill-rule="evenodd" clip-rule="evenodd" d="M6.08332 4.20833C4.81767 4.20833 3.79166 5.23435 3.79166 6.5C3.79166 7.76565 4.81767 8.79167 6.08332 8.79167C7.34898 8.79167 8.37499 7.76565 8.37499 6.5C8.37499 5.23435 7.34898 4.20833 6.08332 4.20833ZM5.04166 6.5C5.04166 5.9247 5.50803 5.45833 6.08332 5.45833C6.65862 5.45833 7.12499 5.9247 7.12499 6.5C7.12499 7.0753 6.65862 7.54167 6.08332 7.54167C5.50803 7.54167 5.04166 7.0753 5.04166 6.5Z" fill="#067647"/>
<path fill-rule="evenodd" clip-rule="evenodd" d="M9.87103 0.875H8.12895C6.5985 0.874993 5.39883 0.874988 4.44705 0.978107C3.47577 1.08334 2.68879 1.30194 2.01685 1.79013C1.61007 2.08568 1.25233 2.44341 0.956784 2.8502C0.468593 3.52213 0.249995 4.30912 0.144763 5.2804C0.0416444 6.23218 0.0416498 7.43185 0.0416566 8.96229V9.03771C0.0416498 10.5682 0.0416444 11.7678 0.144763 12.7196C0.249995 13.6909 0.468593 14.4779 0.956784 15.1498C1.25233 15.5566 1.61007 15.9143 2.01685 16.2099C2.68879 16.6981 3.47577 16.9167 4.44705 17.0219C5.39882 17.125 6.59846 17.125 8.12887 17.125H9.87105C11.4015 17.125 12.6012 17.125 13.5529 17.0219C14.5242 16.9167 15.3112 16.6981 15.9831 16.2099C16.3899 15.9143 16.7476 15.5566 17.0432 15.1498C17.5314 14.4779 17.75 13.6909 17.8552 12.7196C17.9583 11.7678 17.9583 10.5682 17.9583 9.03779V8.96227C17.9583 7.43187 17.9583 6.23216 17.8552 5.2804C17.75 4.30912 17.5314 3.52213 17.0432 2.8502C16.7476 2.44341 16.3899 2.08568 15.9831 1.79013C15.3112 1.30194 14.5242 1.08334 13.5529 0.978107C12.6011 0.874988 11.4015 0.874993 9.87103 0.875ZM2.75158 2.8014C3.17492 2.49383 3.71677 2.31454 4.58169 2.22083C5.45832 2.12586 6.59035 2.125 8.16666 2.125H9.83332C11.4096 2.125 12.5417 2.12586 13.4183 2.22083C14.2832 2.31454 14.8251 2.49383 15.2484 2.8014C15.5491 3.01985 15.8135 3.28426 16.0319 3.58493C16.3395 4.00826 16.5188 4.55011 16.6125 5.41504C16.7075 6.29166 16.7083 7.42369 16.7083 9C16.7083 10.5763 16.7075 11.7083 16.6125 12.585C16.5188 13.4499 16.3395 13.9917 16.0319 14.4151C15.8135 14.7157 15.5491 14.9802 15.2484 15.1986C14.8251 15.5062 14.2832 15.6855 13.4183 15.7792C12.5417 15.8741 11.4096 15.875 9.83332 15.875H8.16666C6.59035 15.875 5.45832 15.8741 4.58169 15.7792C3.71677 15.6855 3.17492 15.5062 2.75158 15.1986C2.45092 14.9802 2.1865 14.7157 1.96805 14.4151C1.66048 13.9917 1.4812 13.4499 1.38749 12.585C1.29251 11.7083 1.29166 10.5763 1.29166 9C1.29166 7.42369 1.29251 6.29166 1.38749 5.41504C1.4812 4.55011 1.66048 4.00826 1.96805 3.58493C2.1865 3.28426 2.45092 3.01985 2.75158 2.8014Z" fill="#067647"/>
</svg>
