<svg width="18" height="18" viewBox="0 0 18 18" fill="none" xmlns="http://www.w3.org/2000/svg">
<g id="octicon:goal-24" clip-path="url(#clip0_1346_386670)">
<path id="Vector" d="M15.1279 5.06187H13.7321L10.3076 8.48487C10.4256 8.78547 10.4364 9.11751 10.3384 9.42516C10.2403 9.73281 10.0393 9.9973 9.7691 10.1742C9.49894 10.351 9.17612 10.4295 8.85492 10.3963C8.53373 10.3632 8.23374 10.2204 8.00541 9.9921C7.77709 9.76377 7.63434 9.46378 7.60118 9.14259C7.56802 8.82139 7.64647 8.49857 7.82334 8.22841C8.00021 7.95825 8.26471 7.75724 8.57236 7.65916C8.88 7.56108 9.21204 7.57193 9.51264 7.68987L12.9364 4.26612V2.87037C12.9365 2.68361 13.0106 2.5045 13.1426 2.37237L14.4401 1.07487C14.4641 1.05071 14.4943 1.03354 14.5273 1.02522C14.5604 1.01689 14.595 1.01772 14.6276 1.02762C14.6944 1.04712 14.7439 1.10262 14.7574 1.17087L15.1024 2.89662L16.8274 3.24162C16.8949 3.25512 16.9504 3.30462 16.9699 3.37137C16.9797 3.4038 16.9806 3.43829 16.9724 3.47117C16.9642 3.50405 16.9473 3.5341 16.9234 3.55812L15.6251 4.85562C15.4932 4.98744 15.3144 5.0616 15.1279 5.06187Z" fill="#1B8354"/>
<path id="Vector_2" d="M1.96875 9C1.96875 10.8648 2.70954 12.6532 4.02816 13.9718C5.34677 15.2905 7.1352 16.0313 9 16.0313C9.92336 16.0313 10.8377 15.8494 11.6907 15.496C12.5438 15.1427 13.3189 14.6248 13.9718 13.9718C14.6248 13.3189 15.1427 12.5438 15.496 11.6907C15.8494 10.8377 16.0312 9.92336 16.0312 9C16.0312 8.3265 15.9368 7.6755 15.7605 7.05975C15.7255 6.91837 15.7466 6.76891 15.8196 6.64283C15.8925 6.51674 16.0115 6.42386 16.1515 6.38373C16.2915 6.3436 16.4417 6.35935 16.5703 6.42766C16.6989 6.49598 16.7961 6.61153 16.8412 6.75C17.0467 7.4655 17.1562 8.22 17.1562 9C17.1562 13.5045 13.5045 17.1563 9 17.1563C4.4955 17.1563 0.84375 13.5045 0.84375 9C0.84375 4.4955 4.4955 0.843754 9 0.843754C9.76125 0.843004 10.518 0.948754 11.25 1.158C11.3214 1.17802 11.3881 1.21195 11.4463 1.25784C11.5045 1.30373 11.5531 1.36068 11.5892 1.4254C11.6254 1.49012 11.6483 1.56135 11.6569 1.63499C11.6654 1.70862 11.6592 1.78321 11.6388 1.85448C11.6184 1.92574 11.5841 1.99226 11.5379 2.05023C11.4917 2.10819 11.4345 2.15645 11.3696 2.19223C11.3047 2.22801 11.2333 2.25061 11.1596 2.25872C11.086 2.26683 11.0114 2.2603 10.9403 2.2395C10.3093 2.0594 9.6562 1.96827 9 1.96875C7.1352 1.96875 5.34677 2.70954 4.02816 4.02816C2.70954 5.34677 1.96875 7.1352 1.96875 9Z" fill="#1B8354"/>
<path id="Vector_3" d="M5.34282 8.99984C5.34492 9.49659 5.44823 9.98769 5.64646 10.4432C5.84469 10.8987 6.13367 11.309 6.49576 11.649C6.85785 11.9891 7.28545 12.2518 7.75246 12.4211C8.21947 12.5904 8.71608 12.6627 9.21198 12.6337C9.70788 12.6046 10.1927 12.4748 10.6367 12.2522C11.0808 12.0296 11.4748 11.7187 11.7947 11.3387C12.1146 10.9587 12.3538 10.5175 12.4975 10.042C12.6412 9.56649 12.6865 9.06669 12.6306 8.57309C12.6148 8.47313 12.6264 8.37076 12.6641 8.27685C12.7018 8.18293 12.7642 8.10096 12.8447 8.03961C12.9252 7.97827 13.0207 7.93983 13.1213 7.92839C13.2218 7.91694 13.3236 7.93291 13.4158 7.97459C13.6041 8.05859 13.7308 8.23784 13.7473 8.44334C13.8638 9.42978 13.67 10.428 13.193 11.2992C12.716 12.1705 11.9793 12.8714 11.0856 13.3047C10.1918 13.738 9.18517 13.8821 8.20572 13.7169C7.22626 13.5517 6.32259 13.0855 5.62032 12.3831C4.91825 11.6814 4.45192 10.7786 4.28602 9.8C4.12012 8.82135 4.26287 7.81534 4.69447 6.92147C5.12607 6.02761 5.82512 5.29021 6.69469 4.81153C7.56425 4.33286 8.56122 4.13664 9.54732 4.25009C9.62187 4.25701 9.69429 4.27874 9.76033 4.314C9.82637 4.34927 9.8847 4.39737 9.93191 4.45547C9.97912 4.51357 10.0143 4.58052 10.0353 4.65238C10.0563 4.72424 10.0627 4.79957 10.0542 4.87395C10.0457 4.94834 10.0225 5.02028 9.98584 5.08556C9.94919 5.15084 9.89988 5.20815 9.84079 5.25413C9.7817 5.3001 9.71404 5.33382 9.64175 5.3533C9.56946 5.37279 9.49401 5.37765 9.41982 5.36759C8.90759 5.30837 8.38863 5.35815 7.897 5.51365C7.40536 5.66915 6.95217 5.92686 6.56716 6.26986C6.18215 6.61287 5.87403 7.03342 5.66303 7.50392C5.45202 7.97441 5.3429 8.4842 5.34282 8.99984Z" fill="#1B8354"/>
</g>
<defs>
<clipPath id="clip0_1346_386670">
<rect width="18" height="18" fill="white"/>
</clipPath>
</defs>
</svg>
