<svg width="8" height="14" viewBox="0 0 8 14" fill="none" xmlns="http://www.w3.org/2000/svg">
<g id="elements">
<path id="Icon" d="M0.55723 12.3962C0.718604 12.2743 1.20035 11.9104 1.47806 11.6936C2.03427 11.2596 2.77336 10.6664 3.51025 10.0266C4.25087 9.3836 4.97216 8.70809 5.50241 8.10798C5.76829 7.80707 5.97032 7.54273 6.10182 7.3246C6.22549 7.11945 6.25121 6.99826 6.25121 6.99826C6.25121 6.99826 6.22549 6.88064 6.10182 6.6755C5.97032 6.45737 5.76829 6.19303 5.50241 5.89212C4.97217 5.29201 4.25087 4.6165 3.51024 3.97346C2.77334 3.33365 2.03424 2.74054 1.47802 2.30647C1.20031 2.08974 0.719248 1.72634 0.557872 1.60445C0.224349 1.35882 0.152413 0.888815 0.398046 0.555292C0.643678 0.221769 1.11318 0.15052 1.4467 0.396153L1.44924 0.398071C1.6185 0.525911 2.11751 0.902812 2.40086 1.12394C2.96965 1.56782 3.73055 2.17825 4.49365 2.84081C5.25303 3.50013 6.03173 4.22579 6.62649 4.89891C6.9231 5.23461 7.18982 5.57491 7.38645 5.90107C7.57066 6.20665 7.75195 6.59354 7.75194 7.00005C7.75194 7.40656 7.57066 7.79345 7.38644 8.09903C7.18982 8.42519 6.9231 8.76548 6.62648 9.10118C6.03173 9.7743 5.25304 10.5 4.49367 11.1593C3.73058 11.8218 2.96968 12.4323 2.40091 12.8762C2.11735 13.0974 1.61832 13.4744 1.44941 13.6019L1.44723 13.6036C1.11371 13.8492 0.643732 13.7783 0.398097 13.4448C0.152471 13.1113 0.223736 12.6418 0.55723 12.3962Z" fill="#161616"/>
</g>
</svg>
