<svg width="20" height="20" viewBox="0 0 20 20" fill="none" xmlns="http://www.w3.org/2000/svg">
<path d="M10.0003 18.9552C10.2644 18.9552 10.5175 18.9552 10.76 18.9544C10.7704 18.9549 10.7808 18.9552 10.7913 18.9552V18.9568C13.0638 18.9568 14.3155 18.9568 15.2788 18.1902C16.2396 17.4235 16.5263 16.1993 17.0463 13.976L18.6447 7.14185C18.9514 5.83185 19.1196 5.11015 18.7405 4.46265C18.1769 3.5018 17.0171 3.50637 16.2126 3.52957C16.0611 2.94203 15.8164 2.47138 15.4211 2.07609C14.3845 1.03859 12.827 1.03857 10.0003 1.03857L7.50033 1.03857C4.67366 1.03857 3.11701 1.03859 2.07951 2.07609C1.04201 3.11276 1.04199 4.67024 1.04199 7.49691L1.04199 12.4969C1.04199 15.3236 1.04201 16.8802 2.07951 17.9177C3.11618 18.9552 4.67366 18.9552 7.50033 18.9552L10.0003 18.9552ZM16.4011 4.77487C16.4587 5.5252 16.4587 6.41865 16.4587 7.49691V10.9975L17.428 6.85299C17.6454 5.92286 17.7886 5.31044 17.6614 5.09433C17.4815 4.78817 16.92 4.76436 16.4011 4.77487ZM7.50014 2.28857L10.0003 2.28857C12.5744 2.28857 13.867 2.28857 14.5378 2.95939C15.2087 3.63104 15.2087 4.92268 15.2087 7.49673L15.2087 12.4969C15.2087 15.071 15.2087 16.3636 14.5378 17.0344C13.8662 17.7052 12.5746 17.7052 10.0005 17.7052L7.50033 17.7052C4.92628 17.7052 3.63363 17.7052 2.96281 17.0344C2.29199 16.3628 2.29199 15.0711 2.29199 12.4971L2.29199 7.49691C2.29199 4.92287 2.29199 3.63021 2.96281 2.95939C3.63446 2.28857 4.9261 2.28857 7.50014 2.28857ZM4.79199 8.33024C4.79199 10.5127 6.56783 12.2886 8.75033 12.2886C10.9328 12.2886 12.7087 10.5127 12.7087 8.33024C12.7087 6.14774 10.9328 4.37191 8.75033 4.37191C6.56783 4.37191 4.79199 6.14774 4.79199 8.33024ZM8.12533 8.33024C8.12533 6.76357 8.53283 5.85439 8.75033 5.64856C8.96783 5.85439 9.37533 6.76357 9.37533 8.33024C9.37533 9.89691 8.96783 10.8061 8.75033 11.0119C8.53283 10.8061 8.12533 9.89691 8.12533 8.33024ZM10.6253 8.33024C10.6253 7.57857 10.5336 6.80443 10.3445 6.14193C11.0195 6.63526 11.4587 7.43191 11.4587 8.33024C11.4587 9.22857 11.0195 10.0252 10.3445 10.5186C10.5345 9.85605 10.6253 9.08191 10.6253 8.33024ZM6.04199 8.33024C6.04199 7.43191 6.48117 6.63526 7.15617 6.14193C6.96617 6.80443 6.87533 7.57857 6.87533 8.33024C6.87533 9.08191 6.967 9.85605 7.15617 10.5186C6.48117 10.0252 6.04199 9.22857 6.04199 8.33024ZM12.292 14.1636C12.292 14.5086 12.012 14.7886 11.667 14.7886H5.83366C5.48866 14.7886 5.20866 14.5086 5.20866 14.1636C5.20866 13.8186 5.48866 13.5386 5.83366 13.5386H11.667C12.012 13.5386 12.292 13.8186 12.292 14.1636Z" fill="#1B8354"/>
<path d="M10.0003 18.9552C10.2644 18.9552 10.5175 18.9552 10.76 18.9544C10.7704 18.9549 10.7808 18.9552 10.7913 18.9552V18.9568C13.0638 18.9568 14.3155 18.9568 15.2788 18.1902C16.2396 17.4235 16.5263 16.1993 17.0463 13.976L18.6447 7.14185C18.9514 5.83185 19.1196 5.11015 18.7405 4.46265C18.1769 3.5018 17.0171 3.50637 16.2126 3.52957C16.0611 2.94203 15.8164 2.47138 15.4211 2.07609C14.3845 1.03859 12.827 1.03857 10.0003 1.03857L7.50033 1.03857C4.67366 1.03857 3.11701 1.03859 2.07951 2.07609C1.04201 3.11276 1.04199 4.67024 1.04199 7.49691L1.04199 12.4969C1.04199 15.3236 1.04201 16.8802 2.07951 17.9177C3.11618 18.9552 4.67366 18.9552 7.50033 18.9552L10.0003 18.9552ZM16.4011 4.77487C16.4587 5.5252 16.4587 6.41865 16.4587 7.49691V10.9975L17.428 6.85299C17.6454 5.92286 17.7886 5.31044 17.6614 5.09433C17.4815 4.78817 16.92 4.76436 16.4011 4.77487ZM7.50014 2.28857L10.0003 2.28857C12.5744 2.28857 13.867 2.28857 14.5378 2.95939C15.2087 3.63104 15.2087 4.92268 15.2087 7.49673L15.2087 12.4969C15.2087 15.071 15.2087 16.3636 14.5378 17.0344C13.8662 17.7052 12.5746 17.7052 10.0005 17.7052L7.50033 17.7052C4.92628 17.7052 3.63363 17.7052 2.96281 17.0344C2.29199 16.3628 2.29199 15.0711 2.29199 12.4971L2.29199 7.49691C2.29199 4.92287 2.29199 3.63021 2.96281 2.95939C3.63446 2.28857 4.9261 2.28857 7.50014 2.28857ZM4.79199 8.33024C4.79199 10.5127 6.56783 12.2886 8.75033 12.2886C10.9328 12.2886 12.7087 10.5127 12.7087 8.33024C12.7087 6.14774 10.9328 4.37191 8.75033 4.37191C6.56783 4.37191 4.79199 6.14774 4.79199 8.33024ZM8.12533 8.33024C8.12533 6.76357 8.53283 5.85439 8.75033 5.64856C8.96783 5.85439 9.37533 6.76357 9.37533 8.33024C9.37533 9.89691 8.96783 10.8061 8.75033 11.0119C8.53283 10.8061 8.12533 9.89691 8.12533 8.33024ZM10.6253 8.33024C10.6253 7.57857 10.5336 6.80443 10.3445 6.14193C11.0195 6.63526 11.4587 7.43191 11.4587 8.33024C11.4587 9.22857 11.0195 10.0252 10.3445 10.5186C10.5345 9.85605 10.6253 9.08191 10.6253 8.33024ZM6.04199 8.33024C6.04199 7.43191 6.48117 6.63526 7.15617 6.14193C6.96617 6.80443 6.87533 7.57857 6.87533 8.33024C6.87533 9.08191 6.967 9.85605 7.15617 10.5186C6.48117 10.0252 6.04199 9.22857 6.04199 8.33024ZM12.292 14.1636C12.292 14.5086 12.012 14.7886 11.667 14.7886H5.83366C5.48866 14.7886 5.20866 14.5086 5.20866 14.1636C5.20866 13.8186 5.48866 13.5386 5.83366 13.5386H11.667C12.012 13.5386 12.292 13.8186 12.292 14.1636Z" stroke="#9DA4AE"/>
</svg>
