<svg width="20" height="20" viewBox="0 0 20 20" fill="none" xmlns="http://www.w3.org/2000/svg">
<path d="M10.0003 18.9548C10.2644 18.9548 10.5175 18.9548 10.76 18.9539C10.7704 18.9544 10.7808 18.9547 10.7913 18.9547V18.9563C13.0638 18.9563 14.3155 18.9563 15.2788 18.1897C16.2396 17.423 16.5263 16.1988 17.0463 13.9755L18.6447 7.14137C18.9514 5.83137 19.1196 5.10967 18.7405 4.46217C18.1769 3.50131 17.0171 3.50589 16.2126 3.52908C16.0611 2.94154 15.8164 2.47089 15.4211 2.0756C14.3845 1.0381 12.827 1.03809 10.0003 1.03809L7.50033 1.03809C4.67366 1.03809 3.11701 1.0381 2.07951 2.0756C1.04201 3.11227 1.04199 4.66975 1.04199 7.49642L1.04199 12.4964C1.04199 15.3231 1.04201 16.8797 2.07951 17.9172C3.11618 18.9547 4.67366 18.9548 7.50033 18.9548L10.0003 18.9548ZM16.4011 4.77438C16.4587 5.52471 16.4587 6.41816 16.4587 7.49642V10.997L17.428 6.8525C17.6454 5.92237 17.7886 5.30995 17.6614 5.09384C17.4815 4.78769 16.92 4.76387 16.4011 4.77438ZM7.50014 2.28809L10.0003 2.28809C12.5744 2.28809 13.867 2.28809 14.5378 2.9589C15.2087 3.63055 15.2087 4.92219 15.2087 7.49624L15.2087 12.4964C15.2087 15.0705 15.2087 16.3631 14.5378 17.0339C13.8662 17.7048 12.5746 17.7048 10.0005 17.7048L7.50033 17.7048C4.92628 17.7048 3.63363 17.7048 2.96281 17.0339C2.29199 16.3623 2.29199 15.0707 2.29199 12.4966L2.29199 7.49642C2.29199 4.92238 2.29199 3.62972 2.96281 2.9589C3.63446 2.28809 4.9261 2.28809 7.50014 2.28809ZM4.79199 8.32975C4.79199 10.5123 6.56783 12.2881 8.75033 12.2881C10.9328 12.2881 12.7087 10.5123 12.7087 8.32975C12.7087 6.14725 10.9328 4.37142 8.75033 4.37142C6.56783 4.37142 4.79199 6.14725 4.79199 8.32975ZM8.12533 8.32975C8.12533 6.76309 8.53283 5.8539 8.75033 5.64807C8.96783 5.8539 9.37533 6.76309 9.37533 8.32975C9.37533 9.89642 8.96783 10.8056 8.75033 11.0114C8.53283 10.8056 8.12533 9.89642 8.12533 8.32975ZM10.6253 8.32975C10.6253 7.57809 10.5336 6.80394 10.3445 6.14144C11.0195 6.63477 11.4587 7.43142 11.4587 8.32975C11.4587 9.22809 11.0195 10.0247 10.3445 10.5181C10.5345 9.85557 10.6253 9.08142 10.6253 8.32975ZM6.04199 8.32975C6.04199 7.43142 6.48117 6.63477 7.15617 6.14144C6.96617 6.80394 6.87533 7.57809 6.87533 8.32975C6.87533 9.08142 6.967 9.85557 7.15617 10.5181C6.48117 10.0247 6.04199 9.22809 6.04199 8.32975ZM12.292 14.1631C12.292 14.5081 12.012 14.7881 11.667 14.7881H5.83366C5.48866 14.7881 5.20866 14.5081 5.20866 14.1631C5.20866 13.8181 5.48866 13.5381 5.83366 13.5381H11.667C12.012 13.5381 12.292 13.8181 12.292 14.1631Z" fill="#1B8354"/>
<path d="M10.0003 18.9548C10.2644 18.9548 10.5175 18.9548 10.76 18.9539C10.7704 18.9544 10.7808 18.9547 10.7913 18.9547V18.9563C13.0638 18.9563 14.3155 18.9563 15.2788 18.1897C16.2396 17.423 16.5263 16.1988 17.0463 13.9755L18.6447 7.14137C18.9514 5.83137 19.1196 5.10967 18.7405 4.46217C18.1769 3.50131 17.0171 3.50589 16.2126 3.52908C16.0611 2.94154 15.8164 2.47089 15.4211 2.0756C14.3845 1.0381 12.827 1.03809 10.0003 1.03809L7.50033 1.03809C4.67366 1.03809 3.11701 1.0381 2.07951 2.0756C1.04201 3.11227 1.04199 4.66975 1.04199 7.49642L1.04199 12.4964C1.04199 15.3231 1.04201 16.8797 2.07951 17.9172C3.11618 18.9547 4.67366 18.9548 7.50033 18.9548L10.0003 18.9548ZM16.4011 4.77438C16.4587 5.52471 16.4587 6.41816 16.4587 7.49642V10.997L17.428 6.8525C17.6454 5.92237 17.7886 5.30995 17.6614 5.09384C17.4815 4.78769 16.92 4.76387 16.4011 4.77438ZM7.50014 2.28809L10.0003 2.28809C12.5744 2.28809 13.867 2.28809 14.5378 2.9589C15.2087 3.63055 15.2087 4.92219 15.2087 7.49624L15.2087 12.4964C15.2087 15.0705 15.2087 16.3631 14.5378 17.0339C13.8662 17.7048 12.5746 17.7048 10.0005 17.7048L7.50033 17.7048C4.92628 17.7048 3.63363 17.7048 2.96281 17.0339C2.29199 16.3623 2.29199 15.0707 2.29199 12.4966L2.29199 7.49642C2.29199 4.92238 2.29199 3.62972 2.96281 2.9589C3.63446 2.28809 4.9261 2.28809 7.50014 2.28809ZM4.79199 8.32975C4.79199 10.5123 6.56783 12.2881 8.75033 12.2881C10.9328 12.2881 12.7087 10.5123 12.7087 8.32975C12.7087 6.14725 10.9328 4.37142 8.75033 4.37142C6.56783 4.37142 4.79199 6.14725 4.79199 8.32975ZM8.12533 8.32975C8.12533 6.76309 8.53283 5.8539 8.75033 5.64807C8.96783 5.8539 9.37533 6.76309 9.37533 8.32975C9.37533 9.89642 8.96783 10.8056 8.75033 11.0114C8.53283 10.8056 8.12533 9.89642 8.12533 8.32975ZM10.6253 8.32975C10.6253 7.57809 10.5336 6.80394 10.3445 6.14144C11.0195 6.63477 11.4587 7.43142 11.4587 8.32975C11.4587 9.22809 11.0195 10.0247 10.3445 10.5181C10.5345 9.85557 10.6253 9.08142 10.6253 8.32975ZM6.04199 8.32975C6.04199 7.43142 6.48117 6.63477 7.15617 6.14144C6.96617 6.80394 6.87533 7.57809 6.87533 8.32975C6.87533 9.08142 6.967 9.85557 7.15617 10.5181C6.48117 10.0247 6.04199 9.22809 6.04199 8.32975ZM12.292 14.1631C12.292 14.5081 12.012 14.7881 11.667 14.7881H5.83366C5.48866 14.7881 5.20866 14.5081 5.20866 14.1631C5.20866 13.8181 5.48866 13.5381 5.83366 13.5381H11.667C12.012 13.5381 12.292 13.8181 12.292 14.1631Z" stroke="#9DA4AE"/>
</svg>
