<svg width="20" height="20" viewBox="0 0 20 20" fill="none" xmlns="http://www.w3.org/2000/svg">
<path d="M13.7756 1.22505C13.5315 0.980973 13.1358 0.980973 12.8917 1.22505C12.6476 1.46913 12.6476 1.86486 12.8917 2.10893L14.9498 4.16699L12.8917 6.22505C12.6476 6.46913 12.6476 6.86486 12.8917 7.10893C13.1358 7.35301 13.5315 7.35301 13.7756 7.10893L15.8337 5.05088L17.8917 7.10893C18.1358 7.35301 18.5315 7.35301 18.7756 7.10893C19.0197 6.86486 19.0197 6.46913 18.7756 6.22505L16.7175 4.16699L18.7756 2.10893C19.0197 1.86486 19.0197 1.46913 18.7756 1.22505C18.5315 0.980973 18.1358 0.980973 17.8917 1.22505L15.8337 3.28311L13.7756 1.22505Z" fill="#1B8354"/>
<path d="M9.95685 2.70866H10.8337C11.1788 2.70866 11.4587 2.98848 11.4587 3.33366C11.4587 3.67884 11.1788 3.95866 10.8337 3.95866H10.0003C8.0202 3.95866 6.59176 3.95974 5.50344 4.09143C4.42693 4.22169 3.77869 4.47068 3.30548 4.89657C2.8417 5.31397 2.57796 5.87221 2.43768 6.81123C2.29362 7.77557 2.29199 9.04632 2.29199 10.8337C2.29199 12.621 2.29362 13.8917 2.43768 14.8561C2.57796 15.7951 2.8417 16.3533 3.30548 16.7708C3.77869 17.1966 4.42693 17.4456 5.50344 17.5759C6.59176 17.7076 8.0202 17.7087 10.0003 17.7087C11.9805 17.7087 13.4089 17.7076 14.4972 17.5759C15.5737 17.4456 16.222 17.1966 16.6952 16.7708C17.1589 16.3533 17.4227 15.7951 17.563 14.8561C17.707 13.8917 17.7087 12.621 17.7087 10.8337V9.16699C17.7087 8.82182 17.9885 8.54199 18.3337 8.54199C18.6788 8.54199 18.9587 8.82182 18.9587 9.16699V10.8858C18.9587 12.6093 18.9587 13.9735 18.7992 15.0408C18.6344 16.1441 18.288 17.0189 17.5314 17.6999C16.7842 18.3723 15.8401 18.6725 14.6474 18.8168C13.4752 18.9587 11.9712 18.9587 10.0438 18.9587H9.95684C8.02948 18.9587 6.52544 18.9587 5.35328 18.8168C4.16051 18.6725 3.21646 18.3723 2.46928 17.6999C1.71267 17.0189 1.36622 16.1441 1.2014 15.0408C1.04196 13.9735 1.04198 12.6093 1.04199 10.8857V10.7816C1.04198 9.05801 1.04196 7.69384 1.2014 6.62655C1.36622 5.52322 1.71267 4.6484 2.46928 3.96745C3.21646 3.29499 4.16051 2.99481 5.35328 2.85048C6.52544 2.70864 8.02948 2.70865 9.95685 2.70866Z" fill="#1B8354"/>
<path fill-rule="evenodd" clip-rule="evenodd" d="M4.79214 8.75033C4.79214 7.48467 5.81816 6.45866 7.08381 6.45866C8.34946 6.45866 9.37547 7.48467 9.37547 8.75033C9.37547 10.016 8.34946 11.042 7.08381 11.042C5.81816 11.042 4.79214 10.016 4.79214 8.75033ZM7.08381 7.70866C6.50851 7.70866 6.04214 8.17503 6.04214 8.75033C6.04214 9.32562 6.50851 9.79199 7.08381 9.79199C7.6591 9.79199 8.12547 9.32562 8.12547 8.75033C8.12547 8.17503 7.6591 7.70866 7.08381 7.70866Z" fill="#1B8354"/>
<path d="M7.06819 13.5423C6.03419 13.5576 5.10693 14.0503 4.73319 14.8486C4.58684 15.1613 4.21477 15.2961 3.90215 15.1497C3.58953 15.0034 3.45475 14.6313 3.6011 14.3187C4.23427 12.9661 5.68709 12.3126 7.04974 12.2925C8.41999 12.2723 9.89757 12.8897 10.5665 14.3187C10.7129 14.6313 10.5781 15.0034 10.2655 15.1497C9.95284 15.2961 9.58078 15.1613 9.43443 14.8486C9.03019 13.9852 8.09458 13.5272 7.06819 13.5423Z" fill="#1B8354"/>
<path d="M13.7756 1.22505C13.5315 0.980973 13.1358 0.980973 12.8917 1.22505C12.6476 1.46913 12.6476 1.86486 12.8917 2.10893L14.9498 4.16699L12.8917 6.22505C12.6476 6.46913 12.6476 6.86486 12.8917 7.10893C13.1358 7.35301 13.5315 7.35301 13.7756 7.10893L15.8337 5.05088L17.8917 7.10893C18.1358 7.35301 18.5315 7.35301 18.7756 7.10893C19.0197 6.86486 19.0197 6.46913 18.7756 6.22505L16.7175 4.16699L18.7756 2.10893C19.0197 1.86486 19.0197 1.46913 18.7756 1.22505C18.5315 0.980973 18.1358 0.980973 17.8917 1.22505L15.8337 3.28311L13.7756 1.22505Z" stroke="#9DA4AE"/>
<path d="M9.95685 2.70866H10.8337C11.1788 2.70866 11.4587 2.98848 11.4587 3.33366C11.4587 3.67884 11.1788 3.95866 10.8337 3.95866H10.0003C8.0202 3.95866 6.59176 3.95974 5.50344 4.09143C4.42693 4.22169 3.77869 4.47068 3.30548 4.89657C2.8417 5.31397 2.57796 5.87221 2.43768 6.81123C2.29362 7.77557 2.29199 9.04632 2.29199 10.8337C2.29199 12.621 2.29362 13.8917 2.43768 14.8561C2.57796 15.7951 2.8417 16.3533 3.30548 16.7708C3.77869 17.1966 4.42693 17.4456 5.50344 17.5759C6.59176 17.7076 8.0202 17.7087 10.0003 17.7087C11.9805 17.7087 13.4089 17.7076 14.4972 17.5759C15.5737 17.4456 16.222 17.1966 16.6952 16.7708C17.1589 16.3533 17.4227 15.7951 17.563 14.8561C17.707 13.8917 17.7087 12.621 17.7087 10.8337V9.16699C17.7087 8.82182 17.9885 8.54199 18.3337 8.54199C18.6788 8.54199 18.9587 8.82182 18.9587 9.16699V10.8858C18.9587 12.6093 18.9587 13.9735 18.7992 15.0408C18.6344 16.1441 18.288 17.0189 17.5314 17.6999C16.7842 18.3723 15.8401 18.6725 14.6474 18.8168C13.4752 18.9587 11.9712 18.9587 10.0438 18.9587H9.95684C8.02948 18.9587 6.52544 18.9587 5.35328 18.8168C4.16051 18.6725 3.21646 18.3723 2.46928 17.6999C1.71267 17.0189 1.36622 16.1441 1.2014 15.0408C1.04196 13.9735 1.04198 12.6093 1.04199 10.8857V10.7816C1.04198 9.05801 1.04196 7.69384 1.2014 6.62655C1.36622 5.52322 1.71267 4.6484 2.46928 3.96745C3.21646 3.29499 4.16051 2.99481 5.35328 2.85048C6.52544 2.70864 8.02948 2.70865 9.95685 2.70866Z" stroke="#9DA4AE"/>
<path fill-rule="evenodd" clip-rule="evenodd" d="M4.79214 8.75033C4.79214 7.48467 5.81816 6.45866 7.08381 6.45866C8.34946 6.45866 9.37547 7.48467 9.37547 8.75033C9.37547 10.016 8.34946 11.042 7.08381 11.042C5.81816 11.042 4.79214 10.016 4.79214 8.75033ZM7.08381 7.70866C6.50851 7.70866 6.04214 8.17503 6.04214 8.75033C6.04214 9.32562 6.50851 9.79199 7.08381 9.79199C7.6591 9.79199 8.12547 9.32562 8.12547 8.75033C8.12547 8.17503 7.6591 7.70866 7.08381 7.70866Z" stroke="#9DA4AE"/>
<path d="M7.06819 13.5423C6.03419 13.5576 5.10693 14.0503 4.73319 14.8486C4.58684 15.1613 4.21477 15.2961 3.90215 15.1497C3.58953 15.0034 3.45475 14.6313 3.6011 14.3187C4.23427 12.9661 5.68709 12.3126 7.04974 12.2925C8.41999 12.2723 9.89757 12.8897 10.5665 14.3187C10.7129 14.6313 10.5781 15.0034 10.2655 15.1497C9.95284 15.2961 9.58078 15.1613 9.43443 14.8486C9.03019 13.9852 8.09458 13.5272 7.06819 13.5423Z" stroke="#9DA4AE"/>
</svg>
