<svg width="25" height="24" viewBox="0 0 25 24" fill="none" xmlns="http://www.w3.org/2000/svg">
<path fill-rule="evenodd" clip-rule="evenodd" d="M2.58106 12.0032C2.58113 10.6174 2.58315 9.53259 2.6413 8.65102C2.70236 7.72522 2.8276 6.97179 3.10275 6.27748C3.94086 4.16259 5.70569 2.5114 7.921 1.73373C9.19083 1.28797 10.7262 1.25283 13.2771 1.25023C13.2951 1.24999 13.313 1.24988 13.3311 1.24988C13.338 1.24988 13.3449 1.24997 13.3518 1.25016C13.5476 1.25001 13.7492 1.25002 13.9572 1.25004L14.3199 1.25002C15.955 1.24968 16.974 1.24947 17.8147 1.54458C19.1638 2.01816 20.2453 3.02627 20.7603 4.32588C20.935 4.76661 21.01 5.23452 21.0459 5.77945C21.0811 6.31203 21.0811 6.96757 21.0811 7.79193V10C21.0811 10.4143 20.7453 10.75 20.3311 10.75C19.9168 10.75 19.5811 10.4143 19.5811 10V7.81823C19.5811 6.96172 19.5807 6.3556 19.5492 5.87817C19.5181 5.40744 19.4591 5.11394 19.3658 4.8785C19.0193 4.00402 18.2788 3.29723 17.3179 2.95991C16.7505 2.76075 16.0118 2.75005 14.1492 2.75005C13.8385 2.75005 13.5445 2.75015 13.2661 2.75068C11.8694 2.78515 10.7477 3.92819 10.7477 5.33321C10.7477 5.48034 10.7542 5.63852 10.7624 5.81612L10.7655 5.88194C10.7728 6.03685 10.7807 6.20543 10.7842 6.37358C10.7921 6.75367 10.7801 7.19721 10.6654 7.62536C10.4419 8.45933 9.79051 9.11074 8.95653 9.3342C8.52839 9.44892 8.08485 9.46093 7.70475 9.45303C7.53667 9.44954 7.36815 9.44162 7.21328 9.43435L7.1473 9.43126C6.9697 9.42302 6.81152 9.41654 6.66439 9.41654C5.23962 9.41654 4.08424 10.57 4.08106 11.994C4.08106 12.0559 4.08106 12.1185 4.08106 12.1819V14.7273C4.08106 16.2802 4.08227 17.3794 4.18188 18.2259C4.27942 19.0549 4.46291 19.5496 4.76573 19.9303C4.9634 20.1788 5.199 20.4009 5.46609 20.5891C5.88327 20.883 6.42871 21.0609 7.32567 21.1544C8.2346 21.2491 9.41161 21.25 11.0583 21.25H15.3311C15.7453 21.25 16.0811 21.5858 16.0811 22C16.0811 22.4143 15.7453 22.75 15.3311 22.75H11.015C9.42111 22.7501 8.16594 22.7501 7.17017 22.6463C6.15344 22.5403 5.31737 22.3192 4.60215 21.8153C4.22036 21.5463 3.87987 21.2262 3.59178 20.864C3.0469 20.179 2.80654 19.3734 2.69216 18.4012C2.58103 17.4568 2.58104 16.2693 2.58105 14.7754V12.1546C2.58105 12.1038 2.58106 12.0532 2.58106 12.0032ZM10.1041 2.83083C9.41102 2.88767 8.88682 2.98443 8.41784 3.14906C6.59069 3.79046 5.16688 5.14034 4.49724 6.83011C4.30345 7.31911 4.19422 7.89813 4.13805 8.74974C4.13708 8.7644 4.13613 8.77913 4.13519 8.79392C4.83069 8.24449 5.70924 7.91654 6.66439 7.91654C6.85015 7.91654 7.03975 7.92465 7.21681 7.93287L7.28468 7.93604C7.44136 7.94339 7.58885 7.9503 7.7359 7.95335C8.07654 7.96043 8.34913 7.94404 8.56831 7.88531C8.88464 7.80055 9.13173 7.55346 9.21649 7.23713C9.27522 7.01795 9.29161 6.74536 9.28453 6.40472C9.28148 6.25769 9.27456 6.11022 9.26722 5.95357L9.26405 5.88563C9.25583 5.70858 9.24772 5.51897 9.24772 5.33321C9.24772 4.3903 9.56732 3.52203 10.1041 2.83083Z" fill="#1B8354"/>
<path fill-rule="evenodd" clip-rule="evenodd" d="M8.34988 12.2499L9.08425 12.25C10.1884 12.25 11.1467 13.1113 11.1467 14.25C11.1467 15.3886 10.1884 16.25 9.08425 16.25H8.08425V18C8.08425 18.4142 7.74846 18.75 7.33425 18.75C6.92004 18.75 6.58425 18.4142 6.58425 18L6.58424 13.9647C6.58415 13.7604 6.58405 13.5362 6.61083 13.3465C6.64277 13.1203 6.725 12.8374 6.97078 12.6033C7.2114 12.3741 7.49325 12.3025 7.71293 12.2743C7.90449 12.2498 8.13273 12.2499 8.34988 12.2499ZM8.08425 14.75H9.08425C9.42981 14.75 9.64675 14.492 9.64675 14.25C9.64675 14.0079 9.42981 13.75 9.08425 13.75H8.38425C8.26302 13.75 8.16748 13.75 8.08545 13.7518C8.08429 13.8208 8.08425 13.9008 8.08425 14V14.75Z" fill="#1B8354"/>
<path d="M19.9801 12.25L21.3342 12.25C21.7485 12.25 22.0842 12.5857 22.0842 13C22.0842 13.4142 21.7485 13.75 21.3342 13.75H20.0217C19.5891 13.75 19.3364 13.7514 19.1569 13.7744C19.1108 13.7803 19.0791 13.7866 19.058 13.7919C19.0545 13.8074 19.0504 13.8287 19.0464 13.8571C19.0235 14.0194 19.0217 14.2516 19.0217 14.6666V14.75H20.4592C20.8735 14.75 21.2092 15.0857 21.2092 15.5C21.2092 15.9142 20.8735 16.25 20.4592 16.25H19.0217V18C19.0217 18.4142 18.686 18.75 18.2717 18.75C17.8575 18.75 17.5217 18.4142 17.5217 18L17.5217 14.623C17.5217 14.268 17.5216 13.9274 17.5611 13.6474C17.6059 13.3304 17.7138 12.9838 18.0108 12.7009C18.3027 12.4229 18.6514 12.3269 18.9664 12.2865C19.2529 12.2499 19.6036 12.2499 19.9801 12.25Z" fill="#1B8354"/>
<path fill-rule="evenodd" clip-rule="evenodd" d="M13.4368 12.25L13.4592 12.25C15.2883 12.25 16.8342 13.671 16.8342 15.5C16.8342 17.3289 15.2883 18.75 13.4592 18.75L13.4368 18.75C13.293 18.75 13.1415 18.75 13.0115 18.7388C12.8658 18.7262 12.6765 18.6953 12.4854 18.5902C12.1023 18.3796 11.935 18.0433 11.8727 17.752C11.8287 17.5462 11.8321 17.3182 11.8338 17.208C11.834 17.1914 11.8342 17.1774 11.8342 17.1666V13.8333C11.8342 13.8225 11.834 13.8085 11.8338 13.7919C11.8321 13.6817 11.8287 13.4537 11.8727 13.2479C11.935 12.9566 12.1023 12.6204 12.4854 12.4097C12.6765 12.3046 12.8658 12.2737 13.0115 12.2611C13.1415 12.2499 13.293 12.2499 13.4368 12.25ZM13.3338 13.7501L13.3338 13.7517C13.334 13.7772 13.3342 13.8069 13.3342 13.8333V17.1666C13.3342 17.193 13.334 17.2227 13.3338 17.2482L13.3338 17.2498C13.3708 17.2499 13.412 17.25 13.4592 17.25C14.5297 17.25 15.3342 16.4324 15.3342 15.5C15.3342 14.5675 14.5297 13.75 13.4592 13.75C13.412 13.75 13.3708 13.75 13.3338 13.7501Z" fill="#1B8354"/>
</svg>
