<svg width="20" height="20" viewBox="0 0 20 20" fill="none" xmlns="http://www.w3.org/2000/svg">
<path fill-rule="evenodd" clip-rule="evenodd" d="M1.87256 10.0031C1.87262 8.84828 1.87431 7.94426 1.92276 7.20961C1.97365 6.43811 2.07801 5.81025 2.3073 5.23166C3.00573 3.46925 4.47642 2.09326 6.32251 1.44521C7.38071 1.07374 8.66016 1.04445 10.7859 1.04228C10.8009 1.04209 10.8159 1.04199 10.8309 1.04199C10.8367 1.04199 10.8425 1.04207 10.8482 1.04223C11.0113 1.0421 11.1794 1.04211 11.3527 1.04213L11.6549 1.04211C13.0175 1.04183 13.8667 1.04165 14.5673 1.28758C15.6915 1.68223 16.5928 2.52232 17.022 3.60532C17.1675 3.97261 17.23 4.36252 17.26 4.81663C17.2892 5.26045 17.2892 5.80673 17.2892 6.4937V8.3338C17.2892 8.67898 17.0094 8.9588 16.6642 8.9588C16.319 8.9588 16.0392 8.67898 16.0392 8.3338V6.51562C16.0392 5.80186 16.0389 5.29676 16.0127 4.8989C15.9868 4.50662 15.9376 4.26204 15.8599 4.06584C15.5711 3.33711 14.954 2.74812 14.1532 2.46702C13.6804 2.30105 13.0648 2.29213 11.5127 2.29213C11.2537 2.29213 11.0088 2.29222 10.7768 2.29266C9.61283 2.32138 8.67811 3.27392 8.67811 4.44477C8.67811 4.56738 8.68351 4.69919 8.69037 4.84719L8.69294 4.90204C8.69901 5.03114 8.70561 5.17162 8.70852 5.31174C8.7151 5.62848 8.70509 5.9981 8.60949 6.35489C8.42327 7.04987 7.88044 7.59271 7.18546 7.77892C6.82867 7.87453 6.45905 7.88453 6.14231 7.87795C6.00224 7.87504 5.86181 7.86845 5.73275 7.86238L5.67776 7.85981C5.52976 7.85294 5.39795 7.84755 5.27534 7.84755C4.08803 7.84755 3.12521 8.80873 3.12256 9.99541C3.12256 10.047 3.12256 10.0992 3.12256 10.152V12.2732C3.12256 13.5672 3.12357 14.4832 3.20658 15.1887C3.28786 15.8795 3.44077 16.2917 3.69312 16.609C3.85785 16.8161 4.05418 17.0012 4.27676 17.158C4.6244 17.4029 5.07894 17.5511 5.82641 17.6291C6.58384 17.708 7.56469 17.7088 8.93695 17.7088H12.4976C12.8427 17.7088 13.1226 17.9886 13.1226 18.3338C13.1226 18.679 12.8427 18.9588 12.4976 18.9588H8.90083C7.5726 18.9588 6.52663 18.9588 5.69683 18.8723C4.84954 18.784 4.15282 18.5998 3.55681 18.1799C3.23864 17.9557 2.95491 17.6889 2.71483 17.3871C2.26076 16.8162 2.06047 16.1449 1.96514 15.3348C1.87254 14.5478 1.87255 13.5582 1.87256 12.3133V10.1292C1.87256 10.0869 1.87256 10.0447 1.87256 10.0031ZM8.14176 2.35945C7.5642 2.40682 7.12736 2.48745 6.73654 2.62465C5.21392 3.15915 4.02741 4.28405 3.46938 5.69218C3.30789 6.09969 3.21686 6.58221 3.17005 7.29188C3.16925 7.3041 3.16845 7.31637 3.16768 7.32869C3.74726 6.87083 4.47938 6.59755 5.27534 6.59755C5.43014 6.59755 5.58814 6.60431 5.73569 6.61115L5.79225 6.61379C5.92281 6.61991 6.04572 6.62568 6.16826 6.62822C6.45213 6.63412 6.67928 6.62046 6.86194 6.57152C7.12555 6.50088 7.33145 6.29498 7.40209 6.03137C7.45103 5.84872 7.46469 5.62156 7.45879 5.33769C7.45625 5.21517 7.45048 5.09228 7.44436 4.96173L7.44172 4.90512C7.43487 4.75757 7.42811 4.59957 7.42811 4.44477C7.42811 3.65901 7.69445 2.93545 8.14176 2.35945Z" fill="#9DA4AE"/>
<path fill-rule="evenodd" clip-rule="evenodd" d="M6.67991 10.2087L7.29189 10.2087C8.21204 10.2087 9.01064 10.9265 9.01064 11.8754C9.01064 12.8242 8.21204 13.5421 7.29189 13.5421H6.45855V15.0004C6.45855 15.3456 6.17873 15.6254 5.83356 15.6254C5.48838 15.6254 5.20856 15.3456 5.20856 15.0004L5.20855 11.6377C5.20847 11.4674 5.20839 11.2806 5.23071 11.1225C5.25732 10.934 5.32585 10.6982 5.53066 10.5032C5.73118 10.3122 5.96606 10.2525 6.14912 10.229C6.30876 10.2086 6.49895 10.2087 6.67991 10.2087ZM6.45855 12.2921H7.29189C7.57986 12.2921 7.76064 12.0771 7.76064 11.8754C7.76064 11.6737 7.57986 11.4587 7.29189 11.4587H6.70856C6.60753 11.4587 6.52792 11.4588 6.45956 11.4602C6.45859 11.5178 6.45855 11.5844 6.45855 11.6671V12.2921Z" fill="#9DA4AE"/>
<path d="M16.3718 10.2087L17.5002 10.2087C17.8454 10.2087 18.1252 10.4885 18.1252 10.8337C18.1252 11.1789 17.8454 11.4587 17.5002 11.4587H16.4065C16.0459 11.4587 15.8354 11.4599 15.6858 11.4791C15.6474 11.484 15.6209 11.4893 15.6034 11.4936C15.6004 11.5066 15.597 11.5243 15.5937 11.548C15.5746 11.6833 15.5731 11.8767 15.5731 12.2226V12.2921H16.7711C17.1162 12.2921 17.3961 12.5719 17.3961 12.9171C17.3961 13.2622 17.1162 13.5421 16.7711 13.5421H15.5731V15.0004C15.5731 15.3456 15.2933 15.6254 14.9481 15.6254C14.603 15.6254 14.3231 15.3456 14.3231 15.0004L14.3231 12.1862C14.3231 11.8905 14.323 11.6066 14.356 11.3733C14.3933 11.1091 14.4831 10.8203 14.7307 10.5845C14.9739 10.3529 15.2645 10.2728 15.527 10.2392C15.7657 10.2086 16.058 10.2087 16.3718 10.2087Z" fill="#9DA4AE"/>
<path fill-rule="evenodd" clip-rule="evenodd" d="M10.919 10.2087L10.9377 10.2087C12.4619 10.2087 13.7502 11.3929 13.7502 12.9171C13.7502 14.4412 12.4619 15.6254 10.9377 15.6254L10.919 15.6254C10.7992 15.6254 10.6729 15.6254 10.5646 15.6161C10.4431 15.6056 10.2855 15.5798 10.1262 15.4922C9.80697 15.3167 9.66751 15.0365 9.6156 14.7937C9.57893 14.6223 9.58179 14.4323 9.58317 14.3404C9.58338 14.3266 9.58355 14.3149 9.58355 14.3059V11.5282C9.58355 11.5192 9.58338 11.5075 9.58317 11.4937C9.58179 11.4018 9.57893 11.2118 9.6156 11.0404C9.66751 10.7976 9.80697 10.5174 10.1262 10.3419C10.2855 10.2543 10.4431 10.2285 10.5646 10.218C10.6729 10.2087 10.7992 10.2087 10.919 10.2087ZM10.8332 11.4589L10.8332 11.4602C10.8333 11.4814 10.8336 11.5062 10.8336 11.5282V14.3059C10.8336 14.3279 10.8333 14.3527 10.8332 14.3739L10.8332 14.3752C10.864 14.3754 10.8984 14.3754 10.9377 14.3754C11.8298 14.3754 12.5002 13.6941 12.5002 12.9171C12.5002 12.14 11.8298 11.4587 10.9377 11.4587C10.8984 11.4587 10.864 11.4587 10.8332 11.4589Z" fill="#9DA4AE"/>
</svg>
