<svg width="22" height="22" viewBox="0 0 22 22" fill="none" xmlns="http://www.w3.org/2000/svg">
<g id="elements">
<g id="Icon">
<path fill-rule="evenodd" clip-rule="evenodd" d="M14.204 0.794313C15.3886 0.0897993 16.8496 0.0677218 18.0544 0.7366C18.5542 1.01406 19.01 1.48005 19.688 2.17307L19.8721 2.36114C20.5524 3.05567 21.0077 3.52051 21.2781 4.02866C21.9267 5.24777 21.9056 6.72256 21.2219 7.92207C20.937 8.42205 20.4684 8.87313 19.7685 9.54683L10.1498 18.8112C8.76897 20.1416 7.91787 20.9617 6.84093 21.3823C5.76244 21.8036 4.58979 21.7727 2.69258 21.7227L2.20563 21.71C1.92758 21.7028 1.6465 21.6955 1.41443 21.6568C1.1479 21.6123 0.831332 21.5101 0.580884 21.2259C0.332676 20.9442 0.268982 20.6191 0.254079 20.3517C0.240901 20.1152 0.263036 19.832 0.28528 19.5473L0.326197 19.022C0.455479 17.3594 0.534512 16.3431 0.935835 15.4194C1.33768 14.4944 2.02417 13.7509 3.14424 12.5377L12.6127 2.2791C13.2705 1.5659 13.7127 1.08656 14.204 0.794313ZM17.3263 2.04805C16.5886 1.63846 15.6969 1.65172 14.9708 2.08354C14.6924 2.24909 14.4069 2.54677 13.6248 3.39413L13.5433 3.4825L18.6257 8.56488L18.634 8.55682C19.4626 7.75877 19.7552 7.46624 19.9187 7.17934C20.3475 6.42702 20.361 5.49847 19.9538 4.73319C19.7985 4.4413 19.5143 4.13994 18.7091 3.31741C17.9029 2.49383 17.6091 2.20504 17.3263 2.04805ZM4.34057 13.4532L12.5251 4.58565L17.5451 9.60564L9.23035 17.6141C7.68781 19.0998 7.059 19.6868 6.2952 19.9851C5.53308 20.2828 4.6847 20.2743 2.56498 20.2188L2.28499 20.2115C2.12548 20.2073 1.99913 20.204 1.89064 20.1983C1.83443 20.1954 1.7882 20.192 1.7499 20.1884C1.75029 20.0681 1.7625 19.8981 1.78382 19.6244L1.81082 19.2779C1.95468 17.4314 2.02255 16.6824 2.3116 16.0171C2.60009 15.3531 3.09647 14.8011 4.34057 13.4532Z" fill="#1B8354"/>
<path d="M13.0001 20.25C12.5859 20.25 12.2501 20.5858 12.2501 21C12.2501 21.4142 12.5859 21.75 13.0001 21.75H21.0001C21.4143 21.75 21.7501 21.4142 21.7501 21C21.7501 20.5858 21.4143 20.25 21.0001 20.25H13.0001Z" fill="#1B8354"/>
</g>
</g>
</svg>
