<svg width="40" height="40" viewBox="0 0 40 40" fill="none" xmlns="http://www.w3.org/2000/svg">
<path d="M0 20C0 8.95431 8.95431 0 20 0C31.0457 0 40 8.95431 40 20C40 31.0457 31.0457 40 20 40C8.95431 40 0 31.0457 0 20Z" fill="#ECFDF3"/>
<path d="M19.1667 20.2087C18.8215 20.2087 18.5417 20.4885 18.5417 20.8337C18.5417 21.1788 18.8215 21.4587 19.1667 21.4587H23.3333C23.6785 21.4587 23.9583 21.1788 23.9583 20.8337C23.9583 20.4885 23.6785 20.2087 23.3333 20.2087H19.1667Z" fill="#067647"/>
<path d="M16.6667 20.2087C16.3215 20.2087 16.0417 20.4885 16.0417 20.8337C16.0417 21.1788 16.3215 21.4587 16.6667 21.4587H16.6742C17.0193 21.4587 17.2992 21.1788 17.2992 20.8337C17.2992 20.4885 17.0193 20.2087 16.6742 20.2087H16.6667Z" fill="#067647"/>
<path d="M16.6667 23.542C16.3215 23.542 16.0417 23.8218 16.0417 24.167C16.0417 24.5122 16.3215 24.792 16.6667 24.792H20.8333C21.1785 24.792 21.4583 24.5122 21.4583 24.167C21.4583 23.8218 21.1785 23.542 20.8333 23.542H16.6667Z" fill="#067647"/>
<path d="M23.3259 23.542C22.9807 23.542 22.7009 23.8218 22.7009 24.167C22.7009 24.5122 22.9807 24.792 23.3259 24.792H23.3333C23.6785 24.792 23.9583 24.5122 23.9583 24.167C23.9583 23.8218 23.6785 23.542 23.3333 23.542H23.3259Z" fill="#067647"/>
<path fill-rule="evenodd" clip-rule="evenodd" d="M15.625 11.667C15.625 11.3218 15.3452 11.042 15 11.042C14.6548 11.042 14.375 11.3218 14.375 11.667V12.196C13.7044 12.3861 13.1388 12.695 12.668 13.204C12.0197 13.9048 11.7315 14.7903 11.5935 15.8999C11.4583 16.9872 11.4583 18.3807 11.4583 20.1587V20.6753C11.4583 22.4533 11.4583 23.8467 11.5935 24.9341C11.7315 26.0437 12.0197 26.9292 12.668 27.63C13.3226 28.3378 14.1606 28.6587 15.2094 28.8112C16.2244 28.9587 17.5213 28.9587 19.1577 28.9587H20.8423C22.4787 28.9587 23.7756 28.9587 24.7906 28.8112C25.8394 28.6587 26.6774 28.3378 27.3321 27.63C27.9803 26.9292 28.2685 26.0437 28.4065 24.9341C28.5417 23.8467 28.5417 22.4533 28.5417 20.6753V20.1587C28.5417 18.3807 28.5417 16.9873 28.4065 15.8999C28.2685 14.7903 27.9803 13.9048 27.3321 13.204C26.8613 12.695 26.2956 12.3861 25.625 12.196V11.667C25.625 11.3218 25.3452 11.042 25 11.042C24.6548 11.042 24.375 11.3218 24.375 11.667V11.9719C23.4283 11.8753 22.2633 11.8753 20.8423 11.8753H19.1577C17.7367 11.8753 16.5717 11.8753 15.625 11.9719V11.667ZM13.5856 14.0528C13.8017 13.8191 14.0594 13.6403 14.3988 13.5052C14.4734 13.767 14.7143 13.9587 15 13.9587C15.3452 13.9587 15.625 13.6788 15.625 13.3337V13.2291C16.5092 13.1266 17.652 13.1253 19.2083 13.1253H20.7917C22.348 13.1253 23.4908 13.1266 24.375 13.2291V13.3337C24.375 13.6788 24.6548 13.9587 25 13.9587C25.2857 13.9587 25.5266 13.767 25.6012 13.5052C25.9406 13.6403 26.1983 13.8191 26.4144 14.0528C26.808 14.4782 27.0412 15.0615 27.1645 16.042H12.8355C12.9588 15.0615 13.192 14.4782 13.5856 14.0528ZM12.7408 17.292C12.7088 18.0894 12.7083 19.0427 12.7083 20.203V20.631C12.7083 22.4629 12.7095 23.7786 12.834 24.7798C12.9568 25.7677 13.1904 26.354 13.5856 26.7812C13.9743 27.2015 14.4977 27.4446 15.3892 27.5742C16.304 27.7071 17.5099 27.7087 19.2083 27.7087H20.7917C22.4901 27.7087 23.696 27.7071 24.6108 27.5742C25.5023 27.4446 26.0257 27.2015 26.4144 26.7812C26.8096 26.354 27.0432 25.7677 27.166 24.7798C27.2905 23.7786 27.2917 22.4629 27.2917 20.631V20.203C27.2917 19.0427 27.2912 18.0894 27.2592 17.292H12.7408Z" fill="#067647"/>
</svg>
