<svg width="14" height="18" viewBox="0 0 14 18" fill="none" xmlns="http://www.w3.org/2000/svg">
<g id="elements">
<g id="Icon">
<path d="M6.16665 13.375C5.82147 13.375 5.54165 13.6548 5.54165 14C5.54165 14.3451 5.82147 14.625 6.16665 14.625H7.83331C8.17849 14.625 8.45831 14.3451 8.45831 14C8.45831 13.6548 8.17849 13.375 7.83331 13.375H6.16665Z" fill="#067647"/>
<path fill-rule="evenodd" clip-rule="evenodd" d="M5.20518 4.20818L5.27382 4.2083H8.7262L8.79485 4.20818C9.05478 4.20752 9.32692 4.20683 9.565 4.29014C9.9839 4.43672 10.3133 4.76607 10.4598 5.18498C10.5432 5.42306 10.5425 5.6952 10.5418 5.95513L10.5417 6.02378L10.5417 6.55391C10.5418 6.88865 10.5418 7.12874 10.5083 7.34031C10.3248 8.49919 9.4159 9.40807 8.25702 9.59162C8.12162 9.61307 7.87611 9.61875 7.67312 9.62169C7.4474 9.62497 7.19443 9.62497 7.00203 9.62497H6.998C6.8056 9.62497 6.55263 9.62497 6.32691 9.62169C6.12392 9.61875 5.8784 9.61307 5.743 9.59162C4.58413 9.40807 3.67524 8.49919 3.49169 7.34031C3.45818 7.12873 3.45824 6.88866 3.45834 6.55391L3.45835 6.02378L3.45823 5.95513C3.45757 5.6952 3.45687 5.42306 3.54018 5.18498C3.68676 4.76607 4.01612 4.43672 4.43502 4.29014C4.67311 4.20683 4.94524 4.20752 5.20518 4.20818ZM4.8455 5.47084C4.78757 5.49189 4.74194 5.53753 4.72088 5.59545C4.71976 5.60068 4.71595 5.62132 4.71312 5.66956C4.70859 5.74688 4.70835 5.85022 4.70835 6.02378V6.49997C4.70835 6.91094 4.71029 7.04365 4.7263 7.14477C4.82513 7.76878 5.31454 8.25818 5.93855 8.35701L5.93714 8.35678C5.93714 8.35678 5.94609 8.35791 5.96765 8.35951C5.99162 8.3613 6.02305 8.36306 6.06197 8.36469C6.13982 8.36796 6.23697 8.37026 6.34502 8.37183C6.56087 8.37496 6.80557 8.37497 7.00001 8.37497C7.19445 8.37497 7.43915 8.37496 7.655 8.37183C7.76305 8.37026 7.8602 8.36796 7.93805 8.36469C7.97698 8.36306 8.00841 8.3613 8.03237 8.35951C8.05393 8.35791 8.06289 8.35678 8.06289 8.35678L8.06148 8.35701C8.68549 8.25818 9.17489 7.76878 9.27372 7.14477C9.28974 7.04365 9.29168 6.91093 9.29168 6.49997V6.02378C9.29168 5.85022 9.29143 5.74688 9.2869 5.66956C9.28408 5.62132 9.28027 5.60068 9.27914 5.59545C9.25809 5.53753 9.21245 5.49189 9.15452 5.47084C9.14929 5.46971 9.12865 5.4659 9.08042 5.46308C9.0031 5.45855 8.89975 5.4583 8.7262 5.4583H5.27382C5.10027 5.4583 4.99692 5.45855 4.9196 5.46308C4.87137 5.4659 4.85073 5.46971 4.8455 5.47084Z" fill="#067647"/>
<path fill-rule="evenodd" clip-rule="evenodd" d="M2.20831 0.666626C2.20831 0.321448 1.92849 0.041626 1.58331 0.041626C1.23814 0.041626 0.958313 0.321448 0.958313 0.666626V2.33329C0.958313 2.33329 0.958313 2.33329 0.958313 2.33329V11.9166C0.958313 15.2534 3.66326 17.9583 6.99998 17.9583C10.3367 17.9583 13.0416 15.2534 13.0416 11.9166L13.0416 5.6233C13.0417 4.87458 13.0417 4.25021 12.9751 3.75456C12.9047 3.2314 12.75 2.75907 12.3704 2.37951C11.9909 1.99995 11.5185 1.84522 10.9954 1.77489C10.4997 1.70825 9.87538 1.70827 9.12665 1.70829L2.20831 1.70829L2.20831 0.666626ZM9.08331 2.95829C9.88666 2.95829 10.4263 2.95962 10.8288 3.01374C11.2134 3.06544 11.378 3.15479 11.4866 3.26339C11.5951 3.37199 11.6845 3.53657 11.7362 3.92112C11.7903 4.32365 11.7916 4.86329 11.7916 5.66663V11.9166C11.7916 14.563 9.64635 16.7083 6.99998 16.7083C4.35362 16.7083 2.20831 14.563 2.20831 11.9166V2.95829H9.08331Z" fill="#067647"/>
</g>
</g>
</svg>
