<svg width="40" height="40" viewBox="0 0 40 40" fill="none" xmlns="http://www.w3.org/2000/svg">
<path d="M0 4C0 1.79086 1.79086 0 4 0H36C38.2091 0 40 1.79086 40 4V36C40 38.2091 38.2091 40 36 40H4C1.79086 40 0 38.2091 0 36V4Z" fill="#1B8354"/>
<path d="M20.75 16C20.75 15.5858 20.4142 15.25 20 15.25C19.5858 15.25 19.25 15.5858 19.25 16V19.25H16C15.5858 19.25 15.25 19.5858 15.25 20C15.25 20.4142 15.5858 20.75 16 20.75H19.25V24C19.25 24.4142 19.5858 24.75 20 24.75C20.4142 24.75 20.75 24.4142 20.75 24V20.75H24C24.4142 20.75 24.75 20.4142 24.75 20C24.75 19.5858 24.4142 19.25 24 19.25H20.75V16Z" fill="white"/>
<path fill-rule="evenodd" clip-rule="evenodd" d="M20 30.75C14.0629 30.75 9.25 25.9371 9.25 20C9.25 14.0629 14.0629 9.25 20 9.25C25.9371 9.25 30.75 14.0629 30.75 20C30.75 25.9371 25.9371 30.75 20 30.75ZM10.75 20C10.75 25.1086 14.8914 29.25 20 29.25C25.1086 29.25 29.25 25.1086 29.25 20C29.25 14.8914 25.1086 10.75 20 10.75C14.8914 10.75 10.75 14.8914 10.75 20Z" fill="white"/>
</svg>
