<svg width="48" height="48" viewBox="0 0 48 48" fill="none" xmlns="http://www.w3.org/2000/svg">
<path d="M25.5 16C25.5 15.1716 24.8284 14.5 24 14.5C23.1716 14.5 22.5 15.1716 22.5 16V22.5H16C15.1716 22.5 14.5 23.1716 14.5 24C14.5 24.8284 15.1716 25.5 16 25.5H22.5V32C22.5 32.8284 23.1716 33.5 24 33.5C24.8284 33.5 25.5 32.8284 25.5 32V25.5H32C32.8284 25.5 33.5 24.8284 33.5 24C33.5 23.1716 32.8284 22.5 32 22.5H25.5V16Z" fill="#1B8354"/>
<path fill-rule="evenodd" clip-rule="evenodd" d="M24 2.5C12.1259 2.5 2.5 12.1259 2.5 24C2.5 35.8741 12.1259 45.5 24 45.5C35.8741 45.5 45.5 35.8741 45.5 24C45.5 12.1259 35.8741 2.5 24 2.5ZM5.5 24C5.5 13.7827 13.7827 5.5 24 5.5C34.2173 5.5 42.5 13.7827 42.5 24C42.5 34.2173 34.2173 42.5 24 42.5C13.7827 42.5 5.5 34.2173 5.5 24Z" fill="#1B8354"/>
</svg>
