<svg width="20" height="20" viewBox="0 0 20 20" fill="none" xmlns="http://www.w3.org/2000/svg">
<path fill-rule="evenodd" clip-rule="evenodd" d="M6.29889 6.04167C6.01481 6.04162 5.74262 6.04157 5.51887 6.07166C5.26802 6.10538 4.98677 6.18688 4.75365 6.42C4.52054 6.65311 4.43904 6.93437 4.40531 7.18521C4.37523 7.40896 4.37528 7.68114 4.37533 7.96522V8.70145C4.37528 8.98553 4.37523 9.25772 4.40531 9.48147C4.43904 9.73232 4.52054 10.0136 4.75365 10.2467C4.98677 10.4798 5.26802 10.5613 5.51887 10.595C5.74263 10.6251 6.01481 10.6251 6.29889 10.625H7.03511C7.31919 10.6251 7.59137 10.6251 7.81513 10.595C8.06598 10.5613 8.34723 10.4798 8.58035 10.2467C8.81346 10.0136 8.89496 9.73232 8.92869 9.48147C8.95877 9.25772 8.95872 8.98553 8.95867 8.70145V7.96523C8.95872 7.68115 8.95877 7.40897 8.92869 7.18521C8.89496 6.93437 8.81346 6.65311 8.58035 6.42C8.34723 6.18688 8.06598 6.10538 7.81513 6.07166C7.59138 6.04157 7.31919 6.04162 7.03511 6.04167H6.29889ZM5.60491 7.3272C5.60487 7.32718 5.60552 7.32688 5.60699 7.32635L5.60491 7.3272ZM5.68543 7.31051C5.67147 7.31239 5.65966 7.31428 5.64974 7.31608C5.64794 7.326 5.64605 7.33781 5.64417 7.35177C5.62666 7.48199 5.62533 7.66807 5.62533 8.00001V8.66667C5.62533 8.99861 5.62666 9.18469 5.64417 9.31491C5.64605 9.32887 5.64794 9.34069 5.64974 9.3506C5.65966 9.3524 5.67147 9.3543 5.68543 9.35617C5.81565 9.37368 6.00173 9.37501 6.33367 9.37501H7.00033C7.33227 9.37501 7.51835 9.37368 7.64857 9.35617C7.66253 9.3543 7.67435 9.3524 7.68426 9.3506C7.68606 9.34069 7.68796 9.32887 7.68983 9.31491C7.70734 9.18469 7.70867 8.99861 7.70867 8.66668V8.00001C7.70867 7.66807 7.70734 7.48199 7.68983 7.35177C7.68796 7.33781 7.68606 7.326 7.68426 7.31608C7.67435 7.31428 7.66253 7.31239 7.64857 7.31051C7.51835 7.293 7.33227 7.29167 7.00033 7.29167H6.33367C6.00173 7.29167 5.81565 7.293 5.68543 7.31051ZM5.60491 9.33948L5.60699 9.34033C5.60552 9.3398 5.60487 9.3395 5.60491 9.33948ZM5.66001 9.39335L5.66086 9.39543C5.66084 9.39547 5.66054 9.39482 5.66001 9.39335ZM7.67314 9.39543L7.67399 9.39336C7.67346 9.39482 7.67316 9.39547 7.67314 9.39543ZM7.72702 9.34033L7.72909 9.33948C7.72913 9.3395 7.72848 9.3398 7.72702 9.34033ZM7.72909 7.3272C7.72911 7.32719 7.72958 7.3274 7.72909 7.3272V7.3272ZM7.67399 7.27333L7.67314 7.27125C7.67316 7.27121 7.67346 7.27186 7.67399 7.27333ZM5.66001 7.27333C5.66054 7.27186 5.66084 7.27121 5.66086 7.27125L5.66001 7.27333Z" fill="#1B8354"/>
<path d="M4.37533 13.3333C4.37533 12.9882 4.65515 12.7083 5.00033 12.7083H8.33366C8.67884 12.7083 8.95866 12.9882 8.95866 13.3333C8.95866 13.6785 8.67884 13.9583 8.33366 13.9583H5.00033C4.65515 13.9583 4.37533 13.6785 4.37533 13.3333Z" fill="#1B8354"/>
<path d="M11.667 6.04167C11.3218 6.04167 11.042 6.32149 11.042 6.66667C11.042 7.01184 11.3218 7.29167 11.667 7.29167H15.0003C15.3455 7.29167 15.6253 7.01184 15.6253 6.66667C15.6253 6.32149 15.3455 6.04167 15.0003 6.04167H11.667Z" fill="#1B8354"/>
<path d="M11.042 10C11.042 9.65482 11.3218 9.375 11.667 9.375H15.0003C15.3455 9.375 15.6253 9.65482 15.6253 10C15.6253 10.3452 15.3455 10.625 15.0003 10.625H11.667C11.3218 10.625 11.042 10.3452 11.042 10Z" fill="#1B8354"/>
<path d="M11.667 12.7083C11.3218 12.7083 11.042 12.9882 11.042 13.3333C11.042 13.6785 11.3218 13.9583 11.667 13.9583H15.0003C15.3455 13.9583 15.6253 13.6785 15.6253 13.3333C15.6253 12.9882 15.3455 12.7083 15.0003 12.7083H11.667Z" fill="#1B8354"/>
<path fill-rule="evenodd" clip-rule="evenodd" d="M10.0438 1.875H9.95685C8.02949 1.87499 6.52544 1.87499 5.35328 2.01682C4.16051 2.16115 3.21646 2.46133 2.46928 3.13379C1.71267 3.81474 1.36622 4.68956 1.2014 5.79289C1.04196 6.86018 1.04198 8.22435 1.04199 9.94792V10.0521C1.04198 11.7757 1.04196 13.1398 1.2014 14.2071C1.36622 15.3104 1.71267 16.1853 2.46928 16.8662C3.21646 17.5387 4.16051 17.8389 5.35328 17.9832C6.52544 18.125 8.02948 18.125 9.95684 18.125H10.0438C11.9712 18.125 13.4752 18.125 14.6474 17.9832C15.8401 17.8389 16.7842 17.5387 17.5314 16.8662C18.288 16.1853 18.6344 15.3104 18.7993 14.2071C18.9587 13.1398 18.9587 11.7757 18.9587 10.0521V9.94789C18.9587 8.22434 18.9587 6.86017 18.7993 5.79289C18.6344 4.68956 18.288 3.81474 17.5314 3.13379C16.7842 2.46133 15.8401 2.16115 14.6474 2.01682C13.4752 1.87499 11.9712 1.87499 10.0438 1.875ZM3.30548 4.06291C3.77869 3.63702 4.42693 3.38803 5.50344 3.25777C6.59176 3.12608 8.0202 3.125 10.0003 3.125C11.9805 3.125 13.4089 3.12608 14.4972 3.25777C15.5737 3.38803 16.222 3.63702 16.6952 4.06291C17.1589 4.48031 17.4227 5.03855 17.563 5.97757C17.707 6.94191 17.7087 8.21266 17.7087 10C17.7087 11.7873 17.707 13.0581 17.563 14.0224C17.4227 14.9615 17.1589 15.5197 16.6952 15.9371C16.222 16.363 15.5737 16.612 14.4972 16.7422C13.4089 16.8739 11.9805 16.875 10.0003 16.875C8.0202 16.875 6.59176 16.8739 5.50344 16.7422C4.42693 16.612 3.77869 16.363 3.30548 15.9371C2.8417 15.5197 2.57796 14.9615 2.43768 14.0224C2.29362 13.0581 2.29199 11.7873 2.29199 10C2.29199 8.21266 2.29362 6.94191 2.43768 5.97757C2.57796 5.03855 2.8417 4.48031 3.30548 4.06291Z" fill="#1B8354"/>
</svg>
