<svg width="22" height="22" viewBox="0 0 22 22" fill="none" xmlns="http://www.w3.org/2000/svg">
<path d="M10.75 12.7461C10.336 12.7461 10 12.4101 10 11.9961V11.6161C10 10.7501 10.516 10.0931 10.972 9.51309L10.983 9.49897C11.1309 9.31021 11.2706 9.13198 11.376 8.96514C11.455 8.83914 11.5 8.68513 11.5 8.53613C11.5 8.10013 11.164 7.74609 10.75 7.74609C10.336 7.74609 10 8.10013 10 8.53613C10 8.97213 9.664 9.28613 9.25 9.28613C8.836 9.28613 8.5 8.95013 8.5 8.53613C8.5 7.27313 9.509 6.24609 10.75 6.24609C11.991 6.24609 13 7.27313 13 8.53613C13 8.96913 12.878 9.39306 12.646 9.76406C12.494 10.0031 12.32 10.2251 12.152 10.4391L12.1487 10.4432C11.8297 10.8499 11.5 11.2703 11.5 11.6161V11.9961C11.5 12.4101 11.164 12.7461 10.75 12.7461Z" fill="#1B8354"/>
<path d="M10.0049 13.9961C10.0049 14.4101 10.3459 14.7461 10.7599 14.7461C11.1739 14.7461 11.5099 14.4101 11.5099 13.9961C11.5099 13.5821 11.1739 13.2461 10.7599 13.2461H10.7499C10.3359 13.2461 10.0049 13.5821 10.0049 13.9961Z" fill="#1B8354"/>
<path fill-rule="evenodd" clip-rule="evenodd" d="M2.89496 21.248C2.84096 21.248 2.78697 21.248 2.73197 21.246L2.65394 21.244C1.97094 21.223 1.37996 21.2039 1.02396 20.6339L1.00589 20.603C0.668927 20.001 0.9629 19.447 1.36984 18.6802L1.38793 18.646C1.72093 18.021 2.04793 17.1559 1.73793 16.5549C0.706926 15.0189 0.136906 13.499 0.0429062 12.036C-0.00909375 11.167 -0.00909375 10.289 0.0429062 9.423C0.335906 4.822 3.98489 1.12398 8.53089 0.819977C9.97889 0.727977 11.5129 0.727977 12.9679 0.819977C17.5169 1.12498 21.1669 4.82195 21.4589 9.42095C21.5109 10.29 21.5109 11.1679 21.4589 12.0339C21.1659 16.6349 17.5169 20.332 12.9709 20.637C11.5129 20.739 9.97589 20.739 8.52689 20.637C7.94789 20.601 7.33396 20.4609 6.80296 20.2419L6.67992 20.191L6.61788 20.1655C6.49956 20.1169 6.3835 20.0692 6.29496 20.036C6.22758 20.0817 6.14216 20.142 6.0549 20.2036L6.00189 20.241L5.93998 20.2849C5.06798 20.9339 4.06891 21.25 2.89291 21.25L2.89496 21.248ZM2.50892 19.7379C2.55075 19.7399 2.59389 19.7411 2.63661 19.7422L2.70091 19.744L2.77396 19.746C3.69296 19.767 4.39989 19.561 5.05189 19.075C5.05439 19.0735 5.05666 19.0717 5.05892 19.07C5.06119 19.0682 5.06345 19.0665 5.06595 19.065L5.13392 19.017L5.13612 19.0154C5.57066 18.7064 5.78945 18.5509 6.08695 18.5049C6.41295 18.4559 6.69394 18.5709 7.25394 18.8019L7.37591 18.8519C7.75291 19.0079 8.20791 19.111 8.62591 19.137C10.0129 19.234 11.4779 19.235 12.8679 19.137H12.87C16.668 18.883 19.7159 15.7869 19.9619 11.9379C20.0099 11.1459 20.0099 10.305 19.9619 9.51099C19.7169 5.66399 16.6679 2.56892 12.8709 2.31392C11.4799 2.22692 10.012 2.22692 8.62796 2.31392C4.83296 2.56792 1.7839 5.66295 1.5389 9.51295C1.4909 10.3049 1.4909 11.146 1.5389 11.94C1.6159 13.141 2.10889 14.422 3.00189 15.745C3.01389 15.763 3.02595 15.7819 3.03695 15.8019C3.56595 16.7579 3.45693 17.951 2.71293 19.348L2.69496 19.3809C2.63196 19.4989 2.56592 19.6249 2.50892 19.7379Z" fill="#1B8354"/>
</svg>
