<svg width="20" height="20" viewBox="0 0 20 20" fill="none" xmlns="http://www.w3.org/2000/svg">
<path fill-rule="evenodd" clip-rule="evenodd" d="M10.0002 19.1663C15.0628 19.1663 19.1668 15.0623 19.1668 9.99967C19.1668 4.93706 15.0628 0.833008 10.0002 0.833008C4.93755 0.833008 0.833496 4.93706 0.833496 9.99967C0.833496 15.0623 4.93755 19.1663 10.0002 19.1663Z" fill="white"/>
<path fill-rule="evenodd" clip-rule="evenodd" d="M19.1668 9.99967C19.1668 15.0623 15.0628 19.1663 10.0002 19.1663C4.93755 19.1663 0.833496 15.0623 0.833496 9.99967C0.833496 4.93706 4.93755 0.833008 10.0002 0.833008C15.0628 0.833008 19.1668 4.93706 19.1668 9.99967ZM9.01425 6.89613C9.35359 6.6967 9.75255 6.6238 10.1405 6.69034C10.5284 6.75688 10.8803 6.95857 11.1338 7.25968C11.3872 7.56079 11.526 7.9419 11.5254 8.3355L11.5254 8.33674C11.5254 8.72768 11.2211 9.13525 10.6465 9.51836C10.3845 9.69301 10.1166 9.82756 9.9109 9.91898C9.80923 9.96416 9.72567 9.99753 9.66948 10.0189C9.64145 10.0296 9.62044 10.0372 9.60762 10.0418L9.59476 10.0463C9.15842 10.192 8.92266 10.6638 9.06815 11.1003C9.21369 11.5369 9.68563 11.7728 10.1222 11.6273L9.85872 10.8367C10.1222 11.6273 10.1233 11.627 10.1233 11.627L10.1246 11.6265L10.1278 11.6254L10.137 11.6223L10.166 11.6122C10.1898 11.6037 10.2225 11.5918 10.2628 11.5764C10.3433 11.5457 10.4551 11.501 10.5878 11.442C10.8509 11.3251 11.2079 11.1471 11.571 10.9051C12.2462 10.455 13.1917 9.61279 13.1921 8.3375C13.1931 7.55047 12.9157 6.78845 12.4088 6.18634C11.9019 5.58412 11.1981 5.18074 10.4223 5.04766C9.64638 4.91458 8.84845 5.06038 8.16978 5.45924C7.49111 5.8581 6.9755 6.48428 6.71428 7.22687C6.56155 7.66103 6.7897 8.13679 7.22385 8.28952C7.65801 8.44224 8.13377 8.2141 8.2865 7.77994C8.41712 7.40865 8.67492 7.09556 9.01425 6.89613ZM9.92539 13.3367C9.46515 13.3367 9.09206 13.7098 9.09206 14.1701C9.09206 14.6303 9.46515 15.0034 9.92539 15.0034H9.93372C10.394 15.0034 10.7671 14.6303 10.7671 14.1701C10.7671 13.7098 10.394 13.3367 9.93372 13.3367H9.92539Z" fill="#9DA4AE"/>
</svg>
