<svg width="40" height="40" viewBox="0 0 40 40" fill="none" xmlns="http://www.w3.org/2000/svg">
<path d="M0 20C0 8.95431 8.95431 0 20 0C31.0457 0 40 8.95431 40 20C40 31.0457 31.0457 40 20 40C8.95431 40 0 31.0457 0 20Z" fill="#FEF3F2"/>
<path d="M19.1605 23.333C19.1605 22.8728 19.5336 22.4997 19.9938 22.4997H20.0013C20.4615 22.4997 20.8346 22.8728 20.8346 23.333C20.8346 23.7932 20.4615 24.1663 20.0013 24.1663H19.9938C19.5336 24.1663 19.1605 23.7932 19.1605 23.333Z"   stroke="#9DA4AE"/>
<path d="M19.3753 20.833C19.3753 21.1782 19.6551 21.458 20.0003 21.458C20.3455 21.458 20.6253 21.1782 20.6253 20.833V17.4997C20.6253 17.1545 20.3455 16.8747 20.0003 16.8747C19.6551 16.8747 19.3753 17.1545 19.3753 17.4997V20.833Z" stroke="#9DA4AE"/>
<path fill-rule="evenodd" clip-rule="evenodd" d="M18.6353 11.6788C19.5224 11.3844 20.4783 11.3844 21.3653 11.6788C22.2487 11.9721 22.9423 12.6675 23.6391 13.6446C24.3336 14.6185 25.101 15.9764 26.0902 17.7268L26.129 17.7955C27.1184 19.5461 27.8857 20.9039 28.364 22.0051C28.8445 23.1116 29.0838 24.067 28.8929 24.9848C28.7006 25.9089 28.2265 26.7492 27.536 27.3844C26.8472 28.018 25.9093 28.2853 24.7283 28.4137C23.554 28.5414 22.018 28.5413 20.041 28.5413H19.9597C17.9827 28.5413 16.4466 28.5414 15.2723 28.4137C14.0914 28.2853 13.1535 28.018 12.4647 27.3844C11.7742 26.7493 11.3001 25.9089 11.1078 24.9848C10.9168 24.067 11.1562 23.1116 11.6367 22.0051C12.1149 20.9039 12.8823 19.5461 13.8716 17.7955L13.9105 17.7268C14.8997 15.9764 15.6671 14.6185 16.3615 13.6446C17.0583 12.6675 17.7519 11.9721 18.6353 11.6788ZM20.9715 12.8652C20.3402 12.6556 19.6605 12.6556 19.0291 12.8652C18.5325 13.0301 18.0332 13.4534 17.3793 14.3704C16.7276 15.2842 15.992 16.5842 14.9792 18.3763C13.9665 20.1682 13.2322 21.4692 12.7832 22.503C12.3335 23.5386 12.2208 24.198 12.3316 24.7302C12.4713 25.4015 12.8149 26.0082 13.3109 26.4644C13.7005 26.8227 14.3074 27.0514 15.4074 27.171C16.5061 27.2905 17.9742 27.2913 20.0003 27.2913C22.0265 27.2913 23.4945 27.2905 24.5932 27.171C25.6932 27.0514 26.3002 26.8227 26.6897 26.4644C27.1857 26.0082 27.5294 25.4015 27.6691 24.7302C27.7798 24.198 27.6671 23.5386 27.2174 22.503C26.7685 21.4692 26.0342 20.1682 25.0215 18.3763C24.0087 16.5842 23.273 15.2842 22.6214 14.3704C21.9675 13.4534 21.4682 13.0301 20.9715 12.8652Z" stroke="#9DA4AE"/>
<path d="M19.1605 23.333C19.1605 22.8728 19.5336 22.4997 19.9938 22.4997H20.0013C20.4615 22.4997 20.8346 22.8728 20.8346 23.333C20.8346 23.7932 20.4615 24.1663 20.0013 24.1663H19.9938C19.5336 24.1663 19.1605 23.7932 19.1605 23.333Z" fill="#B42318"/>
<path d="M19.3753 20.833C19.3753 21.1782 19.6551 21.458 20.0003 21.458C20.3455 21.458 20.6253 21.1782 20.6253 20.833V17.4997C20.6253 17.1545 20.3455 16.8747 20.0003 16.8747C19.6551 16.8747 19.3753 17.1545 19.3753 17.4997V20.833Z" fill="#B42318"/>
<path fill-rule="evenodd" clip-rule="evenodd" d="M18.6353 11.6788C19.5224 11.3844 20.4783 11.3844 21.3653 11.6788C22.2487 11.9721 22.9423 12.6675 23.6391 13.6446C24.3336 14.6185 25.101 15.9764 26.0902 17.7268L26.129 17.7955C27.1184 19.5461 27.8857 20.9039 28.364 22.0051C28.8445 23.1116 29.0838 24.067 28.8929 24.9848C28.7006 25.9089 28.2265 26.7492 27.536 27.3844C26.8472 28.018 25.9093 28.2853 24.7283 28.4137C23.554 28.5414 22.018 28.5413 20.041 28.5413H19.9597C17.9827 28.5413 16.4466 28.5414 15.2723 28.4137C14.0914 28.2853 13.1535 28.018 12.4647 27.3844C11.7742 26.7493 11.3001 25.9089 11.1078 24.9848C10.9168 24.067 11.1562 23.1116 11.6367 22.0051C12.1149 20.9039 12.8823 19.5461 13.8716 17.7955L13.9105 17.7268C14.8997 15.9764 15.6671 14.6185 16.3615 13.6446C17.0583 12.6675 17.7519 11.9721 18.6353 11.6788ZM20.9715 12.8652C20.3402 12.6556 19.6605 12.6556 19.0291 12.8652C18.5325 13.0301 18.0332 13.4534 17.3793 14.3704C16.7276 15.2842 15.992 16.5842 14.9792 18.3763C13.9665 20.1682 13.2322 21.4692 12.7832 22.503C12.3335 23.5386 12.2208 24.198 12.3316 24.7302C12.4713 25.4015 12.8149 26.0082 13.3109 26.4644C13.7005 26.8227 14.3074 27.0514 15.4074 27.171C16.5061 27.2905 17.9742 27.2913 20.0003 27.2913C22.0265 27.2913 23.4945 27.2905 24.5932 27.171C25.6932 27.0514 26.3002 26.8227 26.6897 26.4644C27.1857 26.0082 27.5294 25.4015 27.6691 24.7302C27.7798 24.198 27.6671 23.5386 27.2174 22.503C26.7685 21.4692 26.0342 20.1682 25.0215 18.3763C24.0087 16.5842 23.273 15.2842 22.6214 14.3704C21.9675 13.4534 21.4682 13.0301 20.9715 12.8652Z" fill="#B42318"/>
</svg>
