<svg width="14" height="15" viewBox="0 0 14 15" fill="none" xmlns="http://www.w3.org/2000/svg">
<path d="M9.3535 5.85389C9.54877 5.65864 9.54878 5.34205 9.35353 5.14678C9.15827 4.95152 8.84169 4.9515 8.64642 5.14676L6.99983 6.79324L5.3535 5.14702C5.15823 4.95177 4.84165 4.95178 4.64639 5.14705C4.45114 5.34232 4.45115 5.6589 4.64642 5.85415L6.2927 7.50033L4.64642 9.1465C4.45115 9.34175 4.45114 9.65834 4.64639 9.8536C4.84165 10.0489 5.15823 10.0489 5.3535 9.85363L6.99983 8.20741L8.64642 9.85389C8.84169 10.0491 9.15827 10.0491 9.35353 9.85387C9.54878 9.6586 9.54877 9.34202 9.3535 9.14676L7.70696 7.50033L9.3535 5.85389Z" fill="#B42318"/>
<path fill-rule="evenodd" clip-rule="evenodd" d="M7.03808 0.666992H6.96184C5.50137 0.666983 4.35425 0.666976 3.45864 0.787388C2.54087 0.910779 1.8127 1.1688 1.24057 1.74093C0.668436 2.31307 0.410413 3.04124 0.287022 3.95901C0.16661 4.85462 0.166617 6.00174 0.166626 7.46221V7.53844C0.166617 8.99891 0.16661 10.146 0.287022 11.0416C0.410413 11.9594 0.668436 12.6876 1.24057 13.2597C1.8127 13.8319 2.54087 14.0899 3.45864 14.2133C4.35425 14.3337 5.50136 14.3337 6.96183 14.3337H7.03807C8.49853 14.3337 9.64567 14.3337 10.5413 14.2133C11.459 14.0899 12.1872 13.8319 12.7594 13.2597C13.3315 12.6876 13.5895 11.9594 13.7129 11.0416C13.8333 10.146 13.8333 8.99892 13.8333 7.53846V7.46221C13.8333 6.00175 13.8333 4.85462 13.7129 3.95901C13.5895 3.04124 13.3315 2.31307 12.7594 1.74093C12.1872 1.1688 11.459 0.910779 10.5413 0.787388C9.64567 0.666976 8.49855 0.666983 7.03808 0.666992ZM1.94767 2.44804C2.30304 2.09268 2.78501 1.88695 3.59189 1.77847C4.41316 1.66805 5.49304 1.66699 6.99996 1.66699C8.50688 1.66699 9.58676 1.66805 10.408 1.77847C11.2149 1.88695 11.6969 2.09268 12.0522 2.44804C12.4076 2.8034 12.6133 3.28537 12.7218 4.09226C12.8322 4.91352 12.8333 5.99341 12.8333 7.50033C12.8333 9.00724 12.8322 10.0871 12.7218 10.9084C12.6133 11.7153 12.4076 12.1972 12.0522 12.5526C11.6969 12.908 11.2149 13.1137 10.408 13.2222C9.58676 13.3326 8.50688 13.3337 6.99996 13.3337C5.49304 13.3337 4.41316 13.3326 3.59189 13.2222C2.78501 13.1137 2.30304 12.908 1.94767 12.5526C1.59231 12.1972 1.38659 11.7153 1.2781 10.9084C1.16769 10.0871 1.16663 9.00724 1.16663 7.50033C1.16663 5.99341 1.16769 4.91352 1.2781 4.09226C1.38659 3.28537 1.59231 2.8034 1.94767 2.44804Z" fill="#B42318"/>
</svg>
