<svg width="18" height="18" viewBox="0 0 18 18" fill="none" xmlns="http://www.w3.org/2000/svg">
<path d="M0.958171 17.0434C1.87484 17.9584 3.22151 17.9584 5.6665 17.9584C6.0115 17.9584 6.2915 17.6784 6.2915 17.3334C6.2915 16.9884 6.0115 16.7084 5.6665 16.7084C3.4865 16.7084 2.3923 16.7084 1.84147 16.1584C1.2915 15.6101 1.2915 14.5148 1.2915 12.3334V5.66636C1.2915 3.48579 1.2915 2.39089 1.84147 1.84176C2.39147 1.29176 3.4865 1.29175 5.6665 1.29175H8.1665C10.3465 1.29175 11.4407 1.29176 11.9915 1.84176C12.5415 2.39006 12.5415 3.48534 12.5415 5.66675V6.50008C12.5415 6.84508 12.8215 7.12508 13.1665 7.12508C13.5115 7.12508 13.7915 6.84508 13.7915 6.50008V5.66675C13.7915 3.21925 13.7915 1.87091 12.8748 0.956746C11.9582 0.041748 10.6115 0.041748 8.1665 0.041748H5.66649C3.2215 0.041748 1.874 0.041748 0.958171 0.956746C0.0415039 1.87175 0.0415039 3.21925 0.0415039 5.66675V12.3334C0.0415039 14.7809 0.0415039 16.1292 0.958171 17.0434ZM7.5415 16.5334C7.5415 17.3192 8.18064 17.9584 8.96647 17.9584L16.5332 17.9592C17.319 17.9592 17.9582 17.3201 17.9582 16.5343C17.9582 15.4876 17.249 14.5976 16.2323 14.3659L14.729 13.9651L14.8473 13.3801C14.8941 13.1339 14.9918 12.878 15.0951 12.6077L15.0999 12.5951C15.2207 12.2801 15.3448 11.9542 15.4132 11.5976C15.4432 11.4434 15.4582 11.2759 15.4582 11.0842C15.4582 9.59089 14.2432 8.37589 12.7498 8.37589C11.2565 8.37589 10.0415 9.59089 10.0415 11.0842C10.0415 11.2634 10.0623 11.4267 10.0798 11.5576L10.0857 11.5926C10.1549 11.9534 10.279 12.2792 10.3998 12.5942C10.5057 12.8692 10.6048 13.1292 10.654 13.3859L10.7707 13.9642L9.26733 14.3651C8.25067 14.5967 7.5415 15.4867 7.5415 16.5334ZM9.55151 15.5817L11.5815 15.0417L13.9181 15.0409L15.9224 15.5751L15.9482 15.5817C16.3957 15.6809 16.7082 16.0726 16.7082 16.5334C16.7082 16.6301 16.6299 16.7084 16.5332 16.7084H8.96647C8.86981 16.7084 8.7915 16.6301 8.7915 16.5334C8.7915 16.0726 9.10401 15.6809 9.55151 15.5817ZM13.489 13.7917H12.0115L11.8807 13.1451C11.8119 12.788 11.6888 12.4655 11.5694 12.1531L11.5673 12.1476C11.464 11.8776 11.3665 11.6217 11.3173 11.3751C11.3048 11.2809 11.2915 11.1759 11.2915 11.0842C11.2915 10.2801 11.9457 9.62589 12.7498 9.62589C13.554 9.62589 14.2082 10.2801 14.2082 11.0842C14.2082 11.1934 14.2007 11.2818 14.1857 11.3593C14.1382 11.6109 14.038 11.8722 13.9322 12.1481L13.9322 12.1481C13.8122 12.4613 13.6881 12.7853 13.6207 13.1384L13.489 13.7917ZM5.84237 7.95838H5.87484L5.87321 7.9592C6.09238 7.9592 6.2965 7.84339 6.40983 7.65422C7.00816 6.65256 8.29981 4.93338 9.21981 4.58505C9.54314 4.46255 9.70567 4.10172 9.58317 3.77922C9.46067 3.45589 9.09984 3.2934 8.77734 3.4159C7.65734 3.84007 6.5307 5.24837 5.8807 6.17921C5.41653 5.65171 4.98736 5.59754 4.83236 5.59754C4.48736 5.59754 4.20736 5.87754 4.20736 6.22254C4.20736 6.54004 4.44317 6.80254 4.74984 6.84254C4.80067 6.86754 5.03321 7.00838 5.30737 7.59754C5.40571 7.80754 5.61153 7.94671 5.84237 7.95838ZM3.37484 10.6667C3.37484 11.0117 3.65484 11.2917 3.99984 11.2917H7.33317C7.67817 11.2917 7.95817 11.0117 7.95817 10.6667C7.95817 10.3217 7.67817 10.0417 7.33317 10.0417H3.99984C3.65484 10.0417 3.37484 10.3217 3.37484 10.6667ZM7.33317 13.7917C7.67817 13.7917 7.95817 13.5117 7.95817 13.1667C7.95817 12.8217 7.67817 12.5417 7.33317 12.5417H3.99984C3.65484 12.5417 3.37484 12.8217 3.37484 13.1667C3.37484 13.5117 3.65484 13.7917 3.99984 13.7917H7.33317Z" fill="#1B8354"/>
<path d="M0.958171 17.0434C1.87484 17.9584 3.22151 17.9584 5.6665 17.9584C6.0115 17.9584 6.2915 17.6784 6.2915 17.3334C6.2915 16.9884 6.0115 16.7084 5.6665 16.7084C3.4865 16.7084 2.3923 16.7084 1.84147 16.1584C1.2915 15.6101 1.2915 14.5148 1.2915 12.3334V5.66636C1.2915 3.48579 1.2915 2.39089 1.84147 1.84176C2.39147 1.29176 3.4865 1.29175 5.6665 1.29175H8.1665C10.3465 1.29175 11.4407 1.29176 11.9915 1.84176C12.5415 2.39006 12.5415 3.48534 12.5415 5.66675V6.50008C12.5415 6.84508 12.8215 7.12508 13.1665 7.12508C13.5115 7.12508 13.7915 6.84508 13.7915 6.50008V5.66675C13.7915 3.21925 13.7915 1.87091 12.8748 0.956746C11.9582 0.041748 10.6115 0.041748 8.1665 0.041748H5.66649C3.2215 0.041748 1.874 0.041748 0.958171 0.956746C0.0415039 1.87175 0.0415039 3.21925 0.0415039 5.66675V12.3334C0.0415039 14.7809 0.0415039 16.1292 0.958171 17.0434ZM7.5415 16.5334C7.5415 17.3192 8.18064 17.9584 8.96647 17.9584L16.5332 17.9592C17.319 17.9592 17.9582 17.3201 17.9582 16.5343C17.9582 15.4876 17.249 14.5976 16.2323 14.3659L14.729 13.9651L14.8473 13.3801C14.8941 13.1339 14.9918 12.878 15.0951 12.6077L15.0999 12.5951C15.2207 12.2801 15.3448 11.9542 15.4132 11.5976C15.4432 11.4434 15.4582 11.2759 15.4582 11.0842C15.4582 9.59089 14.2432 8.37589 12.7498 8.37589C11.2565 8.37589 10.0415 9.59089 10.0415 11.0842C10.0415 11.2634 10.0623 11.4267 10.0798 11.5576L10.0857 11.5926C10.1549 11.9534 10.279 12.2792 10.3998 12.5942C10.5057 12.8692 10.6048 13.1292 10.654 13.3859L10.7707 13.9642L9.26733 14.3651C8.25067 14.5967 7.5415 15.4867 7.5415 16.5334ZM9.55151 15.5817L11.5815 15.0417L13.9181 15.0409L15.9224 15.5751L15.9482 15.5817C16.3957 15.6809 16.7082 16.0726 16.7082 16.5334C16.7082 16.6301 16.6299 16.7084 16.5332 16.7084H8.96647C8.86981 16.7084 8.7915 16.6301 8.7915 16.5334C8.7915 16.0726 9.10401 15.6809 9.55151 15.5817ZM13.489 13.7917H12.0115L11.8807 13.1451C11.8119 12.788 11.6888 12.4655 11.5694 12.1531L11.5673 12.1476C11.464 11.8776 11.3665 11.6217 11.3173 11.3751C11.3048 11.2809 11.2915 11.1759 11.2915 11.0842C11.2915 10.2801 11.9457 9.62589 12.7498 9.62589C13.554 9.62589 14.2082 10.2801 14.2082 11.0842C14.2082 11.1934 14.2007 11.2818 14.1857 11.3593C14.1382 11.6109 14.038 11.8722 13.9322 12.1481L13.9322 12.1481C13.8122 12.4613 13.6881 12.7853 13.6207 13.1384L13.489 13.7917ZM5.84237 7.95838H5.87484L5.87321 7.9592C6.09238 7.9592 6.2965 7.84339 6.40983 7.65422C7.00816 6.65256 8.29981 4.93338 9.21981 4.58505C9.54314 4.46255 9.70567 4.10172 9.58317 3.77922C9.46067 3.45589 9.09984 3.2934 8.77734 3.4159C7.65734 3.84007 6.5307 5.24837 5.8807 6.17921C5.41653 5.65171 4.98736 5.59754 4.83236 5.59754C4.48736 5.59754 4.20736 5.87754 4.20736 6.22254C4.20736 6.54004 4.44317 6.80254 4.74984 6.84254C4.80067 6.86754 5.03321 7.00838 5.30737 7.59754C5.40571 7.80754 5.61153 7.94671 5.84237 7.95838ZM3.37484 10.6667C3.37484 11.0117 3.65484 11.2917 3.99984 11.2917H7.33317C7.67817 11.2917 7.95817 11.0117 7.95817 10.6667C7.95817 10.3217 7.67817 10.0417 7.33317 10.0417H3.99984C3.65484 10.0417 3.37484 10.3217 3.37484 10.6667ZM7.33317 13.7917C7.67817 13.7917 7.95817 13.5117 7.95817 13.1667C7.95817 12.8217 7.67817 12.5417 7.33317 12.5417H3.99984C3.65484 12.5417 3.37484 12.8217 3.37484 13.1667C3.37484 13.5117 3.65484 13.7917 3.99984 13.7917H7.33317Z" stroke="#9DA4AE"/>
</svg>
