<svg width="40" height="40" viewBox="0 0 40 40" fill="none" xmlns="http://www.w3.org/2000/svg">
<path d="M0 20C0 8.95431 8.95431 0 20 0C31.0457 0 40 8.95431 40 20C40 31.0457 31.0457 40 20 40C8.95431 40 0 31.0457 0 20Z" fill="#F9FAFB"/>
<path d="M11.9587 28.0446C12.8753 28.9596 14.222 28.9596 16.667 28.9596C17.012 28.9596 17.292 28.6796 17.292 28.3346C17.292 27.9896 17.012 27.7096 16.667 27.7096C14.487 27.7096 13.3928 27.7096 12.842 27.1596C12.292 26.6113 12.292 25.516 12.292 23.3346V16.6676C12.292 14.487 12.292 13.3921 12.842 12.843C13.392 12.293 14.487 12.293 16.667 12.293H19.167C21.347 12.293 22.4412 12.293 22.992 12.843C23.542 13.3913 23.542 14.4866 23.542 16.668V17.5013C23.542 17.8463 23.822 18.1263 24.167 18.1263C24.512 18.1263 24.792 17.8463 24.792 17.5013V16.668C24.792 14.2205 24.792 12.8721 23.8753 11.958C22.9587 11.043 21.612 11.043 19.167 11.043H16.667C14.222 11.043 12.8745 11.043 11.9587 11.958C11.042 12.873 11.042 14.2205 11.042 16.668V23.3346C11.042 25.7821 11.042 27.1305 11.9587 28.0446ZM18.542 27.5346C18.542 28.3205 19.1811 28.9596 19.967 28.9596L27.5337 28.9604C28.3195 28.9604 28.9587 28.3213 28.9587 27.5355C28.9587 26.4888 28.2495 25.5988 27.2328 25.3671L25.7295 24.9663L25.8478 24.3813C25.8946 24.1351 25.9923 23.8792 26.0955 23.6089L26.1003 23.5963C26.2212 23.2813 26.3453 22.9555 26.4137 22.5988C26.4437 22.4446 26.4587 22.2771 26.4587 22.0854C26.4587 20.5921 25.2437 19.3771 23.7503 19.3771C22.257 19.3771 21.042 20.5921 21.042 22.0854C21.042 22.2646 21.0628 22.428 21.0803 22.5588L21.0862 22.5938C21.1553 22.9546 21.2795 23.2805 21.4003 23.5955C21.5061 23.8705 21.6053 24.1305 21.6545 24.3871L21.7712 24.9655L20.2678 25.3663C19.2512 25.598 18.542 26.488 18.542 27.5346ZM20.552 26.583L22.582 26.043L24.9186 26.0422L26.9229 26.5763L26.9486 26.583C27.3962 26.6821 27.7087 27.0738 27.7087 27.5346C27.7087 27.6313 27.6304 27.7096 27.5337 27.7096H19.967C19.8703 27.7096 19.792 27.6313 19.792 27.5346C19.792 27.0738 20.1045 26.6821 20.552 26.583ZM24.4895 24.793H23.012L22.8812 24.1463C22.8124 23.7893 22.6892 23.4668 22.5699 23.1543L22.5678 23.1488C22.4645 22.8788 22.367 22.623 22.3178 22.3763C22.3053 22.2821 22.292 22.1771 22.292 22.0854C22.292 21.2813 22.9462 20.6271 23.7503 20.6271C24.5545 20.6271 25.2087 21.2813 25.2087 22.0854C25.2087 22.1946 25.2012 22.283 25.1862 22.3605C25.1387 22.6121 25.0385 22.8735 24.9327 23.1493L24.9327 23.1493C24.8127 23.4625 24.6886 23.7865 24.6212 24.1396L24.4895 24.793ZM16.8429 18.9596H16.8753L16.8737 18.9604C17.0929 18.9604 17.297 18.8446 17.4103 18.6554C18.0087 17.6538 19.3003 15.9346 20.2203 15.5863C20.5436 15.4638 20.7062 15.1029 20.5837 14.7804C20.4612 14.4571 20.1003 14.2946 19.7778 14.4171C18.6578 14.8413 17.5312 16.2496 16.8812 17.1804C16.417 16.6529 15.9878 16.5988 15.8328 16.5988C15.4878 16.5988 15.2078 16.8788 15.2078 17.2238C15.2078 17.5413 15.4437 17.8038 15.7503 17.8438C15.8012 17.8688 16.0337 18.0096 16.3079 18.5988C16.4062 18.8088 16.612 18.9479 16.8429 18.9596ZM14.3753 21.668C14.3753 22.013 14.6553 22.293 15.0003 22.293H18.3337C18.6787 22.293 18.9587 22.013 18.9587 21.668C18.9587 21.323 18.6787 21.043 18.3337 21.043H15.0003C14.6553 21.043 14.3753 21.323 14.3753 21.668ZM18.3337 24.793C18.6787 24.793 18.9587 24.513 18.9587 24.168C18.9587 23.823 18.6787 23.543 18.3337 23.543H15.0003C14.6553 23.543 14.3753 23.823 14.3753 24.168C14.3753 24.513 14.6553 24.793 15.0003 24.793H18.3337Z" fill="#1B8354"/>
<path d="M11.9587 28.0446C12.8753 28.9596 14.222 28.9596 16.667 28.9596C17.012 28.9596 17.292 28.6796 17.292 28.3346C17.292 27.9896 17.012 27.7096 16.667 27.7096C14.487 27.7096 13.3928 27.7096 12.842 27.1596C12.292 26.6113 12.292 25.516 12.292 23.3346V16.6676C12.292 14.487 12.292 13.3921 12.842 12.843C13.392 12.293 14.487 12.293 16.667 12.293H19.167C21.347 12.293 22.4412 12.293 22.992 12.843C23.542 13.3913 23.542 14.4866 23.542 16.668V17.5013C23.542 17.8463 23.822 18.1263 24.167 18.1263C24.512 18.1263 24.792 17.8463 24.792 17.5013V16.668C24.792 14.2205 24.792 12.8721 23.8753 11.958C22.9587 11.043 21.612 11.043 19.167 11.043H16.667C14.222 11.043 12.8745 11.043 11.9587 11.958C11.042 12.873 11.042 14.2205 11.042 16.668V23.3346C11.042 25.7821 11.042 27.1305 11.9587 28.0446ZM18.542 27.5346C18.542 28.3205 19.1811 28.9596 19.967 28.9596L27.5337 28.9604C28.3195 28.9604 28.9587 28.3213 28.9587 27.5355C28.9587 26.4888 28.2495 25.5988 27.2328 25.3671L25.7295 24.9663L25.8478 24.3813C25.8946 24.1351 25.9923 23.8792 26.0955 23.6089L26.1003 23.5963C26.2212 23.2813 26.3453 22.9555 26.4137 22.5988C26.4437 22.4446 26.4587 22.2771 26.4587 22.0854C26.4587 20.5921 25.2437 19.3771 23.7503 19.3771C22.257 19.3771 21.042 20.5921 21.042 22.0854C21.042 22.2646 21.0628 22.428 21.0803 22.5588L21.0862 22.5938C21.1553 22.9546 21.2795 23.2805 21.4003 23.5955C21.5061 23.8705 21.6053 24.1305 21.6545 24.3871L21.7712 24.9655L20.2678 25.3663C19.2512 25.598 18.542 26.488 18.542 27.5346ZM20.552 26.583L22.582 26.043L24.9186 26.0422L26.9229 26.5763L26.9486 26.583C27.3962 26.6821 27.7087 27.0738 27.7087 27.5346C27.7087 27.6313 27.6304 27.7096 27.5337 27.7096H19.967C19.8703 27.7096 19.792 27.6313 19.792 27.5346C19.792 27.0738 20.1045 26.6821 20.552 26.583ZM24.4895 24.793H23.012L22.8812 24.1463C22.8124 23.7893 22.6892 23.4668 22.5699 23.1543L22.5678 23.1488C22.4645 22.8788 22.367 22.623 22.3178 22.3763C22.3053 22.2821 22.292 22.1771 22.292 22.0854C22.292 21.2813 22.9462 20.6271 23.7503 20.6271C24.5545 20.6271 25.2087 21.2813 25.2087 22.0854C25.2087 22.1946 25.2012 22.283 25.1862 22.3605C25.1387 22.6121 25.0385 22.8735 24.9327 23.1493L24.9327 23.1493C24.8127 23.4625 24.6886 23.7865 24.6212 24.1396L24.4895 24.793ZM16.8429 18.9596H16.8753L16.8737 18.9604C17.0929 18.9604 17.297 18.8446 17.4103 18.6554C18.0087 17.6538 19.3003 15.9346 20.2203 15.5863C20.5436 15.4638 20.7062 15.1029 20.5837 14.7804C20.4612 14.4571 20.1003 14.2946 19.7778 14.4171C18.6578 14.8413 17.5312 16.2496 16.8812 17.1804C16.417 16.6529 15.9878 16.5988 15.8328 16.5988C15.4878 16.5988 15.2078 16.8788 15.2078 17.2238C15.2078 17.5413 15.4437 17.8038 15.7503 17.8438C15.8012 17.8688 16.0337 18.0096 16.3079 18.5988C16.4062 18.8088 16.612 18.9479 16.8429 18.9596ZM14.3753 21.668C14.3753 22.013 14.6553 22.293 15.0003 22.293H18.3337C18.6787 22.293 18.9587 22.013 18.9587 21.668C18.9587 21.323 18.6787 21.043 18.3337 21.043H15.0003C14.6553 21.043 14.3753 21.323 14.3753 21.668ZM18.3337 24.793C18.6787 24.793 18.9587 24.513 18.9587 24.168C18.9587 23.823 18.6787 23.543 18.3337 23.543H15.0003C14.6553 23.543 14.3753 23.823 14.3753 24.168C14.3753 24.513 14.6553 24.793 15.0003 24.793H18.3337Z" stroke="#9DA4AE"/>
</svg>
