<svg width="19" height="16" viewBox="0 0 19 16" fill="none" xmlns="http://www.w3.org/2000/svg">
<path d="M9.80111 15.3247C8.99694 15.3247 8.62194 14.6613 7.80111 13.208L7.74951 13.1155L2.33366 3.56632L2.32908 3.55823C2.08888 3.13332 1.84407 2.70025 1.64616 2.39469C1.62699 2.80053 1.62695 3.34716 1.62695 3.88383V14.7005C1.62695 15.0455 1.34695 15.3255 1.00195 15.3255C0.656953 15.3255 0.376953 15.0455 0.376953 14.7005V3.88383C0.376953 3.06747 0.376953 2.42124 0.426107 1.95886C0.512773 1.15136 0.829486 0.742188 1.36865 0.742188C2.17213 0.742188 2.56297 1.43347 3.41893 2.94742L3.42114 2.95133L8.92923 12.664C9.14577 13.0464 9.35317 13.4127 9.5236 13.6797C9.54277 13.2739 9.5428 12.7239 9.5428 12.1847V1.368C9.5428 1.023 9.82281 0.743001 10.1678 0.743001C10.5128 0.743001 10.7928 1.023 10.7928 1.368V12.1847C10.7928 13.001 10.7928 13.6473 10.7437 14.1097C10.657 14.9172 10.3403 15.3263 9.80111 15.3263V15.3247Z" fill="#067647"/>
<path d="M17.6654 9.49137H12.6654C12.3204 9.49137 12.0404 9.21137 12.0404 8.86637C12.0404 8.52137 12.3204 8.24137 12.6654 8.24137H17.6654C18.0104 8.24137 18.2904 8.52137 18.2904 8.86637C18.2904 9.21137 18.0104 9.49137 17.6654 9.49137Z" fill="#067647"/>
<path fill-rule="evenodd" clip-rule="evenodd" d="M12.7078 6.32548C13.3069 6.92465 14.6269 6.98962 15.1661 6.98962C15.7053 6.98962 17.0253 6.92548 17.6244 6.32548C18.2236 5.72631 18.2886 4.40631 18.2886 3.86715C18.2886 3.32798 18.2236 2.00798 17.6244 1.40881C17.0253 0.809647 15.7053 0.744629 15.1661 0.744629C14.6269 0.744629 13.3078 0.808813 12.7078 1.40881C12.1086 2.00798 12.0436 3.32798 12.0436 3.86715C12.0436 4.40631 12.1086 5.72631 12.7078 6.32548ZM13.5911 2.29216C13.6844 2.19882 14.2111 1.99382 15.1661 1.99382C16.1211 1.99382 16.6478 2.19882 16.7411 2.29216C16.8345 2.38549 17.0395 2.91215 17.0395 3.86715C17.0395 4.82215 16.8345 5.34881 16.7411 5.44214C16.6478 5.53547 16.1211 5.74048 15.1661 5.74048C14.2111 5.74048 13.6844 5.53547 13.5911 5.44214C13.4977 5.34881 13.2927 4.82215 13.2927 3.86715C13.2927 2.91215 13.4977 2.38549 13.5911 2.29216Z" fill="#067647"/>
</svg>
