<svg width="40" height="40" viewBox="0 0 40 40" fill="none" xmlns="http://www.w3.org/2000/svg">
<path d="M0 20C0 8.95431 8.95431 0 20 0C31.0457 0 40 8.95431 40 20C40 31.0457 31.0457 40 20 40C8.95431 40 0 31.0457 0 20Z" fill="#FFFAEB"/>
<path d="M17.6258 26.0407C16.945 26.0407 16.4383 25.5023 15.8275 24.854C15.6458 24.6607 15.4392 24.4415 15.2025 24.204L13.5642 22.5607C12.4742 21.4665 11.875 20.8648 11.875 19.9907C11.875 19.1165 12.4742 18.5157 13.5625 17.4232L13.5642 17.4215L15.2025 15.7782C15.3825 15.5974 15.5458 15.429 15.6958 15.2757C16.5792 14.3673 17.2175 13.7115 18.1342 14.0349C19.1359 14.3874 19.1591 15.7032 19.1158 16.6423C19.1983 16.6407 19.28 16.639 19.3608 16.6374C20.3317 16.6165 21.3367 16.5949 22.3233 16.7799C24.3792 17.1665 25.9191 18.1882 26.9008 19.8173C27.7133 21.1648 28.125 22.9073 28.125 24.9957C28.125 25.229 27.995 25.4432 27.7867 25.5507C27.5792 25.6582 27.3292 25.6407 27.1383 25.5057L26.8792 25.3215C25.8325 24.5765 24.8442 23.8724 23.6833 23.5557C22.4759 23.2249 21.1058 23.2665 19.7808 23.3065C19.5608 23.3132 19.3375 23.3199 19.1142 23.3249C19.1583 24.2649 19.14 25.594 18.1333 25.9482C17.9525 26.0124 17.7841 26.0415 17.6258 26.0415V26.0407ZM14.4492 18.304L14.4475 18.3057C13.6225 19.134 13.1242 19.634 13.1242 19.9907C13.1242 20.3473 13.6217 20.8482 14.4467 21.6765L16.0867 23.3215C16.3367 23.5724 16.5492 23.7982 16.7367 23.9973C17.395 24.6965 17.5542 24.8232 17.7125 24.7707C17.7958 24.6973 17.9216 24.3849 17.8516 23.1307C17.8425 22.9674 17.835 22.8257 17.835 22.7073C17.835 22.3623 18.115 22.0823 18.46 22.0823C18.8775 22.0823 19.2983 22.0698 19.7433 22.0565C21.16 22.014 22.625 21.9698 24.0125 22.3498C25.0609 22.6357 25.965 23.1707 26.8184 23.7524C26.51 20.4707 24.9241 18.5407 22.0916 18.0082C21.2325 17.8465 20.2941 17.8673 19.3866 17.8865C19.0825 17.8932 18.7683 17.8999 18.46 17.8999C18.115 17.8999 17.835 17.6199 17.835 17.2749C17.835 17.1574 17.8425 17.0157 17.8516 16.8515C17.9208 15.5982 17.7958 15.2857 17.7125 15.2115C17.5467 15.164 17.1025 15.6199 16.5908 16.1465C16.4375 16.304 16.2708 16.4757 16.0867 16.6607L14.4483 18.304H14.4492Z" fill="#DBA102"/>
</svg>
