<svg width="40" height="40" viewBox="0 0 40 40" fill="none" xmlns="http://www.w3.org/2000/svg">
<path d="M0 20C0 8.95431 8.95431 0 20 0C31.0457 0 40 8.95431 40 20C40 31.0457 31.0457 40 20 40C8.95431 40 0 31.0457 0 20Z" fill="#F9FAFB"/>
<path fill-rule="evenodd" clip-rule="evenodd" d="M19.3086 20.9771C19.3251 20.9907 19.3389 21.0039 19.3508 21.0167C19.4253 21.0971 19.5084 21.2493 19.607 21.698C20.0662 23.786 20.4224 25.406 20.8016 26.5046C20.9907 27.0525 21.2034 27.5267 21.4728 27.8764C21.754 28.2414 22.1365 28.5172 22.6399 28.5394C22.9533 28.5533 23.2139 28.4102 23.3926 28.2774C23.5809 28.1375 23.758 27.9499 23.9222 27.7448C24.2523 27.3325 24.599 26.7619 24.944 26.1026C25.6373 24.7776 26.3715 23.001 26.9927 21.1734C27.6137 19.3464 28.1311 17.4409 28.3804 15.8571C28.5047 15.0673 28.5662 14.3338 28.532 13.7193C28.4996 13.1367 28.3754 12.5246 27.9974 12.1175C27.6079 11.698 26.9972 11.5409 26.4137 11.4846C25.8006 11.4256 25.0663 11.4649 24.2758 11.5685C22.6903 11.7765 20.7749 12.2579 18.9349 12.8502C17.0937 13.4428 15.299 14.1559 13.9549 14.8391C13.286 15.1791 12.7058 15.5231 12.284 15.8536C12.074 16.0181 11.8824 16.1954 11.7382 16.384C11.6007 16.5639 11.456 16.8199 11.458 17.1285C11.4633 17.9386 12.0149 18.5111 12.6024 18.8954C13.202 19.2876 13.983 19.5832 14.7594 19.8147C15.544 20.0487 16.3692 20.23 17.0786 20.377C17.2504 20.4126 17.4133 20.4458 17.5665 20.477C18.0646 20.5785 18.4595 20.659 18.7202 20.7322C18.949 20.7964 19.0939 20.8518 19.19 20.9014C19.2271 20.9315 19.267 20.9568 19.3086 20.9771ZM12.6964 17.1963C12.6963 17.1966 12.6964 17.1963 12.6964 17.1963L12.6972 17.1946C12.6968 17.1954 12.6966 17.1959 12.6964 17.1963ZM12.7314 17.143C12.7229 17.1541 12.7164 17.1634 12.7113 17.171C12.7332 17.3465 12.8685 17.5758 13.2867 17.8493C13.734 18.1419 14.3773 18.3964 15.1166 18.6168C15.8475 18.8348 16.6293 19.0074 17.3322 19.153C17.4829 19.1842 17.6319 19.2146 17.7769 19.2441C18.2879 19.3481 18.7492 19.442 19.0579 19.5286C19.1951 19.5671 19.329 19.6085 19.4578 19.6567L22.0577 17.0568C22.3018 16.8127 22.6975 16.8127 22.9416 17.0568C23.1857 17.3008 23.1857 17.6966 22.9416 17.9406L20.4615 20.4208C20.6467 20.7157 20.7467 21.0605 20.8279 21.4295C21.2946 23.5519 21.6336 25.084 21.9832 26.0968C22.1585 26.6046 22.3184 26.9258 22.463 27.1135C22.5436 27.2182 22.6022 27.2606 22.6416 27.2781L22.6473 27.2739C22.7162 27.2227 22.817 27.1253 22.9464 26.9636C23.2036 26.6423 23.5072 26.1524 23.8365 25.5231C24.4917 24.2709 25.2021 22.5574 25.8092 20.7711C26.4166 18.9841 26.9112 17.1518 27.1456 15.6628C27.263 14.9162 27.3112 14.2796 27.2839 13.7888C27.2548 13.2662 27.1463 13.0379 27.0815 12.9681C27.0172 12.8989 26.8043 12.7781 26.2938 12.7289C25.8128 12.6825 25.1828 12.7103 24.4383 12.8079C22.9538 13.0026 21.1165 13.4611 19.3179 14.04C17.5204 14.6186 15.7906 15.3082 14.5213 15.9534C13.8835 16.2776 13.3847 16.5792 13.0549 16.8375C12.8892 16.9674 12.7869 17.0704 12.7314 17.143Z" fill="#1B8354"/>
</svg>
