<svg width="18" height="18" viewBox="0 0 18 18" fill="none" xmlns="http://www.w3.org/2000/svg">
<path fill-rule="evenodd" clip-rule="evenodd" d="M8.30861 9.97856C8.32515 9.99215 8.33887 10.0053 8.3508 10.0182C8.42531 10.0985 8.50838 10.2508 8.60704 10.6994C9.06618 12.7874 9.42242 14.4075 9.80159 15.5061C9.99068 16.0539 10.2034 16.5282 10.4728 16.8779C10.754 17.2429 11.1365 17.5187 11.6399 17.5409C11.9533 17.5547 12.2139 17.4116 12.3926 17.2789C12.5809 17.139 12.758 16.9514 12.9222 16.7462C13.2523 16.3339 13.599 15.7634 13.944 15.1041C14.6373 13.7791 15.3715 12.0025 15.9927 10.1748C16.6137 8.3479 17.1311 6.44233 17.3804 4.85858C17.5047 4.06875 17.5662 3.33522 17.532 2.7208C17.4996 2.13813 17.3754 1.52604 16.9974 1.11897C16.6079 0.699478 15.9972 0.542352 15.4137 0.486114C14.8006 0.427022 14.0663 0.466323 13.2758 0.57001C11.6903 0.77797 9.77488 1.25935 7.93485 1.85163C6.09368 2.44429 4.29896 3.15737 2.95489 3.84055C2.28597 4.18056 1.70579 4.52459 1.28402 4.85504C1.074 5.01959 0.882361 5.19683 0.7382 5.38547C0.600703 5.5654 0.456038 5.82141 0.458028 6.13001C0.463251 6.94008 1.01491 7.51258 1.6024 7.89685C2.20204 8.28908 2.983 8.58463 3.75935 8.81615C4.54404 9.05015 5.36923 9.23149 6.07862 9.37848C6.2504 9.41407 6.41332 9.44727 6.56649 9.47849C7.06456 9.58 7.45951 9.66049 7.7202 9.73363C7.94905 9.79784 8.09389 9.85327 8.18997 9.90284C8.22715 9.93298 8.26698 9.95822 8.30861 9.97856ZM1.69642 6.19776C1.6963 6.19805 1.69641 6.19776 1.69642 6.19776L1.69718 6.19611C1.69682 6.19686 1.69657 6.19741 1.69642 6.19776ZM1.7314 6.14446C1.72295 6.15552 1.71637 6.16482 1.71132 6.17242C1.73316 6.34797 1.86849 6.57725 2.28665 6.85076C2.73398 7.14336 3.3773 7.39782 4.11657 7.61828C4.8475 7.83625 5.62928 8.00882 6.33223 8.15447C6.48291 8.18569 6.6319 8.21603 6.77687 8.24554C7.28794 8.34959 7.74918 8.4435 8.05786 8.5301C8.19505 8.56859 8.32897 8.60998 8.45782 8.65813L11.0577 6.05822C11.3018 5.81414 11.6975 5.81414 11.9416 6.05822C12.1857 6.3023 12.1857 6.69803 11.9416 6.9421L9.46148 9.42225C9.64672 9.71713 9.74674 10.062 9.82787 10.431C10.2946 12.5533 10.6336 14.0855 10.9832 15.0983C11.1585 15.6061 11.3184 15.9273 11.463 16.115C11.5436 16.2196 11.6022 16.2621 11.6416 16.2795L11.6473 16.2754C11.7162 16.2242 11.817 16.1267 11.9464 15.9651C12.2036 15.6438 12.5072 15.1539 12.8365 14.5246C13.4917 13.2723 14.2021 11.5588 14.8092 9.77257C15.4166 7.98555 15.9112 6.15329 16.1456 4.66425C16.263 3.91769 16.3112 3.28108 16.2839 2.79024C16.2548 2.26766 16.1463 2.03936 16.0815 1.96954C16.0172 1.90038 15.8043 1.77956 15.2938 1.73035C14.8128 1.68399 14.1828 1.71174 13.4383 1.80939C11.9538 2.00411 10.1165 2.46255 8.31786 3.04151C6.5204 3.62009 4.79063 4.30967 3.52128 4.95487C2.88349 5.27905 2.38472 5.58063 2.05493 5.83901C1.88917 5.96888 1.78688 6.07186 1.7314 6.14446Z" fill="#1B8354"/>
</svg>
