<svg width="10" height="10" viewBox="0 0 10 10" fill="none" xmlns="http://www.w3.org/2000/svg">
<g id="elements">
<g id="Icon">
<path d="M0.983419 1.87083C0.798279 1.72634 0.477116 1.48374 0.369534 1.40248C0.147204 1.23872 0.0996939 0.925715 0.263445 0.703375C0.427201 0.481027 0.740518 0.433763 0.962865 0.59752L0.964322 0.59862C1.07695 0.683689 1.40963 0.934966 1.59865 1.08248C1.97783 1.3784 2.4851 1.78535 2.99383 2.22705C3.50007 2.6666 4.0192 3.15038 4.4157 3.59913C4.61345 3.82293 4.79126 4.04979 4.92234 4.26723C5.04515 4.47095 5.16601 4.72887 5.16601 4.99988C5.16601 5.27089 5.04516 5.52882 4.92235 5.73253C4.79126 5.94998 4.61345 6.17684 4.4157 6.40064C4.0192 6.84938 3.50007 7.33316 2.99382 7.77271C2.48508 8.21441 1.97781 8.62137 1.59862 8.91729C1.40977 9.06467 1.07723 9.31583 0.964301 9.40113L0.962514 9.40248C0.740165 9.56623 0.427167 9.51874 0.263411 9.29639C0.0996564 9.07404 0.147614 8.7607 0.369962 8.59695C0.477546 8.51569 0.798255 8.27342 0.983397 8.12894C1.35421 7.83955 1.84694 7.44415 2.33821 7.01761C2.83196 6.58892 3.31283 6.13858 3.66632 5.7385C3.84358 5.53789 3.97826 5.36167 4.06593 5.21625C4.14837 5.07949 4.16552 5.00107 4.16552 5.00107C4.16552 5.00107 4.14838 4.92028 4.06593 4.78351C3.97826 4.63809 3.84357 4.46187 3.66632 4.26126C3.31282 3.86119 2.83196 3.41085 2.33822 2.98215C1.84695 2.55561 1.35423 2.16021 0.983419 1.87083Z" fill="#074D31"/>
<path d="M5.65008 1.87083C5.46495 1.72634 5.14378 1.48374 5.0362 1.40248C4.81387 1.23872 4.76636 0.925715 4.93011 0.703375C5.09387 0.481027 5.40718 0.433763 5.62953 0.59752L5.63099 0.59862C5.74368 0.683739 6.07633 0.934996 6.26532 1.08248C6.6445 1.3784 7.15176 1.78535 7.66049 2.22705C8.16674 2.6666 8.68587 3.15038 9.08237 3.59913C9.28011 3.82293 9.45792 4.04979 9.58901 4.26723C9.71182 4.47095 9.83267 4.72887 9.83268 4.99988C9.83268 5.27089 9.71182 5.52882 9.58901 5.73253C9.45793 5.94998 9.28012 6.17684 9.08237 6.40064C8.68587 6.84938 8.16673 7.33316 7.66048 7.77271C7.15175 8.21441 6.64448 8.62137 6.26529 8.91729C6.07648 9.06464 5.74403 9.31573 5.63104 9.40108L5.62918 9.40248C5.40683 9.56623 5.09383 9.51874 4.93008 9.29639C4.76632 9.07404 4.81428 8.7607 5.03663 8.59695C5.14421 8.51569 5.46492 8.27342 5.65006 8.12894C6.02088 7.83955 6.51361 7.44415 7.00487 7.01761C7.49863 6.58892 7.97949 6.13858 8.33299 5.7385C8.51024 5.53789 8.64493 5.36167 8.7326 5.21625C8.81504 5.07949 8.83219 5.00107 8.83219 5.00107C8.83219 5.00107 8.81504 4.92028 8.73259 4.78351C8.64493 4.63809 8.51024 4.46187 8.33298 4.26126C7.97949 3.86119 7.49863 3.41085 7.00488 2.98215C6.51362 2.55561 6.02089 2.16021 5.65008 1.87083Z" fill="#074D31"/>
</g>
</g>
</svg>
