<svg width="21" height="21" viewBox="0 0 21 21" fill="none" xmlns="http://www.w3.org/2000/svg">
<path d="M15.5052 12.75C15.5052 13.0261 15.2814 13.25 15.0052 13.25C14.7291 13.25 14.5052 13.0261 14.5052 12.75V5.77538L14.5012 5.78015C14.3607 5.94591 14.2232 6.12109 14.0946 6.28491L14.0648 6.32287C13.9366 6.48603 13.8018 6.65743 13.6971 6.76516C13.5046 6.96318 13.1881 6.96768 12.9901 6.77521C12.792 6.58274 12.7875 6.26619 12.98 6.06817C13.0391 6.00733 13.1362 5.88612 13.2784 5.70517L13.3097 5.66522C13.4364 5.5038 13.5851 5.3144 13.7382 5.13367C13.9024 4.93997 14.0861 4.73877 14.2697 4.58236C14.3618 4.50397 14.4655 4.42666 14.5771 4.36694C14.6847 4.30935 14.833 4.25 15.0052 4.25C15.1774 4.25 15.3257 4.30935 15.4333 4.36694C15.5449 4.42666 15.6487 4.50397 15.7407 4.58236C15.9243 4.73877 16.1081 4.93997 16.2722 5.13367C16.4253 5.31442 16.574 5.5038 16.7007 5.66523L16.7321 5.70517C16.8742 5.88612 16.9713 6.00733 17.0304 6.06817C17.2229 6.26619 17.2184 6.58274 17.0204 6.77521C16.8224 6.96768 16.5058 6.96318 16.3133 6.76516C16.2086 6.65743 16.0738 6.48603 15.9457 6.32287L15.9159 6.28492C15.7872 6.1211 15.6497 5.94591 15.5093 5.78015L15.5052 5.77538V12.75Z" fill="#161616"/>
<path d="M4.67188 9.25C4.39574 9.25 4.17188 9.02614 4.17188 8.75C4.17188 8.47386 4.39574 8.25 4.67188 8.25H9.33855C9.61469 8.25 9.83855 8.47386 9.83855 8.75C9.83855 9.02614 9.61469 9.25 9.33855 9.25H4.67188Z" fill="#161616"/>
<path d="M4.67188 13.25C4.39574 13.25 4.17188 13.0261 4.17188 12.75C4.17187 12.4739 4.39573 12.25 4.67187 12.25L12.0052 12.2499C12.2813 12.2499 12.5052 12.4738 12.5052 12.7499C12.5052 13.0261 12.2814 13.2499 12.0052 13.2499L4.67188 13.25Z" fill="#161616"/>
<path d="M4.17188 16.75C4.17188 17.0261 4.39574 17.25 4.67188 17.25H15.3385C15.6147 17.25 15.8385 17.0261 15.8385 16.75C15.8385 16.4739 15.6147 16.25 15.3385 16.25H4.67188C4.39574 16.25 4.17188 16.4739 4.17188 16.75Z" fill="#161616"/>
</svg>
