<svg width="21" height="21" viewBox="0 0 21 21" fill="none" xmlns="http://www.w3.org/2000/svg">
<path d="M4.17188 4.75C4.17188 4.47386 4.39574 4.25 4.67188 4.25H15.3385C15.6147 4.25 15.8385 4.47386 15.8385 4.75C15.8385 5.02614 15.6147 5.25 15.3385 5.25H4.67188C4.39574 5.25 4.17188 5.02614 4.17188 4.75Z" fill="#161616"/>
<path d="M4.67188 8.25C4.39574 8.25 4.17188 8.47386 4.17188 8.75C4.17187 9.02614 4.39573 9.25 4.67187 9.25L12.0052 9.25006C12.2813 9.25006 12.5052 9.0262 12.5052 8.75006C12.5052 8.47392 12.2814 8.25006 12.0052 8.25006L4.67188 8.25Z" fill="#161616"/>
<path d="M4.67188 12.25C4.39574 12.25 4.17188 12.4739 4.17188 12.75C4.17188 13.0261 4.39574 13.25 4.67188 13.25H9.33855C9.61469 13.25 9.83855 13.0261 9.83855 12.75C9.83855 12.4739 9.61469 12.25 9.33855 12.25H4.67188Z" fill="#161616"/>
<path d="M15.5052 8.75C15.5052 8.47386 15.2814 8.25 15.0052 8.25C14.7291 8.25 14.5052 8.47386 14.5052 8.75V15.7246L14.5012 15.7199C14.3607 15.5541 14.2232 15.3789 14.0946 15.2151L14.0648 15.1771C13.9366 15.014 13.8018 14.8426 13.6971 14.7348C13.5046 14.5368 13.1881 14.5323 12.9901 14.7248C12.792 14.9173 12.7875 15.2338 12.98 15.4318C13.0391 15.4927 13.1362 15.6139 13.2784 15.7948L13.3097 15.8348C13.4364 15.9962 13.5851 16.1856 13.7382 16.3663C13.9024 16.56 14.0861 16.7612 14.2697 16.9176C14.3618 16.996 14.4655 17.0733 14.5771 17.1331C14.6847 17.1907 14.833 17.25 15.0052 17.25C15.1774 17.25 15.3257 17.1907 15.4333 17.1331C15.5449 17.0733 15.6487 16.996 15.7407 16.9176C15.9243 16.7612 16.1081 16.56 16.2722 16.3663C16.4253 16.1856 16.574 15.9963 16.7007 15.8349L16.7321 15.7948C16.8742 15.6139 16.9713 15.4927 17.0304 15.4318C17.2229 15.2338 17.2184 14.9173 17.0204 14.7248C16.8224 14.5323 16.5058 14.5368 16.3133 14.7348C16.2086 14.8426 16.0738 15.014 15.9457 15.1771L15.9159 15.2151C15.7872 15.3789 15.6497 15.5541 15.5093 15.7199L15.5052 15.7246V8.75Z" fill="#161616"/>
</svg>
