<svg width="40" height="40" viewBox="0 0 40 40" fill="none" xmlns="http://www.w3.org/2000/svg">
<path d="M0 20C0 8.95431 8.95431 0 20 0C31.0457 0 40 8.95431 40 20C40 31.0457 31.0457 40 20 40C8.95431 40 0 31.0457 0 20Z" fill="#ECFDF3"/>
<path d="M23.7944 17.9236C24.0276 17.6692 24.0104 17.2738 23.756 17.0406C23.5015 16.8073 23.1062 16.8245 22.8729 17.079L18.7307 21.5978L17.1089 19.976C16.8649 19.732 16.4691 19.732 16.2251 19.976C15.981 20.2201 15.981 20.6158 16.2251 20.8599L18.3084 22.9432C18.4289 23.0638 18.5935 23.1299 18.7639 23.1262C18.9343 23.1225 19.0959 23.0493 19.211 22.9236L23.7944 17.9236Z" fill="#1B8354"/>
<path fill-rule="evenodd" clip-rule="evenodd" d="M20.0003 28.9596C15.0528 28.9596 11.042 24.9489 11.042 20.0013C11.042 15.0538 15.0528 11.043 20.0003 11.043C24.9479 11.043 28.9587 15.0538 28.9587 20.0013C28.9587 24.9489 24.9479 28.9596 20.0003 28.9596ZM12.292 20.0013C12.292 24.2585 15.7431 27.7096 20.0003 27.7096C24.2575 27.7096 27.7087 24.2585 27.7087 20.0013C27.7087 15.7441 24.2575 12.293 20.0003 12.293C15.7431 12.293 12.292 15.7441 12.292 20.0013Z" fill="#1B8354"/>
</svg>
