<svg width="40" height="40" viewBox="0 0 40 40" fill="none" xmlns="http://www.w3.org/2000/svg">
<path d="M0 20C0 8.95431 8.95431 0 20 0C31.0457 0 40 8.95431 40 20C40 31.0457 31.0457 40 20 40C8.95431 40 0 31.0457 0 20Z" fill="#ECFDF3"/>
<path d="M23.7939 17.9217C24.0271 17.6672 24.0099 17.2719 23.7555 17.0386C23.501 16.8054 23.1057 16.8226 22.8724 17.077L18.7302 21.5958L17.1084 19.9741C16.8644 19.73 16.4686 19.73 16.2246 19.9741C15.9805 20.2182 15.9805 20.6139 16.2246 20.858L18.3079 22.9413C18.4284 23.0618 18.593 23.1279 18.7634 23.1242C18.9338 23.1205 19.0954 23.0473 19.2106 22.9217L23.7939 17.9217Z" fill="#1B8354"/>
<path fill-rule="evenodd" clip-rule="evenodd" d="M19.9998 28.9577C15.0523 28.9577 11.0415 24.9469 11.0415 19.9993C11.0415 15.0518 15.0523 11.041 19.9998 11.041C24.9474 11.041 28.9582 15.0518 28.9582 19.9993C28.9582 24.9469 24.9474 28.9577 19.9998 28.9577ZM12.2915 19.9993C12.2915 24.2565 15.7426 27.7077 19.9998 27.7077C24.257 27.7077 27.7082 24.2565 27.7082 19.9993C27.7082 15.7422 24.257 12.291 19.9998 12.291C15.7426 12.291 12.2915 15.7422 12.2915 19.9993Z" fill="#1B8354"/>
</svg>
