<svg width="40" height="40" viewBox="0 0 40 40" fill="none" xmlns="http://www.w3.org/2000/svg">
<path d="M0 20C0 8.95431 8.95431 0 20 0C31.0457 0 40 8.95431 40 20C40 31.0457 31.0457 40 20 40C8.95431 40 0 31.0457 0 20Z" fill="#F9FAFB"/>
<g clip-path="url(#clip0_10591_35314)">
<path d="M20.0003 23.3337V20.0003M20.0003 16.667H20.0087M28.3337 20.0003C28.3337 24.6027 24.6027 28.3337 20.0003 28.3337C15.398 28.3337 11.667 24.6027 11.667 20.0003C11.667 15.398 15.398 11.667 20.0003 11.667C24.6027 11.667 28.3337 15.398 28.3337 20.0003Z" stroke="#9DA4AE" stroke-width="1.66667" stroke-linecap="round" stroke-linejoin="round"/>
</g>
<defs>
<clipPath id="clip0_10591_35314">
<rect width="20" height="20" fill="white" transform="translate(10 10)"/>
</clipPath>
</defs>
</svg>
