<svg width="18" height="18" viewBox="0 0 18 18" fill="none" xmlns="http://www.w3.org/2000/svg">
<g id="elements">
<g id="Icon">
<path d="M12.7751 6.1086C13.0192 5.86452 13.0192 5.46879 12.7751 5.22471C12.531 4.98064 12.1353 4.98064 11.8912 5.22471L8.9999 8.11605L7.35843 6.4747C7.11434 6.23063 6.71862 6.23064 6.47455 6.47473C6.23048 6.71882 6.23049 7.11454 6.47458 7.35861L8.11601 8.99993L7.72456 9.39138C7.48048 9.63546 7.48048 10.0312 7.72456 10.2753C7.96864 10.5193 8.36437 10.5193 8.60845 10.2753L8.99993 9.88379L9.39114 10.275C9.63523 10.519 10.031 10.519 10.275 10.2749C10.5191 10.0309 10.5191 9.63513 10.275 9.39106L9.88381 8.9999L12.7751 6.1086Z" fill="#067647"/>
<path fill-rule="evenodd" clip-rule="evenodd" d="M8.99984 0.0416565C4.05229 0.0416565 0.0415039 4.05244 0.0415039 8.99999C0.0415039 13.9475 4.05229 17.9583 8.99984 17.9583C13.9474 17.9583 17.9582 13.9475 17.9582 8.99999C17.9582 4.05244 13.9474 0.0416565 8.99984 0.0416565ZM1.2915 8.99999C1.2915 4.74279 4.74264 1.29166 8.99984 1.29166C13.257 1.29166 16.7082 4.74279 16.7082 8.99999C16.7082 13.2572 13.257 16.7083 8.99984 16.7083C4.74264 16.7083 1.2915 13.2572 1.2915 8.99999Z" fill="#067647"/>
</g>
</g>
</svg>
