<svg width="23" height="22" viewBox="0 0 23 22" fill="none" xmlns="http://www.w3.org/2000/svg">
<path d="M0.849609 11C0.849609 5.06294 5.66255 0.25 11.5996 0.25C16.4179 0.25 20.4466 3.4182 21.8151 7.77526C21.8867 8.00307 21.8455 8.25133 21.7042 8.44382C21.5629 8.6363 21.3384 8.75 21.0996 8.75H18.5996C18.1854 8.75 17.8496 8.41421 17.8496 8C17.8496 7.58579 18.1854 7.25 18.5996 7.25H20.0169C18.5832 4.00655 15.3694 1.75 11.5996 1.75C6.49097 1.75 2.34961 5.89137 2.34961 11C2.34961 16.1086 6.49094 20.25 11.5996 20.25C12.0138 20.25 12.3496 20.5858 12.3496 21C12.3496 21.4142 12.0138 21.75 11.5996 21.75C5.66251 21.75 0.849609 16.9371 0.849609 11Z" fill="#067647"/>
<path d="M11.5996 6.25C12.0138 6.25 12.3496 6.58579 12.3496 7V10.6893L14.1299 12.4697C14.4228 12.7626 14.4228 13.2374 14.1299 13.5303C13.837 13.8232 13.3621 13.8232 13.0692 13.5303L11.0692 11.5303C10.9286 11.3897 10.8496 11.1989 10.8496 11V7C10.8496 6.58579 11.1854 6.25 11.5996 6.25Z" fill="#067647"/>
<path d="M22.3496 11C22.3496 10.5858 22.0138 10.25 21.5996 10.25C21.1854 10.25 20.8496 10.5858 20.8496 11C20.8496 11.3147 20.8354 11.6258 20.8077 11.9325C20.7704 12.3451 21.0746 12.7097 21.4872 12.747C21.8997 12.7842 22.2643 12.48 22.3016 12.0675C22.3333 11.7159 22.3496 11.3598 22.3496 11Z" fill="#067647"/>
<path d="M21.6065 15.1106C21.7525 14.723 21.5566 14.2904 21.169 14.1444C20.7813 13.9984 20.3487 14.1942 20.2027 14.5819C20.0637 14.9511 19.9037 15.3092 19.7245 15.6545C19.5337 16.0222 19.677 16.4749 20.0447 16.6657C20.4123 16.8565 20.8651 16.7131 21.0559 16.3455C21.2623 15.9477 21.4464 15.5354 21.6065 15.1106Z" fill="#067647"/>
<path d="M19.3181 18.8167C19.5998 18.5131 19.5822 18.0386 19.2786 17.7568C18.975 17.475 18.5004 17.4927 18.2187 17.7963C17.9351 18.1017 17.6329 18.3874 17.3139 18.6514C16.9947 18.9155 16.9501 19.3883 17.2142 19.7074C17.4783 20.0265 17.9511 20.0711 18.2702 19.807C18.6402 19.5009 18.9902 19.1699 19.3181 18.8167Z" fill="#067647"/>
<path d="M15.9118 21.2897C16.2884 21.1172 16.4539 20.6721 16.2815 20.2955C16.109 19.9189 15.6639 19.7534 15.2873 19.9258C14.9877 20.063 14.68 20.184 14.3651 20.2876C13.9716 20.4171 13.7577 20.841 13.8872 21.2345C14.0167 21.6279 14.4406 21.8419 14.8341 21.7124C15.2024 21.5912 15.562 21.4498 15.9118 21.2897Z" fill="#067647"/>
</svg>
