<svg width="20" height="20" viewBox="0 0 20 20" fill="none" xmlns="http://www.w3.org/2000/svg">
<path fill-rule="evenodd" clip-rule="evenodd" d="M3.95768 5.83333C3.95768 3.64721 5.72989 1.875 7.91602 1.875C10.1021 1.875 11.8743 3.64721 11.8743 5.83333C11.8743 8.01946 10.1021 9.79167 7.91602 9.79167C5.72989 9.79167 3.95768 8.01946 3.95768 5.83333ZM7.91602 3.125C6.42024 3.125 5.20768 4.33756 5.20768 5.83333C5.20768 7.3291 6.42024 8.54167 7.91602 8.54167C9.41179 8.54167 10.6243 7.3291 10.6243 5.83333C10.6243 4.33756 9.41179 3.125 7.91602 3.125Z" fill="#1B8354"/>
<path fill-rule="evenodd" clip-rule="evenodd" d="M3.90985 12.2122C6.48945 10.6515 9.75952 10.6515 12.3391 12.2122C12.4199 12.2612 12.5208 12.319 12.6358 12.3848C13.1463 12.6773 13.9341 13.1287 14.4729 13.6646C14.8105 14.0004 15.1386 14.4499 15.1983 15.0052C15.2621 15.5976 15.0065 16.1497 14.5061 16.634C13.6588 17.4543 12.6285 18.125 11.2884 18.125H4.96052C3.62048 18.125 2.59019 17.4543 1.74284 16.634C1.2425 16.1497 0.986903 15.5976 1.05063 15.0052C1.11037 14.4499 1.43849 14.0004 1.77605 13.6646C2.31486 13.1287 3.10265 12.6774 3.61319 12.3848C3.728 12.319 3.8291 12.2611 3.90985 12.2122ZM11.692 13.2817C9.51025 11.9616 6.73872 11.9616 4.55693 13.2817C4.43312 13.3566 4.29868 13.4342 4.15875 13.5149C3.64844 13.8092 3.06509 14.1456 2.65754 14.5509C2.40538 14.8017 2.30857 14.9985 2.29346 15.1389C2.28234 15.2423 2.30198 15.4356 2.61227 15.7359C3.34886 16.449 4.08267 16.875 4.96052 16.875H11.2884C12.1663 16.875 12.9001 16.449 13.6367 15.7359C13.947 15.4356 13.9666 15.2423 13.9555 15.1389C13.9404 14.9985 13.8436 14.8017 13.5914 14.5509C13.1839 14.1456 12.6005 13.8092 12.0902 13.5149C11.9504 13.4342 11.8158 13.3566 11.692 13.2817Z" fill="#1B8354"/>
<path d="M14.166 3.54167C13.8208 3.54167 13.541 3.82149 13.541 4.16667C13.541 4.51184 13.8208 4.79167 14.166 4.79167L18.3327 4.79167C18.6779 4.79167 18.9577 4.51185 18.9577 4.16667C18.9577 3.82149 18.6779 3.54167 18.3327 3.54167L14.166 3.54167Z" fill="#1B8354"/>
<path d="M13.541 6.66667C13.541 6.32149 13.8208 6.04167 14.166 6.04167L18.3327 6.04167C18.6779 6.04167 18.9577 6.32149 18.9577 6.66667C18.9577 7.01185 18.6779 7.29167 18.3327 7.29167L14.166 7.29167C13.8208 7.29167 13.541 7.01184 13.541 6.66667Z" fill="#1B8354"/>
<path d="M16.666 8.54167C16.3208 8.54167 16.041 8.82149 16.041 9.16667C16.041 9.51184 16.3208 9.79167 16.666 9.79167H18.3327C18.6779 9.79167 18.9577 9.51185 18.9577 9.16667C18.9577 8.82149 18.6779 8.54167 18.3327 8.54167H16.666Z" fill="#1B8354"/>
<path fill-rule="evenodd" clip-rule="evenodd" d="M3.95768 5.83333C3.95768 3.64721 5.72989 1.875 7.91602 1.875C10.1021 1.875 11.8743 3.64721 11.8743 5.83333C11.8743 8.01946 10.1021 9.79167 7.91602 9.79167C5.72989 9.79167 3.95768 8.01946 3.95768 5.83333ZM7.91602 3.125C6.42024 3.125 5.20768 4.33756 5.20768 5.83333C5.20768 7.3291 6.42024 8.54167 7.91602 8.54167C9.41179 8.54167 10.6243 7.3291 10.6243 5.83333C10.6243 4.33756 9.41179 3.125 7.91602 3.125Z" stroke="#9DA4AE"/>
<path fill-rule="evenodd" clip-rule="evenodd" d="M3.90985 12.2122C6.48945 10.6515 9.75952 10.6515 12.3391 12.2122C12.4199 12.2612 12.5208 12.319 12.6358 12.3848C13.1463 12.6773 13.9341 13.1287 14.4729 13.6646C14.8105 14.0004 15.1386 14.4499 15.1983 15.0052C15.2621 15.5976 15.0065 16.1497 14.5061 16.634C13.6588 17.4543 12.6285 18.125 11.2884 18.125H4.96052C3.62048 18.125 2.59019 17.4543 1.74284 16.634C1.2425 16.1497 0.986903 15.5976 1.05063 15.0052C1.11037 14.4499 1.43849 14.0004 1.77605 13.6646C2.31486 13.1287 3.10265 12.6774 3.61319 12.3848C3.728 12.319 3.8291 12.2611 3.90985 12.2122ZM11.692 13.2817C9.51025 11.9616 6.73872 11.9616 4.55693 13.2817C4.43312 13.3566 4.29868 13.4342 4.15875 13.5149C3.64844 13.8092 3.06509 14.1456 2.65754 14.5509C2.40538 14.8017 2.30857 14.9985 2.29346 15.1389C2.28234 15.2423 2.30198 15.4356 2.61227 15.7359C3.34886 16.449 4.08267 16.875 4.96052 16.875H11.2884C12.1663 16.875 12.9001 16.449 13.6367 15.7359C13.947 15.4356 13.9666 15.2423 13.9555 15.1389C13.9404 14.9985 13.8436 14.8017 13.5914 14.5509C13.1839 14.1456 12.6005 13.8092 12.0902 13.5149C11.9504 13.4342 11.8158 13.3566 11.692 13.2817Z" stroke="#9DA4AE"/>
<path d="M14.166 3.54167C13.8208 3.54167 13.541 3.82149 13.541 4.16667C13.541 4.51184 13.8208 4.79167 14.166 4.79167L18.3327 4.79167C18.6779 4.79167 18.9577 4.51185 18.9577 4.16667C18.9577 3.82149 18.6779 3.54167 18.3327 3.54167L14.166 3.54167Z" stroke="#9DA4AE"/>
<path d="M13.541 6.66667C13.541 6.32149 13.8208 6.04167 14.166 6.04167L18.3327 6.04167C18.6779 6.04167 18.9577 6.32149 18.9577 6.66667C18.9577 7.01185 18.6779 7.29167 18.3327 7.29167L14.166 7.29167C13.8208 7.29167 13.541 7.01184 13.541 6.66667Z" stroke="#9DA4AE"/>
<path d="M16.666 8.54167C16.3208 8.54167 16.041 8.82149 16.041 9.16667C16.041 9.51184 16.3208 9.79167 16.666 9.79167H18.3327C18.6779 9.79167 18.9577 9.51185 18.9577 9.16667C18.9577 8.82149 18.6779 8.54167 18.3327 8.54167H16.666Z" stroke="#9DA4AE"/>
</svg>
