<svg width="20" height="20" viewBox="0 0 20 20" fill="none" xmlns="http://www.w3.org/2000/svg">
<path fill-rule="evenodd" clip-rule="evenodd" d="M4.79199 5.4165C4.79199 3.00026 6.75075 1.0415 9.16699 1.0415C11.5832 1.0415 13.542 3.00026 13.542 5.4165C13.542 7.83275 11.5832 9.7915 9.16699 9.7915C6.75075 9.7915 4.79199 7.83275 4.79199 5.4165ZM9.16699 2.2915C7.4411 2.2915 6.04199 3.69061 6.04199 5.4165C6.04199 7.14239 7.4411 8.5415 9.16699 8.5415C10.8929 8.5415 12.292 7.14239 12.292 5.4165C12.292 3.69061 10.8929 2.2915 9.16699 2.2915Z" fill="#1B8354"/>
<path d="M9.94233 12.3276C8.23025 12.1676 6.47815 12.5391 4.96821 13.4382C4.82836 13.5214 4.67513 13.6084 4.51462 13.6994C3.92078 14.0363 3.22719 14.4298 2.74378 14.903C2.44367 15.1967 2.31575 15.4391 2.29528 15.6263C2.27903 15.7749 2.31661 16.02 2.69214 16.3778C3.55534 17.2002 4.43249 17.7082 5.49286 17.7082H10.8338C11.179 17.7082 11.4588 17.988 11.4588 18.3332C11.4588 18.6783 11.179 18.9582 10.8338 18.9582H5.49286C3.97761 18.9582 2.80612 18.2129 1.82991 17.2828C1.26406 16.7437 0.98201 16.137 1.05268 15.4905C1.11914 14.8825 1.48468 14.3863 1.86941 14.0097C2.48454 13.4076 3.38247 12.901 3.97648 12.5659C4.11204 12.4894 4.23176 12.4219 4.32869 12.3641C6.07376 11.3251 8.09187 10.8993 10.0586 11.083C10.4023 11.1152 10.6549 11.4198 10.6228 11.7635C10.5906 12.1072 10.286 12.3597 9.94233 12.3276Z" fill="#1B8354"/>
<path fill-rule="evenodd" clip-rule="evenodd" d="M12.1932 12.2851C13.3176 11.6145 14.3568 11.8659 15.0008 12.3239C15.6449 11.8659 16.684 11.6145 17.8085 12.2851C18.6471 12.7852 19.0818 13.8053 18.9285 14.9168C18.774 16.0367 18.0387 17.2387 16.5861 18.284L16.5244 18.3285C16.0627 18.6615 15.6519 18.958 15.0008 18.958C14.3498 18.958 13.9389 18.6615 13.4773 18.3285L13.4156 18.284C11.963 17.2387 11.2277 16.0367 11.0732 14.9168C10.9199 13.8053 11.3546 12.7852 12.1932 12.2851ZM12.8334 13.3586C13.4828 12.9714 13.9922 13.1349 14.2875 13.3506L14.3006 13.3601C14.3851 13.4219 14.4714 13.4848 14.5437 13.5309C14.5829 13.5558 14.6367 13.5881 14.6987 13.6153C14.7563 13.6406 14.864 13.6812 15.0008 13.6812C15.1377 13.6812 15.2454 13.6406 15.3029 13.6153C15.3649 13.5881 15.4188 13.5558 15.458 13.5309C15.5303 13.4848 15.6165 13.4219 15.7011 13.3601L15.7142 13.3506C16.0095 13.1349 16.5188 12.9714 17.1682 13.3586C17.5027 13.5581 17.7873 14.0418 17.6902 14.746C17.5942 15.4418 17.1093 16.3675 15.8559 17.2694C15.3125 17.6604 15.215 17.708 15.0008 17.708C14.7866 17.708 14.6892 17.6604 14.1457 17.2694C12.8924 16.3675 12.4075 15.4418 12.3115 14.746C12.2143 14.0418 12.4989 13.5581 12.8334 13.3586Z" fill="#1B8354"/>
<path fill-rule="evenodd" clip-rule="evenodd" d="M4.79199 5.4165C4.79199 3.00026 6.75075 1.0415 9.16699 1.0415C11.5832 1.0415 13.542 3.00026 13.542 5.4165C13.542 7.83275 11.5832 9.7915 9.16699 9.7915C6.75075 9.7915 4.79199 7.83275 4.79199 5.4165ZM9.16699 2.2915C7.4411 2.2915 6.04199 3.69061 6.04199 5.4165C6.04199 7.14239 7.4411 8.5415 9.16699 8.5415C10.8929 8.5415 12.292 7.14239 12.292 5.4165C12.292 3.69061 10.8929 2.2915 9.16699 2.2915Z" stroke="#9DA4AE"/>
<path d="M9.94233 12.3276C8.23025 12.1676 6.47815 12.5391 4.96821 13.4382C4.82836 13.5214 4.67513 13.6084 4.51462 13.6994C3.92078 14.0363 3.22719 14.4298 2.74378 14.903C2.44367 15.1967 2.31575 15.4391 2.29528 15.6263C2.27903 15.7749 2.31661 16.02 2.69214 16.3778C3.55534 17.2002 4.43249 17.7082 5.49286 17.7082H10.8338C11.179 17.7082 11.4588 17.988 11.4588 18.3332C11.4588 18.6783 11.179 18.9582 10.8338 18.9582H5.49286C3.97761 18.9582 2.80612 18.2129 1.82991 17.2828C1.26406 16.7437 0.98201 16.137 1.05268 15.4905C1.11914 14.8825 1.48468 14.3863 1.86941 14.0097C2.48454 13.4076 3.38247 12.901 3.97648 12.5659C4.11204 12.4894 4.23176 12.4219 4.32869 12.3641C6.07376 11.3251 8.09187 10.8993 10.0586 11.083C10.4023 11.1152 10.6549 11.4198 10.6228 11.7635C10.5906 12.1072 10.286 12.3597 9.94233 12.3276Z" stroke="#9DA4AE"/>
<path fill-rule="evenodd" clip-rule="evenodd" d="M12.1932 12.2851C13.3176 11.6145 14.3568 11.8659 15.0008 12.3239C15.6449 11.8659 16.684 11.6145 17.8085 12.2851C18.6471 12.7852 19.0818 13.8053 18.9285 14.9168C18.774 16.0367 18.0387 17.2387 16.5861 18.284L16.5244 18.3285C16.0627 18.6615 15.6519 18.958 15.0008 18.958C14.3498 18.958 13.9389 18.6615 13.4773 18.3285L13.4156 18.284C11.963 17.2387 11.2277 16.0367 11.0732 14.9168C10.9199 13.8053 11.3546 12.7852 12.1932 12.2851ZM12.8334 13.3586C13.4828 12.9714 13.9922 13.1349 14.2875 13.3506L14.3006 13.3601C14.3851 13.4219 14.4714 13.4848 14.5437 13.5309C14.5829 13.5558 14.6367 13.5881 14.6987 13.6153C14.7563 13.6406 14.864 13.6812 15.0008 13.6812C15.1377 13.6812 15.2454 13.6406 15.3029 13.6153C15.3649 13.5881 15.4188 13.5558 15.458 13.5309C15.5303 13.4848 15.6165 13.4219 15.7011 13.3601L15.7142 13.3506C16.0095 13.1349 16.5188 12.9714 17.1682 13.3586C17.5027 13.5581 17.7873 14.0418 17.6902 14.746C17.5942 15.4418 17.1093 16.3675 15.8559 17.2694C15.3125 17.6604 15.215 17.708 15.0008 17.708C14.7866 17.708 14.6892 17.6604 14.1457 17.2694C12.8924 16.3675 12.4075 15.4418 12.3115 14.746C12.2143 14.0418 12.4989 13.5581 12.8334 13.3586Z" stroke="#9DA4AE"/>
</svg>
