<svg width="15" height="22" viewBox="0 0 15 22" fill="none" xmlns="http://www.w3.org/2000/svg">
  <path fill-rule="evenodd" clip-rule="evenodd" d="M7.66602 0.25C5.59495 0.25 3.91602 1.92893 3.91602 4C3.91602 5.07361 4.47117 6.11878 5.14024 6.87011C5.48222 7.25412 5.87796 7.58958 6.29454 7.8334C6.70417 8.07316 7.17869 8.25 7.66602 8.25C8.15334 8.25 8.62786 8.07316 9.0375 7.8334C9.45407 7.58958 9.84982 7.25412 10.1918 6.87011C10.8609 6.11878 11.416 5.07361 11.416 4C11.416 1.92893 9.73708 0.25 7.66602 0.25ZM5.41602 4C5.41602 2.75736 6.42338 1.75 7.66602 1.75C8.90866 1.75 9.91602 2.75736 9.91602 4C9.91602 4.58324 9.59207 5.28807 9.07159 5.87254C8.81878 6.15642 8.54214 6.38529 8.2798 6.53884C8.01052 6.69645 7.79959 6.75 7.66602 6.75C7.53245 6.75 7.32151 6.69645 7.05224 6.53884C6.7899 6.38529 6.51325 6.15642 6.26045 5.87254C5.73996 5.28807 5.41602 4.58324 5.41602 4Z" fill="#1B8354"/>
  <path d="M12.2021 7.43607C11.8907 7.163 11.4168 7.19411 11.1437 7.50557C10.8707 7.81702 10.9018 8.29087 11.2132 8.56395C12.5822 9.76418 13.3607 11.6997 12.6399 13.4145C12.5634 13.5965 12.3938 13.7039 12.2176 13.7039C12.1537 13.7039 12.0978 13.7013 12.0255 13.6978C11.9719 13.6953 11.9093 13.6923 11.828 13.6897C11.669 13.6845 11.4638 13.6828 11.2554 13.7127C11.0485 13.7424 10.7869 13.8099 10.5475 13.9807C10.2899 14.1644 10.1098 14.4309 10.0294 14.7588L8.93218 19.2337C8.78347 19.8402 8.25505 20.25 7.66619 20.25C7.07733 20.25 6.54892 19.8402 6.40021 19.2337L5.30295 14.7588C5.22255 14.4309 5.04251 14.1644 4.7849 13.9807C4.54544 13.8099 4.28386 13.7424 4.07702 13.7127C3.86861 13.6828 3.66343 13.6845 3.50441 13.6897C3.42305 13.6923 3.36053 13.6953 3.30698 13.6978C3.23468 13.7013 3.17869 13.7039 3.11482 13.7039C2.93855 13.7039 2.76898 13.5965 2.69249 13.4145C1.97165 11.6997 2.75027 9.76419 4.11921 8.56395C4.43067 8.29087 4.46178 7.81702 4.18871 7.50557C3.91564 7.19411 3.44178 7.163 3.13033 7.43607C1.45329 8.90645 0.258082 11.4941 1.30968 13.9958C1.61507 14.7223 2.32166 15.2039 3.11482 15.2039C3.20745 15.2039 3.3299 15.1985 3.43132 15.1939C3.47799 15.1918 3.52022 15.1899 3.55302 15.1889C3.68932 15.1845 3.78877 15.1867 3.86402 15.1975L3.86616 15.1978L4.94336 19.591C5.25224 20.8506 6.36839 21.75 7.66619 21.75C8.964 21.75 10.0801 20.8506 10.389 19.591L11.4662 15.1978L11.4684 15.1975C11.5436 15.1867 11.6431 15.1845 11.7794 15.1889C11.8121 15.1899 11.8542 15.1918 11.9008 15.1939C12.0022 15.1984 12.125 15.2039 12.2176 15.2039C13.0107 15.2039 13.7173 14.7223 14.0227 13.9958C15.0743 11.4941 13.8792 8.90646 12.2021 7.43607Z" fill="#1B8354"/>
</svg>
