<svg width="25" height="24" viewBox="0 0 25 24" fill="none" xmlns="http://www.w3.org/2000/svg">
  <path d="M13.916 9C13.916 8.58579 14.2518 8.25 14.666 8.25H18.666C19.0802 8.25 19.416 8.58579 19.416 9C19.416 9.41421 19.0802 9.75 18.666 9.75H14.666C14.2518 9.75 13.916 9.41421 13.916 9Z" fill="#1B8354"/>
  <path d="M13.916 12.5C13.916 12.0858 14.2518 11.75 14.666 11.75H17.666C18.0802 11.75 18.416 12.0858 18.416 12.5C18.416 12.9142 18.0802 13.25 17.666 13.25H14.666C14.2518 13.25 13.916 12.9142 13.916 12.5Z" fill="#1B8354"/>
  <path d="M9.14745 14.7504C7.90666 14.7687 6.79395 15.3599 6.34545 16.318C6.16983 16.6931 5.72335 16.8549 5.34821 16.6792C4.97307 16.5036 4.81132 16.0571 4.98694 15.682C5.74675 14.059 7.49013 13.2747 9.12531 13.2506C10.7696 13.2263 12.5427 13.9673 13.3454 15.682C13.5211 16.0571 13.3593 16.5036 12.9842 16.6792C12.609 16.8549 12.1626 16.6931 11.9869 16.318C11.5019 15.2818 10.3791 14.7322 9.14745 14.7504Z" fill="#1B8354"/>
  <path fill-rule="evenodd" clip-rule="evenodd" d="M9.16602 6.25C7.64723 6.25 6.41602 7.48122 6.41602 9C6.41602 10.5188 7.64723 11.75 9.16602 11.75C10.6848 11.75 11.916 10.5188 11.916 9C11.916 7.48122 10.6848 6.25 9.16602 6.25ZM7.91602 9C7.91602 8.30964 8.47566 7.75 9.16602 7.75C9.85637 7.75 10.416 8.30964 10.416 9C10.416 9.69036 9.85637 10.25 9.16602 10.25C8.47566 10.25 7.91602 9.69036 7.91602 9Z" fill="#1B8354"/>
  <path fill-rule="evenodd" clip-rule="evenodd" d="M13.7113 2.25H11.6208C9.78423 2.24999 8.34463 2.24999 7.20249 2.37373C6.03695 2.50001 5.09257 2.76232 4.28625 3.34815C3.79811 3.70281 3.36883 4.13209 3.01417 4.62024C2.42834 5.42656 2.16602 6.37094 2.03974 7.53648C1.916 8.67861 1.91601 10.1182 1.91602 11.9548V12.0452C1.91601 13.8818 1.916 15.3214 2.03974 16.4635C2.16602 17.6291 2.42834 18.5734 3.01417 19.3798C3.36883 19.8679 3.79811 20.2972 4.28625 20.6518C5.09257 21.2377 6.03695 21.5 7.20249 21.6263C8.34461 21.75 9.78418 21.75 11.6207 21.75H13.7113C15.5478 21.75 16.9874 21.75 18.1295 21.6263C19.2951 21.5 20.2395 21.2377 21.0458 20.6518C21.5339 20.2972 21.9632 19.8679 22.3179 19.3798C22.9037 18.5734 23.166 17.6291 23.2923 16.4635C23.416 15.3214 23.416 13.8818 23.416 12.0453V11.9547C23.416 10.1182 23.416 8.67859 23.2923 7.53648C23.166 6.37094 22.9037 5.42656 22.3179 4.62024C21.9632 4.13209 21.5339 3.70281 21.0458 3.34815C20.2395 2.76232 19.2951 2.50001 18.1295 2.37373C16.9874 2.24999 15.5478 2.24999 13.7113 2.25ZM5.16793 4.56168C5.67593 4.19259 6.32615 3.97745 7.36406 3.865C8.41601 3.75103 9.77444 3.75 11.666 3.75H13.666C15.5576 3.75 16.916 3.75103 17.968 3.865C19.0059 3.97745 19.6561 4.19259 20.1641 4.56168C20.5249 4.82382 20.8422 5.14111 21.1043 5.50191C21.4734 6.00992 21.6886 6.66013 21.801 7.69805C21.915 8.74999 21.916 10.1084 21.916 12C21.916 13.8916 21.915 15.25 21.801 16.302C21.6886 17.3399 21.4734 17.9901 21.1043 18.4981C20.8422 18.8589 20.5249 19.1762 20.1641 19.4383C19.6561 19.8074 19.0059 20.0225 17.968 20.135C16.916 20.249 15.5576 20.25 13.666 20.25H11.666C9.77444 20.25 8.41601 20.249 7.36406 20.135C6.32615 20.0225 5.67593 19.8074 5.16793 19.4383C4.80713 19.1762 4.48983 18.8589 4.22769 18.4981C3.85861 17.9901 3.64347 17.3399 3.53102 16.302C3.41705 15.25 3.41602 13.8916 3.41602 12C3.41602 10.1084 3.41705 8.74999 3.53102 7.69805C3.64347 6.66013 3.85861 6.00992 4.22769 5.50191C4.48983 5.14111 4.80713 4.82382 5.16793 4.56168Z" fill="#1B8354"/>
</svg>
