<svg width="40" height="40" viewBox="0 0 40 40" fill="none" xmlns="http://www.w3.org/2000/svg">
<path d="M0 20C0 8.95431 8.95431 0 20 0C31.0457 0 40 8.95431 40 20C40 31.0457 31.0457 40 20 40C8.95431 40 0 31.0457 0 20Z" fill="#ECFDF3"/>
<path fill-rule="evenodd" clip-rule="evenodd" d="M22 11.25C19.9289 11.25 18.25 12.9289 18.25 15C18.25 16.0736 18.8052 17.1188 19.4742 17.8701C19.8162 18.2541 20.2119 18.5896 20.6285 18.8334C21.0382 19.0732 21.5127 19.25 22 19.25C22.4873 19.25 22.9618 19.0732 23.3715 18.8334C23.7881 18.5896 24.1838 18.2541 24.5258 17.8701C25.1948 17.1188 25.75 16.0736 25.75 15C25.75 12.9289 24.0711 11.25 22 11.25ZM19.75 15C19.75 13.7574 20.7574 12.75 22 12.75C23.2426 12.75 24.25 13.7574 24.25 15C24.25 15.5832 23.9261 16.2881 23.4056 16.8725C23.1528 17.1564 22.8761 17.3853 22.6138 17.5388C22.3445 17.6964 22.1336 17.75 22 17.75C21.8664 17.75 21.6555 17.6964 21.3862 17.5388C21.1239 17.3853 20.8472 17.1564 20.5944 16.8725C20.0739 16.2881 19.75 15.5832 19.75 15Z" fill="#067647"/>
<path d="M26.5361 18.4361C26.2246 18.163 25.7508 18.1941 25.4777 18.5056C25.2046 18.817 25.2358 19.2909 25.5472 19.5639C26.9161 20.7642 27.6947 22.6997 26.9739 24.4145C26.8974 24.5965 26.7278 24.7039 26.5515 24.7039C26.4877 24.7039 26.4317 24.7013 26.3594 24.6978C26.3059 24.6953 26.2433 24.6923 26.162 24.6897C26.0029 24.6845 25.7978 24.6828 25.5894 24.7127C25.3825 24.7424 25.1209 24.8099 24.8815 24.9807C24.6239 25.1644 24.4438 25.4309 24.3634 25.7588L23.2662 30.2337C23.1175 30.8402 22.589 31.25 22.0002 31.25C21.4113 31.25 20.8829 30.8402 20.7342 30.2337L19.6369 25.7588C19.5565 25.4309 19.3765 25.1644 19.1189 24.9807C18.8794 24.8099 18.6178 24.7424 18.411 24.7127C18.2026 24.6828 17.9974 24.6845 17.8384 24.6897C17.757 24.6923 17.6945 24.6953 17.641 24.6978C17.5687 24.7013 17.5127 24.7039 17.4488 24.7039C17.2725 24.7039 17.103 24.5965 17.0265 24.4145C16.3056 22.6997 17.0843 20.7642 18.4532 19.5639C18.7647 19.2909 18.7958 18.817 18.5227 18.5056C18.2496 18.1941 17.7758 18.163 17.4643 18.4361C15.7873 19.9065 14.5921 22.4941 15.6437 24.9958C15.9491 25.7223 16.6556 26.2039 17.4488 26.2039C17.5414 26.2039 17.6639 26.1985 17.7653 26.1939C17.812 26.1918 17.8542 26.1899 17.887 26.1889C18.0233 26.1845 18.1228 26.1867 18.198 26.1975L18.2001 26.1978L19.2773 30.591C19.5862 31.8506 20.7024 32.75 22.0002 32.75C23.298 32.75 24.4141 31.8506 24.723 30.591L25.8002 26.1978L25.8024 26.1975C25.8776 26.1867 25.977 26.1845 26.1134 26.1889C26.1461 26.1899 26.1882 26.1918 26.2348 26.1939C26.3361 26.1984 26.459 26.2039 26.5515 26.2039C27.3447 26.2039 28.0513 25.7223 28.3567 24.9958C29.4083 22.4941 28.2132 19.9065 26.5361 18.4361Z" fill="#067647"/>
</svg>
