<svg width="48" height="48" viewBox="0 0 48 48" fill="none" xmlns="http://www.w3.org/2000/svg">
<path d="M0 24C0 10.7452 10.7452 0 24 0C37.2548 0 48 10.7452 48 24C48 37.2548 37.2548 48 24 48C10.7452 48 0 37.2548 0 24Z" fill="#ECFDF3"/>
<path fill-rule="evenodd" clip-rule="evenodd" d="M21.0003 14.75C18.3769 14.75 16.2503 16.8766 16.2503 19.5C16.2503 22.1234 18.3769 24.25 21.0003 24.25C23.6236 24.25 25.7503 22.1234 25.7503 19.5C25.7503 16.8766 23.6236 14.75 21.0003 14.75ZM17.7503 19.5C17.7503 17.7051 19.2054 16.25 21.0003 16.25C22.7952 16.25 24.2503 17.7051 24.2503 19.5C24.2503 21.2949 22.7952 22.75 21.0003 22.75C19.2054 22.75 17.7503 21.2949 17.7503 19.5Z" fill="#067647"/>
<path fill-rule="evenodd" clip-rule="evenodd" d="M25.8732 27.4501C22.8873 25.85 19.1133 25.85 16.1273 27.4501C16.0343 27.5 15.9178 27.5591 15.7849 27.6265C15.1925 27.9271 14.2738 28.3932 13.644 28.9481C13.2557 29.2901 12.8396 29.7785 12.7626 30.4123C12.6783 31.1061 13.0229 31.7168 13.606 32.2168C14.6009 33.0699 15.7927 33.75 17.326 33.75H24.6746C26.2079 33.75 27.3997 33.0699 28.3946 32.2168C28.9777 31.7168 29.3223 31.1061 29.238 30.4123C29.161 29.7785 28.7449 29.2901 28.3566 28.9481C27.7268 28.3932 26.8081 27.9271 26.2157 27.6265C26.0828 27.5591 25.9663 27.5 25.8732 27.4501ZM14.5824 31.0781C14.2289 30.775 14.2484 30.6191 14.2515 30.5941C14.2615 30.5121 14.339 30.3349 14.6355 30.0736C15.1048 29.6602 15.7786 29.316 16.371 29.0134C16.5341 28.9301 16.6911 28.8498 16.8359 28.7722C19.3793 27.4093 22.6213 27.4093 25.1647 28.7722C25.3095 28.8499 25.4665 28.93 25.6296 29.0134C26.222 29.316 26.8958 29.6602 27.3651 30.0736C27.6616 30.3349 27.739 30.5112 27.7489 30.5931C27.7521 30.6182 27.7716 30.775 27.4182 31.0781C26.5737 31.8022 25.7169 32.25 24.6746 32.25H17.326C16.2837 32.25 15.4269 31.8022 14.5824 31.0781Z" fill="#067647"/>
<path d="M27.6461 17.8044C27.8252 17.7689 28.0121 17.75 28.2049 17.75C29.6784 17.75 30.7501 18.8221 30.7501 20C30.7501 21.1779 29.6784 22.25 28.2049 22.25C28.0121 22.25 27.8252 22.2311 27.6461 22.1956C27.2398 22.115 26.8451 22.379 26.7645 22.7853C26.6839 23.1916 26.9479 23.5863 27.3542 23.6669C27.6292 23.7214 27.9139 23.75 28.2049 23.75C30.3712 23.75 32.2501 22.1358 32.2501 20C32.2501 17.8642 30.3712 16.25 28.2049 16.25C27.9139 16.25 27.6292 16.2786 27.3542 16.3331C26.9479 16.4137 26.6839 16.8084 26.7645 17.2147C26.8451 17.621 27.2398 17.885 27.6461 17.8044Z" fill="#067647"/>
<path d="M29.5001 26.25C29.0859 26.25 28.7501 26.5858 28.7501 27C28.7501 27.4142 29.0859 27.75 29.5001 27.75C29.8103 27.75 30.3484 27.8438 30.9794 28.0395C31.599 28.2318 32.2462 28.5032 32.7709 28.8174C33.3237 29.1484 33.6234 29.4575 33.7191 29.6752C33.7564 29.7602 33.7541 29.8104 33.7428 29.852C33.7287 29.9039 33.6781 30.0185 33.4928 30.1839C32.7443 30.8516 32.0008 31.25 31.1064 31.25H30.6162C30.202 31.25 29.8662 31.5858 29.8662 32C29.8662 32.4142 30.202 32.75 30.6162 32.75H31.1064C32.5118 32.75 33.5974 32.1006 34.4913 31.3032C34.8275 31.0034 35.08 30.6521 35.1905 30.2448C35.3037 29.8273 35.2475 29.425 35.0923 29.0718C34.8029 28.4132 34.1632 27.9027 33.5415 27.5305C32.8917 27.1414 32.1294 26.8258 31.4239 26.6069C30.7297 26.3915 30.0271 26.25 29.5001 26.25Z" fill="#067647"/>
</svg>
