<svg width="18" height="18" viewBox="0 0 18 18" fill="none" xmlns="http://www.w3.org/2000/svg">
<g id="elements">
<g id="Icon">
<path fill-rule="evenodd" clip-rule="evenodd" d="M3.3763 4.83333C3.3763 2.64721 5.14851 0.875 7.33464 0.875C9.52076 0.875 11.293 2.64721 11.293 4.83333C11.293 7.01946 9.52076 8.79167 7.33464 8.79167C5.14851 8.79167 3.3763 7.01946 3.3763 4.83333ZM7.33464 2.125C5.83886 2.125 4.6263 3.33756 4.6263 4.83333C4.6263 6.3291 5.83886 7.54167 7.33464 7.54167C8.83041 7.54167 10.043 6.3291 10.043 4.83333C10.043 3.33756 8.83041 2.125 7.33464 2.125Z" fill="#067647"/>
<path fill-rule="evenodd" clip-rule="evenodd" d="M3.00214 11.2078C5.6548 9.65296 9.01479 9.65296 11.6675 11.2078C11.7515 11.257 11.8561 11.3151 11.9751 11.3812C12.5023 11.6738 13.3122 12.1234 13.8667 12.6577C14.213 12.9913 14.5543 13.4419 14.6166 14.0031C14.6833 14.6044 14.4147 15.1592 13.9011 15.6409C13.026 16.4615 11.9694 17.125 10.6008 17.125H4.06877C2.70015 17.125 1.64356 16.4615 0.768485 15.6409C0.254884 15.1592 -0.0137396 14.6044 0.0530287 14.0031C0.115339 13.4419 0.456636 12.9913 0.802873 12.6577C1.35737 12.1234 2.16729 11.6738 2.69449 11.3812C2.81338 11.3152 2.9182 11.257 3.00214 11.2078ZM11.0354 12.2862C8.77304 10.9602 5.89655 10.9602 3.63423 12.2862C3.50718 12.3607 3.36895 12.4379 3.22488 12.5184C2.69784 12.8128 2.09251 13.1509 1.67019 13.5579C1.40769 13.8108 1.31034 14.0064 1.29539 14.141C1.2849 14.2355 1.30039 14.426 1.62357 14.7291C2.38353 15.4418 3.14794 15.875 4.06877 15.875H10.6008C11.5216 15.875 12.2861 15.4418 13.046 14.7291C13.3692 14.426 13.3847 14.2355 13.3742 14.141C13.3592 14.0064 13.2619 13.8108 12.9994 13.5579C12.5771 13.1509 11.9719 12.8128 11.4448 12.5184C11.3007 12.4379 11.1624 12.3607 11.0354 12.2862Z" fill="#067647"/>
<path fill-rule="evenodd" clip-rule="evenodd" d="M14.8342 0.875C14.2979 0.875 13.87 1.04883 13.5332 1.21461C13.4108 1.27484 13.3095 1.32803 13.2202 1.37487C13.0352 1.47198 12.9022 1.54181 12.7412 1.5906L12.7258 1.59526C12.6159 1.62858 12.5071 1.66154 12.4206 1.69374C12.3497 1.72014 12.182 1.78306 12.0486 1.92388C11.932 2.04701 11.8783 2.18067 11.8491 2.27775C11.8258 2.35538 11.8092 2.44314 11.7972 2.50667L11.7945 2.52099C11.4343 4.4187 12.2307 6.27639 14.1975 6.99172L14.2152 6.99819C14.3868 7.06072 14.5632 7.125 14.8351 7.125C15.107 7.125 15.2834 7.06071 15.455 6.99818L15.4727 6.99172C17.4395 6.2763 18.235 4.41846 17.8748 2.52095L17.8721 2.50663C17.8601 2.4431 17.8435 2.35531 17.8201 2.27769C17.791 2.1806 17.7373 2.04692 17.6206 1.92379C17.4872 1.78299 17.3195 1.72008 17.2486 1.69369C17.1621 1.6615 17.0533 1.62855 16.9434 1.59526L16.928 1.5906C16.7669 1.54179 16.6337 1.47191 16.4485 1.37476C16.3592 1.32794 16.2578 1.27475 16.1355 1.21457C15.7985 1.04882 15.3705 0.875 14.8342 0.875ZM13.1038 2.78685C13.3863 2.70122 13.6774 2.54843 13.9015 2.43077C13.9696 2.39503 14.0315 2.36252 14.0851 2.33613C14.3545 2.20355 14.579 2.125 14.8342 2.125C15.0895 2.125 15.3141 2.20358 15.5838 2.33621C15.6374 2.36261 15.6994 2.39511 15.7675 2.43084C15.9918 2.54851 16.283 2.70129 16.5656 2.7869L16.6577 2.81492C16.8958 4.18893 16.3224 5.35251 15.0454 5.81701C14.9489 5.85212 14.9163 5.86323 14.8906 5.86964C14.8794 5.87244 14.8682 5.875 14.8351 5.875C14.802 5.875 14.7908 5.87244 14.7796 5.86964C14.7538 5.86323 14.7212 5.85212 14.6247 5.81701C13.3474 5.35244 12.7736 4.18872 13.0116 2.81491L13.1038 2.78685Z" fill="#067647"/>
</g>
</g>
</svg>
