<svg width="21" height="20" viewBox="0 0 21 20" fill="none" xmlns="http://www.w3.org/2000/svg">
<path fill-rule="evenodd" clip-rule="evenodd" d="M4.87435 5.83333C4.87435 3.64721 6.64655 1.875 8.83268 1.875C11.0188 1.875 12.791 3.64721 12.791 5.83333C12.791 8.01946 11.0188 9.79167 8.83268 9.79167C6.64655 9.79167 4.87435 8.01946 4.87435 5.83333ZM8.83268 3.125C7.33691 3.125 6.12435 4.33756 6.12435 5.83333C6.12435 7.3291 7.33691 8.54167 8.83268 8.54167C10.3285 8.54167 11.541 7.3291 11.541 5.83333C11.541 4.33756 10.3285 3.125 8.83268 3.125Z" fill="#161616"/>
<path fill-rule="evenodd" clip-rule="evenodd" d="M4.50018 12.2078C7.15284 10.653 10.5128 10.653 13.1655 12.2078C13.2495 12.257 13.3541 12.3151 13.4731 12.3812C14.0003 12.6738 14.8103 13.1234 15.3648 13.6577C15.711 13.9913 16.0523 14.4419 16.1146 15.0031C16.1814 15.6044 15.9128 16.1592 15.3992 16.6409C14.5241 17.4615 13.4675 18.125 12.0989 18.125H5.56682C4.1982 18.125 3.1416 17.4615 2.26653 16.6409C1.75293 16.1592 1.48431 15.6044 1.55108 15.0031C1.61339 14.4419 1.95468 13.9913 2.30092 13.6577C2.85541 13.1234 3.66534 12.6738 4.19254 12.3812C4.31143 12.3152 4.41625 12.257 4.50018 12.2078ZM12.5334 13.2862C10.2711 11.9602 7.3946 11.9602 5.13228 13.2862C5.00523 13.3607 4.867 13.4379 4.72293 13.5184C4.19589 13.8128 3.59055 14.1509 3.16823 14.5579C2.90574 14.8108 2.80839 15.0064 2.79344 15.141C2.78295 15.2355 2.79844 15.426 3.12161 15.7291C3.88158 16.4418 4.64599 16.875 5.56682 16.875H12.0989C13.0197 16.875 13.7841 16.4418 14.5441 15.7291C14.8672 15.426 14.8827 15.2355 14.8722 15.141C14.8573 15.0064 14.7599 14.8108 14.4974 14.5579C14.0751 14.1509 13.4699 13.8128 12.9429 13.5184C12.7988 13.4379 12.6605 13.3607 12.5334 13.2862Z" fill="#161616"/>
<path d="M17.3743 3.33333C17.3743 2.98816 17.0945 2.70833 16.7493 2.70833C16.4042 2.70833 16.1243 2.98816 16.1243 3.33333V4.79167H14.666C14.3208 4.79167 14.041 5.07149 14.041 5.41667C14.041 5.76184 14.3208 6.04167 14.666 6.04167H16.1243V7.5C16.1243 7.84518 16.4042 8.125 16.7493 8.125C17.0945 8.125 17.3743 7.84518 17.3743 7.5V6.04167H18.8327C19.1779 6.04167 19.4577 5.76184 19.4577 5.41667C19.4577 5.07149 19.1779 4.79167 18.8327 4.79167H17.3743V3.33333Z" fill="#161616"/>
</svg>
