<svg width="48" height="48" viewBox="0 0 48 48" fill="none" xmlns="http://www.w3.org/2000/svg">
<path opacity="0.4" fill-rule="evenodd" clip-rule="evenodd" d="M32.4098 11.5C32.0242 11.5 31.6504 11.5378 31.2921 11.6089C30.4795 11.7701 29.6901 11.242 29.529 10.4294C29.3678 9.61679 29.8958 8.82739 30.7084 8.6662C31.2584 8.5571 31.8278 8.5 32.4098 8.5C36.7424 8.5 40.5003 11.7285 40.5003 16C40.5003 20.2715 36.7424 23.5 32.4098 23.5C31.8278 23.5 31.2584 23.4429 30.7084 23.3338C29.8958 23.1726 29.3678 22.3832 29.529 21.5706C29.6901 20.758 30.4795 20.2299 31.2921 20.3911C31.6504 20.4622 32.0242 20.5 32.4098 20.5C35.3568 20.5 37.5003 18.3559 37.5003 16C37.5003 13.6441 35.3568 11.5 32.4098 11.5ZM33.5003 30C33.5003 29.1716 34.1719 28.5 35.0003 28.5C36.0541 28.5 37.4594 28.7831 38.8478 29.2138C40.2588 29.6516 41.7834 30.2827 43.083 31.0609C44.3263 31.8054 45.6059 32.8263 46.1847 34.1437C46.4951 34.8501 46.6075 35.6546 46.3809 36.4896C46.1599 37.3042 45.6549 38.0067 44.9826 38.6065C43.1948 40.2013 41.0236 41.5 38.2129 41.5H37.2325C36.404 41.5 35.7325 40.8284 35.7325 40C35.7325 39.1716 36.404 38.5 37.2325 38.5H38.2129C40.0015 38.5 41.4886 37.7031 42.9855 36.3678C43.3563 36.037 43.4575 35.8077 43.4856 35.704C43.5082 35.6207 43.5128 35.5204 43.4381 35.3505C43.2468 34.915 42.6474 34.2968 41.5418 33.6348C40.4924 33.0064 39.1981 32.4636 37.9588 32.0791C36.6968 31.6876 35.6206 31.5 35.0003 31.5C34.1719 31.5 33.5003 30.8284 33.5003 30Z" fill="#161616"/>
<path fill-rule="evenodd" clip-rule="evenodd" d="M18.0006 8.5C14.4107 8.5 11.5006 11.4101 11.5006 15C11.5006 18.5899 14.4107 21.5 18.0006 21.5C21.5904 21.5 24.5006 18.5899 24.5006 15C24.5006 11.4101 21.5904 8.5 18.0006 8.5ZM8.50059 15C8.50059 9.75329 12.7539 5.5 18.0006 5.5C23.2473 5.5 27.5006 9.75329 27.5006 15C27.5006 20.2467 23.2473 24.5 18.0006 24.5C12.7539 24.5 8.50059 20.2467 8.50059 15ZM4.50309 37.1881C4.49683 37.2383 4.4579 37.5501 5.16474 38.1561C6.85373 39.6043 8.56737 40.5 10.652 40.5H25.3491C27.4338 40.5 29.1474 39.6043 30.8364 38.1561C31.5433 37.5501 31.5043 37.2383 31.4981 37.1881L31.4978 37.1862C31.4779 37.0223 31.3232 36.6697 30.7301 36.1473C29.7915 35.3204 28.444 34.632 27.2592 34.0267C26.933 33.8601 26.6191 33.6997 26.3294 33.5445C21.2427 30.8185 14.7585 30.8185 9.67173 33.5445C9.3821 33.6997 9.0682 33.8601 8.74197 34.0267C7.55715 34.632 6.20966 35.3204 5.27103 36.1473C4.67795 36.6697 4.52324 37.0223 4.50333 37.1862L4.50309 37.1881ZM8.25469 30.9003C14.2266 27.6999 21.7746 27.6999 27.7465 30.9003C27.9327 31 28.1656 31.1182 28.4313 31.2531C29.6162 31.8542 31.4535 32.7865 32.7132 33.8962C33.4898 34.5803 34.322 35.5571 34.476 36.8245C34.6445 38.2123 33.9554 39.4336 32.7892 40.4336C30.7994 42.1397 28.4157 43.5 25.3491 43.5H10.652C7.58544 43.5 5.20181 42.1397 3.21198 40.4336C2.04577 39.4336 1.35667 38.2123 1.52522 36.8245C1.67915 35.5571 2.51138 34.5803 3.28796 33.8962C4.54765 32.7865 6.38502 31.8542 7.56983 31.2531C7.83557 31.1182 8.06849 31 8.25469 30.9003Z" fill="#D2D6DB"/>
</svg>
