<svg width="40" height="40" viewBox="0 0 40 40" fill="none" xmlns="http://www.w3.org/2000/svg">
<path d="M0 20C0 8.95431 8.95431 0 20 0C31.0457 0 40 8.95431 40 20C40 31.0457 31.0457 40 20 40C8.95431 40 0 31.0457 0 20Z" fill="#ECFDF3"/>
<path fill-rule="evenodd" clip-rule="evenodd" d="M20 11.041C17.5838 11.041 15.625 12.9998 15.625 15.416C15.625 17.8323 17.5838 19.791 20 19.791C22.4162 19.791 24.375 17.8323 24.375 15.416C24.375 12.9998 22.4162 11.041 20 11.041ZM16.875 15.416C16.875 13.6901 18.2741 12.291 20 12.291C21.7259 12.291 23.125 13.6901 23.125 15.416C23.125 17.1419 21.7259 18.541 20 18.541C18.2741 18.541 16.875 17.1419 16.875 15.416Z" fill="#067647"/>
<path fill-rule="evenodd" clip-rule="evenodd" d="M25.1907 22.5653C25.0552 22.4889 24.9355 22.4214 24.8386 22.3637C21.8769 20.6001 18.1234 20.6001 15.1617 22.3637C15.0648 22.4214 14.945 22.4889 14.8095 22.5654C14.2155 22.9005 13.3176 23.4071 12.7024 24.0092C12.3177 24.3858 11.9521 24.882 11.8857 25.49C11.815 26.1365 12.0971 26.7432 12.6629 27.2823C13.6391 28.2124 14.8106 28.9577 16.3259 28.9577H23.6744C25.1897 28.9577 26.3612 28.2124 27.3374 27.2823C27.9032 26.7432 28.1853 26.1365 28.1146 25.49C28.0481 24.882 27.6826 24.3858 27.2979 24.0092C26.6827 23.4071 25.7847 22.9005 25.1907 22.5653ZM15.8012 23.4377C18.3689 21.9088 21.6314 21.9088 24.1991 23.4377C24.339 23.521 24.4923 23.608 24.6529 23.6991C25.2467 24.036 25.9401 24.4293 26.4235 24.9025C26.7236 25.1963 26.8515 25.4386 26.872 25.6258C26.8883 25.7744 26.8507 26.0195 26.4751 26.3773C25.6119 27.1997 24.7348 27.7077 23.6744 27.7077H16.3259C15.2655 27.7077 14.3884 27.1997 13.5251 26.3773C13.1496 26.0195 13.112 25.7744 13.1283 25.6258C13.1488 25.4386 13.2767 25.1963 13.5768 24.9025C14.0602 24.4293 14.7535 24.036 15.3474 23.6991C15.5079 23.608 15.6613 23.521 15.8012 23.4377Z" fill="#067647"/>
</svg>
