<svg width="40" height="40" viewBox="0 0 40 40" fill="none" xmlns="http://www.w3.org/2000/svg">
<path d="M0 20C0 8.95431 8.95431 0 20 0C31.0457 0 40 8.95431 40 20C40 31.0457 31.0457 40 20 40C8.95431 40 0 31.0457 0 20Z" fill="#F3FCF6"/>
<path fill-rule="evenodd" clip-rule="evenodd" d="M19.9998 11.041C17.5835 11.041 15.6248 12.9998 15.6248 15.416C15.6248 17.8323 17.5835 19.791 19.9998 19.791C22.416 19.791 24.3748 17.8323 24.3748 15.416C24.3748 12.9998 22.416 11.041 19.9998 11.041ZM16.8748 15.416C16.8748 13.6901 18.2739 12.291 19.9998 12.291C21.7256 12.291 23.1248 13.6901 23.1248 15.416C23.1248 17.1419 21.7256 18.541 19.9998 18.541C18.2739 18.541 16.8748 17.1419 16.8748 15.416Z" fill="#085D3A"/>
<path fill-rule="evenodd" clip-rule="evenodd" d="M25.1905 22.5653C25.0549 22.4889 24.9353 22.4214 24.8383 22.3637C21.8766 20.6001 18.1232 20.6001 15.1615 22.3637C15.0645 22.4214 14.9448 22.4889 14.8092 22.5654C14.2152 22.9005 13.3173 23.4071 12.7022 24.0092C12.3174 24.3858 11.9519 24.882 11.8854 25.49C11.8148 26.1365 12.0968 26.7432 12.6627 27.2823C13.6389 28.2124 14.8104 28.9577 16.3256 28.9577H23.6742C25.1894 28.9577 26.3609 28.2124 27.3371 27.2823C27.903 26.7432 28.185 26.1365 28.1144 25.49C28.0479 24.882 27.6824 24.3858 27.2976 24.0092C26.6825 23.4071 25.7845 22.9005 25.1905 22.5653ZM15.801 23.4377C18.3686 21.9088 21.6312 21.9088 24.1988 23.4377C24.3387 23.521 24.492 23.608 24.6526 23.6991C25.2465 24.036 25.9399 24.4293 26.4233 24.9025C26.7234 25.1963 26.8513 25.4386 26.8718 25.6258C26.888 25.7744 26.8504 26.0195 26.4749 26.3773C25.6117 27.1997 24.7346 27.7077 23.6742 27.7077H16.3256C15.2653 27.7077 14.3881 27.1997 13.5249 26.3773C13.1494 26.0195 13.1118 25.7744 13.128 25.6258C13.1485 25.4386 13.2764 25.1963 13.5765 24.9025C14.06 24.4293 14.7533 24.036 15.3471 23.6991C15.5077 23.608 15.6611 23.521 15.801 23.4377Z" fill="#085D3A"/>
</svg>
