<svg width="48" height="48" viewBox="0 0 48 48" fill="none" xmlns="http://www.w3.org/2000/svg">
<path d="M0 24C0 10.7452 10.7452 0 24 0C37.2548 0 48 10.7452 48 24C48 37.2548 37.2548 48 24 48C10.7452 48 0 37.2548 0 24Z" fill="#F9FAFB"/>
<path fill-rule="evenodd" clip-rule="evenodd" d="M17.75 18.5C17.75 15.6005 20.1005 13.25 23 13.25C25.8995 13.25 28.25 15.6005 28.25 18.5C28.25 21.3995 25.8995 23.75 23 23.75C20.1005 23.75 17.75 21.3995 17.75 18.5ZM23 14.75C20.9289 14.75 19.25 16.4289 19.25 18.5C19.25 20.5711 20.9289 22.25 23 22.25C25.0711 22.25 26.75 20.5711 26.75 18.5C26.75 16.4289 25.0711 14.75 23 14.75Z" fill="#161616"/>
<path d="M24.8604 26.9247C22.5212 26.4808 20.0487 26.8832 17.9615 28.126C17.7936 28.226 17.6096 28.3303 17.4169 28.4397C16.7043 28.8439 15.8722 29.316 15.2921 29.8838C14.932 30.2363 14.7785 30.5271 14.7539 30.7517C14.7344 30.9301 14.7795 31.2242 15.2302 31.6535C16.266 32.6404 17.3186 33.25 18.591 33.25H24.5002C24.9144 33.25 25.2502 33.5858 25.2502 34C25.2502 34.4142 24.9144 34.75 24.5002 34.75H18.591C16.7727 34.75 15.367 33.8556 14.1955 32.7396C13.5165 32.0927 13.178 31.3646 13.2628 30.5887C13.3426 29.8592 13.7812 29.2637 14.2429 28.8118C14.9811 28.0893 16.0586 27.4814 16.7714 27.0792C16.934 26.9875 17.0777 26.9064 17.194 26.8372C19.6057 25.4012 22.4522 24.941 25.14 25.451C25.5469 25.5282 25.8142 25.9207 25.737 26.3276C25.6598 26.7346 25.2673 27.0019 24.8604 26.9247Z" fill="#161616"/>
<path fill-rule="evenodd" clip-rule="evenodd" d="M29.9991 25.25C30.6709 25.25 31.1209 25.7533 31.3637 26.245L31.3642 26.2459L32.0597 27.6484L32.0655 27.654C32.0703 27.6583 32.0759 27.663 32.0821 27.6676C32.0883 27.6722 32.0945 27.6763 32.1002 27.6798L32.1085 27.6844L33.3636 27.8947C33.9038 27.9855 34.4915 28.275 34.6903 28.8985C34.8887 29.521 34.5785 30.0974 34.1909 30.486L34.1899 30.487L33.2142 31.4708C33.2108 31.4778 33.2063 31.4888 33.2023 31.5027C33.1979 31.5181 33.1959 31.5314 33.1951 31.5401L33.4745 32.7579C33.6005 33.3093 33.6126 34.0753 33.018 34.5123C32.4204 34.9516 31.6923 34.7048 31.2071 34.4159L30.0304 33.7135L30.0229 33.7125C30.0164 33.7117 30.009 33.7113 30.0011 33.7113C29.9932 33.7113 29.9857 33.7117 29.9789 33.7125C29.9744 33.713 29.9707 33.7136 29.9678 33.7142L28.7926 34.4156C28.3057 34.7069 27.5793 34.9496 26.9825 34.5106C26.3893 34.0742 26.3979 33.3106 26.5249 32.7572L26.8041 31.5401C26.8034 31.5314 26.8013 31.5181 26.7969 31.5027C26.793 31.4888 26.7885 31.4778 26.7851 31.4708L25.8075 30.4851C25.4223 30.0967 25.1133 29.5211 25.3101 28.8998C25.5077 28.2757 26.0951 27.9855 26.6361 27.8946L27.8869 27.6851L27.894 27.681C27.8967 27.6793 27.8996 27.6775 27.9025 27.6755C27.9057 27.6734 27.909 27.6711 27.9122 27.6687C27.9185 27.6639 27.9243 27.6592 27.9291 27.6547L27.9354 27.6487L28.6325 26.2431C28.8772 25.7522 29.3283 25.25 29.9991 25.25ZM29.2728 28.3282L29.9749 26.9123C29.9826 26.8969 29.9904 26.882 29.9978 26.8687C30.0047 26.8814 30.0118 26.8949 30.0189 26.9095L30.0196 26.9109L30.7225 28.3282C30.8371 28.5624 31.0175 28.7452 31.1868 28.8711C31.357 28.9978 31.5841 29.1173 31.8395 29.1603L33.1154 29.374C33.1347 29.3772 33.1524 29.3808 33.1687 29.3844C33.1568 29.3978 33.1435 29.4121 33.1285 29.427L33.1267 29.4289L32.1348 30.4289C31.9391 30.6263 31.8216 30.8738 31.7594 31.093C31.697 31.3127 31.6678 31.5824 31.7272 31.8497L32.0123 33.0927C32.0174 33.115 32.0218 33.1362 32.0256 33.1563C32.0096 33.1475 31.9926 33.1378 31.9752 33.1275L30.78 32.4141C30.5276 32.2634 30.243 32.2113 30.0011 32.2113C29.7585 32.2113 29.4756 32.2637 29.2242 32.4112L28.0227 33.1283C28.0057 33.1385 27.9893 33.1479 27.9736 33.1565C27.9774 33.1364 27.9818 33.1151 27.9869 33.0927L28.2709 31.8547L28.272 31.8497C28.3315 31.5824 28.3023 31.3127 28.2399 31.093C28.1776 30.8738 28.0602 30.6263 27.8644 30.4289L26.8725 29.4289C26.857 29.4132 26.8432 29.3983 26.831 29.3844C26.8471 29.3807 26.8651 29.3772 26.8843 29.3739L28.1598 29.1603L28.1624 29.1598C28.4166 29.1163 28.642 28.9959 28.8104 28.87C28.9782 28.7446 29.1582 28.5622 29.2728 28.3282Z" fill="#161616"/>
</svg>
