<svg width="22" height="22" viewBox="0 0 22 22" fill="none" xmlns="http://www.w3.org/2000/svg">
<g id="elements">
<g id="Icon">
<path fill-rule="evenodd" clip-rule="evenodd" d="M4.75 5.5C4.75 2.6005 7.1005 0.25 10 0.25C12.8995 0.25 15.25 2.6005 15.25 5.5C15.25 8.39949 12.8995 10.75 10 10.75C7.1005 10.75 4.75 8.39949 4.75 5.5ZM10 1.75C7.92893 1.75 6.25 3.42893 6.25 5.5C6.25 7.57107 7.92893 9.25 10 9.25C12.0711 9.25 13.75 7.57107 13.75 5.5C13.75 3.42893 12.0711 1.75 10 1.75Z" fill="#161616"/>
<path d="M11.8604 13.9247C9.52119 13.4808 7.04867 13.8832 4.96146 15.126C4.79356 15.226 4.60959 15.3303 4.41688 15.4397C3.70427 15.8439 2.87223 16.316 2.29214 16.8838C1.93202 17.2363 1.77851 17.5271 1.75395 17.7517C1.73445 17.9301 1.77954 18.2242 2.23017 18.6535C3.26602 19.6404 4.3186 20.25 5.59104 20.25H11.5002C11.9144 20.25 12.2502 20.5858 12.2502 21C12.2502 21.4142 11.9144 21.75 11.5002 21.75H5.59104C3.77274 21.75 2.36695 20.8556 1.1955 19.7396C0.516485 19.0927 0.178022 18.3646 0.262828 17.5887C0.342574 16.8592 0.781228 16.2637 1.2429 15.8118C1.98106 15.0893 3.05857 14.4814 3.77139 14.0792C3.93401 13.9875 4.07775 13.9064 4.19404 13.8372C6.60569 12.4012 9.45218 11.941 12.14 12.451C12.5469 12.5282 12.8142 12.9207 12.737 13.3276C12.6598 13.7346 12.2673 14.0019 11.8604 13.9247Z" fill="#161616"/>
<path fill-rule="evenodd" clip-rule="evenodd" d="M16.9991 12.25C17.6709 12.25 18.1209 12.7533 18.3637 13.245L18.3642 13.2459L19.0597 14.6484L19.0655 14.654C19.0703 14.6583 19.0759 14.663 19.0821 14.6676C19.0883 14.6722 19.0945 14.6763 19.1002 14.6798L19.1085 14.6844L20.3636 14.8947C20.9038 14.9855 21.4915 15.275 21.6903 15.8985C21.8887 16.521 21.5785 17.0974 21.1909 17.486L21.1899 17.487L20.2142 18.4708C20.2108 18.4778 20.2063 18.4888 20.2023 18.5027C20.1979 18.5181 20.1959 18.5314 20.1951 18.5401L20.4745 19.7579C20.6005 20.3093 20.6126 21.0753 20.018 21.5123C19.4204 21.9516 18.6923 21.7048 18.2071 21.4159L17.0304 20.7135L17.0229 20.7125C17.0164 20.7117 17.009 20.7113 17.0011 20.7113C16.9932 20.7113 16.9857 20.7117 16.9789 20.7125C16.9744 20.713 16.9707 20.7136 16.9678 20.7142L15.7926 21.4156C15.3057 21.7069 14.5793 21.9496 13.9825 21.5106C13.3893 21.0742 13.3979 20.3106 13.5249 19.7572L13.8041 18.5401C13.8034 18.5314 13.8013 18.5181 13.7969 18.5027C13.793 18.4888 13.7885 18.4778 13.7851 18.4708L12.8075 17.4851C12.4223 17.0967 12.1133 16.5211 12.3101 15.8998C12.5077 15.2757 13.0951 14.9855 13.6361 14.8946L14.8869 14.6851L14.894 14.681C14.8967 14.6793 14.8996 14.6775 14.9025 14.6755C14.9057 14.6734 14.909 14.6711 14.9122 14.6687C14.9185 14.6639 14.9243 14.6592 14.9291 14.6547L14.9354 14.6487L15.6325 13.2431C15.8772 12.7522 16.3283 12.25 16.9991 12.25ZM16.2728 15.3282L16.9749 13.9123C16.9826 13.8969 16.9904 13.882 16.9978 13.8687C17.0047 13.8814 17.0118 13.8949 17.0189 13.9095L17.0196 13.9109L17.7225 15.3282C17.8371 15.5624 18.0175 15.7452 18.1868 15.8711C18.357 15.9978 18.5841 16.1173 18.8395 16.1603L20.1154 16.374C20.1347 16.3772 20.1524 16.3808 20.1687 16.3844C20.1568 16.3978 20.1435 16.4121 20.1285 16.427L20.1267 16.4289L19.1348 17.4289C18.9391 17.6263 18.8216 17.8738 18.7594 18.093C18.697 18.3127 18.6678 18.5824 18.7272 18.8497L19.0123 20.0927C19.0174 20.115 19.0218 20.1362 19.0256 20.1563C19.0096 20.1475 18.9926 20.1378 18.9752 20.1275L17.78 19.4141C17.5276 19.2634 17.243 19.2113 17.0011 19.2113C16.7585 19.2113 16.4756 19.2637 16.2242 19.4112L15.0227 20.1283C15.0057 20.1385 14.9893 20.1479 14.9736 20.1565C14.9774 20.1364 14.9818 20.1151 14.9869 20.0927L15.2709 18.8547L15.272 18.8497C15.3315 18.5824 15.3023 18.3127 15.2399 18.093C15.1776 17.8738 15.0602 17.6263 14.8644 17.4289L13.8725 16.4289C13.857 16.4132 13.8432 16.3983 13.831 16.3844C13.8471 16.3807 13.8651 16.3772 13.8843 16.3739L15.1598 16.1603L15.1624 16.1598C15.4166 16.1163 15.642 15.9959 15.8104 15.87C15.9782 15.7446 16.1582 15.5622 16.2728 15.3282Z" fill="#161616"/>
</g>
</g>
</svg>
