<svg width="22" height="20" viewBox="0 0 22 20" fill="none" xmlns="http://www.w3.org/2000/svg">
    <path fill-rule="evenodd" clip-rule="evenodd"
        d="M4.25 5C4.25 2.37665 6.37665 0.25 9 0.25C11.6234 0.25 13.75 2.37665 13.75 5C13.75 7.62335 11.6234 9.75 9 9.75C6.37665 9.75 4.25 7.62335 4.25 5ZM9 1.75C7.20507 1.75 5.75 3.20507 5.75 5C5.75 6.79493 7.20507 8.25 9 8.25C10.7949 8.25 12.25 6.79493 12.25 5C12.25 3.20507 10.7949 1.75 9 1.75Z"
        fill="currentColor" />
    <path fill-rule="evenodd" clip-rule="evenodd"
        d="M3.801 12.6493C6.98419 10.7836 11.0162 10.7836 14.1994 12.6493C14.3002 12.7084 14.4257 12.7781 14.5686 12.8574C15.2012 13.2086 16.1731 13.7481 16.8385 14.3892C17.254 14.7896 17.6635 15.3303 17.7383 16.0037C17.8184 16.7252 17.4961 17.3911 16.8798 17.9691C15.8297 18.9539 14.5618 19.75 12.9194 19.75H5.08096C3.43862 19.75 2.1707 18.9539 1.12062 17.9691C0.504298 17.3911 0.18195 16.7252 0.262072 16.0037C0.336844 15.3303 0.746401 14.7896 1.16189 14.3892C1.82728 13.7481 2.79919 13.2086 3.43183 12.8574C3.5745 12.7782 3.70028 12.7084 3.801 12.6493ZM13.4409 13.9434C10.7261 12.3522 7.2743 12.3522 4.55951 13.9434C4.40705 14.0328 4.24118 14.1255 4.06829 14.222C3.43584 14.5753 2.70944 14.9811 2.20266 15.4694C1.88766 15.7729 1.77085 16.0077 1.75291 16.1692C1.74032 16.2826 1.75891 16.5112 2.14672 16.8749C3.05867 17.7302 3.97597 18.25 5.08096 18.25H12.9194C14.0244 18.25 14.9417 17.7302 15.8537 16.8749C16.2415 16.5112 16.2601 16.2826 16.2475 16.1692C16.2295 16.0077 16.1127 15.7729 15.7977 15.4694C15.2909 14.9811 14.5647 14.5754 13.9322 14.2221C13.7593 14.1255 13.5934 14.0328 13.4409 13.9434Z"
        fill="currentColor" />
    <path fill-rule="evenodd" clip-rule="evenodd"
        d="M17.9995 0.25C18.6083 0.25 18.9956 0.705076 19.1909 1.10053L19.1914 1.10145L19.6816 2.08998L20.5539 2.2361C20.9921 2.30974 21.5168 2.5534 21.6965 3.11691C21.8758 3.67933 21.5904 4.18163 21.2762 4.49671L21.2752 4.49771L20.5953 5.18326L20.7888 6.02664C20.8868 6.45557 20.9171 7.13658 20.3747 7.53527C19.8292 7.93626 19.1871 7.69787 18.8093 7.47289L17.9998 6.98974L17.1906 7.47274C16.8107 7.69998 16.1704 7.93454 15.6259 7.53395C15.085 7.13602 15.1121 6.45741 15.2111 6.02598L15.4044 5.18326L14.7226 4.49589C14.4104 4.18105 14.1262 3.67952 14.3039 3.11826C14.4826 2.55415 15.0072 2.3098 15.4462 2.23603L16.3148 2.09053L16.8067 1.09865C17.0034 0.704101 17.3915 0.25 17.9995 0.25ZM17.6229 2.82907L17.9983 2.07191L18.3738 2.82907C18.4764 3.03847 18.6348 3.19699 18.7783 3.30375C18.9228 3.41126 19.1204 3.51674 19.3488 3.55512L19.9908 3.66267L19.4681 4.18967C19.2934 4.36588 19.1921 4.58234 19.1393 4.76854C19.0863 4.95526 19.0596 5.18993 19.1125 5.428L19.2398 5.98295L18.6812 5.64955C18.4559 5.51501 18.2069 5.47097 18.001 5.47097C17.7942 5.47097 17.5473 5.51527 17.3234 5.64663L16.7599 5.98295L16.8861 5.43292L16.8872 5.42799C16.9401 5.18992 16.9134 4.95526 16.8604 4.76854C16.8075 4.58234 16.7063 4.36588 16.5316 4.18967L16.0089 3.66267L16.6509 3.55513L16.6536 3.55467C16.8813 3.51569 17.0774 3.40944 17.2202 3.30271C17.3623 3.19643 17.5204 3.03824 17.6229 2.82907Z"
        fill="currentColor" />
</svg>
    