<svg width="20" height="17" viewBox="0 0 20 17" fill="none" xmlns="http://www.w3.org/2000/svg">
    <path fill-rule="evenodd" clip-rule="evenodd"
        d="M7.50025 0.292969C5.31412 0.292969 3.54191 2.06517 3.54191 4.2513C3.54191 6.43743 5.31412 8.20964 7.50025 8.20964C9.68637 8.20964 11.4586 6.43743 11.4586 4.2513C11.4586 2.06517 9.68637 0.292969 7.50025 0.292969ZM4.79191 4.2513C4.79191 2.75553 6.00447 1.54297 7.50025 1.54297C8.99602 1.54297 10.2086 2.75553 10.2086 4.2513C10.2086 5.74707 8.99602 6.95964 7.50025 6.95964C6.00447 6.95964 4.79191 5.74707 4.79191 4.2513Z"
        fill="#1B8354" />
    <path fill-rule="evenodd" clip-rule="evenodd"
        d="M11.561 10.8764C9.07273 9.54293 5.92776 9.54293 3.43946 10.8764C3.36188 10.918 3.26484 10.9672 3.15412 11.0234C2.66045 11.2739 1.89486 11.6623 1.36998 12.1247C1.04641 12.4098 0.699646 12.8168 0.635507 13.3449C0.565278 13.9231 0.852403 14.432 1.33832 14.8486C2.16742 15.5595 3.1606 16.1263 4.43835 16.1263H10.5621C11.8399 16.1263 12.8331 15.5595 13.6622 14.8486C14.1481 14.432 14.4352 13.9231 14.365 13.3449C14.3008 12.8168 13.9541 12.4098 13.6305 12.1247C13.1056 11.6623 12.3401 11.2739 11.8464 11.0234C11.7357 10.9672 11.6386 10.918 11.561 10.8764ZM2.15197 13.8997C1.85746 13.6472 1.87368 13.5173 1.87629 13.4964C1.88458 13.4281 1.94914 13.2804 2.19626 13.0627C2.58736 12.7181 3.14881 12.4313 3.64249 12.1791C3.77838 12.1097 3.90924 12.0428 4.02989 11.9782C6.14938 10.8423 8.85111 10.8423 10.9706 11.9782C11.0913 12.0428 11.2221 12.1097 11.358 12.1791C11.8517 12.4313 12.4131 12.7181 12.8042 13.0627C13.0513 13.2804 13.1158 13.4273 13.1241 13.4956C13.1267 13.5165 13.143 13.6472 12.8485 13.8997C12.1448 14.5031 11.4308 14.8763 10.5621 14.8763H4.43835C3.56974 14.8763 2.85572 14.5031 2.15197 13.8997Z"
        fill="#1B8354" />
    <path
        d="M13.0384 2.83833C13.1877 2.80872 13.3434 2.79297 13.5041 2.79297C14.732 2.79297 15.6251 3.68635 15.6251 4.66797C15.6251 5.64959 14.732 6.54297 13.5041 6.54297C13.3434 6.54297 13.1877 6.52721 13.0384 6.49761C12.6998 6.43045 12.3709 6.65048 12.3037 6.98906C12.2366 7.32764 12.4566 7.65656 12.7952 7.72372C13.0244 7.76918 13.2616 7.79297 13.5041 7.79297C15.3094 7.79297 16.8751 6.44777 16.8751 4.66797C16.8751 2.88816 15.3094 1.54297 13.5041 1.54297C13.2616 1.54297 13.0244 1.56676 12.7952 1.61222C12.4566 1.67938 12.2366 2.0083 12.3037 2.34688C12.3709 2.68546 12.6998 2.90549 13.0384 2.83833Z"
        fill="#1B8354" />
    <path
        d="M14.5835 9.8763C14.2383 9.8763 13.9585 10.1561 13.9585 10.5013C13.9585 10.8465 14.2383 11.1263 14.5835 11.1263C14.8419 11.1263 15.2903 11.2045 15.8162 11.3676C16.3325 11.5278 16.8718 11.754 17.3091 12.0158C17.7698 12.2916 18.0195 12.5492 18.0992 12.7307C18.1303 12.8015 18.1284 12.8433 18.119 12.878C18.1073 12.9212 18.0651 13.0167 17.9106 13.1545C17.2869 13.7109 16.6673 14.043 15.922 14.043H15.5135C15.1683 14.043 14.8885 14.3228 14.8885 14.668C14.8885 15.0131 15.1683 15.293 15.5135 15.293H15.922C17.0932 15.293 17.9978 14.7518 18.7427 14.0873C19.0229 13.8374 19.2333 13.5447 19.3254 13.2053C19.4198 12.8574 19.3729 12.5222 19.2436 12.2278C19.0024 11.6789 18.4693 11.2536 17.9512 10.9433C17.4097 10.6191 16.7745 10.3561 16.1866 10.1737C15.6081 9.99426 15.0225 9.8763 14.5835 9.8763Z"
        fill="#1B8354" />
    <path fill-rule="evenodd" clip-rule="evenodd"
        d="M7.50025 0.292969C5.31412 0.292969 3.54191 2.06517 3.54191 4.2513C3.54191 6.43743 5.31412 8.20964 7.50025 8.20964C9.68637 8.20964 11.4586 6.43743 11.4586 4.2513C11.4586 2.06517 9.68637 0.292969 7.50025 0.292969ZM4.79191 4.2513C4.79191 2.75553 6.00447 1.54297 7.50025 1.54297C8.99602 1.54297 10.2086 2.75553 10.2086 4.2513C10.2086 5.74707 8.99602 6.95964 7.50025 6.95964C6.00447 6.95964 4.79191 5.74707 4.79191 4.2513Z"
        stroke="#9DA4AE" />
    <path fill-rule="evenodd" clip-rule="evenodd"
        d="M11.561 10.8764C9.07273 9.54293 5.92776 9.54293 3.43946 10.8764C3.36188 10.918 3.26484 10.9672 3.15412 11.0234C2.66045 11.2739 1.89486 11.6623 1.36998 12.1247C1.04641 12.4098 0.699646 12.8168 0.635507 13.3449C0.565278 13.9231 0.852403 14.432 1.33832 14.8486C2.16742 15.5595 3.1606 16.1263 4.43835 16.1263H10.5621C11.8399 16.1263 12.8331 15.5595 13.6622 14.8486C14.1481 14.432 14.4352 13.9231 14.365 13.3449C14.3008 12.8168 13.9541 12.4098 13.6305 12.1247C13.1056 11.6623 12.3401 11.2739 11.8464 11.0234C11.7357 10.9672 11.6386 10.918 11.561 10.8764ZM2.15197 13.8997C1.85746 13.6472 1.87368 13.5173 1.87629 13.4964C1.88458 13.4281 1.94914 13.2804 2.19626 13.0627C2.58736 12.7181 3.14881 12.4313 3.64249 12.1791C3.77838 12.1097 3.90924 12.0428 4.02989 11.9782C6.14938 10.8423 8.85111 10.8423 10.9706 11.9782C11.0913 12.0428 11.2221 12.1097 11.358 12.1791C11.8517 12.4313 12.4131 12.7181 12.8042 13.0627C13.0513 13.2804 13.1158 13.4273 13.1241 13.4956C13.1267 13.5165 13.143 13.6472 12.8485 13.8997C12.1448 14.5031 11.4308 14.8763 10.5621 14.8763H4.43835C3.56974 14.8763 2.85572 14.5031 2.15197 13.8997Z"
        stroke="#9DA4AE" />
    <path
        d="M13.0384 2.83833C13.1877 2.80872 13.3434 2.79297 13.5041 2.79297C14.732 2.79297 15.6251 3.68635 15.6251 4.66797C15.6251 5.64959 14.732 6.54297 13.5041 6.54297C13.3434 6.54297 13.1877 6.52721 13.0384 6.49761C12.6998 6.43045 12.3709 6.65048 12.3037 6.98906C12.2366 7.32764 12.4566 7.65656 12.7952 7.72372C13.0244 7.76918 13.2616 7.79297 13.5041 7.79297C15.3094 7.79297 16.8751 6.44777 16.8751 4.66797C16.8751 2.88816 15.3094 1.54297 13.5041 1.54297C13.2616 1.54297 13.0244 1.56676 12.7952 1.61222C12.4566 1.67938 12.2366 2.0083 12.3037 2.34688C12.3709 2.68546 12.6998 2.90549 13.0384 2.83833Z"
        stroke="#9DA4AE" />
    <path
        d="M14.5835 9.8763C14.2383 9.8763 13.9585 10.1561 13.9585 10.5013C13.9585 10.8465 14.2383 11.1263 14.5835 11.1263C14.8419 11.1263 15.2903 11.2045 15.8162 11.3676C16.3325 11.5278 16.8718 11.754 17.3091 12.0158C17.7698 12.2916 18.0195 12.5492 18.0992 12.7307C18.1303 12.8015 18.1284 12.8433 18.119 12.878C18.1073 12.9212 18.0651 13.0167 17.9106 13.1545C17.2869 13.7109 16.6673 14.043 15.922 14.043H15.5135C15.1683 14.043 14.8885 14.3228 14.8885 14.668C14.8885 15.0131 15.1683 15.293 15.5135 15.293H15.922C17.0932 15.293 17.9978 14.7518 18.7427 14.0873C19.0229 13.8374 19.2333 13.5447 19.3254 13.2053C19.4198 12.8574 19.3729 12.5222 19.2436 12.2278C19.0024 11.6789 18.4693 11.2536 17.9512 10.9433C17.4097 10.6191 16.7745 10.3561 16.1866 10.1737C15.6081 9.99426 15.0225 9.8763 14.5835 9.8763Z"
        stroke="#9DA4AE" />
</svg>
    