<svg width="20" height="20" viewBox="0 0 20 20" fill="none" xmlns="http://www.w3.org/2000/svg">
<path d="M17.8683 7.08382L17.8674 7.08282L17.8613 7.07618C17.8555 7.06984 17.8462 7.05972 17.8335 7.04606C17.808 7.01874 17.7689 6.97731 17.7167 6.92379C17.6124 6.8167 17.4563 6.66147 17.2541 6.47413C16.849 6.09888 16.262 5.5979 15.5377 5.09758C14.0771 4.08872 12.1196 3.125 10.0003 3.125C7.88104 3.125 5.92352 4.08872 4.46299 5.09758C3.73867 5.5979 3.1517 6.09888 2.7466 6.47413C2.54436 6.66147 2.38829 6.8167 2.28395 6.92379C2.2318 6.97731 2.19265 7.01874 2.16718 7.04606C2.15445 7.05972 2.14514 7.06984 2.13935 7.07618L2.13331 7.08282L2.13261 7.08359C1.9023 7.34037 1.50709 7.36243 1.25007 7.13228C0.99292 6.90202 0.971121 6.50689 1.20138 6.24974C1.20132 6.24983 1.20204 6.25048 1.25937 6.30178C1.31749 6.35378 1.43377 6.45783 1.66636 6.6661L1.20138 6.24974L1.20307 6.24786L1.20613 6.24447L1.21633 6.23324C1.22494 6.22382 1.23715 6.21055 1.25286 6.19369C1.28429 6.15997 1.32979 6.11188 1.38865 6.05147C1.50633 5.93069 1.67769 5.7604 1.89714 5.55712C2.33542 5.15112 2.96884 4.61044 3.75256 4.06909C5.3081 2.99461 7.51725 1.875 10.0003 1.875C12.4834 1.875 14.6926 2.99461 16.2481 4.06909C17.0318 4.61044 17.6652 5.15112 18.1035 5.55712C18.323 5.7604 18.4943 5.93069 18.612 6.05147C18.6709 6.11188 18.7164 6.15997 18.7478 6.19369C18.7635 6.21055 18.7757 6.22382 18.7843 6.23324L18.7945 6.24447L18.7976 6.24786L18.7986 6.24899C18.7988 6.24916 18.7993 6.24974 18.3337 6.66667L18.7993 6.24974C19.0295 6.50689 19.0077 6.90202 18.7506 7.13228C18.4935 7.36247 18.0985 7.34076 17.8683 7.08382Z" fill="#161616"/>
<path fill-rule="evenodd" clip-rule="evenodd" d="M10.0003 14.7917C8.27445 14.7917 6.87534 13.3926 6.87534 11.6667C6.87534 9.94078 8.27445 8.54167 10.0003 8.54167C11.7262 8.54167 13.1253 9.94078 13.1253 11.6667C13.1253 13.3926 11.7262 14.7917 10.0003 14.7917ZM8.12534 11.6667C8.12534 12.7022 8.9648 13.5417 10.0003 13.5417C11.0359 13.5417 11.8753 12.7022 11.8753 11.6667C11.8753 10.6311 11.0359 9.79167 10.0003 9.79167C8.9648 9.79167 8.12534 10.6311 8.12534 11.6667Z" fill="#161616"/>
<path fill-rule="evenodd" clip-rule="evenodd" d="M4.60059 7.26082C6.02196 6.15117 7.8582 5.20833 10.0003 5.20833C12.1425 5.20833 13.9787 6.15117 15.4001 7.26082C16.8227 8.37146 17.8743 9.68312 18.4625 10.5079L18.5068 10.5698C18.7178 10.8632 18.9587 11.1982 18.9587 11.6667C18.9587 12.1352 18.7178 12.4702 18.5068 12.7636L18.4625 12.8254C17.8743 13.6502 16.8227 14.9619 15.4001 16.0725C13.9787 17.1822 12.1425 18.125 10.0003 18.125C7.8582 18.125 6.02196 17.1822 4.60059 16.0725C3.17795 14.9619 2.12639 13.6502 1.53818 12.8254L1.49383 12.7636C1.28287 12.4702 1.042 12.1352 1.042 11.6667C1.042 11.1982 1.28287 10.8632 1.49383 10.5698L1.53818 10.5079C2.12639 9.68312 3.17795 8.37146 4.60059 7.26082ZM5.3698 8.24612C4.07732 9.25515 3.10606 10.4622 2.5559 11.2337C2.41979 11.4246 2.35502 11.5177 2.31641 11.5919C2.29186 11.6391 2.29193 11.652 2.292 11.6647L2.292 11.6667L2.292 11.6687C2.29193 11.6813 2.29186 11.6942 2.31641 11.7414C2.35502 11.8156 2.41979 11.9088 2.5559 12.0996C3.10607 12.8711 4.07732 14.0782 5.3698 15.0872C6.66357 16.0972 8.23479 16.875 10.0003 16.875C11.7659 16.875 13.3371 16.0972 14.6309 15.0872C15.9234 14.0782 16.8946 12.8711 17.4448 12.0996C17.5809 11.9088 17.6457 11.8156 17.6843 11.7414C17.7088 11.6942 17.7087 11.6813 17.7087 11.6687L17.7087 11.6667L17.7087 11.6647C17.7087 11.652 17.7088 11.6391 17.6843 11.5919C17.6457 11.5177 17.5809 11.4246 17.4448 11.2337C16.8946 10.4622 15.9234 9.25515 14.6309 8.24612C13.3371 7.23609 11.7659 6.45833 10.0003 6.45833C8.23479 6.45833 6.66357 7.23609 5.3698 8.24612Z" fill="#161616"/>
</svg>
