<svg width="40" height="40" viewBox="0 0 40 40" fill="none" xmlns="http://www.w3.org/2000/svg">
<path d="M0 20C0 8.95431 8.95431 0 20 0C31.0457 0 40 8.95431 40 20C40 31.0457 31.0457 40 20 40C8.95431 40 0 31.0457 0 20Z" fill="#FFFAEB"/>
<path d="M19.5757 20.6261C19.5178 20.6252 19.4509 20.6252 19.3683 20.6252C19.0231 20.6252 18.7433 20.3454 18.7433 20.0002C18.7433 19.655 19.0231 19.3752 19.3683 19.3752L19.397 19.3752C19.568 19.3751 19.7528 19.375 19.9088 19.396C20.0916 19.4206 20.3251 19.4838 20.5216 19.6803C20.7181 19.8768 20.7813 20.1103 20.8058 20.293C20.8268 20.449 20.8267 20.6339 20.8267 20.8048L20.8267 24.1668C20.8267 24.512 20.5468 24.7918 20.2017 24.7918C19.8565 24.7918 19.5767 24.512 19.5767 24.1668V20.8335C19.5767 20.7509 19.5766 20.684 19.5757 20.6261Z" fill="#B42318"/>
<path d="M19.9933 16.6668C19.5331 16.6668 19.16 17.0399 19.16 17.5002C19.16 17.9604 19.5331 18.3335 19.9933 18.3335H20.0008C20.4611 18.3335 20.8341 17.9604 20.8341 17.5002C20.8341 17.0399 20.4611 16.6668 20.0008 16.6668H19.9933Z" fill="#B42318"/>
<path fill-rule="evenodd" clip-rule="evenodd" d="M18.6348 11.6793C19.5219 11.3849 20.4778 11.3849 21.3649 11.6793C22.2482 11.9726 22.9418 12.668 23.6386 13.6451C24.3331 14.619 25.1005 15.9769 26.0897 17.7272L26.1285 17.796C27.1179 19.5466 27.8852 20.9044 28.3635 22.0056C28.844 23.1121 29.0833 24.0675 28.8924 24.9853C28.7001 25.9094 28.226 26.7497 27.5355 27.3849C26.8467 28.0185 25.9088 28.2858 24.7278 28.4142C23.5536 28.5418 22.0175 28.5418 20.0405 28.5418H19.9592C17.9822 28.5418 16.4461 28.5418 15.2719 28.4142C14.0909 28.2858 13.153 28.0185 12.4642 27.3849C11.7737 26.7497 11.2996 25.9094 11.1073 24.9853C10.9163 24.0675 11.1557 23.1121 11.6362 22.0056C12.1144 20.9044 12.8818 19.5466 13.8712 17.796L13.91 17.7272C14.8992 15.9769 15.6666 14.619 16.3611 13.6451C17.0579 12.668 17.7515 11.9726 18.6348 11.6793ZM20.9711 12.8657C20.3397 12.6561 19.66 12.6561 19.0286 12.8657C18.532 13.0305 18.0327 13.4539 17.3788 14.3709C16.7271 15.2847 15.9915 16.5847 14.9787 18.3768C13.966 20.1687 13.2317 21.4697 12.7828 22.5035C12.333 23.539 12.2204 24.1984 12.3311 24.7306C12.4708 25.4019 12.8145 26.0087 13.3104 26.4649C13.7 26.8232 14.3069 27.0519 15.407 27.1715C16.5056 27.2909 17.9737 27.2918 19.9998 27.2918C22.026 27.2918 23.494 27.2909 24.5927 27.1715C25.6927 27.0519 26.2997 26.8232 26.6892 26.4649C27.1852 26.0087 27.5289 25.4019 27.6686 24.7306C27.7793 24.1984 27.6667 23.539 27.2169 22.5035C26.768 21.4697 26.0337 20.1687 25.021 18.3768C24.0082 16.5847 23.2725 15.2847 22.6209 14.3709C21.967 13.4539 21.4677 13.0305 20.9711 12.8657Z" fill="#B42318"/>
</svg>
