<svg width="40" height="40" viewBox="0 0 40 40" fill="none" xmlns="http://www.w3.org/2000/svg">
<path d="M0 20C0 8.95431 8.95431 0 20 0C31.0457 0 40 8.95431 40 20C40 31.0457 31.0457 40 20 40C8.95431 40 0 31.0457 0 20Z" fill="#FEF3F2"/>
<path d="M19.1605 23.3333C19.1605 22.873 19.5336 22.4999 19.9938 22.4999H20.0013C20.4615 22.4999 20.8346 22.873 20.8346 23.3333C20.8346 23.7935 20.4615 24.1666 20.0013 24.1666H19.9938C19.5336 24.1666 19.1605 23.7935 19.1605 23.3333Z" fill="#B42318"/>
<path d="M19.3753 20.8333C19.3753 21.1784 19.6551 21.4583 20.0003 21.4583C20.3455 21.4583 20.6253 21.1784 20.6253 20.8333V17.4999C20.6253 17.1547 20.3455 16.8749 20.0003 16.8749C19.6551 16.8749 19.3753 17.1547 19.3753 17.4999V20.8333Z" fill="#B42318"/>
<path fill-rule="evenodd" clip-rule="evenodd" d="M18.6353 11.6791C19.5224 11.3846 20.4783 11.3846 21.3653 11.6791C22.2487 11.9723 22.9423 12.6678 23.6391 13.6449C24.3336 14.6188 25.101 15.9766 26.0902 17.727L26.129 17.7957C27.1184 19.5464 27.8857 20.9042 28.364 22.0053C28.8445 23.1118 29.0838 24.0672 28.8929 24.985C28.7006 25.9091 28.2265 26.7495 27.536 27.3847C26.8472 28.0183 25.9093 28.2855 24.7283 28.4139C23.554 28.5416 22.018 28.5416 20.041 28.5416H19.9597C17.9827 28.5416 16.4466 28.5416 15.2723 28.4139C14.0914 28.2855 13.1535 28.0183 12.4647 27.3847C11.7742 26.7495 11.3001 25.9091 11.1078 24.985C10.9168 24.0672 11.1562 23.1118 11.6367 22.0053C12.1149 20.9042 12.8823 19.5463 13.8716 17.7957L13.9105 17.727C14.8997 15.9766 15.6671 14.6188 16.3615 13.6449C17.0583 12.6678 17.7519 11.9723 18.6353 11.6791ZM20.9715 12.8654C20.3402 12.6559 19.6605 12.6559 19.0291 12.8654C18.5325 13.0303 18.0332 13.4537 17.3793 14.3706C16.7276 15.2844 15.992 16.5845 14.9792 18.3765C13.9665 20.1685 13.2322 21.4695 12.7832 22.5033C12.3335 23.5388 12.2208 24.1982 12.3316 24.7304C12.4713 25.4017 12.8149 26.0084 13.3109 26.4647C13.7005 26.823 14.3074 27.0517 15.4074 27.1713C16.5061 27.2907 17.9742 27.2916 20.0003 27.2916C22.0265 27.2916 23.4945 27.2907 24.5932 27.1713C25.6932 27.0517 26.3002 26.823 26.6897 26.4647C27.1857 26.0084 27.5294 25.4017 27.6691 24.7304C27.7798 24.1982 27.6671 23.5388 27.2174 22.5033C26.7685 21.4695 26.0342 20.1685 25.0215 18.3765C24.0087 16.5845 23.273 15.2844 22.6214 14.3706C21.9675 13.4537 21.4682 13.0303 20.9715 12.8654Z" fill="#B42318"/>
<path d="M19.1605 23.3333C19.1605 22.873 19.5336 22.4999 19.9938 22.4999H20.0013C20.4615 22.4999 20.8346 22.873 20.8346 23.3333C20.8346 23.7935 20.4615 24.1666 20.0013 24.1666H19.9938C19.5336 24.1666 19.1605 23.7935 19.1605 23.3333Z" stroke="#9DA4AE"/>
<path d="M19.3753 20.8333C19.3753 21.1784 19.6551 21.4583 20.0003 21.4583C20.3455 21.4583 20.6253 21.1784 20.6253 20.8333V17.4999C20.6253 17.1547 20.3455 16.8749 20.0003 16.8749C19.6551 16.8749 19.3753 17.1547 19.3753 17.4999V20.8333Z" stroke="#9DA4AE"/>
<path fill-rule="evenodd" clip-rule="evenodd" d="M18.6353 11.6791C19.5224 11.3846 20.4783 11.3846 21.3653 11.6791C22.2487 11.9723 22.9423 12.6678 23.6391 13.6449C24.3336 14.6188 25.101 15.9766 26.0902 17.727L26.129 17.7957C27.1184 19.5464 27.8857 20.9042 28.364 22.0053C28.8445 23.1118 29.0838 24.0672 28.8929 24.985C28.7006 25.9091 28.2265 26.7495 27.536 27.3847C26.8472 28.0183 25.9093 28.2855 24.7283 28.4139C23.554 28.5416 22.018 28.5416 20.041 28.5416H19.9597C17.9827 28.5416 16.4466 28.5416 15.2723 28.4139C14.0914 28.2855 13.1535 28.0183 12.4647 27.3847C11.7742 26.7495 11.3001 25.9091 11.1078 24.985C10.9168 24.0672 11.1562 23.1118 11.6367 22.0053C12.1149 20.9042 12.8823 19.5463 13.8716 17.7957L13.9105 17.727C14.8997 15.9766 15.6671 14.6188 16.3615 13.6449C17.0583 12.6678 17.7519 11.9723 18.6353 11.6791ZM20.9715 12.8654C20.3402 12.6559 19.6605 12.6559 19.0291 12.8654C18.5325 13.0303 18.0332 13.4537 17.3793 14.3706C16.7276 15.2844 15.992 16.5845 14.9792 18.3765C13.9665 20.1685 13.2322 21.4695 12.7832 22.5033C12.3335 23.5388 12.2208 24.1982 12.3316 24.7304C12.4713 25.4017 12.8149 26.0084 13.3109 26.4647C13.7005 26.823 14.3074 27.0517 15.4074 27.1713C16.5061 27.2907 17.9742 27.2916 20.0003 27.2916C22.0265 27.2916 23.4945 27.2907 24.5932 27.1713C25.6932 27.0517 26.3002 26.823 26.6897 26.4647C27.1857 26.0084 27.5294 25.4017 27.6691 24.7304C27.7798 24.1982 27.6671 23.5388 27.2174 22.5033C26.7685 21.4695 26.0342 20.1685 25.0215 18.3765C24.0087 16.5845 23.273 15.2844 22.6214 14.3706C21.9675 13.4537 21.4682 13.0303 20.9715 12.8654Z" stroke="#9DA4AE"/>
</svg>
