<svg width="18" height="18" viewBox="0 0 18 18" fill="none" xmlns="http://www.w3.org/2000/svg">
<path fill-rule="evenodd" clip-rule="evenodd" d="M0.875006 9.00213C0.875065 7.8473 0.876748 6.94328 0.925203 6.20863C0.97609 5.43713 1.08045 4.80927 1.30974 4.23069C2.00817 2.46828 3.47887 1.09228 5.32495 0.444229C6.38315 0.0727595 7.6626 0.0434727 9.78838 0.0413065C9.80334 0.0411128 9.81833 0.0410156 9.83333 0.0410156C9.83912 0.0410156 9.84489 0.0410943 9.85064 0.0412507C10.0138 0.0411236 10.1818 0.0411361 10.3551 0.0411489L10.6574 0.0411362C12.02 0.0408533 12.8691 0.0406768 13.5697 0.286602C14.6939 0.68125 15.5952 1.52134 16.0244 2.60435C16.17 2.97163 16.2324 3.36155 16.2624 3.81566C16.2917 4.25948 16.2917 4.80576 16.2917 5.49272V7.33282C16.2917 7.678 16.0118 7.95782 15.6667 7.95782C15.3215 7.95782 15.0417 7.678 15.0417 7.33282V5.51464C15.0417 4.80088 15.0414 4.29578 15.0151 3.89792C14.9892 3.50565 14.9401 3.26107 14.8623 3.06487C14.5735 2.33613 13.9564 1.74714 13.1557 1.46604C12.6829 1.30008 12.0673 1.29116 10.5152 1.29116C10.2562 1.29116 10.0112 1.29124 9.7792 1.29168C8.61527 1.32041 7.68055 2.27294 7.68055 3.44379C7.68055 3.5664 7.68595 3.69822 7.69282 3.84622L7.69538 3.90106C7.70145 4.03016 7.70805 4.17065 7.71096 4.31076C7.71754 4.62751 7.70754 4.99712 7.61193 5.35391C7.42572 6.04889 6.88288 6.59173 6.1879 6.77795C5.83111 6.87355 5.46149 6.88355 5.14475 6.87698C5.00468 6.87407 4.86425 6.86747 4.73519 6.8614L4.6802 6.85883C4.5322 6.85196 4.40039 6.84657 4.27778 6.84657C3.09047 6.84657 2.12765 7.80775 2.12501 8.99444C2.125 9.04602 2.125 9.0982 2.125 9.151V11.2722C2.125 12.5662 2.12601 13.4822 2.20902 14.1877C2.2903 14.8785 2.44322 15.2908 2.69556 15.608C2.86029 15.8151 3.05662 16.0002 3.2792 16.157C3.62685 16.402 4.08138 16.5502 4.82885 16.6281C5.58628 16.707 6.56713 16.7078 7.93939 16.7078H11.5C11.8452 16.7078 12.125 16.9876 12.125 17.3328C12.125 17.678 11.8452 17.9578 11.5 17.9578H7.90327C6.57504 17.9578 5.52907 17.9578 4.69927 17.8713C3.85198 17.783 3.15527 17.5988 2.55925 17.1789C2.24108 16.9547 1.95735 16.688 1.71727 16.3861C1.2632 15.8152 1.06291 15.1439 0.967585 14.3338C0.874981 13.5468 0.874989 12.5572 0.875 11.3123V9.12825C0.875 9.08595 0.875004 9.04377 0.875006 9.00213ZM7.1442 1.35848C6.56664 1.40585 6.1298 1.48648 5.73898 1.62367C4.21636 2.15817 3.02985 3.28307 2.47182 4.69121C2.31033 5.09871 2.2193 5.58123 2.17249 6.2909C2.17169 6.30312 2.1709 6.31539 2.17012 6.32772C2.7497 5.86986 3.48182 5.59657 4.27778 5.59657C4.43258 5.59657 4.59058 5.60333 4.73813 5.61017L4.79469 5.61282C4.92525 5.61894 5.04816 5.6247 5.1707 5.62725C5.45457 5.63314 5.68173 5.61948 5.86438 5.57054C6.12799 5.49991 6.33389 5.294 6.40453 5.03039C6.45347 4.84774 6.46713 4.62059 6.46123 4.33672C6.45869 4.21419 6.45292 4.0913 6.4468 3.96076L6.44416 3.90414C6.43731 3.7566 6.43056 3.59859 6.43056 3.44379C6.43056 2.65803 6.69689 1.93448 7.1442 1.35848Z" fill="#9DA4AE"/>
<path d="M15.6092 10.4713C15.4805 10.4595 15.329 10.4578 15.1345 10.4578C14.8562 10.4578 14.6796 10.4753 14.5658 10.5023C14.496 10.5189 14.4675 10.5349 14.4591 10.5407C14.4537 10.5487 14.4366 10.5802 14.4202 10.6615C14.3961 10.7805 14.3835 10.955 14.3835 11.2217V12.6106C14.3835 12.8773 14.3961 13.0517 14.4202 13.1708C14.4366 13.2521 14.4537 13.2835 14.4591 13.2916C14.4675 13.2974 14.496 13.3134 14.5658 13.33C14.6796 13.357 14.8562 13.3745 15.1345 13.3745C15.329 13.3745 15.4805 13.3728 15.6092 13.361C15.7387 13.3491 15.8051 13.3298 15.8364 13.3157C15.8407 13.3138 15.8438 13.3122 15.8459 13.311C15.8522 13.2983 15.8736 13.2473 15.8793 13.1238C15.8951 12.779 16.1875 12.5123 16.5323 12.5282C16.8771 12.5441 17.1438 12.8365 17.1279 13.1813C17.1154 13.455 17.0569 13.7205 16.9186 13.9531C16.7744 14.1954 16.5708 14.3563 16.3479 14.4563C15.9717 14.625 15.5077 14.6247 15.1684 14.6245L15.1345 14.6245C14.5622 14.6245 13.9496 14.5746 13.5487 14.1484C13.3441 13.9309 13.2457 13.6696 13.1949 13.4183C13.1454 13.1732 13.1335 12.8974 13.1335 12.6106V11.2217C13.1335 10.9349 13.1454 10.6591 13.1949 10.4139C13.2457 10.1627 13.3441 9.90139 13.5487 9.68394C13.9496 9.25772 14.5622 9.20781 15.1345 9.20781L15.1684 9.2078C15.5077 9.2076 15.9717 9.20733 16.3479 9.376C16.5708 9.47597 16.7744 9.63684 16.9186 9.87918C17.0569 10.1118 17.1154 10.3773 17.1279 10.651C17.1438 10.9958 16.8771 11.2882 16.5323 11.3041C16.1875 11.32 15.8951 11.0533 15.8793 10.7085C15.8736 10.585 15.8522 10.5339 15.8459 10.5213C15.8438 10.5201 15.8407 10.5185 15.8364 10.5166C15.8051 10.5025 15.7387 10.4832 15.6092 10.4713Z" fill="#9DA4AE"/>
<path fill-rule="evenodd" clip-rule="evenodd" d="M10.6349 9.20781H10.7057C10.9985 9.20776 11.278 9.20771 11.5076 9.23894C11.7651 9.27398 12.0507 9.35841 12.2864 9.59689C12.521 9.83435 12.6031 10.1203 12.6373 10.3774C12.6679 10.6082 12.6679 10.8897 12.6678 11.1867V12.6456C12.6679 12.9426 12.6679 13.2241 12.6373 13.4549C12.6031 13.712 12.521 13.9979 12.2864 14.2354C12.0507 14.4739 11.7651 14.5583 11.5076 14.5933C11.278 14.6246 10.9985 14.6245 10.7057 14.6245H10.6349C10.3421 14.6245 10.0625 14.6246 9.83299 14.5933C9.57545 14.5583 9.28986 14.4739 9.05418 14.2354C8.81952 13.9979 8.73745 13.712 8.7033 13.4549C8.67263 13.2241 8.67268 12.9426 8.67272 12.6456V11.1867C8.67268 10.8897 8.67263 10.6082 8.7033 10.3774C8.73745 10.1203 8.81952 9.83435 9.05418 9.59689C9.28986 9.35841 9.57545 9.27398 9.83299 9.23894C10.0626 9.20771 10.3421 9.20776 10.6349 9.20781ZM9.9518 10.4858C9.96439 10.4832 9.98071 10.4804 10.0015 10.4775C10.1365 10.4592 10.3289 10.4578 10.6703 10.4578C11.0117 10.4578 11.2041 10.4592 11.3391 10.4775C11.3598 10.4804 11.3762 10.4832 11.3888 10.4858C11.3917 10.4997 11.395 10.5181 11.3981 10.542C11.4165 10.6804 11.4178 10.8769 11.4178 11.2217V12.6106C11.4178 12.9554 11.4165 13.1519 11.3981 13.2903C11.395 13.3142 11.3917 13.3326 11.3888 13.3464C11.3762 13.3491 11.3598 13.3519 11.3391 13.3548C11.2041 13.3731 11.0117 13.3745 10.6703 13.3745C10.3289 13.3745 10.1365 13.3731 10.0015 13.3548C9.98071 13.3519 9.96439 13.3491 9.9518 13.3464C9.94886 13.3326 9.94559 13.3142 9.94241 13.2903C9.92402 13.1519 9.92273 12.9554 9.92273 12.6106V11.2217C9.92273 10.8769 9.92402 10.6804 9.94241 10.542C9.94559 10.5181 9.94886 10.4997 9.9518 10.4858Z" fill="#9DA4AE"/>
<path fill-rule="evenodd" clip-rule="evenodd" d="M5.50507 9.20781L5.52385 9.20781C7.01304 9.20781 8.20768 10.4274 8.20768 11.9161C8.20768 13.4049 7.01304 14.6245 5.52385 14.6245L5.50508 14.6245C5.39342 14.6245 5.27151 14.6245 5.1662 14.6149C5.04607 14.6039 4.8875 14.5764 4.72818 14.4833C4.41587 14.3008 4.28862 14.017 4.24202 13.7855C4.2084 13.6184 4.21094 13.4336 4.21222 13.3409C4.21241 13.3268 4.21258 13.3144 4.21258 13.305V10.5273C4.21258 10.5178 4.21242 10.5059 4.21222 10.4918C4.21095 10.3991 4.2084 10.2139 4.24202 10.0468C4.28862 9.8153 4.41587 9.53144 4.72818 9.34898C4.8875 9.2559 5.04607 9.22842 5.1662 9.2174C5.27151 9.20774 5.39341 9.20778 5.50507 9.20781ZM5.4622 10.4578L5.46222 10.4598C5.46238 10.481 5.46258 10.5055 5.46258 10.5273V13.305C5.46258 13.3268 5.46239 13.3512 5.46222 13.3723L5.4622 13.3744L5.52385 13.3745C6.30878 13.3745 6.95768 12.7286 6.95768 11.9161C6.95768 11.1037 6.30878 10.4578 5.52385 10.4578L5.4622 10.4578Z" fill="#9DA4AE"/>
</svg>
