<svg width="20" height="20" viewBox="0 0 20 20" fill="none" xmlns="http://www.w3.org/2000/svg">
<path d="M9.16048 13.333C9.16048 12.8728 9.53358 12.4997 9.99382 12.4997H10.0013C10.4615 12.4997 10.8346 12.8728 10.8346 13.333C10.8346 13.7932 10.4615 14.1663 10.0013 14.1663H9.99382C9.53358 14.1663 9.16048 13.7932 9.16048 13.333Z" fill="#B42318"/>
<path d="M9.37533 10.833C9.37533 11.1782 9.65515 11.458 10.0003 11.458C10.3455 11.458 10.6253 11.1782 10.6253 10.833V7.49967C10.6253 7.1545 10.3455 6.87467 10.0003 6.87467C9.65515 6.87467 9.37533 7.1545 9.37533 7.49967V10.833Z" fill="#B42318"/>
<path fill-rule="evenodd" clip-rule="evenodd" d="M8.63531 1.67884C9.52236 1.3844 10.4783 1.3844 11.3653 1.67884C12.2487 1.97207 12.9423 2.66752 13.6391 3.64463C14.3336 4.61851 15.101 5.97639 16.0902 7.72675L16.129 7.79548C17.1184 9.54611 17.8857 10.9039 18.364 12.0051C18.8445 13.1116 19.0838 14.067 18.8929 14.9848C18.7006 15.9089 18.2265 16.7492 17.536 17.3844C16.8472 18.018 15.9093 18.2853 14.7283 18.4137C13.554 18.5414 12.018 18.5413 10.041 18.5413H9.95971C7.98268 18.5413 6.44661 18.5414 5.27234 18.4137C4.09138 18.2853 3.15348 18.018 2.46467 17.3844C1.77418 16.7493 1.30006 15.9089 1.10779 14.9848C0.916824 14.067 1.15616 13.1116 1.6367 12.0051C2.11492 10.9039 2.88228 9.5461 3.87164 7.79547L3.91048 7.72676C4.89967 5.9764 5.66706 4.61851 6.36155 3.64463C7.05835 2.66752 7.75194 1.97207 8.63531 1.67884ZM10.9715 2.86519C10.3402 2.65561 9.66049 2.65561 9.02911 2.86519C8.53246 3.03005 8.03318 3.45343 7.37928 4.37039C6.72762 5.2842 5.99198 6.58421 4.97921 8.37628C3.9665 10.1682 3.2322 11.4692 2.78325 12.503C2.33352 13.5386 2.22085 14.198 2.33158 14.7302C2.47125 15.4015 2.81495 16.0082 3.31092 16.4644C3.70045 16.8227 4.30742 17.0514 5.40744 17.171C6.50613 17.2905 7.97416 17.2913 10.0003 17.2913C12.0265 17.2913 13.4945 17.2905 14.5932 17.171C15.6932 17.0514 16.3002 16.8227 16.6897 16.4644C17.1857 16.0082 17.5294 15.4015 17.6691 14.7302C17.7798 14.198 17.6671 13.5386 17.2174 12.503C16.7685 11.4692 16.0342 10.1682 15.0215 8.37628C14.0087 6.58421 13.273 5.2842 12.6214 4.37039C11.9675 3.45343 11.4682 3.03005 10.9715 2.86519Z" fill="#B42318"/>
</svg>
