<svg width="20" height="22" viewBox="0 0 20 22" fill="none" xmlns="http://www.w3.org/2000/svg">
<path d="M5.25 5C5.25 4.58579 5.58579 4.25 6 4.25H8C8.41421 4.25 8.75 4.58579 8.75 5C8.75 5.41422 8.41421 5.75 8 5.75H6C5.58579 5.75 5.25 5.41421 5.25 5Z" fill="url(#paint0_linear_2652_7277)"/>
<path d="M5.25 8C5.25 7.58579 5.58579 7.25 6 7.25H8C8.41421 7.25 8.75 7.58579 8.75 8C8.75 8.41421 8.41421 8.75 8 8.75H6C5.58579 8.75 5.25 8.41421 5.25 8Z" fill="url(#paint1_linear_2652_7277)"/>
<path d="M5.25 11C5.25 10.5858 5.58579 10.25 6 10.25H8C8.41421 10.25 8.75 10.5858 8.75 11C8.75 11.4142 8.41421 11.75 8 11.75H6C5.58579 11.75 5.25 11.4142 5.25 11Z" fill="url(#paint2_linear_2652_7277)"/>
<path fill-rule="evenodd" clip-rule="evenodd" d="M4 0.25C3.36327 0.25 2.80098 0.282234 2.32323 0.387186C1.83699 0.494005 1.39172 0.686115 1.03892 1.03892C0.686117 1.39172 0.494005 1.83699 0.387186 2.32323C0.282233 2.80098 0.25 3.36327 0.25 4L0.25 21C0.25 21.4142 0.585786 21.75 1 21.75L19 21.75C19.4142 21.75 19.75 21.4142 19.75 21V10C19.75 9.36327 19.7178 8.80098 19.6128 8.32323C19.506 7.83699 19.3139 7.39172 18.9611 7.03892C18.6083 6.68612 18.163 6.49401 17.6768 6.38719C17.199 6.28223 16.6367 6.25 16 6.25H13.75V4C13.75 3.36327 13.7178 2.80099 13.6128 2.32323C13.506 1.83699 13.3139 1.39172 12.9611 1.03892C12.6083 0.686117 12.163 0.494005 11.6768 0.387186C11.199 0.282234 10.6367 0.25 10 0.25L4 0.25ZM12.25 20.25H10.25L10.25 16.9553C10.2501 16.5225 10.2501 16.1256 10.2067 15.8028C10.1589 15.4473 10.0465 15.0716 9.73744 14.7626C9.42842 14.4535 9.05269 14.3411 8.69721 14.2933C8.3744 14.2499 7.97757 14.25 7.54476 14.25H6.45526C6.02244 14.25 5.62561 14.2499 5.3028 14.2933C4.94732 14.3411 4.57159 14.4535 4.26257 14.7626C3.95355 15.0716 3.8411 15.4473 3.79331 15.8028C3.74991 16.1256 3.74995 16.5224 3.75 16.9553L3.75001 20.25H1.75L1.75 4C1.75 3.39573 1.78252 2.96251 1.85225 2.64508C1.92012 2.33614 2.01263 2.18653 2.09958 2.09958C2.18653 2.01263 2.33614 1.92012 2.64508 1.85225C2.96252 1.78252 3.39573 1.75 4 1.75L10 1.75C10.6043 1.75 11.0375 1.78252 11.3549 1.85225C11.6639 1.92012 11.8135 2.01263 11.9004 2.09958C11.9874 2.18653 12.0799 2.33614 12.1477 2.64508C12.2175 2.96251 12.25 3.39573 12.25 4L12.25 20.25ZM5.25001 20.25L5.25001 17C5.25001 16.5074 5.2516 16.2134 5.27993 16.0027C5.29291 15.9061 5.30821 15.8578 5.31717 15.836C5.31924 15.8309 5.32086 15.8276 5.32187 15.8257L5.32324 15.8232L5.32568 15.8219C5.32761 15.8209 5.33093 15.8192 5.33597 15.8172C5.35775 15.8082 5.40611 15.7929 5.50267 15.7799C5.71339 15.7516 6.0074 15.75 6.50001 15.75H7.50001C7.99261 15.75 8.28662 15.7516 8.49734 15.7799C8.5939 15.7929 8.64226 15.8082 8.66404 15.8172C8.66909 15.8192 8.6724 15.8209 8.67434 15.8219L8.67677 15.8232L8.67815 15.8257C8.67916 15.8276 8.68077 15.8309 8.68285 15.836C8.69181 15.8578 8.7071 15.9061 8.72008 16.0027C8.74841 16.2134 8.75001 16.5074 8.75001 17L8.75001 20.25L5.25001 20.25ZM13.75 7.75H16C16.6043 7.75 17.0375 7.78252 17.3549 7.85225C17.6639 7.92012 17.8135 8.01263 17.9004 8.09958C17.9874 8.18653 18.0799 8.33614 18.1477 8.64508C18.2175 8.96252 18.25 9.39573 18.25 10V20.25H13.75L13.75 7.75Z" fill="url(#paint3_linear_2652_7277)"/>
<defs>
<linearGradient id="paint0_linear_2652_7277" x1="0.25" y1="0.25" x2="19.75" y2="0.25" gradientUnits="userSpaceOnUse">
<stop stop-color="#475467"/>
<stop offset="1" stop-color="#667085"/>
</linearGradient>
<linearGradient id="paint1_linear_2652_7277" x1="0.25" y1="0.25" x2="19.75" y2="0.25" gradientUnits="userSpaceOnUse">
<stop stop-color="#475467"/>
<stop offset="1" stop-color="#667085"/>
</linearGradient>
<linearGradient id="paint2_linear_2652_7277" x1="0.25" y1="0.25" x2="19.75" y2="0.25" gradientUnits="userSpaceOnUse">
<stop stop-color="#475467"/>
<stop offset="1" stop-color="#667085"/>
</linearGradient>
<linearGradient id="paint3_linear_2652_7277" x1="0.25" y1="0.25" x2="19.75" y2="0.25" gradientUnits="userSpaceOnUse">
<stop stop-color="#475467"/>
<stop offset="1" stop-color="#667085"/>
</linearGradient>
</defs>
</svg>
