<svg width="20" height="20" viewBox="0 0 20 20" fill="none" xmlns="http://www.w3.org/2000/svg">
<path d="M11.8753 10.8327C11.8753 10.4875 12.1551 10.2077 12.5003 10.2077H14.167C14.5122 10.2077 14.792 10.4875 14.792 10.8327C14.792 11.1779 14.5122 11.4577 14.167 11.4577H12.5003C12.1551 11.4577 11.8753 11.1779 11.8753 10.8327Z" fill="#384250"/>
<path d="M11.8753 13.3327C11.8753 12.9875 12.1551 12.7077 12.5003 12.7077H14.167C14.5122 12.7077 14.792 12.9875 14.792 13.3327C14.792 13.6779 14.5122 13.9577 14.167 13.9577H12.5003C12.1551 13.9577 11.8753 13.6779 11.8753 13.3327Z" fill="#384250"/>
<path fill-rule="evenodd" clip-rule="evenodd" d="M1.66699 17.7077C1.32181 17.7077 1.04199 17.9875 1.04199 18.3327C1.04199 18.6779 1.32181 18.9577 1.66699 18.9577L18.3337 18.9577C18.6788 18.9577 18.9587 18.6779 18.9587 18.3327C18.9587 17.9875 18.6788 17.7077 18.3337 17.7077H18.1253V9.99935C18.1253 9.46874 18.0985 9.00017 18.011 8.60204C17.922 8.19684 17.7619 7.82579 17.4679 7.53178C17.1739 7.23778 16.8028 7.07769 16.3976 6.98867C15.9995 6.90121 15.5309 6.87435 15.0003 6.87435L13.1253 6.87435L13.1253 4.16602C13.1253 3.63541 13.0985 3.16684 13.011 2.76871C12.922 2.36351 12.7619 1.99245 12.4679 1.69845C12.1739 1.40445 11.8028 1.24435 11.3976 1.15534C10.9995 1.06788 10.5309 1.04102 10.0003 1.04102L5.00033 1.04102C4.46972 1.04102 4.00115 1.06788 3.60302 1.15534C3.19782 1.24435 2.82676 1.40445 2.53276 1.69845C2.23876 1.99245 2.07866 2.36351 1.98965 2.76871C1.90219 3.16684 1.87533 3.63541 1.87533 4.16602L1.87533 17.7077H1.66699ZM12.7087 17.7077V15.8327C12.7087 15.4875 12.9885 15.2077 13.3337 15.2077C13.6788 15.2077 13.9587 15.4875 13.9587 15.8327V17.7077H16.8753L16.8753 9.99935C16.8753 9.49579 16.8482 9.13478 16.7901 8.87025C16.7336 8.6128 16.6565 8.48812 16.584 8.41567C16.5116 8.34321 16.3869 8.26612 16.1294 8.20956C15.8649 8.15145 15.5039 8.12435 15.0003 8.12435H11.667C11.1634 8.12435 10.8024 8.15145 10.5379 8.20956C10.2804 8.26612 10.1558 8.34321 10.0833 8.41567C10.0109 8.48812 9.93376 8.6128 9.8772 8.87025C9.81909 9.13478 9.79199 9.49579 9.79199 9.99935L9.79199 17.7077H12.7087ZM3.12533 11.041L5.00033 11.041C5.3455 11.041 5.62533 11.3208 5.62533 11.666C5.62533 12.0112 5.3455 12.291 5.00033 12.291L3.12533 12.291L3.12533 17.7077L8.54199 17.7077L8.54199 9.99935C8.54199 9.46874 8.56885 9.00017 8.65631 8.60204C8.74533 8.19684 8.90542 7.82579 9.19943 7.53178C9.49343 7.23778 9.86448 7.07769 10.2697 6.98867C10.6678 6.90121 11.1364 6.87435 11.667 6.87435H11.8753L11.8753 4.16602C11.8753 3.66246 11.8482 3.30144 11.7901 3.03692C11.7336 2.77946 11.6565 2.65479 11.584 2.58233C11.5116 2.50988 11.3869 2.43278 11.1294 2.37622C10.8649 2.31811 10.5039 2.29102 10.0003 2.29102L5.00033 2.29102C4.49677 2.29102 4.13576 2.31811 3.87123 2.37622C3.61377 2.43278 3.4891 2.50988 3.41664 2.58233C3.34419 2.65479 3.26709 2.77946 3.21053 3.03691C3.15242 3.30144 3.12533 3.66246 3.12533 4.16602V4.37435L5.00033 4.37435C5.3455 4.37435 5.62533 4.65417 5.62533 4.99935C5.62533 5.34453 5.3455 5.62435 5.00033 5.62435H3.12533L3.12533 7.70768H5.00033C5.3455 7.70768 5.62533 7.9875 5.62533 8.33268C5.62533 8.67786 5.3455 8.95768 5.00033 8.95768H3.12533L3.12533 11.041Z" fill="#384250"/>
</svg>
