<svg width="20" height="20" viewBox="0 0 20 20" fill="none" xmlns="http://www.w3.org/2000/svg">
<path d="M10.6252 3.75C10.6252 3.40482 10.3453 3.125 10.0002 3.125C9.65498 3.125 9.37516 3.40482 9.37516 3.75V10.8016L9.37011 10.7957C9.19455 10.5885 9.02264 10.3695 8.86188 10.1647L8.82461 10.1172C8.66442 9.9133 8.49589 9.69904 8.36501 9.56438C8.12442 9.31686 7.72873 9.31124 7.48121 9.55182C7.23369 9.79241 7.22807 10.1881 7.46865 10.4356C7.54257 10.5117 7.66392 10.6632 7.84159 10.8894L7.8808 10.9393C8.03919 11.1411 8.22501 11.3778 8.41644 11.6037C8.62161 11.8459 8.85126 12.0974 9.08082 12.2929C9.19586 12.3909 9.32552 12.4875 9.46502 12.5622C9.59955 12.6341 9.78492 12.7083 10.0002 12.7083C10.2154 12.7083 10.4008 12.6341 10.5353 12.5622C10.6748 12.4875 10.8045 12.3909 10.9195 12.2929C11.1491 12.0974 11.3787 11.8459 11.5839 11.6037C11.7753 11.3778 11.9611 11.1411 12.1195 10.9394L12.1587 10.8894C12.3364 10.6632 12.4578 10.5117 12.5317 10.4356C12.7723 10.1881 12.7666 9.79241 12.5191 9.55182C12.2716 9.31124 11.8759 9.31686 11.6353 9.56438C11.5044 9.69904 11.3359 9.9133 11.1757 10.1172L11.1385 10.1647C10.9777 10.3695 10.8058 10.5885 10.6302 10.7957L10.6252 10.8016V3.75Z" fill="#1B8354"/>
<path d="M3.9585 13.75C3.9585 13.4048 3.67867 13.125 3.3335 13.125C2.98832 13.125 2.7085 13.4048 2.7085 13.75C2.7085 14.2806 2.73536 14.7492 2.82282 15.1473C2.91183 15.5525 3.07193 15.9236 3.36593 16.2176C3.65993 16.5116 4.03099 16.6717 4.43619 16.7607C4.83432 16.8481 5.30289 16.875 5.8335 16.875H14.1668C14.6974 16.875 15.166 16.8481 15.5641 16.7607C15.9693 16.6717 16.3404 16.5116 16.6344 16.2176C16.9284 15.9236 17.0885 15.5525 17.1775 15.1473C17.265 14.7492 17.2918 14.2806 17.2918 13.75C17.2918 13.4048 17.012 13.125 16.6668 13.125C16.3217 13.125 16.0418 13.4048 16.0418 13.75C16.0418 14.2536 16.0147 14.6146 15.9566 14.8791C15.9001 15.1366 15.823 15.2612 15.7505 15.3337C15.6781 15.4061 15.5534 15.4832 15.2959 15.5398C15.0314 15.5979 14.6704 15.625 14.1668 15.625H5.8335C5.32994 15.625 4.96893 15.5979 4.7044 15.5398C4.44694 15.4832 4.32227 15.4061 4.24981 15.3337C4.17736 15.2612 4.10026 15.1366 4.04371 14.8791C3.98559 14.6146 3.9585 14.2536 3.9585 13.75Z" fill="#1B8354"/>
</svg>
