<svg width="21" height="22" viewBox="0 0 21 22" fill="none" xmlns="http://www.w3.org/2000/svg">
<path d="M7.59961 11.25C7.1854 11.25 6.84961 11.5858 6.84961 12C6.84961 12.4142 7.1854 12.75 7.59961 12.75H7.8496L7.84961 16C7.84961 16.4142 8.1854 16.75 8.59961 16.75C9.01383 16.75 9.34961 16.4142 9.34961 16L9.3496 12.3472C9.3496 11.8346 8.9646 11.25 8.29419 11.25H7.59961Z" fill="#067647"/>
<path d="M11.5996 11.25C11.1854 11.25 10.8496 11.5858 10.8496 12C10.8496 12.4142 11.1854 12.75 11.5996 12.75H12.6351L11.5261 15.7391C11.382 16.1275 11.58 16.5591 11.9684 16.7032C12.3567 16.8472 12.7883 16.6492 12.9324 16.2609L14.2869 12.61C14.5553 11.8867 13.9663 11.25 13.3203 11.25H11.5996Z" fill="#067647"/>
<path d="M4.59961 6.25C4.1854 6.25 3.84961 6.58579 3.84961 7C3.84961 7.41421 4.1854 7.75 4.59961 7.75H16.5996C17.0138 7.75 17.3496 7.41421 17.3496 7C17.3496 6.58579 17.0138 6.25 16.5996 6.25H4.59961Z" fill="#067647"/>
<path fill-rule="evenodd" clip-rule="evenodd" d="M5.34961 1C5.34961 0.585786 5.01382 0.25 4.59961 0.25C4.1854 0.25 3.84961 0.585786 3.84961 1V1.63479C3.04485 1.86288 2.36611 2.2336 1.80115 2.84436C1.02324 3.68535 0.677458 4.74792 0.511858 6.07951C0.34959 7.3843 0.349599 9.05647 0.34961 11.19V11.81C0.349599 13.9435 0.34959 15.6157 0.511858 16.9205C0.677458 18.2521 1.02324 19.3147 1.80115 20.1556C2.58675 21.0049 3.59237 21.3901 4.8509 21.573C6.06893 21.75 7.62516 21.75 9.58885 21.75H11.6104C13.5741 21.75 15.1303 21.75 16.3483 21.573C17.6068 21.3901 18.6125 21.0049 19.3981 20.1556C20.176 19.3147 20.5218 18.2521 20.6874 16.9205C20.8496 15.6157 20.8496 13.9435 20.8496 11.8099V11.1901C20.8496 9.05648 20.8496 7.38431 20.6874 6.07951C20.5218 4.74792 20.176 3.68535 19.3981 2.84436C18.8331 2.2336 18.1544 1.86288 17.3496 1.63479V1C17.3496 0.585786 17.0138 0.25 16.5996 0.25C16.1854 0.25 15.8496 0.585786 15.8496 1V1.36589C14.7135 1.24997 13.3156 1.24998 11.6104 1.25H9.58885C7.88363 1.24998 6.48567 1.24997 5.34961 1.36589V1ZM2.9023 3.86292C3.16164 3.58256 3.4709 3.36791 3.87821 3.20584C3.96767 3.51998 4.25678 3.75 4.59961 3.75C5.01382 3.75 5.34961 3.41421 5.34961 3V2.87459C6.41062 2.75156 7.78198 2.75 9.64961 2.75H11.5496C13.4172 2.75 14.7886 2.75156 15.8496 2.87459V3C15.8496 3.41421 16.1854 3.75 16.5996 3.75C16.9424 3.75 17.2315 3.51998 17.321 3.20585C17.7283 3.36791 18.0376 3.58256 18.2969 3.86292C18.7711 4.37558 19.0514 5.07915 19.1988 6.26463C19.3482 7.46607 19.3496 9.04494 19.3496 11.2432V11.7568C19.3496 13.9551 19.3482 15.5339 19.1988 16.7354C19.0514 17.9208 18.7711 18.6244 18.2969 19.1371C17.8304 19.6414 17.2023 19.9331 16.1326 20.0886C15.0349 20.2481 13.5877 20.25 11.5496 20.25H9.64961C7.61149 20.25 6.16437 20.2481 5.06665 20.0886C3.99689 19.9331 3.36882 19.6414 2.9023 19.1371C2.4281 18.6244 2.14782 17.9208 2.00039 16.7354C1.85098 15.5339 1.84961 13.9551 1.84961 11.7568V11.2432C1.84961 9.04494 1.85098 7.46607 2.00039 6.26463C2.14782 5.07915 2.4281 4.37558 2.9023 3.86292Z" fill="#067647"/>
</svg>
