<svg width="18" height="18" viewBox="0 0 18 18" fill="none" xmlns="http://www.w3.org/2000/svg">
<path d="M5.66667 4.20829C5.32149 4.20829 5.04167 4.48811 5.04167 4.83329C5.04167 5.17847 5.32149 5.45829 5.66667 5.45829H12.3333C12.6785 5.45829 12.9583 5.17847 12.9583 4.83329C12.9583 4.48811 12.6785 4.20829 12.3333 4.20829H5.66667Z" fill="#067647"/>
<path d="M5.04167 8.99996C5.04167 8.65478 5.32149 8.37496 5.66667 8.37496H12.3333C12.6785 8.37496 12.9583 8.65478 12.9583 8.99996C12.9583 9.34514 12.6785 9.62496 12.3333 9.62496H5.66667C5.32149 9.62496 5.04167 9.34514 5.04167 8.99996Z" fill="#067647"/>
<path d="M5.66667 12.5416C5.32149 12.5416 5.04167 12.8214 5.04167 13.1666C5.04167 13.5118 5.32149 13.7916 5.66667 13.7916H9C9.34518 13.7916 9.625 13.5118 9.625 13.1666C9.625 12.8214 9.34518 12.5416 9 12.5416H5.66667Z" fill="#067647"/>
<path fill-rule="evenodd" clip-rule="evenodd" d="M9.48607 0.0416262H8.51393C6.88821 0.0416156 5.60784 0.0416072 4.60737 0.168644C3.58323 0.298687 2.75804 0.571419 2.1046 1.18855C1.44612 1.81045 1.1505 2.60386 1.01046 3.58764C0.874973 4.53937 0.874985 5.75446 0.875 7.28385V10.7161C0.874985 12.2454 0.874973 13.4606 1.01046 14.4123C1.1505 15.3961 1.44612 16.1895 2.1046 16.8114C2.75804 17.4285 3.58323 17.7012 4.60737 17.8313C5.60784 17.9583 6.88822 17.9583 8.51395 17.9583H9.48611C11.1118 17.9583 12.3922 17.9583 13.3926 17.8313C14.4168 17.7012 15.242 17.4285 15.8954 16.8114C16.5539 16.1895 16.8495 15.3961 16.9895 14.4123C17.125 13.4605 17.125 12.2454 17.125 10.7161V7.28391C17.125 5.75451 17.125 4.53937 16.9895 3.58764C16.8495 2.60386 16.5539 1.81045 15.8954 1.18855C15.242 0.571419 14.4168 0.298687 13.3926 0.168644C12.3922 0.0416076 11.1118 0.0416158 9.48607 0.0416262ZM2.96288 2.09732C3.34319 1.73814 3.86676 1.52272 4.76483 1.40869C5.67739 1.29281 6.87833 1.29163 8.55883 1.29163H9.44118C11.1217 1.29163 12.3226 1.29281 13.2352 1.40869C14.1332 1.52272 14.6568 1.73815 15.0371 2.09732C15.4124 2.45173 15.6336 2.93216 15.752 3.7638C15.8735 4.61727 15.875 5.74327 15.875 7.33329V10.6666C15.875 12.2567 15.8735 13.3827 15.752 14.2361C15.6336 15.0678 15.4124 15.5482 15.0371 15.9026C14.6568 16.2618 14.1332 16.4772 13.2352 16.5912C12.3226 16.7071 11.1217 16.7083 9.44118 16.7083H8.55883C6.87833 16.7083 5.67739 16.7071 4.76483 16.5912C3.86676 16.4772 3.34319 16.2618 2.96288 15.9026C2.58762 15.5482 2.36637 15.0678 2.24798 14.2361C2.12649 13.3827 2.125 12.2567 2.125 10.6666L2.125 7.33329C2.125 5.74327 2.12649 4.61727 2.24798 3.7638C2.36637 2.93216 2.58762 2.45173 2.96288 2.09732Z" fill="#067647"/>
</svg>
