<svg width="21" height="21" viewBox="0 0 21 21" fill="none" xmlns="http://www.w3.org/2000/svg">
<path d="M19.6677 4.59755C17.9413 2.80082 15.1294 2.80082 13.403 4.59755L12.6895 5.34015C12.4025 5.63883 12.412 6.11361 12.7107 6.4006C13.0094 6.68758 13.4842 6.6781 13.7711 6.37942L14.4847 5.63682C15.6208 4.45439 17.4499 4.45439 18.5861 5.63682C19.7384 6.83611 19.7384 8.79249 18.5861 9.99178L15.3467 13.3632C15.167 13.5502 14.9713 13.7065 14.7652 13.8332C13.6571 14.5143 12.2058 14.3629 11.2453 13.3632C11.089 13.2006 10.9541 13.0244 10.8404 12.8381C10.6245 12.4846 10.163 12.373 9.80944 12.5889C9.45592 12.8047 9.34434 13.2663 9.5602 13.6198C9.72973 13.8975 9.93094 14.1603 10.1637 14.4025C11.6182 15.9162 13.8479 16.1577 15.5506 15.1111C15.8653 14.9177 16.1605 14.6811 16.4283 14.4025L19.6677 11.0311C21.3778 9.25119 21.3778 6.37741 19.6677 4.59755Z" fill="#067647"/>
<path d="M14.2369 9.59754C12.5106 7.80082 9.69864 7.80082 7.97225 9.59754L4.73283 12.9689C3.02265 14.7488 3.02265 17.6226 4.73283 19.4025C6.45922 21.1992 9.27114 21.1992 10.9975 19.4025L11.7113 18.6596C11.9983 18.3609 11.9888 17.8861 11.6901 17.5991C11.3915 17.3122 10.9167 17.3216 10.6297 17.6203L9.91591 18.3632C8.77977 19.5456 6.95059 19.5456 5.81445 18.3632C4.66211 17.1639 4.66211 15.2075 5.81445 14.0082L9.05387 10.6368C10.19 9.45439 12.0192 9.45439 13.1553 10.6368C13.3115 10.7994 13.4464 10.9756 13.5601 11.1617C13.776 11.5152 14.2376 11.6268 14.5911 11.4109C14.9446 11.195 15.0562 10.7334 14.8403 10.3799C14.6708 10.1024 14.4696 9.83967 14.2369 9.59754Z" fill="#067647"/>
</svg>
