<svg width="22" height="22" viewBox="0 0 22 22" fill="none" xmlns="http://www.w3.org/2000/svg">
<path d="M5.49512 1C5.49512 0.585786 5.15933 0.25 4.74512 0.25C4.3309 0.25 3.99512 0.585786 3.99512 1L3.99512 1.39544C3.11146 1.55215 2.37184 1.85363 1.77452 2.4604C1.10945 3.13597 0.819313 3.98842 0.682438 5.02257C0.549775 6.02489 0.549788 7.30319 0.549805 8.90642L0.549805 14.0164C0.549788 15.6196 0.549775 16.8979 0.682438 17.9003C0.819313 18.9344 1.10947 19.7869 1.77452 20.4625C2.4412 21.1397 3.28512 21.4366 4.30872 21.5764C5.29776 21.7115 6.55816 21.7114 8.1345 21.7114H9.08901C9.50323 21.7114 9.83901 21.3756 9.83901 20.9614C9.83901 20.5472 9.50323 20.2114 9.08901 20.2114H8.19092C6.54514 20.2114 5.38743 20.2098 4.51169 20.0902C3.65875 19.9737 3.18596 19.7581 2.84346 19.4102C2.49933 19.0606 2.28489 18.5755 2.16947 17.7034C2.05135 16.811 2.04981 15.6322 2.04981 13.9614L2.04981 8.96143C2.04981 7.29063 2.05135 6.11182 2.16947 5.21938C2.28489 4.34733 2.49935 3.86226 2.84346 3.51271C3.1096 3.24236 3.45441 3.05189 3.99512 2.92574L3.99512 3C3.99512 3.41421 4.3309 3.75 4.74512 3.75C5.15933 3.75 5.49512 3.41421 5.49512 3V2.74778C6.21838 2.71215 7.09679 2.71143 8.19092 2.71143L8.99512 2.71143V3C8.99512 3.41421 9.3309 3.75 9.74512 3.75C10.1593 3.75 10.4951 3.41421 10.4951 3V2.71143L11.1443 2.71143C12.275 2.71143 13.2122 2.71867 13.9951 2.76707V3C13.9951 3.41421 14.3309 3.75 14.7451 3.75C15.1593 3.75 15.4951 3.41421 15.4951 3V2.95638C16.1121 3.09536 16.5004 3.29881 16.7653 3.56789C17.1113 3.91932 17.3221 4.39264 17.4347 5.24661C17.5498 6.11979 17.5498 7.27495 17.5498 8.93126V10.1479C17.5498 10.5621 17.8856 10.8979 18.2998 10.8979C18.714 10.8979 19.0498 10.5621 19.0498 10.1479L19.0498 8.82598C19.0499 7.26264 19.05 6.02274 18.9218 5.05052C18.7867 4.02589 18.4975 3.18926 17.8343 2.51557C17.2298 1.90162 16.4268 1.59299 15.4951 1.42677V1C15.4951 0.585786 15.1593 0.25 14.7451 0.25C14.3309 0.25 13.9951 0.585786 13.9951 1V1.26458C13.1643 1.21689 12.2137 1.21143 11.1443 1.21143L10.4951 1.21143V1C10.4951 0.585786 10.1593 0.25 9.74512 0.25C9.3309 0.25 8.99512 0.585786 8.99512 1V1.21143L8.13449 1.21143C7.13034 1.21141 6.25438 1.2114 5.49512 1.24631V1Z" fill="#067647"/>
<path d="M5.04981 9C5.04981 8.58579 5.38559 8.25 5.79981 8.25L13.7998 8.25C14.214 8.25 14.5498 8.58579 14.5498 9C14.5498 9.41421 14.214 9.75 13.7998 9.75L5.79981 9.75C5.38559 9.75 5.04981 9.41421 5.04981 9Z" fill="#067647"/>
<path d="M5.04981 14C5.04981 13.5858 5.38559 13.25 5.79981 13.25H9.7998C10.214 13.25 10.5498 13.5858 10.5498 14C10.5498 14.4142 10.214 14.75 9.7998 14.75H5.79981C5.38559 14.75 5.04981 14.4142 5.04981 14Z" fill="#067647"/>
<path fill-rule="evenodd" clip-rule="evenodd" d="M18.6189 12.3204C19.1322 12.4613 19.6041 12.8083 20.0932 13.3502C20.3746 13.6091 20.6861 13.9348 20.874 14.3682C21.0805 14.8445 21.1048 15.3685 20.9483 15.9557L20.9367 15.9991L20.92 16.0409C20.7358 16.5016 20.3649 16.9034 20.0282 17.2407C19.8779 17.3913 19.7318 17.5315 19.5843 17.6731C19.3536 17.8946 19.1192 18.1196 18.86 18.3925L18.8511 18.4019L18.8419 18.411C18.3784 18.8663 17.9874 19.265 17.6486 19.6103C17.4959 19.766 17.3537 19.9109 17.2204 20.0453C16.8258 20.4429 16.4523 20.8092 16.143 20.9948C15.7169 21.2506 15.179 21.3894 14.562 21.5005L14.55 21.5027L14.538 21.5045C14.3557 21.5312 14.1561 21.563 13.961 21.5941C13.7217 21.6322 13.4885 21.6694 13.3027 21.6948C13.1204 21.7197 12.9383 21.7403 12.7742 21.7473C12.6286 21.7535 12.4182 21.754 12.2188 21.6932C11.6753 21.5277 11.5852 20.9924 11.5662 20.8532C11.5368 20.6378 11.5518 20.3998 11.5734 20.1968C11.6069 19.8823 11.6759 19.4991 11.7392 19.1479C11.7579 19.0437 11.7762 18.9423 11.7928 18.8464C11.885 18.197 12.0779 17.5547 12.3355 17.1308C12.3856 17.0454 12.4465 16.9735 12.4696 16.9462L12.4734 16.9417C12.519 16.8876 12.5755 16.8245 12.6376 16.757C12.7629 16.6209 12.9303 16.446 13.1225 16.2487C13.5082 15.8531 14.0085 15.3527 14.5056 14.8616L14.5192 14.8482L14.5334 14.8355C14.7102 14.6778 14.961 14.4167 15.2554 14.1103C15.4256 13.9331 15.6105 13.7407 15.8038 13.5446C16.0519 13.2929 16.3096 13.0404 16.5393 12.8436C16.6535 12.7457 16.7747 12.6494 16.8943 12.5713C16.9802 12.5152 17.1352 12.4203 17.326 12.377C17.6562 12.2797 18.1009 12.1782 18.6189 12.3204ZM17.723 13.8239C17.9932 13.7428 18.109 13.7359 18.2218 13.7669C18.3482 13.8016 18.593 13.9218 19 14.3778L19.0258 14.4067L19.0544 14.4327C19.309 14.6648 19.4354 14.821 19.4977 14.9648C19.5451 15.0741 19.5799 15.2328 19.5114 15.5198C19.4432 15.6616 19.2835 15.8635 18.9665 16.1811C18.8614 16.2864 18.7338 16.4093 18.5939 16.5439C18.3426 16.7859 18.0517 17.066 17.7814 17.35C17.3121 17.8114 16.9056 18.2257 16.5653 18.5726C16.416 18.7248 16.2792 18.8642 16.1557 18.9887C15.7143 19.4334 15.4842 19.6408 15.371 19.7087C15.1947 19.8146 14.8905 19.9166 14.3079 20.0222C14.0774 20.0561 13.8763 20.0884 13.6911 20.1181C13.4804 20.152 13.2899 20.1826 13.0997 20.2086L13.0825 20.2109C13.1123 19.9881 13.1578 19.7354 13.2072 19.4607C13.2286 19.3415 13.2509 19.2178 13.2728 19.091L13.2749 19.0789L13.2766 19.0669C13.3519 18.5286 13.5005 18.1069 13.6127 17.9176L13.6204 17.9084C13.6457 17.8784 13.6855 17.8335 13.7414 17.7727C13.8522 17.6523 14.008 17.4893 14.1967 17.2958C14.5697 16.9131 15.0573 16.4252 15.547 15.9413C15.7651 15.7446 16.0838 15.4134 16.4042 15.0802C16.5638 14.9144 16.7238 14.748 16.8721 14.5975C17.1144 14.3517 17.3358 14.1365 17.5155 13.9825C17.6059 13.905 17.6719 13.855 17.7147 13.827L17.7167 13.8258L17.723 13.8239Z" fill="#067647"/>
</svg>
