<svg width="24" height="24" viewBox="0 0 24 24" fill="none" xmlns="http://www.w3.org/2000/svg">
<path d="M16.75 11C16.75 10.5858 17.0858 10.25 17.5 10.25H18.5C18.9142 10.25 19.25 10.5858 19.25 11C19.25 11.4142 18.9142 11.75 18.5 11.75H17.5C17.0858 11.75 16.75 11.4142 16.75 11Z" fill="url(#paint0_linear_2652_2134)"/>
<path d="M16.75 15C16.75 14.5858 17.0858 14.25 17.5 14.25H18.5C18.9142 14.25 19.25 14.5858 19.25 15C19.25 15.4142 18.9142 15.75 18.5 15.75H17.5C17.0858 15.75 16.75 15.4142 16.75 15Z" fill="url(#paint1_linear_2652_2134)"/>
<path d="M5.5 6.25C5.08579 6.25 4.75 6.58579 4.75 7C4.75 7.41421 5.08579 7.75 5.5 7.75H6.5C6.91421 7.75 7.25 7.41421 7.25 7C7.25 6.58579 6.91421 6.25 6.5 6.25H5.5Z" fill="url(#paint2_linear_2652_2134)"/>
<path d="M9.5 6.25C9.08579 6.25 8.75 6.58579 8.75 7C8.75 7.41421 9.08579 7.75 9.5 7.75H10.5C10.9142 7.75 11.25 7.41421 11.25 7C11.25 6.58579 10.9142 6.25 10.5 6.25H9.5Z" fill="url(#paint3_linear_2652_2134)"/>
<path d="M5.5 10.25C5.08579 10.25 4.75 10.5858 4.75 11C4.75 11.4142 5.08579 11.75 5.5 11.75H6.5C6.91421 11.75 7.25 11.4142 7.25 11C7.25 10.5858 6.91421 10.25 6.5 10.25H5.5Z" fill="url(#paint4_linear_2652_2134)"/>
<path d="M9.5 10.25C9.08579 10.25 8.75 10.5858 8.75 11C8.75 11.4142 9.08579 11.75 9.5 11.75H10.5C10.9142 11.75 11.25 11.4142 11.25 11C11.25 10.5858 10.9142 10.25 10.5 10.25H9.5Z" fill="url(#paint5_linear_2652_2134)"/>
<path d="M5.5 14.25C5.08579 14.25 4.75 14.5858 4.75 15C4.75 15.4142 5.08579 15.75 5.5 15.75H6.5C6.91421 15.75 7.25 15.4142 7.25 15C7.25 14.5858 6.91421 14.25 6.5 14.25H5.5Z" fill="url(#paint6_linear_2652_2134)"/>
<path d="M9.5 14.25C9.08579 14.25 8.75 14.5858 8.75 15C8.75 15.4142 9.08579 15.75 9.5 15.75H10.5C10.9142 15.75 11.25 15.4142 11.25 15C11.25 14.5858 10.9142 14.25 10.5 14.25H9.5Z" fill="url(#paint7_linear_2652_2134)"/>
<path fill-rule="evenodd" clip-rule="evenodd" d="M8.05488 1.25H7.94513C6.57754 1.24998 5.47521 1.24996 4.60825 1.36652C3.70814 1.48754 2.95027 1.74643 2.34835 2.34835C1.74643 2.95027 1.48754 3.70814 1.36652 4.60825C1.24996 5.47521 1.24998 6.57753 1.25 7.94511V16.0549C1.24998 17.4225 1.24996 18.5248 1.36652 19.3918C1.48754 20.2919 1.74643 21.0497 2.34835 21.6517C2.95027 22.2536 3.70814 22.5125 4.60825 22.6335C5.47522 22.75 6.57754 22.75 7.94513 22.75L18.052 22.75C18.9505 22.75 19.6997 22.7501 20.2945 22.6701C20.9223 22.5857 21.4891 22.4 21.9445 21.9445C22.4 21.4891 22.5857 20.9223 22.6701 20.2945C22.7501 19.6997 22.75 18.9505 22.75 18.052V11.948C22.75 11.0495 22.7501 10.3003 22.6701 9.70552C22.5857 9.07773 22.4 8.51093 21.9445 8.05546C21.4891 7.59999 20.9223 7.41432 20.2945 7.32991C19.6997 7.24995 18.9505 7.24997 18.052 7.25L14.7494 7.25C14.7464 6.19818 14.7296 5.32319 14.6335 4.60825C14.5125 3.70814 14.2536 2.95027 13.6517 2.34835C13.0497 1.74643 12.2919 1.48754 11.3918 1.36652C10.5248 1.24996 9.42246 1.24998 8.05488 1.25ZM14.75 8.75V21.25H18C18.964 21.25 19.6116 21.2484 20.0946 21.1835C20.5561 21.1214 20.7536 21.0142 20.8839 20.8839C21.0142 20.7536 21.1214 20.5561 21.1835 20.0946C21.2484 19.6116 21.25 18.964 21.25 18V12C21.25 11.036 21.2484 10.3884 21.1835 9.9054C21.1214 9.44393 21.0142 9.24644 20.8839 9.11612C20.7536 8.9858 20.5561 8.87858 20.0946 8.81654C19.6116 8.7516 18.964 8.75 18 8.75H14.75ZM13.25 7.94599C13.2499 6.53942 13.2471 5.55396 13.1469 4.80812C13.0482 4.07435 12.8678 3.68577 12.591 3.40901C12.3142 3.13225 11.9257 2.9518 11.1919 2.85315C10.4365 2.75159 9.43542 2.75 8 2.75C6.56459 2.75 5.56347 2.75159 4.80812 2.85315C4.07435 2.9518 3.68577 3.13225 3.40901 3.40901C3.13225 3.68577 2.9518 4.07435 2.85315 4.80812C2.75159 5.56347 2.75 6.56459 2.75 8V16C2.75 17.4354 2.75159 18.4365 2.85315 19.1919C2.9518 19.9257 3.13225 20.3142 3.40901 20.591C3.68577 20.8678 4.07435 21.0482 4.80812 21.1469C5.56347 21.2484 6.56459 21.25 8 21.25H13.25V8C13.25 7.98193 13.25 7.96393 13.25 7.94599Z" fill="url(#paint8_linear_2652_2134)"/>
<defs>
<linearGradient id="paint0_linear_2652_2134" x1="1.25" y1="1.25" x2="22.75" y2="1.25" gradientUnits="userSpaceOnUse">
<stop stop-color="#475467"/>
<stop offset="1" stop-color="#667085"/>
</linearGradient>
<linearGradient id="paint1_linear_2652_2134" x1="1.25" y1="1.25" x2="22.75" y2="1.25" gradientUnits="userSpaceOnUse">
<stop stop-color="#475467"/>
<stop offset="1" stop-color="#667085"/>
</linearGradient>
<linearGradient id="paint2_linear_2652_2134" x1="1.25" y1="1.25" x2="22.75" y2="1.25" gradientUnits="userSpaceOnUse">
<stop stop-color="#475467"/>
<stop offset="1" stop-color="#667085"/>
</linearGradient>
<linearGradient id="paint3_linear_2652_2134" x1="1.25" y1="1.25" x2="22.75" y2="1.25" gradientUnits="userSpaceOnUse">
<stop stop-color="#475467"/>
<stop offset="1" stop-color="#667085"/>
</linearGradient>
<linearGradient id="paint4_linear_2652_2134" x1="1.25" y1="1.25" x2="22.75" y2="1.25" gradientUnits="userSpaceOnUse">
<stop stop-color="#475467"/>
<stop offset="1" stop-color="#667085"/>
</linearGradient>
<linearGradient id="paint5_linear_2652_2134" x1="1.25" y1="1.25" x2="22.75" y2="1.25" gradientUnits="userSpaceOnUse">
<stop stop-color="#475467"/>
<stop offset="1" stop-color="#667085"/>
</linearGradient>
<linearGradient id="paint6_linear_2652_2134" x1="1.25" y1="1.25" x2="22.75" y2="1.25" gradientUnits="userSpaceOnUse">
<stop stop-color="#475467"/>
<stop offset="1" stop-color="#667085"/>
</linearGradient>
<linearGradient id="paint7_linear_2652_2134" x1="1.25" y1="1.25" x2="22.75" y2="1.25" gradientUnits="userSpaceOnUse">
<stop stop-color="#475467"/>
<stop offset="1" stop-color="#667085"/>
</linearGradient>
<linearGradient id="paint8_linear_2652_2134" x1="1.25" y1="1.25" x2="22.75" y2="1.25" gradientUnits="userSpaceOnUse">
<stop stop-color="#475467"/>
<stop offset="1" stop-color="#667085"/>
</linearGradient>
</defs>
</svg>
