<svg width="20" height="20" viewBox="0 0 20 20" fill="none" xmlns="http://www.w3.org/2000/svg">
<path fill-rule="evenodd" clip-rule="evenodd" d="M10 1.75C5.44365 1.75 1.75 5.44365 1.75 10C1.75 14.5563 5.44365 18.25 10 18.25C11.8585 18.25 13.5715 17.6364 14.9504 16.6004C15.2815 16.3516 15.7517 16.4183 16.0005 16.7495C16.2493 17.0807 16.1825 17.5508 15.8514 17.7996C14.2216 19.0241 12.1945 19.75 10 19.75C4.61522 19.75 0.25 15.3848 0.25 10C0.25 4.61522 4.61522 0.25 10 0.25C15.3848 0.25 19.75 4.61522 19.75 10V10.9003C19.75 12.8057 18.2054 14.3503 16.3 14.3503C15.0704 14.3503 13.991 13.7071 13.3801 12.7387C12.5825 13.7219 11.3647 14.3503 10 14.3503C7.59756 14.3503 5.65 12.4028 5.65 10.0003C5.65 7.59789 7.59756 5.65033 10 5.65033C11.0902 5.65033 12.0866 6.05134 12.85 6.7139V6.40033C12.85 5.98611 13.1858 5.65033 13.6 5.65033C14.0142 5.65033 14.35 5.98611 14.35 6.40033V10.9003C14.35 11.9773 15.223 12.8503 16.3 12.8503C17.377 12.8503 18.25 11.9773 18.25 10.9003V10C18.25 5.44365 14.5563 1.75 10 1.75ZM12.85 10.0003C12.85 8.42632 11.574 7.15033 10 7.15033C8.42599 7.15033 7.15 8.42632 7.15 10.0003C7.15 11.5743 8.42599 12.8503 10 12.8503C11.574 12.8503 12.85 11.5743 12.85 10.0003Z" fill="#1B8354"/>
</svg>
