<svg width="16" height="22" viewBox="0 0 16 22" fill="none" xmlns="http://www.w3.org/2000/svg">
<path fill-rule="evenodd" clip-rule="evenodd" d="M3.79545 6.55556C3.79545 3.03018 6.82109 0.25 10.4545 0.25L13.8182 0.25C14.0778 0.25 14.3347 0.261847 14.567 0.309843C14.8054 0.359081 15.0681 0.456293 15.2895 0.664409C15.7253 1.07414 15.75 1.67813 15.75 2.11111L15.75 4.33333C15.75 4.76632 15.7253 5.37031 15.2895 5.78004C15.0681 5.98815 14.8054 6.08536 14.567 6.1346C14.3347 6.1826 14.0778 6.19444 13.8182 6.19444L10.4545 6.19444C10.1718 6.19444 10.0227 6.39904 10.0227 6.55556V8.58333L12.4332 8.58333C12.7659 8.58333 13.0836 8.59978 13.3588 8.6611C13.6337 8.72234 13.9585 8.84845 14.1936 9.14155C14.4349 9.44234 14.481 9.79178 14.467 10.0803C14.4533 10.3614 14.3793 10.6647 14.2872 10.9678L13.7807 12.6344C13.6765 12.9773 13.5206 13.4057 13.1304 13.6824C12.7516 13.9511 12.2955 13.9722 11.9267 13.9722L10.0227 13.9722L10.0227 19.8889C10.0227 20.3219 9.99801 20.9259 9.56221 21.3356C9.34085 21.5437 9.07816 21.6409 8.83976 21.6902C8.60738 21.7382 8.3505 21.75 8.09091 21.75L5.72727 21.75C5.46768 21.75 5.2108 21.7382 4.97842 21.6902C4.74002 21.6409 4.47733 21.5437 4.25597 21.3356C3.82017 20.9259 3.79545 20.3219 3.79545 19.8889L3.79545 13.9722H2.18182C1.92222 13.9722 1.66535 13.9604 1.43297 13.9124C1.19457 13.8631 0.931878 13.7659 0.710518 13.5578C0.274718 13.1481 0.25 12.5441 0.25 12.1111L0.25 10.4444C0.25 10.0115 0.274718 9.40747 0.710518 8.99774C0.931878 8.78963 1.19457 8.69242 1.43297 8.64318C1.66535 8.59518 1.92222 8.58333 2.18182 8.58333H3.79545L3.79545 6.55556ZM10.4545 1.75C7.561 1.75 5.29545 3.94444 5.29545 6.55556L5.29545 9.33333C5.29545 9.74755 4.95967 10.0833 4.54545 10.0833L2.18182 10.0833C1.97991 10.0833 1.85089 10.0927 1.76773 10.1064C1.7576 10.1752 1.75 10.2814 1.75 10.4444L1.75 12.1111C1.75 12.2742 1.7576 12.3804 1.76773 12.4492C1.85089 12.4628 1.97991 12.4722 2.18182 12.4722L4.54545 12.4722C4.95967 12.4722 5.29545 12.808 5.29545 13.2222L5.29545 19.8889C5.29545 20.052 5.30306 20.1581 5.3132 20.2269C5.39636 20.2406 5.52537 20.25 5.72727 20.25L8.09091 20.25C8.29281 20.25 8.42184 20.2406 8.505 20.2269C8.51513 20.1581 8.52273 20.052 8.52273 19.8889L8.52273 13.2222C8.52273 12.808 8.85851 12.4722 9.27273 12.4722L11.9267 12.4722C12.0962 12.4722 12.1937 12.4639 12.2521 12.4531C12.274 12.4093 12.3046 12.333 12.3455 12.1983L12.852 10.5316C12.9094 10.3427 12.9413 10.2073 12.9569 10.1114C12.8427 10.0943 12.6755 10.0833 12.4332 10.0833L9.27273 10.0833C8.85851 10.0833 8.52273 9.74755 8.52273 9.33333V6.55556C8.52273 5.48478 9.43189 4.69444 10.4545 4.69444L13.8182 4.69444C14.0201 4.69444 14.1491 4.68504 14.2323 4.67138C14.2424 4.60258 14.25 4.49641 14.25 4.33333L14.25 2.11111C14.25 1.94803 14.2424 1.84186 14.2323 1.77306C14.1491 1.75941 14.0201 1.75 13.8182 1.75L10.4545 1.75Z" fill="#1B8354"/>
</svg>
