<svg width="22" height="22" viewBox="0 0 22 22" fill="none" xmlns="http://www.w3.org/2000/svg">
<path fill-rule="evenodd" clip-rule="evenodd" d="M0.25 3.25C0.25 1.59315 1.59315 0.25 3.25 0.25C4.90685 0.25 6.25 1.59315 6.25 3.25C6.25 4.90685 4.90685 6.25 3.25 6.25C1.59315 6.25 0.25 4.90685 0.25 3.25ZM3.25 1.75C2.42157 1.75 1.75 2.42157 1.75 3.25C1.75 4.07843 2.42157 4.75 3.25 4.75C4.07843 4.75 4.75 4.07843 4.75 3.25C4.75 2.42157 4.07843 1.75 3.25 1.75Z" fill="#1B8354"/>
<path fill-rule="evenodd" clip-rule="evenodd" d="M2.95526 7.75H3.54476C3.97757 7.74995 4.3744 7.74991 4.69721 7.79331C5.05269 7.8411 5.42842 7.95355 5.73744 8.26257C6.04647 8.57159 6.15891 8.94732 6.20671 9.3028C6.25011 9.62561 6.25006 10.0224 6.25001 10.4553L6.25001 19.0448C6.25006 19.4776 6.25011 19.8744 6.20671 20.1972C6.15891 20.5527 6.04647 20.9284 5.73744 21.2374C5.42842 21.5465 5.05269 21.6589 4.69721 21.7067C4.3744 21.7501 3.97757 21.7501 3.54475 21.75H2.95526C2.52244 21.7501 2.12561 21.7501 1.8028 21.7067C1.44732 21.6589 1.07159 21.5465 0.76257 21.2374C0.453547 20.9284 0.3411 20.5527 0.293307 20.1972C0.249906 19.8744 0.249952 19.4776 0.250003 19.0448L0.250003 10.4553C0.249952 10.0224 0.249906 9.62561 0.293307 9.3028C0.3411 8.94732 0.453547 8.57159 0.76257 8.26257C1.07159 7.95355 1.44732 7.8411 1.8028 7.79331C2.12561 7.74991 2.52244 7.74995 2.95526 7.75ZM1.82324 9.32324L1.82568 9.32187C1.82761 9.32086 1.83093 9.31924 1.83597 9.31717C1.85775 9.3082 1.90611 9.29291 2.00267 9.27993C2.21339 9.2516 2.5074 9.25001 3.00001 9.25001H3.50001C3.99261 9.25001 4.28662 9.2516 4.49734 9.27993C4.5939 9.29291 4.64226 9.3082 4.66404 9.31717C4.66909 9.31924 4.6724 9.32086 4.67434 9.32187L4.67677 9.32324L4.67815 9.32568C4.67916 9.32761 4.68077 9.33093 4.68285 9.33597C4.69181 9.35775 4.7071 9.40611 4.72008 9.50267C4.74841 9.71339 4.75001 10.0074 4.75001 10.5L4.75001 19C4.75001 19.4926 4.74841 19.7866 4.72008 19.9973C4.7071 20.0939 4.69181 20.1423 4.68285 20.164C4.68077 20.1691 4.67916 20.1724 4.67815 20.1743L4.67677 20.1768L4.67434 20.1781C4.6724 20.1792 4.66909 20.1808 4.66404 20.1828C4.64226 20.1918 4.5939 20.2071 4.49734 20.2201C4.28662 20.2484 3.99261 20.25 3.50001 20.25H3.00001C2.5074 20.25 2.21339 20.2484 2.00267 20.2201C1.90611 20.2071 1.85775 20.1918 1.83597 20.1828C1.83093 20.1808 1.82761 20.1792 1.82568 20.1781L1.82324 20.1768L1.82187 20.1743C1.82086 20.1724 1.81924 20.1691 1.81717 20.164C1.80821 20.1423 1.79291 20.0939 1.77993 19.9973C1.7516 19.7866 1.75001 19.4926 1.75001 19L1.75001 10.5C1.75001 10.0074 1.7516 9.71339 1.77993 9.50267C1.79291 9.40611 1.80821 9.35775 1.81717 9.33597C1.81924 9.33093 1.82086 9.32761 1.82187 9.32568L1.82324 9.32324Z" fill="#1B8354"/>
<path fill-rule="evenodd" clip-rule="evenodd" d="M10.4553 7.75C10.7448 7.74998 11.9111 7.74996 12.1325 7.77024C12.3719 7.79217 12.6326 7.84259 12.8837 7.98952C13.143 8.14119 13.3588 8.35702 13.5105 8.61625L13.5225 8.63714C14.3122 8.0795 15.2655 7.75025 16.2968 7.75025C18.992 7.75025 21.7501 10.0445 21.7501 13.0002L21.7487 18.5455C21.7487 18.9783 21.7486 19.375 21.7052 19.6977C21.6573 20.0532 21.5448 20.4288 21.2358 20.7377C20.9268 21.0466 20.5511 21.1591 20.1957 21.2068C19.8729 21.2502 19.4762 21.2502 19.0435 21.2501H18.4552C18.0224 21.2502 17.6255 21.2502 17.3028 21.2068C16.9473 21.159 16.5716 21.0466 16.2625 20.7376C15.9535 20.4285 15.8411 20.0528 15.7933 19.6973C15.7499 19.3745 15.7499 18.9777 15.75 18.5449L15.75 14.0001C15.75 13.5426 15.4115 13.2501 15.0879 13.2501C14.5706 13.2501 14.2926 13.4485 14.1015 13.7658C13.8769 14.1388 13.7501 14.7288 13.7501 15.5001L13.75 19.0448C13.7501 19.4776 13.7501 19.8744 13.7067 20.1972C13.6589 20.5527 13.5465 20.9284 13.2374 21.2374C12.9284 21.5465 12.5527 21.6589 12.1972 21.7067C11.8744 21.7501 11.4776 21.7501 11.0448 21.75H10.4552C10.0224 21.7501 9.62561 21.7501 9.3028 21.7067C8.94732 21.6589 8.57159 21.5465 8.26257 21.2374C7.95355 20.9284 7.8411 20.5527 7.79331 20.1972C7.74991 19.8744 7.74995 19.4776 7.75 19.0448L7.75 10.4553C7.74995 10.0224 7.74991 9.62561 7.79331 9.3028C7.8411 8.94732 7.95355 8.57159 8.26257 8.26257C8.57159 7.95355 8.94732 7.8411 9.3028 7.79331C9.62561 7.74991 10.0224 7.74995 10.4553 7.75ZM10.5 9.25C10.0074 9.25 9.71339 9.25159 9.50266 9.27992C9.435 9.27729 9.29573 9.31816 9.27992 9.50266C9.25159 9.71339 9.25 10.0074 9.25 10.5L9.25 19C9.25 19.4926 9.25159 19.7866 9.27992 19.9973C9.29199 20.1193 9.43345 20.1966 9.50266 20.2201C9.71339 20.2484 10.0074 20.25 10.5 20.25H11C11.4926 20.25 11.7866 20.2484 11.9973 20.2201C12.0662 20.2027 12.207 20.1338 12.2201 19.9973C12.2484 19.7866 12.25 19.4926 12.25 19L12.2501 15.5001C12.2501 14.6146 12.3873 13.7046 12.8166 12.9918C13.2794 12.2234 14.0454 11.7501 15.0879 11.7501C16.324 11.7501 17.25 12.8008 17.25 14.0001V18.5001C17.25 18.9927 17.2516 19.2867 17.2799 19.4975C17.2799 19.6555 17.3754 19.682 17.45 19.7027C17.4697 19.7081 17.488 19.7132 17.5026 19.7202C17.7133 19.7485 18.0074 19.7501 18.5 19.7501L18.9987 19.7501C19.4912 19.7501 19.7852 19.7485 19.9958 19.7202C20.0652 19.6945 20.2069 19.6139 20.2186 19.4975C20.2469 19.2869 20.2486 18.9929 20.2487 18.5004L20.2501 13.0001C20.2499 10.9854 18.2807 9.25024 16.2968 9.25024C15.2192 9.25024 14.2443 9.77707 13.597 10.628C13.4021 10.8842 13.0655 10.9875 12.7605 10.8847C12.4555 10.7818 12.2501 10.4959 12.2501 10.174C12.25 9.84501 12.2493 9.64898 12.2361 9.50439C12.2278 9.35314 12.0724 9.2811 11.9956 9.26398C11.851 9.25073 11.655 9.25 11.326 9.25L10.5 9.25Z" fill="#1B8354"/>
</svg>
