<svg width="20" height="20" viewBox="0 0 20 20" fill="none" xmlns="http://www.w3.org/2000/svg">
<path fill-rule="evenodd" clip-rule="evenodd" d="M0.332231 0.658561C0.460452 0.407793 0.718356 0.25 1 0.25H6C6.24083 0.25 6.46701 0.365648 6.60801 0.560882L11.544 7.39534L18.4697 0.46967C18.7626 0.176777 19.2374 0.176777 19.5303 0.46967C19.8232 0.762563 19.8232 1.23744 19.5303 1.53033L12.4336 8.62707L19.608 18.5609C19.7729 18.7892 19.796 19.0907 19.6678 19.3414C19.5396 19.5922 19.2817 19.75 19 19.75H14C13.7592 19.75 13.533 19.6344 13.392 19.4391L8.456 12.6047L1.53033 19.5303C1.23744 19.8232 0.762566 19.8232 0.469673 19.5303C0.17678 19.2374 0.17678 18.7626 0.469673 18.4697L7.56641 11.3729L0.391994 1.43912C0.227092 1.21079 0.204011 0.909328 0.332231 0.658561ZM2.46682 1.75L14.3835 18.25H17.5332L5.61652 1.75H2.46682Z" fill="#1B8354"/>
</svg>
